<?xml version="1.0" standalone="no" ?>
<!DOCTYPE svg PUBLIC "-//W3C//DTD SVG 1.1//EN" "http://www.w3.org/Graphics/SVG/1.1/DTD/svg11.dtd">
<svg width="576px" height="32px" viewBox="0 0 576 32" style="background-color: #ffffff00" xmlns="http://www.w3.org/2000/svg" xmlns:xlink="http://www.w3.org/1999/xlink" version="1.1" >
<text x="0" y="0" stroke="transparent" fill="#000000" transform="matrix(0.0666667 0 0 0.0666667 3.22408 29.0849)" style="font:normal normal normal 200px 'Arial'" >
HO</text>
<path stroke="transparent" fill="#000000" transform="matrix(0.0666667 0 0 0.0666667 -18.0667 -46.3333)" d="M 1581.03,1041.73 L 1581.03,1064.82 L 1061.41,764.821 L 1061.41,741.726 L 1581.03,1041.73 Z " />
<path stroke="transparent" fill="#000000" transform="matrix(0.0666667 0 0 0.0666667 -18.0667 -46.3333)" d="M 2100.64,741.726 L 2100.64,764.821 L 1581.03,1064.82 L 1581.03,1041.73 L 2100.64,741.726 Z " />
<path stroke="transparent" fill="#000000" transform="matrix(0.0666667 0 0 0.0666667 -18.0667 -46.3333)" d="M 2620.26,1041.73 L 2620.26,1064.82 L 2100.64,764.821 L 2100.64,741.726 L 2620.26,1041.73 Z " />
<path stroke="transparent" fill="#000000" transform="matrix(0.0666667 0 0 0.0666667 -18.0667 -46.3333)" d="M 3139.87,741.726 L 3139.87,764.821 L 2620.26,1064.82 L 2620.26,1041.73 L 3139.87,741.726 Z " />
<path stroke="transparent" fill="#000000" transform="matrix(0.0666667 0 0 0.0666667 -18.0667 -46.3333)" d="M 3659.49,1041.73 L 3659.49,1064.82 L 3139.87,764.821 L 3139.87,741.726 L 3659.49,1041.73 Z " />
<path stroke="transparent" fill="#000000" transform="matrix(0.0666667 0 0 0.0666667 -18.0667 -46.3333)" d="M 4179.1,741.726 L 4179.1,764.821 L 3659.49,1064.82 L 3659.49,1041.73 L 4179.1,741.726 Z " />
<path stroke="transparent" fill="#000000" transform="matrix(0.0666667 0 0 0.0666667 -18.0667 -46.3333)" d="M 4698.72,1041.73 L 4698.72,1064.82 L 4179.1,764.821 L 4179.1,741.726 L 4698.72,1041.73 Z " />
<path stroke="transparent" fill="#000000" transform="matrix(0.0666667 0 0 0.0666667 -18.0667 -46.3333)" d="M 5218.33,741.726 L 5218.33,764.821 L 4698.72,1064.82 L 4698.72,1041.73 L 5218.33,741.726 Z " />
<path stroke="transparent" fill="#000000" transform="matrix(0.0666667 0 0 0.0666667 -18.0667 -46.3333)" d="M 5737.95,1041.73 L 5737.95,1064.82 L 5218.33,764.821 L 5218.33,741.726 L 5737.95,1041.73 Z " />
<path stroke="transparent" fill="#000000" transform="matrix(0.0666667 0 0 0.0666667 -18.0667 -46.3333)" d="M 6257.56,741.726 L 6257.56,764.821 L 5737.95,1064.82 L 5737.95,1041.73 L 6257.56,741.726 Z " />
<path stroke="transparent" fill="#000000" transform="matrix(0.0666667 0 0 0.0666667 -18.0667 -46.3333)" d="M 6777.18,1041.73 L 6777.18,1064.82 L 6257.56,764.821 L 6257.56,741.726 L 6777.18,1041.73 Z " />
<path stroke="transparent" fill="#000000" transform="matrix(0.0666667 0 0 0.0666667 -18.0667 -46.3333)" d="M 7296.79,741.726 L 7296.79,764.821 L 6777.18,1064.82 L 6777.18,1041.73 L 7296.79,741.726 Z " />
<path stroke="transparent" fill="#000000" transform="matrix(0.0666667 0 0 0.0666667 -18.0667 -46.3333)" d="M 7816.41,1041.73 L 7816.41,1064.82 L 7296.79,764.821 L 7296.79,741.726 L 7816.41,1041.73 Z " />
<path stroke="transparent" fill="#000000" transform="matrix(0.0666667 0 0 0.0666667 -18.0667 -46.3333)" d="M 8336.02,741.726 L 8336.02,764.821 L 7816.41,1064.82 L 7816.41,1041.73 L 8336.02,741.726 Z " />
<path stroke="transparent" fill="#000000" transform="matrix(0.0666667 0 0 0.0666667 -18.0667 -46.3333)" d="M 8860.64,1044.61 L 8850.64,1061.93 L 8336.02,764.821 L 8336.02,741.726 L 8860.64,1044.61 Z " />
<path stroke="transparent" fill="#000000" transform="matrix(0.0666667 0 0 0.0666667 -18.0667 -46.3333)" d="M 639.405,1008.47 L 629.405,991.145 L 1061.41,741.726 L 1061.41,764.821 L 639.405,1008.47 Z " />
</svg>
