<?xml version="1.0" standalone="no" ?>
<!DOCTYPE svg PUBLIC "-//W3C//DTD SVG 1.1//EN" "http://www.w3.org/Graphics/SVG/1.1/DTD/svg11.dtd">
<svg width="714px" height="118px" viewBox="0 0 714 118" style="background-color: #ffffff00" xmlns="http://www.w3.org/2000/svg" xmlns:xlink="http://www.w3.org/1999/xlink" version="1.1" >
<text x="0" y="0" stroke="transparent" fill="#000000" transform="matrix(0.0666667 0 0 0.0666667 552.332 74.7389)" style="font:normal normal normal 200px 'Arial'" >
O</text>
<text x="0" y="0" stroke="transparent" fill="#000000" transform="matrix(0.0666667 0 0 0.0666667 621.614 114.739)" style="font:normal normal normal 200px 'Arial'" >
OH</text>
<text x="0" y="0" stroke="transparent" fill="#000000" transform="matrix(0.0666667 0 0 0.0666667 690.896 74.7389)" style="font:normal normal normal 200px 'Arial'" >
OH</text>
<text x="0" y="0" stroke="transparent" fill="#000000" transform="matrix(0.0666667 0 0 0.0666667 517.691 14.7389)" style="font:normal normal normal 200px 'Arial'" >
O</text>
<path stroke="transparent" fill="#000000" transform="matrix(0.0666667 0 0 0.0666667 -5.06667 -4.33333)" d="M 8958.59,796.536 L 8958.59,819.63 L 8536.59,1063.27 L 8526.59,1045.95 L 8958.59,796.536 Z " />
<path stroke="transparent" fill="#000000" transform="matrix(0.0666667 0 0 0.0666667 -5.06667 -4.33333)" d="M 9478.21,1096.54 L 9478.21,1108.08 L 9468.21,1113.86 L 8958.59,819.63 L 8958.59,796.536 L 9478.21,1096.54 Z " />
<path stroke="transparent" fill="#000000" transform="matrix(0.0666667 0 0 0.0666667 -5.06667 -4.33333)" d="M 9488.21,1602.92 L 9468.21,1602.92 L 9468.21,1113.86 L 9478.21,1108.08 L 9488.21,1113.86 L 9488.21,1602.92 Z " />
<path stroke="transparent" fill="#000000" transform="matrix(0.0666667 0 0 0.0666667 -5.06667 -4.33333)" d="M 9997.82,796.536 L 9997.82,819.63 L 9488.21,1113.86 L 9478.21,1108.08 L 9478.21,1096.54 L 9997.82,796.536 Z " />
<path stroke="transparent" fill="#000000" transform="matrix(0.0666667 0 0 0.0666667 -5.06667 -4.33333)" d="M 10429.8,1045.95 L 10419.8,1063.27 L 9997.82,819.63 L 9997.82,796.536 L 10429.8,1045.95 Z " />
<path stroke="transparent" fill="#000000" transform="matrix(0.0666667 0 0 0.0666667 -5.06667 -4.33333)" d="M 7399.74,1119.63 L 7399.74,1096.54 L 7919.36,796.536 L 7919.36,819.63 L 7399.74,1119.63 Z " />
<path stroke="transparent" fill="#000000" transform="matrix(0.0666667 0 0 0.0666667 -5.06667 -4.33333)" d="M 6880.13,819.63 L 6880.13,796.536 L 7399.74,1096.54 L 7399.74,1119.63 L 6880.13,819.63 Z " />
<path stroke="transparent" fill="#000000" transform="matrix(0.0666667 0 0 0.0666667 -5.06667 -4.33333)" d="M 6360.51,1119.63 L 6360.51,1096.54 L 6880.13,796.536 L 6880.13,819.63 L 6360.51,1119.63 Z " />
<path stroke="transparent" fill="#000000" transform="matrix(0.0666667 0 0 0.0666667 -5.06667 -4.33333)" d="M 5840.9,819.63 L 5840.9,796.536 L 6360.51,1096.54 L 6360.51,1119.63 L 5840.9,819.63 Z " />
<path stroke="transparent" fill="#000000" transform="matrix(0.0666667 0 0 0.0666667 -5.06667 -4.33333)" d="M 5321.28,1119.63 L 5321.28,1096.54 L 5840.9,796.536 L 5840.9,819.63 L 5321.28,1119.63 Z " />
<path stroke="transparent" fill="#000000" transform="matrix(0.0666667 0 0 0.0666667 -5.06667 -4.33333)" d="M 4801.67,819.63 L 4801.67,796.536 L 5321.28,1096.54 L 5321.28,1119.63 L 4801.67,819.63 Z " />
<path stroke="transparent" fill="#000000" transform="matrix(0.0666667 0 0 0.0666667 -5.06667 -4.33333)" d="M 4282.05,1119.63 L 4282.05,1096.54 L 4801.67,796.536 L 4801.67,819.63 L 4282.05,1119.63 Z " />
<path stroke="transparent" fill="#000000" transform="matrix(0.0666667 0 0 0.0666667 -5.06667 -4.33333)" d="M 3762.44,819.63 L 3762.44,796.536 L 4282.05,1096.54 L 4282.05,1119.63 L 3762.44,819.63 Z " />
<path stroke="transparent" fill="#000000" transform="matrix(0.0666667 0 0 0.0666667 -5.06667 -4.33333)" d="M 3242.82,1119.63 L 3242.82,1096.54 L 3762.44,796.536 L 3762.44,819.63 L 3242.82,1119.63 Z " />
<path stroke="transparent" fill="#000000" transform="matrix(0.0666667 0 0 0.0666667 -5.06667 -4.33333)" d="M 2723.21,819.63 L 2723.21,796.536 L 3242.82,1096.54 L 3242.82,1119.63 L 2723.21,819.63 Z " />
<path stroke="transparent" fill="#000000" transform="matrix(0.0666667 0 0 0.0666667 -5.06667 -4.33333)" d="M 2203.59,1119.63 L 2203.59,1096.54 L 2723.21,796.536 L 2723.21,819.63 L 2203.59,1119.63 Z " />
<path stroke="transparent" fill="#000000" transform="matrix(0.0666667 0 0 0.0666667 -5.06667 -4.33333)" d="M 1683.98,819.63 L 1683.98,796.536 L 2203.59,1096.54 L 2203.59,1119.63 L 1683.98,819.63 Z " />
<path stroke="transparent" fill="#000000" transform="matrix(0.0666667 0 0 0.0666667 -5.06667 -4.33333)" d="M 1164.36,1119.63 L 1164.36,1096.54 L 1683.98,796.536 L 1683.98,819.63 L 1164.36,1119.63 Z " />
<path stroke="transparent" fill="#000000" transform="matrix(0.0666667 0 0 0.0666667 -5.06667 -4.33333)" d="M 644.746,819.63 L 644.746,796.536 L 1164.36,1096.54 L 1164.36,1119.63 L 644.746,819.63 Z " />
<path stroke="transparent" fill="#000000" transform="matrix(0.0666667 0 0 0.0666667 -5.06667 -4.33333)" d="M 130.131,1116.74 L 120.131,1099.42 L 644.746,796.536 L 644.746,819.63 L 130.131,1116.74 Z " />
<path stroke="transparent" fill="#000000" transform="matrix(0.0666667 0 0 0.0666667 -5.06667 -4.33333)" d="M 7873.36,327.917 L 7893.36,327.917 L 7893.36,828.868 L 7873.36,828.868 L 7873.36,327.917 Z " />
<path stroke="transparent" fill="#000000" transform="matrix(0.0666667 0 0 0.0666667 -5.06667 -4.33333)" d="M 7945.36,327.917 L 7965.36,327.917 L 7965.36,828.868 L 7945.36,828.868 L 7945.36,327.917 Z " />
<path stroke="transparent" fill="#000000" transform="matrix(0.0666667 0 0 0.0666667 -5.06667 -4.33333)" d="M 7919.36,819.63 L 7919.36,796.536 L 8351.36,1045.95 L 8341.36,1063.27 L 7919.36,819.63 Z " />
</svg>
