<?xml version="1.0" standalone="no" ?>
<!DOCTYPE svg PUBLIC "-//W3C//DTD SVG 1.1//EN" "http://www.w3.org/Graphics/SVG/1.1/DTD/svg11.dtd">
<svg width="632px" height="24px" viewBox="0 0 632 24" style="background-color: #ffffff00" xmlns="http://www.w3.org/2000/svg" xmlns:xlink="http://www.w3.org/1999/xlink" version="1.1" >
<text x="0" y="0" stroke="transparent" fill="#000000" transform="matrix(0.0666667 0 0 0.0666667 3.30757 20.7923)" style="font:normal normal normal 163.348px 'Arial'" >
HO</text>
<path stroke="transparent" fill="#000000" transform="matrix(0.0666667 0 0 0.0666667 -19.0667 -55.3333)" d="M 1174.08,1070.86 L 1174.02,1089.72 L 846.27,898.894 L 846.339,880.032 L 1174.08,1070.86 Z " />
<path stroke="transparent" fill="#000000" transform="matrix(0.0666667 0 0 0.0666667 -19.0667 -55.3333)" d="M 1503.22,882.438 L 1503.15,901.299 L 1174.02,1089.72 L 1174.08,1070.86 L 1503.22,882.438 Z " />
<path stroke="transparent" fill="#000000" transform="matrix(0.0666667 0 0 0.0666667 -19.0667 -55.3333)" d="M 1830.96,1073.27 L 1830.9,1092.13 L 1503.15,901.299 L 1503.22,882.438 L 1830.96,1073.27 Z " />
<path stroke="transparent" fill="#000000" transform="matrix(0.0666667 0 0 0.0666667 -19.0667 -55.3333)" d="M 2160.1,884.843 L 2160.03,903.705 L 1830.9,1092.13 L 1830.96,1073.27 L 2160.1,884.843 Z " />
<path stroke="transparent" fill="#000000" transform="matrix(0.0666667 0 0 0.0666667 -19.0667 -55.3333)" d="M 2487.84,1075.67 L 2487.77,1094.53 L 2160.03,903.705 L 2160.1,884.843 L 2487.84,1075.67 Z " />
<path stroke="transparent" fill="#000000" transform="matrix(0.0666667 0 0 0.0666667 -19.0667 -55.3333)" d="M 2816.98,887.249 L 2816.91,906.11 L 2487.77,1094.53 L 2487.84,1075.67 L 2816.98,887.249 Z " />
<path stroke="transparent" fill="#000000" transform="matrix(0.0666667 0 0 0.0666667 -19.0667 -55.3333)" d="M 3144.72,1078.08 L 3144.65,1096.94 L 2816.91,906.11 L 2816.98,887.249 L 3144.72,1078.08 Z " />
<path stroke="transparent" fill="#000000" transform="matrix(0.0666667 0 0 0.0666667 -19.0667 -55.3333)" d="M 3473.86,889.654 L 3473.79,908.516 L 3144.65,1096.94 L 3144.72,1078.08 L 3473.86,889.654 Z " />
<path stroke="transparent" fill="#000000" transform="matrix(0.0666667 0 0 0.0666667 -19.0667 -55.3333)" d="M 3801.6,1080.48 L 3801.53,1099.34 L 3473.79,908.516 L 3473.86,889.654 L 3801.6,1080.48 Z " />
<path stroke="transparent" fill="#000000" transform="matrix(0.0666667 0 0 0.0666667 -19.0667 -55.3333)" d="M 4130.74,892.06 L 4130.67,910.921 L 3801.53,1099.34 L 3801.6,1080.48 L 4130.74,892.06 Z " />
<path stroke="transparent" fill="#000000" transform="matrix(0.0666667 0 0 0.0666667 -19.0667 -55.3333)" d="M 4458.48,1082.89 L 4458.41,1101.75 L 4130.67,910.921 L 4130.74,892.06 L 4458.48,1082.89 Z " />
<path stroke="transparent" fill="#000000" transform="matrix(0.0666667 0 0 0.0666667 -19.0667 -55.3333)" d="M 4787.62,894.465 L 4787.55,913.327 L 4458.41,1101.75 L 4458.48,1082.89 L 4787.62,894.465 Z " />
<path stroke="transparent" fill="#000000" transform="matrix(0.0666667 0 0 0.0666667 -19.0667 -55.3333)" d="M 5115.36,1085.29 L 5115.29,1104.15 L 4787.55,913.327 L 4787.62,894.465 L 5115.36,1085.29 Z " />
<path stroke="transparent" fill="#000000" transform="matrix(0.0666667 0 0 0.0666667 -19.0667 -55.3333)" d="M 5444.5,896.871 L 5444.43,915.732 L 5115.29,1104.15 L 5115.36,1085.29 L 5444.5,896.871 Z " />
<path stroke="transparent" fill="#000000" transform="matrix(0.0666667 0 0 0.0666667 -19.0667 -55.3333)" d="M 5772.24,1087.7 L 5772.17,1106.56 L 5444.43,915.732 L 5444.5,896.871 L 5772.24,1087.7 Z " />
<path stroke="transparent" fill="#000000" transform="matrix(0.0666667 0 0 0.0666667 -19.0667 -55.3333)" d="M 6101.38,899.276 L 6101.31,918.138 L 5772.17,1106.56 L 5772.24,1087.7 L 6101.38,899.276 Z " />
<path stroke="transparent" fill="#000000" transform="matrix(0.0666667 0 0 0.0666667 -19.0667 -55.3333)" d="M 6429.12,1090.1 L 6429.05,1108.97 L 6101.31,918.138 L 6101.38,899.276 L 6429.12,1090.1 Z " />
<path stroke="transparent" fill="#000000" transform="matrix(0.0666667 0 0 0.0666667 -19.0667 -55.3333)" d="M 6758.26,901.682 L 6758.19,920.543 L 6429.05,1108.97 L 6429.12,1090.1 L 6758.26,901.682 Z " />
<path stroke="transparent" fill="#000000" transform="matrix(0.0666667 0 0 0.0666667 -19.0667 -55.3333)" d="M 7086,1092.51 L 7085.93,1111.37 L 6758.19,920.543 L 6758.26,901.682 L 7086,1092.51 Z " />
<path stroke="transparent" fill="#000000" transform="matrix(0.0666667 0 0 0.0666667 -19.0667 -55.3333)" d="M 7415.14,904.087 L 7415.07,922.949 L 7085.93,1111.37 L 7086,1092.51 L 7415.14,904.087 Z " />
<path stroke="transparent" fill="#000000" transform="matrix(0.0666667 0 0 0.0666667 -19.0667 -55.3333)" d="M 7742.88,1094.91 L 7742.81,1113.78 L 7415.07,922.949 L 7415.14,904.087 L 7742.88,1094.91 Z " />
<path stroke="transparent" fill="#000000" transform="matrix(0.0666667 0 0 0.0666667 -19.0667 -55.3333)" d="M 8072.01,906.493 L 8071.95,925.354 L 7742.81,1113.78 L 7742.88,1094.91 L 8072.01,906.493 Z " />
<path stroke="transparent" fill="#000000" transform="matrix(0.0666667 0 0 0.0666667 -19.0667 -55.3333)" d="M 8399.76,1097.32 L 8399.69,1116.18 L 8071.95,925.354 L 8072.01,906.493 L 8399.76,1097.32 Z " />
<path stroke="transparent" fill="#000000" transform="matrix(0.0666667 0 0 0.0666667 -19.0667 -55.3333)" d="M 8728.89,908.898 L 8728.83,927.76 L 8399.69,1116.18 L 8399.76,1097.32 L 8728.89,908.898 Z " />
<path stroke="transparent" fill="#000000" transform="matrix(0.0666667 0 0 0.0666667 -19.0667 -55.3333)" d="M 9056.64,1099.73 L 9056.57,1118.59 L 8728.83,927.76 L 8728.89,908.898 L 9056.64,1099.73 Z " />
<path stroke="transparent" fill="#000000" transform="matrix(0.0666667 0 0 0.0666667 -19.0667 -55.3333)" d="M 9385.77,911.304 L 9385.71,930.165 L 9056.57,1118.59 L 9056.64,1099.73 L 9385.77,911.304 Z " />
<path stroke="transparent" fill="#000000" transform="matrix(0.0666667 0 0 0.0666667 -19.0667 -55.3333)" d="M 9717.59,1104.5 L 9709.38,1118.62 L 9385.71,930.165 L 9385.77,911.304 L 9717.59,1104.5 Z " />
<path stroke="transparent" fill="#000000" transform="matrix(0.0666667 0 0 0.0666667 -19.0667 -55.3333)" d="M 596.883,1041.66 L 588.767,1027.49 L 846.339,880.032 L 846.27,898.894 L 596.883,1041.66 Z " />
</svg>
