<?xml version="1.0" standalone="no" ?>
<!DOCTYPE svg PUBLIC "-//W3C//DTD SVG 1.1//EN" "http://www.w3.org/Graphics/SVG/1.1/DTD/svg11.dtd">
<svg width="645px" height="78px" viewBox="0 0 645 78" style="background-color: #ffffff00" xmlns="http://www.w3.org/2000/svg" xmlns:xlink="http://www.w3.org/1999/xlink" version="1.1" >
<text x="0" y="0" stroke="transparent" fill="#000000" transform="matrix(0.0666667 0 0 0.0666667 587.614 14.7389)" style="font:normal normal normal 200px 'Arial'" >
O</text>
<text x="0" y="0" stroke="transparent" fill="#000000" transform="matrix(0.0666667 0 0 0.0666667 622.255 74.7389)" style="font:normal normal normal 200px 'Arial'" >
OH</text>
<path stroke="transparent" fill="#000000" transform="matrix(0.0666667 0 0 0.0666667 -17.0667 -21.3333)" d="M 8628.59,1374.63 L 8628.59,1351.54 L 9148.21,1051.54 L 9148.21,1074.63 L 8628.59,1374.63 Z " />
<path stroke="transparent" fill="#000000" transform="matrix(0.0666667 0 0 0.0666667 -17.0667 -21.3333)" d="M 8108.97,1074.63 L 8108.97,1051.54 L 8628.59,1351.54 L 8628.59,1374.63 L 8108.97,1074.63 Z " />
<path stroke="transparent" fill="#000000" transform="matrix(0.0666667 0 0 0.0666667 -17.0667 -21.3333)" d="M 7589.36,1374.63 L 7589.36,1351.54 L 8108.97,1051.54 L 8108.97,1074.63 L 7589.36,1374.63 Z " />
<path stroke="transparent" fill="#000000" transform="matrix(0.0666667 0 0 0.0666667 -17.0667 -21.3333)" d="M 7069.74,1074.63 L 7069.74,1051.54 L 7589.36,1351.54 L 7589.36,1374.63 L 7069.74,1074.63 Z " />
<path stroke="transparent" fill="#000000" transform="matrix(0.0666667 0 0 0.0666667 -17.0667 -21.3333)" d="M 6550.13,1374.63 L 6550.13,1351.54 L 7069.74,1051.54 L 7069.74,1074.63 L 6550.13,1374.63 Z " />
<path stroke="transparent" fill="#000000" transform="matrix(0.0666667 0 0 0.0666667 -17.0667 -21.3333)" d="M 6030.51,1074.63 L 6030.51,1051.54 L 6550.13,1351.54 L 6550.13,1374.63 L 6030.51,1074.63 Z " />
<path stroke="transparent" fill="#000000" transform="matrix(0.0666667 0 0 0.0666667 -17.0667 -21.3333)" d="M 5510.9,1374.63 L 5510.9,1351.54 L 6030.51,1051.54 L 6030.51,1074.63 L 5510.9,1374.63 Z " />
<path stroke="transparent" fill="#000000" transform="matrix(0.0666667 0 0 0.0666667 -17.0667 -21.3333)" d="M 4991.28,1074.63 L 4991.28,1051.54 L 5510.9,1351.54 L 5510.9,1374.63 L 4991.28,1074.63 Z " />
<path stroke="transparent" fill="#000000" transform="matrix(0.0666667 0 0 0.0666667 -17.0667 -21.3333)" d="M 4471.67,1374.63 L 4471.67,1351.54 L 4991.28,1051.54 L 4991.28,1074.63 L 4471.67,1374.63 Z " />
<path stroke="transparent" fill="#000000" transform="matrix(0.0666667 0 0 0.0666667 -17.0667 -21.3333)" d="M 3952.05,1074.63 L 3952.05,1051.54 L 4471.67,1351.54 L 4471.67,1374.63 L 3952.05,1074.63 Z " />
<path stroke="transparent" fill="#000000" transform="matrix(0.0666667 0 0 0.0666667 -17.0667 -21.3333)" d="M 3432.44,1374.63 L 3432.44,1351.54 L 3952.05,1051.54 L 3952.05,1074.63 L 3432.44,1374.63 Z " />
<path stroke="transparent" fill="#000000" transform="matrix(0.0666667 0 0 0.0666667 -17.0667 -21.3333)" d="M 2912.82,1074.63 L 2912.82,1051.54 L 3432.44,1351.54 L 3432.44,1374.63 L 2912.82,1074.63 Z " />
<path stroke="transparent" fill="#000000" transform="matrix(0.0666667 0 0 0.0666667 -17.0667 -21.3333)" d="M 2393.21,1374.63 L 2393.21,1351.54 L 2912.82,1051.54 L 2912.82,1074.63 L 2393.21,1374.63 Z " />
<path stroke="transparent" fill="#000000" transform="matrix(0.0666667 0 0 0.0666667 -17.0667 -21.3333)" d="M 2434.21,1434.1 L 2424.21,1416.78 L 2907.82,1137.56 L 2917.82,1154.88 L 2434.21,1434.1 Z " />
<path stroke="transparent" fill="#000000" transform="matrix(0.0666667 0 0 0.0666667 -17.0667 -21.3333)" d="M 1873.59,1074.63 L 1873.59,1051.54 L 2393.21,1351.54 L 2393.21,1374.63 L 1873.59,1074.63 Z " />
<path stroke="transparent" fill="#000000" transform="matrix(0.0666667 0 0 0.0666667 -17.0667 -21.3333)" d="M 1353.98,1374.63 L 1353.98,1351.54 L 1873.59,1051.54 L 1873.59,1074.63 L 1353.98,1374.63 Z " />
<path stroke="transparent" fill="#000000" transform="matrix(0.0666667 0 0 0.0666667 -17.0667 -21.3333)" d="M 834.361,1074.63 L 834.361,1051.54 L 1353.98,1351.54 L 1353.98,1374.63 L 834.361,1074.63 Z " />
<path stroke="transparent" fill="#000000" transform="matrix(0.0666667 0 0 0.0666667 -17.0667 -21.3333)" d="M 319.746,1371.74 L 309.746,1354.42 L 834.361,1051.54 L 834.361,1074.63 L 319.746,1371.74 Z " />
<path stroke="transparent" fill="#000000" transform="matrix(0.0666667 0 0 0.0666667 -17.0667 -21.3333)" d="M 9102.21,582.917 L 9122.21,582.917 L 9122.21,1083.87 L 9102.21,1083.87 L 9102.21,582.917 Z " />
<path stroke="transparent" fill="#000000" transform="matrix(0.0666667 0 0 0.0666667 -17.0667 -21.3333)" d="M 9174.21,582.917 L 9194.21,582.917 L 9194.21,1083.87 L 9174.21,1083.87 L 9174.21,582.917 Z " />
<path stroke="transparent" fill="#000000" transform="matrix(0.0666667 0 0 0.0666667 -17.0667 -21.3333)" d="M 9580.2,1300.95 L 9570.2,1318.27 L 9148.21,1074.63 L 9148.21,1051.54 L 9580.2,1300.95 Z " />
</svg>
