<?xml version="1.0" standalone="no" ?>
<!DOCTYPE svg PUBLIC "-//W3C//DTD SVG 1.1//EN" "http://www.w3.org/Graphics/SVG/1.1/DTD/svg11.dtd">
<svg width="89px" height="49px" viewBox="0 0 89 49" style="background-color: #ffffffff" xmlns="http://www.w3.org/2000/svg" xmlns:xlink="http://www.w3.org/1999/xlink" version="1.1" >
<text x="0" y="0" stroke="transparent" fill="#000000" transform="matrix(0.05 0 0 0.05 59.1524 10.4042)" style="font:normal normal normal 200px 'Arial'" >
O</text>
<text x="0" y="0" stroke="transparent" fill="#000000" transform="matrix(0.05 0 0 0.05 71.6228 32.0042)" style="font:normal normal normal 200px 'Arial'" >
OH</text>
<text x="0" y="0" stroke="transparent" fill="#000000" transform="matrix(0.05 0 0 0.05 2.04384 24.8042)" style="font:normal normal normal 200px 'Arial'" >
HO</text>
<text x="0" y="0" stroke="transparent" fill="#000000" transform="matrix(0.05 0 0 0.05 34.2068 10.4042)" style="font:normal normal normal 200px 'Arial'" >
OH</text>
<text x="0" y="0" stroke="transparent" fill="#000000" transform="matrix(0.05 0 0 0.05 46.682 46.4042)" style="font:normal normal normal 200px 'Arial'" >
OH</text>
<path stroke="transparent" fill="#000000" transform="matrix(0.05 0 0 0.05 -282 -93)" d="M 6657.42,2434.1 L 6651.42,2430.64 L 6651.42,2423.71 L 6900.83,2279.71 L 6900.83,2293.57 L 6657.42,2434.1 Z " />
<path stroke="transparent" fill="#000000" transform="matrix(0.05 0 0 0.05 -282 -93)" d="M 6401.92,2293.57 L 6401.91,2286.64 L 6407.91,2283.17 L 6651.42,2423.71 L 6651.42,2430.64 L 6645.42,2434.1 L 6401.92,2293.57 Z " />
<path stroke="transparent" fill="#000000" transform="matrix(0.05 0 0 0.05 -282 -93)" d="M 6152.51,2437.57 L 6152.51,2423.71 L 6395.91,2283.17 L 6401.91,2286.64 L 6401.92,2293.57 L 6152.51,2437.57 Z " />
<path stroke="transparent" fill="#000000" transform="matrix(0.05 0 0 0.05 -282 -93)" d="M 6868.91,2101.25 L 6880.91,2101.25 L 6880.91,2301.6 L 6868.91,2301.6 L 6868.91,2101.25 Z " />
<path stroke="transparent" fill="#000000" transform="matrix(0.05 0 0 0.05 -282 -93)" d="M 6920.75,2101.25 L 6932.75,2101.25 L 6932.75,2301.6 L 6920.75,2301.6 L 6920.75,2101.25 Z " />
<path stroke="transparent" fill="#000000" transform="matrix(0.05 0 0 0.05 -282 -93)" d="M 7062.88,2373.28 L 7056.88,2383.67 L 6900.83,2293.57 L 6900.83,2279.71 L 7062.88,2373.28 Z " />
<path stroke="transparent" fill="#000000" transform="matrix(0.05 0 0 0.05 -282 -93)" d="M 5989.16,2343.26 L 5995.16,2332.87 L 6152.51,2423.71 L 6152.51,2437.57 L 5989.16,2343.26 Z " />
<path stroke="transparent" fill="#000000" transform="matrix(0.05 0 0 0.05 -282 -93)" d="M 6395.91,2101.25 L 6407.91,2101.25 L 6407.91,2283.17 L 6401.91,2286.64 L 6395.91,2283.17 L 6395.91,2101.25 Z " />
<path stroke="transparent" fill="#000000" transform="matrix(0.05 0 0 0.05 -282 -93)" d="M 6657.42,2616.25 L 6645.42,2616.25 L 6645.42,2434.1 L 6651.42,2430.64 L 6657.42,2434.1 L 6657.42,2616.25 Z " />
</svg>

