<?xml version="1.0" standalone="no" ?>
<!DOCTYPE svg PUBLIC "-//W3C//DTD SVG 1.1//EN" "http://www.w3.org/Graphics/SVG/1.1/DTD/svg11.dtd">
<svg width="209px" height="154px" viewBox="0 0 209 154" style="background-color: #ffffffff" xmlns="http://www.w3.org/2000/svg" xmlns:xlink="http://www.w3.org/1999/xlink" version="1.1" >
<text x="0" y="0" stroke="transparent" fill="#000000" transform="matrix(0.05 0 0 0.05 114.88 30.5635)" style="font:normal normal normal 670px 'Arial'" >
O</text>
<text x="0" y="0" stroke="transparent" fill="#000000" transform="matrix(0.05 0 0 0.05 156.656 102.925)" style="font:normal normal normal 670px 'Arial'" >
OH</text>
<text x="0" y="0" stroke="transparent" fill="#000000" transform="matrix(0.05 0 0 0.05 31.3263 30.5635)" style="font:normal normal normal 670px 'Arial'" >
OH</text>
<text x="0" y="0" stroke="transparent" fill="#000000" transform="matrix(0.05 0 0 0.05 73.103 151.166)" style="font:normal normal normal 670px 'Arial'" >
OH</text>
<path stroke="transparent" fill="#000000" transform="matrix(0.05 0 0 0.05 -348 -79)" d="M 8682.63,3429.07 L 8682.63,3382.65 L 9518.17,2900.24 L 9518.17,2946.66 L 8682.63,3429.07 Z " />
<path stroke="transparent" fill="#000000" transform="matrix(0.05 0 0 0.05 -348 -79)" d="M 7847.1,2946.66 L 7847.1,2900.24 L 8682.63,3382.65 L 8682.63,3429.07 L 7847.1,2946.66 Z " />
<path stroke="transparent" fill="#000000" transform="matrix(0.05 0 0 0.05 -348 -79)" d="M 7021.62,3423.27 L 7001.51,3388.46 L 7847.1,2900.24 L 7847.1,2946.66 L 7021.62,3423.27 Z " />
<path stroke="transparent" fill="#000000" transform="matrix(0.05 0 0 0.05 -348 -79)" d="M 9411.24,2306.47 L 9451.43,2306.47 L 9451.43,2973.59 L 9411.24,2973.59 L 9411.24,2306.47 Z " />
<path stroke="transparent" fill="#000000" transform="matrix(0.05 0 0 0.05 -348 -79)" d="M 9584.9,2306.47 L 9625.1,2306.47 L 9625.1,2973.59 L 9584.9,2973.59 L 9584.9,2306.47 Z " />
<path stroke="transparent" fill="#000000" transform="matrix(0.05 0 0 0.05 -348 -79)" d="M 10060.5,3213.39 L 10040.4,3248.21 L 9518.17,2946.66 L 9518.17,2900.24 L 10060.5,3213.39 Z " />
<path stroke="transparent" fill="#000000" transform="matrix(0.05 0 0 0.05 -348 -79)" d="M 7746.6,2306.47 L 7947.6,2306.47 L 7940.4,2346.67 L 7753.79,2346.67 L 7746.6,2306.47 Z " />
<path stroke="transparent" fill="#000000" transform="matrix(0.05 0 0 0.05 -348 -79)" d="M 7783.2,2510.98 L 7911,2510.98 L 7903.8,2551.18 L 7790.4,2551.18 L 7783.2,2510.98 Z " />
<path stroke="transparent" fill="#000000" transform="matrix(0.05 0 0 0.05 -348 -79)" d="M 7819.8,2715.49 L 7874.39,2715.49 L 7867.2,2755.68 L 7827,2755.68 L 7819.8,2715.49 Z " />
<path stroke="transparent" fill="#000000" transform="matrix(0.05 0 0 0.05 -348 -79)" d="M 8783.13,4008.12 L 8582.13,4008.12 L 8589.57,3967.92 L 8775.7,3967.92 L 8783.13,4008.12 Z " />
<path stroke="transparent" fill="#000000" transform="matrix(0.05 0 0 0.05 -348 -79)" d="M 8746.65,3810.88 L 8618.62,3810.88 L 8626.05,3770.68 L 8739.22,3770.68 L 8746.65,3810.88 Z " />
<path stroke="transparent" fill="#000000" transform="matrix(0.05 0 0 0.05 -348 -79)" d="M 8710.17,3613.63 L 8655.1,3613.63 L 8662.53,3573.43 L 8702.73,3573.43 L 8710.17,3613.63 Z " />
</svg>
