<?xml version="1.0" standalone="no" ?>
<!DOCTYPE svg PUBLIC "-//W3C//DTD SVG 1.1//EN" "http://www.w3.org/Graphics/SVG/1.1/DTD/svg11.dtd">
<svg width="237px" height="180px" viewBox="0 0 237 180" style="background-color: #ffffffff" xmlns="http://www.w3.org/2000/svg" xmlns:xlink="http://www.w3.org/1999/xlink" version="1.1" >
<text x="0" y="0" stroke="transparent" fill="#000000" transform="matrix(0.05 0 0 0.05 129.797 34.667)" style="font:normal normal normal 759px 'Arial'" >
O</text>
<text x="0" y="0" stroke="transparent" fill="#000000" transform="matrix(0.05 0 0 0.05 177.124 116.641)" style="font:normal normal normal 759px 'Arial'" >
OH</text>
<text x="0" y="0" stroke="transparent" fill="#000000" transform="matrix(0.05 0 0 0.05 83.5274 171.29)" style="font:normal normal normal 759px 'Arial'" >
NH</text>
<text x="0" y="0" stroke="transparent" fill="#000000" transform="matrix(0.05 0 0 0.05 138.34 177.404)" style="font:normal normal normal 569.25px 'Arial'" >
2</text>
<path stroke="transparent" fill="#000000" transform="matrix(0.05 0 0 0.05 -290 -55)" d="M 7767.38,3182.42 L 7744.61,3169.27 L 7744.61,3142.98 L 8691.14,2596.49 L 8691.14,2649.07 L 7767.38,3182.42 Z " />
<path stroke="transparent" fill="#000000" transform="matrix(0.05 0 0 0.05 -290 -55)" d="M 6798.09,2649.07 L 6798.09,2596.49 L 7744.61,3142.98 L 7744.61,3169.27 L 7721.84,3182.42 L 6798.09,2649.07 Z " />
<path stroke="transparent" fill="#000000" transform="matrix(0.05 0 0 0.05 -290 -55)" d="M 5862.95,3188.99 L 5840.18,3149.55 L 6798.09,2596.49 L 6798.09,2649.07 L 5862.95,3188.99 Z " />
<path stroke="transparent" fill="#000000" transform="matrix(0.05 0 0 0.05 -290 -55)" d="M 8570,1923.28 L 8615.54,1923.28 L 8615.54,2679.58 L 8570,2679.58 L 8570,1923.28 Z " />
<path stroke="transparent" fill="#000000" transform="matrix(0.05 0 0 0.05 -290 -55)" d="M 8766.73,1923.28 L 8812.27,1923.28 L 8812.27,2679.58 L 8766.73,2679.58 L 8766.73,1923.28 Z " />
<path stroke="transparent" fill="#000000" transform="matrix(0.05 0 0 0.05 -290 -55)" d="M 9305.69,2951.31 L 9282.92,2990.75 L 8691.14,2649.07 L 8691.14,2596.49 L 9305.69,2951.31 Z " />
<path stroke="transparent" fill="#000000" transform="matrix(0.05 0 0 0.05 -290 -55)" d="M 7767.38,3860.86 L 7721.84,3860.86 L 7721.84,3182.42 L 7744.61,3169.27 L 7767.38,3182.42 L 7767.38,3860.86 Z " />
</svg>
