<?xml version="1.0" standalone="no" ?>
<!DOCTYPE svg PUBLIC "-//W3C//DTD SVG 1.1//EN" "http://www.w3.org/Graphics/SVG/1.1/DTD/svg11.dtd">
<svg width="126px" height="93px" viewBox="0 0 126 93" style="background-color: #ffffff00" xmlns="http://www.w3.org/2000/svg" xmlns:xlink="http://www.w3.org/1999/xlink" version="1.1" >
<text x="0" y="0" stroke="transparent" fill="#000000" transform="matrix(0.0666667 0 0 0.0666667 33.7317 14.0207)" style="font:normal normal normal 200px 'Arial'" >
N</text>
<text x="0" y="0" stroke="transparent" fill="#000000" transform="matrix(0.0666667 0 0 0.0666667 102.614 14.0207)" style="font:normal normal normal 200px 'Arial'" >
OH</text>
<path stroke="transparent" fill="#000000" transform="matrix(0.0666667 0 0 0.0666667 -67.0667 -29.3333)" d="M 2113.59,1478.08 L 2093.59,1466.54 L 2093.59,878.083 L 2103.59,872.31 L 2113.59,878.083 L 2113.59,1478.08 Z " />
<path stroke="transparent" fill="#000000" transform="matrix(0.0666667 0 0 0.0666667 -67.0667 -29.3333)" d="M 1583.98,1783.86 L 1583.98,1760.76 L 2093.59,1466.54 L 2113.59,1478.08 L 1583.98,1783.86 Z " />
<path stroke="transparent" fill="#000000" transform="matrix(0.0666667 0 0 0.0666667 -67.0667 -29.3333)" d="M 1588.98,1697.83 L 1578.98,1680.51 L 2026.59,1422.08 L 2036.59,1439.4 L 1588.98,1697.83 Z " />
<path stroke="transparent" fill="#000000" transform="matrix(0.0666667 0 0 0.0666667 -67.0667 -29.3333)" d="M 1054.36,1478.08 L 1074.36,1466.54 L 1583.98,1760.76 L 1583.98,1783.86 L 1054.36,1478.08 Z " />
<path stroke="transparent" fill="#000000" transform="matrix(0.0666667 0 0 0.0666667 -67.0667 -29.3333)" d="M 1054.36,866.536 L 1074.36,878.083 L 1074.36,1466.54 L 1054.36,1478.08 L 1054.36,866.536 Z " />
<path stroke="transparent" fill="#000000" transform="matrix(0.0666667 0 0 0.0666667 -67.0667 -29.3333)" d="M 1126.36,913.879 L 1146.36,913.879 L 1146.36,1430.74 L 1126.36,1430.74 L 1126.36,913.879 Z " />
<path stroke="transparent" fill="#000000" transform="matrix(0.0666667 0 0 0.0666667 -67.0667 -29.3333)" d="M 1468.92,627.19 L 1478.92,644.51 L 1074.36,878.083 L 1054.36,866.536 L 1468.92,627.19 Z " />
<path stroke="transparent" fill="#000000" transform="matrix(0.0666667 0 0 0.0666667 -67.0667 -29.3333)" d="M 1688.28,644.077 L 1698.28,626.757 L 2103.59,860.763 L 2103.59,872.31 L 2093.59,878.083 L 1688.28,644.077 Z " />
<path stroke="transparent" fill="#000000" transform="matrix(0.0666667 0 0 0.0666667 -67.0667 -29.3333)" d="M 1652.28,706.431 L 1662.28,689.111 L 2036.59,905.219 L 2026.59,922.539 L 1652.28,706.431 Z " />
<path stroke="transparent" fill="#000000" transform="matrix(0.0666667 0 0 0.0666667 -67.0667 -29.3333)" d="M 2518.05,621.473 L 2528.05,638.793 L 2113.59,878.083 L 2103.59,872.31 L 2103.59,860.763 L 2518.05,621.473 Z " />
</svg>
