<?xml version="1.0" standalone="no" ?>
<!DOCTYPE svg PUBLIC "-//W3C//DTD SVG 1.1//EN" "http://www.w3.org/Graphics/SVG/1.1/DTD/svg11.dtd">
<svg width="264px" height="193px" viewBox="0 0 264 193" style="background-color: #ffffffff" xmlns="http://www.w3.org/2000/svg" xmlns:xlink="http://www.w3.org/1999/xlink" version="1.1" >
<text x="0" y="0" stroke="transparent" fill="#000000" transform="matrix(0.05 0 0 0.05 145.114 37.626)" style="font:normal normal normal 846.4px 'Arial'" >
O</text>
<text x="0" y="0" stroke="transparent" fill="#000000" transform="matrix(0.05 0 0 0.05 197.889 129.039)" style="font:normal normal normal 846.4px 'Arial'" >
OH</text>
<text x="0" y="0" stroke="transparent" fill="#000000" transform="matrix(0.05 0 0 0.05 92.3377 189.981)" style="font:normal normal normal 846.4px 'Arial'" >
OH</text>
<path stroke="transparent" fill="#000000" transform="matrix(0.05 0 0 0.05 -286 -45)" d="M 7921.32,3201.55 L 7895.93,3186.89 L 7895.93,3157.57 L 8951.45,2548.15 L 8951.45,2606.79 L 7921.32,3201.55 Z " />
<path stroke="transparent" fill="#000000" transform="matrix(0.05 0 0 0.05 -286 -45)" d="M 6840.42,2606.79 L 6840.42,2548.15 L 7895.93,3157.57 L 7895.93,3186.89 L 7870.54,3201.55 L 6840.42,2606.79 Z " />
<path stroke="transparent" fill="#000000" transform="matrix(0.05 0 0 0.05 -286 -45)" d="M 5797.59,3208.88 L 5772.2,3164.9 L 6840.42,2548.15 L 6840.42,2606.79 L 5797.59,3208.88 Z " />
<path stroke="transparent" fill="#000000" transform="matrix(0.05 0 0 0.05 -286 -45)" d="M 8816.36,1797.94 L 8867.15,1797.94 L 8867.15,2640.81 L 8816.36,2640.81 L 8816.36,1797.94 Z " />
<path stroke="transparent" fill="#000000" transform="matrix(0.05 0 0 0.05 -286 -45)" d="M 9035.75,1797.94 L 9086.54,1797.94 L 9086.54,2640.81 L 9035.75,2640.81 L 9035.75,1797.94 Z " />
<path stroke="transparent" fill="#000000" transform="matrix(0.05 0 0 0.05 -286 -45)" d="M 9636.85,2943.88 L 9611.45,2987.86 L 8951.45,2606.79 L 8951.45,2548.15 L 9636.85,2943.88 Z " />
<path stroke="transparent" fill="#000000" transform="matrix(0.05 0 0 0.05 -286 -45)" d="M 7921.32,3947.2 L 7870.54,3947.2 L 7870.54,3201.55 L 7895.93,3186.89 L 7921.32,3201.55 L 7921.32,3947.2 Z " />
</svg>
