<?xml version="1.0" standalone="no" ?>
<!DOCTYPE svg PUBLIC "-//W3C//DTD SVG 1.1//EN" "http://www.w3.org/Graphics/SVG/1.1/DTD/svg11.dtd">
<svg width="263px" height="110px" viewBox="0 0 263 110" style="background-color: #ffffffff" xmlns="http://www.w3.org/2000/svg" xmlns:xlink="http://www.w3.org/1999/xlink" version="1.1" >
<text x="0" y="0" stroke="transparent" fill="#000000" transform="matrix(0.05 0 0 0.05 195.552 107.301)" style="font:normal normal normal 471.4px 'Arial'" >
O</text>
<text x="0" y="0" stroke="transparent" fill="#000000" transform="matrix(0.05 0 0 0.05 224.945 56.3901)" style="font:normal normal normal 471.4px 'Arial'" >
OH</text>
<text x="0" y="0" stroke="transparent" fill="#000000" transform="matrix(0.05 0 0 0.05 166.159 22.4493)" style="font:normal normal normal 471.4px 'Arial'" >
O</text>
<text x="0" y="0" stroke="transparent" fill="#000000" transform="matrix(0.05 0 0 0.05 2.16297 73.3605)" style="font:normal normal normal 471.4px 'Arial'" >
HO</text>
<text x="0" y="0" stroke="transparent" fill="#000000" transform="matrix(0.05 0 0 0.05 77.9699 107.301)" style="font:normal normal normal 471.4px 'Arial'" >
OH</text>
<text x="0" y="0" stroke="transparent" fill="#000000" transform="matrix(0.05 0 0 0.05 107.363 22.4493)" style="font:normal normal normal 471.4px 'Arial'" >
OH</text>
<text x="0" y="0" stroke="transparent" fill="#000000" transform="matrix(0.05 0 0 0.05 136.767 107.301)" style="font:normal normal normal 471.4px 'Arial'" >
OH</text>
<path stroke="transparent" fill="#000000" transform="matrix(0.05 0 0 0.05 -299 -101)" d="M 9486.52,3000.45 L 9486.52,2967.79 L 10074.4,3307.2 L 10074.4,3339.86 L 9486.52,3000.45 Z " />
<path stroke="transparent" fill="#000000" transform="matrix(0.05 0 0 0.05 -299 -101)" d="M 8913.82,3331.11 L 8898.67,3323.53 L 8898.67,3307.2 L 9486.52,2967.79 L 9486.52,3000.45 L 8913.82,3331.11 Z " />
<path stroke="transparent" fill="#000000" transform="matrix(0.05 0 0 0.05 -299 -101)" d="M 8310.59,3000.45 L 8310.59,2984.12 L 8325.72,2976.53 L 8898.67,3307.2 L 8898.67,3323.53 L 8883.51,3331.11 L 8310.59,3000.45 Z " />
<path stroke="transparent" fill="#000000" transform="matrix(0.05 0 0 0.05 -299 -101)" d="M 7737.89,3331.11 L 7722.73,3323.53 L 7722.73,3307.2 L 8295.46,2976.53 L 8310.59,2984.12 L 8310.59,3000.45 L 7737.89,3331.11 Z " />
<path stroke="transparent" fill="#000000" transform="matrix(0.05 0 0 0.05 -299 -101)" d="M 7134.88,3000.45 L 7134.88,2967.79 L 7722.73,3307.2 L 7722.73,3323.53 L 7707.58,3331.11 L 7134.88,3000.45 Z " />
<path stroke="transparent" fill="#000000" transform="matrix(0.05 0 0 0.05 -299 -101)" d="M 10149.6,3746.44 L 10121.3,3746.44 L 10121.3,3288.26 L 10149.6,3288.26 L 10149.6,3746.44 Z " />
<path stroke="transparent" fill="#000000" transform="matrix(0.05 0 0 0.05 -299 -101)" d="M 10027.4,3746.44 L 9999.14,3746.44 L 9999.14,3288.26 L 10027.4,3288.26 L 10027.4,3746.44 Z " />
<path stroke="transparent" fill="#000000" transform="matrix(0.05 0 0 0.05 -299 -101)" d="M 10446.9,3092.14 L 10461,3116.63 L 10074.4,3339.86 L 10074.4,3307.2 L 10446.9,3092.14 Z " />
<path stroke="transparent" fill="#000000" transform="matrix(0.05 0 0 0.05 -299 -101)" d="M 9411.29,2549.24 L 9439.57,2549.24 L 9439.57,3019.39 L 9411.29,3019.39 L 9411.29,2549.24 Z " />
<path stroke="transparent" fill="#000000" transform="matrix(0.05 0 0 0.05 -299 -101)" d="M 9533.47,2549.24 L 9561.76,2549.24 L 9561.76,3019.39 L 9533.47,3019.39 L 9533.47,2549.24 Z " />
<path stroke="transparent" fill="#000000" transform="matrix(0.05 0 0 0.05 -299 -101)" d="M 6768.02,3212.27 L 6753.87,3187.77 L 7134.88,2967.79 L 7134.88,3000.45 L 6768.02,3212.27 Z " />
<path stroke="transparent" fill="#000000" transform="matrix(0.05 0 0 0.05 -299 -101)" d="M 7793.44,3746.44 L 7652.02,3746.44 L 7707.58,3331.11 L 7722.73,3323.53 L 7737.89,3331.11 L 7793.44,3746.44 Z " />
<path stroke="transparent" fill="#000000" transform="matrix(0.05 0 0 0.05 -299 -101)" d="M 8239.88,2549.24 L 8381.3,2549.24 L 8325.72,2976.53 L 8310.59,2984.12 L 8295.46,2976.53 L 8239.88,2549.24 Z " />
<path stroke="transparent" fill="#000000" transform="matrix(0.05 0 0 0.05 -299 -101)" d="M 8969.38,3746.44 L 8827.96,3746.44 L 8883.51,3331.11 L 8898.67,3323.53 L 8913.82,3331.11 L 8969.38,3746.44 Z " />
</svg>
