<?xml version="1.0" standalone="no" ?>
<!DOCTYPE svg PUBLIC "-//W3C//DTD SVG 1.1//EN" "http://www.w3.org/Graphics/SVG/1.1/DTD/svg11.dtd">
<svg width="318px" height="198px" viewBox="0 0 318 198" style="background-color: #ffffff00" xmlns="http://www.w3.org/2000/svg" xmlns:xlink="http://www.w3.org/1999/xlink" version="1.1" >
<text x="0" y="0" stroke="transparent" fill="#000000" transform="matrix(0.0666667 0 0 0.0666667 136.468 14.7389)" style="font:normal normal normal 200px 'Arial'" >
O</text>
<text x="0" y="0" stroke="transparent" fill="#000000" transform="matrix(0.0666667 0 0 0.0666667 171.109 74.7389)" style="font:normal normal normal 200px 'Arial'" >
O</text>
<text x="0" y="0" stroke="transparent" fill="#000000" transform="matrix(0.0666667 0 0 0.0666667 240.391 194.739)" style="font:normal normal normal 200px 'Arial'" >
O</text>
<text x="0" y="0" stroke="transparent" fill="#000000" transform="matrix(0.0666667 0 0 0.0666667 274.304 174.739)" style="font:normal normal normal 200px 'Arial'" >
Si</text>
<text x="0" y="0" stroke="transparent" fill="#000000" transform="matrix(0.0666667 0 0 0.0666667 67.1855 54.7389)" style="font:normal normal normal 200px 'Arial'" >
O</text>
<text x="0" y="0" stroke="transparent" fill="#000000" transform="matrix(0.0666667 0 0 0.0666667 31.8167 74.7389)" style="font:normal normal normal 200px 'Arial'" >
Si</text>
<text x="0" y="0" stroke="transparent" fill="#000000" transform="matrix(0.0666667 0 0 0.0666667 205.022 54.7389)" style="font:normal normal normal 200px 'Arial'" >
Si</text>
<path stroke="transparent" fill="#000000" transform="matrix(0.0666667 0 0 0.0666667 -19.0667 -22.3333)" d="M 1901.4,1383.86 L 1891.4,1378.08 L 1891.4,1366.54 L 2411.01,1066.54 L 2411.01,1089.63 L 1901.4,1383.86 Z " />
<path stroke="transparent" fill="#000000" transform="matrix(0.0666667 0 0 0.0666667 -19.0667 -22.3333)" d="M 1901.4,1972.31 L 1881.4,1983.86 L 1881.4,1383.86 L 1891.4,1378.08 L 1901.4,1383.86 L 1901.4,1972.31 Z " />
<path stroke="transparent" fill="#000000" transform="matrix(0.0666667 0 0 0.0666667 -19.0667 -22.3333)" d="M 1973.4,1936.51 L 1953.4,1936.51 L 1953.4,1419.65 L 1973.4,1419.65 L 1973.4,1936.51 Z " />
<path stroke="transparent" fill="#000000" transform="matrix(0.0666667 0 0 0.0666667 -19.0667 -22.3333)" d="M 2365.01,597.917 L 2385.01,597.917 L 2385.01,1098.87 L 2365.01,1098.87 L 2365.01,597.917 Z " />
<path stroke="transparent" fill="#000000" transform="matrix(0.0666667 0 0 0.0666667 -19.0667 -22.3333)" d="M 2437.01,597.917 L 2457.01,597.917 L 2457.01,1098.87 L 2437.01,1098.87 L 2437.01,597.917 Z " />
<path stroke="transparent" fill="#000000" transform="matrix(0.0666667 0 0 0.0666667 -19.0667 -22.3333)" d="M 2843.01,1315.95 L 2833.01,1333.27 L 2411.01,1089.63 L 2411.01,1066.54 L 2843.01,1315.95 Z " />
<path stroke="transparent" fill="#000000" transform="matrix(0.0666667 0 0 0.0666667 -19.0667 -22.3333)" d="M 2421.01,2872.31 L 2401.01,2883.86 L 2401.01,2283.86 L 2411.01,2278.08 L 2421.01,2283.86 L 2421.01,2872.31 Z " />
<path stroke="transparent" fill="#000000" transform="matrix(0.0666667 0 0 0.0666667 -19.0667 -22.3333)" d="M 2930.63,3166.54 L 2930.63,3189.63 L 2401.01,2883.86 L 2421.01,2872.31 L 2930.63,3166.54 Z " />
<path stroke="transparent" fill="#000000" transform="matrix(0.0666667 0 0 0.0666667 -19.0667 -22.3333)" d="M 2935.63,3086.28 L 2925.63,3103.61 L 2478.01,2845.17 L 2488.01,2827.85 L 2935.63,3086.28 Z " />
<path stroke="transparent" fill="#000000" transform="matrix(0.0666667 0 0 0.0666667 -19.0667 -22.3333)" d="M 3440.24,2872.31 L 3450.24,2878.08 L 3450.24,2889.63 L 2930.63,3189.63 L 2930.63,3166.54 L 3440.24,2872.31 Z " />
<path stroke="transparent" fill="#000000" transform="matrix(0.0666667 0 0 0.0666667 -19.0667 -22.3333)" d="M 3440.24,2283.86 L 3460.24,2272.31 L 3460.24,2872.31 L 3450.24,2878.08 L 3440.24,2872.31 L 3440.24,2283.86 Z " />
<path stroke="transparent" fill="#000000" transform="matrix(0.0666667 0 0 0.0666667 -19.0667 -22.3333)" d="M 3368.24,2319.65 L 3388.24,2319.65 L 3388.24,2836.51 L 3368.24,2836.51 L 3368.24,2319.65 Z " />
<path stroke="transparent" fill="#000000" transform="matrix(0.0666667 0 0 0.0666667 -19.0667 -22.3333)" d="M 2930.63,1989.63 L 2930.63,1966.54 L 3460.24,2272.31 L 3440.24,2283.86 L 2930.63,1989.63 Z " />
<path stroke="transparent" fill="#000000" transform="matrix(0.0666667 0 0 0.0666667 -19.0667 -22.3333)" d="M 2930.63,1966.54 L 2930.63,1989.63 L 2421.01,2283.86 L 2411.01,2278.08 L 2411.01,2266.54 L 2930.63,1966.54 Z " />
<path stroke="transparent" fill="#000000" transform="matrix(0.0666667 0 0 0.0666667 -19.0667 -22.3333)" d="M 2925.63,2052.56 L 2935.63,2069.88 L 2488.01,2328.31 L 2478.01,2310.99 L 2925.63,2052.56 Z " />
<path stroke="transparent" fill="#000000" transform="matrix(0.0666667 0 0 0.0666667 -19.0667 -22.3333)" d="M 5004.09,2569.42 L 5014.09,2586.74 L 4612.71,2818.48 L 4602.71,2801.16 L 5004.09,2569.42 Z " />
<path stroke="transparent" fill="#000000" transform="matrix(0.0666667 0 0 0.0666667 -19.0667 -22.3333)" d="M 4479.47,2278.08 L 4499.47,2278.08 L 4499.47,2773.08 L 4479.47,2773.08 L 4479.47,2278.08 Z " />
<path stroke="transparent" fill="#000000" transform="matrix(0.0666667 0 0 0.0666667 -19.0667 -22.3333)" d="M 5014.09,3169.42 L 5004.09,3186.74 L 4610.07,2959.26 L 4620.07,2941.94 L 5014.09,3169.42 Z " />
<path stroke="transparent" fill="#000000" transform="matrix(0.0666667 0 0 0.0666667 -19.0667 -22.3333)" d="M 4370.03,2935.5 L 4380.03,2952.82 L 4067.48,3133.27 L 4057.48,3115.95 L 4370.03,2935.5 Z " />
<path stroke="transparent" fill="#000000" transform="matrix(0.0666667 0 0 0.0666667 -19.0667 -22.3333)" d="M 3882.24,3115.95 L 3872.24,3133.27 L 3450.24,2889.63 L 3450.24,2878.08 L 3460.24,2872.31 L 3882.24,3115.95 Z " />
<path stroke="transparent" fill="#000000" transform="matrix(0.0666667 0 0 0.0666667 -19.0667 -22.3333)" d="M 2411.01,2266.54 L 2411.01,2278.08 L 2401.01,2283.86 L 1881.4,1983.86 L 1901.4,1972.31 L 2411.01,2266.54 Z " />
<path stroke="transparent" fill="#000000" transform="matrix(0.0666667 0 0 0.0666667 -19.0667 -22.3333)" d="M 337.552,1686.74 L 327.552,1669.42 L 732.724,1435.5 L 742.724,1452.82 L 337.552,1686.74 Z " />
<path stroke="transparent" fill="#000000" transform="matrix(0.0666667 0 0 0.0666667 -19.0667 -22.3333)" d="M 862.167,1978.08 L 842.167,1978.08 L 842.167,1498.08 L 862.167,1498.08 L 862.167,1978.08 Z " />
<path stroke="transparent" fill="#000000" transform="matrix(0.0666667 0 0 0.0666667 -19.0667 -22.3333)" d="M 327.552,1086.74 L 337.552,1069.42 L 751.353,1308.33 L 741.353,1325.65 L 327.552,1086.74 Z " />
<path stroke="transparent" fill="#000000" transform="matrix(0.0666667 0 0 0.0666667 -19.0667 -22.3333)" d="M 975.401,1318.48 L 965.401,1301.16 L 1267.18,1126.93 L 1277.18,1144.25 L 975.401,1318.48 Z " />
<path stroke="transparent" fill="#000000" transform="matrix(0.0666667 0 0 0.0666667 -19.0667 -22.3333)" d="M 1466.82,1144.5 L 1476.82,1127.18 L 1891.4,1366.54 L 1891.4,1378.08 L 1881.4,1383.86 L 1466.82,1144.5 Z " />
<path stroke="transparent" fill="#000000" transform="matrix(0.0666667 0 0 0.0666667 -19.0667 -22.3333)" d="M 3964.86,769.423 L 3974.86,786.744 L 3573.48,1018.48 L 3563.48,1001.16 L 3964.86,769.423 Z " />
<path stroke="transparent" fill="#000000" transform="matrix(0.0666667 0 0 0.0666667 -19.0667 -22.3333)" d="M 3440.24,478.083 L 3460.24,478.083 L 3460.24,973.083 L 3440.24,973.083 L 3440.24,478.083 Z " />
<path stroke="transparent" fill="#000000" transform="matrix(0.0666667 0 0 0.0666667 -19.0667 -22.3333)" d="M 3974.86,1369.42 L 3964.86,1386.74 L 3570.84,1159.26 L 3580.84,1141.94 L 3974.86,1369.42 Z " />
<path stroke="transparent" fill="#000000" transform="matrix(0.0666667 0 0 0.0666667 -19.0667 -22.3333)" d="M 3330.8,1135.5 L 3340.8,1152.82 L 3028.25,1333.27 L 3018.25,1315.95 L 3330.8,1135.5 Z " />
</svg>
