<?xml version="1.0" standalone="no" ?>
<!DOCTYPE svg PUBLIC "-//W3C//DTD SVG 1.1//EN" "http://www.w3.org/Graphics/SVG/1.1/DTD/svg11.dtd">
<svg width="335px" height="160px" viewBox="0 0 335 160" style="background-color: #ffffffff" xmlns="http://www.w3.org/2000/svg" xmlns:xlink="http://www.w3.org/1999/xlink" version="1.1" >
<text x="0" y="0" stroke="transparent" fill="#000000" transform="matrix(0.05 0 0 0.05 279.901 143.271)" style="font:normal normal normal 384.846px 'Arial'" >
O</text>
<text x="0" y="0" stroke="transparent" fill="#000000" transform="matrix(0.05 0 0 0.05 303.897 101.707)" style="font:normal normal normal 384.846px 'Arial'" >
OH</text>
<text x="0" y="0" stroke="transparent" fill="#000000" transform="matrix(0.05 0 0 0.05 183.915 115.561)" style="font:normal normal normal 384.846px 'Arial'" >
O</text>
<text x="0" y="0" stroke="transparent" fill="#000000" transform="matrix(0.05 0 0 0.05 159.919 73.9971)" style="font:normal normal normal 384.846px 'Arial'" >
O</text>
<text x="0" y="0" stroke="transparent" fill="#000000" transform="matrix(0.05 0 0 0.05 2.03453 157.126)" style="font:normal normal normal 384.846px 'Arial'" >
HO</text>
<text x="0" y="0" stroke="transparent" fill="#000000" transform="matrix(0.05 0 0 0.05 170.019 60.1424)" style="font:normal normal normal 384.846px 'Arial'" >
HO</text>
<text x="0" y="0" stroke="transparent" fill="#000000" transform="matrix(0.05 0 0 0.05 255.904 129.416)" style="font:normal normal normal 384.846px 'Arial'" >
OH</text>
<path stroke="transparent" fill="#000000" transform="matrix(0.05 0 0 0.05 -277 -38)" d="M 10327.8,2950.93 L 10327.8,2924.27 L 10796.2,2653.84 L 10807.8,2660.51 L 10807.2,2674.14 L 10327.8,2950.93 Z " />
<path stroke="transparent" fill="#000000" transform="matrix(0.05 0 0 0.05 -277 -38)" d="M 9848.71,2674.31 L 9847.9,2660.51 L 9859.45,2653.84 L 10327.8,2924.27 L 10327.8,2950.93 L 9848.71,2674.31 Z " />
<path stroke="transparent" fill="#000000" transform="matrix(0.05 0 0 0.05 -277 -38)" d="M 9836.36,2099.65 L 9859.45,2112.98 L 9859.45,2653.84 L 9847.9,2660.51 L 9836.36,2652.9 L 9836.36,2099.65 Z " />
<path stroke="transparent" fill="#000000" transform="matrix(0.05 0 0 0.05 -277 -38)" d="M 10327.8,1815.89 L 10327.8,1842.55 L 9859.45,2112.98 L 9836.36,2099.65 L 10327.8,1815.89 Z " />
<path stroke="transparent" fill="#000000" transform="matrix(0.05 0 0 0.05 -277 -38)" d="M 10819.3,2099.65 L 10796.2,2112.98 L 10327.8,1842.55 L 10327.8,1815.89 L 10819.3,2099.65 Z " />
<path stroke="transparent" fill="#000000" transform="matrix(0.05 0 0 0.05 -277 -38)" d="M 10796.2,2112.98 L 10819.3,2099.65 L 10819.3,2653.23 L 10807.8,2660.51 L 10796.2,2653.84 L 10796.2,2112.98 Z " />
<path stroke="transparent" fill="#000000" transform="matrix(0.05 0 0 0.05 -277 -38)" d="M 11349.1,3283.01 L 11326,3283.01 L 11326,2908.8 L 11349.1,2908.8 L 11349.1,3283.01 Z " />
<path stroke="transparent" fill="#000000" transform="matrix(0.05 0 0 0.05 -277 -38)" d="M 11249.4,3283.01 L 11226.3,3283.01 L 11226.3,2908.8 L 11249.4,2908.8 L 11249.4,3283.01 Z " />
<path stroke="transparent" fill="#000000" transform="matrix(0.05 0 0 0.05 -277 -38)" d="M 11591.7,2748.74 L 11603.3,2768.73 L 11243.1,2976.68 L 11335.6,2896.6 L 11591.7,2748.74 Z " />
<path stroke="transparent" fill="#000000" transform="matrix(0.05 0 0 0.05 -277 -38)" d="M 11335.6,2896.6 L 11243.1,2976.68 L 10807.2,2674.14 L 10807.8,2660.51 L 10819.3,2653.23 L 11335.6,2896.6 Z " />
<path stroke="transparent" fill="#000000" transform="matrix(0.05 0 0 0.05 -277 -38)" d="M 8407.93,2950.93 L 8407.93,2924.27 L 8888.04,2647.17 L 8888.04,2673.84 L 8407.93,2950.93 Z " />
<path stroke="transparent" fill="#000000" transform="matrix(0.05 0 0 0.05 -277 -38)" d="M 7928,2673.84 L 7928,2647.17 L 8407.93,2924.27 L 8407.93,2950.93 L 7928,2673.84 Z " />
<path stroke="transparent" fill="#000000" transform="matrix(0.05 0 0 0.05 -277 -38)" d="M 7922.23,2785.69 L 7933.77,2765.69 L 8363.83,3013.99 L 8352.28,3033.99 L 7922.23,2785.69 Z " />
<path stroke="transparent" fill="#000000" transform="matrix(0.05 0 0 0.05 -277 -38)" d="M 8826.62,2306.68 L 8849.71,2306.68 L 8849.71,2689.29 L 8826.62,2689.29 L 8826.62,2306.68 Z " />
<path stroke="transparent" fill="#000000" transform="matrix(0.05 0 0 0.05 -277 -38)" d="M 8926.37,2306.68 L 8949.47,2306.68 L 8949.47,2689.3 L 8926.37,2689.3 L 8926.37,2306.68 Z " />
<path stroke="transparent" fill="#000000" transform="matrix(0.05 0 0 0.05 -277 -38)" d="M 7459.62,3498.46 L 7436.53,3485.13 L 7436.53,2944.27 L 7448.07,2937.6 L 7459.62,2944.27 L 7459.62,3498.46 Z " />
<path stroke="transparent" fill="#000000" transform="matrix(0.05 0 0 0.05 -277 -38)" d="M 6968.14,3782.22 L 6968.14,3755.55 L 7436.53,3485.13 L 7459.62,3498.46 L 6968.14,3782.22 Z " />
<path stroke="transparent" fill="#000000" transform="matrix(0.05 0 0 0.05 -277 -38)" d="M 6973.92,3663.7 L 6962.37,3643.7 L 7342.55,3424.2 L 7354.09,3444.2 L 6973.92,3663.7 Z " />
<path stroke="transparent" fill="#000000" transform="matrix(0.05 0 0 0.05 -277 -38)" d="M 6488.22,3505.12 L 6488.22,3491.79 L 6499.76,3485.13 L 6968.14,3755.55 L 6968.14,3782.22 L 6488.22,3505.12 Z " />
<path stroke="transparent" fill="#000000" transform="matrix(0.05 0 0 0.05 -277 -38)" d="M 6476.67,2930.94 L 6499.76,2944.27 L 6499.76,3485.13 L 6488.22,3491.79 L 6476.67,3485.13 L 6476.67,2930.94 Z " />
<path stroke="transparent" fill="#000000" transform="matrix(0.05 0 0 0.05 -277 -38)" d="M 6576.42,2995.19 L 6599.51,2995.19 L 6599.51,3434.2 L 6576.42,3434.2 L 6576.42,2995.19 Z " />
<path stroke="transparent" fill="#000000" transform="matrix(0.05 0 0 0.05 -277 -38)" d="M 6968.14,2647.17 L 6968.14,2673.84 L 6499.76,2944.27 L 6476.67,2930.94 L 6968.14,2647.17 Z " />
<path stroke="transparent" fill="#000000" transform="matrix(0.05 0 0 0.05 -277 -38)" d="M 6968.14,2673.84 L 6968.14,2647.17 L 7448.07,2924.27 L 7448.07,2937.6 L 7436.53,2944.27 L 6968.14,2673.84 Z " />
<path stroke="transparent" fill="#000000" transform="matrix(0.05 0 0 0.05 -277 -38)" d="M 6962.37,2785.69 L 6973.92,2765.69 L 7354.09,2985.19 L 7342.55,3005.19 L 6962.37,2785.69 Z " />
<path stroke="transparent" fill="#000000" transform="matrix(0.05 0 0 0.05 -277 -38)" d="M 6188.67,3678.07 L 6177.12,3658.07 L 6476.67,3485.13 L 6488.22,3491.79 L 6488.22,3505.12 L 6188.67,3678.07 Z " />
<path stroke="transparent" fill="#000000" transform="matrix(0.05 0 0 0.05 -277 -38)" d="M 7459.62,2944.27 L 7448.07,2937.6 L 7448.07,2924.27 L 7928,2647.17 L 7928,2673.84 L 7459.62,2944.27 Z " />
<path stroke="transparent" fill="#000000" transform="matrix(0.05 0 0 0.05 -277 -38)" d="M 8888.04,2673.84 L 8888.04,2647.17 L 9198.9,2826.66 L 9187.36,2846.65 L 8888.04,2673.84 Z " />
<path stroke="transparent" fill="#000000" transform="matrix(0.05 0 0 0.05 -277 -38)" d="M 9571.39,2886.81 L 9513.66,2786.83 L 9836.36,2652.9 L 9847.9,2660.51 L 9848.71,2674.31 L 9571.39,2886.81 Z " />
<path stroke="transparent" fill="#000000" transform="matrix(0.05 0 0 0.05 -277 -38)" d="M 9509.76,1977.74 L 9567.48,1877.75 L 9585.44,1892.84 L 9531.8,1985.75 L 9509.76,1977.74 Z " />
<path stroke="transparent" fill="#000000" transform="matrix(0.05 0 0 0.05 -277 -38)" d="M 9623.25,2018.96 L 9659.93,1955.43 L 9677.88,1970.52 L 9645.29,2026.97 L 9623.25,2018.96 Z " />
<path stroke="transparent" fill="#000000" transform="matrix(0.05 0 0 0.05 -277 -38)" d="M 9736.74,2060.18 L 9752.37,2033.11 L 9770.32,2048.19 L 9758.78,2068.19 L 9736.74,2060.18 Z " />
<path stroke="transparent" fill="#000000" transform="matrix(0.05 0 0 0.05 -277 -38)" d="M 10865.5,3005.91 L 10750,3005.91 L 10754.3,2982.82 L 10861.2,2982.82 L 10865.5,3005.91 Z " />
<path stroke="transparent" fill="#000000" transform="matrix(0.05 0 0 0.05 -277 -38)" d="M 10844.5,2892.92 L 10771,2892.92 L 10775.3,2869.83 L 10840.3,2869.83 L 10844.5,2892.92 Z " />
<path stroke="transparent" fill="#000000" transform="matrix(0.05 0 0 0.05 -277 -38)" d="M 10823.6,2779.92 L 10791.9,2779.92 L 10796.2,2756.83 L 10819.3,2756.83 L 10823.6,2779.92 Z " />
<path stroke="transparent" fill="#000000" transform="matrix(0.05 0 0 0.05 -277 -38)" d="M 10270.1,1275.04 L 10385.6,1275.04 L 10383.2,1298.13 L 10272.4,1298.13 L 10270.1,1275.04 Z " />
<path stroke="transparent" fill="#000000" transform="matrix(0.05 0 0 0.05 -277 -38)" d="M 10281.1,1383.75 L 10374.6,1383.75 L 10372.3,1406.84 L 10283.4,1406.84 L 10281.1,1383.75 Z " />
<path stroke="transparent" fill="#000000" transform="matrix(0.05 0 0 0.05 -277 -38)" d="M 10292,1492.47 L 10363.6,1492.47 L 10361.3,1515.56 L 10294.4,1515.56 L 10292,1492.47 Z " />
<path stroke="transparent" fill="#000000" transform="matrix(0.05 0 0 0.05 -277 -38)" d="M 10303,1601.18 L 10352.7,1601.18 L 10350.3,1624.27 L 10305.3,1624.27 L 10303,1601.18 Z " />
<path stroke="transparent" fill="#000000" transform="matrix(0.05 0 0 0.05 -277 -38)" d="M 10314,1709.89 L 10341.7,1709.89 L 10339.4,1732.98 L 10316.3,1732.98 L 10314,1709.89 Z " />
<text x="0" y="0" stroke="transparent" fill="#000000" transform="matrix(0.05 0 0 0.05 231.915 18.4558)" style="font:normal normal normal 384.846px 'Arial'" >
OH</text>
</svg>
