<?xml version="1.0" standalone="no" ?>
<!DOCTYPE svg PUBLIC "-//W3C//DTD SVG 1.1//EN" "http://www.w3.org/Graphics/SVG/1.1/DTD/svg11.dtd">
<svg width="210px" height="133px" viewBox="0 0 210 133" style="background-color: #ffffff00" xmlns="http://www.w3.org/2000/svg" xmlns:xlink="http://www.w3.org/1999/xlink" version="1.1" >
<text x="0" y="0" stroke="transparent" fill="#000000" transform="matrix(0.0666667 0 0 0.0666667 151.695 14.0207)" style="font:normal normal normal 200px 'Arial'" >
O</text>
<text x="0" y="0" stroke="transparent" fill="#000000" transform="matrix(0.0666667 0 0 0.0666667 186.336 74.0207)" style="font:normal normal normal 200px 'Arial'" >
OH</text>
<text x="0" y="0" stroke="transparent" fill="#000000" transform="matrix(0.0666667 0 0 0.0666667 3.50189 54.0207)" style="font:normal normal normal 200px 'Arial'" >
HO</text>
<path stroke="transparent" fill="#000000" transform="matrix(0.0666667 0 0 0.0666667 -22.0667 -10.3333)" d="M 2174.81,1193.08 L 2164.81,1187.31 L 2164.81,1175.76 L 2684.42,875.763 L 2684.42,898.857 L 2174.81,1193.08 Z " />
<path stroke="transparent" fill="#000000" transform="matrix(0.0666667 0 0 0.0666667 -22.0667 -10.3333)" d="M 1645.19,898.857 L 1645.19,875.763 L 2164.81,1175.76 L 2164.81,1187.31 L 2154.81,1193.08 L 1645.19,898.857 Z " />
<path stroke="transparent" fill="#000000" transform="matrix(0.0666667 0 0 0.0666667 -22.0667 -10.3333)" d="M 1135.58,1193.08 L 1125.58,1187.31 L 1125.58,1175.76 L 1645.19,875.763 L 1645.19,898.857 L 1135.58,1193.08 Z " />
<path stroke="transparent" fill="#000000" transform="matrix(0.0666667 0 0 0.0666667 -22.0667 -10.3333)" d="M 1202.58,1237.54 L 1192.58,1220.22 L 1640.19,961.788 L 1650.19,979.109 L 1202.58,1237.54 Z " />
<path stroke="transparent" fill="#000000" transform="matrix(0.0666667 0 0 0.0666667 -22.0667 -10.3333)" d="M 1135.58,1781.54 L 1115.58,1793.08 L 1115.58,1193.08 L 1125.58,1187.31 L 1135.58,1193.08 L 1135.58,1781.54 Z " />
<path stroke="transparent" fill="#000000" transform="matrix(0.0666667 0 0 0.0666667 -22.0667 -10.3333)" d="M 1645.19,2075.76 L 1645.19,2098.86 L 1115.58,1793.08 L 1135.58,1781.54 L 1645.19,2075.76 Z " />
<path stroke="transparent" fill="#000000" transform="matrix(0.0666667 0 0 0.0666667 -22.0667 -10.3333)" d="M 1650.19,1995.51 L 1640.19,2012.83 L 1192.58,1754.4 L 1202.58,1737.08 L 1650.19,1995.51 Z " />
<path stroke="transparent" fill="#000000" transform="matrix(0.0666667 0 0 0.0666667 -22.0667 -10.3333)" d="M 2154.81,1781.54 L 2174.81,1793.08 L 1645.19,2098.86 L 1645.19,2075.76 L 2154.81,1781.54 Z " />
<path stroke="transparent" fill="#000000" transform="matrix(0.0666667 0 0 0.0666667 -22.0667 -10.3333)" d="M 2174.81,1793.08 L 2154.81,1781.54 L 2154.81,1193.08 L 2164.81,1187.31 L 2174.81,1193.08 L 2174.81,1793.08 Z " />
<path stroke="transparent" fill="#000000" transform="matrix(0.0666667 0 0 0.0666667 -22.0667 -10.3333)" d="M 2102.81,1745.74 L 2082.81,1745.74 L 2082.81,1228.88 L 2102.81,1228.88 L 2102.81,1745.74 Z " />
<path stroke="transparent" fill="#000000" transform="matrix(0.0666667 0 0 0.0666667 -22.0667 -10.3333)" d="M 2638.42,407.143 L 2658.42,407.143 L 2658.42,908.094 L 2638.42,908.094 L 2638.42,407.143 Z " />
<path stroke="transparent" fill="#000000" transform="matrix(0.0666667 0 0 0.0666667 -22.0667 -10.3333)" d="M 2710.42,407.143 L 2730.42,407.143 L 2730.42,908.094 L 2710.42,908.094 L 2710.42,407.143 Z " />
<path stroke="transparent" fill="#000000" transform="matrix(0.0666667 0 0 0.0666667 -22.0667 -10.3333)" d="M 3116.42,1125.18 L 3106.42,1142.5 L 2684.42,898.857 L 2684.42,875.763 L 3116.42,1125.18 Z " />
<path stroke="transparent" fill="#000000" transform="matrix(0.0666667 0 0 0.0666667 -22.0667 -10.3333)" d="M 700.99,953.721 L 710.99,936.401 L 1125.58,1175.76 L 1125.58,1187.31 L 1115.58,1193.08 L 700.99,953.721 Z " />
</svg>
