<?xml version="1.0" standalone="no" ?>
<!DOCTYPE svg PUBLIC "-//W3C//DTD SVG 1.1//EN" "http://www.w3.org/Graphics/SVG/1.1/DTD/svg11.dtd">
<svg width="282px" height="124px" viewBox="0 0 282 124" style="background-color: #ffffffff" xmlns="http://www.w3.org/2000/svg" xmlns:xlink="http://www.w3.org/1999/xlink" version="1.1" >
<text x="0" y="0" stroke="transparent" fill="#000000" transform="matrix(0.05 0 0 0.05 235.332 16.1056)" style="font:normal normal normal 323px 'Arial'" >
O</text>
<text x="0" y="0" stroke="transparent" fill="#000000" transform="matrix(0.05 0 0 0.05 255.472 50.9904)" style="font:normal normal normal 323px 'Arial'" >
OH</text>
<text x="0" y="0" stroke="transparent" fill="#000000" transform="matrix(0.05 0 0 0.05 154.771 85.8751)" style="font:normal normal normal 323px 'Arial'" >
O</text>
<text x="0" y="0" stroke="transparent" fill="#000000" transform="matrix(0.05 0 0 0.05 134.631 50.9904)" style="font:normal normal normal 323px 'Arial'" >
O</text>
<text x="0" y="0" stroke="transparent" fill="#000000" transform="matrix(0.05 0 0 0.05 2.11941 120.76)" style="font:normal normal normal 323px 'Arial'" >
HO</text>
<text x="0" y="0" stroke="transparent" fill="#000000" transform="matrix(0.05 0 0 0.05 143.108 39.3621)" style="font:normal normal normal 323px 'Arial'" >
HO</text>
<text x="0" y="0" stroke="transparent" fill="#000000" transform="matrix(0.05 0 0 0.05 215.191 27.7339)" style="font:normal normal normal 323px 'Arial'" >
OH</text>
<path stroke="transparent" fill="#000000" transform="matrix(0.05 0 0 0.05 -305 -58)" d="M 10126.6,1846.28 L 10126.6,1823.9 L 10529.4,2056.47 L 10529.4,2067.65 L 10519.8,2073.25 L 10126.6,1846.28 Z " />
<path stroke="transparent" fill="#000000" transform="matrix(0.05 0 0 0.05 -305 -58)" d="M 9733.53,2073.25 L 9723.84,2067.65 L 9724.52,2056.08 L 10126.6,1823.9 L 10126.6,1846.28 L 9733.53,2073.25 Z " />
<path stroke="transparent" fill="#000000" transform="matrix(0.05 0 0 0.05 -305 -58)" d="M 9733.53,2527.19 L 9714.15,2538.38 L 9714.15,2074.03 L 9723.84,2067.65 L 9733.53,2073.25 L 9733.53,2527.19 L 9733.53,2527.19 Z " />
<path stroke="transparent" fill="#000000" transform="matrix(0.05 0 0 0.05 -305 -58)" d="M 10126.6,2754.16 L 10126.6,2776.54 L 9714.15,2538.38 L 9733.53,2527.19 L 10126.6,2754.16 Z " />
<path stroke="transparent" fill="#000000" transform="matrix(0.05 0 0 0.05 -305 -58)" d="M 10519.8,2527.19 L 10539.1,2538.38 L 10126.6,2776.54 L 10126.6,2754.16 L 10519.8,2527.19 L 10519.8,2527.19 Z " />
<path stroke="transparent" fill="#000000" transform="matrix(0.05 0 0 0.05 -305 -58)" d="M 10539.1,2538.38 L 10519.8,2527.19 L 10519.8,2073.25 L 10529.4,2067.65 L 10539.1,2073.25 L 10539.1,2538.38 Z " />
<path stroke="transparent" fill="#000000" transform="matrix(0.05 0 0 0.05 -305 -58)" d="M 10880.7,1537.29 L 10900.1,1537.29 L 10900.1,1859.26 L 10880.7,1859.26 L 10880.7,1537.29 Z " />
<path stroke="transparent" fill="#000000" transform="matrix(0.05 0 0 0.05 -305 -58)" d="M 10964.4,1537.29 L 10983.8,1537.29 L 10983.8,1859.26 L 10964.4,1859.26 L 10964.4,1537.29 Z " />
<path stroke="transparent" fill="#000000" transform="matrix(0.05 0 0 0.05 -305 -58)" d="M 11193.1,1974.48 L 11183.4,1991.26 L 10932.3,1846.28 L 10932.3,1823.9 L 11193.1,1974.48 Z " />
<path stroke="transparent" fill="#000000" transform="matrix(0.05 0 0 0.05 -305 -58)" d="M 10932.3,1823.9 L 10932.3,1846.28 L 10539.1,2073.25 L 10529.4,2067.65 L 10529.4,2056.47 L 10932.3,1823.9 Z " />
<path stroke="transparent" fill="#000000" transform="matrix(0.05 0 0 0.05 -305 -58)" d="M 8515.28,2776.54 L 8515.28,2754.16 L 8918.24,2521.6 L 8918.24,2543.97 L 8515.28,2776.54 Z " />
<path stroke="transparent" fill="#000000" transform="matrix(0.05 0 0 0.05 -305 -58)" d="M 8112.48,2543.97 L 8112.48,2521.6 L 8515.28,2754.16 L 8515.28,2776.54 L 8112.48,2543.97 Z " />
<path stroke="transparent" fill="#000000" transform="matrix(0.05 0 0 0.05 -305 -58)" d="M 8107.63,2637.85 L 8117.32,2621.07 L 8478.26,2829.46 L 8468.57,2846.25 L 8107.63,2637.85 Z " />
<path stroke="transparent" fill="#000000" transform="matrix(0.05 0 0 0.05 -305 -58)" d="M 8866.69,2234.99 L 8886.07,2234.99 L 8886.07,2556.95 L 8866.69,2556.95 L 8866.69,2234.99 Z " />
<path stroke="transparent" fill="#000000" transform="matrix(0.05 0 0 0.05 -305 -58)" d="M 8950.41,2234.99 L 8969.79,2234.99 L 8969.79,2556.95 L 8950.41,2556.95 L 8950.41,2234.99 Z " />
<path stroke="transparent" fill="#000000" transform="matrix(0.05 0 0 0.05 -305 -58)" d="M 7719.37,3236.07 L 7699.99,3224.89 L 7699.99,2770.94 L 7709.68,2765.35 L 7719.37,2770.94 L 7719.37,3236.07 Z " />
<path stroke="transparent" fill="#000000" transform="matrix(0.05 0 0 0.05 -305 -58)" d="M 7306.87,3474.23 L 7306.87,3451.86 L 7699.99,3224.89 L 7719.37,3236.07 L 7306.87,3474.23 Z " />
<path stroke="transparent" fill="#000000" transform="matrix(0.05 0 0 0.05 -305 -58)" d="M 7311.72,3374.76 L 7302.03,3357.98 L 7621.11,3173.75 L 7630.8,3190.54 L 7311.72,3374.76 Z " />
<path stroke="transparent" fill="#000000" transform="matrix(0.05 0 0 0.05 -305 -58)" d="M 6904.07,3241.67 L 6904.07,3230.48 L 6913.76,3224.89 L 7306.87,3451.86 L 7306.87,3474.23 L 6904.07,3241.67 Z " />
<path stroke="transparent" fill="#000000" transform="matrix(0.05 0 0 0.05 -305 -58)" d="M 6894.38,2759.76 L 6913.76,2770.94 L 6913.76,3224.89 L 6904.07,3230.48 L 6894.38,3224.89 L 6894.38,2759.76 Z " />
<path stroke="transparent" fill="#000000" transform="matrix(0.05 0 0 0.05 -305 -58)" d="M 6978.1,2813.69 L 6997.48,2813.69 L 6997.48,3182.14 L 6978.1,3182.14 L 6978.1,2813.69 Z " />
<path stroke="transparent" fill="#000000" transform="matrix(0.05 0 0 0.05 -305 -58)" d="M 7306.87,2521.6 L 7306.87,2543.97 L 6913.76,2770.94 L 6894.38,2759.76 L 7306.87,2521.6 Z " />
<path stroke="transparent" fill="#000000" transform="matrix(0.05 0 0 0.05 -305 -58)" d="M 7306.87,2543.97 L 7306.87,2521.6 L 7709.68,2754.16 L 7709.68,2765.35 L 7699.99,2770.94 L 7306.87,2543.97 Z " />
<path stroke="transparent" fill="#000000" transform="matrix(0.05 0 0 0.05 -305 -58)" d="M 7302.03,2637.85 L 7311.72,2621.07 L 7630.8,2805.29 L 7621.11,2822.08 L 7302.03,2637.85 Z " />
<path stroke="transparent" fill="#000000" transform="matrix(0.05 0 0 0.05 -305 -58)" d="M 6652.9,3386.69 L 6643.21,3369.9 L 6894.38,3224.89 L 6904.07,3230.48 L 6904.07,3241.67 L 6652.9,3386.69 Z " />
<path stroke="transparent" fill="#000000" transform="matrix(0.05 0 0 0.05 -305 -58)" d="M 7719.37,2770.94 L 7709.68,2765.35 L 7709.68,2754.16 L 8112.48,2521.6 L 8112.48,2543.97 L 7719.37,2770.94 Z " />
<path stroke="transparent" fill="#000000" transform="matrix(0.05 0 0 0.05 -305 -58)" d="M 8918.24,2543.97 L 8918.24,2521.6 L 9179.04,2672.17 L 9169.35,2688.96 L 8918.24,2543.97 Z " />
<path stroke="transparent" fill="#000000" transform="matrix(0.05 0 0 0.05 -305 -58)" d="M 9492.02,2722.58 L 9443.57,2638.66 L 9462.1,2632 L 9507.05,2709.86 L 9492.02,2722.58 Z " />
<path stroke="transparent" fill="#000000" transform="matrix(0.05 0 0 0.05 -305 -58)" d="M 9567.79,2658.47 L 9536.97,2605.09 L 9555.5,2598.43 L 9582.83,2645.75 L 9567.79,2658.47 Z " />
<path stroke="transparent" fill="#000000" transform="matrix(0.05 0 0 0.05 -305 -58)" d="M 9643.57,2594.36 L 9630.38,2571.52 L 9648.91,2564.86 L 9658.6,2581.64 L 9643.57,2594.36 Z " />
<path stroke="transparent" fill="#000000" transform="matrix(0.05 0 0 0.05 -305 -58)" d="M 9440.27,1959.88 L 9488.72,1875.96 L 9724.52,2056.08 L 9723.84,2067.65 L 9714.15,2074.03 L 9440.27,1959.88 Z " />
<path stroke="transparent" fill="#000000" transform="matrix(0.05 0 0 0.05 -305 -58)" d="M 10481,1769.86 L 10577.9,1769.86 L 10574.4,1789.24 L 10484.5,1789.24 L 10481,1769.86 Z " />
<path stroke="transparent" fill="#000000" transform="matrix(0.05 0 0 0.05 -305 -58)" d="M 10498.6,1868.58 L 10560.3,1868.58 L 10556.8,1887.96 L 10502.1,1887.96 L 10498.6,1868.58 Z " />
<path stroke="transparent" fill="#000000" transform="matrix(0.05 0 0 0.05 -305 -58)" d="M 10516.3,1967.31 L 10542.6,1967.31 L 10539.1,1986.69 L 10519.8,1986.69 L 10516.3,1967.31 Z " />
<path stroke="transparent" fill="#000000" transform="matrix(0.05 0 0 0.05 -305 -58)" d="M 10175.1,3230.47 L 10078.2,3230.47 L 10080.2,3211.09 L 10173.1,3211.09 L 10175.1,3230.47 Z " />
<path stroke="transparent" fill="#000000" transform="matrix(0.05 0 0 0.05 -305 -58)" d="M 10165.9,3139.23 L 10087.4,3139.23 L 10089.4,3119.85 L 10163.9,3119.85 L 10165.9,3139.23 Z " />
<path stroke="transparent" fill="#000000" transform="matrix(0.05 0 0 0.05 -305 -58)" d="M 10156.7,3047.98 L 10096.6,3047.98 L 10098.6,3028.61 L 10154.7,3028.61 L 10156.7,3047.98 Z " />
<path stroke="transparent" fill="#000000" transform="matrix(0.05 0 0 0.05 -305 -58)" d="M 10147.5,2956.74 L 10105.8,2956.74 L 10107.8,2937.36 L 10145.5,2937.36 L 10147.5,2956.74 Z " />
<path stroke="transparent" fill="#000000" transform="matrix(0.05 0 0 0.05 -305 -58)" d="M 10138.3,2865.5 L 10115,2865.5 L 10117,2846.12 L 10136.3,2846.12 L 10138.3,2865.5 Z " />
<text x="0" y="0" stroke="transparent" fill="#000000" transform="matrix(0.05 0 0 0.05 197.723 118.76)" style="font:normal normal normal 323px 'Arial'" >
OH</text>
</svg>
