<?xml version="1.0" standalone="no" ?>
<!DOCTYPE svg PUBLIC "-//W3C//DTD SVG 1.1//EN" "http://www.w3.org/Graphics/SVG/1.1/DTD/svg11.dtd">
<svg width="278px" height="138px" viewBox="0 0 278 138" style="background-color: #ffffff00" xmlns="http://www.w3.org/2000/svg" xmlns:xlink="http://www.w3.org/1999/xlink" version="1.1" >
<text x="0" y="0" stroke="transparent" fill="#000000" transform="matrix(0.0666667 0 0 0.0666667 2.86087 134.739)" style="font:normal normal normal 200px 'Arial'" >
HO</text>
<text x="0" y="0" stroke="transparent" fill="#000000" transform="matrix(0.0666667 0 0 0.0666667 220.336 14.7389)" style="font:normal normal normal 200px 'Arial'" >
O</text>
<text x="0" y="0" stroke="transparent" fill="#000000" transform="matrix(0.0666667 0 0 0.0666667 254.977 74.7389)" style="font:normal normal normal 200px 'Arial'" >
OH</text>
<path stroke="transparent" fill="#000000" transform="matrix(0.0666667 0 0 0.0666667 -4.06667 1.66667)" d="M 2924.42,1029.63 L 2924.42,1006.54 L 3444.04,706.536 L 3444.04,729.63 L 2924.42,1029.63 Z " />
<path stroke="transparent" fill="#000000" transform="matrix(0.0666667 0 0 0.0666667 -4.06667 1.66667)" d="M 2404.81,729.63 L 2404.81,706.536 L 2924.42,1006.54 L 2924.42,1029.63 L 2404.81,729.63 Z " />
<path stroke="transparent" fill="#000000" transform="matrix(0.0666667 0 0 0.0666667 -4.06667 1.66667)" d="M 2399.81,809.882 L 2409.81,792.562 L 2893.42,1071.78 L 2883.42,1089.1 L 2399.81,809.882 Z " />
<path stroke="transparent" fill="#000000" transform="matrix(0.0666667 0 0 0.0666667 -4.06667 1.66667)" d="M 1895.19,1023.86 L 1885.19,1018.08 L 1885.19,1006.54 L 2404.81,706.536 L 2404.81,729.63 L 1895.19,1023.86 Z " />
<path stroke="transparent" fill="#000000" transform="matrix(0.0666667 0 0 0.0666667 -4.06667 1.66667)" d="M 1895.19,1623.86 L 1875.19,1612.31 L 1875.19,1023.86 L 1885.19,1018.08 L 1895.19,1023.86 L 1895.19,1623.86 Z " />
<path stroke="transparent" fill="#000000" transform="matrix(0.0666667 0 0 0.0666667 -4.06667 1.66667)" d="M 1365.58,1929.63 L 1365.58,1906.54 L 1875.19,1612.31 L 1895.19,1623.86 L 1365.58,1929.63 Z " />
<path stroke="transparent" fill="#000000" transform="matrix(0.0666667 0 0 0.0666667 -4.06667 1.66667)" d="M 1370.58,1843.61 L 1360.58,1826.28 L 1808.19,1567.85 L 1818.19,1585.17 L 1370.58,1843.61 Z " />
<path stroke="transparent" fill="#000000" transform="matrix(0.0666667 0 0 0.0666667 -4.06667 1.66667)" d="M 845.962,1629.63 L 845.962,1618.08 L 855.962,1612.31 L 1365.58,1906.54 L 1365.58,1929.63 L 845.962,1629.63 Z " />
<path stroke="transparent" fill="#000000" transform="matrix(0.0666667 0 0 0.0666667 -4.06667 1.66667)" d="M 835.962,1012.31 L 855.962,1023.86 L 855.962,1612.31 L 845.962,1618.08 L 835.962,1612.31 L 835.962,1012.31 Z " />
<path stroke="transparent" fill="#000000" transform="matrix(0.0666667 0 0 0.0666667 -4.06667 1.66667)" d="M 907.962,1059.65 L 927.962,1059.65 L 927.962,1576.51 L 907.962,1576.51 L 907.962,1059.65 Z " />
<path stroke="transparent" fill="#000000" transform="matrix(0.0666667 0 0 0.0666667 -4.06667 1.66667)" d="M 1365.58,706.536 L 1365.58,729.63 L 855.962,1023.86 L 835.962,1012.31 L 1365.58,706.536 Z " />
<path stroke="transparent" fill="#000000" transform="matrix(0.0666667 0 0 0.0666667 -4.06667 1.66667)" d="M 1365.58,729.63 L 1365.58,706.536 L 1885.19,1006.54 L 1885.19,1018.08 L 1875.19,1023.86 L 1365.58,729.63 Z " />
<path stroke="transparent" fill="#000000" transform="matrix(0.0666667 0 0 0.0666667 -4.06667 1.66667)" d="M 1360.58,809.882 L 1370.58,792.562 L 1818.19,1050.99 L 1808.19,1068.31 L 1360.58,809.882 Z " />
<path stroke="transparent" fill="#000000" transform="matrix(0.0666667 0 0 0.0666667 -4.06667 1.66667)" d="M 423.957,1873.27 L 413.957,1855.95 L 835.962,1612.31 L 845.962,1618.08 L 845.962,1629.63 L 423.957,1873.27 Z " />
<path stroke="transparent" fill="#000000" transform="matrix(0.0666667 0 0 0.0666667 -4.06667 1.66667)" d="M 3398.04,237.917 L 3418.04,237.917 L 3418.04,738.868 L 3398.04,738.868 L 3398.04,237.917 Z " />
<path stroke="transparent" fill="#000000" transform="matrix(0.0666667 0 0 0.0666667 -4.06667 1.66667)" d="M 3470.04,237.917 L 3490.04,237.917 L 3490.04,738.868 L 3470.04,738.868 L 3470.04,237.917 Z " />
<path stroke="transparent" fill="#000000" transform="matrix(0.0666667 0 0 0.0666667 -4.06667 1.66667)" d="M 3876.03,955.95 L 3866.03,973.27 L 3444.04,729.63 L 3444.04,706.536 L 3876.03,955.95 Z " />
</svg>
