<?xml version="1.0" standalone="no" ?>
<!DOCTYPE svg PUBLIC "-//W3C//DTD SVG 1.1//EN" "http://www.w3.org/Graphics/SVG/1.1/DTD/svg11.dtd">
<svg width="196px" height="90px" viewBox="0 0 196 90" style="background-color: #ffffffff" xmlns="http://www.w3.org/2000/svg" xmlns:xlink="http://www.w3.org/1999/xlink" version="1.1" >
<text x="0" y="0" stroke="transparent" fill="#000000" transform="matrix(0.05 0 0 0.05 173.788 74.1881)" style="font:normal normal normal 498.2px 'Arial'" >
O</text>
<text x="0" y="0" stroke="transparent" fill="#000000" transform="matrix(0.05 0 0 0.05 2.07868 23.1772)" style="font:normal normal normal 498.2px 'Arial'" >
HO</text>
<path stroke="transparent" fill="#000000" transform="matrix(0.05 0 0 0.05 -386 -148)" d="M 10179.2,4343.95 L 10179.2,4326.69 L 10194.2,4318.06 L 10800.5,4668.15 L 10800.5,4702.66 L 10179.2,4343.95 Z " />
<path stroke="transparent" fill="#000000" transform="matrix(0.05 0 0 0.05 -386 -148)" d="M 9557.93,4702.66 L 9557.93,4668.15 L 10164.3,4318.06 L 10179.2,4326.69 L 10179.2,4343.95 L 9557.93,4702.66 Z " />
<path stroke="transparent" fill="#000000" transform="matrix(0.05 0 0 0.05 -386 -148)" d="M 8921.46,4335.32 L 8951.35,4318.06 L 9557.93,4668.15 L 9557.93,4702.66 L 8921.46,4335.32 Z " />
<path stroke="transparent" fill="#000000" transform="matrix(0.05 0 0 0.05 -386 -148)" d="M 9058.1,4265.05 L 9073.05,4239.16 L 9565.39,4523.31 L 9550.45,4549.2 L 9058.1,4265.05 Z " />
<path stroke="transparent" fill="#000000" transform="matrix(0.05 0 0 0.05 -386 -148)" d="M 8921.46,3617.9 L 8936.4,3609.27 L 8951.35,3617.9 L 8951.35,4318.06 L 8921.46,4335.32 L 8921.46,3617.9 Z " />
<path stroke="transparent" fill="#000000" transform="matrix(0.05 0 0 0.05 -386 -148)" d="M 9557.93,3233.3 L 9557.93,3267.81 L 8951.35,3617.9 L 8936.4,3609.27 L 8936.41,3592.01 L 9557.93,3233.3 Z " />
<path stroke="transparent" fill="#000000" transform="matrix(0.05 0 0 0.05 -386 -148)" d="M 9550.45,3386.76 L 9565.39,3412.65 L 9073.05,3696.8 L 9058.1,3670.91 L 9550.45,3386.76 Z " />
<path stroke="transparent" fill="#000000" transform="matrix(0.05 0 0 0.05 -386 -148)" d="M 10194.2,3600.64 L 10164.3,3617.9 L 9557.93,3267.81 L 9557.93,3233.3 L 10194.2,3600.64 Z " />
<path stroke="transparent" fill="#000000" transform="matrix(0.05 0 0 0.05 -386 -148)" d="M 10164.3,3617.9 L 10194.2,3600.64 L 10194.2,4318.06 L 10179.2,4326.69 L 10164.3,4318.06 L 10164.3,3617.9 Z " />
<path stroke="transparent" fill="#000000" transform="matrix(0.05 0 0 0.05 -386 -148)" d="M 10035.1,3683.82 L 10065,3683.82 L 10065,4252.14 L 10035.1,4252.14 L 10035.1,3683.82 Z " />
<path stroke="transparent" fill="#000000" transform="matrix(0.05 0 0 0.05 -386 -148)" d="M 11194.2,4440.86 L 11209.1,4466.75 L 10800.5,4702.66 L 10800.5,4668.15 L 11194.2,4440.86 Z " />
<path stroke="transparent" fill="#000000" transform="matrix(0.05 0 0 0.05 -386 -148)" d="M 11129.6,4329.03 L 11144.5,4354.92 L 10808,4549.24 L 10793,4523.35 L 11129.6,4329.03 Z " />
<path stroke="transparent" fill="#000000" transform="matrix(0.05 0 0 0.05 -386 -148)" d="M 8528.64,3391.1 L 8543.59,3365.21 L 8936.41,3592.01 L 8936.4,3609.27 L 8921.46,3617.9 L 8528.64,3391.1 Z " />
</svg>
