<?xml version="1.0" standalone="no" ?>
<!DOCTYPE svg PUBLIC "-//W3C//DTD SVG 1.1//EN" "http://www.w3.org/Graphics/SVG/1.1/DTD/svg11.dtd">
<svg width="278px" height="138px" viewBox="0 0 278 138" style="background-color: #ffffff00" xmlns="http://www.w3.org/2000/svg" xmlns:xlink="http://www.w3.org/1999/xlink" version="1.1" >
<text x="0" y="0" stroke="transparent" fill="#000000" transform="matrix(0.0666667 0 0 0.0666667 220.336 14.7389)" style="font:normal normal normal 200px 'Arial'" >
O</text>
<text x="0" y="0" stroke="transparent" fill="#000000" transform="matrix(0.0666667 0 0 0.0666667 254.977 74.7389)" style="font:normal normal normal 200px 'Arial'" >
OH</text>
<text x="0" y="0" stroke="transparent" fill="#000000" transform="matrix(0.0666667 0 0 0.0666667 2.86087 134.739)" style="font:normal normal normal 200px 'Arial'" >
HO</text>
<path stroke="transparent" fill="#000000" transform="matrix(0.0666667 0 0 0.0666667 -20.0667 -18.3333)" d="M 3164.42,1329.63 L 3164.42,1306.54 L 3684.04,1006.54 L 3684.04,1029.63 L 3164.42,1329.63 Z " />
<path stroke="transparent" fill="#000000" transform="matrix(0.0666667 0 0 0.0666667 -20.0667 -18.3333)" d="M 2644.81,1029.63 L 2644.81,1006.54 L 3164.42,1306.54 L 3164.42,1329.63 L 2644.81,1029.63 Z " />
<path stroke="transparent" fill="#000000" transform="matrix(0.0666667 0 0 0.0666667 -20.0667 -18.3333)" d="M 2639.81,1109.88 L 2649.81,1092.56 L 3133.42,1371.78 L 3123.42,1389.1 L 2639.81,1109.88 Z " />
<path stroke="transparent" fill="#000000" transform="matrix(0.0666667 0 0 0.0666667 -20.0667 -18.3333)" d="M 2135.19,1323.86 L 2125.19,1318.08 L 2125.19,1306.54 L 2644.81,1006.54 L 2644.81,1029.63 L 2135.19,1323.86 Z " />
<path stroke="transparent" fill="#000000" transform="matrix(0.0666667 0 0 0.0666667 -20.0667 -18.3333)" d="M 2135.19,1923.86 L 2115.19,1912.31 L 2115.19,1323.86 L 2125.19,1318.08 L 2135.19,1323.86 L 2135.19,1923.86 Z " />
<path stroke="transparent" fill="#000000" transform="matrix(0.0666667 0 0 0.0666667 -20.0667 -18.3333)" d="M 1605.58,2229.63 L 1605.58,2206.54 L 2115.19,1912.31 L 2135.19,1923.86 L 1605.58,2229.63 Z " />
<path stroke="transparent" fill="#000000" transform="matrix(0.0666667 0 0 0.0666667 -20.0667 -18.3333)" d="M 1610.58,2143.61 L 1600.58,2126.28 L 2048.19,1867.85 L 2058.19,1885.17 L 1610.58,2143.61 Z " />
<path stroke="transparent" fill="#000000" transform="matrix(0.0666667 0 0 0.0666667 -20.0667 -18.3333)" d="M 1085.96,1929.63 L 1085.96,1918.08 L 1095.96,1912.31 L 1605.58,2206.54 L 1605.58,2229.63 L 1085.96,1929.63 Z " />
<path stroke="transparent" fill="#000000" transform="matrix(0.0666667 0 0 0.0666667 -20.0667 -18.3333)" d="M 1075.96,1312.31 L 1095.96,1323.86 L 1095.96,1912.31 L 1085.96,1918.08 L 1075.96,1912.31 L 1075.96,1312.31 Z " />
<path stroke="transparent" fill="#000000" transform="matrix(0.0666667 0 0 0.0666667 -20.0667 -18.3333)" d="M 1147.96,1359.65 L 1167.96,1359.65 L 1167.96,1876.51 L 1147.96,1876.51 L 1147.96,1359.65 Z " />
<path stroke="transparent" fill="#000000" transform="matrix(0.0666667 0 0 0.0666667 -20.0667 -18.3333)" d="M 1605.58,1006.54 L 1605.58,1029.63 L 1095.96,1323.86 L 1075.96,1312.31 L 1605.58,1006.54 Z " />
<path stroke="transparent" fill="#000000" transform="matrix(0.0666667 0 0 0.0666667 -20.0667 -18.3333)" d="M 1605.58,1029.63 L 1605.58,1006.54 L 2125.19,1306.54 L 2125.19,1318.08 L 2115.19,1323.86 L 1605.58,1029.63 Z " />
<path stroke="transparent" fill="#000000" transform="matrix(0.0666667 0 0 0.0666667 -20.0667 -18.3333)" d="M 1600.58,1109.88 L 1610.58,1092.56 L 2058.19,1350.99 L 2048.19,1368.31 L 1600.58,1109.88 Z " />
<path stroke="transparent" fill="#000000" transform="matrix(0.0666667 0 0 0.0666667 -20.0667 -18.3333)" d="M 3638.04,537.917 L 3658.04,537.917 L 3658.04,1038.87 L 3638.04,1038.87 L 3638.04,537.917 Z " />
<path stroke="transparent" fill="#000000" transform="matrix(0.0666667 0 0 0.0666667 -20.0667 -18.3333)" d="M 3710.04,537.917 L 3730.04,537.917 L 3730.04,1038.87 L 3710.04,1038.87 L 3710.04,537.917 Z " />
<path stroke="transparent" fill="#000000" transform="matrix(0.0666667 0 0 0.0666667 -20.0667 -18.3333)" d="M 4116.03,1255.95 L 4106.03,1273.27 L 3684.04,1029.63 L 3684.04,1006.54 L 4116.03,1255.95 Z " />
<path stroke="transparent" fill="#000000" transform="matrix(0.0666667 0 0 0.0666667 -20.0667 -18.3333)" d="M 663.957,2173.27 L 653.957,2155.95 L 1075.96,1912.31 L 1085.96,1918.08 L 1085.96,1929.63 L 663.957,2173.27 Z " />
</svg>
