<?xml version="1.0" standalone="no" ?>
<!DOCTYPE svg PUBLIC "-//W3C//DTD SVG 1.1//EN" "http://www.w3.org/Graphics/SVG/1.1/DTD/svg11.dtd">
<svg width="334px" height="146px" viewBox="0 0 334 146" style="background-color: #ffffffff" xmlns="http://www.w3.org/2000/svg" xmlns:xlink="http://www.w3.org/1999/xlink" version="1.1" >
<text x="0" y="0" stroke="transparent" fill="#000000" transform="matrix(0.05 0 0 0.05 279.159 128.802)" style="font:normal normal normal 383.67px 'Arial'" >
O</text>
<text x="0" y="0" stroke="transparent" fill="#000000" transform="matrix(0.05 0 0 0.05 303.082 87.3645)" style="font:normal normal normal 383.67px 'Arial'" >
OH</text>
<text x="0" y="0" stroke="transparent" fill="#000000" transform="matrix(0.05 0 0 0.05 183.467 101.177)" style="font:normal normal normal 383.67px 'Arial'" >
O</text>
<text x="0" y="0" stroke="transparent" fill="#000000" transform="matrix(0.05 0 0 0.05 159.544 59.7397)" style="font:normal normal normal 383.67px 'Arial'" >
O</text>
<text x="0" y="0" stroke="transparent" fill="#000000" transform="matrix(0.05 0 0 0.05 2.14231 142.614)" style="font:normal normal normal 383.67px 'Arial'" >
HO</text>
<text x="0" y="0" stroke="transparent" fill="#000000" transform="matrix(0.05 0 0 0.05 169.613 45.9273)" style="font:normal normal normal 383.67px 'Arial'" >
HO</text>
<text x="0" y="0" stroke="transparent" fill="#000000" transform="matrix(0.05 0 0 0.05 231.313 18.3025)" style="font:normal normal normal 383.67px 'Arial'" >
OH</text>
<text x="0" y="0" stroke="transparent" fill="#000000" transform="matrix(0.05 0 0 0.05 255.236 114.989)" style="font:normal normal normal 383.67px 'Arial'" >
OH</text>
<path stroke="transparent" fill="#000000" transform="matrix(0.05 0 0 0.05 -276 -102)" d="M 10762.4,3108.22 L 10785.4,3094.93 L 10785.4,3647.43 L 10773.9,3654.07 L 10762.4,3647.43 L 10762.4,3108.22 Z " />
<path stroke="transparent" fill="#000000" transform="matrix(0.05 0 0 0.05 -276 -102)" d="M 10295.5,2838.62 L 10295.5,2812.04 L 10785.4,3094.93 L 10762.4,3108.22 L 10295.5,2838.62 Z " />
<path stroke="transparent" fill="#000000" transform="matrix(0.05 0 0 0.05 -276 -102)" d="M 9828.53,3108.22 L 9805.51,3094.93 L 10295.5,2812.04 L 10295.5,2838.62 L 9828.53,3108.22 Z " />
<path stroke="transparent" fill="#000000" transform="matrix(0.05 0 0 0.05 -276 -102)" d="M 9828.53,3647.43 L 9817.02,3654.07 L 9805.51,3646.49 L 9805.51,3094.93 L 9828.53,3108.22 L 9828.53,3647.43 Z " />
<path stroke="transparent" fill="#000000" transform="matrix(0.05 0 0 0.05 -276 -102)" d="M 10295.5,3917.03 L 10295.5,3943.61 L 9817.83,3667.83 L 9817.02,3654.07 L 9828.53,3647.43 L 10295.5,3917.03 Z " />
<path stroke="transparent" fill="#000000" transform="matrix(0.05 0 0 0.05 -276 -102)" d="M 10295.5,3943.61 L 10295.5,3917.03 L 10762.4,3647.43 L 10773.9,3654.07 L 10773.9,3667.36 L 10295.5,3943.61 Z " />
<path stroke="transparent" fill="#000000" transform="matrix(0.05 0 0 0.05 -276 -102)" d="M 11313.6,4274.98 L 11290.6,4274.98 L 11290.6,3901.61 L 11313.6,3901.61 L 11313.6,4274.98 Z " />
<path stroke="transparent" fill="#000000" transform="matrix(0.05 0 0 0.05 -276 -102)" d="M 11214.2,4274.98 L 11191.2,4274.98 L 11191.2,3901.61 L 11214.2,3901.61 L 11214.2,4274.98 Z " />
<path stroke="transparent" fill="#000000" transform="matrix(0.05 0 0 0.05 -276 -102)" d="M 11555.5,3742.01 L 11567,3761.95 L 11252.4,3943.61 L 11252.4,3917.03 L 11555.5,3742.01 Z " />
<path stroke="transparent" fill="#000000" transform="matrix(0.05 0 0 0.05 -276 -102)" d="M 11252.4,3917.03 L 11252.4,3943.61 L 10773.9,3667.36 L 10773.9,3654.07 L 10785.4,3647.43 L 11252.4,3917.03 Z " />
<path stroke="transparent" fill="#000000" transform="matrix(0.05 0 0 0.05 -276 -102)" d="M 8381.44,3943.61 L 8381.45,3917.03 L 8860.09,3640.78 L 8860.09,3667.36 L 8381.44,3943.61 Z " />
<path stroke="transparent" fill="#000000" transform="matrix(0.05 0 0 0.05 -276 -102)" d="M 7902.98,3667.36 L 7902.98,3640.78 L 8381.45,3917.03 L 8381.44,3943.61 L 7902.98,3667.36 Z " />
<path stroke="transparent" fill="#000000" transform="matrix(0.05 0 0 0.05 -276 -102)" d="M 7897.23,3778.87 L 7908.74,3758.94 L 8337.48,4006.48 L 8325.97,4026.41 L 7897.23,3778.87 Z " />
<path stroke="transparent" fill="#000000" transform="matrix(0.05 0 0 0.05 -276 -102)" d="M 8798.86,3300.51 L 8821.88,3300.51 L 8821.88,3682.77 L 8798.86,3682.77 L 8798.86,3300.51 Z " />
<path stroke="transparent" fill="#000000" transform="matrix(0.05 0 0 0.05 -276 -102)" d="M 8898.31,3300.51 L 8921.33,3300.51 L 8921.33,3682.78 L 8898.31,3682.78 L 8898.31,3300.51 Z " />
<path stroke="transparent" fill="#000000" transform="matrix(0.05 0 0 0.05 -276 -102)" d="M 7436.03,4489.46 L 7413.01,4476.17 L 7413.01,3936.97 L 7424.52,3930.32 L 7436.03,3936.97 L 7436.03,4489.46 Z " />
<path stroke="transparent" fill="#000000" transform="matrix(0.05 0 0 0.05 -276 -102)" d="M 6946.06,4772.36 L 6946.06,4745.77 L 7413.01,4476.17 L 7436.03,4489.46 L 6946.06,4772.36 Z " />
<path stroke="transparent" fill="#000000" transform="matrix(0.05 0 0 0.05 -276 -102)" d="M 6951.82,4654.2 L 6940.3,4634.26 L 7319.32,4415.43 L 7330.83,4435.37 L 6951.82,4654.2 Z " />
<path stroke="transparent" fill="#000000" transform="matrix(0.05 0 0 0.05 -276 -102)" d="M 6467.6,4496.11 L 6467.6,4482.82 L 6479.11,4476.17 L 6946.06,4745.77 L 6946.06,4772.36 L 6467.6,4496.11 Z " />
<path stroke="transparent" fill="#000000" transform="matrix(0.05 0 0 0.05 -276 -102)" d="M 6456.09,3923.68 L 6479.11,3936.97 L 6479.11,4476.17 L 6467.6,4482.82 L 6456.09,4476.17 L 6456.09,3923.68 Z " />
<path stroke="transparent" fill="#000000" transform="matrix(0.05 0 0 0.05 -276 -102)" d="M 6555.54,3987.74 L 6578.56,3987.74 L 6578.56,4425.4 L 6555.54,4425.4 L 6555.54,3987.74 Z " />
<path stroke="transparent" fill="#000000" transform="matrix(0.05 0 0 0.05 -276 -102)" d="M 6946.06,3640.78 L 6946.06,3667.36 L 6479.11,3936.97 L 6456.09,3923.68 L 6946.06,3640.78 Z " />
<path stroke="transparent" fill="#000000" transform="matrix(0.05 0 0 0.05 -276 -102)" d="M 6946.06,3667.36 L 6946.06,3640.78 L 7424.52,3917.03 L 7424.52,3930.32 L 7413.01,3936.97 L 6946.06,3667.36 Z " />
<path stroke="transparent" fill="#000000" transform="matrix(0.05 0 0 0.05 -276 -102)" d="M 6940.3,3778.87 L 6951.82,3758.94 L 7330.83,3977.77 L 7319.32,3997.7 L 6940.3,3778.87 Z " />
<path stroke="transparent" fill="#000000" transform="matrix(0.05 0 0 0.05 -276 -102)" d="M 6168.92,4668.55 L 6157.41,4648.62 L 6456.09,4476.17 L 6467.6,4482.82 L 6467.6,4496.11 L 6168.92,4668.55 Z " />
<path stroke="transparent" fill="#000000" transform="matrix(0.05 0 0 0.05 -276 -102)" d="M 7436.03,3936.97 L 7424.52,3930.32 L 7424.52,3917.03 L 7902.98,3640.78 L 7902.98,3667.36 L 7436.03,3936.97 Z " />
<path stroke="transparent" fill="#000000" transform="matrix(0.05 0 0 0.05 -276 -102)" d="M 8860.09,3667.36 L 8860.09,3640.78 L 9170.22,3819.84 L 9158.71,3839.77 L 8860.09,3667.36 Z " />
<path stroke="transparent" fill="#000000" transform="matrix(0.05 0 0 0.05 -276 -102)" d="M 9541.41,3879.65 L 9483.86,3779.97 L 9805.51,3646.49 L 9817.02,3654.07 L 9817.83,3667.83 L 9541.41,3879.65 Z " />
<path stroke="transparent" fill="#000000" transform="matrix(0.05 0 0 0.05 -276 -102)" d="M 9479.96,2973.42 L 9537.51,2873.74 L 9555.4,2888.79 L 9501.93,2981.4 L 9479.96,2973.42 Z " />
<path stroke="transparent" fill="#000000" transform="matrix(0.05 0 0 0.05 -276 -102)" d="M 9592.97,3014.45 L 9629.54,2951.11 L 9647.44,2966.15 L 9614.95,3022.43 L 9592.97,3014.45 Z " />
<path stroke="transparent" fill="#000000" transform="matrix(0.05 0 0 0.05 -276 -102)" d="M 9705.99,3055.47 L 9721.58,3028.47 L 9739.48,3043.52 L 9727.97,3063.45 L 9705.99,3055.47 Z " />
<path stroke="transparent" fill="#000000" transform="matrix(0.05 0 0 0.05 -276 -102)" d="M 10237.9,2471.77 L 10353,2471.77 L 10348.9,2494.79 L 10242,2494.79 L 10237.9,2471.77 Z " />
<path stroke="transparent" fill="#000000" transform="matrix(0.05 0 0 0.05 -276 -102)" d="M 10258.9,2589 L 10332.1,2589 L 10328,2612.02 L 10263,2612.02 L 10258.9,2589 Z " />
<path stroke="transparent" fill="#000000" transform="matrix(0.05 0 0 0.05 -276 -102)" d="M 10279.9,2706.24 L 10311.1,2706.24 L 10307,2729.26 L 10284,2729.26 L 10279.9,2706.24 Z " />
<path stroke="transparent" fill="#000000" transform="matrix(0.05 0 0 0.05 -276 -102)" d="M 10831.5,3998.73 L 10716.4,3998.73 L 10720.7,3975.71 L 10827.2,3975.71 L 10831.5,3998.73 Z " />
<path stroke="transparent" fill="#000000" transform="matrix(0.05 0 0 0.05 -276 -102)" d="M 10810.6,3885.96 L 10737.3,3885.96 L 10741.5,3862.94 L 10806.3,3862.94 L 10810.6,3885.96 Z " />
<path stroke="transparent" fill="#000000" transform="matrix(0.05 0 0 0.05 -276 -102)" d="M 10789.7,3773.19 L 10758.2,3773.19 L 10762.4,3750.17 L 10785.4,3750.17 L 10789.7,3773.19 Z " />
</svg>
