<?xml version="1.0" standalone="no" ?>
<!DOCTYPE svg PUBLIC "-//W3C//DTD SVG 1.1//EN" "http://www.w3.org/Graphics/SVG/1.1/DTD/svg11.dtd">
<svg width="222px" height="159px" viewBox="0 0 222 159" style="background-color: #ffffffff" xmlns="http://www.w3.org/2000/svg" xmlns:xlink="http://www.w3.org/1999/xlink" version="1.1" >
<text x="0" y="0" stroke="transparent" fill="#000000" transform="matrix(0.05 0 0 0.05 24.177 106.642)" style="font:normal normal normal 397.2px 'Arial'" >
N</text>
<text x="0" y="0" stroke="transparent" fill="#000000" transform="matrix(0.05 0 0 0.05 116.15 62.8104)" style="font:normal normal normal 397.2px 'Arial'" >
O</text>
<text x="0" y="0" stroke="transparent" fill="#000000" transform="matrix(0.05 0 0 0.05 77.4274 31.9242)" style="font:normal normal normal 397.2px 'Arial'" >
O</text>
<text x="0" y="0" stroke="transparent" fill="#000000" transform="matrix(0.05 0 0 0.05 111.05 106.671)" style="font:normal normal normal 397.2px 'Arial'" >
O</text>
<text x="0" y="0" stroke="transparent" fill="#000000" transform="matrix(0.05 0 0 0.05 111.05 156.203)" style="font:normal normal normal 397.2px 'Arial'" >
O</text>
<path stroke="transparent" fill="#000000" transform="matrix(0.05 0 0 0.05 -329 -80)" d="M 8143.51,3069.82 L 8127.02,3090.5 L 7583.52,2966.56 L 7577.6,2952.99 L 7574.65,2940.1 L 8143.51,3069.82 Z " />
<path stroke="transparent" fill="#000000" transform="matrix(0.05 0 0 0.05 -329 -80)" d="M 8396.73,3595.5 L 8370.27,3595.5 L 8127.02,3090.5 L 8143.51,3069.82 L 8396.73,3595.5 Z " />
<path stroke="transparent" fill="#000000" transform="matrix(0.05 0 0 0.05 -329 -80)" d="M 8143.51,4121.18 L 8127.02,4100.5 L 8370.27,3595.5 L 8396.73,3595.5 L 8143.51,4121.18 Z " />
<path stroke="transparent" fill="#000000" transform="matrix(0.05 0 0 0.05 -329 -80)" d="M 7574.65,4251.1 L 7577.6,4238.2 L 7583.53,4224.62 L 8127.02,4100.5 L 8143.51,4121.18 L 7574.65,4251.1 Z " />
<path stroke="transparent" fill="#000000" transform="matrix(0.05 0 0 0.05 -329 -80)" d="M 7118.59,3887.22 L 7142.43,3875.75 L 7535.89,4189.68 L 7577.6,4238.2 L 7574.65,4251.1 L 7118.59,3887.22 Z " />
<path stroke="transparent" fill="#000000" transform="matrix(0.05 0 0 0.05 -329 -80)" d="M 7118.59,3303.78 L 7142.43,3315.26 L 7142.43,3875.75 L 7118.59,3887.22 L 7118.59,3303.78 L 7118.59,3303.78 Z " />
<path stroke="transparent" fill="#000000" transform="matrix(0.05 0 0 0.05 -329 -80)" d="M 7142.43,3315.26 L 7118.59,3303.78 L 7574.65,2940.1 L 7577.6,2952.99 L 7535.79,3001.57 L 7142.43,3315.26 Z " />
<path stroke="transparent" fill="#000000" transform="matrix(0.05 0 0 0.05 -329 -80)" d="M 7340.11,3388.16 L 7319.47,3376.24 L 7535.79,3001.57 L 7577.6,2952.99 L 7583.52,2966.56 L 7340.11,3388.16 Z " />
<path stroke="transparent" fill="#000000" transform="matrix(0.05 0 0 0.05 -329 -80)" d="M 7583.53,4224.62 L 7577.6,4238.2 L 7535.89,4189.68 L 7315.19,3806.64 L 7335.84,3794.74 L 7583.53,4224.62 Z " />
<path stroke="transparent" fill="#000000" transform="matrix(0.05 0 0 0.05 -329 -80)" d="M 8871.6,2626.18 L 8868.05,2649.75 L 8468.5,2589.53 L 8472.05,2565.97 L 8871.6,2626.18 Z " />
<path stroke="transparent" fill="#000000" transform="matrix(0.05 0 0 0.05 -329 -80)" d="M 8856.26,2727.97 L 8852.71,2751.53 L 8453.14,2691.31 L 8456.69,2667.75 L 8856.26,2727.97 Z " />
<path stroke="transparent" fill="#000000" transform="matrix(0.05 0 0 0.05 -329 -80)" d="M 8347.37,2297.17 L 8369.56,2288.47 L 8503.08,2628.72 L 8480.89,2637.42 L 8347.37,2297.17 Z " />
<path stroke="transparent" fill="#000000" transform="matrix(0.05 0 0 0.05 -329 -80)" d="M 8383.38,2673.66 L 8476.52,2747.98 L 8459.28,2764.71 L 8370.89,2694.19 L 8383.38,2673.66 Z " />
<path stroke="transparent" fill="#000000" transform="matrix(0.05 0 0 0.05 -329 -80)" d="M 8322.41,2773.92 L 8392.3,2829.69 L 8375.06,2846.42 L 8309.92,2794.45 L 8322.41,2773.92 Z " />
<path stroke="transparent" fill="#000000" transform="matrix(0.05 0 0 0.05 -329 -80)" d="M 8261.44,2874.19 L 8308.08,2911.4 L 8290.84,2928.13 L 8248.96,2894.71 L 8261.44,2874.19 Z " />
<path stroke="transparent" fill="#000000" transform="matrix(0.05 0 0 0.05 -329 -80)" d="M 8200.47,2974.45 L 8223.86,2993.11 L 8206.62,3009.84 L 8187.99,2994.97 L 8200.47,2974.45 Z " />
<path stroke="transparent" fill="#000000" transform="matrix(0.05 0 0 0.05 -329 -80)" d="M 6635,3606.84 L 6635,3583.01 L 7028.99,3583.01 L 7028.99,3606.84 L 6635,3606.84 Z " />
<path stroke="transparent" fill="#000000" transform="matrix(0.05 0 0 0.05 -329 -80)" d="M 9806.54,4078.91 L 9813.42,4090.82 L 9806.54,4102.74 L 9234.57,4102.74 L 9248.33,4078.91 L 9806.54,4078.91 Z " />
<path stroke="transparent" fill="#000000" transform="matrix(0.05 0 0 0.05 -329 -80)" d="M 10092.5,3583.58 L 10106.3,3607.42 L 9827.18,4090.82 L 9813.42,4090.82 L 9806.54,4078.91 L 10092.5,3583.58 Z " />
<path stroke="transparent" fill="#000000" transform="matrix(0.05 0 0 0.05 -329 -80)" d="M 10678.3,3583.58 L 10664.5,3607.42 L 10106.3,3607.42 L 10092.5,3583.58 L 10678.3,3583.58 Z " />
<path stroke="transparent" fill="#000000" transform="matrix(0.05 0 0 0.05 -329 -80)" d="M 10611.9,3686.54 L 10611.9,3710.37 L 10158.8,3710.37 L 10158.8,3686.54 L 10611.9,3686.54 Z " />
<path stroke="transparent" fill="#000000" transform="matrix(0.05 0 0 0.05 -329 -80)" d="M 10971.1,4090.82 L 10943.6,4090.82 L 10664.5,3607.42 L 10678.3,3583.58 L 10971.1,4090.82 Z " />
<path stroke="transparent" fill="#000000" transform="matrix(0.05 0 0 0.05 -329 -80)" d="M 10678.3,4598.06 L 10664.5,4574.23 L 10943.6,4090.82 L 10971.1,4090.82 L 10678.3,4598.06 Z " />
<path stroke="transparent" fill="#000000" transform="matrix(0.05 0 0 0.05 -329 -80)" d="M 10622.3,4489.15 L 10601.6,4477.24 L 10828.2,4084.87 L 10848.8,4096.78 L 10622.3,4489.15 Z " />
<path stroke="transparent" fill="#000000" transform="matrix(0.05 0 0 0.05 -329 -80)" d="M 10092.5,4598.06 L 10106.3,4574.23 L 10664.5,4574.23 L 10678.3,4598.06 L 10092.5,4598.06 Z " />
<path stroke="transparent" fill="#000000" transform="matrix(0.05 0 0 0.05 -329 -80)" d="M 10106.3,4574.23 L 10092.5,4598.06 L 9806.54,4102.74 L 9813.42,4090.82 L 9827.18,4090.82 L 10106.3,4574.23 Z " />
<path stroke="transparent" fill="#000000" transform="matrix(0.05 0 0 0.05 -329 -80)" d="M 10169.2,4477.24 L 10148.5,4489.15 L 9921.98,4096.78 L 9942.62,4084.87 L 10169.2,4477.24 Z " />
<path stroke="transparent" fill="#000000" transform="matrix(0.05 0 0 0.05 -329 -80)" d="M 9117.98,4431.46 L 9097.34,4419.54 L 9290.57,4084.87 L 9311.21,4096.78 L 9117.98,4431.46 Z " />
<path stroke="transparent" fill="#000000" transform="matrix(0.05 0 0 0.05 -329 -80)" d="M 9028.82,4379.98 L 9008.18,4368.07 L 9201.41,4033.39 L 9222.05,4045.31 L 9028.82,4379.98 Z " />
<path stroke="transparent" fill="#000000" transform="matrix(0.05 0 0 0.05 -329 -80)" d="M 9248.33,4078.91 L 9234.57,4102.74 L 9048.5,3780.47 L 9069.14,3768.55 L 9248.33,4078.91 Z " />
<path stroke="transparent" fill="#000000" transform="matrix(0.05 0 0 0.05 -329 -80)" d="M 8756.44,3535.92 L 8756.44,3655.08 L 8732.61,3650.93 L 8732.61,3540.08 L 8756.44,3535.92 Z " />
<path stroke="transparent" fill="#000000" transform="matrix(0.05 0 0 0.05 -329 -80)" d="M 8631.66,3557.68 L 8631.66,3633.33 L 8607.83,3629.17 L 8607.83,3561.83 L 8631.66,3557.68 Z " />
<path stroke="transparent" fill="#000000" transform="matrix(0.05 0 0 0.05 -329 -80)" d="M 8506.88,3579.43 L 8506.88,3611.57 L 8483.05,3607.42 L 8483.05,3583.58 L 8506.88,3579.43 Z " />
<path stroke="transparent" fill="#000000" transform="matrix(0.05 0 0 0.05 -329 -80)" d="M 8630.24,1646.05 L 8648.87,1660.91 L 8425.76,1940.69 L 8407.13,1925.83 L 8630.24,1646.05 Z " />
</svg>
