<?xml version="1.0" standalone="no" ?>
<!DOCTYPE svg PUBLIC "-//W3C//DTD SVG 1.1//EN" "http://www.w3.org/Graphics/SVG/1.1/DTD/svg11.dtd">
<svg width="656px" height="78px" viewBox="0 0 656 78" style="background-color: #ffffff00" xmlns="http://www.w3.org/2000/svg" xmlns:xlink="http://www.w3.org/1999/xlink" version="1.1" >
<text x="0" y="0" stroke="transparent" fill="#000000" transform="matrix(0.0666667 0 0 0.0666667 597.973 14.7389)" style="font:normal normal normal 200px 'Arial'" >
O</text>
<text x="0" y="0" stroke="transparent" fill="#000000" transform="matrix(0.0666667 0 0 0.0666667 632.614 74.7389)" style="font:normal normal normal 200px 'Arial'" >
OH</text>
<path stroke="transparent" fill="#000000" transform="matrix(0.0666667 0 0 0.0666667 -25.0667 -22.3333)" d="M 8903.97,1389.63 L 8903.97,1366.54 L 9423.59,1066.54 L 9423.59,1089.63 L 8903.97,1389.63 Z " />
<path stroke="transparent" fill="#000000" transform="matrix(0.0666667 0 0 0.0666667 -25.0667 -22.3333)" d="M 8384.36,1089.63 L 8384.36,1066.54 L 8903.97,1366.54 L 8903.97,1389.63 L 8384.36,1089.63 Z " />
<path stroke="transparent" fill="#000000" transform="matrix(0.0666667 0 0 0.0666667 -25.0667 -22.3333)" d="M 7864.74,1389.63 L 7864.74,1366.54 L 8384.36,1066.54 L 8384.36,1089.63 L 7864.74,1389.63 Z " />
<path stroke="transparent" fill="#000000" transform="matrix(0.0666667 0 0 0.0666667 -25.0667 -22.3333)" d="M 7345.13,1089.63 L 7345.13,1066.54 L 7864.74,1366.54 L 7864.74,1389.63 L 7345.13,1089.63 Z " />
<path stroke="transparent" fill="#000000" transform="matrix(0.0666667 0 0 0.0666667 -25.0667 -22.3333)" d="M 6825.51,1389.63 L 6825.51,1366.54 L 7345.13,1066.54 L 7345.13,1089.63 L 6825.51,1389.63 Z " />
<path stroke="transparent" fill="#000000" transform="matrix(0.0666667 0 0 0.0666667 -25.0667 -22.3333)" d="M 6305.9,1089.63 L 6305.9,1066.54 L 6825.51,1366.54 L 6825.51,1389.63 L 6305.9,1089.63 Z " />
<path stroke="transparent" fill="#000000" transform="matrix(0.0666667 0 0 0.0666667 -25.0667 -22.3333)" d="M 5786.28,1389.63 L 5786.28,1366.54 L 6305.9,1066.54 L 6305.9,1089.63 L 5786.28,1389.63 Z " />
<path stroke="transparent" fill="#000000" transform="matrix(0.0666667 0 0 0.0666667 -25.0667 -22.3333)" d="M 5263.99,1088.08 L 5269.35,1068.08 L 5786.28,1366.54 L 5786.28,1389.63 L 5263.99,1088.08 Z " />
<path stroke="transparent" fill="#000000" transform="matrix(0.0666667 0 0 0.0666667 -25.0667 -22.3333)" d="M 4669.35,1088.08 L 4663.99,1068.08 L 5269.35,1068.08 L 5263.99,1088.08 L 4669.35,1088.08 Z " />
<path stroke="transparent" fill="#000000" transform="matrix(0.0666667 0 0 0.0666667 -25.0667 -22.3333)" d="M 4685.96,1160.08 L 4685.96,1140.08 L 5247.38,1140.08 L 5247.38,1160.08 L 4685.96,1160.08 Z " />
<path stroke="transparent" fill="#000000" transform="matrix(0.0666667 0 0 0.0666667 -25.0667 -22.3333)" d="M 4147.05,1389.63 L 4147.05,1366.54 L 4663.99,1068.08 L 4669.35,1088.08 L 4147.05,1389.63 Z " />
<path stroke="transparent" fill="#000000" transform="matrix(0.0666667 0 0 0.0666667 -25.0667 -22.3333)" d="M 3624.76,1088.08 L 3630.12,1068.08 L 4147.05,1366.54 L 4147.05,1389.63 L 3624.76,1088.08 Z " />
<path stroke="transparent" fill="#000000" transform="matrix(0.0666667 0 0 0.0666667 -25.0667 -22.3333)" d="M 3030.12,1088.08 L 3024.76,1068.08 L 3630.12,1068.08 L 3624.76,1088.08 L 3030.12,1088.08 Z " />
<path stroke="transparent" fill="#000000" transform="matrix(0.0666667 0 0 0.0666667 -25.0667 -22.3333)" d="M 3046.73,1160.08 L 3046.73,1140.08 L 3608.15,1140.08 L 3608.15,1160.08 L 3046.73,1160.08 Z " />
<path stroke="transparent" fill="#000000" transform="matrix(0.0666667 0 0 0.0666667 -25.0667 -22.3333)" d="M 2507.82,1389.63 L 2507.82,1366.54 L 3024.76,1068.08 L 3030.12,1088.08 L 2507.82,1389.63 Z " />
<path stroke="transparent" fill="#000000" transform="matrix(0.0666667 0 0 0.0666667 -25.0667 -22.3333)" d="M 1988.21,1089.63 L 1988.21,1066.54 L 2507.82,1366.54 L 2507.82,1389.63 L 1988.21,1089.63 Z " />
<path stroke="transparent" fill="#000000" transform="matrix(0.0666667 0 0 0.0666667 -25.0667 -22.3333)" d="M 1468.59,1389.63 L 1468.59,1366.54 L 1988.21,1066.54 L 1988.21,1089.63 L 1468.59,1389.63 Z " />
<path stroke="transparent" fill="#000000" transform="matrix(0.0666667 0 0 0.0666667 -25.0667 -22.3333)" d="M 948.977,1089.63 L 948.977,1066.54 L 1468.59,1366.54 L 1468.59,1389.63 L 948.977,1089.63 Z " />
<path stroke="transparent" fill="#000000" transform="matrix(0.0666667 0 0 0.0666667 -25.0667 -22.3333)" d="M 434.361,1386.74 L 424.361,1369.42 L 948.977,1066.54 L 948.977,1089.63 L 434.361,1386.74 Z " />
<path stroke="transparent" fill="#000000" transform="matrix(0.0666667 0 0 0.0666667 -25.0667 -22.3333)" d="M 9377.59,597.917 L 9397.59,597.917 L 9397.59,1098.87 L 9377.59,1098.87 L 9377.59,597.917 Z " />
<path stroke="transparent" fill="#000000" transform="matrix(0.0666667 0 0 0.0666667 -25.0667 -22.3333)" d="M 9449.59,597.917 L 9469.59,597.917 L 9469.59,1098.87 L 9449.59,1098.87 L 9449.59,597.917 Z " />
<path stroke="transparent" fill="#000000" transform="matrix(0.0666667 0 0 0.0666667 -25.0667 -22.3333)" d="M 9855.59,1315.95 L 9845.59,1333.27 L 9423.59,1089.63 L 9423.59,1066.54 L 9855.59,1315.95 Z " />
</svg>
