<?xml version="1.0" standalone="no" ?>
<!DOCTYPE svg PUBLIC "-//W3C//DTD SVG 1.1//EN" "http://www.w3.org/Graphics/SVG/1.1/DTD/svg11.dtd">
<svg width="656px" height="80px" viewBox="0 0 656 80" style="background-color: #ffffff00" xmlns="http://www.w3.org/2000/svg" xmlns:xlink="http://www.w3.org/1999/xlink" version="1.1" >
<text x="0" y="0" stroke="transparent" fill="#000000" transform="matrix(0.0666667 0 0 0.0666667 592.698 14.3389)" style="font:normal normal normal 200px 'Arial'" >
O</text>
<text x="0" y="0" stroke="transparent" fill="#000000" transform="matrix(0.0666667 0 0 0.0666667 627.739 74.3389)" style="font:normal normal normal 200px 'Arial'" >
NH</text>
<text x="0" y="0" stroke="transparent" fill="#000000" transform="matrix(0.0666667 0 0 0.0666667 646.997 77.2722)" style="font:normal normal normal 150px 'Arial'" >
2</text>
<path stroke="transparent" fill="#000000" transform="matrix(0.0666667 0 0 0.0666667 -22.0667 -7.33333)" d="M 8779.85,1158.63 L 8779.85,1135.54 L 9299.47,835.536 L 9299.47,858.63 L 8779.85,1158.63 Z " />
<path stroke="transparent" fill="#000000" transform="matrix(0.0666667 0 0 0.0666667 -22.0667 -7.33333)" d="M 8260.24,858.63 L 8260.24,835.536 L 8779.85,1135.54 L 8779.85,1158.63 L 8260.24,858.63 Z " />
<path stroke="transparent" fill="#000000" transform="matrix(0.0666667 0 0 0.0666667 -22.0667 -7.33333)" d="M 7740.62,1158.63 L 7740.62,1135.54 L 8260.24,835.536 L 8260.24,858.63 L 7740.62,1158.63 Z " />
<path stroke="transparent" fill="#000000" transform="matrix(0.0666667 0 0 0.0666667 -22.0667 -7.33333)" d="M 7221.01,858.63 L 7221.01,835.536 L 7740.62,1135.54 L 7740.62,1158.63 L 7221.01,858.63 Z " />
<path stroke="transparent" fill="#000000" transform="matrix(0.0666667 0 0 0.0666667 -22.0667 -7.33333)" d="M 6701.39,1158.63 L 6701.39,1135.54 L 7221.01,835.536 L 7221.01,858.63 L 6701.39,1158.63 Z " />
<path stroke="transparent" fill="#000000" transform="matrix(0.0666667 0 0 0.0666667 -22.0667 -7.33333)" d="M 6181.78,858.63 L 6181.78,835.536 L 6701.39,1135.54 L 6701.39,1158.63 L 6181.78,858.63 Z " />
<path stroke="transparent" fill="#000000" transform="matrix(0.0666667 0 0 0.0666667 -22.0667 -7.33333)" d="M 5662.16,1158.63 L 5662.16,1135.54 L 6181.78,835.536 L 6181.78,858.63 L 5662.16,1158.63 Z " />
<path stroke="transparent" fill="#000000" transform="matrix(0.0666667 0 0 0.0666667 -22.0667 -7.33333)" d="M 5139.87,857.083 L 5145.23,837.083 L 5662.16,1135.54 L 5662.16,1158.63 L 5139.87,857.083 Z " />
<path stroke="transparent" fill="#000000" transform="matrix(0.0666667 0 0 0.0666667 -22.0667 -7.33333)" d="M 4545.23,857.083 L 4539.87,837.083 L 5145.23,837.083 L 5139.87,857.083 L 4545.23,857.083 Z " />
<path stroke="transparent" fill="#000000" transform="matrix(0.0666667 0 0 0.0666667 -22.0667 -7.33333)" d="M 4561.84,929.083 L 4561.84,909.083 L 5123.26,909.083 L 5123.26,929.083 L 4561.84,929.083 Z " />
<path stroke="transparent" fill="#000000" transform="matrix(0.0666667 0 0 0.0666667 -22.0667 -7.33333)" d="M 4022.93,1158.63 L 4022.93,1135.54 L 4539.87,837.083 L 4545.23,857.083 L 4022.93,1158.63 Z " />
<path stroke="transparent" fill="#000000" transform="matrix(0.0666667 0 0 0.0666667 -22.0667 -7.33333)" d="M 3503.32,858.63 L 3503.32,835.536 L 4022.93,1135.54 L 4022.93,1158.63 L 3503.32,858.63 Z " />
<path stroke="transparent" fill="#000000" transform="matrix(0.0666667 0 0 0.0666667 -22.0667 -7.33333)" d="M 2983.7,1158.63 L 2983.7,1135.54 L 3503.32,835.536 L 3503.32,858.63 L 2983.7,1158.63 Z " />
<path stroke="transparent" fill="#000000" transform="matrix(0.0666667 0 0 0.0666667 -22.0667 -7.33333)" d="M 2464.09,858.63 L 2464.09,835.536 L 2983.7,1135.54 L 2983.7,1158.63 L 2464.09,858.63 Z " />
<path stroke="transparent" fill="#000000" transform="matrix(0.0666667 0 0 0.0666667 -22.0667 -7.33333)" d="M 1944.47,1158.63 L 1944.47,1135.54 L 2464.09,835.536 L 2464.09,858.63 L 1944.47,1158.63 Z " />
<path stroke="transparent" fill="#000000" transform="matrix(0.0666667 0 0 0.0666667 -22.0667 -7.33333)" d="M 1424.86,858.63 L 1424.86,835.536 L 1944.47,1135.54 L 1944.47,1158.63 L 1424.86,858.63 Z " />
<path stroke="transparent" fill="#000000" transform="matrix(0.0666667 0 0 0.0666667 -22.0667 -7.33333)" d="M 905.241,1158.63 L 905.241,1135.54 L 1424.86,835.536 L 1424.86,858.63 L 905.241,1158.63 Z " />
<path stroke="transparent" fill="#000000" transform="matrix(0.0666667 0 0 0.0666667 -22.0667 -7.33333)" d="M 380.625,855.744 L 390.625,838.423 L 905.241,1135.54 L 905.241,1158.63 L 380.625,855.744 Z " />
<path stroke="transparent" fill="#000000" transform="matrix(0.0666667 0 0 0.0666667 -22.0667 -7.33333)" d="M 9253.47,366.917 L 9273.47,366.917 L 9273.47,867.868 L 9253.47,867.868 L 9253.47,366.917 Z " />
<path stroke="transparent" fill="#000000" transform="matrix(0.0666667 0 0 0.0666667 -22.0667 -7.33333)" d="M 9325.47,366.917 L 9345.47,366.917 L 9345.47,867.868 L 9325.47,867.868 L 9325.47,366.917 Z " />
<path stroke="transparent" fill="#000000" transform="matrix(0.0666667 0 0 0.0666667 -22.0667 -7.33333)" d="M 9720.24,1078.47 L 9710.24,1095.79 L 9299.47,858.63 L 9299.47,835.536 L 9720.24,1078.47 Z " />
</svg>
