<?xml version="1.0" standalone="no" ?>
<!DOCTYPE svg PUBLIC "-//W3C//DTD SVG 1.1//EN" "http://www.w3.org/Graphics/SVG/1.1/DTD/svg11.dtd">
<svg width="264px" height="252px" viewBox="0 0 264 252" style="background-color: #ffffff00" xmlns="http://www.w3.org/2000/svg" xmlns:xlink="http://www.w3.org/1999/xlink" version="1.1" >
<text x="0" y="0" stroke="transparent" fill="#000000" transform="matrix(0.0666667 0 0 0.0666667 82.4196 208.7)" style="font:normal normal normal 200px 'Arial'" >
H</text>
<text x="0" y="0" stroke="transparent" fill="#000000" transform="matrix(0.0666667 0 0 0.0666667 117.061 148.7)" style="font:normal normal normal 200px 'Arial'" >
H</text>
<text x="0" y="0" stroke="transparent" fill="#000000" transform="matrix(0.0666667 0 0 0.0666667 82.0196 248.7)" style="font:normal normal normal 200px 'Arial'" >
O</text>
<text x="0" y="0" stroke="transparent" fill="#000000" transform="matrix(0.0666667 0 0 0.0666667 3.10866 248.7)" style="font:normal normal normal 200px 'Arial'" >
HO</text>
<path stroke="transparent" fill="#000000" transform="matrix(0.0666667 0 0 0.0666667 -38.0667 -7.33333)" d="M 1349.68,2881.57 L 1359.68,2862.5 L 1369.68,2868.27 L 1369.68,3468.27 L 1349.68,3456.73 L 1349.68,2881.57 Z " />
<path stroke="transparent" fill="#000000" transform="matrix(0.0666667 0 0 0.0666667 -38.0667 -7.33333)" d="M 870.063,3214.46 L 810.063,3110.54 L 1338.16,2861.62 L 1359.68,2862.5 L 1349.68,2881.57 L 870.063,3214.46 Z " />
<path stroke="transparent" fill="#000000" transform="matrix(0.0666667 0 0 0.0666667 -38.0667 -7.33333)" d="M 1869.29,2556.73 L 1879.29,2562.5 L 1879.29,2574.05 L 1369.68,2868.27 L 1359.68,2862.5 L 1359.68,2850.95 L 1869.29,2556.73 Z " />
<path stroke="transparent" fill="#000000" transform="matrix(0.0666667 0 0 0.0666667 -38.0667 -7.33333)" d="M 1939.29,3059.67 L 1819.29,3059.67 L 1821.55,3039.67 L 1937.04,3039.67 L 1939.29,3059.67 Z " />
<path stroke="transparent" fill="#000000" transform="matrix(0.0666667 0 0 0.0666667 -38.0667 -7.33333)" d="M 1932.47,2999.22 L 1826.11,2999.22 L 1828.37,2979.22 L 1930.22,2979.22 L 1932.47,2999.22 Z " />
<path stroke="transparent" fill="#000000" transform="matrix(0.0666667 0 0 0.0666667 -38.0667 -7.33333)" d="M 1925.65,2938.77 L 1832.93,2938.77 L 1835.19,2918.77 L 1923.4,2918.77 L 1925.65,2938.77 Z " />
<path stroke="transparent" fill="#000000" transform="matrix(0.0666667 0 0 0.0666667 -38.0667 -7.33333)" d="M 1918.83,2878.32 L 1839.76,2878.32 L 1842.01,2858.32 L 1916.58,2858.32 L 1918.83,2878.32 Z " />
<path stroke="transparent" fill="#000000" transform="matrix(0.0666667 0 0 0.0666667 -38.0667 -7.33333)" d="M 1912.01,2817.87 L 1846.58,2817.87 L 1848.83,2797.87 L 1909.76,2797.87 L 1912.01,2817.87 Z " />
<path stroke="transparent" fill="#000000" transform="matrix(0.0666667 0 0 0.0666667 -38.0667 -7.33333)" d="M 1905.19,2757.42 L 1853.4,2757.42 L 1855.65,2737.42 L 1902.93,2737.42 L 1905.19,2757.42 Z " />
<path stroke="transparent" fill="#000000" transform="matrix(0.0666667 0 0 0.0666667 -38.0667 -7.33333)" d="M 1898.37,2696.97 L 1860.22,2696.97 L 1862.47,2676.97 L 1896.11,2676.97 L 1898.37,2696.97 Z " />
<path stroke="transparent" fill="#000000" transform="matrix(0.0666667 0 0 0.0666667 -38.0667 -7.33333)" d="M 1891.55,2636.52 L 1867.04,2636.52 L 1869.29,2616.52 L 1889.29,2616.52 L 1891.55,2636.52 Z " />
<path stroke="transparent" fill="#000000" transform="matrix(0.0666667 0 0 0.0666667 -38.0667 -7.33333)" d="M 1869.29,1968.27 L 1879.29,1962.5 L 1889.29,1968.27 L 1889.29,2556.73 L 1879.29,2562.5 L 1869.29,2556.73 L 1869.29,1968.27 Z " />
<path stroke="transparent" fill="#000000" transform="matrix(0.0666667 0 0 0.0666667 -38.0667 -7.33333)" d="M 2388.91,1656.73 L 2398.91,1662.5 L 2398.91,1674.05 L 1889.29,1968.27 L 1879.29,1962.5 L 1890.81,1944.3 L 2388.91,1656.73 Z " />
<path stroke="transparent" fill="#000000" transform="matrix(0.0666667 0 0 0.0666667 -38.0667 -7.33333)" d="M 2388.91,1056.73 L 2408.91,1068.27 L 2408.91,1656.73 L 2398.91,1662.5 L 2388.91,1656.73 L 2388.91,1056.73 Z " />
<path stroke="transparent" fill="#000000" transform="matrix(0.0666667 0 0 0.0666667 -38.0667 -7.33333)" d="M 2918.52,750.953 L 2918.52,774.047 L 2408.91,1068.27 L 2388.91,1056.73 L 2918.52,750.953 Z " />
<path stroke="transparent" fill="#000000" transform="matrix(0.0666667 0 0 0.0666667 -38.0667 -7.33333)" d="M 3438.14,1050.95 L 3438.14,1062.5 L 3428.14,1068.27 L 2918.52,774.047 L 2918.52,750.953 L 3438.14,1050.95 Z " />
<path stroke="transparent" fill="#000000" transform="matrix(0.0666667 0 0 0.0666667 -38.0667 -7.33333)" d="M 3947.75,756.726 L 3957.75,762.5 L 3957.75,774.047 L 3448.14,1068.27 L 3438.14,1062.5 L 3438.14,1050.95 L 3947.75,756.726 Z " />
<path stroke="transparent" fill="#000000" transform="matrix(0.0666667 0 0 0.0666667 -38.0667 -7.33333)" d="M 3947.75,162.5 L 3967.75,162.5 L 3967.75,756.726 L 3957.75,762.5 L 3947.75,756.726 L 3947.75,162.5 Z " />
<path stroke="transparent" fill="#000000" transform="matrix(0.0666667 0 0 0.0666667 -38.0667 -7.33333)" d="M 4482.37,1053.84 L 4472.37,1071.16 L 3957.75,774.047 L 3957.75,762.5 L 3967.75,756.726 L 4482.37,1053.84 Z " />
<path stroke="transparent" fill="#000000" transform="matrix(0.0666667 0 0 0.0666667 -38.0667 -7.33333)" d="M 3448.14,1668.27 L 3428.14,1656.73 L 3428.14,1068.27 L 3438.14,1062.5 L 3448.14,1068.27 L 3448.14,1668.27 Z " />
<path stroke="transparent" fill="#000000" transform="matrix(0.0666667 0 0 0.0666667 -38.0667 -7.33333)" d="M 3376.14,1620.93 L 3356.14,1620.93 L 3356.14,1104.07 L 3376.14,1104.07 L 3376.14,1620.93 Z " />
<path stroke="transparent" fill="#000000" transform="matrix(0.0666667 0 0 0.0666667 -38.0667 -7.33333)" d="M 2458.91,2159.67 L 2338.91,2159.67 L 2341.17,2139.67 L 2456.65,2139.67 L 2458.91,2159.67 Z " />
<path stroke="transparent" fill="#000000" transform="matrix(0.0666667 0 0 0.0666667 -38.0667 -7.33333)" d="M 2452.09,2099.22 L 2345.73,2099.22 L 2347.99,2079.22 L 2449.83,2079.22 L 2452.09,2099.22 Z " />
<path stroke="transparent" fill="#000000" transform="matrix(0.0666667 0 0 0.0666667 -38.0667 -7.33333)" d="M 2445.27,2038.77 L 2352.55,2038.77 L 2354.81,2018.77 L 2443.01,2018.77 L 2445.27,2038.77 Z " />
<path stroke="transparent" fill="#000000" transform="matrix(0.0666667 0 0 0.0666667 -38.0667 -7.33333)" d="M 2438.45,1978.32 L 2359.37,1978.32 L 2361.63,1958.32 L 2436.19,1958.32 L 2438.45,1978.32 Z " />
<path stroke="transparent" fill="#000000" transform="matrix(0.0666667 0 0 0.0666667 -38.0667 -7.33333)" d="M 2431.63,1917.87 L 2366.19,1917.87 L 2368.45,1897.87 L 2429.37,1897.87 L 2431.63,1917.87 Z " />
<path stroke="transparent" fill="#000000" transform="matrix(0.0666667 0 0 0.0666667 -38.0667 -7.33333)" d="M 2424.81,1857.42 L 2373.01,1857.42 L 2375.27,1837.42 L 2422.55,1837.42 L 2424.81,1857.42 Z " />
<path stroke="transparent" fill="#000000" transform="matrix(0.0666667 0 0 0.0666667 -38.0667 -7.33333)" d="M 2417.99,1796.97 L 2379.83,1796.97 L 2382.09,1776.97 L 2415.73,1776.97 L 2417.99,1796.97 Z " />
<path stroke="transparent" fill="#000000" transform="matrix(0.0666667 0 0 0.0666667 -38.0667 -7.33333)" d="M 2411.17,1736.52 L 2386.65,1736.52 L 2388.91,1716.52 L 2408.91,1716.52 L 2411.17,1736.52 Z " />
<path stroke="transparent" fill="#000000" transform="matrix(0.0666667 0 0 0.0666667 -38.0667 -7.33333)" d="M 2918.52,1950.95 L 2918.52,1962.5 L 2908.52,1968.27 L 2398.91,1674.05 L 2398.91,1662.5 L 2408.91,1656.73 L 2918.52,1950.95 Z " />
<path stroke="transparent" fill="#000000" transform="matrix(0.0666667 0 0 0.0666667 -38.0667 -7.33333)" d="M 2928.52,1968.27 L 2918.52,1962.5 L 2918.52,1950.95 L 3428.14,1656.73 L 3448.14,1668.27 L 2928.52,1968.27 Z " />
<path stroke="transparent" fill="#000000" transform="matrix(0.0666667 0 0 0.0666667 -38.0667 -7.33333)" d="M 2928.52,2568.27 L 2908.52,2556.73 L 2908.52,1968.27 L 2918.52,1962.5 L 2928.52,1968.27 L 2928.52,2568.27 Z " />
<path stroke="transparent" fill="#000000" transform="matrix(0.0666667 0 0 0.0666667 -38.0667 -7.33333)" d="M 2856.52,2520.93 L 2836.52,2520.93 L 2836.52,2004.07 L 2856.52,2004.07 L 2856.52,2520.93 Z " />
<path stroke="transparent" fill="#000000" transform="matrix(0.0666667 0 0 0.0666667 -38.0667 -7.33333)" d="M 2398.91,2874.05 L 2398.91,2850.95 L 2908.52,2556.73 L 2928.52,2568.27 L 2398.91,2874.05 Z " />
<path stroke="transparent" fill="#000000" transform="matrix(0.0666667 0 0 0.0666667 -38.0667 -7.33333)" d="M 2398.91,2850.95 L 2398.91,2874.05 L 1879.29,2574.05 L 1879.29,2562.5 L 1889.29,2556.73 L 2398.91,2850.95 Z " />
<path stroke="transparent" fill="#000000" transform="matrix(0.0666667 0 0 0.0666667 -38.0667 -7.33333)" d="M 1359.68,1674.05 L 1359.68,1650.95 L 1867.78,1944.3 L 1879.29,1962.5 L 1869.29,1968.27 L 1359.68,1674.05 Z " />
<path stroke="transparent" fill="#000000" transform="matrix(0.0666667 0 0 0.0666667 -38.0667 -7.33333)" d="M 850.063,1968.27 L 830.063,1956.73 L 1359.68,1650.95 L 1359.68,1674.05 L 850.063,1968.27 Z " />
<path stroke="transparent" fill="#000000" transform="matrix(0.0666667 0 0 0.0666667 -38.0667 -7.33333)" d="M 850.063,2556.73 L 830.063,2568.27 L 830.063,1956.73 L 850.063,1968.27 L 850.063,2556.73 Z " />
<path stroke="transparent" fill="#000000" transform="matrix(0.0666667 0 0 0.0666667 -38.0667 -7.33333)" d="M 830.063,2568.27 L 850.063,2556.73 L 1359.68,2850.95 L 1359.68,2862.5 L 1338.16,2861.62 L 830.063,2568.27 Z " />
<path stroke="transparent" fill="#000000" transform="matrix(0.0666667 0 0 0.0666667 -38.0667 -7.33333)" d="M 1819.29,1362.5 L 1939.29,1362.5 L 1890.81,1944.3 L 1879.29,1962.5 L 1867.78,1944.3 L 1819.29,1362.5 Z " />
<path stroke="transparent" fill="#000000" transform="matrix(0.0666667 0 0 0.0666667 -38.0667 -7.33333)" d="M 1809.68,3669.19 L 1799.68,3686.51 L 1354.68,3429.59 L 1364.68,3412.27 L 1809.68,3669.19 Z " />
<path stroke="transparent" fill="#000000" transform="matrix(0.0666667 0 0 0.0666667 -38.0667 -7.33333)" d="M 1773.68,3731.54 L 1763.68,3748.86 L 1318.68,3491.94 L 1328.68,3474.62 L 1773.68,3731.54 Z " />
<path stroke="transparent" fill="#000000" transform="matrix(0.0666667 0 0 0.0666667 -38.0667 -7.33333)" d="M 937.674,3717.69 L 927.674,3700.37 L 1349.68,3456.73 L 1369.68,3468.27 L 937.674,3717.69 Z " />
</svg>
