<?xml version="1.0" encoding="iso-8859-1"?><svg xmlns="http://www.w3.org/2000/svg" xmlns:rdkit="http://www.rdkit.org/xml" xmlns:xlink="http://www.w3.org/1999/xlink" version="1.1" baseProfile="full" xml:space="preserve" width="154.38px" height="129.24px" viewBox="0 0 5146 4308">
<!-- END OF HEADER -->
<rect style="opacity:1.0;fill:#00000000;stroke:none" width="5146.0" height="4308.0" x="0.0" y="0.0"> </rect>
<path class="bond-0 atom-0 atom-1" d="M 352.4,3627.1 L 2066.8,2637.5" style="fill:none;fill-rule:evenodd;stroke:#000000;stroke-width:90.0px;stroke-linecap:butt;stroke-linejoin:miter;stroke-opacity:1"/>
<path class="bond-1 atom-1 atom-2" d="M 2215.3,2723.2 L 2215.3,1949.6" style="fill:none;fill-rule:evenodd;stroke:#000000;stroke-width:90.0px;stroke-linecap:butt;stroke-linejoin:miter;stroke-opacity:1"/>
<path class="bond-1 atom-1 atom-2" d="M 2215.3,1949.6 L 2215.3,1176.0" style="fill: none; fill-rule: evenodd; stroke: rgb(0, 0, 0); stroke-width: 90px; stroke-linecap: butt; stroke-linejoin: miter; stroke-opacity: 1;"/>
<path class="bond-1 atom-1 atom-2" d="M 1918.3,2723.2 L 1918.4,1949.6" style="fill:none;fill-rule:evenodd;stroke:#000000;stroke-width:90.0px;stroke-linecap:butt;stroke-linejoin:miter;stroke-opacity:1"/>
<path class="bond-1 atom-1 atom-2" d="M 1918.4,1949.6 L 1918.4,1176.0" style="fill: none; fill-rule: evenodd; stroke: rgb(0, 0, 0); stroke-width: 90px; stroke-linecap: butt; stroke-linejoin: miter; stroke-opacity: 1;"/>
<path class="bond-2 atom-1 atom-3" d="M 2066.8,2637.5 L 2685.6,2994.7" style="fill:none;fill-rule:evenodd;stroke:#000000;stroke-width:90.0px;stroke-linecap:butt;stroke-linejoin:miter;stroke-opacity:1"/>
<path class="bond-2 atom-1 atom-3" d="M 2685.6,2994.7 L 3304.5,3351.9" style="fill: none; fill-rule: evenodd; stroke: rgb(0, 0, 0); stroke-width: 90px; stroke-linecap: butt; stroke-linejoin: miter; stroke-opacity: 1;"/>
<path d="M 1981.1,2686.9 L 2066.8,2637.5 L 2097.8,2655.3" style="fill:none;stroke:#000000;stroke-width:90.0px;stroke-linecap:butt;stroke-linejoin:miter;stroke-opacity:1;"/>
<path class="atom-2" d="M 2065.9 287.2 Q 2201.6 287.2, 2292.9 364.3 Q 2357.4 419.0, 2389.1 503.0 Q 2418.9 582.1, 2418.9 674.9 Q 2418.9 799.4, 2358.8 896.5 Q 2304.1 985.4, 2209.9 1024.5 Q 2145.0 1051.3, 2066.8 1051.3 Q 1931.1 1051.3, 1840.3 974.2 Q 1776.8 919.5, 1744.6 836.0 Q 1714.8 756.9, 1714.8 669.0 Q 1714.8 539.1, 1774.8 441.9 Q 1830.0 352.1, 1923.8 313.5 Q 1988.7 287.2, 2065.9 287.2 M 2065.9 369.2 Q 1958.0 369.2, 1887.6 441.0 Q 1849.6 480.0, 1829.5 537.2 Q 1807.6 600.1, 1807.6 669.5 Q 1807.6 768.1, 1847.6 842.8 Q 1885.2 911.7, 1954.5 944.9 Q 2006.3 969.3, 2066.3 969.3 Q 2175.7 969.3, 2245.5 897.5 Q 2283.6 858.4, 2303.7 801.3 Q 2325.6 738.8, 2325.6 673.4 Q 2325.6 523.5, 2245.5 441.0 Q 2176.2 369.2, 2065.9 369.2 " fill="#000"/>
<path class="atom-3" d="M 3780.2 3256.5 Q 3916.0 3256.5, 4007.3 3333.6 Q 4071.7 3388.3, 4103.5 3472.3 Q 4133.3 3551.4, 4133.3 3644.2 Q 4133.3 3768.7, 4073.2 3865.9 Q 4018.5 3954.7, 3924.3 3993.8 Q 3859.3 4020.6, 3781.2 4020.6 Q 3645.5 4020.6, 3554.7 3943.5 Q 3491.2 3888.8, 3459.0 3805.3 Q 3429.2 3726.2, 3429.2 3638.3 Q 3429.2 3508.4, 3489.2 3411.3 Q 3544.4 3321.4, 3638.2 3282.8 Q 3703.1 3256.5, 3780.2 3256.5 M 3780.2 3338.5 Q 3672.3 3338.5, 3602.0 3410.3 Q 3563.9 3449.4, 3543.9 3506.5 Q 3521.9 3569.5, 3521.9 3638.8 Q 3521.9 3737.4, 3562.0 3812.1 Q 3599.6 3881.0, 3668.9 3914.2 Q 3720.7 3938.6, 3780.7 3938.6 Q 3890.1 3938.6, 3959.9 3866.8 Q 3998.0 3827.8, 4018.0 3770.6 Q 4040.0 3708.1, 4040.0 3642.7 Q 4040.0 3492.8, 3959.9 3410.3 Q 3890.6 3338.5, 3780.2 3338.5 " fill="#000"/>
<path class="atom-3" d="M 4700.4 3665.7 L 4324.9 3665.7 L 4324.9 3997.7 L 4232.2 3997.7 L 4232.2 3268.7 L 4324.9 3268.7 L 4324.9 3583.6 L 4700.4 3583.6 L 4700.4 3268.7 L 4793.2 3268.7 L 4793.2 3997.7 L 4700.4 3997.7 L 4700.4 3665.7 " fill="#000"/>
</svg>