<?xml version="1.0" standalone="no" ?>
<!DOCTYPE svg PUBLIC "-//W3C//DTD SVG 1.1//EN" "http://www.w3.org/Graphics/SVG/1.1/DTD/svg11.dtd">
<svg width="150px" height="152px" viewBox="0 0 150 152" style="background-color: #ffffffff" xmlns="http://www.w3.org/2000/svg" xmlns:xlink="http://www.w3.org/1999/xlink" version="1.1" >
<text x="0" y="0" stroke="transparent" fill="#000000" transform="matrix(0.05 0 0 0.05 2.81354 87.5379)" style="font:normal normal normal 568px 'Arial'" >
N</text>
<text x="0" y="0" stroke="transparent" fill="#000000" transform="matrix(0.05 0 0 0.05 38.2302 148.883)" style="font:normal normal normal 568px 'Arial'" >
N</text>
<text x="0" y="0" stroke="transparent" fill="#000000" transform="matrix(0.05 0 0 0.05 38.2302 26.1926)" style="font:normal normal normal 568px 'Arial'" >
NH</text>
<text x="0" y="0" stroke="transparent" fill="#000000" transform="matrix(0.05 0 0 0.05 79.2494 30.7682)" style="font:normal normal normal 426px 'Arial'" >
2</text>
<text x="0" y="0" stroke="transparent" fill="#000000" transform="matrix(0.05 0 0 0.05 112.553 141.072)" style="font:normal normal normal 568px 'Arial'" >
N</text>
<text x="0" y="0" stroke="transparent" fill="#000000" transform="matrix(0.05 0 0 0.05 112.553 50.5591)" style="font:normal normal normal 568px 'Arial'" >
H</text>
<text x="0" y="0" stroke="transparent" fill="#000000" transform="matrix(0.05 0 0 0.05 112.553 74.9008)" style="font:normal normal normal 568px 'Arial'" >
N</text>
<path stroke="transparent" fill="#000000" transform="matrix(0.05 0 0 0.05 -356 -98)" d="M 7398.41,4321.64 L 7364.33,4341.31 L 7364.33,3800.8 L 7398.41,3800.8 L 7398.41,4321.64 Z " />
<path stroke="transparent" fill="#000000" transform="matrix(0.05 0 0 0.05 -356 -98)" d="M 7545.63,4246.47 L 7511.56,4246.47 L 7511.56,3800.8 L 7545.63,3800.8 L 7545.63,4246.47 Z " />
<path stroke="transparent" fill="#000000" transform="matrix(0.05 0 0 0.05 -356 -98)" d="M 7807.18,4557.65 L 7790.14,4587.16 L 7364.33,4341.31 L 7398.41,4321.64 L 7807.18,4557.65 Z " />
<path stroke="transparent" fill="#000000" transform="matrix(0.05 0 0 0.05 -356 -98)" d="M 8780.99,4321.64 L 8798.03,4331.47 L 8799.98,4350.02 L 8386.12,4588.98 L 8369.08,4559.46 L 8780.99,4321.64 Z " />
<path stroke="transparent" fill="#000000" transform="matrix(0.05 0 0 0.05 -356 -98)" d="M 8642.29,4231.72 L 8659.33,4261.23 L 8312.5,4461.48 L 8295.46,4431.96 L 8642.29,4231.72 Z " />
<path stroke="transparent" fill="#000000" transform="matrix(0.05 0 0 0.05 -356 -98)" d="M 8780.99,3523.37 L 8798.03,3513.54 L 8815.07,3525.92 L 8815.07,4319.09 L 8798.03,4331.47 L 8780.99,4321.64 L 8780.99,3523.37 Z " />
<path stroke="transparent" fill="#000000" transform="matrix(0.05 0 0 0.05 -356 -98)" d="M 8089.7,3124.24 L 8089.7,3104.57 L 8106.74,3094.73 L 8799.98,3494.99 L 8798.03,3513.54 L 8780.99,3523.37 L 8089.7,3124.24 Z " />
<path stroke="transparent" fill="#000000" transform="matrix(0.05 0 0 0.05 -356 -98)" d="M 8081.18,3289.33 L 8098.22,3259.81 L 8659.33,3583.78 L 8642.29,3613.29 L 8081.18,3289.33 Z " />
<path stroke="transparent" fill="#000000" transform="matrix(0.05 0 0 0.05 -356 -98)" d="M 8072.66,2573.9 L 8106.74,2573.9 L 8106.74,3094.73 L 8089.7,3104.57 L 8072.66,3094.73 L 8072.66,2573.9 Z " />
<path stroke="transparent" fill="#000000" transform="matrix(0.05 0 0 0.05 -356 -98)" d="M 8072.66,3094.73 L 8089.7,3104.57 L 8089.7,3124.24 L 7677.78,3362.07 L 7660.74,3332.56 L 8072.66,3094.73 Z " />
<path stroke="transparent" fill="#000000" transform="matrix(0.05 0 0 0.05 -356 -98)" d="M 9299.71,4476.51 L 9289.18,4508.92 L 8799.98,4350.02 L 8798.03,4331.47 L 8815.07,4319.09 L 9299.71,4476.51 Z " />
<path stroke="transparent" fill="#000000" transform="matrix(0.05 0 0 0.05 -356 -98)" d="M 10035.8,3922.5 L 10077.9,3922.5 L 9797.57,4308.41 L 9770,4288.38 L 10035.8,3922.5 Z " />
<path stroke="transparent" fill="#000000" transform="matrix(0.05 0 0 0.05 -356 -98)" d="M 9861.1,3912.49 L 9888.67,3932.52 L 9678.47,4221.89 L 9650.89,4201.86 L 9861.1,3912.49 Z " />
<path stroke="transparent" fill="#000000" transform="matrix(0.05 0 0 0.05 -356 -98)" d="M 9763.79,3548.08 L 9791.37,3528.05 L 10077.9,3922.5 L 10035.8,3922.5 L 9763.79,3548.08 Z " />
<path stroke="transparent" fill="#000000" transform="matrix(0.05 0 0 0.05 -356 -98)" d="M 9289.2,3336.09 L 9299.73,3368.5 L 8815.07,3525.92 L 8798.03,3513.54 L 8799.98,3494.99 L 9289.2,3336.09 Z " />
</svg>
