<?xml version="1.0" encoding="iso-8859-1"?><svg xmlns="http://www.w3.org/2000/svg" xmlns:rdkit="http://www.rdkit.org/xml" xmlns:xlink="http://www.w3.org/1999/xlink" version="1.1" baseProfile="full" xml:space="preserve" width="156.06px" height="48.57px" viewBox="0 0 5202 1619">
<!-- END OF HEADER -->
<rect style="opacity:1.0;fill:#00000000;stroke:none" width="5202.0" height="1619.0" x="0.0" y="0.0"> </rect>
<path class="bond-0 atom-0 atom-1" d="M 4841.6,1107.5 L 3127.8,117.8" style="fill:none;fill-rule:evenodd;stroke:#000000;stroke-width:90.0px;stroke-linecap:butt;stroke-linejoin:miter;stroke-opacity:1"/>
<path class="bond-1 atom-1 atom-2" d="M 3127.8,117.8 L 2509.3,475.0" style="fill:none;fill-rule:evenodd;stroke:#000000;stroke-width:90.0px;stroke-linecap:butt;stroke-linejoin:miter;stroke-opacity:1"/>
<path class="bond-1 atom-1 atom-2" d="M 2509.3,475.0 L 1890.8,832.2" style="fill: none; fill-rule: evenodd; stroke: rgb(0, 0, 0); stroke-width: 90px; stroke-linecap: butt; stroke-linejoin: miter; stroke-opacity: 1;"/>
<path d="M 3213.5,167.3 L 3127.8,117.8 L 3096.9,135.7" style="fill:none;stroke:#000000;stroke-width:90.0px;stroke-linecap:butt;stroke-linejoin:miter;stroke-opacity:1;"/>
<path class="atom-2" d="M 827.8 1146.1 L 452.3 1146.1 L 452.3 1478.1 L 359.6 1478.1 L 359.6 749.1 L 452.3 749.1 L 452.3 1064.1 L 827.8 1064.1 L 827.8 749.1 L 920.6 749.1 L 920.6 1478.1 L 827.8 1478.1 L 827.8 1146.1 " fill="#000"/>
<path class="atom-2" d="M 1413.0 736.9 Q 1548.8 736.9, 1640.1 814.1 Q 1704.5 868.7, 1736.3 952.7 Q 1766.1 1031.8, 1766.1 1124.6 Q 1766.1 1249.1, 1706.0 1346.3 Q 1651.3 1435.2, 1557.1 1474.2 Q 1492.1 1501.1, 1414.0 1501.1 Q 1278.3 1501.1, 1187.5 1423.9 Q 1124.0 1369.2, 1091.8 1285.7 Q 1062.0 1206.6, 1062.0 1118.7 Q 1062.0 988.9, 1122.0 891.7 Q 1177.2 801.9, 1271.0 763.3 Q 1335.9 736.9, 1413.0 736.9 M 1413.0 818.9 Q 1305.1 818.9, 1234.8 890.7 Q 1196.7 929.8, 1176.7 986.9 Q 1154.7 1049.9, 1154.7 1119.2 Q 1154.7 1217.9, 1194.8 1292.6 Q 1232.4 1361.4, 1301.7 1394.6 Q 1353.5 1419.0, 1413.5 1419.0 Q 1522.9 1419.0, 1592.7 1347.3 Q 1630.8 1308.2, 1650.8 1251.1 Q 1672.8 1188.6, 1672.8 1123.1 Q 1672.8 973.2, 1592.7 890.7 Q 1523.4 818.9, 1413.0 818.9 " fill="#000"/>
</svg>