<?xml version="1.0" encoding="iso-8859-1"?><svg xmlns="http://www.w3.org/2000/svg" xmlns:rdkit="http://www.rdkit.org/xml" xmlns:xlink="http://www.w3.org/1999/xlink" version="1.1" baseProfile="full" xml:space="preserve" width="286.95px" height="279.57px" viewBox="0 0 9565 9319">
<!-- END OF HEADER -->
<rect style="opacity:1.0;fill:#00000000;stroke:none" width="9565.0" height="9319.0" x="0.0" y="0.0"> </rect>
<path class="bond-0 atom-0 atom-1" d="M 1063.1,7947.1 L 1289.6,7250.2" style="fill:none;fill-rule:evenodd;stroke:#000000;stroke-width:90.0px;stroke-linecap:butt;stroke-linejoin:miter;stroke-opacity:1"/>
<path class="bond-0 atom-0 atom-1" d="M 1289.6,7250.2 L 1516.0,6553.3" style="fill: none; fill-rule: evenodd; stroke: rgb(0, 0, 0); stroke-width: 90px; stroke-linecap: butt; stroke-linejoin: miter; stroke-opacity: 1;"/>
<path class="bond-1 atom-1 atom-2" d="M 1319.5,5574.8 L 915.4,5018.7" style="fill: none; fill-rule: evenodd; stroke: rgb(0, 0, 0); stroke-width: 90px; stroke-linecap: butt; stroke-linejoin: miter; stroke-opacity: 1;"/>
<path class="bond-1 atom-1 atom-2" d="M 915.4,5018.7 L 511.3,4462.7" style="fill:none;fill-rule:evenodd;stroke:#000000;stroke-width:90.0px;stroke-linecap:butt;stroke-linejoin:miter;stroke-opacity:1"/>
<path class="bond-2 atom-2 atom-3" d="M 511.3,4462.7 L 915.4,3906.5" style="fill:none;fill-rule:evenodd;stroke:#000000;stroke-width:90.0px;stroke-linecap:butt;stroke-linejoin:miter;stroke-opacity:1"/>
<path class="bond-2 atom-2 atom-3" d="M 915.4,3906.5 L 1319.6,3350.3" style="fill: none; fill-rule: evenodd; stroke: rgb(0, 0, 0); stroke-width: 90px; stroke-linecap: butt; stroke-linejoin: miter; stroke-opacity: 1;"/>
<path class="bond-2 atom-2 atom-3" d="M 878.4,4462.7 L 1219.1,3993.8" style="fill:none;fill-rule:evenodd;stroke:#000000;stroke-width:90.0px;stroke-linecap:butt;stroke-linejoin:miter;stroke-opacity:1"/>
<path class="bond-2 atom-2 atom-3" d="M 1219.1,3993.8 L 1559.8,3524.9" style="fill: none; fill-rule: evenodd; stroke: rgb(0, 0, 0); stroke-width: 90px; stroke-linecap: butt; stroke-linejoin: miter; stroke-opacity: 1;"/>
<path class="bond-3 atom-3 atom-4" d="M 2084.7,2994.1 L 2821.2,3233.4" style="fill: none; fill-rule: evenodd; stroke: rgb(0, 0, 0); stroke-width: 90px; stroke-linecap: butt; stroke-linejoin: miter; stroke-opacity: 1;"/>
<path class="bond-3 atom-3 atom-4" d="M 2821.2,3233.4 L 3557.8,3472.6" style="fill:none;fill-rule:evenodd;stroke:#000000;stroke-width:90.0px;stroke-linecap:butt;stroke-linejoin:miter;stroke-opacity:1"/>
<path class="bond-4 atom-4 atom-5" d="M 3557.8,3472.6 L 3557.7,5452.6" style="fill:none;fill-rule:evenodd;stroke:#000000;stroke-width:90.0px;stroke-linecap:butt;stroke-linejoin:miter;stroke-opacity:1"/>
<path class="bond-4 atom-4 atom-5" d="M 3260.8,3688.4 L 3260.7,5236.8" style="fill:none;fill-rule:evenodd;stroke:#000000;stroke-width:90.0px;stroke-linecap:butt;stroke-linejoin:miter;stroke-opacity:1"/>
<path class="bond-5 atom-5 atom-6" d="M 3557.7,5452.6 L 5272.4,6442.3" style="fill:none;fill-rule:evenodd;stroke:#000000;stroke-width:90.0px;stroke-linecap:butt;stroke-linejoin:miter;stroke-opacity:1"/>
<path class="bond-6 atom-6 atom-7" d="M 5123.9,6356.6 L 5123.9,7141.7" style="fill:none;fill-rule:evenodd;stroke:#000000;stroke-width:90.0px;stroke-linecap:butt;stroke-linejoin:miter;stroke-opacity:1"/>
<path class="bond-6 atom-6 atom-7" d="M 5123.9,7141.7 L 5123.8,7926.9" style="fill: none; fill-rule: evenodd; stroke: rgb(0, 0, 0); stroke-width: 90px; stroke-linecap: butt; stroke-linejoin: miter; stroke-opacity: 1;"/>
<path class="bond-6 atom-6 atom-7" d="M 5420.8,6356.5 L 5420.8,7141.7" style="fill:none;fill-rule:evenodd;stroke:#000000;stroke-width:90.0px;stroke-linecap:butt;stroke-linejoin:miter;stroke-opacity:1"/>
<path class="bond-6 atom-6 atom-7" d="M 5420.8,7141.7 L 5420.8,7926.9" style="fill: none; fill-rule: evenodd; stroke: rgb(0, 0, 0); stroke-width: 90px; stroke-linecap: butt; stroke-linejoin: miter; stroke-opacity: 1;"/>
<path class="bond-7 atom-6 atom-8" d="M 5272.4,6442.3 L 5924.7,6065.6" style="fill:none;fill-rule:evenodd;stroke:#000000;stroke-width:90.0px;stroke-linecap:butt;stroke-linejoin:miter;stroke-opacity:1"/>
<path class="bond-7 atom-6 atom-8" d="M 5924.7,6065.6 L 6577.1,5688.9" style="fill: none; fill-rule: evenodd; stroke: rgb(0, 0, 0); stroke-width: 90px; stroke-linecap: butt; stroke-linejoin: miter; stroke-opacity: 1;"/>
<path class="bond-8 atom-8 atom-9" d="M 6986.7,4963.1 L 6986.7,4218.0" style="fill: none; fill-rule: evenodd; stroke: rgb(0, 0, 0); stroke-width: 90px; stroke-linecap: butt; stroke-linejoin: miter; stroke-opacity: 1;"/>
<path class="bond-8 atom-8 atom-9" d="M 6986.7,4218.0 L 6986.8,3472.8" style="fill:none;fill-rule:evenodd;stroke:#000000;stroke-width:90.0px;stroke-linecap:butt;stroke-linejoin:miter;stroke-opacity:1"/>
<path class="bond-9 atom-9 atom-10" d="M 6986.8,3644.3 L 7642.7,3265.5" style="fill:none;fill-rule:evenodd;stroke:#000000;stroke-width:90.0px;stroke-linecap:butt;stroke-linejoin:miter;stroke-opacity:1"/>
<path class="bond-9 atom-9 atom-10" d="M 7642.7,3265.5 L 8298.6,2886.8" style="fill: none; fill-rule: evenodd; stroke: rgb(0, 0, 0); stroke-width: 90px; stroke-linecap: butt; stroke-linejoin: miter; stroke-opacity: 1;"/>
<path class="bond-9 atom-9 atom-10" d="M 6838.3,3387.1 L 7494.2,3008.3" style="fill:none;fill-rule:evenodd;stroke:#000000;stroke-width:90.0px;stroke-linecap:butt;stroke-linejoin:miter;stroke-opacity:1"/>
<path class="bond-9 atom-9 atom-10" d="M 7494.2,3008.3 L 8150.1,2629.6" style="fill: none; fill-rule: evenodd; stroke: rgb(0, 0, 0); stroke-width: 90px; stroke-linecap: butt; stroke-linejoin: miter; stroke-opacity: 1;"/>
<path class="bond-10 atom-9 atom-11" d="M 6986.8,3472.8 L 6334.3,3096.0" style="fill:none;fill-rule:evenodd;stroke:#000000;stroke-width:90.0px;stroke-linecap:butt;stroke-linejoin:miter;stroke-opacity:1"/>
<path class="bond-10 atom-9 atom-11" d="M 6334.3,3096.0 L 5681.7,2719.2" style="fill: none; fill-rule: evenodd; stroke: rgb(0, 0, 0); stroke-width: 90px; stroke-linecap: butt; stroke-linejoin: miter; stroke-opacity: 1;"/>
<path class="bond-11 atom-11 atom-12" d="M 5272.1,1993.5 L 5272.1,1248.3" style="fill: none; fill-rule: evenodd; stroke: rgb(0, 0, 0); stroke-width: 90px; stroke-linecap: butt; stroke-linejoin: miter; stroke-opacity: 1;"/>
<path class="bond-11 atom-11 atom-12" d="M 5272.1,1248.3 L 5272.2,503.1" style="fill:none;fill-rule:evenodd;stroke:#000000;stroke-width:90.0px;stroke-linecap:butt;stroke-linejoin:miter;stroke-opacity:1"/>
<path class="bond-12 atom-8 atom-13" d="M 7396.4,5688.9 L 8048.9,6065.7" style="fill: none; fill-rule: evenodd; stroke: rgb(0, 0, 0); stroke-width: 90px; stroke-linecap: butt; stroke-linejoin: miter; stroke-opacity: 1;"/>
<path class="bond-12 atom-8 atom-13" d="M 8048.9,6065.7 L 8701.4,6442.5" style="fill:none;fill-rule:evenodd;stroke:#000000;stroke-width:90.0px;stroke-linecap:butt;stroke-linejoin:miter;stroke-opacity:1"/>
<path class="bond-13 atom-5 atom-1" d="M 3557.7,5452.6 L 2821.2,5691.8" style="fill:none;fill-rule:evenodd;stroke:#000000;stroke-width:90.0px;stroke-linecap:butt;stroke-linejoin:miter;stroke-opacity:1"/>
<path class="bond-13 atom-5 atom-1" d="M 2821.2,5691.8 L 2084.7,5931.0" style="fill: none; fill-rule: evenodd; stroke: rgb(0, 0, 0); stroke-width: 90px; stroke-linecap: butt; stroke-linejoin: miter; stroke-opacity: 1;"/>
<path class="bond-14 atom-11 atom-4" d="M 4862.5,2719.2 L 4210.1,3095.9" style="fill: none; fill-rule: evenodd; stroke: rgb(0, 0, 0); stroke-width: 90px; stroke-linecap: butt; stroke-linejoin: miter; stroke-opacity: 1;"/>
<path class="bond-14 atom-11 atom-4" d="M 4210.1,3095.9 L 3557.8,3472.6" style="fill:none;fill-rule:evenodd;stroke:#000000;stroke-width:90.0px;stroke-linecap:butt;stroke-linejoin:miter;stroke-opacity:1"/>
<path d="M 531.5,4490.5 L 511.3,4462.7 L 531.5,4434.9" style="fill:none;stroke:#000000;stroke-width:90.0px;stroke-linecap:butt;stroke-linejoin:miter;stroke-opacity:1;"/>
<path d="M 5186.6,6392.8 L 5272.4,6442.3 L 5305.0,6423.4" style="fill:none;stroke:#000000;stroke-width:90.0px;stroke-linecap:butt;stroke-linejoin:miter;stroke-opacity:1;"/>
<path d="M 6986.8,3510.1 L 6986.8,3472.8 L 6954.1,3454.0" style="fill:none;stroke:#000000;stroke-width:90.0px;stroke-linecap:butt;stroke-linejoin:miter;stroke-opacity:1;"/>
<path class="atom-1" d="M 1959.9 5699.6 L 1959.9 6428.6 L 1855.4 6428.6 L 1478.0 5837.3 L 1478.0 6428.6 L 1390.1 6428.6 L 1390.1 5699.6 L 1491.2 5699.6 L 1872.0 6295.3 L 1872.0 5699.6 L 1959.9 5699.6 " fill="#000"/>
<path class="atom-3" d="M 1960.0 2496.6 L 1960.0 3225.6 L 1855.5 3225.6 L 1478.0 2634.3 L 1478.0 3225.6 L 1390.1 3225.6 L 1390.1 2496.6 L 1491.2 2496.6 L 1872.1 3092.3 L 1872.1 2496.6 L 1960.0 2496.6 " fill="#000"/>
<path class="atom-7" d="M 5271.3 8051.6 Q 5407.0 8051.6, 5498.3 8128.8 Q 5562.8 8183.5, 5594.5 8267.4 Q 5624.3 8346.5, 5624.3 8439.3 Q 5624.3 8563.8, 5564.3 8661.0 Q 5509.6 8749.9, 5415.3 8788.9 Q 5350.4 8815.8, 5272.3 8815.8 Q 5136.5 8815.8, 5045.7 8738.6 Q 4982.2 8683.9, 4950.0 8600.5 Q 4920.2 8521.3, 4920.2 8433.5 Q 4920.2 8303.6, 4980.3 8206.4 Q 5035.5 8116.6, 5129.2 8078.0 Q 5194.1 8051.6, 5271.3 8051.6 M 5271.3 8133.7 Q 5163.4 8133.7, 5093.1 8205.4 Q 5055.0 8244.5, 5035.0 8301.6 Q 5013.0 8364.6, 5013.0 8433.9 Q 5013.0 8532.6, 5053.0 8607.3 Q 5090.6 8676.1, 5160.0 8709.3 Q 5211.7 8733.8, 5271.8 8733.8 Q 5381.2 8733.8, 5451.0 8662.0 Q 5489.1 8622.9, 5509.1 8565.8 Q 5531.1 8503.3, 5531.1 8437.9 Q 5531.1 8288.0, 5451.0 8205.4 Q 5381.6 8133.7, 5271.3 8133.7 " fill="#000"/>
<path class="atom-8" d="M 7271.6 5087.9 L 7271.6 5816.9 L 7167.1 5816.9 L 6789.7 5225.6 L 6789.7 5816.9 L 6701.8 5816.9 L 6701.8 5087.9 L 6802.9 5087.9 L 7183.7 5683.6 L 7183.7 5087.9 L 7271.6 5087.9 " fill="#000"/>
<path class="atom-10" d="M 8700.1 2112.3 Q 8835.9 2112.3, 8927.2 2189.4 Q 8991.7 2244.1, 9023.4 2328.1 Q 9053.2 2407.2, 9053.2 2500.0 Q 9053.2 2624.5, 8993.1 2721.7 Q 8938.4 2810.5, 8844.2 2849.6 Q 8779.3 2876.4, 8701.1 2876.4 Q 8565.4 2876.4, 8474.6 2799.3 Q 8411.1 2744.6, 8378.9 2661.1 Q 8349.1 2582.0, 8349.1 2494.1 Q 8349.1 2364.2, 8409.1 2267.1 Q 8464.3 2177.2, 8558.1 2138.7 Q 8623.0 2112.3, 8700.1 2112.3 M 8700.1 2194.3 Q 8592.2 2194.3, 8521.9 2266.1 Q 8483.8 2305.2, 8463.8 2362.3 Q 8441.8 2425.3, 8441.8 2494.6 Q 8441.8 2593.2, 8481.9 2668.0 Q 8519.5 2736.8, 8588.8 2770.0 Q 8640.6 2794.4, 8700.6 2794.4 Q 8810.0 2794.4, 8879.8 2722.6 Q 8917.9 2683.6, 8937.9 2626.4 Q 8959.9 2563.9, 8959.9 2498.5 Q 8959.9 2348.6, 8879.8 2266.1 Q 8810.5 2194.3, 8700.1 2194.3 " fill="#000"/>
<path class="atom-11" d="M 5557.0 2118.2 L 5557.0 2847.2 L 5452.5 2847.2 L 5075.1 2255.9 L 5075.1 2847.2 L 4987.2 2847.2 L 4987.2 2118.2 L 5088.3 2118.2 L 5469.1 2713.9 L 5469.1 2118.2 L 5557.0 2118.2 " fill="#000"/>
</svg>