<?xml version="1.0" standalone="no" ?>
<!DOCTYPE svg PUBLIC "-//W3C//DTD SVG 1.1//EN" "http://www.w3.org/Graphics/SVG/1.1/DTD/svg11.dtd">
<svg width="661px" height="78px" viewBox="0 0 661 78" style="background-color: #ffffff00" xmlns="http://www.w3.org/2000/svg" xmlns:xlink="http://www.w3.org/1999/xlink" version="1.1" >
<text x="0" y="0" stroke="transparent" fill="#000000" transform="matrix(0.0666667 0 0 0.0666667 603.652 14.7389)" style="font:normal normal normal 200px 'Arial'" >
O</text>
<text x="0" y="0" stroke="transparent" fill="#000000" transform="matrix(0.0666667 0 0 0.0666667 638.293 74.7389)" style="font:normal normal normal 200px 'Arial'" >
OH</text>
<path stroke="transparent" fill="#000000" transform="matrix(0.0666667 0 0 0.0666667 -14.0667 -30.3333)" d="M 8824.17,1509.63 L 8824.17,1486.54 L 9343.78,1186.54 L 9343.78,1209.63 L 8824.17,1509.63 Z " />
<path stroke="transparent" fill="#000000" transform="matrix(0.0666667 0 0 0.0666667 -14.0667 -30.3333)" d="M 8304.55,1209.63 L 8304.55,1186.54 L 8824.17,1486.54 L 8824.17,1509.63 L 8304.55,1209.63 Z " />
<path stroke="transparent" fill="#000000" transform="matrix(0.0666667 0 0 0.0666667 -14.0667 -30.3333)" d="M 7784.94,1509.63 L 7784.94,1486.54 L 8304.55,1186.54 L 8304.55,1209.63 L 7784.94,1509.63 Z " />
<path stroke="transparent" fill="#000000" transform="matrix(0.0666667 0 0 0.0666667 -14.0667 -30.3333)" d="M 7265.32,1209.63 L 7265.32,1186.54 L 7784.94,1486.54 L 7784.94,1509.63 L 7265.32,1209.63 Z " />
<path stroke="transparent" fill="#000000" transform="matrix(0.0666667 0 0 0.0666667 -14.0667 -30.3333)" d="M 6745.71,1509.63 L 6745.71,1486.54 L 7265.32,1186.54 L 7265.32,1209.63 L 6745.71,1509.63 Z " />
<path stroke="transparent" fill="#000000" transform="matrix(0.0666667 0 0 0.0666667 -14.0667 -30.3333)" d="M 6226.09,1209.63 L 6226.09,1186.54 L 6745.71,1486.54 L 6745.71,1509.63 L 6226.09,1209.63 Z " />
<path stroke="transparent" fill="#000000" transform="matrix(0.0666667 0 0 0.0666667 -14.0667 -30.3333)" d="M 5706.48,1509.63 L 5706.48,1486.54 L 6226.09,1186.54 L 6226.09,1209.63 L 5706.48,1509.63 Z " />
<path stroke="transparent" fill="#000000" transform="matrix(0.0666667 0 0 0.0666667 -14.0667 -30.3333)" d="M 5184.18,1208.08 L 5189.54,1188.08 L 5706.48,1486.54 L 5706.48,1509.63 L 5184.18,1208.08 Z " />
<path stroke="transparent" fill="#000000" transform="matrix(0.0666667 0 0 0.0666667 -14.0667 -30.3333)" d="M 4589.54,1208.08 L 4584.18,1188.08 L 5189.54,1188.08 L 5184.18,1208.08 L 4589.54,1208.08 Z " />
<path stroke="transparent" fill="#000000" transform="matrix(0.0666667 0 0 0.0666667 -14.0667 -30.3333)" d="M 4606.15,1280.08 L 4606.15,1260.08 L 5167.57,1260.08 L 5167.57,1280.08 L 4606.15,1280.08 Z " />
<path stroke="transparent" fill="#000000" transform="matrix(0.0666667 0 0 0.0666667 -14.0667 -30.3333)" d="M 4067.25,1509.63 L 4067.25,1486.54 L 4584.18,1188.08 L 4589.54,1208.08 L 4067.25,1509.63 Z " />
<path stroke="transparent" fill="#000000" transform="matrix(0.0666667 0 0 0.0666667 -14.0667 -30.3333)" d="M 3544.95,1208.08 L 3550.31,1188.08 L 4067.25,1486.54 L 4067.25,1509.63 L 3544.95,1208.08 Z " />
<path stroke="transparent" fill="#000000" transform="matrix(0.0666667 0 0 0.0666667 -14.0667 -30.3333)" d="M 2950.31,1208.08 L 2944.95,1188.08 L 3550.31,1188.08 L 3544.95,1208.08 L 2950.31,1208.08 Z " />
<path stroke="transparent" fill="#000000" transform="matrix(0.0666667 0 0 0.0666667 -14.0667 -30.3333)" d="M 2966.92,1280.08 L 2966.92,1260.08 L 3528.34,1260.08 L 3528.34,1280.08 L 2966.92,1280.08 Z " />
<path stroke="transparent" fill="#000000" transform="matrix(0.0666667 0 0 0.0666667 -14.0667 -30.3333)" d="M 2428.01,1509.63 L 2428.01,1486.54 L 2944.95,1188.08 L 2950.31,1208.08 L 2428.01,1509.63 Z " />
<path stroke="transparent" fill="#000000" transform="matrix(0.0666667 0 0 0.0666667 -14.0667 -30.3333)" d="M 1905.72,1208.08 L 1911.08,1188.08 L 2428.01,1486.54 L 2428.01,1509.63 L 1905.72,1208.08 Z " />
<path stroke="transparent" fill="#000000" transform="matrix(0.0666667 0 0 0.0666667 -14.0667 -30.3333)" d="M 1311.08,1208.08 L 1305.72,1188.08 L 1911.08,1188.08 L 1905.72,1208.08 L 1311.08,1208.08 Z " />
<path stroke="transparent" fill="#000000" transform="matrix(0.0666667 0 0 0.0666667 -14.0667 -30.3333)" d="M 1327.69,1280.08 L 1327.69,1260.08 L 1889.11,1260.08 L 1889.11,1280.08 L 1327.69,1280.08 Z " />
<path stroke="transparent" fill="#000000" transform="matrix(0.0666667 0 0 0.0666667 -14.0667 -30.3333)" d="M 788.784,1509.63 L 788.784,1486.54 L 1305.72,1188.08 L 1311.08,1208.08 L 788.784,1509.63 Z " />
<path stroke="transparent" fill="#000000" transform="matrix(0.0666667 0 0 0.0666667 -14.0667 -30.3333)" d="M 264.169,1206.74 L 274.169,1189.42 L 788.784,1486.54 L 788.784,1509.63 L 264.169,1206.74 Z " />
<path stroke="transparent" fill="#000000" transform="matrix(0.0666667 0 0 0.0666667 -14.0667 -30.3333)" d="M 9297.78,717.917 L 9317.78,717.917 L 9317.78,1218.87 L 9297.78,1218.87 L 9297.78,717.917 Z " />
<path stroke="transparent" fill="#000000" transform="matrix(0.0666667 0 0 0.0666667 -14.0667 -30.3333)" d="M 9369.78,717.917 L 9389.78,717.917 L 9389.78,1218.87 L 9369.78,1218.87 L 9369.78,717.917 Z " />
<path stroke="transparent" fill="#000000" transform="matrix(0.0666667 0 0 0.0666667 -14.0667 -30.3333)" d="M 9775.78,1435.95 L 9765.78,1453.27 L 9343.78,1209.63 L 9343.78,1186.54 L 9775.78,1435.95 Z " />
</svg>
