<?xml version="1.0" standalone="no" ?>
<!DOCTYPE svg PUBLIC "-//W3C//DTD SVG 1.1//EN" "http://www.w3.org/Graphics/SVG/1.1/DTD/svg11.dtd">
<svg width="528px" height="137px" viewBox="0 0 528 137" style="background-color: #ffffff00" xmlns="http://www.w3.org/2000/svg" xmlns:xlink="http://www.w3.org/1999/xlink" version="1.1" >
<text x="0" y="0" stroke="transparent" fill="#000000" transform="matrix(0.0666667 0 0 0.0666667 395.247 105.103)" style="font:normal normal normal 163.348px 'Arial'" >
O</text>
<text x="0" y="0" stroke="transparent" fill="#000000" transform="matrix(0.0666667 0 0 0.0666667 508.418 39.7638)" style="font:normal normal normal 163.348px 'Arial'" >
OH</text>
<path stroke="transparent" fill="#000000" transform="matrix(0.0666667 0 0 0.0666667 -29.0667 -7.33333)" d="M 7285.16,637.742 L 7276.99,642.457 L 7268.82,637.742 L 7268.82,152.414 L 7285.16,152.414 L 7285.16,637.742 Z " />
<path stroke="transparent" fill="#000000" transform="matrix(0.0666667 0 0 0.0666667 -29.0667 -7.33333)" d="M 6860.77,892.194 L 6852.6,887.479 L 6852.6,878.048 L 7268.82,637.742 L 7276.99,642.457 L 7276.99,651.888 L 6860.77,892.194 Z " />
<path stroke="transparent" fill="#000000" transform="matrix(0.0666667 0 0 0.0666667 -29.0667 -7.33333)" d="M 6915.49,928.503 L 6907.32,914.357 L 7272.91,703.286 L 7281.07,717.433 L 6915.49,928.503 Z " />
<path stroke="transparent" fill="#000000" transform="matrix(0.0666667 0 0 0.0666667 -29.0667 -7.33333)" d="M 6860.77,1372.81 L 6852.6,1377.52 L 6844.43,1372.81 L 6844.43,892.194 L 6852.6,887.479 L 6860.77,892.194 L 6860.77,1372.81 Z " />
<path stroke="transparent" fill="#000000" transform="matrix(0.0666667 0 0 0.0666667 -29.0667 -7.33333)" d="M 6507.83,1586 L 6499.66,1571.86 L 6844.43,1372.81 L 6852.6,1377.52 L 6852.6,1386.95 L 6507.83,1586 Z " />
<path stroke="transparent" fill="#000000" transform="matrix(0.0666667 0 0 0.0666667 -29.0667 -7.33333)" d="M 6013.23,1392.38 L 6003.82,1377.52 L 6011.99,1372.81 L 6357.07,1572.04 L 6348.91,1586.19 L 6013.23,1392.38 Z " />
<path stroke="transparent" fill="#000000" transform="matrix(0.0666667 0 0 0.0666667 -29.0667 -7.33333)" d="M 5579.43,1631.97 L 5579.43,1613.11 L 5995.65,1372.81 L 6003.82,1377.52 L 5994.42,1392.38 L 5579.43,1631.97 Z " />
<path stroke="transparent" fill="#000000" transform="matrix(0.0666667 0 0 0.0666667 -29.0667 -7.33333)" d="M 5155.04,1386.95 L 5155.04,1368.09 L 5579.43,1613.11 L 5579.43,1631.97 L 5155.04,1386.95 Z " />
<path stroke="transparent" fill="#000000" transform="matrix(0.0666667 0 0 0.0666667 -29.0667 -7.33333)" d="M 4730.65,1631.97 L 4730.65,1613.11 L 5155.04,1368.09 L 5155.04,1386.95 L 4730.65,1631.97 Z " />
<path stroke="transparent" fill="#000000" transform="matrix(0.0666667 0 0 0.0666667 -29.0667 -7.33333)" d="M 4306.26,1386.95 L 4306.26,1377.52 L 4314.81,1373.02 L 4730.65,1613.11 L 4730.65,1631.97 L 4306.26,1386.95 Z " />
<path stroke="transparent" fill="#000000" transform="matrix(0.0666667 0 0 0.0666667 -29.0667 -7.33333)" d="M 4257.26,887.479 L 4355.27,887.479 L 4314.81,1373.02 L 4306.26,1377.52 L 4297.72,1373.02 L 4257.26,887.479 Z " />
<path stroke="transparent" fill="#000000" transform="matrix(0.0666667 0 0 0.0666667 -29.0667 -7.33333)" d="M 3881.87,1631.97 L 3881.87,1613.11 L 4297.72,1373.02 L 4306.26,1377.52 L 4306.26,1386.95 L 3881.87,1631.97 Z " />
<path stroke="transparent" fill="#000000" transform="matrix(0.0666667 0 0 0.0666667 -29.0667 -7.33333)" d="M 3457.48,1386.95 L 3457.48,1368.09 L 3881.87,1613.11 L 3881.87,1631.97 L 3457.48,1386.95 Z " />
<path stroke="transparent" fill="#000000" transform="matrix(0.0666667 0 0 0.0666667 -29.0667 -7.33333)" d="M 3033.09,1631.97 L 3033.09,1613.11 L 3457.48,1368.09 L 3457.48,1386.95 L 3033.09,1631.97 Z " />
<path stroke="transparent" fill="#000000" transform="matrix(0.0666667 0 0 0.0666667 -29.0667 -7.33333)" d="M 2608.71,1386.95 L 2608.71,1377.52 L 2617.25,1373.02 L 3033.09,1613.11 L 3033.09,1631.97 L 2608.71,1386.95 Z " />
<path stroke="transparent" fill="#000000" transform="matrix(0.0666667 0 0 0.0666667 -29.0667 -7.33333)" d="M 2559.7,887.479 L 2657.71,887.479 L 2617.25,1373.02 L 2608.71,1377.52 L 2600.16,1373.02 L 2559.7,887.479 Z " />
<path stroke="transparent" fill="#000000" transform="matrix(0.0666667 0 0 0.0666667 -29.0667 -7.33333)" d="M 2184.32,1631.97 L 2184.32,1613.11 L 2600.16,1373.02 L 2608.71,1377.52 L 2608.71,1386.95 L 2184.32,1631.97 Z " />
<path stroke="transparent" fill="#000000" transform="matrix(0.0666667 0 0 0.0666667 -29.0667 -7.33333)" d="M 1759.93,1386.95 L 1759.93,1368.09 L 2184.32,1613.11 L 2184.32,1631.97 L 1759.93,1386.95 Z " />
<path stroke="transparent" fill="#000000" transform="matrix(0.0666667 0 0 0.0666667 -29.0667 -7.33333)" d="M 1335.54,1631.97 L 1335.54,1613.11 L 1759.93,1368.09 L 1759.93,1386.95 L 1335.54,1631.97 Z " />
<path stroke="transparent" fill="#000000" transform="matrix(0.0666667 0 0 0.0666667 -29.0667 -7.33333)" d="M 911.147,1386.95 L 911.147,1377.52 L 919.315,1372.81 L 1335.54,1613.11 L 1335.54,1631.97 L 911.147,1386.95 Z " />
<path stroke="transparent" fill="#000000" transform="matrix(0.0666667 0 0 0.0666667 -29.0667 -7.33333)" d="M 490.841,1629.62 L 482.674,1615.47 L 902.98,1372.81 L 911.147,1377.52 L 911.147,1386.95 L 490.841,1629.62 Z " />
<path stroke="transparent" fill="#000000" transform="matrix(0.0666667 0 0 0.0666667 -29.0667 -7.33333)" d="M 902.98,887.479 L 919.315,887.479 L 919.315,1372.81 L 911.147,1377.52 L 902.98,1372.81 L 902.98,887.479 Z " />
<path stroke="transparent" fill="#000000" transform="matrix(0.0666667 0 0 0.0666667 -29.0667 -7.33333)" d="M 6052.83,1867.56 L 5954.82,1867.56 L 5994.42,1392.38 L 6003.82,1377.52 L 6013.23,1392.38 L 6052.83,1867.56 Z " />
<path stroke="transparent" fill="#000000" transform="matrix(0.0666667 0 0 0.0666667 -29.0667 -7.33333)" d="M 5995.65,882.763 L 6011.99,892.194 L 6011.99,1372.81 L 6003.82,1377.52 L 5995.65,1372.81 L 5995.65,882.763 Z " />
<path stroke="transparent" fill="#000000" transform="matrix(0.0666667 0 0 0.0666667 -29.0667 -7.33333)" d="M 6428.21,633.026 L 6428.21,651.888 L 6011.99,892.194 L 5995.65,882.763 L 6428.21,633.026 Z " />
<path stroke="transparent" fill="#000000" transform="matrix(0.0666667 0 0 0.0666667 -29.0667 -7.33333)" d="M 6428.21,651.888 L 6428.21,633.026 L 6852.6,878.048 L 6852.6,887.479 L 6844.43,892.194 L 6428.21,651.888 Z " />
<path stroke="transparent" fill="#000000" transform="matrix(0.0666667 0 0 0.0666667 -29.0667 -7.33333)" d="M 7276.99,1613.11 L 7276.99,1622.54 L 7268.82,1627.26 L 6852.6,1386.95 L 6852.6,1377.52 L 6860.77,1372.81 L 7276.99,1613.11 Z " />
<path stroke="transparent" fill="#000000" transform="matrix(0.0666667 0 0 0.0666667 -29.0667 -7.33333)" d="M 7281.07,1547.57 L 7272.91,1561.71 L 6907.32,1350.64 L 6915.49,1336.5 L 7281.07,1547.57 Z " />
<path stroke="transparent" fill="#000000" transform="matrix(0.0666667 0 0 0.0666667 -29.0667 -7.33333)" d="M 7285.16,2112.59 L 7268.82,2112.59 L 7268.82,1627.26 L 7276.99,1622.54 L 7285.16,1627.26 L 7285.16,2112.59 Z " />
<path stroke="transparent" fill="#000000" transform="matrix(0.0666667 0 0 0.0666667 -29.0667 -7.33333)" d="M 7693.21,1372.81 L 7701.38,1377.52 L 7701.38,1386.95 L 7285.16,1627.26 L 7276.99,1622.54 L 7276.99,1613.11 L 7693.21,1372.81 Z " />
<path stroke="transparent" fill="#000000" transform="matrix(0.0666667 0 0 0.0666667 -29.0667 -7.33333)" d="M 8129.85,1615.47 L 8121.69,1629.62 L 7701.38,1386.95 L 7701.38,1377.52 L 7709.55,1372.81 L 8129.85,1615.47 Z " />
<path stroke="transparent" fill="#000000" transform="matrix(0.0666667 0 0 0.0666667 -29.0667 -7.33333)" d="M 7693.21,892.194 L 7701.38,887.479 L 7709.55,892.194 L 7709.55,1372.81 L 7701.38,1377.52 L 7693.21,1372.81 L 7693.21,892.194 Z " />
<path stroke="transparent" fill="#000000" transform="matrix(0.0666667 0 0 0.0666667 -29.0667 -7.33333)" d="M 7634.41,921.43 L 7650.74,921.43 L 7650.74,1343.57 L 7634.41,1343.57 L 7634.41,921.43 Z " />
<path stroke="transparent" fill="#000000" transform="matrix(0.0666667 0 0 0.0666667 -29.0667 -7.33333)" d="M 7701.38,878.048 L 7701.38,887.479 L 7693.21,892.194 L 7276.99,651.888 L 7276.99,642.457 L 7285.16,637.742 L 7701.38,878.048 Z " />
<path stroke="transparent" fill="#000000" transform="matrix(0.0666667 0 0 0.0666667 -29.0667 -7.33333)" d="M 8040.26,682.396 L 8048.43,696.542 L 7709.55,892.194 L 7701.38,887.479 L 7701.38,878.048 L 8040.26,682.396 Z " />
</svg>
