<?xml version="1.0" encoding="iso-8859-1"?><svg xmlns="http://www.w3.org/2000/svg" xmlns:rdkit="http://www.rdkit.org/xml" xmlns:xlink="http://www.w3.org/1999/xlink" version="1.1" baseProfile="full" xml:space="preserve" width="180.23999999999998px" height="51.96px" viewBox="0 0 6008 1732">
<!-- END OF HEADER -->
<rect style="opacity:1.0;fill:#00000000;stroke:none" width="6008.0" height="1732.0" x="0.0" y="0.0"> </rect>
<path class="bond-0 atom-0 atom-1" d="M 3552.9,1609.9 L 4171.3,1252.8" style="fill:none;fill-rule:evenodd;stroke:#000000;stroke-width:90.0px;stroke-linecap:butt;stroke-linejoin:miter;stroke-opacity:1"/>
<path class="bond-0 atom-0 atom-1" d="M 4171.3,1252.8 L 4789.6,895.7" style="fill: none; fill-rule: evenodd; stroke: rgb(0, 0, 0); stroke-width: 90px; stroke-linecap: butt; stroke-linejoin: miter; stroke-opacity: 1;"/>
<path class="bond-0 atom-0 atom-1" d="M 3552.9,1267.2 L 4022.8,995.8" style="fill:none;fill-rule:evenodd;stroke:#000000;stroke-width:90.0px;stroke-linecap:butt;stroke-linejoin:miter;stroke-opacity:1"/>
<path class="bond-0 atom-0 atom-1" d="M 4022.8,995.8 L 4641.2,638.7" style="fill: none; fill-rule: evenodd; stroke: rgb(0, 0, 0); stroke-width: 90px; stroke-linecap: butt; stroke-linejoin: miter; stroke-opacity: 1;"/>
<path class="bond-1 atom-0 atom-2" d="M 3552.9,1609.9 L 2900.9,1233.4" style="fill:none;fill-rule:evenodd;stroke:#000000;stroke-width:90.0px;stroke-linecap:butt;stroke-linejoin:miter;stroke-opacity:1"/>
<path class="bond-1 atom-0 atom-2" d="M 2900.9,1233.4 L 2248.9,856.9" style="fill: none; fill-rule: evenodd; stroke: rgb(0, 0, 0); stroke-width: 90px; stroke-linecap: butt; stroke-linejoin: miter; stroke-opacity: 1;"/>
<path d="M 3583.8,1592.1 L 3552.9,1609.9 L 3520.3,1591.1" style="fill:none;stroke:#000000;stroke-width:90.0px;stroke-linecap:butt;stroke-linejoin:miter;stroke-opacity:1;"/>
<path class="atom-1" d="M 5191.2 121.3 Q 5326.9 121.3, 5418.2 198.4 Q 5482.7 253.1, 5514.4 337.1 Q 5544.2 416.2, 5544.2 509.0 Q 5544.2 633.5, 5484.1 730.7 Q 5429.4 819.5, 5335.2 858.6 Q 5270.3 885.4, 5192.1 885.4 Q 5056.4 885.4, 4965.6 808.3 Q 4902.1 753.6, 4869.9 670.1 Q 4840.1 591.0, 4840.1 503.1 Q 4840.1 373.2, 4900.2 276.1 Q 4955.3 186.2, 5049.1 147.7 Q 5114.0 121.3, 5191.2 121.3 M 5191.2 203.3 Q 5083.3 203.3, 5012.9 275.1 Q 4974.9 314.2, 4954.8 371.3 Q 4932.9 434.3, 4932.9 503.6 Q 4932.9 602.2, 4972.9 676.9 Q 5010.5 745.8, 5079.8 779.0 Q 5131.6 803.4, 5191.7 803.4 Q 5301.0 803.4, 5370.9 731.6 Q 5408.9 692.6, 5429.0 635.4 Q 5450.9 572.9, 5450.9 507.5 Q 5450.9 357.6, 5370.9 275.1 Q 5301.5 203.3, 5191.2 203.3 " fill="#000"/>
<path class="atom-2" d="M 931.9 652.9 L 556.4 652.9 L 556.4 984.9 L 463.6 984.9 L 463.6 255.9 L 556.4 255.9 L 556.4 570.8 L 931.9 570.8 L 931.9 255.9 L 1024.6 255.9 L 1024.6 984.9 L 931.9 984.9 L 931.9 652.9 " fill="#000"/>
<path class="atom-2" d="M 1468.0 1291.7 L 1468.0 1349.1 L 1156.4 1349.1 Q 1160.9 1275.3, 1181.8 1237.3 Q 1196.6 1211.2, 1220.8 1189.6 Q 1245.0 1168.0, 1287.5 1143.5 L 1348.8 1108.0 Q 1411.9 1071.3, 1411.9 1013.0 Q 1411.9 973.0, 1383.9 947.2 Q 1357.5 923.1, 1319.4 923.1 Q 1293.0 923.1, 1271.4 935.6 Q 1250.1 947.9, 1238.9 969.8 Q 1227.6 992.0, 1225.0 1037.5 L 1167.0 1037.5 Q 1168.9 969.5, 1191.8 934.3 Q 1231.8 872.1, 1321.4 872.1 Q 1386.8 872.1, 1427.4 909.5 Q 1471.2 949.8, 1471.2 1011.7 Q 1471.2 1100.6, 1372.6 1155.4 L 1306.5 1192.1 Q 1266.3 1214.4, 1246.3 1237.9 Q 1226.6 1261.4, 1222.1 1291.7 L 1468.0 1291.7 " fill="#000"/>
<path class="atom-2" d="M 2124.3 255.9 L 2124.3 984.9 L 2019.8 984.9 L 1642.4 393.6 L 1642.4 984.9 L 1554.5 984.9 L 1554.5 255.9 L 1655.5 255.9 L 2036.4 851.6 L 2036.4 255.9 L 2124.3 255.9 " fill="#000"/>
</svg>