<?xml version="1.0" encoding="iso-8859-1"?><svg xmlns="http://www.w3.org/2000/svg" xmlns:rdkit="http://www.rdkit.org/xml" xmlns:xlink="http://www.w3.org/1999/xlink" version="1.1" baseProfile="full" xml:space="preserve" width="213.20999999999998px" height="113.39999999999999px" viewBox="0 0 7107 3780">
<!-- END OF HEADER -->
<rect style="opacity:1.0;fill:#00000000;stroke:none" width="7107.0" height="3780.0" x="0.0" y="0.0"> </rect>
<path class="bond-0 atom-0 atom-1" d="M 6651.9,3556.8 L 4937.7,2567.2" style="fill:none;fill-rule:evenodd;stroke:#000000;stroke-width:90.0px;stroke-linecap:butt;stroke-linejoin:miter;stroke-opacity:1"/>
<path class="bond-1 atom-1 atom-2" d="M 4937.7,2567.2 L 3223.5,3556.7" style="fill:none;fill-rule:evenodd;stroke:#000000;stroke-width:90.0px;stroke-linecap:butt;stroke-linejoin:miter;stroke-opacity:1"/>
<path class="bond-2 atom-2 atom-3" d="M 3223.5,3556.7 L 2604.7,3199.5" style="fill:none;fill-rule:evenodd;stroke:#000000;stroke-width:90.0px;stroke-linecap:butt;stroke-linejoin:miter;stroke-opacity:1"/>
<path class="bond-2 atom-2 atom-3" d="M 2604.7,3199.5 L 1986.0,2842.3" style="fill: none; fill-rule: evenodd; stroke: rgb(0, 0, 0); stroke-width: 90px; stroke-linecap: butt; stroke-linejoin: miter; stroke-opacity: 1;"/>
<path class="bond-3 atom-1 atom-4" d="M 4937.7,2567.2 L 4937.7,1822.1" style="fill:none;fill-rule:evenodd;stroke:#000000;stroke-width:90.0px;stroke-linecap:butt;stroke-linejoin:miter;stroke-opacity:1"/>
<path class="bond-3 atom-1 atom-4" d="M 4937.7,1822.1 L 4937.7,1076.9" style="fill: none; fill-rule: evenodd; stroke: rgb(0, 0, 0); stroke-width: 90px; stroke-linecap: butt; stroke-linejoin: miter; stroke-opacity: 1;"/>
<path d="M 3309.2,3507.2 L 3223.5,3556.7 L 3192.5,3538.8" style="fill:none;stroke:#000000;stroke-width:90.0px;stroke-linecap:butt;stroke-linejoin:miter;stroke-opacity:1;"/>
<path class="atom-3" d="M 923.0 2605.6 L 547.5 2605.6 L 547.5 2937.7 L 454.8 2937.7 L 454.8 2208.7 L 547.5 2208.7 L 547.5 2523.6 L 923.0 2523.6 L 923.0 2208.7 L 1015.8 2208.7 L 1015.8 2937.7 L 923.0 2937.7 L 923.0 2605.6 " fill="#000"/>
<path class="atom-3" d="M 1508.3 2196.5 Q 1644.0 2196.5, 1735.3 2273.6 Q 1799.8 2328.3, 1831.5 2412.3 Q 1861.3 2491.4, 1861.3 2584.2 Q 1861.3 2708.7, 1801.2 2805.8 Q 1746.5 2894.7, 1652.3 2933.8 Q 1587.4 2960.6, 1509.2 2960.6 Q 1373.5 2960.6, 1282.7 2883.5 Q 1219.2 2828.8, 1187.0 2745.3 Q 1157.2 2666.2, 1157.2 2578.3 Q 1157.2 2448.4, 1217.2 2351.3 Q 1272.4 2261.4, 1366.2 2222.8 Q 1431.1 2196.5, 1508.3 2196.5 M 1508.3 2278.5 Q 1400.3 2278.5, 1330.0 2350.3 Q 1291.9 2389.3, 1271.9 2446.5 Q 1250.0 2509.5, 1250.0 2578.8 Q 1250.0 2677.4, 1290.0 2752.1 Q 1327.6 2821.0, 1396.9 2854.2 Q 1448.7 2878.6, 1508.7 2878.6 Q 1618.1 2878.6, 1687.9 2806.8 Q 1726.0 2767.8, 1746.1 2710.6 Q 1768.0 2648.1, 1768.0 2582.7 Q 1768.0 2432.8, 1687.9 2350.3 Q 1618.6 2278.5, 1508.3 2278.5 " fill="#000"/>
<path class="atom-4" d="M 5222.6 223.2 L 5222.6 952.2 L 5118.1 952.2 L 4740.7 360.9 L 4740.7 952.2 L 4652.8 952.2 L 4652.8 223.2 L 4753.9 223.2 L 5134.7 818.9 L 5134.7 223.2 L 5222.6 223.2 " fill="#000"/>
<path class="atom-4" d="M 5820.6 620.2 L 5445.1 620.2 L 5445.1 952.2 L 5352.4 952.2 L 5352.4 223.2 L 5445.1 223.2 L 5445.1 538.1 L 5820.6 538.1 L 5820.6 223.2 L 5913.4 223.2 L 5913.4 952.2 L 5820.6 952.2 L 5820.6 620.2 " fill="#000"/>
<path class="atom-4" d="M 6356.8 1259.0 L 6356.8 1316.4 L 6045.1 1316.4 Q 6049.6 1242.6, 6070.6 1204.6 Q 6085.4 1178.5, 6109.6 1156.9 Q 6133.8 1135.3, 6176.3 1110.8 L 6237.5 1075.3 Q 6300.7 1038.6, 6300.7 980.3 Q 6300.7 940.3, 6272.7 914.5 Q 6246.2 890.4, 6208.2 890.4 Q 6181.8 890.4, 6160.2 902.9 Q 6138.9 915.2, 6127.6 937.1 Q 6116.4 959.3, 6113.8 1004.8 L 6055.8 1004.8 Q 6057.7 936.8, 6080.6 901.6 Q 6120.5 839.4, 6210.1 839.4 Q 6275.6 839.4, 6316.2 876.8 Q 6360.0 917.1, 6360.0 979.0 Q 6360.0 1067.9, 6261.4 1122.7 L 6195.3 1159.4 Q 6155.0 1181.7, 6135.0 1205.2 Q 6115.4 1228.7, 6110.9 1259.0 L 6356.8 1259.0 " fill="#000"/>
</svg>