<?xml version="1.0" encoding="iso-8859-1"?><svg xmlns="http://www.w3.org/2000/svg" xmlns:rdkit="http://www.rdkit.org/xml" xmlns:xlink="http://www.w3.org/1999/xlink" version="1.1" baseProfile="full" xml:space="preserve" width="242.54999999999998px" height="279.57px" viewBox="0 0 8085 9319">
<!-- END OF HEADER -->
<rect style="opacity:1.0;fill:#00000000;stroke:none" width="8085.0" height="9319.0" x="0.0" y="0.0"> </rect>
<path class="bond-0 atom-0 atom-1" d="M 2151.8,503.2 L 2151.8,2483.0" style="fill:none;fill-rule:evenodd;stroke:#000000;stroke-width:90.0px;stroke-linecap:butt;stroke-linejoin:miter;stroke-opacity:1"/>
<path class="bond-1 atom-1 atom-2" d="M 2151.8,2483.0 L 437.3,3473.0" style="fill:none;fill-rule:evenodd;stroke:#000000;stroke-width:90.0px;stroke-linecap:butt;stroke-linejoin:miter;stroke-opacity:1"/>
<path class="bond-2 atom-1 atom-3" d="M 2151.8,2483.0 L 3866.2,3473.0" style="fill:none;fill-rule:evenodd;stroke:#000000;stroke-width:90.0px;stroke-linecap:butt;stroke-linejoin:miter;stroke-opacity:1"/>
<path class="bond-3 atom-3 atom-4" d="M 3866.2,3473.0 L 3866.2,5452.7" style="fill:none;fill-rule:evenodd;stroke:#000000;stroke-width:90.0px;stroke-linecap:butt;stroke-linejoin:miter;stroke-opacity:1"/>
<path class="bond-4 atom-4 atom-5" d="M 3866.2,5452.7 L 5580.7,6442.4" style="fill:none;fill-rule:evenodd;stroke:#000000;stroke-width:90.0px;stroke-linecap:butt;stroke-linejoin:miter;stroke-opacity:1"/>
<path class="bond-5 atom-5 atom-6" d="M 5580.7,6613.8 L 6236.6,6235.2" style="fill:none;fill-rule:evenodd;stroke:#000000;stroke-width:90.0px;stroke-linecap:butt;stroke-linejoin:miter;stroke-opacity:1"/>
<path class="bond-5 atom-5 atom-6" d="M 6236.6,6235.2 L 6892.6,5856.5" style="fill: none; fill-rule: evenodd; stroke: rgb(0, 0, 0); stroke-width: 90px; stroke-linecap: butt; stroke-linejoin: miter; stroke-opacity: 1;"/>
<path class="bond-5 atom-5 atom-6" d="M 5432.2,6356.7 L 6088.2,5978.0" style="fill:none;fill-rule:evenodd;stroke:#000000;stroke-width:90.0px;stroke-linecap:butt;stroke-linejoin:miter;stroke-opacity:1"/>
<path class="bond-5 atom-5 atom-6" d="M 6088.2,5978.0 L 6744.1,5599.3" style="fill: none; fill-rule: evenodd; stroke: rgb(0, 0, 0); stroke-width: 90px; stroke-linecap: butt; stroke-linejoin: miter; stroke-opacity: 1;"/>
<path class="bond-6 atom-5 atom-7" d="M 5580.7,6442.4 L 5580.7,7184.6" style="fill:none;fill-rule:evenodd;stroke:#000000;stroke-width:90.0px;stroke-linecap:butt;stroke-linejoin:miter;stroke-opacity:1"/>
<path class="bond-6 atom-5 atom-7" d="M 5580.7,7184.6 L 5580.7,7926.8" style="fill: none; fill-rule: evenodd; stroke: rgb(0, 0, 0); stroke-width: 90px; stroke-linecap: butt; stroke-linejoin: miter; stroke-opacity: 1;"/>
<path class="bond-7 atom-4 atom-8" d="M 3866.2,5452.7 L 3283.6,5874.8 L 3209.4,5746.2 Z" style="fill: rgb(0, 0, 0); fill-rule: evenodd; fill-opacity: 1; stroke: rgb(0, 0, 0); stroke-width: 45px; stroke-linecap: butt; stroke-linejoin: miter; stroke-opacity: 1;"/>
<path class="bond-7 atom-4 atom-8" d="M 3283.6,5874.8 L 2552.5,6039.7 L 2701.0,6296.8 Z" style="fill: rgb(0, 0, 0); fill-rule: evenodd; fill-opacity: 1; stroke: rgb(0, 0, 0); stroke-width: 45px; stroke-linecap: butt; stroke-linejoin: miter; stroke-opacity: 1;"/>
<path class="bond-7 atom-4 atom-8" d="M 3283.6,5874.8 L 3209.4,5746.2 L 2552.5,6039.7 Z" style="fill: rgb(0, 0, 0); fill-rule: evenodd; fill-opacity: 1; stroke: rgb(0, 0, 0); stroke-width: 45px; stroke-linecap: butt; stroke-linejoin: miter; stroke-opacity: 1;"/>
<path d="M 3780.5,3423.5 L 3866.2,3473.0 L 3866.2,3572.0" style="fill:none;stroke:#000000;stroke-width:90.0px;stroke-linecap:butt;stroke-linejoin:miter;stroke-opacity:1;"/>
<path d="M 3866.2,5353.8 L 3866.2,5452.7 L 3952.0,5502.2" style="fill:none;stroke:#000000;stroke-width:90.0px;stroke-linecap:butt;stroke-linejoin:miter;stroke-opacity:1;"/>
<path d="M 5495.0,6392.9 L 5580.7,6442.4 L 5580.7,6479.5" style="fill:none;stroke:#000000;stroke-width:90.0px;stroke-linecap:butt;stroke-linejoin:miter;stroke-opacity:1;"/>
<path class="atom-6" d="M 7294.2 5082.1 Q 7429.9 5082.1, 7521.2 5159.2 Q 7585.7 5213.9, 7617.4 5297.9 Q 7647.2 5377.0, 7647.2 5469.8 Q 7647.2 5594.3, 7587.1 5691.5 Q 7532.4 5780.3, 7438.2 5819.4 Q 7373.3 5846.2, 7295.1 5846.2 Q 7159.4 5846.2, 7068.6 5769.1 Q 7005.1 5714.4, 6972.9 5630.9 Q 6943.1 5551.8, 6943.1 5463.9 Q 6943.1 5334.0, 7003.1 5236.9 Q 7058.3 5147.0, 7152.1 5108.5 Q 7217.0 5082.1, 7294.2 5082.1 M 7294.2 5164.1 Q 7186.2 5164.1, 7115.9 5235.9 Q 7077.8 5275.0, 7057.8 5332.1 Q 7035.9 5395.1, 7035.9 5464.4 Q 7035.9 5563.0, 7075.9 5637.8 Q 7113.5 5706.6, 7182.8 5739.8 Q 7234.6 5764.2, 7294.6 5764.2 Q 7404.0 5764.2, 7473.8 5692.4 Q 7511.9 5653.4, 7532.0 5596.2 Q 7553.9 5533.7, 7553.9 5468.3 Q 7553.9 5318.4, 7473.8 5235.9 Q 7404.5 5164.1, 7294.2 5164.1 " fill="#000"/>
<path class="atom-7" d="M 5579.7 8051.5 Q 5715.5 8051.5, 5806.8 8128.7 Q 5871.2 8183.4, 5903.0 8267.3 Q 5932.7 8346.4, 5932.7 8439.2 Q 5932.7 8563.7, 5872.7 8660.9 Q 5818.0 8749.8, 5723.8 8788.8 Q 5658.8 8815.7, 5580.7 8815.7 Q 5445.0 8815.7, 5354.1 8738.5 Q 5290.7 8683.8, 5258.4 8600.3 Q 5228.6 8521.2, 5228.6 8433.4 Q 5228.6 8303.5, 5288.7 8206.3 Q 5343.9 8116.5, 5437.6 8077.9 Q 5502.6 8051.5, 5579.7 8051.5 M 5579.7 8133.5 Q 5471.8 8133.5, 5401.5 8205.3 Q 5363.4 8244.4, 5343.4 8301.5 Q 5321.4 8364.5, 5321.4 8433.8 Q 5321.4 8532.5, 5361.5 8607.2 Q 5399.1 8676.0, 5468.4 8709.2 Q 5520.2 8733.6, 5580.2 8733.6 Q 5689.6 8733.6, 5759.4 8661.9 Q 5797.5 8622.8, 5817.5 8565.7 Q 5839.5 8503.2, 5839.5 8437.7 Q 5839.5 8287.8, 5759.4 8205.3 Q 5690.1 8133.5, 5579.7 8133.5 " fill="#000"/>
<path class="atom-7" d="M 6499.9 8460.7 L 6124.4 8460.7 L 6124.4 8792.7 L 6031.7 8792.7 L 6031.7 8063.7 L 6124.4 8063.7 L 6124.4 8378.7 L 6499.9 8378.7 L 6499.9 8063.7 L 6592.7 8063.7 L 6592.7 8792.7 L 6499.9 8792.7 L 6499.9 8460.7 " fill="#000"/>
<path class="atom-8" d="M 1244.3 6474.9 L 868.8 6474.9 L 868.8 6806.9 L 776.0 6806.9 L 776.0 6077.9 L 868.8 6077.9 L 868.8 6392.9 L 1244.3 6392.9 L 1244.3 6077.9 L 1337.1 6077.9 L 1337.1 6806.9 L 1244.3 6806.9 L 1244.3 6474.9 " fill="#000"/>
<path class="atom-8" d="M 1780.4 7113.8 L 1780.4 7171.1 L 1468.8 7171.1 Q 1473.3 7097.3, 1494.2 7059.3 Q 1509.1 7033.2, 1533.2 7011.6 Q 1557.4 6990.0, 1599.9 6965.5 L 1661.2 6930.1 Q 1724.3 6893.3, 1724.3 6835.0 Q 1724.3 6795.0, 1696.3 6769.2 Q 1669.9 6745.1, 1631.8 6745.1 Q 1605.4 6745.1, 1583.8 6757.6 Q 1562.6 6769.9, 1551.3 6791.8 Q 1540.0 6814.0, 1537.4 6859.5 L 1479.4 6859.5 Q 1481.3 6791.5, 1504.2 6756.4 Q 1544.2 6694.2, 1633.8 6694.2 Q 1699.2 6694.2, 1739.8 6731.5 Q 1783.6 6771.8, 1783.6 6833.7 Q 1783.6 6922.6, 1685.0 6977.4 L 1618.9 7014.2 Q 1578.7 7036.4, 1558.7 7059.9 Q 1539.0 7083.5, 1534.5 7113.8 L 1780.4 7113.8 " fill="#000"/>
<path class="atom-8" d="M 2436.7 6077.9 L 2436.7 6806.9 L 2332.2 6806.9 L 1954.8 6215.6 L 1954.8 6806.9 L 1866.9 6806.9 L 1866.9 6077.9 L 1967.9 6077.9 L 2348.8 6673.6 L 2348.8 6077.9 L 2436.7 6077.9 " fill="#000"/>
</svg>