<?xml version="1.0" encoding="iso-8859-1"?><svg xmlns="http://www.w3.org/2000/svg" xmlns:rdkit="http://www.rdkit.org/xml" xmlns:xlink="http://www.w3.org/1999/xlink" version="1.1" baseProfile="full" xml:space="preserve" width="168.78px" height="61.86px" viewBox="0 0 5626 2062">
<!-- END OF HEADER -->
<rect style="opacity:1.0;fill:#00000000;stroke:none" width="5626.0" height="2062.0" x="0.0" y="0.0"> </rect>
<path class="bond-0 atom-0 atom-1" d="M 5214.6,1161.1 L 3500.7,171.4" style="fill:none;fill-rule:evenodd;stroke:#000000;stroke-width:90.0px;stroke-linecap:butt;stroke-linejoin:miter;stroke-opacity:1"/>
<path class="bond-1 atom-1 atom-2" d="M 3500.7,171.4 L 2848.5,548.0" style="fill:none;fill-rule:evenodd;stroke:#000000;stroke-width:90.0px;stroke-linecap:butt;stroke-linejoin:miter;stroke-opacity:1"/>
<path class="bond-1 atom-1 atom-2" d="M 2848.5,548.0 L 2196.4,924.6" style="fill: none; fill-rule: evenodd; stroke: rgb(0, 0, 0); stroke-width: 90px; stroke-linecap: butt; stroke-linejoin: miter; stroke-opacity: 1;"/>
<path d="M 3586.4,220.9 L 3500.7,171.4 L 3468.1,190.2" style="fill:none;stroke:#000000;stroke-width:90.0px;stroke-linecap:butt;stroke-linejoin:miter;stroke-opacity:1;"/>
<path class="atom-2" d="M 879.3 1193.6 L 503.8 1193.6 L 503.8 1525.6 L 411.0 1525.6 L 411.0 796.6 L 503.8 796.6 L 503.8 1111.6 L 879.3 1111.6 L 879.3 796.6 L 972.1 796.6 L 972.1 1525.6 L 879.3 1525.6 L 879.3 1193.6 " fill="#000"/>
<path class="atom-2" d="M 1415.4 1832.4 L 1415.4 1889.8 L 1103.8 1889.8 Q 1108.3 1816.0, 1129.3 1778.0 Q 1144.1 1751.9, 1168.2 1730.3 Q 1192.4 1708.7, 1235.0 1684.2 L 1296.2 1648.8 Q 1359.4 1612.0, 1359.4 1553.7 Q 1359.4 1513.7, 1331.3 1487.9 Q 1304.9 1463.8, 1266.9 1463.8 Q 1240.4 1463.8, 1218.8 1476.3 Q 1197.6 1488.6, 1186.3 1510.5 Q 1175.0 1532.7, 1172.4 1578.2 L 1114.4 1578.2 Q 1116.4 1510.2, 1139.2 1475.1 Q 1179.2 1412.9, 1268.8 1412.9 Q 1334.2 1412.9, 1374.8 1450.2 Q 1418.6 1490.5, 1418.6 1552.4 Q 1418.6 1641.3, 1320.0 1696.1 L 1254.0 1732.9 Q 1213.7 1755.1, 1193.7 1778.6 Q 1174.0 1802.2, 1169.5 1832.4 L 1415.4 1832.4 " fill="#000"/>
<path class="atom-2" d="M 2071.7 796.6 L 2071.7 1525.6 L 1967.2 1525.6 L 1589.8 934.3 L 1589.8 1525.6 L 1501.9 1525.6 L 1501.9 796.6 L 1603.0 796.6 L 1983.8 1392.3 L 1983.8 796.6 L 2071.7 796.6 " fill="#000"/>
</svg>