<?xml version="1.0" standalone="no" ?>
<!DOCTYPE svg PUBLIC "-//W3C//DTD SVG 1.1//EN" "http://www.w3.org/Graphics/SVG/1.1/DTD/svg11.dtd">
<svg width="160px" height="133px" viewBox="0 0 160 133" style="background-color: #ffffff00" xmlns="http://www.w3.org/2000/svg" xmlns:xlink="http://www.w3.org/1999/xlink" version="1.1" >
<text x="0" y="0" stroke="transparent" fill="#000000" transform="matrix(0.0666667 0 0 0.0666667 102.293 14.0207)" style="font:normal normal normal 200px 'Arial'" >
O</text>
<text x="0" y="0" stroke="transparent" fill="#000000" transform="matrix(0.0666667 0 0 0.0666667 136.934 74.0207)" style="font:normal normal normal 200px 'Arial'" >
OH</text>
<path stroke="transparent" fill="#000000" transform="matrix(0.0666667 0 0 0.0666667 -44.0667 -13.3333)" d="M 1763.78,1238.08 L 1753.78,1232.31 L 1753.78,1220.76 L 2273.4,920.763 L 2273.4,943.857 L 1763.78,1238.08 Z " />
<path stroke="transparent" fill="#000000" transform="matrix(0.0666667 0 0 0.0666667 -44.0667 -13.3333)" d="M 1234.17,943.857 L 1234.17,920.763 L 1753.78,1220.76 L 1753.78,1232.31 L 1743.78,1238.08 L 1234.17,943.857 Z " />
<path stroke="transparent" fill="#000000" transform="matrix(0.0666667 0 0 0.0666667 -44.0667 -13.3333)" d="M 724.553,1238.08 L 704.553,1226.54 L 1234.17,920.763 L 1234.17,943.857 L 724.553,1238.08 Z " />
<path stroke="transparent" fill="#000000" transform="matrix(0.0666667 0 0 0.0666667 -44.0667 -13.3333)" d="M 791.553,1282.54 L 781.553,1265.22 L 1229.17,1006.79 L 1239.17,1024.11 L 791.553,1282.54 Z " />
<path stroke="transparent" fill="#000000" transform="matrix(0.0666667 0 0 0.0666667 -44.0667 -13.3333)" d="M 724.553,1826.54 L 704.553,1838.08 L 704.553,1226.54 L 724.553,1238.08 L 724.553,1826.54 Z " />
<path stroke="transparent" fill="#000000" transform="matrix(0.0666667 0 0 0.0666667 -44.0667 -13.3333)" d="M 1234.17,2120.76 L 1234.17,2143.86 L 704.553,1838.08 L 724.553,1826.54 L 1234.17,2120.76 Z " />
<path stroke="transparent" fill="#000000" transform="matrix(0.0666667 0 0 0.0666667 -44.0667 -13.3333)" d="M 1239.17,2040.51 L 1229.17,2057.83 L 781.553,1799.4 L 791.553,1782.08 L 1239.17,2040.51 Z " />
<path stroke="transparent" fill="#000000" transform="matrix(0.0666667 0 0 0.0666667 -44.0667 -13.3333)" d="M 1743.78,1826.54 L 1763.78,1838.08 L 1234.17,2143.86 L 1234.17,2120.76 L 1743.78,1826.54 Z " />
<path stroke="transparent" fill="#000000" transform="matrix(0.0666667 0 0 0.0666667 -44.0667 -13.3333)" d="M 1763.78,1838.08 L 1743.78,1826.54 L 1743.78,1238.08 L 1753.78,1232.31 L 1763.78,1238.08 L 1763.78,1838.08 Z " />
<path stroke="transparent" fill="#000000" transform="matrix(0.0666667 0 0 0.0666667 -44.0667 -13.3333)" d="M 1691.78,1790.74 L 1671.78,1790.74 L 1671.78,1273.88 L 1691.78,1273.88 L 1691.78,1790.74 Z " />
<path stroke="transparent" fill="#000000" transform="matrix(0.0666667 0 0 0.0666667 -44.0667 -13.3333)" d="M 2227.4,452.143 L 2247.4,452.143 L 2247.4,953.094 L 2227.4,953.094 L 2227.4,452.143 Z " />
<path stroke="transparent" fill="#000000" transform="matrix(0.0666667 0 0 0.0666667 -44.0667 -13.3333)" d="M 2299.4,452.143 L 2319.4,452.143 L 2319.4,953.094 L 2299.4,953.094 L 2299.4,452.143 Z " />
<path stroke="transparent" fill="#000000" transform="matrix(0.0666667 0 0 0.0666667 -44.0667 -13.3333)" d="M 2704.33,1169.56 L 2694.33,1186.88 L 2273.4,943.857 L 2273.4,920.763 L 2704.33,1169.56 Z " />
</svg>
