<?xml version="1.0" standalone="no" ?>
<!DOCTYPE svg PUBLIC "-//W3C//DTD SVG 1.1//EN" "http://www.w3.org/Graphics/SVG/1.1/DTD/svg11.dtd">
<svg width="299px" height="206px" viewBox="0 0 299 206" style="background-color: #ffffff00" xmlns="http://www.w3.org/2000/svg" xmlns:xlink="http://www.w3.org/1999/xlink" version="1.1" >
<text x="0" y="0" stroke="transparent" fill="#000000" transform="matrix(0.0666667 0 0 0.0666667 151.485 119.111)" style="font:normal normal normal 200px 'Arial'" >
O</text>
<text x="0" y="0" stroke="transparent" fill="#000000" transform="matrix(0.0666667 0 0 0.0666667 46.6318 203.047)" style="font:normal normal normal 200px 'Arial'" >
H</text>
<text x="0" y="0" stroke="transparent" fill="#000000" transform="matrix(0.0666667 0 0 0.0666667 104.456 14.5637)" style="font:normal normal normal 200px 'Arial'" >
O</text>
<text x="0" y="0" stroke="transparent" fill="#000000" transform="matrix(0.0666667 0 0 0.0666667 158.623 57.7604)" style="font:normal normal normal 200px 'Arial'" >
OH</text>
<text x="0" y="0" stroke="transparent" fill="#000000" transform="matrix(0.0666667 0 0 0.0666667 46.6318 35.174)" style="font:normal normal normal 200px 'Arial'" >
H</text>
<text x="0" y="0" stroke="transparent" fill="#000000" transform="matrix(0.0666667 0 0 0.0666667 38.1333 118.867)" style="font:normal normal normal 200px 'Arial'" >
N</text>
<text x="0" y="0" stroke="transparent" fill="#000000" transform="matrix(0.0666667 0 0 0.0666667 186.36 178.975)" style="font:normal normal normal 200px 'Arial'" >
O</text>
<path stroke="transparent" fill="#000000" transform="matrix(0.0666667 0 0 0.0666667 -37.0667 -22.3333)" d="M 1362.53,3194.07 L 1343.03,3189.62 L 1449.84,2721.65 L 1460.99,2717.75 L 1469.34,2726.11 L 1362.53,3194.07 Z " />
<path stroke="transparent" fill="#000000" transform="matrix(0.0666667 0 0 0.0666667 -37.0667 -22.3333)" d="M 2039.03,2575.56 L 2052.87,2592.92 L 1469.34,2726.11 L 1460.99,2717.75 L 1467.92,2705.92 L 2039.03,2575.56 Z " />
<path stroke="transparent" fill="#000000" transform="matrix(0.0666667 0 0 0.0666667 -37.0667 -22.3333)" d="M 2295.18,2043.66 L 2306.28,2043.66 L 2312.27,2054.27 L 2052.87,2592.92 L 2039.03,2575.56 L 2295.18,2043.66 Z " />
<path stroke="transparent" fill="#000000" transform="matrix(0.0666667 0 0 0.0666667 -37.0667 -22.3333)" d="M 2798.28,1983.66 L 2798.28,2103.66 L 2312.27,2054.27 L 2306.28,2043.66 L 2312.27,2033.05 L 2798.28,1983.66 Z " />
<path stroke="transparent" fill="#000000" transform="matrix(0.0666667 0 0 0.0666667 -37.0667 -22.3333)" d="M 2039.03,1511.76 L 2045.95,1503.08 L 2057.92,1504.9 L 2312.27,2033.05 L 2306.28,2043.66 L 2295.18,2043.66 L 2039.03,1511.76 Z " />
<path stroke="transparent" fill="#000000" transform="matrix(0.0666667 0 0 0.0666667 -37.0667 -22.3333)" d="M 2360.83,1014.94 L 2483.66,1053.68 L 2057.92,1504.9 L 2045.95,1503.08 L 2041.5,1491.81 L 2360.83,1014.94 Z " />
<path stroke="transparent" fill="#000000" transform="matrix(0.0666667 0 0 0.0666667 -37.0667 -22.3333)" d="M 2202.5,605.597 L 2221.11,598.29 L 2403.43,1062.83 L 2384.81,1070.13 L 2202.5,605.597 Z " />
<path stroke="transparent" fill="#000000" transform="matrix(0.0666667 0 0 0.0666667 -37.0667 -22.3333)" d="M 2269.52,579.292 L 2288.14,571.986 L 2470.45,1036.52 L 2451.84,1043.83 L 2269.52,579.292 Z " />
<path stroke="transparent" fill="#000000" transform="matrix(0.0666667 0 0 0.0666667 -37.0667 -22.3333)" d="M 2908.79,1097.53 L 2905.81,1117.31 L 2483.66,1053.68 L 2360.83,1014.94 L 2908.79,1097.53 Z " />
<path stroke="transparent" fill="#000000" transform="matrix(0.0666667 0 0 0.0666667 -37.0667 -22.3333)" d="M 1467.88,1381.4 L 1460.99,1369.57 L 1469.34,1361.22 L 2041.5,1491.81 L 2045.95,1503.08 L 2039.03,1511.76 L 1467.88,1381.4 Z " />
<path stroke="transparent" fill="#000000" transform="matrix(0.0666667 0 0 0.0666667 -37.0667 -22.3333)" d="M 1346.14,911.326 L 1365.64,906.876 L 1469.34,1361.22 L 1460.99,1369.57 L 1449.84,1365.67 L 1346.14,911.326 Z " />
<path stroke="transparent" fill="#000000" transform="matrix(0.0666667 0 0 0.0666667 -37.0667 -22.3333)" d="M 1299.09,1950.85 L 1187.26,1907.32 L 1432.59,1405 L 1460.99,1369.57 L 1467.88,1381.4 L 1299.09,1950.85 Z " />
<path stroke="transparent" fill="#000000" transform="matrix(0.0666667 0 0 0.0666667 -37.0667 -22.3333)" d="M 1192.11,2186.47 L 1304.09,2143.34 L 1467.92,2705.92 L 1460.99,2717.75 L 1432.8,2682.48 L 1192.11,2186.47 Z " />
<path stroke="transparent" fill="#000000" transform="matrix(0.0666667 0 0 0.0666667 -37.0667 -22.3333)" d="M 1001.89,1748.48 L 981.89,1738.84 L 1449.84,1365.67 L 1460.99,1369.57 L 1432.59,1405 L 1001.89,1748.48 Z " />
<path stroke="transparent" fill="#000000" transform="matrix(0.0666667 0 0 0.0666667 -37.0667 -22.3333)" d="M 1001.89,2338.84 L 981.89,2348.48 L 981.89,2089.6 L 1001.89,2089.64 L 1001.89,2338.84 L 1001.89,2338.84 Z " />
<path stroke="transparent" fill="#000000" transform="matrix(0.0666667 0 0 0.0666667 -37.0667 -22.3333)" d="M 981.89,1738.84 L 1001.89,1748.48 L 1001.89,1989.64 L 981.89,1989.6 L 981.89,1738.84 L 981.89,1738.84 Z " />
<path stroke="transparent" fill="#000000" transform="matrix(0.0666667 0 0 0.0666667 -37.0667 -22.3333)" d="M 981.89,2348.48 L 1001.89,2338.84 L 1432.8,2682.48 L 1460.99,2717.75 L 1449.84,2721.65 L 981.89,2348.48 Z " />
<path stroke="transparent" fill="#000000" transform="matrix(0.0666667 0 0 0.0666667 -37.0667 -22.3333)" d="M 3935.48,2033.87 L 3945.5,2039.6 L 3945.54,2051.15 L 3427.1,2353.18 L 3427.01,2330.08 L 3935.48,2033.87 Z " />
<path stroke="transparent" fill="#000000" transform="matrix(0.0666667 0 0 0.0666667 -37.0667 -22.3333)" d="M 3933.13,1433.87 L 3953.18,1445.34 L 3955.48,2033.79 L 3945.5,2039.6 L 3935.48,2033.87 L 3933.13,1433.87 Z " />
<path stroke="transparent" fill="#000000" transform="matrix(0.0666667 0 0 0.0666667 -37.0667 -22.3333)" d="M 4461.55,1126.04 L 4461.64,1149.13 L 3953.18,1445.34 L 3933.13,1433.87 L 4461.55,1126.04 Z " />
<path stroke="transparent" fill="#000000" transform="matrix(0.0666667 0 0 0.0666667 -37.0667 -22.3333)" d="M 4456.89,1212.08 L 4466.96,1229.36 L 4020.35,1489.54 L 4010.29,1472.26 L 4456.89,1212.08 Z " />
<path stroke="transparent" fill="#000000" transform="matrix(0.0666667 0 0 0.0666667 -37.0667 -22.3333)" d="M 4992.36,1429.74 L 4972.4,1441.37 L 4461.64,1149.13 L 4461.55,1126.04 L 4992.36,1429.74 Z " />
<path stroke="transparent" fill="#000000" transform="matrix(0.0666667 0 0 0.0666667 -37.0667 -22.3333)" d="M 4994.74,2041.28 L 4974.7,2029.81 L 4972.4,1441.37 L 4992.36,1429.74 L 4994.74,2041.28 Z " />
<path stroke="transparent" fill="#000000" transform="matrix(0.0666667 0 0 0.0666667 -37.0667 -22.3333)" d="M 4922.56,1994.22 L 4902.56,1994.3 L 4900.54,1477.44 L 4920.54,1477.36 L 4922.56,1994.22 Z " />
<path stroke="transparent" fill="#000000" transform="matrix(0.0666667 0 0 0.0666667 -37.0667 -22.3333)" d="M 4466.33,2349.12 L 4466.24,2326.03 L 4974.7,2029.81 L 4994.74,2041.28 L 4466.33,2349.12 Z " />
<path stroke="transparent" fill="#000000" transform="matrix(0.0666667 0 0 0.0666667 -37.0667 -22.3333)" d="M 4466.24,2326.03 L 4466.33,2349.12 L 3945.54,2051.15 L 3945.5,2039.6 L 3955.48,2033.79 L 4466.24,2326.03 Z " />
<path stroke="transparent" fill="#000000" transform="matrix(0.0666667 0 0 0.0666667 -37.0667 -22.3333)" d="M 4470.92,2245.76 L 4460.99,2263.12 L 4012.37,2006.43 L 4022.3,1989.07 L 4470.92,2245.76 Z " />
<path stroke="transparent" fill="#000000" transform="matrix(0.0666667 0 0 0.0666667 -37.0667 -22.3333)" d="M 3474.99,2836.28 L 3454.99,2836.36 L 3452.98,2320.74 L 3472.98,2320.67 L 3474.99,2836.28 Z " />
<path stroke="transparent" fill="#000000" transform="matrix(0.0666667 0 0 0.0666667 -37.0667 -22.3333)" d="M 3402.99,2836.56 L 3382.99,2836.64 L 3380.98,2321.03 L 3400.98,2320.95 L 3402.99,2836.56 Z " />
<path stroke="transparent" fill="#000000" transform="matrix(0.0666667 0 0 0.0666667 -37.0667 -22.3333)" d="M 3427.01,2330.08 L 3427.1,2353.18 L 3001.53,2109.68 L 3011.46,2092.32 L 3427.01,2330.08 Z " />
<path stroke="transparent" fill="#000000" transform="matrix(0.0666667 0 0 0.0666667 -37.0667 -22.3333)" d="M 599.983,2048.9 L 600.019,2028.9 L 1104.02,2029.82 L 1103.98,2049.82 L 599.983,2048.9 Z " />
</svg>
