<?xml version="1.0" standalone="no" ?>
<!DOCTYPE svg PUBLIC "-//W3C//DTD SVG 1.1//EN" "http://www.w3.org/Graphics/SVG/1.1/DTD/svg11.dtd">
<svg width="243px" height="118px" viewBox="0 0 243 118" style="background-color: #ffffffff" xmlns="http://www.w3.org/2000/svg" xmlns:xlink="http://www.w3.org/1999/xlink" version="1.1" >
<text x="0" y="0" stroke="transparent" fill="#000000" transform="matrix(0.05 0 0 0.05 2.13975 83.3207)" style="font:normal normal normal 435.8px 'Arial'" >
HO</text>
<text x="0" y="0" stroke="transparent" fill="#000000" transform="matrix(0.05 0 0 0.05 2.13975 20.5641)" style="font:normal normal normal 435.8px 'Arial'" >
HO</text>
<text x="0" y="0" stroke="transparent" fill="#000000" transform="matrix(0.05 0 0 0.05 180.928 114.699)" style="font:normal normal normal 435.8px 'Arial'" >
O</text>
<text x="0" y="0" stroke="transparent" fill="#000000" transform="matrix(0.05 0 0 0.05 208.101 67.6315)" style="font:normal normal normal 435.8px 'Arial'" >
OH</text>
<path stroke="transparent" fill="#000000" transform="matrix(0.05 0 0 0.05 -321 -98)" d="M 9664.57,3176.41 L 9664.57,3146.21 L 10208,3460 L 10208,3490.19 L 9664.57,3176.41 Z " />
<path stroke="transparent" fill="#000000" transform="matrix(0.05 0 0 0.05 -321 -98)" d="M 8577.42,3176.41 L 8577.42,3161.31 L 8590.49,3153.76 L 9121.1,3460 L 9121.1,3490.19 L 8577.42,3176.41 Z " />
<path stroke="transparent" fill="#000000" transform="matrix(0.05 0 0 0.05 -321 -98)" d="M 8033.95,3490.19 L 8033.95,3460 L 8564.35,3153.76 L 8577.42,3161.31 L 8577.42,3176.41 L 8033.95,3490.19 Z " />
<path stroke="transparent" fill="#000000" transform="matrix(0.05 0 0 0.05 -321 -98)" d="M 7490.48,3176.41 L 7490.48,3161.31 L 7503.55,3153.76 L 8033.95,3460 L 8033.95,3490.19 L 7490.48,3176.41 Z " />
<path stroke="transparent" fill="#000000" transform="matrix(0.05 0 0 0.05 -321 -98)" d="M 7596.9,3107.42 L 7609.97,3084.77 L 8040.49,3333.34 L 8027.41,3355.98 L 7596.9,3107.42 Z " />
<path stroke="transparent" fill="#000000" transform="matrix(0.05 0 0 0.05 -321 -98)" d="M 7151.29,3372.25 L 7138.21,3349.6 L 7477.4,3153.76 L 7490.48,3161.31 L 7490.48,3176.41 L 7151.29,3372.25 Z " />
<path stroke="transparent" fill="#000000" transform="matrix(0.05 0 0 0.05 -321 -98)" d="M 7477.4,2541.29 L 7490.48,2533.75 L 7503.55,2541.29 L 7503.55,3153.76 L 7490.48,3161.31 L 7477.4,3153.76 L 7477.4,2541.29 Z " />
<path stroke="transparent" fill="#000000" transform="matrix(0.05 0 0 0.05 -321 -98)" d="M 7133.76,2342.88 L 7146.83,2320.24 L 7490.48,2518.65 L 7490.48,2533.75 L 7477.4,2541.29 L 7133.76,2342.88 Z " />
<path stroke="transparent" fill="#000000" transform="matrix(0.05 0 0 0.05 -321 -98)" d="M 8033.95,2204.87 L 8033.95,2235.06 L 7503.55,2541.29 L 7490.48,2533.75 L 7490.48,2518.65 L 8033.95,2204.87 Z " />
<path stroke="transparent" fill="#000000" transform="matrix(0.05 0 0 0.05 -321 -98)" d="M 8027.41,2339.08 L 8040.49,2361.72 L 7609.97,2610.28 L 7596.9,2587.64 L 8027.41,2339.08 Z " />
<path stroke="transparent" fill="#000000" transform="matrix(0.05 0 0 0.05 -321 -98)" d="M 8590.49,2526.2 L 8564.35,2541.29 L 8033.95,2235.06 L 8033.95,2204.87 L 8590.49,2526.2 Z " />
<path stroke="transparent" fill="#000000" transform="matrix(0.05 0 0 0.05 -321 -98)" d="M 8564.35,2541.29 L 8590.49,2526.2 L 8590.49,3153.76 L 8577.42,3161.31 L 8564.35,3153.76 L 8564.35,2541.29 Z " />
<path stroke="transparent" fill="#000000" transform="matrix(0.05 0 0 0.05 -321 -98)" d="M 8451.38,2598.96 L 8477.53,2598.96 L 8477.53,3096.09 L 8451.38,3096.09 L 8451.38,2598.96 Z " />
<path stroke="transparent" fill="#000000" transform="matrix(0.05 0 0 0.05 -321 -98)" d="M 10277.6,3866.25 L 10251.5,3866.25 L 10251.5,3442.48 L 10277.6,3442.48 L 10277.6,3866.25 Z " />
<path stroke="transparent" fill="#000000" transform="matrix(0.05 0 0 0.05 -321 -98)" d="M 10164.6,3866.25 L 10138.5,3866.25 L 10138.5,3442.48 L 10164.6,3442.48 L 10164.6,3866.25 Z " />
<path stroke="transparent" fill="#000000" transform="matrix(0.05 0 0 0.05 -321 -98)" d="M 10552.5,3261.12 L 10565.6,3283.77 L 10208,3490.19 L 10208,3460 L 10552.5,3261.12 Z " />
<path stroke="transparent" fill="#000000" transform="matrix(0.05 0 0 0.05 -321 -98)" d="M 9121.1,3490.19 L 9121.1,3460 L 9664.57,3146.21 L 9664.57,3176.41 L 9121.1,3490.19 Z " />
<path stroke="transparent" fill="#000000" transform="matrix(0.05 0 0 0.05 -321 -98)" d="M 9184.12,3584.24 L 9171.04,3561.6 L 9658.04,3280.42 L 9671.11,3303.07 L 9184.12,3584.24 Z " />
</svg>
