<?xml version="1.0" standalone="no" ?>
<!DOCTYPE svg PUBLIC "-//W3C//DTD SVG 1.1//EN" "http://www.w3.org/Graphics/SVG/1.1/DTD/svg11.dtd">
<svg width="262px" height="114px" viewBox="0 0 262 114" style="background-color: #ffffffff" xmlns="http://www.w3.org/2000/svg" xmlns:xlink="http://www.w3.org/1999/xlink" version="1.1" >
<text x="0" y="0" stroke="transparent" fill="#000000" transform="matrix(0.05 0 0 0.05 218.447 100.759)" style="font:normal normal normal 299px 'Arial'" >
O</text>
<text x="0" y="0" stroke="transparent" fill="#000000" transform="matrix(0.05 0 0 0.05 237.09 68.4667)" style="font:normal normal normal 299px 'Arial'" >
OH</text>
<text x="0" y="0" stroke="transparent" fill="#000000" transform="matrix(0.05 0 0 0.05 181.159 14.6455)" style="font:normal normal normal 299px 'Arial'" >
OH</text>
<text x="0" y="0" stroke="transparent" fill="#000000" transform="matrix(0.05 0 0 0.05 133.076 36.174)" style="font:normal normal normal 299px 'Arial'" >
HO</text>
<text x="0" y="0" stroke="transparent" fill="#000000" transform="matrix(0.05 0 0 0.05 199.803 89.9951)" style="font:normal normal normal 299px 'Arial'" >
OH</text>
<text x="0" y="0" stroke="transparent" fill="#000000" transform="matrix(0.05 0 0 0.05 143.872 79.2309)" style="font:normal normal normal 299px 'Arial'" >
O</text>
<text x="0" y="0" stroke="transparent" fill="#000000" transform="matrix(0.05 0 0 0.05 125.228 46.9382)" style="font:normal normal normal 299px 'Arial'" >
O</text>
<text x="0" y="0" stroke="transparent" fill="#000000" transform="matrix(0.05 0 0 0.05 2.5629 111.524)" style="font:normal normal normal 299px 'Arial'" >
HO</text>
<text x="0" y="0" stroke="transparent" fill="#000000" transform="matrix(0.05 0 0 0.05 2.5629 68.4667)" style="font:normal normal normal 299px 'Arial'" >
HO</text>
<path stroke="transparent" fill="#000000" transform="matrix(0.05 0 0 0.05 -289 -80)" d="M 9519.47,3091.16 L 9519.47,3070.44 L 9883.37,2860.34 L 9892.34,2865.51 L 9892.34,2875.87 L 9519.47,3091.16 Z " />
<path stroke="transparent" fill="#000000" transform="matrix(0.05 0 0 0.05 -289 -80)" d="M 9147.23,2876.24 L 9146.6,2865.51 L 9155.57,2860.34 L 9519.47,3070.44 L 9519.47,3091.16 L 9147.23,2876.24 Z " />
<path stroke="transparent" fill="#000000" transform="matrix(0.05 0 0 0.05 -289 -80)" d="M 9137.63,2429.77 L 9155.57,2440.12 L 9155.57,2860.34 L 9146.6,2865.51 L 9137.63,2859.61 L 9137.63,2429.77 Z " />
<path stroke="transparent" fill="#000000" transform="matrix(0.05 0 0 0.05 -289 -80)" d="M 9519.47,2209.3 L 9519.47,2230.02 L 9155.57,2440.12 L 9137.63,2429.77 L 9519.47,2209.3 Z " />
<path stroke="transparent" fill="#000000" transform="matrix(0.05 0 0 0.05 -289 -80)" d="M 9901.31,2429.77 L 9883.37,2440.12 L 9519.47,2230.02 L 9519.47,2209.3 L 9901.31,2429.77 Z " />
<path stroke="transparent" fill="#000000" transform="matrix(0.05 0 0 0.05 -289 -80)" d="M 9883.37,2440.12 L 9901.31,2429.77 L 9901.31,2860.34 L 9892.34,2865.51 L 9883.37,2860.34 L 9883.37,2440.12 Z " />
<path stroke="transparent" fill="#000000" transform="matrix(0.05 0 0 0.05 -289 -80)" d="M 10312.9,3348.68 L 10295,3348.68 L 10295,3058.43 L 10312.9,3058.43 L 10312.9,3348.68 Z " />
<path stroke="transparent" fill="#000000" transform="matrix(0.05 0 0 0.05 -289 -80)" d="M 10235.4,3348.68 L 10217.5,3348.68 L 10217.5,3058.43 L 10235.4,3058.43 L 10235.4,3348.68 Z " />
<path stroke="transparent" fill="#000000" transform="matrix(0.05 0 0 0.05 -289 -80)" d="M 10501.1,2934.25 L 10510.1,2949.79 L 10265.2,3091.16 L 10265.2,3070.44 L 10501.1,2934.25 Z " />
<path stroke="transparent" fill="#000000" transform="matrix(0.05 0 0 0.05 -289 -80)" d="M 10265.2,3070.44 L 10265.2,3091.16 L 9892.34,2875.87 L 9892.34,2865.51 L 9901.31,2860.34 L 10265.2,3070.44 Z " />
<path stroke="transparent" fill="#000000" transform="matrix(0.05 0 0 0.05 -289 -80)" d="M 9474.62,1944.08 L 9564.32,1944.08 L 9561.11,1962.02 L 9477.83,1962.02 L 9474.62,1944.08 Z " />
<path stroke="transparent" fill="#000000" transform="matrix(0.05 0 0 0.05 -289 -80)" d="M 9490.96,2035.45 L 9547.99,2035.45 L 9544.78,2053.39 L 9494.17,2053.39 L 9490.96,2035.45 Z " />
<path stroke="transparent" fill="#000000" transform="matrix(0.05 0 0 0.05 -289 -80)" d="M 9507.29,2126.81 L 9531.65,2126.81 L 9528.44,2144.75 L 9510.5,2144.75 L 9507.29,2126.81 Z " />
<path stroke="transparent" fill="#000000" transform="matrix(0.05 0 0 0.05 -289 -80)" d="M 8884.18,2335.22 L 8929.03,2257.54 L 8942.98,2269.27 L 8901.31,2341.44 L 8884.18,2335.22 Z " />
<path stroke="transparent" fill="#000000" transform="matrix(0.05 0 0 0.05 -289 -80)" d="M 8972.2,2367.17 L 9000.7,2317.8 L 9014.65,2329.53 L 8989.33,2373.38 L 8972.2,2367.17 Z " />
<path stroke="transparent" fill="#000000" transform="matrix(0.05 0 0 0.05 -289 -80)" d="M 9060.22,2399.11 L 9072.38,2378.06 L 9086.32,2389.79 L 9077.35,2405.32 L 9060.22,2399.11 Z " />
<path stroke="transparent" fill="#000000" transform="matrix(0.05 0 0 0.05 -289 -80)" d="M 9937.19,3133.4 L 9847.49,3133.4 L 9850.83,3115.46 L 9933.86,3115.46 L 9937.19,3133.4 Z " />
<path stroke="transparent" fill="#000000" transform="matrix(0.05 0 0 0.05 -289 -80)" d="M 9920.92,3045.92 L 9863.77,3045.92 L 9867.1,3027.98 L 9917.59,3027.98 L 9920.92,3045.92 Z " />
<path stroke="transparent" fill="#000000" transform="matrix(0.05 0 0 0.05 -289 -80)" d="M 9904.65,2958.45 L 9880.04,2958.45 L 9883.37,2940.51 L 9901.31,2940.51 L 9904.65,2958.45 Z " />
<path stroke="transparent" fill="#000000" transform="matrix(0.05 0 0 0.05 -289 -80)" d="M 8027.84,3091.16 L 8027.84,3070.44 L 8400.85,2855.16 L 8400.85,2875.87 L 8027.84,3091.16 Z " />
<path stroke="transparent" fill="#000000" transform="matrix(0.05 0 0 0.05 -289 -80)" d="M 7654.96,2875.87 L 7654.96,2855.16 L 8027.84,3070.44 L 8027.84,3091.16 L 7654.96,2875.87 Z " />
<path stroke="transparent" fill="#000000" transform="matrix(0.05 0 0 0.05 -289 -80)" d="M 7650.48,2962.77 L 7659.45,2947.24 L 7993.57,3140.15 L 7984.6,3155.68 L 7650.48,2962.77 Z " />
<path stroke="transparent" fill="#000000" transform="matrix(0.05 0 0 0.05 -289 -80)" d="M 8353.13,2589.94 L 8371.07,2589.94 L 8371.07,2887.88 L 8353.13,2887.88 L 8353.13,2589.94 Z " />
<path stroke="transparent" fill="#000000" transform="matrix(0.05 0 0 0.05 -289 -80)" d="M 8430.63,2589.94 L 8448.57,2589.94 L 8448.57,2887.89 L 8430.63,2887.89 L 8430.63,2589.94 Z " />
<path stroke="transparent" fill="#000000" transform="matrix(0.05 0 0 0.05 -289 -80)" d="M 6909.22,2875.87 L 6909.22,2855.16 L 7282.09,3070.44 L 7282.09,3080.8 L 7273.12,3085.98 L 6909.22,2875.87 Z " />
<path stroke="transparent" fill="#000000" transform="matrix(0.05 0 0 0.05 -289 -80)" d="M 6545.31,3085.98 L 6536.34,3080.8 L 6536.34,3070.44 L 6909.22,2855.16 L 6909.22,2875.87 L 6545.31,3085.98 Z " />
<path stroke="transparent" fill="#000000" transform="matrix(0.05 0 0 0.05 -289 -80)" d="M 6618.33,3133.31 L 6609.36,3117.78 L 6904.73,2947.24 L 6913.7,2962.77 L 6618.33,3133.31 Z " />
<path stroke="transparent" fill="#000000" transform="matrix(0.05 0 0 0.05 -289 -80)" d="M 6545.31,3506.19 L 6536.34,3511.37 L 6527.38,3506.19 L 6527.38,3085.98 L 6536.34,3080.8 L 6545.31,3085.98 L 6545.31,3506.19 Z " />
<path stroke="transparent" fill="#000000" transform="matrix(0.05 0 0 0.05 -289 -80)" d="M 6909.22,3716.3 L 6909.22,3737.01 L 6536.34,3521.73 L 6536.34,3511.37 L 6545.31,3506.19 L 6909.22,3716.3 Z " />
<path stroke="transparent" fill="#000000" transform="matrix(0.05 0 0 0.05 -289 -80)" d="M 6913.7,3629.39 L 6904.73,3644.93 L 6609.36,3474.39 L 6618.33,3458.86 L 6913.7,3629.39 Z " />
<path stroke="transparent" fill="#000000" transform="matrix(0.05 0 0 0.05 -289 -80)" d="M 7273.12,3506.19 L 7291.06,3516.55 L 6909.22,3737.01 L 6909.22,3716.3 L 7273.12,3506.19 Z " />
<path stroke="transparent" fill="#000000" transform="matrix(0.05 0 0 0.05 -289 -80)" d="M 7291.06,3516.55 L 7273.12,3506.19 L 7273.12,3085.98 L 7282.09,3080.8 L 7291.06,3085.98 L 7291.06,3516.55 Z " />
<path stroke="transparent" fill="#000000" transform="matrix(0.05 0 0 0.05 -289 -80)" d="M 7213.56,3466.62 L 7195.62,3466.62 L 7195.62,3125.54 L 7213.56,3125.54 L 7213.56,3466.62 Z " />
<path stroke="transparent" fill="#000000" transform="matrix(0.05 0 0 0.05 -289 -80)" d="M 6303.85,3655.96 L 6294.88,3640.42 L 6527.38,3506.19 L 6536.34,3511.37 L 6536.34,3521.73 L 6303.85,3655.96 Z " />
<path stroke="transparent" fill="#000000" transform="matrix(0.05 0 0 0.05 -289 -80)" d="M 6291.87,2950 L 6300.84,2934.47 L 6536.34,3070.44 L 6536.34,3080.8 L 6527.38,3085.98 L 6291.87,2950 Z " />
<path stroke="transparent" fill="#000000" transform="matrix(0.05 0 0 0.05 -289 -80)" d="M 7291.06,3085.98 L 7282.09,3080.8 L 7282.09,3070.44 L 7654.96,2855.16 L 7654.96,2875.87 L 7291.06,3085.98 Z " />
<path stroke="transparent" fill="#000000" transform="matrix(0.05 0 0 0.05 -289 -80)" d="M 8400.85,2875.87 L 8400.85,2855.16 L 8642.14,2994.47 L 8633.17,3010 L 8400.85,2875.87 Z " />
<path stroke="transparent" fill="#000000" transform="matrix(0.05 0 0 0.05 -289 -80)" d="M 8932,3041.21 L 8887.14,2963.53 L 9137.63,2859.61 L 9146.6,2865.51 L 9147.23,2876.24 L 8932,3041.21 Z " />
</svg>
