<?xml version="1.0" standalone="no" ?>
<!DOCTYPE svg PUBLIC "-//W3C//DTD SVG 1.1//EN" "http://www.w3.org/Graphics/SVG/1.1/DTD/svg11.dtd">
<svg width="230px" height="133px" viewBox="0 0 230 133" style="background-color: #ffffff00" xmlns="http://www.w3.org/2000/svg" xmlns:xlink="http://www.w3.org/1999/xlink" version="1.1" >
<text x="0" y="0" stroke="transparent" fill="#000000" transform="matrix(0.0666667 0 0 0.0666667 171.934 14.0207)" style="font:normal normal normal 200px 'Arial'" >
O</text>
<text x="0" y="0" stroke="transparent" fill="#000000" transform="matrix(0.0666667 0 0 0.0666667 206.575 74.0207)" style="font:normal normal normal 200px 'Arial'" >
OH</text>
<path stroke="transparent" fill="#000000" transform="matrix(0.0666667 0 0 0.0666667 -26.0667 -9.33333)" d="M 2528.4,1183.86 L 2528.4,1160.76 L 3048.01,860.763 L 3048.01,883.857 L 2528.4,1183.86 Z " />
<path stroke="transparent" fill="#000000" transform="matrix(0.0666667 0 0 0.0666667 -26.0667 -9.33333)" d="M 2008.78,883.857 L 2008.78,860.763 L 2528.4,1160.76 L 2528.4,1183.86 L 2008.78,883.857 Z " />
<path stroke="transparent" fill="#000000" transform="matrix(0.0666667 0 0 0.0666667 -26.0667 -9.33333)" d="M 2003.78,964.109 L 2013.78,946.788 L 2497.4,1226 L 2487.4,1243.32 L 2003.78,964.109 Z " />
<path stroke="transparent" fill="#000000" transform="matrix(0.0666667 0 0 0.0666667 -26.0667 -9.33333)" d="M 1499.17,1178.08 L 1489.17,1172.31 L 1489.17,1160.76 L 2008.78,860.763 L 2008.78,883.857 L 1499.17,1178.08 Z " />
<path stroke="transparent" fill="#000000" transform="matrix(0.0666667 0 0 0.0666667 -26.0667 -9.33333)" d="M 1499.17,1778.08 L 1479.17,1766.54 L 1479.17,1178.08 L 1489.17,1172.31 L 1499.17,1178.08 L 1499.17,1778.08 Z " />
<path stroke="transparent" fill="#000000" transform="matrix(0.0666667 0 0 0.0666667 -26.0667 -9.33333)" d="M 969.553,2083.86 L 969.553,2060.76 L 1479.17,1766.54 L 1499.17,1778.08 L 969.553,2083.86 Z " />
<path stroke="transparent" fill="#000000" transform="matrix(0.0666667 0 0 0.0666667 -26.0667 -9.33333)" d="M 974.553,1997.83 L 964.553,1980.51 L 1412.17,1722.08 L 1422.17,1739.4 L 974.553,1997.83 Z " />
<path stroke="transparent" fill="#000000" transform="matrix(0.0666667 0 0 0.0666667 -26.0667 -9.33333)" d="M 439.937,1778.08 L 459.937,1766.54 L 969.553,2060.76 L 969.553,2083.86 L 439.937,1778.08 Z " />
<path stroke="transparent" fill="#000000" transform="matrix(0.0666667 0 0 0.0666667 -26.0667 -9.33333)" d="M 439.937,1166.54 L 459.937,1178.08 L 459.937,1766.54 L 439.937,1778.08 L 439.937,1166.54 Z " />
<path stroke="transparent" fill="#000000" transform="matrix(0.0666667 0 0 0.0666667 -26.0667 -9.33333)" d="M 511.937,1213.88 L 531.937,1213.88 L 531.937,1730.74 L 511.937,1730.74 L 511.937,1213.88 Z " />
<path stroke="transparent" fill="#000000" transform="matrix(0.0666667 0 0 0.0666667 -26.0667 -9.33333)" d="M 969.553,860.763 L 969.553,883.857 L 459.937,1178.08 L 439.937,1166.54 L 969.553,860.763 Z " />
<path stroke="transparent" fill="#000000" transform="matrix(0.0666667 0 0 0.0666667 -26.0667 -9.33333)" d="M 969.553,883.857 L 969.553,860.763 L 1489.17,1160.76 L 1489.17,1172.31 L 1479.17,1178.08 L 969.553,883.857 Z " />
<path stroke="transparent" fill="#000000" transform="matrix(0.0666667 0 0 0.0666667 -26.0667 -9.33333)" d="M 964.553,964.109 L 974.553,946.788 L 1422.17,1205.22 L 1412.17,1222.54 L 964.553,964.109 Z " />
<path stroke="transparent" fill="#000000" transform="matrix(0.0666667 0 0 0.0666667 -26.0667 -9.33333)" d="M 3002.01,392.143 L 3022.01,392.143 L 3022.01,893.094 L 3002.01,893.094 L 3002.01,392.143 Z " />
<path stroke="transparent" fill="#000000" transform="matrix(0.0666667 0 0 0.0666667 -26.0667 -9.33333)" d="M 3074.01,392.143 L 3094.01,392.143 L 3094.01,893.094 L 3074.01,893.094 L 3074.01,392.143 Z " />
<path stroke="transparent" fill="#000000" transform="matrix(0.0666667 0 0 0.0666667 -26.0667 -9.33333)" d="M 3480.01,1110.18 L 3470.01,1127.5 L 3048.01,883.857 L 3048.01,860.763 L 3480.01,1110.18 Z " />
</svg>
