<?xml version="1.0" standalone="no" ?>
<!DOCTYPE svg PUBLIC "-//W3C//DTD SVG 1.1//EN" "http://www.w3.org/Graphics/SVG/1.1/DTD/svg11.dtd">
<svg width="263px" height="141px" viewBox="0 0 263 141" style="background-color: #ffffffff" xmlns="http://www.w3.org/2000/svg" xmlns:xlink="http://www.w3.org/1999/xlink" version="1.1" >
<text x="0" y="0" stroke="transparent" fill="#000000" transform="matrix(0.05 0 0 0.05 160.618 131.997)" style="font:normal normal normal 611.2px 'Arial'" >
OH</text>
<text x="0" y="0" stroke="transparent" fill="#000000" transform="matrix(0.05 0 0 0.05 176.725 27.876)" style="font:normal normal normal 611.2px 'Arial'" >
O</text>
<text x="0" y="0" stroke="transparent" fill="#000000" transform="matrix(0.05 0 0 0.05 214.835 93.887)" style="font:normal normal normal 611.2px 'Arial'" >
OH</text>
<text x="0" y="0" stroke="transparent" fill="#000000" transform="matrix(0.05 0 0 0.05 62.3793 137.894)" style="font:normal normal normal 611.2px 'Arial'" >
O</text>
<text x="0" y="0" stroke="transparent" fill="#000000" transform="matrix(0.05 0 0 0.05 2.19953 71.8834)" style="font:normal normal normal 611.2px 'Arial'" >
HO</text>
<path stroke="transparent" fill="#000000" transform="matrix(0.05 0 0 0.05 -305 -70)" d="M 9135.05,3072.23 L 9110,3065.52 L 9110,3044.35 L 9872.21,2604.27 L 9872.21,2646.62 L 9135.05,3072.23 Z " />
<path stroke="transparent" fill="#000000" transform="matrix(0.05 0 0 0.05 -305 -70)" d="M 9400.66,3532.26 L 9368.9,3550.6 L 9110,3102.19 L 9110,3065.52 L 9135.05,3072.23 L 9400.66,3532.26 Z " />
<path stroke="transparent" fill="#000000" transform="matrix(0.05 0 0 0.05 -305 -70)" d="M 8685.81,3836.89 L 8654.05,3818.56 L 9084.95,3072.23 L 9110,3065.52 L 9110,3102.19 L 8685.81,3836.89 Z " />
<path stroke="transparent" fill="#000000" transform="matrix(0.05 0 0 0.05 -305 -70)" d="M 8347.5,2646.62 L 8347.5,2604.27 L 9110,3044.35 L 9110,3065.52 L 9084.95,3072.23 L 8347.5,2646.62 Z " />
<path stroke="transparent" fill="#000000" transform="matrix(0.05 0 0 0.05 -305 -70)" d="M 7585.29,3086.69 L 7585.29,3044.35 L 8347.5,2604.27 L 8347.5,2646.62 L 7585.29,3086.69 Z " />
<path stroke="transparent" fill="#000000" transform="matrix(0.05 0 0 0.05 -305 -70)" d="M 9774.66,2062.31 L 9811.33,2062.31 L 9811.33,2671.18 L 9774.66,2671.18 L 9774.66,2062.31 Z " />
<path stroke="transparent" fill="#000000" transform="matrix(0.05 0 0 0.05 -305 -70)" d="M 9933.09,2062.31 L 9969.76,2062.31 L 9969.76,2671.18 L 9933.09,2671.18 L 9933.09,2062.31 Z " />
<path stroke="transparent" fill="#000000" transform="matrix(0.05 0 0 0.05 -305 -70)" d="M 10367,2889.96 L 10348.7,2921.72 L 9872.21,2646.62 L 9872.21,2604.27 L 10367,2889.96 Z " />
<path stroke="transparent" fill="#000000" transform="matrix(0.05 0 0 0.05 -305 -70)" d="M 7682.84,3614.1 L 7646.17,3614.1 L 7646.17,3019.78 L 7682.84,3019.78 L 7682.84,3614.1 Z " />
<path stroke="transparent" fill="#000000" transform="matrix(0.05 0 0 0.05 -305 -70)" d="M 7524.41,3614.1 L 7487.74,3614.1 L 7487.74,3019.78 L 7524.41,3019.78 L 7524.41,3614.1 Z " />
<path stroke="transparent" fill="#000000" transform="matrix(0.05 0 0 0.05 -305 -70)" d="M 7085.07,2797.88 L 7103.41,2766.12 L 7585.29,3044.35 L 7585.29,3086.69 L 7085.07,2797.88 Z " />
</svg>
