<?xml version="1.0" standalone="no" ?>
<!DOCTYPE svg PUBLIC "-//W3C//DTD SVG 1.1//EN" "http://www.w3.org/Graphics/SVG/1.1/DTD/svg11.dtd">
<svg width="224px" height="106px" viewBox="0 0 224 106" style="background-color: #ffffffff" xmlns="http://www.w3.org/2000/svg" xmlns:xlink="http://www.w3.org/1999/xlink" version="1.1" >
<text x="0" y="0" stroke="transparent" fill="#000000" transform="matrix(0.05 0 0 0.05 102.99 103.1)" style="font:normal normal normal 451.8px 'Arial'" >
OH</text>
<text x="0" y="0" stroke="transparent" fill="#000000" transform="matrix(0.05 0 0 0.05 159.331 38.0405)" style="font:normal normal normal 451.8px 'Arial'" >
O</text>
<text x="0" y="0" stroke="transparent" fill="#000000" transform="matrix(0.05 0 0 0.05 187.502 86.8349)" style="font:normal normal normal 451.8px 'Arial'" >
OH</text>
<text x="0" y="0" stroke="transparent" fill="#000000" transform="matrix(0.05 0 0 0.05 74.8087 21.7757)" style="font:normal normal normal 451.8px 'Arial'" >
O</text>
<text x="0" y="0" stroke="transparent" fill="#000000" transform="matrix(0.05 0 0 0.05 131.161 21.7757)" style="font:normal normal normal 451.8px 'Arial'" >
OH</text>
<text x="0" y="0" stroke="transparent" fill="#000000" transform="matrix(0.05 0 0 0.05 46.6381 38.0405)" style="font:normal normal normal 451.8px 'Arial'" >
O</text>
<text x="0" y="0" stroke="transparent" fill="#000000" transform="matrix(0.05 0 0 0.05 2.1537 86.8349)" style="font:normal normal normal 451.8px 'Arial'" >
HO</text>
<path stroke="transparent" fill="#000000" transform="matrix(0.05 0 0 0.05 -351 -102)" d="M 9818.93,3635.47 L 9818.93,3604.17 L 10382.3,3278.88 L 10382.3,3310.18 L 9818.93,3635.47 Z " />
<path stroke="transparent" fill="#000000" transform="matrix(0.05 0 0 0.05 -351 -102)" d="M 9269.07,3318 L 9255.52,3294.53 L 9269.07,3286.7 L 9818.93,3604.17 L 9818.93,3635.47 L 9269.07,3318 Z " />
<path stroke="transparent" fill="#000000" transform="matrix(0.05 0 0 0.05 -351 -102)" d="M 9269.07,3699.87 L 9241.96,3699.87 L 9241.96,3318 L 9255.52,3294.53 L 9269.07,3318 L 9269.07,3699.87 Z " />
<path stroke="transparent" fill="#000000" transform="matrix(0.05 0 0 0.05 -351 -102)" d="M 9241.96,2636.11 L 9269.07,2651.76 L 9269.07,3286.7 L 9255.52,3294.53 L 9241.96,3286.7 L 9241.96,2636.11 Z " />
<path stroke="transparent" fill="#000000" transform="matrix(0.05 0 0 0.05 -351 -102)" d="M 8691.89,3635.47 L 8691.89,3604.17 L 9241.96,3286.7 L 9255.52,3294.53 L 9241.96,3318 L 8691.89,3635.47 Z " />
<path stroke="transparent" fill="#000000" transform="matrix(0.05 0 0 0.05 -351 -102)" d="M 8128.47,3310.18 L 8128.47,3278.88 L 8691.89,3604.17 L 8691.89,3635.47 L 8128.47,3310.18 Z " />
<path stroke="transparent" fill="#000000" transform="matrix(0.05 0 0 0.05 -351 -102)" d="M 10310.2,2878.26 L 10337.3,2878.26 L 10337.3,3328.33 L 10310.2,3328.33 L 10310.2,2878.26 Z " />
<path stroke="transparent" fill="#000000" transform="matrix(0.05 0 0 0.05 -351 -102)" d="M 10427.3,2878.26 L 10454.4,2878.26 L 10454.4,3328.33 L 10427.3,3328.33 L 10427.3,2878.26 Z " />
<path stroke="transparent" fill="#000000" transform="matrix(0.05 0 0 0.05 -351 -102)" d="M 10747.7,3489.85 L 10734.2,3513.32 L 10382.3,3310.18 L 10382.3,3278.88 L 10747.7,3489.85 Z " />
<path stroke="transparent" fill="#000000" transform="matrix(0.05 0 0 0.05 -351 -102)" d="M 8856.26,2496.78 L 8869.81,2473.3 L 9262.29,2699.82 L 9248.74,2723.3 L 8856.26,2496.78 Z " />
<path stroke="transparent" fill="#000000" transform="matrix(0.05 0 0 0.05 -351 -102)" d="M 8914.81,2395.32 L 8928.36,2371.85 L 9320.86,2598.38 L 9307.31,2621.86 L 8914.81,2395.32 Z " />
<path stroke="transparent" fill="#000000" transform="matrix(0.05 0 0 0.05 -351 -102)" d="M 9612.53,2422.16 L 9626.08,2445.63 L 9269.07,2651.76 L 9241.96,2636.11 L 9612.53,2422.16 Z " />
<path stroke="transparent" fill="#000000" transform="matrix(0.05 0 0 0.05 -351 -102)" d="M 8056.37,2878.26 L 8083.47,2878.26 L 8083.47,3328.33 L 8056.37,3328.33 L 8056.37,2878.26 Z " />
<path stroke="transparent" fill="#000000" transform="matrix(0.05 0 0 0.05 -351 -102)" d="M 8173.47,2878.26 L 8200.58,2878.26 L 8200.58,3328.33 L 8173.47,3328.33 L 8173.47,2878.26 Z " />
<path stroke="transparent" fill="#000000" transform="matrix(0.05 0 0 0.05 -351 -102)" d="M 7776.65,3513.31 L 7763.09,3489.83 L 8128.47,3278.88 L 8128.47,3310.18 L 7776.65,3513.31 Z " />
</svg>
