<?xml version="1.0" standalone="no" ?>
<!DOCTYPE svg PUBLIC "-//W3C//DTD SVG 1.1//EN" "http://www.w3.org/Graphics/SVG/1.1/DTD/svg11.dtd">
<svg width="296px" height="205px" viewBox="0 0 296 205" style="background-color: #ffffff00" xmlns="http://www.w3.org/2000/svg" xmlns:xlink="http://www.w3.org/1999/xlink" version="1.1" >
<text x="0" y="0" stroke="transparent" fill="#000000" transform="matrix(0.0666667 0 0 0.0666667 37.1333 157.867)" style="font:normal normal normal 200px 'Arial'" >
N</text>
<text x="0" y="0" stroke="transparent" fill="#000000" transform="matrix(0.0666667 0 0 0.0666667 79.076 43.0906)" style="font:normal normal normal 200px 'Arial'" >
O</text>
<text x="0" y="0" stroke="transparent" fill="#000000" transform="matrix(0.0666667 0 0 0.0666667 139.076 77.7316)" style="font:normal normal normal 200px 'Arial'" >
O</text>
<text x="0" y="0" stroke="transparent" fill="#000000" transform="matrix(0.0666667 0 0 0.0666667 143.013 134.745)" style="font:normal normal normal 200px 'Arial'" >
O</text>
<text x="0" y="0" stroke="transparent" fill="#000000" transform="matrix(0.0666667 0 0 0.0666667 160.944 201.666)" style="font:normal normal normal 200px 'Arial'" >
O</text>
<path stroke="transparent" fill="#000000" transform="matrix(0.0666667 0 0 0.0666667 -35.0667 -9.33333)" d="M 1494.47,3048.79 L 1490.14,3061.98 L 1467.03,3039.75 L 1209.14,2553.43 L 1226.81,2544.06 L 1494.47,3048.79 Z " />
<path stroke="transparent" fill="#000000" transform="matrix(0.0666667 0 0 0.0666667 -35.0667 -9.33333)" d="M 940.881,2808.57 L 958.236,2794.72 L 1467.03,3039.75 L 1490.14,3061.98 L 1490.14,3073.07 L 940.881,2808.57 Z " />
<path stroke="transparent" fill="#000000" transform="matrix(0.0666667 0 0 0.0666667 -35.0667 -9.33333)" d="M 805.225,2214.22 L 826.867,2219.16 L 877.344,2440.32 L 857.818,2444.64 L 805.225,2214.22 L 805.225,2214.22 Z " />
<path stroke="transparent" fill="#000000" transform="matrix(0.0666667 0 0 0.0666667 -35.0667 -9.33333)" d="M 958.236,2794.72 L 940.881,2808.57 L 880.07,2542.14 L 899.597,2537.81 L 958.236,2794.72 L 958.236,2794.72 Z " />
<path stroke="transparent" fill="#000000" transform="matrix(0.0666667 0 0 0.0666667 -35.0667 -9.33333)" d="M 1185.32,1737.59 L 1190.14,1747.59 L 1178.55,1778.16 L 826.867,2219.16 L 805.225,2214.22 L 1185.32,1737.59 Z " />
<path stroke="transparent" fill="#000000" transform="matrix(0.0666667 0 0 0.0666667 -35.0667 -9.33333)" d="M 1178.55,1778.16 L 1190.14,1747.59 L 1199.64,1757.59 L 1170.27,2327.9 L 1150.3,2326.87 L 1178.55,1778.16 Z " />
<path stroke="transparent" fill="#000000" transform="matrix(0.0666667 0 0 0.0666667 -35.0667 -9.33333)" d="M 1784.37,1737.59 L 1790.14,1747.59 L 1785.32,1757.59 L 1199.64,1757.59 L 1190.14,1747.59 L 1185.32,1737.59 L 1784.37,1737.59 Z " />
<path stroke="transparent" fill="#000000" transform="matrix(0.0666667 0 0 0.0666667 -35.0667 -9.33333)" d="M 2078.59,1227.97 L 2101.69,1227.97 L 1802.21,1746.68 L 1790.14,1747.59 L 1784.37,1737.59 L 2078.59,1227.97 Z " />
<path stroke="transparent" fill="#000000" transform="matrix(0.0666667 0 0 0.0666667 -35.0667 -9.33333)" d="M 1842.02,818.213 L 1859.34,808.213 L 2101.69,1227.97 L 2078.59,1227.97 L 1842.02,818.213 Z " />
<path stroke="transparent" fill="#000000" transform="matrix(0.0666667 0 0 0.0666667 -35.0667 -9.33333)" d="M 2081.48,183.743 L 2098.8,193.743 L 1852.05,621.12 L 1834.73,611.12 L 2081.48,183.743 Z " />
<path stroke="transparent" fill="#000000" transform="matrix(0.0666667 0 0 0.0666667 -35.0667 -9.33333)" d="M 2582.14,1181.97 L 2582.14,1201.97 L 2069.36,1201.97 L 2069.36,1181.97 L 2582.14,1181.97 Z " />
<path stroke="transparent" fill="#000000" transform="matrix(0.0666667 0 0 0.0666667 -35.0667 -9.33333)" d="M 2582.14,1253.97 L 2582.14,1273.97 L 2069.36,1273.97 L 2069.36,1253.97 L 2582.14,1253.97 Z " />
<path stroke="transparent" fill="#000000" transform="matrix(0.0666667 0 0 0.0666667 -35.0667 -9.33333)" d="M 2168.13,2205.54 L 2164.23,2216.69 L 2153.41,2219.16 L 1785.32,1757.59 L 1790.14,1747.59 L 1802.21,1746.68 L 2168.13,2205.54 Z " />
<path stroke="transparent" fill="#000000" transform="matrix(0.0666667 0 0 0.0666667 -35.0667 -9.33333)" d="M 2638.98,2098.07 L 2643.43,2117.57 L 2172.58,2225.04 L 2164.23,2216.69 L 2168.13,2205.54 L 2638.98,2098.07 Z " />
<path stroke="transparent" fill="#000000" transform="matrix(0.0666667 0 0 0.0666667 -35.0667 -9.33333)" d="M 3176.44,2496.29 L 3170.47,2518.59 L 2826.32,2174.45 L 2840.46,2160.31 L 3176.44,2496.29 Z " />
<path stroke="transparent" fill="#000000" transform="matrix(0.0666667 0 0 0.0666667 -35.0667 -9.33333)" d="M 3744.84,2343.98 L 3753.01,2352.15 L 3750.02,2363.3 L 3170.47,2518.59 L 3176.44,2496.29 L 3744.84,2343.98 Z " />
<path stroke="transparent" fill="#000000" transform="matrix(0.0666667 0 0 0.0666667 -35.0667 -9.33333)" d="M 3900.14,1764.43 L 3916.47,1780.76 L 3764.16,2349.16 L 3753.01,2352.15 L 3744.84,2343.98 L 3900.14,1764.43 Z " />
<path stroke="transparent" fill="#000000" transform="matrix(0.0666667 0 0 0.0666667 -35.0667 -9.33333)" d="M 4490.85,1606.15 L 4484.87,1628.45 L 3916.47,1780.76 L 3900.14,1764.43 L 4490.85,1606.15 Z " />
<path stroke="transparent" fill="#000000" transform="matrix(0.0666667 0 0 0.0666667 -35.0667 -9.33333)" d="M 4463.75,1687.95 L 4468.93,1707.27 L 3969.68,1841.04 L 3964.5,1821.72 L 4463.75,1687.95 Z " />
<path stroke="transparent" fill="#000000" transform="matrix(0.0666667 0 0 0.0666667 -35.0667 -9.33333)" d="M 4923.27,2038.58 L 4900.97,2044.55 L 4484.87,1628.45 L 4490.85,1606.15 L 4923.27,2038.58 Z " />
<path stroke="transparent" fill="#000000" transform="matrix(0.0666667 0 0 0.0666667 -35.0667 -9.33333)" d="M 4764.99,2629.29 L 4748.66,2612.96 L 4900.97,2044.55 L 4923.27,2038.58 L 4764.99,2629.29 Z " />
<path stroke="transparent" fill="#000000" transform="matrix(0.0666667 0 0 0.0666667 -35.0667 -9.33333)" d="M 4707.7,2564.92 L 4688.38,2559.74 L 4822.16,2060.49 L 4841.47,2065.67 L 4707.7,2564.92 Z " />
<path stroke="transparent" fill="#000000" transform="matrix(0.0666667 0 0 0.0666667 -35.0667 -9.33333)" d="M 4174.29,2787.57 L 4180.26,2765.26 L 4748.66,2612.96 L 4764.99,2629.29 L 4174.29,2787.57 Z " />
<path stroke="transparent" fill="#000000" transform="matrix(0.0666667 0 0 0.0666667 -35.0667 -9.33333)" d="M 4180.26,2765.26 L 4174.29,2787.57 L 3750.02,2363.3 L 3753.01,2352.15 L 3764.16,2349.16 L 4180.26,2765.26 Z " />
<path stroke="transparent" fill="#000000" transform="matrix(0.0666667 0 0 0.0666667 -35.0667 -9.33333)" d="M 4205.86,2689.04 L 4191.72,2703.18 L 3826.24,2337.7 L 3840.39,2323.56 L 4205.86,2689.04 Z " />
<path stroke="transparent" fill="#000000" transform="matrix(0.0666667 0 0 0.0666667 -35.0667 -9.33333)" d="M 3090.01,2996.58 L 3070.69,2991.4 L 3203.95,2494.09 L 3223.27,2499.27 L 3090.01,2996.58 Z " />
<path stroke="transparent" fill="#000000" transform="matrix(0.0666667 0 0 0.0666667 -35.0667 -9.33333)" d="M 3020.47,2977.94 L 3001.15,2972.77 L 3134.4,2475.46 L 3153.72,2480.63 L 3020.47,2977.94 Z " />
<path stroke="transparent" fill="#000000" transform="matrix(0.0666667 0 0 0.0666667 -35.0667 -9.33333)" d="M 2039.4,2808.57 L 2022.04,2794.72 L 2153.41,2219.16 L 2164.23,2216.69 L 2172.58,2225.04 L 2039.4,2808.57 Z " />
<path stroke="transparent" fill="#000000" transform="matrix(0.0666667 0 0 0.0666667 -35.0667 -9.33333)" d="M 2022.04,2794.72 L 2039.4,2808.57 L 1490.14,3073.07 L 1490.14,3061.98 L 1494.47,3048.79 L 2022.04,2794.72 Z " />
<path stroke="transparent" fill="#000000" transform="matrix(0.0666667 0 0 0.0666667 -35.0667 -9.33333)" d="M 571.374,2569.57 L 567.047,2550.05 L 1047.06,2443.68 L 1051.39,2463.2 L 571.374,2569.57 Z " />
</svg>
