<?xml version="1.0" standalone="no" ?>
<!DOCTYPE svg PUBLIC "-//W3C//DTD SVG 1.1//EN" "http://www.w3.org/Graphics/SVG/1.1/DTD/svg11.dtd">
<svg width="330px" height="156px" viewBox="0 0 330 156" style="background-color: #ffffffff" xmlns="http://www.w3.org/2000/svg" xmlns:xlink="http://www.w3.org/1999/xlink" version="1.1" >
<text x="0" y="0" stroke="transparent" fill="#000000" transform="matrix(0.05 0 0 0.05 84.6064 82.8746)" style="font:normal normal normal 366.6px 'Arial'" >
O</text>
<text x="0" y="0" stroke="transparent" fill="#000000" transform="matrix(0.05 0 0 0.05 83.2602 152.7)" style="font:normal normal normal 366.6px 'Arial'" >
OH</text>
<text x="0" y="0" stroke="transparent" fill="#000000" transform="matrix(0.05 0 0 0.05 18.384 141.72)" style="font:normal normal normal 366.6px 'Arial'" >
HO</text>
<text x="0" y="0" stroke="transparent" fill="#000000" transform="matrix(0.05 0 0 0.05 2.07138 91.5149)" style="font:normal normal normal 366.6px 'Arial'" >
HO</text>
<text x="0" y="0" stroke="transparent" fill="#000000" transform="matrix(0.05 0 0 0.05 11.5739 46.7916)" style="font:normal normal normal 366.6px 'Arial'" >
HO</text>
<text x="0" y="0" stroke="transparent" fill="#000000" transform="matrix(0.05 0 0 0.05 118.587 113.467)" style="font:normal normal normal 366.6px 'Arial'" >
O</text>
<text x="0" y="0" stroke="transparent" fill="#000000" transform="matrix(0.05 0 0 0.05 173.235 72.4923)" style="font:normal normal normal 366.6px 'Arial'" >
O</text>
<text x="0" y="0" stroke="transparent" fill="#000000" transform="matrix(0.05 0 0 0.05 185.359 109.807)" style="font:normal normal normal 366.6px 'Arial'" >
O</text>
<text x="0" y="0" stroke="transparent" fill="#000000" transform="matrix(0.05 0 0 0.05 231.076 109.807)" style="font:normal normal normal 366.6px 'Arial'" >
O</text>
<text x="0" y="0" stroke="transparent" fill="#000000" transform="matrix(0.05 0 0 0.05 299.653 96.6092)" style="font:normal normal normal 366.6px 'Arial'" >
OH</text>
<text x="0" y="0" stroke="transparent" fill="#000000" transform="matrix(0.05 0 0 0.05 276.794 57.0156)" style="font:normal normal normal 366.6px 'Arial'" >
OH</text>
<text x="0" y="0" stroke="transparent" fill="#000000" transform="matrix(0.05 0 0 0.05 231.076 30.6198)" style="font:normal normal normal 366.6px 'Arial'" >
OH</text>
<text x="0" y="0" stroke="transparent" fill="#000000" transform="matrix(0.05 0 0 0.05 172.122 57.0156)" style="font:normal normal normal 366.6px 'Arial'" >
HO</text>
<text x="0" y="0" stroke="transparent" fill="#000000" transform="matrix(0.05 0 0 0.05 180.493 17.8443)" style="font:normal normal normal 366.6px 'Arial'" >
OH</text>
<text x="0" y="0" stroke="transparent" fill="#000000" transform="matrix(0.05 0 0 0.05 126.404 136.203)" style="font:normal normal normal 366.6px 'Arial'" >
HO</text>
<text x="0" y="0" stroke="transparent" fill="#000000" transform="matrix(0.05 0 0 0.05 93.4095 57.2971)" style="font:normal normal normal 366.6px 'Arial'" >
HO</text>
<path stroke="transparent" fill="#000000" transform="matrix(0.05 0 0 0.05 -343 -127)" d="M 8870.25,4574.89 L 8845.41,4569.61 L 8743.14,4254.85 L 8764.06,4248.05 L 8870.25,4574.89 Z " />
<path stroke="transparent" fill="#000000" transform="matrix(0.05 0 0 0.05 -343 -127)" d="M 8508.58,4976.74 L 8500.73,4952.59 L 8845.41,4569.61 L 8870.25,4574.89 L 8508.58,4976.74 Z " />
<path stroke="transparent" fill="#000000" transform="matrix(0.05 0 0 0.05 -343 -127)" d="M 7992.99,4867.13 L 7988.18,4854.86 L 7996.68,4845.42 L 8500.73,4952.59 L 8508.58,4976.74 L 7992.99,4867.13 Z " />
<path stroke="transparent" fill="#000000" transform="matrix(0.05 0 0 0.05 -343 -127)" d="M 7812.63,4350.17 L 7837.47,4355.45 L 7996.68,4845.42 L 7988.18,4854.86 L 7975.48,4851.36 L 7812.63,4350.17 Z " />
<path stroke="transparent" fill="#000000" transform="matrix(0.05 0 0 0.05 -343 -127)" d="M 8165.59,3958.19 L 8178.4,3960.39 L 8182.33,3972.47 L 7837.47,4355.45 L 7812.63,4350.17 L 8165.59,3958.19 Z " />
<path stroke="transparent" fill="#000000" transform="matrix(0.05 0 0 0.05 -343 -127)" d="M 8182.33,3972.47 L 8178.4,3960.39 L 8187.47,3951.08 L 8514.28,4020.58 L 8509.7,4042.1 L 8182.33,3972.47 Z " />
<path stroke="transparent" fill="#000000" transform="matrix(0.05 0 0 0.05 -343 -127)" d="M 8658.38,5259.83 L 8553.78,5293.82 L 8550.88,5271.64 L 8647.69,5240.18 L 8658.38,5259.83 Z " />
<path stroke="transparent" fill="#000000" transform="matrix(0.05 0 0 0.05 -343 -127)" d="M 8606.26,5163.99 L 8539.61,5185.65 L 8536.71,5163.46 L 8595.57,5144.33 L 8606.26,5163.99 Z " />
<path stroke="transparent" fill="#000000" transform="matrix(0.05 0 0 0.05 -343 -127)" d="M 8554.14,5068.15 L 8525.44,5077.47 L 8522.54,5055.29 L 8543.46,5048.49 L 8554.14,5068.15 Z " />
<path stroke="transparent" fill="#000000" transform="matrix(0.05 0 0 0.05 -343 -127)" d="M 7807.57,5137.63 L 7725.83,5064.04 L 7975.48,4851.36 L 7988.18,4854.86 L 7992.99,4867.13 L 7807.57,5137.63 Z " />
<path stroke="transparent" fill="#000000" transform="matrix(0.05 0 0 0.05 -343 -127)" d="M 7478.55,4335.34 L 7501.43,4227.76 L 7522.14,4236.11 L 7500.86,4336.14 L 7478.55,4335.34 Z " />
<path stroke="transparent" fill="#000000" transform="matrix(0.05 0 0 0.05 -343 -127)" d="M 7594.6,4339.5 L 7609.13,4271.19 L 7629.84,4279.54 L 7616.92,4340.31 L 7594.6,4339.5 Z " />
<path stroke="transparent" fill="#000000" transform="matrix(0.05 0 0 0.05 -343 -127)" d="M 7710.66,4343.67 L 7716.84,4314.61 L 7737.55,4322.96 L 7732.97,4344.47 L 7710.66,4343.67 Z " />
<path stroke="transparent" fill="#000000" transform="matrix(0.05 0 0 0.05 -343 -127)" d="M 7677.75,3397.83 L 7682.33,3376.32 L 8071.75,3459.11 L 7955.21,3456.82 L 7677.75,3397.83 Z " />
<path stroke="transparent" fill="#000000" transform="matrix(0.05 0 0 0.05 -343 -127)" d="M 7955.21,3456.82 L 8071.75,3459.11 L 8187.47,3951.08 L 8178.4,3960.39 L 8165.59,3958.19 L 7955.21,3456.82 Z " />
<path stroke="transparent" fill="#000000" transform="matrix(0.05 0 0 0.05 -343 -127)" d="M 10267.2,4339.14 L 10252.6,4344.89 L 10245.8,4333.12 L 10379.7,4032.34 L 10399.8,4041.29 L 10267.2,4339.14 Z " />
<path stroke="transparent" fill="#000000" transform="matrix(0.05 0 0 0.05 -343 -127)" d="M 9732.74,4301.25 L 9727.48,4289.64 L 9736.58,4279.54 L 10245.8,4333.12 L 10252.6,4344.89 L 10248.5,4355.52 L 9732.74,4301.25 Z " />
<path stroke="transparent" fill="#000000" transform="matrix(0.05 0 0 0.05 -343 -127)" d="M 9605.26,3767.81 L 9630.1,3778.87 L 9736.58,4279.54 L 9727.48,4289.64 L 9715.39,4285.62 L 9605.26,3767.81 Z " />
<path stroke="transparent" fill="#000000" transform="matrix(0.05 0 0 0.05 -343 -127)" d="M 10064,3502.93 L 10074.9,3509.38 L 10073.4,3522.9 L 9630.1,3778.87 L 9605.26,3767.81 L 10064,3502.93 Z " />
<path stroke="transparent" fill="#000000" transform="matrix(0.05 0 0 0.05 -343 -127)" d="M 10073.4,3522.9 L 10074.9,3509.38 L 10086.8,3505.32 L 10329.4,3723.64 L 10314.6,3739.99 L 10073.4,3522.9 Z " />
<path stroke="transparent" fill="#000000" transform="matrix(0.05 0 0 0.05 -343 -127)" d="M 11155.9,4351.24 L 11177.9,4338.54 L 11463.2,4503.25 L 11452.2,4522.3 L 11155.9,4351.24 Z " />
<path stroke="transparent" fill="#000000" transform="matrix(0.05 0 0 0.05 -343 -127)" d="M 11155.9,3810.63 L 11177.9,3823.33 L 11177.9,4338.54 L 11155.9,4351.24 L 11155.9,3810.63 Z " />
<path stroke="transparent" fill="#000000" transform="matrix(0.05 0 0 0.05 -343 -127)" d="M 11612.3,3547.11 L 11624.1,3553.02 L 11624.1,3565.72 L 11177.9,3823.33 L 11155.9,3810.63 L 11612.3,3547.11 Z " />
<path stroke="transparent" fill="#000000" transform="matrix(0.05 0 0 0.05 -343 -127)" d="M 12092.3,3810.63 L 12070.3,3823.33 L 11624.1,3565.72 L 11624.1,3553.02 L 11635.9,3547.11 L 12092.3,3810.63 Z " />
<path stroke="transparent" fill="#000000" transform="matrix(0.05 0 0 0.05 -343 -127)" d="M 12092.3,4337.96 L 12081.3,4344.89 L 12070.3,4338.54 L 12070.3,3823.33 L 12092.3,3810.63 L 12092.3,4337.96 Z " />
<path stroke="transparent" fill="#000000" transform="matrix(0.05 0 0 0.05 -343 -127)" d="M 12070.3,4338.54 L 12081.3,4344.89 L 12080.8,4357.88 L 11795.9,4522.37 L 11784.9,4503.32 L 12070.3,4338.54 Z " />
<path stroke="transparent" fill="#000000" transform="matrix(0.05 0 0 0.05 -343 -127)" d="M 12828.1,4428.94 L 12839.1,4447.99 L 12496,4646.07 L 12584.1,4569.79 L 12828.1,4428.94 Z " />
<path stroke="transparent" fill="#000000" transform="matrix(0.05 0 0 0.05 -343 -127)" d="M 12584.1,4569.79 L 12496,4646.07 L 12080.8,4357.88 L 12081.3,4344.89 L 12092.3,4337.96 L 12584.1,4569.79 Z " />
<path stroke="transparent" fill="#000000" transform="matrix(0.05 0 0 0.05 -343 -127)" d="M 12348.9,3598.97 L 12403.9,3694.21 L 12382.9,3701.84 L 12331.8,3613.33 L 12348.9,3598.97 Z " />
<path stroke="transparent" fill="#000000" transform="matrix(0.05 0 0 0.05 -343 -127)" d="M 12260.7,3673.06 L 12295.6,3733.58 L 12274.6,3741.21 L 12243.6,3687.43 L 12260.7,3673.06 Z " />
<path stroke="transparent" fill="#000000" transform="matrix(0.05 0 0 0.05 -343 -127)" d="M 12172.4,3747.16 L 12187.3,3772.94 L 12166.3,3780.57 L 12155.3,3761.52 L 12172.4,3747.16 Z " />
<path stroke="transparent" fill="#000000" transform="matrix(0.05 0 0 0.05 -343 -127)" d="M 11569.1,3215.39 L 11679.1,3215.39 L 11635.9,3547.11 L 11624.1,3553.02 L 11612.3,3547.11 L 11569.1,3215.39 Z " />
<path stroke="transparent" fill="#000000" transform="matrix(0.05 0 0 0.05 -343 -127)" d="M 10844.7,3694.46 L 10899.7,3599.21 L 10916.8,3613.58 L 10865.7,3702.08 L 10844.7,3694.46 Z " />
<path stroke="transparent" fill="#000000" transform="matrix(0.05 0 0 0.05 -343 -127)" d="M 10952.9,3733.73 L 10987.8,3673.22 L 11004.9,3687.58 L 10973.9,3741.36 L 10952.9,3733.73 Z " />
<path stroke="transparent" fill="#000000" transform="matrix(0.05 0 0 0.05 -343 -127)" d="M 11061,3773.01 L 11075.9,3747.22 L 11093,3761.59 L 11082,3780.64 L 11061,3773.01 Z " />
<path stroke="transparent" fill="#000000" transform="matrix(0.05 0 0 0.05 -343 -127)" d="M 10903.5,4560.47 L 10848.5,4465.22 L 10869.6,4457.66 L 10920.6,4546.03 L 10903.5,4560.47 Z " />
<path stroke="transparent" fill="#000000" transform="matrix(0.05 0 0 0.05 -343 -127)" d="M 10989.7,4487.63 L 10954.7,4427.05 L 10975.7,4419.49 L 11006.7,4473.2 L 10989.7,4487.63 Z " />
<path stroke="transparent" fill="#000000" transform="matrix(0.05 0 0 0.05 -343 -127)" d="M 11075.8,4414.8 L 11060.8,4388.88 L 11081.8,4381.32 L 11092.8,4400.37 L 11075.8,4414.8 Z " />
<path stroke="transparent" fill="#000000" transform="matrix(0.05 0 0 0.05 -343 -127)" d="M 10570.9,4465.16 L 10515.9,4560.4 L 10248.5,4355.52 L 10252.6,4344.89 L 10267.2,4339.14 L 10570.9,4465.16 Z " />
<path stroke="transparent" fill="#000000" transform="matrix(0.05 0 0 0.05 -343 -127)" d="M 10437.9,2835.24 L 10446.8,2855.34 L 10188.5,2970.31 L 10075,2996.76 L 10437.9,2835.24 Z " />
<path stroke="transparent" fill="#000000" transform="matrix(0.05 0 0 0.05 -343 -127)" d="M 10075,2996.76 L 10188.5,2970.31 L 10086.8,3505.32 L 10074.9,3509.38 L 10064,3502.93 L 10075,2996.76 Z " />
<path stroke="transparent" fill="#000000" transform="matrix(0.05 0 0 0.05 -343 -127)" d="M 9967.18,5050.29 L 9956.18,5031.24 L 10247.1,4863.28 L 10258.1,4882.33 L 9967.18,5050.29 Z " />
<path stroke="transparent" fill="#000000" transform="matrix(0.05 0 0 0.05 -343 -127)" d="M 10307.6,4781 L 10197.6,4781 L 10200.4,4759 L 10304.8,4759 L 10307.6,4781 Z " />
<path stroke="transparent" fill="#000000" transform="matrix(0.05 0 0 0.05 -343 -127)" d="M 10293.8,4673.57 L 10211.3,4673.57 L 10214.1,4651.57 L 10291,4651.57 L 10293.8,4673.57 Z " />
<path stroke="transparent" fill="#000000" transform="matrix(0.05 0 0 0.05 -343 -127)" d="M 10280.1,4566.13 L 10225,4566.13 L 10227.9,4544.14 L 10277.3,4544.14 L 10280.1,4566.13 Z " />
<path stroke="transparent" fill="#000000" transform="matrix(0.05 0 0 0.05 -343 -127)" d="M 10266.4,4458.7 L 10238.8,4458.7 L 10241.6,4436.7 L 10263.6,4436.7 L 10266.4,4458.7 Z " />
<path stroke="transparent" fill="#000000" transform="matrix(0.05 0 0 0.05 -343 -127)" d="M 9283.66,3684.81 L 9328.39,3584.34 L 9346.91,3596.83 L 9305.33,3690.21 L 9283.66,3684.81 Z " />
<path stroke="transparent" fill="#000000" transform="matrix(0.05 0 0 0.05 -343 -127)" d="M 9395.71,3712.75 L 9424.13,3648.92 L 9442.65,3661.41 L 9417.38,3718.15 L 9395.71,3712.75 Z " />
<path stroke="transparent" fill="#000000" transform="matrix(0.05 0 0 0.05 -343 -127)" d="M 9507.77,3740.68 L 9519.87,3713.5 L 9538.39,3725.99 L 9529.44,3746.09 L 9507.77,3740.68 Z " />
<path stroke="transparent" fill="#000000" transform="matrix(0.05 0 0 0.05 -343 -127)" d="M 9546.83,4572.56 L 9465.09,4498.99 L 9715.39,4285.62 L 9727.48,4289.64 L 9732.74,4301.25 L 9546.83,4572.56 Z " />
<path stroke="transparent" fill="#000000" transform="matrix(0.05 0 0 0.05 -343 -127)" d="M 9203.02,4589.42 L 9180.15,4697 L 9159.44,4688.63 L 9180.7,4588.64 L 9203.02,4589.42 Z " />
<path stroke="transparent" fill="#000000" transform="matrix(0.05 0 0 0.05 -343 -127)" d="M 9087.58,4585.38 L 9073.05,4653.72 L 9052.35,4645.35 L 9065.26,4584.6 L 9087.58,4585.38 Z " />
<path stroke="transparent" fill="#000000" transform="matrix(0.05 0 0 0.05 -343 -127)" d="M 8972.14,4581.34 L 8965.96,4610.45 L 8945.25,4602.08 L 8949.82,4580.56 L 8972.14,4581.34 Z " />
</svg>
