<?xml version="1.0" standalone="no" ?>
<!DOCTYPE svg PUBLIC "-//W3C//DTD SVG 1.1//EN" "http://www.w3.org/Graphics/SVG/1.1/DTD/svg11.dtd">
<svg width="183px" height="109px" viewBox="0 0 183 109" style="background-color: #ffffffff" xmlns="http://www.w3.org/2000/svg" xmlns:xlink="http://www.w3.org/1999/xlink" version="1.1" >
<text x="0" y="0" stroke="transparent" fill="#000000" transform="matrix(0.05 0 0 0.05 75.0636 105.765)" style="font:normal normal normal 401.8px 'Arial'" >
O</text>
<text x="0" y="0" stroke="transparent" fill="#000000" transform="matrix(0.05 0 0 0.05 10.4481 105.765)" style="font:normal normal normal 401.8px 'Arial'" >
HO</text>
<text x="0" y="0" stroke="transparent" fill="#000000" transform="matrix(0.05 0 0 0.05 75.0636 18.9738)" style="font:normal normal normal 401.8px 'Arial'" >
OH</text>
<text x="0" y="0" stroke="transparent" fill="#000000" transform="matrix(0.05 0 0 0.05 125.171 47.9041)" style="font:normal normal normal 401.8px 'Arial'" >
OH</text>
<text x="0" y="0" stroke="transparent" fill="#000000" transform="matrix(0.05 0 0 0.05 150.224 91.2994)" style="font:normal normal normal 401.8px 'Arial'" >
OH</text>
<text x="0" y="0" stroke="transparent" fill="#000000" transform="matrix(0.05 0 0 0.05 2.62738 47.9041)" style="font:normal normal normal 401.8px 'Arial'" >
H</text>
<text x="0" y="0" stroke="transparent" fill="#000000" transform="matrix(0.05 0 0 0.05 17.1357 51.1408)" style="font:normal normal normal 301.35px 'Arial'" >
2</text>
<text x="0" y="0" stroke="transparent" fill="#000000" transform="matrix(0.05 0 0 0.05 25.5156 47.9041)" style="font:normal normal normal 401.8px 'Arial'" >
N</text>
<path stroke="transparent" fill="#000000" transform="matrix(0.05 0 0 0.05 -329 -93)" d="M 7736.47,3560.39 L 7736.47,3546.47 L 7748.52,3539.52 L 8061.15,3720.02 L 8049.09,3740.89 L 7736.47,3560.39 Z " />
<path stroke="transparent" fill="#000000" transform="matrix(0.05 0 0 0.05 -329 -93)" d="M 7724.41,2960.91 L 7748.52,2974.83 L 7748.52,3539.52 L 7736.47,3546.47 L 7724.41,3539.52 L 7724.41,2960.91 Z " />
<path stroke="transparent" fill="#000000" transform="matrix(0.05 0 0 0.05 -329 -93)" d="M 8224.64,2672.1 L 8237.54,2678.57 L 8237.54,2692.49 L 7748.52,2974.83 L 7724.41,2960.91 L 8224.64,2672.1 Z " />
<path stroke="transparent" fill="#000000" transform="matrix(0.05 0 0 0.05 -329 -93)" d="M 8750.66,2960.91 L 8726.56,2974.83 L 8237.54,2692.49 L 8237.54,2678.57 L 8250.44,2672.1 L 8750.66,2960.91 Z " />
<path stroke="transparent" fill="#000000" transform="matrix(0.05 0 0 0.05 -329 -93)" d="M 8750.66,3538.88 L 8738.61,3546.47 L 8726.56,3539.52 L 8726.56,2974.83 L 8750.66,2960.91 L 8750.66,3538.88 Z " />
<path stroke="transparent" fill="#000000" transform="matrix(0.05 0 0 0.05 -329 -93)" d="M 8726.56,3539.52 L 8738.61,3546.47 L 8738.06,3560.71 L 8425.9,3740.94 L 8413.84,3720.06 L 8726.56,3539.52 Z " />
<path stroke="transparent" fill="#000000" transform="matrix(0.05 0 0 0.05 -329 -93)" d="M 7423.63,3741.01 L 7411.58,3720.14 L 7724.41,3539.52 L 7736.47,3546.47 L 7736.47,3560.39 L 7423.63,3741.01 Z " />
<path stroke="transparent" fill="#000000" transform="matrix(0.05 0 0 0.05 -329 -93)" d="M 8177.27,2308.93 L 8297.81,2308.93 L 8250.44,2672.1 L 8237.54,2678.57 L 8224.64,2672.1 L 8177.27,2308.93 Z " />
<path stroke="transparent" fill="#000000" transform="matrix(0.05 0 0 0.05 -329 -93)" d="M 9031.94,2728.92 L 9092.21,2833.31 L 9069.2,2841.67 L 9013.19,2744.66 L 9031.94,2728.92 Z " />
<path stroke="transparent" fill="#000000" transform="matrix(0.05 0 0 0.05 -329 -93)" d="M 8935.19,2810.16 L 8973.48,2876.48 L 8950.47,2884.84 L 8916.44,2825.9 L 8935.19,2810.16 Z " />
<path stroke="transparent" fill="#000000" transform="matrix(0.05 0 0 0.05 -329 -93)" d="M 8838.44,2891.39 L 8854.75,2919.65 L 8831.75,2928.01 L 8819.69,2907.14 L 8838.44,2891.39 Z " />
<path stroke="transparent" fill="#000000" transform="matrix(0.05 0 0 0.05 -329 -93)" d="M 9557.12,3638.58 L 9569.17,3659.46 L 9193.13,3876.57 L 9289.72,3792.96 L 9557.12,3638.58 Z " />
<path stroke="transparent" fill="#000000" transform="matrix(0.05 0 0 0.05 -329 -93)" d="M 9289.72,3792.96 L 9193.13,3876.57 L 8738.06,3560.71 L 8738.61,3546.47 L 8750.66,3538.88 L 9289.72,3792.96 Z " />
<path stroke="transparent" fill="#000000" transform="matrix(0.05 0 0 0.05 -329 -93)" d="M 7404.67,2845.89 L 7464.94,2741.5 L 7483.47,2757.62 L 7427.89,2853.88 L 7404.67,2845.89 Z " />
<path stroke="transparent" fill="#000000" transform="matrix(0.05 0 0 0.05 -329 -93)" d="M 7512.4,2882.97 L 7550.91,2816.27 L 7569.44,2832.39 L 7535.63,2890.96 L 7512.4,2882.97 Z " />
<path stroke="transparent" fill="#000000" transform="matrix(0.05 0 0 0.05 -329 -93)" d="M 7620.14,2920.04 L 7636.89,2891.04 L 7655.42,2907.16 L 7643.36,2928.03 L 7620.14,2920.04 Z " />
</svg>
