<?xml version="1.0" standalone="no" ?>
<!DOCTYPE svg PUBLIC "-//W3C//DTD SVG 1.1//EN" "http://www.w3.org/Graphics/SVG/1.1/DTD/svg11.dtd">
<svg width="272px" height="146px" viewBox="0 0 272 146" style="background-color: #ffffffff" xmlns="http://www.w3.org/2000/svg" xmlns:xlink="http://www.w3.org/1999/xlink" version="1.1" >
<text x="0" y="0" stroke="transparent" fill="#000000" transform="matrix(0.05 0 0 0.05 182.555 28.5739)" style="font:normal normal normal 632.2px 'Arial'" >
O</text>
<text x="0" y="0" stroke="transparent" fill="#000000" transform="matrix(0.05 0 0 0.05 221.975 96.853)" style="font:normal normal normal 632.2px 'Arial'" >
OH</text>
<text x="0" y="0" stroke="transparent" fill="#000000" transform="matrix(0.05 0 0 0.05 64.2804 142.372)" style="font:normal normal normal 632.2px 'Arial'" >
O</text>
<text x="0" y="0" stroke="transparent" fill="#000000" transform="matrix(0.05 0 0 0.05 2.03289 74.0933)" style="font:normal normal normal 632.2px 'Arial'" >
HO</text>
<text x="0" y="0" stroke="transparent" fill="#000000" transform="matrix(0.05 0 0 0.05 165.895 136.273)" style="font:normal normal normal 632.2px 'Arial'" >
OH</text>
<path stroke="transparent" fill="#000000" transform="matrix(0.05 0 0 0.05 -304 -67)" d="M 9203.1,3071.06 L 9188.58,3057.55 L 9188.57,3035.65 L 9976.97,2580.45 L 9976.97,2624.25 L 9203.1,3071.06 Z " />
<path stroke="transparent" fill="#000000" transform="matrix(0.05 0 0 0.05 -304 -67)" d="M 8399.88,2624.25 L 8399.87,2580.45 L 9188.57,3035.65 L 9188.58,3057.55 L 9161.3,3063.7 L 8399.88,2624.25 Z " />
<path stroke="transparent" fill="#000000" transform="matrix(0.05 0 0 0.05 -304 -67)" d="M 7611.48,3079.45 L 7611.48,3035.65 L 8399.87,2580.45 L 8399.88,2624.25 L 7611.48,3079.45 Z " />
<path stroke="transparent" fill="#000000" transform="matrix(0.05 0 0 0.05 -304 -67)" d="M 9876.07,2020.13 L 9914,2020.13 L 9914,2649.66 L 9876.07,2649.66 L 9876.07,2020.13 Z " />
<path stroke="transparent" fill="#000000" transform="matrix(0.05 0 0 0.05 -304 -67)" d="M 10039.9,2020.13 L 10077.9,2020.13 L 10077.9,2649.66 L 10039.9,2649.66 L 10039.9,2020.13 Z " />
<path stroke="transparent" fill="#000000" transform="matrix(0.05 0 0 0.05 -304 -67)" d="M 10488.8,2875.98 L 10469.9,2908.82 L 9976.97,2624.25 L 9976.97,2580.45 L 10488.8,2875.98 Z " />
<path stroke="transparent" fill="#000000" transform="matrix(0.05 0 0 0.05 -304 -67)" d="M 7712.38,3625.8 L 7674.45,3625.8 L 7674.45,3010.24 L 7712.38,3010.24 L 7712.38,3625.8 Z " />
<path stroke="transparent" fill="#000000" transform="matrix(0.05 0 0 0.05 -304 -67)" d="M 7548.51,3625.8 L 7510.58,3625.8 L 7510.58,3010.24 L 7548.51,3010.24 L 7548.51,3625.8 Z " />
<path stroke="transparent" fill="#000000" transform="matrix(0.05 0 0 0.05 -304 -67)" d="M 7094.11,2780.73 L 7113.08,2747.88 L 7611.48,3035.65 L 7611.48,3079.45 L 7094.11,2780.73 Z " />
<path stroke="transparent" fill="#000000" transform="matrix(0.05 0 0 0.05 -304 -67)" d="M 8815.51,3893.36 L 8651.26,3798.53 L 9161.3,3063.7 L 9188.58,3057.55 L 9203.1,3071.06 L 8815.51,3893.36 Z " />
<path stroke="transparent" fill="#000000" transform="matrix(0.05 0 0 0.05 -304 -67)" d="M 9554.94,3502.43 L 9390.69,3597.26 L 9377.8,3560.91 L 9529.9,3473.09 L 9554.94,3502.43 Z " />
<path stroke="transparent" fill="#000000" transform="matrix(0.05 0 0 0.05 -304 -67)" d="M 9432.04,3358.41 L 9327.41,3418.82 L 9314.52,3382.46 L 9406.99,3329.07 L 9432.04,3358.41 Z " />
<path stroke="transparent" fill="#000000" transform="matrix(0.05 0 0 0.05 -304 -67)" d="M 9309.13,3214.39 L 9264.13,3240.37 L 9251.24,3204.01 L 9284.09,3185.05 L 9309.13,3214.39 Z " />
</svg>
