<?xml version="1.0" standalone="no" ?>
<!DOCTYPE svg PUBLIC "-//W3C//DTD SVG 1.1//EN" "http://www.w3.org/Graphics/SVG/1.1/DTD/svg11.dtd">
<svg width="259px" height="134px" viewBox="0 0 259 134" style="background-color: #ffffffff" xmlns="http://www.w3.org/2000/svg" xmlns:xlink="http://www.w3.org/1999/xlink" version="1.1" >
<text x="0" y="0" stroke="transparent" fill="#000000" transform="matrix(0.05 0 0 0.05 112.938 131.371)" style="font:normal normal normal 561.6px 'Arial'" >
O</text>
<text x="0" y="0" stroke="transparent" fill="#000000" transform="matrix(0.05 0 0 0.05 37.425 116.559)" style="font:normal normal normal 561.6px 'Arial'" >
HO</text>
<text x="0" y="0" stroke="transparent" fill="#000000" transform="matrix(0.05 0 0 0.05 72.4418 26.3073)" style="font:normal normal normal 561.6px 'Arial'" >
HO</text>
<text x="0" y="0" stroke="transparent" fill="#000000" transform="matrix(0.05 0 0 0.05 173.591 26.3073)" style="font:normal normal normal 561.6px 'Arial'" >
OH</text>
<text x="0" y="0" stroke="transparent" fill="#000000" transform="matrix(0.05 0 0 0.05 214.026 96.341)" style="font:normal normal normal 561.6px 'Arial'" >
OH</text>
<text x="0" y="0" stroke="transparent" fill="#000000" transform="matrix(0.05 0 0 0.05 2.39465 96.341)" style="font:normal normal normal 561.6px 'Arial'" >
HO</text>
<path stroke="transparent" fill="#000000" transform="matrix(0.05 0 0 0.05 -312 -80)" d="M 8306.65,3354.84 L 8312.82,3331.82 L 8332.27,3331.82 L 8579.93,3760.93 L 8550.75,3777.78 L 8306.65,3354.84 Z " />
<path stroke="transparent" fill="#000000" transform="matrix(0.05 0 0 0.05 -312 -80)" d="M 8697.04,2632.66 L 8717.17,2631.48 L 8726.9,2648.33 L 8332.27,3331.82 L 8312.82,3331.82 L 8306.66,3308.81 L 8697.04,2632.66 Z " />
<path stroke="transparent" fill="#000000" transform="matrix(0.05 0 0 0.05 -312 -80)" d="M 9535.6,2614.64 L 9516.15,2648.33 L 8726.9,2648.33 L 8717.17,2631.48 L 8728.26,2614.64 L 9535.6,2614.64 Z " />
<path stroke="transparent" fill="#000000" transform="matrix(0.05 0 0 0.05 -312 -80)" d="M 9949.68,3331.82 L 9910.78,3331.82 L 9516.15,2648.33 L 9535.6,2614.64 L 9949.68,3331.82 Z " />
<path stroke="transparent" fill="#000000" transform="matrix(0.05 0 0 0.05 -312 -80)" d="M 9535.61,4049.28 L 9516.15,4015.58 L 9910.78,3331.82 L 9949.68,3331.82 L 9535.61,4049.28 Z " />
<path stroke="transparent" fill="#000000" transform="matrix(0.05 0 0 0.05 -312 -80)" d="M 9516.15,4015.58 L 9535.61,4049.28 L 8999.61,4049.28 L 8999.61,4015.58 L 9516.15,4015.58 Z " />
<path stroke="transparent" fill="#000000" transform="matrix(0.05 0 0 0.05 -312 -80)" d="M 7875.66,3603.68 L 7858.81,3574.5 L 8279.13,3331.82 L 8312.82,3331.82 L 8306.65,3354.84 L 7875.66,3603.68 Z " />
<path stroke="transparent" fill="#000000" transform="matrix(0.05 0 0 0.05 -312 -80)" d="M 8385.95,2226.27 L 8531.85,2142.03 L 8728.26,2614.64 L 8717.17,2631.48 L 8697.04,2632.66 L 8385.95,2226.27 Z " />
<path stroke="transparent" fill="#000000" transform="matrix(0.05 0 0 0.05 -312 -80)" d="M 9711.6,2141.34 L 9857.5,2225.58 L 9835.44,2251.75 L 9699.97,2173.53 L 9711.6,2141.34 Z " />
<path stroke="transparent" fill="#000000" transform="matrix(0.05 0 0 0.05 -312 -80)" d="M 9652.38,2305.27 L 9745.14,2358.83 L 9723.08,2384.99 L 9640.75,2337.46 L 9652.38,2305.27 Z " />
<path stroke="transparent" fill="#000000" transform="matrix(0.05 0 0 0.05 -312 -80)" d="M 9593.16,2469.2 L 9632.78,2492.07 L 9610.71,2518.24 L 9581.53,2501.39 L 9593.16,2469.2 Z " />
<path stroke="transparent" fill="#000000" transform="matrix(0.05 0 0 0.05 -312 -80)" d="M 10457.7,3247.58 L 10457.7,3416.06 L 10424,3410.19 L 10424,3253.45 L 10457.7,3247.58 Z " />
<path stroke="transparent" fill="#000000" transform="matrix(0.05 0 0 0.05 -312 -80)" d="M 10281.1,3278.34 L 10281.1,3385.3 L 10247.4,3379.43 L 10247.4,3284.21 L 10281.1,3278.34 Z " />
<path stroke="transparent" fill="#000000" transform="matrix(0.05 0 0 0.05 -312 -80)" d="M 10104.4,3309.1 L 10104.4,3354.54 L 10070.7,3348.67 L 10070.7,3314.97 L 10104.4,3309.1 Z " />
<path stroke="transparent" fill="#000000" transform="matrix(0.05 0 0 0.05 -312 -80)" d="M 7175.07,3199.37 L 7158.23,3170.19 L 7612.49,2908.02 L 7612.48,2946.92 L 7175.07,3199.37 Z " />
<path stroke="transparent" fill="#000000" transform="matrix(0.05 0 0 0.05 -312 -80)" d="M 7612.48,2946.92 L 7612.49,2908.02 L 8306.66,3308.81 L 8312.82,3331.82 L 8279.13,3331.82 L 7612.48,2946.92 Z " />
</svg>
