<?xml version="1.0" standalone="no" ?>
<!DOCTYPE svg PUBLIC "-//W3C//DTD SVG 1.1//EN" "http://www.w3.org/Graphics/SVG/1.1/DTD/svg11.dtd">
<svg width="265px" height="119px" viewBox="0 0 265 119" style="background-color: #ffffffff" xmlns="http://www.w3.org/2000/svg" xmlns:xlink="http://www.w3.org/1999/xlink" version="1.1" >
<text x="0" y="0" stroke="transparent" fill="#000000" transform="matrix(0.05 0 0 0.05 242.991 57.4452)" style="font:normal normal normal 511.6px 'Arial'" >
O</text>
<text x="0" y="0" stroke="transparent" fill="#000000" transform="matrix(0.05 0 0 0.05 180.849 23.4802)" style="font:normal normal normal 511.6px 'Arial'" >
OH</text>
<text x="0" y="0" stroke="transparent" fill="#000000" transform="matrix(0.05 0 0 0.05 148.949 115.57)" style="font:normal normal normal 511.6px 'Arial'" >
OH</text>
<text x="0" y="0" stroke="transparent" fill="#000000" transform="matrix(0.05 0 0 0.05 117.049 23.4802)" style="font:normal normal normal 511.6px 'Arial'" >
OH</text>
<text x="0" y="0" stroke="transparent" fill="#000000" transform="matrix(0.05 0 0 0.05 85.1366 115.57)" style="font:normal normal normal 511.6px 'Arial'" >
OH</text>
<text x="0" y="0" stroke="transparent" fill="#000000" transform="matrix(0.05 0 0 0.05 2.86359 78.7341)" style="font:normal normal normal 511.6px 'Arial'" >
HO</text>
<path stroke="transparent" fill="#000000" transform="matrix(0.05 0 0 0.05 -282 -84)" d="M 10093.9,3094.77 L 10093.9,3059.32 L 10498.3,2825.87 L 10513.6,2852.46 L 10093.9,3094.77 Z " />
<path stroke="transparent" fill="#000000" transform="matrix(0.05 0 0 0.05 -282 -84)" d="M 10101.6,2937.21 L 10086.3,2910.63 L 10432,2711.03 L 10447.3,2737.62 L 10101.6,2937.21 Z " />
<path stroke="transparent" fill="#000000" transform="matrix(0.05 0 0 0.05 -282 -84)" d="M 9455.94,2726.41 L 9455.94,2708.68 L 9472.37,2700.44 L 10093.9,3059.32 L 10093.9,3094.77 L 9455.94,2726.41 Z " />
<path stroke="transparent" fill="#000000" transform="matrix(0.05 0 0 0.05 -282 -84)" d="M 9379.2,2237.46 L 9532.68,2237.46 L 9472.37,2700.44 L 9455.94,2708.68 L 9439.52,2700.44 L 9379.2,2237.46 Z " />
<path stroke="transparent" fill="#000000" transform="matrix(0.05 0 0 0.05 -282 -84)" d="M 8817.94,3094.77 L 8817.94,3059.32 L 9439.52,2700.44 L 9455.94,2708.68 L 9455.94,2726.41 L 8817.94,3094.77 Z " />
<path stroke="transparent" fill="#000000" transform="matrix(0.05 0 0 0.05 -282 -84)" d="M 8894.68,3536.55 L 8741.2,3536.55 L 8746.89,3505.85 L 8889,3505.85 L 8894.68,3536.55 Z " />
<path stroke="transparent" fill="#000000" transform="matrix(0.05 0 0 0.05 -282 -84)" d="M 8866.83,3386.16 L 8769.06,3386.16 L 8774.74,3355.47 L 8861.15,3355.47 L 8866.83,3386.16 Z " />
<path stroke="transparent" fill="#000000" transform="matrix(0.05 0 0 0.05 -282 -84)" d="M 8838.98,3235.78 L 8796.91,3235.78 L 8802.6,3205.08 L 8833.29,3205.08 L 8838.98,3235.78 Z " />
<path stroke="transparent" fill="#000000" transform="matrix(0.05 0 0 0.05 -282 -84)" d="M 8179.94,2726.41 L 8179.95,2708.68 L 8196.37,2700.44 L 8817.94,3059.32 L 8817.94,3094.77 L 8179.94,2726.41 Z " />
<path stroke="transparent" fill="#000000" transform="matrix(0.05 0 0 0.05 -282 -84)" d="M 8103.21,2237.46 L 8256.69,2237.46 L 8196.37,2700.44 L 8179.95,2708.68 L 8163.52,2700.44 L 8103.21,2237.46 Z " />
<path stroke="transparent" fill="#000000" transform="matrix(0.05 0 0 0.05 -282 -84)" d="M 7541.7,3094.77 L 7541.7,3059.32 L 8163.52,2700.44 L 8179.95,2708.68 L 8179.94,2726.41 L 7541.7,3094.77 Z " />
<path stroke="transparent" fill="#000000" transform="matrix(0.05 0 0 0.05 -282 -84)" d="M 7618.44,3536.55 L 7464.96,3536.55 L 7470.65,3505.85 L 7612.76,3505.85 L 7618.44,3536.55 Z " />
<path stroke="transparent" fill="#000000" transform="matrix(0.05 0 0 0.05 -282 -84)" d="M 7590.59,3386.16 L 7492.81,3386.16 L 7498.5,3355.47 L 7584.9,3355.47 L 7590.59,3386.16 Z " />
<path stroke="transparent" fill="#000000" transform="matrix(0.05 0 0 0.05 -282 -84)" d="M 7562.73,3235.78 L 7520.67,3235.78 L 7526.35,3205.08 L 7557.05,3205.08 L 7562.73,3235.78 Z " />
<path stroke="transparent" fill="#000000" transform="matrix(0.05 0 0 0.05 -282 -84)" d="M 6903.7,2726.41 L 6903.7,2690.96 L 7541.7,3059.32 L 7541.7,3094.77 L 6903.7,2726.41 Z " />
<path stroke="transparent" fill="#000000" transform="matrix(0.05 0 0 0.05 -282 -84)" d="M 6505.44,2956.35 L 6490.09,2929.76 L 6903.7,2690.96 L 6903.7,2726.41 L 6505.44,2956.35 Z " />
</svg>
