<?xml version="1.0" standalone="no" ?>
<!DOCTYPE svg PUBLIC "-//W3C//DTD SVG 1.1//EN" "http://www.w3.org/Graphics/SVG/1.1/DTD/svg11.dtd">
<svg width="278px" height="118px" viewBox="0 0 278 118" style="background-color: #ffffff00" xmlns="http://www.w3.org/2000/svg" xmlns:xlink="http://www.w3.org/1999/xlink" version="1.1" >
<text x="0" y="0" stroke="transparent" fill="#000000" transform="matrix(0.0666667 0 0 0.0666667 254.977 54.7389)" style="font:normal normal normal 200px 'Arial'" >
OH</text>
<text x="0" y="0" stroke="transparent" fill="#000000" transform="matrix(0.0666667 0 0 0.0666667 151.054 114.739)" style="font:normal normal normal 200px 'Arial'" >
OH</text>
<text x="0" y="0" stroke="transparent" fill="#000000" transform="matrix(0.0666667 0 0 0.0666667 116.413 14.7389)" style="font:normal normal normal 200px 'Arial'" >
OH</text>
<text x="0" y="0" stroke="transparent" fill="#000000" transform="matrix(0.0666667 0 0 0.0666667 81.7718 114.739)" style="font:normal normal normal 200px 'Arial'" >
OH</text>
<text x="0" y="0" stroke="transparent" fill="#000000" transform="matrix(0.0666667 0 0 0.0666667 2.86087 74.7389)" style="font:normal normal normal 200px 'Arial'" >
HO</text>
<text x="0" y="0" stroke="transparent" fill="#000000" transform="matrix(0.0666667 0 0 0.0666667 185.695 14.7389)" style="font:normal normal normal 200px 'Arial'" >
O</text>
<path stroke="transparent" fill="#000000" transform="matrix(0.0666667 0 0 0.0666667 -14.0667 -10.3333)" d="M 3594.04,1209.63 L 3594.04,1186.54 L 4009.05,946.929 L 4019.05,964.25 L 3594.04,1209.63 Z " />
<path stroke="transparent" fill="#000000" transform="matrix(0.0666667 0 0 0.0666667 -14.0667 -10.3333)" d="M 2614.81,1692.92 L 2494.81,1692.92 L 2544.26,1203.54 L 2554.81,1198.08 L 2565.36,1203.54 L 2614.81,1692.92 Z " />
<path stroke="transparent" fill="#000000" transform="matrix(0.0666667 0 0 0.0666667 -14.0667 -10.3333)" d="M 2035.19,909.63 L 2035.19,898.083 L 2045.76,892.637 L 2554.81,1186.54 L 2554.81,1198.08 L 2544.26,1203.54 L 2035.19,909.63 Z " />
<path stroke="transparent" fill="#000000" transform="matrix(0.0666667 0 0 0.0666667 -14.0667 -10.3333)" d="M 1975.19,417.917 L 2095.19,417.917 L 2045.76,892.637 L 2035.19,898.083 L 2024.63,892.637 L 1975.19,417.917 Z " />
<path stroke="transparent" fill="#000000" transform="matrix(0.0666667 0 0 0.0666667 -14.0667 -10.3333)" d="M 1515.58,1209.63 L 1515.58,1186.54 L 2024.63,892.637 L 2035.19,898.083 L 2035.19,909.63 L 1515.58,1209.63 Z " />
<path stroke="transparent" fill="#000000" transform="matrix(0.0666667 0 0 0.0666667 -14.0667 -10.3333)" d="M 1575.58,1692.92 L 1455.58,1692.92 L 1457.85,1672.92 L 1573.31,1672.92 L 1575.58,1692.92 Z " />
<path stroke="transparent" fill="#000000" transform="matrix(0.0666667 0 0 0.0666667 -14.0667 -10.3333)" d="M 1568.76,1632.81 L 1462.4,1632.81 L 1464.66,1612.81 L 1566.49,1612.81 L 1568.76,1632.81 Z " />
<path stroke="transparent" fill="#000000" transform="matrix(0.0666667 0 0 0.0666667 -14.0667 -10.3333)" d="M 1561.94,1572.7 L 1469.21,1572.7 L 1471.48,1552.7 L 1559.67,1552.7 L 1561.94,1572.7 Z " />
<path stroke="transparent" fill="#000000" transform="matrix(0.0666667 0 0 0.0666667 -14.0667 -10.3333)" d="M 1555.12,1512.6 L 1476.03,1512.6 L 1478.3,1492.6 L 1552.85,1492.6 L 1555.12,1512.6 Z " />
<path stroke="transparent" fill="#000000" transform="matrix(0.0666667 0 0 0.0666667 -14.0667 -10.3333)" d="M 1548.3,1452.49 L 1482.85,1452.49 L 1485.12,1432.49 L 1546.03,1432.49 L 1548.3,1452.49 Z " />
<path stroke="transparent" fill="#000000" transform="matrix(0.0666667 0 0 0.0666667 -14.0667 -10.3333)" d="M 1541.48,1392.39 L 1489.67,1392.39 L 1491.94,1372.39 L 1539.21,1372.39 L 1541.48,1392.39 Z " />
<path stroke="transparent" fill="#000000" transform="matrix(0.0666667 0 0 0.0666667 -14.0667 -10.3333)" d="M 1534.66,1332.28 L 1496.49,1332.28 L 1498.76,1312.28 L 1532.4,1312.28 L 1534.66,1332.28 Z " />
<path stroke="transparent" fill="#000000" transform="matrix(0.0666667 0 0 0.0666667 -14.0667 -10.3333)" d="M 1527.85,1272.17 L 1503.31,1272.17 L 1505.58,1252.17 L 1525.58,1252.17 L 1527.85,1272.17 Z " />
<path stroke="transparent" fill="#000000" transform="matrix(0.0666667 0 0 0.0666667 -14.0667 -10.3333)" d="M 995.962,909.63 L 995.962,886.536 L 1515.58,1186.54 L 1515.58,1209.63 L 995.962,909.63 Z " />
<path stroke="transparent" fill="#000000" transform="matrix(0.0666667 0 0 0.0666667 -14.0667 -10.3333)" d="M 573.957,1153.27 L 563.957,1135.95 L 995.962,886.536 L 995.962,909.63 L 573.957,1153.27 Z " />
<path stroke="transparent" fill="#000000" transform="matrix(0.0666667 0 0 0.0666667 -14.0667 -10.3333)" d="M 3028.42,417.917 L 3048.42,417.917 L 3048.42,918.868 L 3028.42,918.868 L 3028.42,417.917 Z " />
<path stroke="transparent" fill="#000000" transform="matrix(0.0666667 0 0 0.0666667 -14.0667 -10.3333)" d="M 3100.42,417.917 L 3120.42,417.917 L 3120.42,918.868 L 3100.42,918.868 L 3100.42,417.917 Z " />
<path stroke="transparent" fill="#000000" transform="matrix(0.0666667 0 0 0.0666667 -14.0667 -10.3333)" d="M 3074.42,886.536 L 3074.42,909.63 L 2565.36,1203.54 L 2554.81,1198.08 L 2554.81,1186.54 L 3074.42,886.536 Z " />
<path stroke="transparent" fill="#000000" transform="matrix(0.0666667 0 0 0.0666667 -14.0667 -10.3333)" d="M 3074.42,909.63 L 3074.42,886.536 L 3594.04,1186.54 L 3594.04,1209.63 L 3074.42,909.63 Z " />
</svg>
