<?xml version="1.0" standalone="no" ?>
<!DOCTYPE svg PUBLIC "-//W3C//DTD SVG 1.1//EN" "http://www.w3.org/Graphics/SVG/1.1/DTD/svg11.dtd">
<svg width="388px" height="226px" viewBox="0 0 388 226" style="background-color: #ffffff00" xmlns="http://www.w3.org/2000/svg" xmlns:xlink="http://www.w3.org/1999/xlink" version="1.1" >
<text x="0" y="0" stroke="transparent" fill="#000000" transform="matrix(0.0666667 0 0 0.0666667 67.4898 108.367)" style="font:normal normal normal 200px 'Arial'" >
O</text>
<text x="0" y="0" stroke="transparent" fill="#000000" transform="matrix(0.0666667 0 0 0.0666667 171.413 168.367)" style="font:normal normal normal 200px 'Arial'" >
O</text>
<text x="0" y="0" stroke="transparent" fill="#000000" transform="matrix(0.0666667 0 0 0.0666667 206.054 68.3667)" style="font:normal normal normal 200px 'Arial'" >
O</text>
<text x="0" y="0" stroke="transparent" fill="#000000" transform="matrix(0.0666667 0 0 0.0666667 240.695 168.367)" style="font:normal normal normal 200px 'Arial'" >
O</text>
<text x="0" y="0" stroke="transparent" fill="#000000" transform="matrix(0.0666667 0 0 0.0666667 309.977 128.367)" style="font:normal normal normal 200px 'Arial'" >
O</text>
<text x="0" y="0" stroke="transparent" fill="#000000" transform="matrix(0.0666667 0 0 0.0666667 343.89 108.367)" style="font:normal normal normal 200px 'Arial'" >
Si</text>
<text x="0" y="0" stroke="transparent" fill="#000000" transform="matrix(0.0666667 0 0 0.0666667 274.608 188.367)" style="font:normal normal normal 200px 'Arial'" >
Si</text>
<text x="0" y="0" stroke="transparent" fill="#000000" transform="matrix(0.0666667 0 0 0.0666667 239.967 48.3667)" style="font:normal normal normal 200px 'Arial'" >
Si</text>
<text x="0" y="0" stroke="transparent" fill="#000000" transform="matrix(0.0666667 0 0 0.0666667 136.044 188.367)" style="font:normal normal normal 200px 'Arial'" >
Si</text>
<text x="0" y="0" stroke="transparent" fill="#000000" transform="matrix(0.0666667 0 0 0.0666667 32.121 128.367)" style="font:normal normal normal 200px 'Arial'" >
Si</text>
<text x="0" y="0" stroke="transparent" fill="#000000" transform="matrix(0.0666667 0 0 0.0666667 137.172 68.3667)" style="font:normal normal normal 200px 'Arial'" >
N</text>
<text x="0" y="0" stroke="transparent" fill="#000000" transform="matrix(0.0666667 0 0 0.0666667 102.131 48.3667)" style="font:normal normal normal 200px 'Arial'" >
O</text>
<path stroke="transparent" fill="#000000" transform="matrix(0.0666667 0 0 0.0666667 -36.0667 -7.33333)" d="M 2150.96,1945.95 L 2150.96,1969.05 L 1726.38,1723.92 L 1736.38,1706.6 L 2150.96,1945.95 Z " />
<path stroke="transparent" fill="#000000" transform="matrix(0.0666667 0 0 0.0666667 -36.0667 -7.33333)" d="M 3250.19,2452.33 L 3130.19,2452.33 L 3132.46,2432.33 L 3247.92,2432.33 L 3250.19,2452.33 Z " />
<path stroke="transparent" fill="#000000" transform="matrix(0.0666667 0 0 0.0666667 -36.0667 -7.33333)" d="M 3243.37,2392.23 L 3137.01,2392.23 L 3139.28,2372.23 L 3241.1,2372.23 L 3243.37,2392.23 Z " />
<path stroke="transparent" fill="#000000" transform="matrix(0.0666667 0 0 0.0666667 -36.0667 -7.33333)" d="M 3236.55,2332.12 L 3143.83,2332.12 L 3146.1,2312.12 L 3234.29,2312.12 L 3236.55,2332.12 Z " />
<path stroke="transparent" fill="#000000" transform="matrix(0.0666667 0 0 0.0666667 -36.0667 -7.33333)" d="M 3229.74,2272.02 L 3150.65,2272.02 L 3152.92,2252.02 L 3227.47,2252.02 L 3229.74,2272.02 Z " />
<path stroke="transparent" fill="#000000" transform="matrix(0.0666667 0 0 0.0666667 -36.0667 -7.33333)" d="M 3222.92,2211.91 L 3157.47,2211.91 L 3159.74,2191.91 L 3220.65,2191.91 L 3222.92,2211.91 Z " />
<path stroke="transparent" fill="#000000" transform="matrix(0.0666667 0 0 0.0666667 -36.0667 -7.33333)" d="M 3216.1,2151.8 L 3164.29,2151.8 L 3166.55,2131.8 L 3213.83,2131.8 L 3216.1,2151.8 Z " />
<path stroke="transparent" fill="#000000" transform="matrix(0.0666667 0 0 0.0666667 -36.0667 -7.33333)" d="M 3209.28,2091.7 L 3171.1,2091.7 L 3173.37,2071.7 L 3207.01,2071.7 L 3209.28,2091.7 Z " />
<path stroke="transparent" fill="#000000" transform="matrix(0.0666667 0 0 0.0666667 -36.0667 -7.33333)" d="M 3202.46,2031.59 L 3177.92,2031.59 L 3180.19,2011.59 L 3200.19,2011.59 L 3202.46,2031.59 Z " />
<path stroke="transparent" fill="#000000" transform="matrix(0.0666667 0 0 0.0666667 -36.0667 -7.33333)" d="M 3709.81,1645.95 L 3709.81,1669.05 L 3190.19,1969.05 L 3190.19,1945.95 L 3709.81,1645.95 Z " />
<path stroke="transparent" fill="#000000" transform="matrix(0.0666667 0 0 0.0666667 -36.0667 -7.33333)" d="M 3649.81,1177.33 L 3769.81,1177.33 L 3767.46,1197.33 L 3652.15,1197.33 L 3649.81,1177.33 Z " />
<path stroke="transparent" fill="#000000" transform="matrix(0.0666667 0 0 0.0666667 -36.0667 -7.33333)" d="M 3656.62,1235.35 L 3763,1235.35 L 3760.65,1255.35 L 3658.96,1255.35 L 3656.62,1235.35 Z " />
<path stroke="transparent" fill="#000000" transform="matrix(0.0666667 0 0 0.0666667 -36.0667 -7.33333)" d="M 3663.42,1293.38 L 3756.19,1293.38 L 3753.85,1313.38 L 3665.77,1313.38 L 3663.42,1293.38 Z " />
<path stroke="transparent" fill="#000000" transform="matrix(0.0666667 0 0 0.0666667 -36.0667 -7.33333)" d="M 3670.23,1351.4 L 3749.38,1351.4 L 3747.04,1371.4 L 3672.58,1371.4 L 3670.23,1351.4 Z " />
<path stroke="transparent" fill="#000000" transform="matrix(0.0666667 0 0 0.0666667 -36.0667 -7.33333)" d="M 3677.04,1409.42 L 3742.58,1409.42 L 3740.23,1429.42 L 3679.38,1429.42 L 3677.04,1409.42 Z " />
<path stroke="transparent" fill="#000000" transform="matrix(0.0666667 0 0 0.0666667 -36.0667 -7.33333)" d="M 3683.85,1467.44 L 3735.77,1467.44 L 3733.42,1487.44 L 3686.19,1487.44 L 3683.85,1467.44 Z " />
<path stroke="transparent" fill="#000000" transform="matrix(0.0666667 0 0 0.0666667 -36.0667 -7.33333)" d="M 3690.65,1525.46 L 3728.96,1525.46 L 3726.62,1545.46 L 3693,1545.46 L 3690.65,1525.46 Z " />
<path stroke="transparent" fill="#000000" transform="matrix(0.0666667 0 0 0.0666667 -36.0667 -7.33333)" d="M 3697.46,1583.48 L 3722.15,1583.48 L 3719.81,1603.48 L 3699.81,1603.48 L 3697.46,1583.48 Z " />
<path stroke="transparent" fill="#000000" transform="matrix(0.0666667 0 0 0.0666667 -36.0667 -7.33333)" d="M 4229.42,1945.95 L 4229.42,1957.5 L 4218.87,1962.96 L 3709.81,1669.05 L 3709.81,1645.95 L 4229.42,1945.95 Z " />
<path stroke="transparent" fill="#000000" transform="matrix(0.0666667 0 0 0.0666667 -36.0667 -7.33333)" d="M 4289.42,2452.33 L 4169.42,2452.33 L 4218.87,1962.96 L 4229.42,1957.5 L 4239.97,1962.96 L 4289.42,2452.33 Z " />
<path stroke="transparent" fill="#000000" transform="matrix(0.0666667 0 0 0.0666667 -36.0667 -7.33333)" d="M 4749.04,1645.95 L 4749.04,1669.05 L 4239.97,1962.96 L 4229.42,1957.5 L 4229.42,1945.95 L 4749.04,1645.95 Z " />
<path stroke="transparent" fill="#000000" transform="matrix(0.0666667 0 0 0.0666667 -36.0667 -7.33333)" d="M 5181.03,1895.37 L 5171.03,1912.69 L 4749.04,1669.05 L 4749.04,1645.95 L 5181.03,1895.37 Z " />
<path stroke="transparent" fill="#000000" transform="matrix(0.0666667 0 0 0.0666667 -36.0667 -7.33333)" d="M 2670.58,1669.05 L 2670.58,1657.5 L 2680.58,1651.73 L 3190.19,1945.95 L 3190.19,1969.05 L 2670.58,1669.05 Z " />
<path stroke="transparent" fill="#000000" transform="matrix(0.0666667 0 0 0.0666667 -36.0667 -7.33333)" d="M 2660.58,1651.73 L 2670.58,1657.5 L 2670.58,1669.05 L 2150.96,1969.05 L 2150.96,1945.95 L 2660.58,1651.73 Z " />
<path stroke="transparent" fill="#000000" transform="matrix(0.0666667 0 0 0.0666667 -36.0667 -7.33333)" d="M 6302.88,1348.84 L 6312.88,1366.16 L 5911.5,1597.9 L 5901.5,1580.58 L 6302.88,1348.84 Z " />
<path stroke="transparent" fill="#000000" transform="matrix(0.0666667 0 0 0.0666667 -36.0667 -7.33333)" d="M 5778.27,1057.5 L 5798.27,1057.5 L 5798.27,1552.5 L 5778.27,1552.5 L 5778.27,1057.5 Z " />
<path stroke="transparent" fill="#000000" transform="matrix(0.0666667 0 0 0.0666667 -36.0667 -7.33333)" d="M 6312.88,1948.84 L 6302.88,1966.16 L 5908.86,1738.67 L 5918.86,1721.35 L 6312.88,1948.84 Z " />
<path stroke="transparent" fill="#000000" transform="matrix(0.0666667 0 0 0.0666667 -36.0667 -7.33333)" d="M 5668.83,1714.91 L 5678.83,1732.23 L 5366.27,1912.69 L 5356.27,1895.37 L 5668.83,1714.91 Z " />
<path stroke="transparent" fill="#000000" transform="matrix(0.0666667 0 0 0.0666667 -36.0667 -7.33333)" d="M 5273.65,3148.84 L 5263.65,3166.16 L 4869.63,2938.67 L 4879.63,2921.35 L 5273.65,3148.84 Z " />
<path stroke="transparent" fill="#000000" transform="matrix(0.0666667 0 0 0.0666667 -36.0667 -7.33333)" d="M 5263.65,2548.84 L 5273.65,2566.16 L 4872.27,2797.9 L 4862.27,2780.58 L 5263.65,2548.84 Z " />
<path stroke="transparent" fill="#000000" transform="matrix(0.0666667 0 0 0.0666667 -36.0667 -7.33333)" d="M 4759.04,3457.5 L 4739.04,3457.5 L 4739.04,2977.5 L 4759.04,2977.5 L 4759.04,3457.5 Z " />
<path stroke="transparent" fill="#000000" transform="matrix(0.0666667 0 0 0.0666667 -36.0667 -7.33333)" d="M 4648.22,2787.75 L 4638.22,2805.07 L 4324.46,2623.92 L 4334.46,2606.6 L 4648.22,2787.75 Z " />
<path stroke="transparent" fill="#000000" transform="matrix(0.0666667 0 0 0.0666667 -36.0667 -7.33333)" d="M 4754.04,1048.84 L 4744.04,1066.16 L 4350.02,838.673 L 4360.02,821.352 L 4754.04,1048.84 Z " />
<path stroke="transparent" fill="#000000" transform="matrix(0.0666667 0 0 0.0666667 -36.0667 -7.33333)" d="M 4744.04,448.84 L 4754.04,466.16 L 4352.66,697.898 L 4342.66,680.577 L 4744.04,448.84 Z " />
<path stroke="transparent" fill="#000000" transform="matrix(0.0666667 0 0 0.0666667 -36.0667 -7.33333)" d="M 4219.42,157.5 L 4239.42,157.5 L 4239.42,652.5 L 4219.42,652.5 L 4219.42,157.5 Z " />
<path stroke="transparent" fill="#000000" transform="matrix(0.0666667 0 0 0.0666667 -36.0667 -7.33333)" d="M 4109.98,814.913 L 4119.98,832.234 L 3807.43,1012.69 L 3797.43,995.366 L 4109.98,814.913 Z " />
<path stroke="transparent" fill="#000000" transform="matrix(0.0666667 0 0 0.0666667 -36.0667 -7.33333)" d="M 2145.96,2566.16 L 2155.96,2548.84 L 2569.76,2787.75 L 2559.76,2805.07 L 2145.96,2566.16 Z " />
<path stroke="transparent" fill="#000000" transform="matrix(0.0666667 0 0 0.0666667 -36.0667 -7.33333)" d="M 2155.96,3166.16 L 2145.96,3148.84 L 2551.13,2914.91 L 2561.13,2932.23 L 2155.96,3166.16 Z " />
<path stroke="transparent" fill="#000000" transform="matrix(0.0666667 0 0 0.0666667 -36.0667 -7.33333)" d="M 2680.58,3457.5 L 2660.58,3457.5 L 2660.58,2977.5 L 2680.58,2977.5 L 2680.58,3457.5 Z " />
<path stroke="transparent" fill="#000000" transform="matrix(0.0666667 0 0 0.0666667 -36.0667 -7.33333)" d="M 2793.81,2797.9 L 2783.81,2780.58 L 3085.59,2606.35 L 3095.59,2623.67 L 2793.81,2797.9 Z " />
<path stroke="transparent" fill="#000000" transform="matrix(0.0666667 0 0 0.0666667 -36.0667 -7.33333)" d="M 597.116,2266.16 L 587.116,2248.84 L 992.289,2014.91 L 1002.29,2032.23 L 597.116,2266.16 Z " />
<path stroke="transparent" fill="#000000" transform="matrix(0.0666667 0 0 0.0666667 -36.0667 -7.33333)" d="M 1121.73,2557.5 L 1101.73,2557.5 L 1101.73,2077.5 L 1121.73,2077.5 L 1121.73,2557.5 Z " />
<path stroke="transparent" fill="#000000" transform="matrix(0.0666667 0 0 0.0666667 -36.0667 -7.33333)" d="M 587.116,1666.16 L 597.116,1648.84 L 1010.92,1887.75 L 1000.92,1905.07 L 587.116,1666.16 Z " />
<path stroke="transparent" fill="#000000" transform="matrix(0.0666667 0 0 0.0666667 -36.0667 -7.33333)" d="M 1234.97,1897.9 L 1224.97,1880.58 L 1526.74,1706.35 L 1536.74,1723.67 L 1234.97,1897.9 Z " />
<path stroke="transparent" fill="#000000" transform="matrix(0.0666667 0 0 0.0666667 -36.0667 -7.33333)" d="M 2246,823.916 L 2256,806.596 L 2571.73,988.883 L 2561.73,1006.2 L 2246,823.916 Z " />
<path stroke="transparent" fill="#000000" transform="matrix(0.0666667 0 0 0.0666667 -36.0667 -7.33333)" d="M 2140.96,157.5 L 2160.96,157.5 L 2160.96,652.333 L 2140.96,652.333 L 2140.96,157.5 Z " />
<path stroke="transparent" fill="#000000" transform="matrix(0.0666667 0 0 0.0666667 -36.0667 -7.33333)" d="M 2588.69,1176.14 L 2608.47,1173.19 L 2679.76,1651.25 L 2670.58,1657.5 L 2659.68,1652.24 L 2588.69,1176.14 Z " />
<path stroke="transparent" fill="#000000" transform="matrix(0.0666667 0 0 0.0666667 -36.0667 -7.33333)" d="M 2660.69,1176.14 L 2680.47,1173.19 L 2608.47,1614.46 L 2588.69,1617.41 L 2660.69,1176.14 Z " />
</svg>
