<?xml version="1.0" standalone="no" ?>
<!DOCTYPE svg PUBLIC "-//W3C//DTD SVG 1.1//EN" "http://www.w3.org/Graphics/SVG/1.1/DTD/svg11.dtd">
<svg width="245px" height="110px" viewBox="0 0 245 110" style="background-color: #ffffffff" xmlns="http://www.w3.org/2000/svg" xmlns:xlink="http://www.w3.org/1999/xlink" version="1.1" >
<text x="0" y="0" stroke="transparent" fill="#000000" transform="matrix(0.05 0 0 0.05 223.77 53.1621)" style="font:normal normal normal 472.4px 'Arial'" >
O</text>
<text x="0" y="0" stroke="transparent" fill="#000000" transform="matrix(0.05 0 0 0.05 166.389 21.7996)" style="font:normal normal normal 472.4px 'Arial'" >
OH</text>
<text x="0" y="0" stroke="transparent" fill="#000000" transform="matrix(0.05 0 0 0.05 136.933 106.833)" style="font:normal normal normal 472.4px 'Arial'" >
OH</text>
<text x="0" y="0" stroke="transparent" fill="#000000" transform="matrix(0.05 0 0 0.05 107.477 21.7996)" style="font:normal normal normal 472.4px 'Arial'" >
OH</text>
<text x="0" y="0" stroke="transparent" fill="#000000" transform="matrix(0.05 0 0 0.05 78.0103 106.833)" style="font:normal normal normal 472.4px 'Arial'" >
OH</text>
<text x="0" y="0" stroke="transparent" fill="#000000" transform="matrix(0.05 0 0 0.05 2.04132 72.8199)" style="font:normal normal normal 472.4px 'Arial'" >
HO</text>
<path stroke="transparent" fill="#000000" transform="matrix(0.05 0 0 0.05 -325 -91)" d="M 10600.6,3128.73 L 10600.6,3096.01 L 10974.1,2880.38 L 10988.2,2904.93 L 10600.6,3128.73 Z " />
<path stroke="transparent" fill="#000000" transform="matrix(0.05 0 0 0.05 -325 -91)" d="M 10607.7,2983.25 L 10593.5,2958.71 L 10912.8,2774.34 L 10927,2798.89 L 10607.7,2983.25 Z " />
<path stroke="transparent" fill="#000000" transform="matrix(0.05 0 0 0.05 -325 -91)" d="M 10011.5,2788.6 L 10011.5,2772.24 L 10026.7,2764.62 L 10600.6,3096.01 L 10600.6,3128.73 L 10011.5,2788.6 Z " />
<path stroke="transparent" fill="#000000" transform="matrix(0.05 0 0 0.05 -325 -91)" d="M 9940.64,2336.24 L 10082.4,2336.24 L 10026.7,2764.62 L 10011.5,2772.24 L 9996.34,2764.62 L 9940.64,2336.24 Z " />
<path stroke="transparent" fill="#000000" transform="matrix(0.05 0 0 0.05 -325 -91)" d="M 9437.57,3119.97 L 9422.39,3112.37 L 9422.39,3096.01 L 9996.34,2764.62 L 10011.5,2772.24 L 10011.5,2788.6 L 9437.57,3119.97 Z " />
<path stroke="transparent" fill="#000000" transform="matrix(0.05 0 0 0.05 -325 -91)" d="M 9493.25,3536.75 L 9351.53,3536.75 L 9407.2,3119.97 L 9422.39,3112.37 L 9437.57,3119.97 L 9493.25,3536.75 Z " />
<path stroke="transparent" fill="#000000" transform="matrix(0.05 0 0 0.05 -325 -91)" d="M 8833.27,2788.6 L 8833.27,2772.24 L 8848.43,2764.62 L 9422.39,3096.01 L 9422.39,3112.37 L 9407.2,3119.97 L 8833.27,2788.6 Z " />
<path stroke="transparent" fill="#000000" transform="matrix(0.05 0 0 0.05 -325 -91)" d="M 8762.41,2336.24 L 8904.13,2336.24 L 8848.43,2764.62 L 8833.27,2772.24 L 8818.11,2764.62 L 8762.41,2336.24 Z " />
<path stroke="transparent" fill="#000000" transform="matrix(0.05 0 0 0.05 -325 -91)" d="M 8243.93,3128.73 L 8243.93,3096.01 L 8818.11,2764.62 L 8833.27,2772.24 L 8833.27,2788.6 L 8243.93,3128.73 Z " />
<path stroke="transparent" fill="#000000" transform="matrix(0.05 0 0 0.05 -325 -91)" d="M 8314.79,3536.75 L 8173.07,3536.75 L 8178.32,3508.41 L 8309.54,3508.41 L 8314.79,3536.75 Z " />
<path stroke="transparent" fill="#000000" transform="matrix(0.05 0 0 0.05 -325 -91)" d="M 8289.07,3397.84 L 8198.79,3397.84 L 8204.04,3369.49 L 8283.82,3369.49 L 8289.07,3397.84 Z " />
<path stroke="transparent" fill="#000000" transform="matrix(0.05 0 0 0.05 -325 -91)" d="M 8263.35,3258.92 L 8224.51,3258.92 L 8229.76,3230.58 L 8258.1,3230.58 L 8263.35,3258.92 Z " />
<path stroke="transparent" fill="#000000" transform="matrix(0.05 0 0 0.05 -325 -91)" d="M 7654.82,2788.6 L 7654.82,2755.87 L 8243.93,3096.01 L 8243.93,3128.73 L 7654.82,2788.6 Z " />
<path stroke="transparent" fill="#000000" transform="matrix(0.05 0 0 0.05 -325 -91)" d="M 7287.12,3000.9 L 7272.95,2976.35 L 7654.82,2755.87 L 7654.82,2788.6 L 7287.12,3000.9 Z " />
</svg>
