<?xml version="1.0" standalone="no" ?>
<!DOCTYPE svg PUBLIC "-//W3C//DTD SVG 1.1//EN" "http://www.w3.org/Graphics/SVG/1.1/DTD/svg11.dtd">
<svg width="245px" height="103px" viewBox="0 0 245 103" style="background-color: #ffffffff" xmlns="http://www.w3.org/2000/svg" xmlns:xlink="http://www.w3.org/1999/xlink" version="1.1" >
<text x="0" y="0" stroke="transparent" fill="#000000" transform="matrix(0.05 0 0 0.05 154.887 99.591)" style="font:normal normal normal 437.4px 'Arial'" >
OH</text>
<text x="0" y="0" stroke="transparent" fill="#000000" transform="matrix(0.05 0 0 0.05 127.614 20.859)" style="font:normal normal normal 437.4px 'Arial'" >
OH</text>
<text x="0" y="0" stroke="transparent" fill="#000000" transform="matrix(0.05 0 0 0.05 100.331 99.591)" style="font:normal normal normal 437.4px 'Arial'" >
OH</text>
<text x="0" y="0" stroke="transparent" fill="#000000" transform="matrix(0.05 0 0 0.05 73.0578 20.859)" style="font:normal normal normal 437.4px 'Arial'" >
OH</text>
<text x="0" y="0" stroke="transparent" fill="#000000" transform="matrix(0.05 0 0 0.05 2.71848 52.3518)" style="font:normal normal normal 437.4px 'Arial'" >
HO</text>
<text x="0" y="0" stroke="transparent" fill="#000000" transform="matrix(0.05 0 0 0.05 182.159 20.859)" style="font:normal normal normal 437.4px 'Arial'" >
O</text>
<text x="0" y="0" stroke="transparent" fill="#000000" transform="matrix(0.05 0 0 0.05 209.432 68.0982)" style="font:normal normal normal 437.4px 'Arial'" >
OH</text>
<path stroke="transparent" fill="#000000" transform="matrix(0.05 0 0 0.05 -303 -104)" d="M 9327.84,3305.24 L 9327.84,3274.94 L 9873.3,2960.01 L 9873.3,2990.31 L 9327.84,3305.24 Z " />
<path stroke="transparent" fill="#000000" transform="matrix(0.05 0 0 0.05 -303 -104)" d="M 9393.45,3682.67 L 9262.23,3682.67 L 9267.1,3656.43 L 9388.59,3656.43 L 9393.45,3682.67 Z " />
<path stroke="transparent" fill="#000000" transform="matrix(0.05 0 0 0.05 -303 -104)" d="M 9369.64,3554.26 L 9286.04,3554.26 L 9290.91,3528.01 L 9364.78,3528.01 L 9369.64,3554.26 Z " />
<path stroke="transparent" fill="#000000" transform="matrix(0.05 0 0 0.05 -303 -104)" d="M 9345.83,3425.84 L 9309.85,3425.84 L 9314.72,3399.6 L 9340.96,3399.6 L 9345.83,3425.84 Z " />
<path stroke="transparent" fill="#000000" transform="matrix(0.05 0 0 0.05 -303 -104)" d="M 8782.39,2990.31 L 8782.39,2960.01 L 9327.84,3274.94 L 9327.84,3305.24 L 8782.39,2990.31 Z " />
<path stroke="transparent" fill="#000000" transform="matrix(0.05 0 0 0.05 -303 -104)" d="M 8716.78,2573 L 8848,2573 L 8843.29,2599.24 L 8721.48,2599.24 L 8716.78,2573 Z " />
<path stroke="transparent" fill="#000000" transform="matrix(0.05 0 0 0.05 -303 -104)" d="M 8740.67,2706.26 L 8824.11,2706.26 L 8819.4,2732.5 L 8745.37,2732.5 L 8740.67,2706.26 Z " />
<path stroke="transparent" fill="#000000" transform="matrix(0.05 0 0 0.05 -303 -104)" d="M 8764.56,2839.52 L 8800.21,2839.52 L 8795.51,2865.77 L 8769.27,2865.77 L 8764.56,2839.52 Z " />
<path stroke="transparent" fill="#000000" transform="matrix(0.05 0 0 0.05 -303 -104)" d="M 8236.72,3305.24 L 8236.72,3274.94 L 8782.39,2960.01 L 8782.39,2990.31 L 8236.72,3305.24 Z " />
<path stroke="transparent" fill="#000000" transform="matrix(0.05 0 0 0.05 -303 -104)" d="M 8302.33,3682.67 L 8171.11,3682.67 L 8175.98,3656.43 L 8297.47,3656.43 L 8302.33,3682.67 Z " />
<path stroke="transparent" fill="#000000" transform="matrix(0.05 0 0 0.05 -303 -104)" d="M 8278.52,3554.26 L 8194.92,3554.26 L 8199.79,3528.01 L 8273.66,3528.01 L 8278.52,3554.26 Z " />
<path stroke="transparent" fill="#000000" transform="matrix(0.05 0 0 0.05 -303 -104)" d="M 8254.71,3425.84 L 8218.73,3425.84 L 8223.6,3399.6 L 8249.84,3399.6 L 8254.71,3425.84 Z " />
<path stroke="transparent" fill="#000000" transform="matrix(0.05 0 0 0.05 -303 -104)" d="M 7691.27,2990.31 L 7691.27,2975.16 L 7705.31,2968.12 L 8236.72,3274.94 L 8236.72,3305.24 L 7691.27,2990.31 Z " />
<path stroke="transparent" fill="#000000" transform="matrix(0.05 0 0 0.05 -303 -104)" d="M 7625.66,2573 L 7756.88,2573 L 7705.31,2968.12 L 7691.27,2975.16 L 7677.23,2968.12 L 7625.66,2573 Z " />
<path stroke="transparent" fill="#000000" transform="matrix(0.05 0 0 0.05 -303 -104)" d="M 7145.81,3305.24 L 7145.81,3274.94 L 7677.23,2968.12 L 7691.27,2975.16 L 7691.27,2990.31 L 7145.81,3305.24 Z " />
<path stroke="transparent" fill="#000000" transform="matrix(0.05 0 0 0.05 -303 -104)" d="M 6787.73,3098.49 L 6800.85,3075.77 L 7145.81,3274.94 L 7145.81,3305.24 L 6787.73,3098.49 Z " />
<path stroke="transparent" fill="#000000" transform="matrix(0.05 0 0 0.05 -303 -104)" d="M 9803.49,2573 L 9829.73,2573 L 9829.73,3007.89 L 9803.49,3007.89 L 9803.49,2573 Z " />
<path stroke="transparent" fill="#000000" transform="matrix(0.05 0 0 0.05 -303 -104)" d="M 9916.86,2573 L 9943.11,2573 L 9943.11,3007.89 L 9916.86,3007.89 L 9916.86,2573 Z " />
<path stroke="transparent" fill="#000000" transform="matrix(0.05 0 0 0.05 -303 -104)" d="M 10226.9,3164.18 L 10213.8,3186.91 L 9873.3,2990.31 L 9873.3,2960.01 L 10226.9,3164.18 Z " />
</svg>
