<?xml version="1.0" standalone="no" ?>
<!DOCTYPE svg PUBLIC "-//W3C//DTD SVG 1.1//EN" "http://www.w3.org/Graphics/SVG/1.1/DTD/svg11.dtd">
<svg width="278px" height="118px" viewBox="0 0 278 118" style="background-color: #ffffff00" xmlns="http://www.w3.org/2000/svg" xmlns:xlink="http://www.w3.org/1999/xlink" version="1.1" >
<text x="0" y="0" stroke="transparent" fill="#000000" transform="matrix(0.0666667 0 0 0.0666667 254.977 54.7389)" style="font:normal normal normal 200px 'Arial'" >
OH</text>
<text x="0" y="0" stroke="transparent" fill="#000000" transform="matrix(0.0666667 0 0 0.0666667 185.695 14.7389)" style="font:normal normal normal 200px 'Arial'" >
OH</text>
<text x="0" y="0" stroke="transparent" fill="#000000" transform="matrix(0.0666667 0 0 0.0666667 151.054 114.739)" style="font:normal normal normal 200px 'Arial'" >
OH</text>
<text x="0" y="0" stroke="transparent" fill="#000000" transform="matrix(0.0666667 0 0 0.0666667 116.413 14.7389)" style="font:normal normal normal 200px 'Arial'" >
OH</text>
<text x="0" y="0" stroke="transparent" fill="#000000" transform="matrix(0.0666667 0 0 0.0666667 81.7718 114.739)" style="font:normal normal normal 200px 'Arial'" >
OH</text>
<text x="0" y="0" stroke="transparent" fill="#000000" transform="matrix(0.0666667 0 0 0.0666667 2.86087 74.7389)" style="font:normal normal normal 200px 'Arial'" >
HO</text>
<path stroke="transparent" fill="#000000" transform="matrix(0.0666667 0 0 0.0666667 -24.0667 -18.3333)" d="M 3744.04,1329.63 L 3744.04,1306.54 L 4159.05,1066.93 L 4169.05,1084.25 L 3744.04,1329.63 Z " />
<path stroke="transparent" fill="#000000" transform="matrix(0.0666667 0 0 0.0666667 -24.0667 -18.3333)" d="M 3224.42,1029.63 L 3224.42,1006.54 L 3744.04,1306.54 L 3744.04,1329.63 L 3224.42,1029.63 Z " />
<path stroke="transparent" fill="#000000" transform="matrix(0.0666667 0 0 0.0666667 -24.0667 -18.3333)" d="M 3164.42,537.917 L 3284.42,537.917 L 3282.08,557.917 L 3166.77,557.917 L 3164.42,537.917 Z " />
<path stroke="transparent" fill="#000000" transform="matrix(0.0666667 0 0 0.0666667 -24.0667 -18.3333)" d="M 3171.23,595.938 L 3277.62,595.938 L 3275.27,615.938 L 3173.58,615.938 L 3171.23,595.938 Z " />
<path stroke="transparent" fill="#000000" transform="matrix(0.0666667 0 0 0.0666667 -24.0667 -18.3333)" d="M 3178.04,653.959 L 3270.81,653.959 L 3268.46,673.959 L 3180.38,673.959 L 3178.04,653.959 Z " />
<path stroke="transparent" fill="#000000" transform="matrix(0.0666667 0 0 0.0666667 -24.0667 -18.3333)" d="M 3184.85,711.98 L 3264,711.98 L 3261.65,731.98 L 3187.19,731.98 L 3184.85,711.98 Z " />
<path stroke="transparent" fill="#000000" transform="matrix(0.0666667 0 0 0.0666667 -24.0667 -18.3333)" d="M 3191.65,770.001 L 3257.19,770.001 L 3254.85,790.001 L 3194,790.001 L 3191.65,770.001 Z " />
<path stroke="transparent" fill="#000000" transform="matrix(0.0666667 0 0 0.0666667 -24.0667 -18.3333)" d="M 3198.46,828.022 L 3250.38,828.022 L 3248.04,848.022 L 3200.81,848.022 L 3198.46,828.022 Z " />
<path stroke="transparent" fill="#000000" transform="matrix(0.0666667 0 0 0.0666667 -24.0667 -18.3333)" d="M 3205.27,886.044 L 3243.58,886.044 L 3241.23,906.044 L 3207.62,906.044 L 3205.27,886.044 Z " />
<path stroke="transparent" fill="#000000" transform="matrix(0.0666667 0 0 0.0666667 -24.0667 -18.3333)" d="M 3212.08,944.065 L 3236.77,944.065 L 3234.42,964.065 L 3214.42,964.065 L 3212.08,944.065 Z " />
<path stroke="transparent" fill="#000000" transform="matrix(0.0666667 0 0 0.0666667 -24.0667 -18.3333)" d="M 2715.36,1323.54 L 2704.81,1318.08 L 2704.81,1306.54 L 3224.42,1006.54 L 3224.42,1029.63 L 2715.36,1323.54 Z " />
<path stroke="transparent" fill="#000000" transform="matrix(0.0666667 0 0 0.0666667 -24.0667 -18.3333)" d="M 2764.81,1812.92 L 2644.81,1812.92 L 2694.26,1323.54 L 2704.81,1318.08 L 2715.36,1323.54 L 2764.81,1812.92 Z " />
<path stroke="transparent" fill="#000000" transform="matrix(0.0666667 0 0 0.0666667 -24.0667 -18.3333)" d="M 2185.19,1029.63 L 2185.19,1018.08 L 2195.76,1012.64 L 2704.81,1306.54 L 2704.81,1318.08 L 2694.26,1323.54 L 2185.19,1029.63 Z " />
<path stroke="transparent" fill="#000000" transform="matrix(0.0666667 0 0 0.0666667 -24.0667 -18.3333)" d="M 2125.19,537.917 L 2245.19,537.917 L 2195.76,1012.64 L 2185.19,1018.08 L 2174.63,1012.64 L 2125.19,537.917 Z " />
<path stroke="transparent" fill="#000000" transform="matrix(0.0666667 0 0 0.0666667 -24.0667 -18.3333)" d="M 1665.58,1329.63 L 1665.58,1306.54 L 2174.63,1012.64 L 2185.19,1018.08 L 2185.19,1029.63 L 1665.58,1329.63 Z " />
<path stroke="transparent" fill="#000000" transform="matrix(0.0666667 0 0 0.0666667 -24.0667 -18.3333)" d="M 1725.58,1812.92 L 1605.58,1812.92 L 1607.85,1792.92 L 1723.31,1792.92 L 1725.58,1812.92 Z " />
<path stroke="transparent" fill="#000000" transform="matrix(0.0666667 0 0 0.0666667 -24.0667 -18.3333)" d="M 1718.76,1752.81 L 1612.4,1752.81 L 1614.66,1732.81 L 1716.49,1732.81 L 1718.76,1752.81 Z " />
<path stroke="transparent" fill="#000000" transform="matrix(0.0666667 0 0 0.0666667 -24.0667 -18.3333)" d="M 1711.94,1692.7 L 1619.21,1692.7 L 1621.48,1672.7 L 1709.67,1672.7 L 1711.94,1692.7 Z " />
<path stroke="transparent" fill="#000000" transform="matrix(0.0666667 0 0 0.0666667 -24.0667 -18.3333)" d="M 1705.12,1632.6 L 1626.03,1632.6 L 1628.3,1612.6 L 1702.85,1612.6 L 1705.12,1632.6 Z " />
<path stroke="transparent" fill="#000000" transform="matrix(0.0666667 0 0 0.0666667 -24.0667 -18.3333)" d="M 1698.3,1572.49 L 1632.85,1572.49 L 1635.12,1552.49 L 1696.03,1552.49 L 1698.3,1572.49 Z " />
<path stroke="transparent" fill="#000000" transform="matrix(0.0666667 0 0 0.0666667 -24.0667 -18.3333)" d="M 1691.48,1512.39 L 1639.67,1512.39 L 1641.94,1492.39 L 1689.21,1492.39 L 1691.48,1512.39 Z " />
<path stroke="transparent" fill="#000000" transform="matrix(0.0666667 0 0 0.0666667 -24.0667 -18.3333)" d="M 1684.66,1452.28 L 1646.49,1452.28 L 1648.76,1432.28 L 1682.4,1432.28 L 1684.66,1452.28 Z " />
<path stroke="transparent" fill="#000000" transform="matrix(0.0666667 0 0 0.0666667 -24.0667 -18.3333)" d="M 1677.85,1392.17 L 1653.31,1392.17 L 1655.58,1372.17 L 1675.58,1372.17 L 1677.85,1392.17 Z " />
<path stroke="transparent" fill="#000000" transform="matrix(0.0666667 0 0 0.0666667 -24.0667 -18.3333)" d="M 1145.96,1029.63 L 1145.96,1006.54 L 1665.58,1306.54 L 1665.58,1329.63 L 1145.96,1029.63 Z " />
<path stroke="transparent" fill="#000000" transform="matrix(0.0666667 0 0 0.0666667 -24.0667 -18.3333)" d="M 723.957,1273.27 L 713.957,1255.95 L 1145.96,1006.54 L 1145.96,1029.63 L 723.957,1273.27 Z " />
</svg>
