<?xml version="1.0" standalone="no" ?>
<!DOCTYPE svg PUBLIC "-//W3C//DTD SVG 1.1//EN" "http://www.w3.org/Graphics/SVG/1.1/DTD/svg11.dtd">
<svg width="228px" height="103px" viewBox="0 0 228 103" style="background-color: #ffffffff" xmlns="http://www.w3.org/2000/svg" xmlns:xlink="http://www.w3.org/1999/xlink" version="1.1" >
<text x="0" y="0" stroke="transparent" fill="#000000" transform="matrix(0.05 0 0 0.05 82.2242 100.517)" style="font:normal normal normal 440.396px 'Arial'" >
O</text>
<text x="0" y="0" stroke="transparent" fill="#000000" transform="matrix(0.05 0 0 0.05 164.605 21.244)" style="font:normal normal normal 440.396px 'Arial'" >
O</text>
<text x="0" y="0" stroke="transparent" fill="#000000" transform="matrix(0.05 0 0 0.05 192.065 68.8077)" style="font:normal normal normal 440.396px 'Arial'" >
OH</text>
<text x="0" y="0" stroke="transparent" fill="#000000" transform="matrix(0.05 0 0 0.05 2.83 68.8077)" style="font:normal normal normal 440.396px 'Arial'" >
H</text>
<text x="0" y="0" stroke="transparent" fill="#000000" transform="matrix(0.05 0 0 0.05 18.732 72.3554)" style="font:normal normal normal 330.297px 'Arial'" >
2</text>
<text x="0" y="0" stroke="transparent" fill="#000000" transform="matrix(0.05 0 0 0.05 27.9168 68.8077)" style="font:normal normal normal 440.396px 'Arial'" >
N</text>
<path stroke="transparent" fill="#000000" transform="matrix(0.05 0 0 0.05 -325 -111)" d="M 9414.17,3458.5 L 9414.17,3427.98 L 9963.37,3110.89 L 9963.37,3141.4 L 9414.17,3458.5 Z " />
<path stroke="transparent" fill="#000000" transform="matrix(0.05 0 0 0.05 -325 -111)" d="M 8864.96,3141.4 L 8864.96,3110.89 L 9414.17,3427.98 L 9414.17,3458.5 L 8864.96,3141.4 Z " />
<path stroke="transparent" fill="#000000" transform="matrix(0.05 0 0 0.05 -325 -111)" d="M 8315.76,3458.5 L 8315.76,3427.98 L 8864.96,3110.89 L 8864.96,3141.4 L 8315.76,3458.5 Z " />
<path stroke="transparent" fill="#000000" transform="matrix(0.05 0 0 0.05 -325 -111)" d="M 8386.05,3838.38 L 8359.63,3838.38 L 8359.63,3410.29 L 8386.05,3410.29 L 8386.05,3838.38 Z " />
<path stroke="transparent" fill="#000000" transform="matrix(0.05 0 0 0.05 -325 -111)" d="M 8271.9,3838.38 L 8245.47,3838.38 L 8245.47,3410.29 L 8271.9,3410.29 L 8271.9,3838.38 Z " />
<path stroke="transparent" fill="#000000" transform="matrix(0.05 0 0 0.05 -325 -111)" d="M 7766.56,3141.4 L 7766.56,3110.89 L 8315.76,3427.98 L 8315.76,3458.5 L 7766.56,3141.4 Z " />
<path stroke="transparent" fill="#000000" transform="matrix(0.05 0 0 0.05 -325 -111)" d="M 9893.08,2719.84 L 9919.5,2719.84 L 9919.5,3159.1 L 9893.08,3159.1 L 9893.08,2719.84 Z " />
<path stroke="transparent" fill="#000000" transform="matrix(0.05 0 0 0.05 -325 -111)" d="M 10007.2,2719.84 L 10033.7,2719.84 L 10033.7,3159.1 L 10007.2,3159.1 L 10007.2,2719.84 Z " />
<path stroke="transparent" fill="#000000" transform="matrix(0.05 0 0 0.05 -325 -111)" d="M 10319.6,3316.56 L 10306.4,3339.44 L 9963.37,3141.4 L 9963.37,3110.89 L 10319.6,3316.56 Z " />
<path stroke="transparent" fill="#000000" transform="matrix(0.05 0 0 0.05 -325 -111)" d="M 7447.07,3325.87 L 7433.86,3302.98 L 7766.56,3110.89 L 7766.56,3141.4 L 7447.07,3325.87 Z " />
</svg>


