<?xml version="1.0" standalone="no" ?>
<!DOCTYPE svg PUBLIC "-//W3C//DTD SVG 1.1//EN" "http://www.w3.org/Graphics/SVG/1.1/DTD/svg11.dtd">
<svg width="345px" height="15px" viewBox="0 0 345 15" style="background-color: #ffffffff" xmlns="http://www.w3.org/2000/svg" xmlns:xlink="http://www.w3.org/1999/xlink" version="1.1" >
<path stroke="transparent" fill="#000000" transform="matrix(0.05 0 0 0.05 -309 -168)" d="M 6564.1,3412.31 L 6564.1,3430.26 L 6245,3614.5 L 6237.23,3601.04 L 6564.1,3412.31 Z " />
<path stroke="transparent" fill="#000000" transform="matrix(0.05 0 0 0.05 -309 -168)" d="M 6887.09,3598.8 L 6887.09,3616.74 L 6564.1,3430.26 L 6564.1,3412.31 L 6887.09,3598.8 Z " />
<path stroke="transparent" fill="#000000" transform="matrix(0.05 0 0 0.05 -309 -168)" d="M 7210.08,3412.31 L 7210.08,3430.26 L 6887.09,3616.74 L 6887.09,3598.8 L 7210.08,3412.31 Z " />
<path stroke="transparent" fill="#000000" transform="matrix(0.05 0 0 0.05 -309 -168)" d="M 7533.07,3598.8 L 7533.07,3616.74 L 7210.08,3430.26 L 7210.08,3412.31 L 7533.07,3598.8 Z " />
<path stroke="transparent" fill="#000000" transform="matrix(0.05 0 0 0.05 -309 -168)" d="M 7856.06,3412.31 L 7856.06,3430.26 L 7533.07,3616.74 L 7533.07,3598.8 L 7856.06,3412.31 Z " />
<path stroke="transparent" fill="#000000" transform="matrix(0.05 0 0 0.05 -309 -168)" d="M 8179.05,3598.8 L 8179.05,3616.74 L 7856.06,3430.26 L 7856.06,3412.31 L 8179.05,3598.8 Z " />
<path stroke="transparent" fill="#000000" transform="matrix(0.05 0 0 0.05 -309 -168)" d="M 8502.04,3412.31 L 8502.04,3430.26 L 8179.05,3616.74 L 8179.05,3598.8 L 8502.04,3412.31 Z " />
<path stroke="transparent" fill="#000000" transform="matrix(0.05 0 0 0.05 -309 -168)" d="M 8825.03,3598.8 L 8825.03,3616.74 L 8502.04,3430.26 L 8502.04,3412.31 L 8825.03,3598.8 Z " />
<path stroke="transparent" fill="#000000" transform="matrix(0.05 0 0 0.05 -309 -168)" d="M 9148.03,3412.31 L 9148.02,3430.26 L 8825.03,3616.74 L 8825.03,3598.8 L 9148.03,3412.31 Z " />
<path stroke="transparent" fill="#000000" transform="matrix(0.05 0 0 0.05 -309 -168)" d="M 9471.02,3598.92 L 9471.01,3616.86 L 9148.02,3430.26 L 9148.03,3412.31 L 9471.02,3598.92 Z " />
<path stroke="transparent" fill="#000000" transform="matrix(0.05 0 0 0.05 -309 -168)" d="M 9794.13,3412.44 L 9794.13,3430.38 L 9471.01,3616.86 L 9471.02,3598.92 L 9794.13,3412.44 Z " />
<path stroke="transparent" fill="#000000" transform="matrix(0.05 0 0 0.05 -309 -168)" d="M 10117.1,3598.92 L 10117.1,3616.86 L 9794.13,3430.38 L 9794.13,3412.44 L 10117.1,3598.92 Z " />
<path stroke="transparent" fill="#000000" transform="matrix(0.05 0 0 0.05 -309 -168)" d="M 10440.1,3412.44 L 10440.1,3430.38 L 10117.1,3616.86 L 10117.1,3598.92 L 10440.1,3412.44 Z " />
<path stroke="transparent" fill="#000000" transform="matrix(0.05 0 0 0.05 -309 -168)" d="M 10763.1,3598.92 L 10763.1,3616.86 L 10440.1,3430.38 L 10440.1,3412.44 L 10763.1,3598.92 Z " />
<path stroke="transparent" fill="#000000" transform="matrix(0.05 0 0 0.05 -309 -168)" d="M 11086.1,3412.44 L 11086.1,3430.38 L 10763.1,3616.86 L 10763.1,3598.92 L 11086.1,3412.44 Z " />
<path stroke="transparent" fill="#000000" transform="matrix(0.05 0 0 0.05 -309 -168)" d="M 11409.1,3598.92 L 11409.1,3616.86 L 11086.1,3430.38 L 11086.1,3412.44 L 11409.1,3598.92 Z " />
<path stroke="transparent" fill="#000000" transform="matrix(0.05 0 0 0.05 -309 -168)" d="M 11732.1,3412.44 L 11732.1,3430.38 L 11409.1,3616.86 L 11409.1,3598.92 L 11732.1,3412.44 Z " />
<path stroke="transparent" fill="#000000" transform="matrix(0.05 0 0 0.05 -309 -168)" d="M 12055.1,3598.92 L 12055.1,3616.86 L 11732.1,3430.38 L 11732.1,3412.44 L 12055.1,3598.92 Z " />
<path stroke="transparent" fill="#000000" transform="matrix(0.05 0 0 0.05 -309 -168)" d="M 12378.1,3412.44 L 12378.1,3430.38 L 12055.1,3616.86 L 12055.1,3598.92 L 12378.1,3412.44 Z " />
<path stroke="transparent" fill="#000000" transform="matrix(0.05 0 0 0.05 -309 -168)" d="M 12701,3598.92 L 12701,3616.86 L 12378.1,3430.38 L 12378.1,3412.44 L 12701,3598.92 Z " />
<path stroke="transparent" fill="#000000" transform="matrix(0.05 0 0 0.05 -309 -168)" d="M 13020.1,3414.68 L 13027.9,3428.14 L 12701,3616.86 L 12701,3598.92 L 13020.1,3414.68 Z " />
</svg>
