<?xml version="1.0" standalone="no" ?>
<!DOCTYPE svg PUBLIC "-//W3C//DTD SVG 1.1//EN" "http://www.w3.org/Graphics/SVG/1.1/DTD/svg11.dtd">
<svg width="334px" height="40px" viewBox="0 0 334 40" style="background-color: #ffffffff" xmlns="http://www.w3.org/2000/svg" xmlns:xlink="http://www.w3.org/1999/xlink" version="1.1" >
<text x="0" y="0" stroke="transparent" fill="#000000" transform="matrix(0.05 0 0 0.05 299.559 12.465)" style="font:normal normal normal 230.4px 'Arial'" >
O</text>
<text x="0" y="0" stroke="transparent" fill="#000000" transform="matrix(0.05 0 0 0.05 313.925 37.3488)" style="font:normal normal normal 230.4px 'Arial'" >
OH</text>
<path stroke="transparent" fill="#000000" transform="matrix(0.05 0 0 0.05 -298 -156)" d="M 11753.5,3794.96 L 11753.5,3778.99 L 12040.8,3613.1 L 12040.8,3629.07 L 11753.5,3794.96 Z " />
<path stroke="transparent" fill="#000000" transform="matrix(0.05 0 0 0.05 -298 -156)" d="M 11466.1,3629.06 L 11466.1,3613.1 L 11753.5,3778.99 L 11753.5,3794.96 L 11466.1,3629.06 Z " />
<path stroke="transparent" fill="#000000" transform="matrix(0.05 0 0 0.05 -298 -156)" d="M 11178.7,3794.96 L 11178.7,3778.99 L 11466.1,3613.1 L 11466.1,3629.06 L 11178.7,3794.96 Z " />
<path stroke="transparent" fill="#000000" transform="matrix(0.05 0 0 0.05 -298 -156)" d="M 10891.4,3629.07 L 10891.4,3613.1 L 11178.7,3778.99 L 11178.7,3794.96 L 10891.4,3629.07 Z " />
<path stroke="transparent" fill="#000000" transform="matrix(0.05 0 0 0.05 -298 -156)" d="M 10604,3794.96 L 10604,3778.99 L 10891.4,3613.1 L 10891.4,3629.07 L 10604,3794.96 Z " />
<path stroke="transparent" fill="#000000" transform="matrix(0.05 0 0 0.05 -298 -156)" d="M 10316.7,3629.07 L 10316.7,3613.1 L 10604,3778.99 L 10604,3794.96 L 10316.7,3629.07 Z " />
<path stroke="transparent" fill="#000000" transform="matrix(0.05 0 0 0.05 -298 -156)" d="M 10029.4,3794.96 L 10029.4,3778.99 L 10316.7,3613.1 L 10316.7,3629.07 L 10029.4,3794.96 Z " />
<path stroke="transparent" fill="#000000" transform="matrix(0.05 0 0 0.05 -298 -156)" d="M 9742.07,3629.07 L 9742.07,3613.1 L 10029.4,3778.99 L 10029.4,3794.96 L 9742.07,3629.07 Z " />
<path stroke="transparent" fill="#000000" transform="matrix(0.05 0 0 0.05 -298 -156)" d="M 9454.75,3794.96 L 9454.75,3778.99 L 9742.07,3613.1 L 9742.07,3629.07 L 9454.75,3794.96 Z " />
<path stroke="transparent" fill="#000000" transform="matrix(0.05 0 0 0.05 -298 -156)" d="M 9167.43,3629.07 L 9167.43,3613.1 L 9454.75,3778.99 L 9454.75,3794.96 L 9167.43,3629.07 Z " />
<path stroke="transparent" fill="#000000" transform="matrix(0.05 0 0 0.05 -298 -156)" d="M 8880.1,3794.96 L 8880.1,3778.99 L 9167.43,3613.1 L 9167.43,3629.07 L 8880.1,3794.96 Z " />
<path stroke="transparent" fill="#000000" transform="matrix(0.05 0 0 0.05 -298 -156)" d="M 8592.78,3629.07 L 8592.78,3613.1 L 8880.1,3778.99 L 8880.1,3794.96 L 8592.78,3629.07 Z " />
<path stroke="transparent" fill="#000000" transform="matrix(0.05 0 0 0.05 -298 -156)" d="M 8305.45,3794.96 L 8305.45,3778.99 L 8592.78,3613.1 L 8592.78,3629.07 L 8305.45,3794.96 Z " />
<path stroke="transparent" fill="#000000" transform="matrix(0.05 0 0 0.05 -298 -156)" d="M 8018.13,3629.07 L 8018.13,3613.1 L 8305.45,3778.99 L 8305.45,3794.96 L 8018.13,3629.07 Z " />
<path stroke="transparent" fill="#000000" transform="matrix(0.05 0 0 0.05 -298 -156)" d="M 7730.8,3794.96 L 7730.8,3778.99 L 8018.13,3613.1 L 8018.13,3629.07 L 7730.8,3794.96 Z " />
<path stroke="transparent" fill="#000000" transform="matrix(0.05 0 0 0.05 -298 -156)" d="M 7443.37,3629.06 L 7443.37,3613.1 L 7730.8,3778.99 L 7730.8,3794.96 L 7443.37,3629.06 Z " />
<path stroke="transparent" fill="#000000" transform="matrix(0.05 0 0 0.05 -298 -156)" d="M 7156.05,3794.96 L 7156.05,3778.99 L 7443.37,3613.1 L 7443.37,3629.06 L 7156.05,3794.96 Z " />
<path stroke="transparent" fill="#000000" transform="matrix(0.05 0 0 0.05 -298 -156)" d="M 6868.72,3629.07 L 6868.72,3613.1 L 7156.05,3778.99 L 7156.05,3794.96 L 6868.72,3629.07 Z " />
<path stroke="transparent" fill="#000000" transform="matrix(0.05 0 0 0.05 -298 -156)" d="M 6581.4,3794.96 L 6581.4,3778.99 L 6868.72,3613.1 L 6868.72,3629.07 L 6581.4,3794.96 Z " />
<path stroke="transparent" fill="#000000" transform="matrix(0.05 0 0 0.05 -298 -156)" d="M 6294.07,3629.07 L 6294.07,3613.1 L 6581.4,3778.99 L 6581.4,3794.96 L 6294.07,3629.07 Z " />
<path stroke="transparent" fill="#000000" transform="matrix(0.05 0 0 0.05 -298 -156)" d="M 6010.2,3792.96 L 6003.29,3780.99 L 6294.07,3613.1 L 6294.07,3629.07 L 6010.2,3792.96 Z " />
<path stroke="transparent" fill="#000000" transform="matrix(0.05 0 0 0.05 -298 -156)" d="M 12004,3408.66 L 12017.8,3408.66 L 12017.8,3638.32 L 12004,3638.32 L 12004,3408.66 Z " />
<path stroke="transparent" fill="#000000" transform="matrix(0.05 0 0 0.05 -298 -156)" d="M 12063.7,3408.66 L 12077.6,3408.66 L 12077.6,3638.32 L 12063.7,3638.32 L 12063.7,3408.66 Z " />
<path stroke="transparent" fill="#000000" transform="matrix(0.05 0 0 0.05 -298 -156)" d="M 12226.5,3720.34 L 12219.6,3732.31 L 12040.8,3629.07 L 12040.8,3613.1 L 12226.5,3720.34 Z " />
</svg>
