<?xml version="1.0" standalone="no" ?>
<!DOCTYPE svg PUBLIC "-//W3C//DTD SVG 1.1//EN" "http://www.w3.org/Graphics/SVG/1.1/DTD/svg11.dtd">
<svg width="432px" height="14px" viewBox="0 0 432 14" style="background-color: #ffffffff" xmlns="http://www.w3.org/2000/svg" xmlns:xlink="http://www.w3.org/1999/xlink" version="1.1" >
<path stroke="transparent" fill="#000000" transform="matrix(0.05 0 0 0.05 -247 -168)" d="M 5269.3,3413.64 L 5269.3,3428.93 L 4997.26,3586 L 4990.64,3574.53 L 5269.3,3413.64 Z " />
<path stroke="transparent" fill="#000000" transform="matrix(0.05 0 0 0.05 -247 -168)" d="M 5544.65,3572.61 L 5544.65,3587.91 L 5269.3,3428.93 L 5269.3,3413.64 L 5544.65,3572.61 Z " />
<path stroke="transparent" fill="#000000" transform="matrix(0.05 0 0 0.05 -247 -168)" d="M 5820.11,3413.64 L 5820.11,3428.93 L 5544.65,3587.91 L 5544.65,3572.61 L 5820.11,3413.64 Z " />
<path stroke="transparent" fill="#000000" transform="matrix(0.05 0 0 0.05 -247 -168)" d="M 6095.46,3572.61 L 6095.46,3587.91 L 5820.11,3428.93 L 5820.11,3413.64 L 6095.46,3572.61 Z " />
<path stroke="transparent" fill="#000000" transform="matrix(0.05 0 0 0.05 -247 -168)" d="M 6370.82,3413.64 L 6370.82,3428.93 L 6095.46,3587.91 L 6095.46,3572.61 L 6370.82,3413.64 Z " />
<path stroke="transparent" fill="#000000" transform="matrix(0.05 0 0 0.05 -247 -168)" d="M 6646.17,3572.61 L 6646.17,3587.91 L 6370.82,3428.93 L 6370.82,3413.64 L 6646.17,3572.61 Z " />
<path stroke="transparent" fill="#000000" transform="matrix(0.05 0 0 0.05 -247 -168)" d="M 6921.52,3413.64 L 6921.52,3428.93 L 6646.17,3587.91 L 6646.17,3572.61 L 6921.52,3413.64 Z " />
<path stroke="transparent" fill="#000000" transform="matrix(0.05 0 0 0.05 -247 -168)" d="M 7196.87,3572.61 L 7196.87,3587.91 L 6921.52,3428.93 L 6921.52,3413.64 L 7196.87,3572.61 Z " />
<path stroke="transparent" fill="#000000" transform="matrix(0.05 0 0 0.05 -247 -168)" d="M 7472.23,3413.64 L 7472.23,3428.93 L 7196.87,3587.91 L 7196.87,3572.61 L 7472.23,3413.64 Z " />
<path stroke="transparent" fill="#000000" transform="matrix(0.05 0 0 0.05 -247 -168)" d="M 7747.58,3572.61 L 7747.58,3587.91 L 7472.23,3428.93 L 7472.23,3413.64 L 7747.58,3572.61 Z " />
<path stroke="transparent" fill="#000000" transform="matrix(0.05 0 0 0.05 -247 -168)" d="M 8022.93,3413.64 L 8022.93,3428.93 L 7747.58,3587.91 L 7747.58,3572.61 L 8022.93,3413.64 Z " />
<path stroke="transparent" fill="#000000" transform="matrix(0.05 0 0 0.05 -247 -168)" d="M 8298.28,3572.61 L 8298.28,3587.91 L 8022.93,3428.93 L 8022.93,3413.64 L 8298.28,3572.61 Z " />
<path stroke="transparent" fill="#000000" transform="matrix(0.05 0 0 0.05 -247 -168)" d="M 8573.64,3413.64 L 8573.64,3428.93 L 8298.28,3587.91 L 8298.28,3572.61 L 8573.64,3413.64 Z " />
<path stroke="transparent" fill="#000000" transform="matrix(0.05 0 0 0.05 -247 -168)" d="M 8848.99,3572.61 L 8848.99,3587.91 L 8573.64,3428.93 L 8573.64,3413.64 L 8848.99,3572.61 Z " />
<path stroke="transparent" fill="#000000" transform="matrix(0.05 0 0 0.05 -247 -168)" d="M 9124.34,3413.63 L 9124.34,3428.93 L 8848.99,3587.91 L 8848.99,3572.61 L 9124.34,3413.63 Z " />
<path stroke="transparent" fill="#000000" transform="matrix(0.05 0 0 0.05 -247 -168)" d="M 9399.8,3572.72 L 9399.8,3588.02 L 9124.34,3428.93 L 9124.34,3413.63 L 9399.8,3572.72 Z " />
<path stroke="transparent" fill="#000000" transform="matrix(0.05 0 0 0.05 -247 -168)" d="M 9675.15,3413.74 L 9675.15,3429.04 L 9399.8,3588.02 L 9399.8,3572.72 L 9675.15,3413.74 Z " />
<path stroke="transparent" fill="#000000" transform="matrix(0.05 0 0 0.05 -247 -168)" d="M 9950.5,3572.72 L 9950.5,3588.02 L 9675.15,3429.04 L 9675.15,3413.74 L 9950.5,3572.72 Z " />
<path stroke="transparent" fill="#000000" transform="matrix(0.05 0 0 0.05 -247 -168)" d="M 10225.9,3413.74 L 10225.9,3429.04 L 9950.5,3588.02 L 9950.5,3572.72 L 10225.9,3413.74 Z " />
<path stroke="transparent" fill="#000000" transform="matrix(0.05 0 0 0.05 -247 -168)" d="M 10501.2,3572.72 L 10501.2,3588.02 L 10225.9,3429.04 L 10225.9,3413.74 L 10501.2,3572.72 Z " />
<path stroke="transparent" fill="#000000" transform="matrix(0.05 0 0 0.05 -247 -168)" d="M 10776.6,3413.74 L 10776.6,3429.04 L 10501.2,3588.02 L 10501.2,3572.72 L 10776.6,3413.74 Z " />
<path stroke="transparent" fill="#000000" transform="matrix(0.05 0 0 0.05 -247 -168)" d="M 11051.9,3572.72 L 11051.9,3588.02 L 10776.6,3429.04 L 10776.6,3413.74 L 11051.9,3572.72 Z " />
<path stroke="transparent" fill="#000000" transform="matrix(0.05 0 0 0.05 -247 -168)" d="M 11327.3,3413.74 L 11327.3,3429.04 L 11051.9,3588.02 L 11051.9,3572.72 L 11327.3,3413.74 Z " />
<path stroke="transparent" fill="#000000" transform="matrix(0.05 0 0 0.05 -247 -168)" d="M 11602.6,3572.72 L 11602.6,3588.02 L 11327.3,3429.04 L 11327.3,3413.74 L 11602.6,3572.72 Z " />
<path stroke="transparent" fill="#000000" transform="matrix(0.05 0 0 0.05 -247 -168)" d="M 11878,3413.74 L 11878,3429.04 L 11602.6,3588.02 L 11602.6,3572.72 L 11878,3413.74 Z " />
<path stroke="transparent" fill="#000000" transform="matrix(0.05 0 0 0.05 -247 -168)" d="M 12153.3,3572.72 L 12153.3,3588.02 L 11878,3429.04 L 11878,3413.74 L 12153.3,3572.72 Z " />
<path stroke="transparent" fill="#000000" transform="matrix(0.05 0 0 0.05 -247 -168)" d="M 12428.7,3413.74 L 12428.7,3429.04 L 12153.3,3588.02 L 12153.3,3572.72 L 12428.7,3413.74 Z " />
<path stroke="transparent" fill="#000000" transform="matrix(0.05 0 0 0.05 -247 -168)" d="M 12704,3572.72 L 12704,3588.02 L 12428.7,3429.04 L 12428.7,3413.74 L 12704,3572.72 Z " />
<path stroke="transparent" fill="#000000" transform="matrix(0.05 0 0 0.05 -247 -168)" d="M 12979.5,3413.74 L 12979.5,3429.04 L 12704,3588.02 L 12704,3572.72 L 12979.5,3413.74 Z " />
<path stroke="transparent" fill="#000000" transform="matrix(0.05 0 0 0.05 -247 -168)" d="M 13254.8,3572.72 L 13254.8,3588.02 L 12979.5,3429.04 L 12979.5,3413.74 L 13254.8,3572.72 Z " />
<path stroke="transparent" fill="#000000" transform="matrix(0.05 0 0 0.05 -247 -168)" d="M 13526.9,3415.65 L 13533.5,3427.13 L 13254.8,3588.02 L 13254.8,3572.72 L 13526.9,3415.65 Z " />
</svg>
