<?xml version="1.0" standalone="no" ?>
<!DOCTYPE svg PUBLIC "-//W3C//DTD SVG 1.1//EN" "http://www.w3.org/Graphics/SVG/1.1/DTD/svg11.dtd">
<svg width="231px" height="206px" viewBox="0 0 231 206" style="background-color: #ffffff00" xmlns="http://www.w3.org/2000/svg" xmlns:xlink="http://www.w3.org/1999/xlink" version="1.1" >
<text x="0" y="0" stroke="transparent" fill="#000000" transform="matrix(0.0666667 0 0 0.0666667 151.005 119.111)" style="font:normal normal normal 200px 'Arial'" >
OH</text>
<text x="0" y="0" stroke="transparent" fill="#000000" transform="matrix(0.0666667 0 0 0.0666667 46.1519 203.047)" style="font:normal normal normal 200px 'Arial'" >
H</text>
<text x="0" y="0" stroke="transparent" fill="#000000" transform="matrix(0.0666667 0 0 0.0666667 103.976 14.5637)" style="font:normal normal normal 200px 'Arial'" >
O</text>
<text x="0" y="0" stroke="transparent" fill="#000000" transform="matrix(0.0666667 0 0 0.0666667 158.143 57.7604)" style="font:normal normal normal 200px 'Arial'" >
O</text>
<text x="0" y="0" stroke="transparent" fill="#000000" transform="matrix(0.0666667 0 0 0.0666667 46.1519 35.174)" style="font:normal normal normal 200px 'Arial'" >
H</text>
<text x="0" y="0" stroke="transparent" fill="#000000" transform="matrix(0.0666667 0 0 0.0666667 38.1333 117.867)" style="font:normal normal normal 200px 'Arial'" >
N</text>
<path stroke="transparent" fill="#000000" transform="matrix(0.0666667 0 0 0.0666667 -44.0667 -7.33333)" d="M 1460.33,2969.07 L 1440.83,2964.62 L 1547.64,2496.65 L 1558.79,2492.75 L 1567.14,2501.11 L 1460.33,2969.07 Z " />
<path stroke="transparent" fill="#000000" transform="matrix(0.0666667 0 0 0.0666667 -44.0667 -7.33333)" d="M 2136.83,2350.56 L 2150.67,2367.92 L 1567.14,2501.11 L 1558.79,2492.75 L 1565.86,2480.88 L 2136.83,2350.56 Z " />
<path stroke="transparent" fill="#000000" transform="matrix(0.0666667 0 0 0.0666667 -44.0667 -7.33333)" d="M 2392.98,1818.66 L 2404.08,1818.66 L 2410.07,1829.27 L 2150.67,2367.92 L 2136.83,2350.56 L 2392.98,1818.66 Z " />
<path stroke="transparent" fill="#000000" transform="matrix(0.0666667 0 0 0.0666667 -44.0667 -7.33333)" d="M 2896.08,1758.66 L 2896.08,1878.66 L 2410.07,1829.27 L 2404.08,1818.66 L 2410.07,1808.05 L 2896.08,1758.66 Z " />
<path stroke="transparent" fill="#000000" transform="matrix(0.0666667 0 0 0.0666667 -44.0667 -7.33333)" d="M 2136.83,1286.76 L 2143.75,1278.08 L 2155.73,1279.9 L 2410.07,1808.05 L 2404.08,1818.66 L 2392.98,1818.66 L 2136.83,1286.76 Z " />
<path stroke="transparent" fill="#000000" transform="matrix(0.0666667 0 0 0.0666667 -44.0667 -7.33333)" d="M 2458.63,789.942 L 2581.46,828.682 L 2155.73,1279.9 L 2143.75,1278.08 L 2139.3,1266.81 L 2458.63,789.942 Z " />
<path stroke="transparent" fill="#000000" transform="matrix(0.0666667 0 0 0.0666667 -44.0667 -7.33333)" d="M 2300.3,380.597 L 2318.91,373.29 L 2501.23,837.827 L 2482.61,845.134 L 2300.3,380.597 Z " />
<path stroke="transparent" fill="#000000" transform="matrix(0.0666667 0 0 0.0666667 -44.0667 -7.33333)" d="M 2367.32,354.292 L 2385.94,346.986 L 2568.25,811.522 L 2549.64,818.829 L 2367.32,354.292 Z " />
<path stroke="transparent" fill="#000000" transform="matrix(0.0666667 0 0 0.0666667 -44.0667 -7.33333)" d="M 3006.59,872.534 L 3003.61,892.31 L 2581.46,828.682 L 2458.63,789.942 L 3006.59,872.534 Z " />
<path stroke="transparent" fill="#000000" transform="matrix(0.0666667 0 0 0.0666667 -44.0667 -7.33333)" d="M 1565.71,1156.4 L 1558.79,1144.57 L 1567.14,1136.22 L 2139.3,1266.81 L 2143.75,1278.08 L 2136.83,1286.76 L 1565.71,1156.4 Z " />
<path stroke="transparent" fill="#000000" transform="matrix(0.0666667 0 0 0.0666667 -44.0667 -7.33333)" d="M 1443.94,686.326 L 1463.44,681.876 L 1567.14,1136.22 L 1558.79,1144.57 L 1547.64,1140.67 L 1443.94,686.326 Z " />
<path stroke="transparent" fill="#000000" transform="matrix(0.0666667 0 0 0.0666667 -44.0667 -7.33333)" d="M 1403.85,1710.87 L 1291.95,1667.54 L 1530.35,1180.03 L 1558.79,1144.57 L 1565.71,1156.4 L 1403.85,1710.87 Z " />
<path stroke="transparent" fill="#000000" transform="matrix(0.0666667 0 0 0.0666667 -44.0667 -7.33333)" d="M 1293.97,1944.32 L 1406.65,1903.04 L 1565.86,2480.88 L 1558.79,2492.75 L 1532,2458.6 L 1293.97,1944.32 Z " />
<path stroke="transparent" fill="#000000" transform="matrix(0.0666667 0 0 0.0666667 -44.0667 -7.33333)" d="M 1099.69,1523.48 L 1079.69,1513.84 L 1547.64,1140.67 L 1558.79,1144.57 L 1530.35,1180.03 L 1099.69,1523.48 Z " />
<path stroke="transparent" fill="#000000" transform="matrix(0.0666667 0 0 0.0666667 -44.0667 -7.33333)" d="M 1099.69,2113.84 L 1079.69,2123.48 L 1079.69,1847.94 L 1099.69,1848.13 L 1099.69,2113.84 L 1099.69,2113.84 Z " />
<path stroke="transparent" fill="#000000" transform="matrix(0.0666667 0 0 0.0666667 -44.0667 -7.33333)" d="M 1079.69,1513.84 L 1099.69,1523.48 L 1099.69,1748.12 L 1079.69,1747.94 L 1079.69,1513.84 L 1079.69,1513.84 Z " />
<path stroke="transparent" fill="#000000" transform="matrix(0.0666667 0 0 0.0666667 -44.0667 -7.33333)" d="M 1079.69,2123.48 L 1099.69,2113.84 L 1532,2458.6 L 1558.79,2492.75 L 1547.64,2496.65 L 1079.69,2123.48 Z " />
<path stroke="transparent" fill="#000000" transform="matrix(0.0666667 0 0 0.0666667 -44.0667 -7.33333)" d="M 4080.02,508.844 L 4077.04,528.62 L 3489.45,440.055 L 3481.01,418.558 L 4080.02,508.844 Z " />
<path stroke="transparent" fill="#000000" transform="matrix(0.0666667 0 0 0.0666667 -44.0667 -7.33333)" d="M 3481.01,418.558 L 3489.45,440.055 L 3185.56,821.13 L 3169.92,808.66 L 3481.01,418.558 Z " />
<path stroke="transparent" fill="#000000" transform="matrix(0.0666667 0 0 0.0666667 -44.0667 -7.33333)" d="M 704.934,1804.52 L 705.116,1784.52 L 1209.1,1789.12 L 1208.92,1809.12 L 704.934,1804.52 Z " />
</svg>
