<?xml version="1.0" standalone="no" ?>
<!DOCTYPE svg PUBLIC "-//W3C//DTD SVG 1.1//EN" "http://www.w3.org/Graphics/SVG/1.1/DTD/svg11.dtd">
<svg width="178px" height="206px" viewBox="0 0 178 206" style="background-color: #ffffff00" xmlns="http://www.w3.org/2000/svg" xmlns:xlink="http://www.w3.org/1999/xlink" version="1.1" >
<text x="0" y="0" stroke="transparent" fill="#000000" transform="matrix(0.0666667 0 0 0.0666667 147.887 119.111)" style="font:normal normal normal 200px 'Arial'" >
OH</text>
<text x="0" y="0" stroke="transparent" fill="#000000" transform="matrix(0.0666667 0 0 0.0666667 43.0335 203.047)" style="font:normal normal normal 200px 'Arial'" >
H</text>
<text x="0" y="0" stroke="transparent" fill="#000000" transform="matrix(0.0666667 0 0 0.0666667 100.857 14.5637)" style="font:normal normal normal 200px 'Arial'" >
O</text>
<text x="0" y="0" stroke="transparent" fill="#000000" transform="matrix(0.0666667 0 0 0.0666667 155.024 57.7604)" style="font:normal normal normal 200px 'Arial'" >
OH</text>
<text x="0" y="0" stroke="transparent" fill="#000000" transform="matrix(0.0666667 0 0 0.0666667 43.0335 35.174)" style="font:normal normal normal 200px 'Arial'" >
H</text>
<text x="0" y="0" stroke="transparent" fill="#000000" transform="matrix(0.0666667 0 0 0.0666667 38.1333 119.867)" style="font:normal normal normal 200px 'Arial'" >
N</text>
<path stroke="transparent" fill="#000000" transform="matrix(0.0666667 0 0 0.0666667 -32.0667 -7.33333)" d="M 1233.56,2969.07 L 1214.06,2964.62 L 1320.87,2496.65 L 1332.01,2492.75 L 1340.37,2501.11 L 1233.56,2969.07 Z " />
<path stroke="transparent" fill="#000000" transform="matrix(0.0666667 0 0 0.0666667 -32.0667 -7.33333)" d="M 1910.05,2350.56 L 1923.89,2367.92 L 1340.37,2501.11 L 1332.01,2492.75 L 1339.6,2480.77 L 1910.05,2350.56 Z " />
<path stroke="transparent" fill="#000000" transform="matrix(0.0666667 0 0 0.0666667 -32.0667 -7.33333)" d="M 2166.2,1818.66 L 2177.3,1818.66 L 2183.29,1829.27 L 1923.89,2367.92 L 1910.05,2350.56 L 2166.2,1818.66 Z " />
<path stroke="transparent" fill="#000000" transform="matrix(0.0666667 0 0 0.0666667 -32.0667 -7.33333)" d="M 2669.3,1758.66 L 2669.3,1878.66 L 2183.29,1829.27 L 2177.3,1818.66 L 2183.29,1808.05 L 2669.3,1758.66 Z " />
<path stroke="transparent" fill="#000000" transform="matrix(0.0666667 0 0 0.0666667 -32.0667 -7.33333)" d="M 1910.05,1286.76 L 1916.97,1278.08 L 1928.95,1279.9 L 2183.29,1808.05 L 2177.3,1818.66 L 2166.2,1818.66 L 1910.05,1286.76 Z " />
<path stroke="transparent" fill="#000000" transform="matrix(0.0666667 0 0 0.0666667 -32.0667 -7.33333)" d="M 2231.85,789.942 L 2354.68,828.682 L 1928.95,1279.9 L 1916.97,1278.08 L 1912.53,1266.81 L 2231.85,789.942 Z " />
<path stroke="transparent" fill="#000000" transform="matrix(0.0666667 0 0 0.0666667 -32.0667 -7.33333)" d="M 2073.52,380.597 L 2092.14,373.29 L 2274.46,837.827 L 2255.84,845.134 L 2073.52,380.597 Z " />
<path stroke="transparent" fill="#000000" transform="matrix(0.0666667 0 0 0.0666667 -32.0667 -7.33333)" d="M 2140.54,354.292 L 2159.16,346.986 L 2341.48,811.522 L 2322.86,818.829 L 2140.54,354.292 Z " />
<path stroke="transparent" fill="#000000" transform="matrix(0.0666667 0 0 0.0666667 -32.0667 -7.33333)" d="M 2779.81,872.534 L 2776.83,892.31 L 2354.68,828.682 L 2231.85,789.942 L 2779.81,872.534 Z " />
<path stroke="transparent" fill="#000000" transform="matrix(0.0666667 0 0 0.0666667 -32.0667 -7.33333)" d="M 1339.65,1156.57 L 1332.01,1144.57 L 1340.37,1136.22 L 1912.53,1266.81 L 1916.97,1278.08 L 1910.05,1286.76 L 1339.65,1156.57 Z " />
<path stroke="transparent" fill="#000000" transform="matrix(0.0666667 0 0 0.0666667 -32.0667 -7.33333)" d="M 1217.17,686.326 L 1236.67,681.876 L 1340.37,1136.22 L 1332.01,1144.57 L 1320.87,1140.67 L 1217.17,686.326 Z " />
<path stroke="transparent" fill="#000000" transform="matrix(0.0666667 0 0 0.0666667 -32.0667 -7.33333)" d="M 1216.07,1735.98 L 1101.2,1701.28 L 1308.98,1175.73 L 1332.01,1144.57 L 1339.65,1156.57 L 1216.07,1735.98 Z " />
<path stroke="transparent" fill="#000000" transform="matrix(0.0666667 0 0 0.0666667 -32.0667 -7.33333)" d="M 1106.59,1972.31 L 1221.14,1936.54 L 1339.6,2480.77 L 1332.01,2492.75 L 1308.1,2460.89 L 1106.59,1972.31 Z " />
<path stroke="transparent" fill="#000000" transform="matrix(0.0666667 0 0 0.0666667 -32.0667 -7.33333)" d="M 872.916,1523.48 L 852.916,1513.84 L 1320.87,1140.67 L 1332.01,1144.57 L 1308.98,1175.73 L 872.916,1523.48 Z " />
<path stroke="transparent" fill="#000000" transform="matrix(0.0666667 0 0 0.0666667 -32.0667 -7.33333)" d="M 872.916,2113.84 L 852.916,2123.48 L 852.916,1881.29 L 872.916,1881.19 L 872.916,2113.84 L 872.916,2113.84 Z " />
<path stroke="transparent" fill="#000000" transform="matrix(0.0666667 0 0 0.0666667 -32.0667 -7.33333)" d="M 852.916,1513.84 L 872.916,1523.48 L 872.916,1781.19 L 852.916,1781.28 L 852.916,1513.84 L 852.916,1513.84 Z " />
<path stroke="transparent" fill="#000000" transform="matrix(0.0666667 0 0 0.0666667 -32.0667 -7.33333)" d="M 852.916,2123.48 L 872.916,2113.84 L 1308.1,2460.89 L 1332.01,2492.75 L 1320.87,2496.65 L 852.916,2123.48 Z " />
<path stroke="transparent" fill="#000000" transform="matrix(0.0666667 0 0 0.0666667 -32.0667 -7.33333)" d="M 525.054,1842.83 L 524.959,1822.83 L 1028.95,1820.45 L 1029.05,1840.45 L 525.054,1842.83 Z " />
</svg>
