<?xml version="1.0" standalone="no" ?>
<!DOCTYPE svg PUBLIC "-//W3C//DTD SVG 1.1//EN" "http://www.w3.org/Graphics/SVG/1.1/DTD/svg11.dtd">
<svg width="239px" height="198px" viewBox="0 0 239 198" style="background-color: #ffffff00" xmlns="http://www.w3.org/2000/svg" xmlns:xlink="http://www.w3.org/1999/xlink" version="1.1" >
<text x="0" y="0" stroke="transparent" fill="#000000" transform="matrix(0.0666667 0 0 0.0666667 146.86 124.84)" style="font:normal normal normal 200px 'Arial'" >
O</text>
<text x="0" y="0" stroke="transparent" fill="#000000" transform="matrix(0.0666667 0 0 0.0666667 30.6717 192.152)" style="font:normal normal normal 200px 'Arial'" >
H</text>
<text x="0" y="0" stroke="transparent" fill="#000000" transform="matrix(0.0666667 0 0 0.0666667 115.937 14.4517)" style="font:normal normal normal 200px 'Arial'" >
O</text>
<text x="0" y="0" stroke="transparent" fill="#000000" transform="matrix(0.0666667 0 0 0.0666667 163.061 65.239)" style="font:normal normal normal 200px 'Arial'" >
O</text>
<text x="0" y="0" stroke="transparent" fill="#000000" transform="matrix(0.0666667 0 0 0.0666667 58.6812 26.0421)" style="font:normal normal normal 200px 'Arial'" >
H</text>
<text x="0" y="0" stroke="transparent" fill="#000000" transform="matrix(0.0666667 0 0 0.0666667 38.1333 109.867)" style="font:normal normal normal 200px 'Arial'" >
N</text>
<text x="0" y="0" stroke="transparent" fill="#000000" transform="matrix(0.0666667 0 0 0.0666667 160.745 162.075)" style="font:normal normal normal 200px 'Arial'" >
Si</text>
<path stroke="transparent" fill="#000000" transform="matrix(0.0666667 0 0 0.0666667 -49.0667 -16.3333)" d="M 1320.84,2942.21 L 1302.22,2934.9 L 1475.68,2492.96 L 1487.28,2490.76 L 1494.29,2500.26 L 1320.84,2942.21 Z " />
<path stroke="transparent" fill="#000000" transform="matrix(0.0666667 0 0 0.0666667 -49.0667 -16.3333)" d="M 2080.05,2436.31 L 2091.15,2455.53 L 1494.29,2500.26 L 1487.28,2490.76 L 1496.52,2480.04 L 2080.05,2436.31 Z " />
<path stroke="transparent" fill="#000000" transform="matrix(0.0666667 0 0 0.0666667 -49.0667 -16.3333)" d="M 2412.62,1948.53 L 2423.6,1950.18 L 2427.94,1961.56 L 2091.15,2455.53 L 2080.05,2436.31 L 2412.62,1948.53 Z " />
<path stroke="transparent" fill="#000000" transform="matrix(0.0666667 0 0 0.0666667 -49.0667 -16.3333)" d="M 2919.79,1964.29 L 2901.91,2082.95 L 2427.94,1961.56 L 2423.6,1950.18 L 2431.1,1940.58 L 2919.79,1964.29 Z " />
<path stroke="transparent" fill="#000000" transform="matrix(0.0666667 0 0 0.0666667 -49.0667 -16.3333)" d="M 2238.61,1384.38 L 2246.74,1376.84 L 2258.31,1380.43 L 2431.1,1940.58 L 2423.6,1950.18 L 2412.62,1948.53 L 2238.61,1384.38 Z " />
<path stroke="transparent" fill="#000000" transform="matrix(0.0666667 0 0 0.0666667 -49.0667 -16.3333)" d="M 2630.86,941.082 L 2746.54,997.695 L 2258.31,1380.43 L 2246.74,1376.84 L 2244.03,1365.03 L 2630.86,941.082 Z " />
<path stroke="transparent" fill="#000000" transform="matrix(0.0666667 0 0 0.0666667 -49.0667 -16.3333)" d="M 2535.37,513.01 L 2554.87,508.56 L 2665.85,994.781 L 2646.35,999.231 L 2535.37,513.01 Z " />
<path stroke="transparent" fill="#000000" transform="matrix(0.0666667 0 0 0.0666667 -49.0667 -16.3333)" d="M 2605.57,496.989 L 2625.07,492.539 L 2736.04,978.759 L 2716.55,983.21 L 2605.57,496.989 Z " />
<path stroke="transparent" fill="#000000" transform="matrix(0.0666667 0 0 0.0666667 -49.0667 -16.3333)" d="M 3160.74,1104.53 L 3154.84,1123.64 L 2746.54,997.695 L 2630.86,941.082 L 3160.74,1104.53 Z " />
<path stroke="transparent" fill="#000000" transform="matrix(0.0666667 0 0 0.0666667 -49.0667 -16.3333)" d="M 1694.01,1170.65 L 1688.22,1157.63 L 1698.22,1150.81 L 2244.03,1365.03 L 2246.74,1376.84 L 2238.61,1384.38 L 1694.01,1170.65 Z " />
<path stroke="transparent" fill="#000000" transform="matrix(0.0666667 0 0 0.0666667 -49.0667 -16.3333)" d="M 1678.22,674.798 L 1698.22,674.798 L 1698.22,1150.81 L 1688.22,1157.63 L 1678.22,1151.86 L 1678.22,674.798 Z " />
<path stroke="transparent" fill="#000000" transform="matrix(0.0666667 0 0 0.0666667 -49.0667 -16.3333)" d="M 1485.55,1731.22 L 1376.9,1680.28 L 1661.13,1184.82 L 1688.22,1157.63 L 1694.01,1170.65 L 1485.55,1731.22 Z " />
<path stroke="transparent" fill="#000000" transform="matrix(0.0666667 0 0 0.0666667 -49.0667 -16.3333)" d="M 1338.96,1939.18 L 1457.48,1920.37 L 1496.52,2480.04 L 1487.28,2490.76 L 1468.18,2455.47 L 1338.96,1939.18 Z " />
<path stroke="transparent" fill="#000000" transform="matrix(0.0666667 0 0 0.0666667 -49.0667 -16.3333)" d="M 1177.77,1463.88 L 1159.43,1451.38 L 1678.22,1151.86 L 1688.22,1157.63 L 1661.13,1184.82 L 1177.77,1463.88 Z " />
<path stroke="transparent" fill="#000000" transform="matrix(0.0666667 0 0 0.0666667 -49.0667 -16.3333)" d="M 1089.78,2047.66 L 1068.57,2054.2 L 1102.92,1826.31 L 1122.72,1829.11 L 1089.78,2047.66 L 1089.78,2047.66 Z " />
<path stroke="transparent" fill="#000000" transform="matrix(0.0666667 0 0 0.0666667 -49.0667 -16.3333)" d="M 1159.43,1451.38 L 1177.77,1463.88 L 1137.63,1730.22 L 1117.82,1727.42 L 1159.43,1451.38 L 1159.43,1451.38 Z " />
<path stroke="transparent" fill="#000000" transform="matrix(0.0666667 0 0 0.0666667 -49.0667 -16.3333)" d="M 1068.57,2054.2 L 1089.78,2047.66 L 1468.18,2455.47 L 1487.28,2490.76 L 1475.68,2492.96 L 1068.57,2054.2 Z " />
<path stroke="transparent" fill="#000000" transform="matrix(0.0666667 0 0 0.0666667 -49.0667 -16.3333)" d="M 4266.32,866.953 L 4261.15,886.272 L 3687.17,732.475 L 3681.19,710.167 L 4266.32,866.953 Z " />
<path stroke="transparent" fill="#000000" transform="matrix(0.0666667 0 0 0.0666667 -49.0667 -16.3333)" d="M 3681.19,710.167 L 3687.17,732.475 L 3342.36,1077.29 L 3328.21,1063.15 L 3681.19,710.167 Z " />
<path stroke="transparent" fill="#000000" transform="matrix(0.0666667 0 0 0.0666667 -49.0667 -16.3333)" d="M 3464.61,3153 L 3445.99,3160.31 L 3278.63,2733.87 L 3297.25,2726.57 L 3464.61,3153 Z " />
<path stroke="transparent" fill="#000000" transform="matrix(0.0666667 0 0 0.0666667 -49.0667 -16.3333)" d="M 2869.82,3073.46 L 2854.19,3060.99 L 3144.95,2696.38 L 3160.59,2708.85 L 2869.82,3073.46 Z " />
<path stroke="transparent" fill="#000000" transform="matrix(0.0666667 0 0 0.0666667 -49.0667 -16.3333)" d="M 3830.89,2677.67 L 3827.91,2697.44 L 3347.58,2625.04 L 3350.56,2605.27 L 3830.89,2677.67 Z " />
<path stroke="transparent" fill="#000000" transform="matrix(0.0666667 0 0 0.0666667 -49.0667 -16.3333)" d="M 3203.52,2487.75 L 3184.9,2495.05 L 3052.07,2156.59 L 3070.68,2149.29 L 3203.52,2487.75 Z " />
<path stroke="transparent" fill="#000000" transform="matrix(0.0666667 0 0 0.0666667 -49.0667 -16.3333)" d="M 784.512,1740.88 L 787.312,1721.08 L 1286.89,1791.73 L 1284.09,1811.54 L 784.512,1740.88 Z " />
</svg>
