<?xml version="1.0" standalone="no" ?>
<!DOCTYPE svg PUBLIC "-//W3C//DTD SVG 1.1//EN" "http://www.w3.org/Graphics/SVG/1.1/DTD/svg11.dtd">
<svg width="189px" height="206px" viewBox="0 0 189 206" style="background-color: #ffffff00" xmlns="http://www.w3.org/2000/svg" xmlns:xlink="http://www.w3.org/1999/xlink" version="1.1" >
<text x="0" y="0" stroke="transparent" fill="#000000" transform="matrix(0.0666667 0 0 0.0666667 147.571 119.111)" style="font:normal normal normal 200px 'Arial'" >
OH</text>
<text x="0" y="0" stroke="transparent" fill="#000000" transform="matrix(0.0666667 0 0 0.0666667 42.7175 203.047)" style="font:normal normal normal 200px 'Arial'" >
H</text>
<text x="0" y="0" stroke="transparent" fill="#000000" transform="matrix(0.0666667 0 0 0.0666667 100.541 14.5637)" style="font:normal normal normal 200px 'Arial'" >
O</text>
<text x="0" y="0" stroke="transparent" fill="#000000" transform="matrix(0.0666667 0 0 0.0666667 154.708 57.7604)" style="font:normal normal normal 200px 'Arial'" >
O</text>
<text x="0" y="0" stroke="transparent" fill="#000000" transform="matrix(0.0666667 0 0 0.0666667 42.7175 35.174)" style="font:normal normal normal 200px 'Arial'" >
H</text>
<text x="0" y="0" stroke="transparent" fill="#000000" transform="matrix(0.0666667 0 0 0.0666667 38.1333 118.867)" style="font:normal normal normal 200px 'Arial'" >
N</text>
<path stroke="transparent" fill="#000000" transform="matrix(0.0666667 0 0 0.0666667 -33.0667 -17.3333)" d="M 1243.82,3119.07 L 1224.32,3114.62 L 1331.13,2646.65 L 1342.28,2642.75 L 1350.63,2651.11 L 1243.82,3119.07 Z " />
<path stroke="transparent" fill="#000000" transform="matrix(0.0666667 0 0 0.0666667 -33.0667 -17.3333)" d="M 1920.31,2500.56 L 1934.15,2517.92 L 1350.63,2651.11 L 1342.28,2642.75 L 1349.97,2630.74 L 1920.31,2500.56 Z " />
<path stroke="transparent" fill="#000000" transform="matrix(0.0666667 0 0 0.0666667 -33.0667 -17.3333)" d="M 2176.46,1968.66 L 2187.56,1968.66 L 2193.55,1979.27 L 1934.15,2517.92 L 1920.31,2500.56 L 2176.46,1968.66 Z " />
<path stroke="transparent" fill="#000000" transform="matrix(0.0666667 0 0 0.0666667 -33.0667 -17.3333)" d="M 2679.56,1908.66 L 2679.56,2028.66 L 2193.55,1979.27 L 2187.56,1968.66 L 2193.55,1958.05 L 2679.56,1908.66 Z " />
<path stroke="transparent" fill="#000000" transform="matrix(0.0666667 0 0 0.0666667 -33.0667 -17.3333)" d="M 1920.31,1436.76 L 1927.23,1428.08 L 1939.21,1429.9 L 2193.55,1958.05 L 2187.56,1968.66 L 2176.46,1968.66 L 1920.31,1436.76 Z " />
<path stroke="transparent" fill="#000000" transform="matrix(0.0666667 0 0 0.0666667 -33.0667 -17.3333)" d="M 2242.11,939.942 L 2364.94,978.682 L 1939.21,1429.9 L 1927.23,1428.08 L 1922.79,1416.81 L 2242.11,939.942 Z " />
<path stroke="transparent" fill="#000000" transform="matrix(0.0666667 0 0 0.0666667 -33.0667 -17.3333)" d="M 2083.78,530.597 L 2102.4,523.29 L 2284.72,987.827 L 2266.1,995.134 L 2083.78,530.597 Z " />
<path stroke="transparent" fill="#000000" transform="matrix(0.0666667 0 0 0.0666667 -33.0667 -17.3333)" d="M 2150.81,504.292 L 2169.42,496.986 L 2351.74,961.522 L 2333.12,968.829 L 2150.81,504.292 Z " />
<path stroke="transparent" fill="#000000" transform="matrix(0.0666667 0 0 0.0666667 -33.0667 -17.3333)" d="M 2790.07,1022.53 L 2787.09,1042.31 L 2364.94,978.682 L 2242.11,939.942 L 2790.07,1022.53 Z " />
<path stroke="transparent" fill="#000000" transform="matrix(0.0666667 0 0 0.0666667 -33.0667 -17.3333)" d="M 1349.93,1306.57 L 1342.28,1294.57 L 1350.63,1286.22 L 1922.79,1416.81 L 1927.23,1428.08 L 1920.31,1436.76 L 1349.93,1306.57 Z " />
<path stroke="transparent" fill="#000000" transform="matrix(0.0666667 0 0 0.0666667 -33.0667 -17.3333)" d="M 1227.43,836.326 L 1246.93,831.876 L 1350.63,1286.22 L 1342.28,1294.57 L 1331.13,1290.67 L 1227.43,836.326 Z " />
<path stroke="transparent" fill="#000000" transform="matrix(0.0666667 0 0 0.0666667 -33.0667 -17.3333)" d="M 1231.04,1870.96 L 1116.16,1836.3 L 1319.13,1325.82 L 1342.28,1294.57 L 1349.93,1306.57 L 1231.04,1870.96 Z " />
<path stroke="transparent" fill="#000000" transform="matrix(0.0666667 0 0 0.0666667 -33.0667 -17.3333)" d="M 1119.67,2106.69 L 1234.66,2072.37 L 1349.97,2630.74 L 1342.28,2642.75 L 1319.25,2611.6 L 1119.67,2106.69 Z " />
<path stroke="transparent" fill="#000000" transform="matrix(0.0666667 0 0 0.0666667 -33.0667 -17.3333)" d="M 883.177,1673.48 L 863.177,1663.84 L 1331.13,1290.67 L 1342.28,1294.57 L 1319.13,1325.82 L 883.177,1673.48 Z " />
<path stroke="transparent" fill="#000000" transform="matrix(0.0666667 0 0 0.0666667 -33.0667 -17.3333)" d="M 883.177,2263.84 L 863.177,2273.48 L 863.177,2014.59 L 883.177,2014.62 L 883.177,2263.84 L 883.177,2263.84 Z " />
<path stroke="transparent" fill="#000000" transform="matrix(0.0666667 0 0 0.0666667 -33.0667 -17.3333)" d="M 863.177,1663.84 L 883.177,1673.48 L 883.177,1914.62 L 863.177,1914.59 L 863.177,1663.84 L 863.177,1663.84 Z " />
<path stroke="transparent" fill="#000000" transform="matrix(0.0666667 0 0 0.0666667 -33.0667 -17.3333)" d="M 863.177,2273.48 L 883.177,2263.84 L 1319.25,2611.6 L 1342.28,2642.75 L 1331.13,2646.65 L 863.177,2273.48 Z " />
<path stroke="transparent" fill="#000000" transform="matrix(0.0666667 0 0 0.0666667 -33.0667 -17.3333)" d="M 3260.9,573.072 L 3276.54,585.541 L 2969.04,971.13 L 2953.4,958.66 L 3260.9,573.072 Z " />
<path stroke="transparent" fill="#000000" transform="matrix(0.0666667 0 0 0.0666667 -33.0667 -17.3333)" d="M 539.986,1974.1 L 540.016,1954.1 L 1044.02,1954.86 L 1043.99,1974.86 L 539.986,1974.1 Z " />
</svg>
