<?xml version="1.0" standalone="no" ?>
<!DOCTYPE svg PUBLIC "-//W3C//DTD SVG 1.1//EN" "http://www.w3.org/Graphics/SVG/1.1/DTD/svg11.dtd">
<svg width="231px" height="204px" viewBox="0 0 231 204" style="background-color: #ffffff00" xmlns="http://www.w3.org/2000/svg" xmlns:xlink="http://www.w3.org/1999/xlink" version="1.1" >
<text x="0" y="0" stroke="transparent" fill="#000000" transform="matrix(0.0666667 0 0 0.0666667 147.005 116.849)" style="font:normal normal normal 200px 'Arial'" >
O</text>
<text x="0" y="0" stroke="transparent" fill="#000000" transform="matrix(0.0666667 0 0 0.0666667 42.1519 200.786)" style="font:normal normal normal 200px 'Arial'" >
H</text>
<text x="0" y="0" stroke="transparent" fill="#000000" transform="matrix(0.0666667 0 0 0.0666667 115.428 14.5958)" style="font:normal normal normal 200px 'Arial'" >
O</text>
<text x="0" y="0" stroke="transparent" fill="#000000" transform="matrix(0.0666667 0 0 0.0666667 153.261 72.636)" style="font:normal normal normal 200px 'Arial'" >
O</text>
<text x="0" y="0" stroke="transparent" fill="#000000" transform="matrix(0.0666667 0 0 0.0666667 42.1519 32.9127)" style="font:normal normal normal 200px 'Arial'" >
H</text>
<text x="0" y="0" stroke="transparent" fill="#000000" transform="matrix(0.0666667 0 0 0.0666667 38.1333 116.867)" style="font:normal normal normal 200px 'Arial'" >
N</text>
<text x="0" y="0" stroke="transparent" fill="#000000" transform="matrix(0.0666667 0 0 0.0666667 186.042 50.7931)" style="font:normal normal normal 200px 'Arial'" >
Si</text>
<path stroke="transparent" fill="#000000" transform="matrix(0.0666667 0 0 0.0666667 -35.0667 -38.3333)" d="M 1265.33,3400.15 L 1245.83,3395.7 L 1352.64,2927.73 L 1363.79,2923.83 L 1372.14,2932.19 L 1265.33,3400.15 Z " />
<path stroke="transparent" fill="#000000" transform="matrix(0.0666667 0 0 0.0666667 -35.0667 -38.3333)" d="M 1941.83,2781.64 L 1955.67,2799 L 1372.14,2932.19 L 1363.79,2923.83 L 1371.59,2911.8 L 1941.83,2781.64 Z " />
<path stroke="transparent" fill="#000000" transform="matrix(0.0666667 0 0 0.0666667 -35.0667 -38.3333)" d="M 2197.98,2249.74 L 2209.08,2249.74 L 2215.07,2260.35 L 1955.67,2799 L 1941.83,2781.64 L 2197.98,2249.74 Z " />
<path stroke="transparent" fill="#000000" transform="matrix(0.0666667 0 0 0.0666667 -35.0667 -38.3333)" d="M 2701.08,2189.74 L 2701.08,2309.74 L 2215.07,2260.35 L 2209.08,2249.74 L 2215.07,2239.13 L 2701.08,2189.74 Z " />
<path stroke="transparent" fill="#000000" transform="matrix(0.0666667 0 0 0.0666667 -35.0667 -38.3333)" d="M 1941.83,1717.84 L 1948.75,1709.16 L 1961.22,1712.01 L 2215.07,2239.13 L 2209.08,2249.74 L 2197.98,2249.74 L 1941.83,1717.84 Z " />
<path stroke="transparent" fill="#000000" transform="matrix(0.0666667 0 0 0.0666667 -35.0667 -38.3333)" d="M 2319.58,1279.36 L 2417.92,1351.68 L 1961.22,1712.01 L 1948.75,1709.16 L 1945.26,1698.11 L 2319.58,1279.36 Z " />
<path stroke="transparent" fill="#000000" transform="matrix(0.0666667 0 0 0.0666667 -35.0667 -38.3333)" d="M 2295.95,837.965 L 2315.92,836.884 L 2343.52,1346.78 L 2323.55,1347.86 L 2295.95,837.965 Z " />
<path stroke="transparent" fill="#000000" transform="matrix(0.0666667 0 0 0.0666667 -35.0667 -38.3333)" d="M 2367.85,834.074 L 2387.82,832.993 L 2414.9,1333.33 L 2394.93,1334.41 L 2367.85,834.074 Z " />
<path stroke="transparent" fill="#000000" transform="matrix(0.0666667 0 0 0.0666667 -35.0667 -38.3333)" d="M 2812.24,1529.32 L 2803.19,1547.16 L 2417.92,1351.68 L 2319.58,1279.36 L 2812.24,1529.32 Z " />
<path stroke="transparent" fill="#000000" transform="matrix(0.0666667 0 0 0.0666667 -35.0667 -38.3333)" d="M 1371.57,1587.68 L 1363.79,1575.65 L 1372.14,1567.3 L 1945.26,1698.11 L 1948.75,1709.16 L 1941.83,1717.84 L 1371.57,1587.68 Z " />
<path stroke="transparent" fill="#000000" transform="matrix(0.0666667 0 0 0.0666667 -35.0667 -38.3333)" d="M 1248.94,1117.41 L 1268.44,1112.96 L 1372.14,1567.3 L 1363.79,1575.65 L 1352.64,1571.75 L 1248.94,1117.41 Z " />
<path stroke="transparent" fill="#000000" transform="matrix(0.0666667 0 0 0.0666667 -35.0667 -38.3333)" d="M 1259.71,2155.07 L 1144.38,2121.92 L 1341.42,1606.28 L 1363.79,1575.65 L 1371.57,1587.68 L 1259.71,2155.07 Z " />
<path stroke="transparent" fill="#000000" transform="matrix(0.0666667 0 0 0.0666667 -35.0667 -38.3333)" d="M 1148.66,2392.87 L 1263.98,2359.7 L 1371.59,2911.8 L 1363.79,2923.83 L 1341.28,2893.09 L 1148.66,2392.87 Z " />
<path stroke="transparent" fill="#000000" transform="matrix(0.0666667 0 0 0.0666667 -35.0667 -38.3333)" d="M 904.691,1954.56 L 884.691,1944.92 L 1352.64,1571.75 L 1363.79,1575.65 L 1341.42,1606.28 L 904.691,1954.56 Z " />
<path stroke="transparent" fill="#000000" transform="matrix(0.0666667 0 0 0.0666667 -35.0667 -38.3333)" d="M 904.691,2544.92 L 884.691,2554.56 L 884.691,2300.03 L 904.691,2300.03 L 904.691,2544.92 L 904.691,2544.92 Z " />
<path stroke="transparent" fill="#000000" transform="matrix(0.0666667 0 0 0.0666667 -35.0667 -38.3333)" d="M 884.691,1944.92 L 904.691,1954.56 L 904.691,2200.03 L 884.691,2200.03 L 884.691,1944.92 L 884.691,1944.92 Z " />
<path stroke="transparent" fill="#000000" transform="matrix(0.0666667 0 0 0.0666667 -35.0667 -38.3333)" d="M 884.691,2554.56 L 904.691,2544.92 L 1341.28,2893.09 L 1363.79,2923.83 L 1352.64,2927.73 L 884.691,2554.56 Z " />
<path stroke="transparent" fill="#000000" transform="matrix(0.0666667 0 0 0.0666667 -35.0667 -38.3333)" d="M 3902.74,922.877 L 3913.66,939.631 L 3526.04,1192.3 L 3515.12,1175.54 L 3902.74,922.877 Z " />
<path stroke="transparent" fill="#000000" transform="matrix(0.0666667 0 0 0.0666667 -35.0667 -38.3333)" d="M 3363.14,660.314 L 3383.11,659.234 L 3409.87,1153.6 L 3389.9,1154.69 L 3363.14,660.314 Z " />
<path stroke="transparent" fill="#000000" transform="matrix(0.0666667 0 0 0.0666667 -35.0667 -38.3333)" d="M 3945.15,1521.46 L 3936.1,1539.29 L 3528.69,1332.59 L 3537.74,1314.75 L 3945.15,1521.46 Z " />
<path stroke="transparent" fill="#000000" transform="matrix(0.0666667 0 0 0.0666667 -35.0667 -38.3333)" d="M 3288.88,1323.01 L 3299.8,1339.77 L 2997.97,1536.51 L 2987.05,1519.76 L 3288.88,1323.01 Z " />
<text x="0" y="0" stroke="transparent" fill="#000000" transform="matrix(0.0666667 0 0 0.0666667 174.665 127.09)" style="font:normal normal normal 200px 'Arial'" >
Si</text>
<path stroke="transparent" fill="#000000" transform="matrix(0.0666667 0 0 0.0666667 -35.0667 -38.3333)" d="M 3744.42,2720.34 L 3733.57,2737.15 L 3352.53,2491.19 L 3363.38,2474.38 L 3744.42,2720.34 Z " />
<path stroke="transparent" fill="#000000" transform="matrix(0.0666667 0 0 0.0666667 -35.0667 -38.3333)" d="M 3764.18,2120.59 L 3773.31,2138.38 L 3360.08,2350.37 L 3350.95,2332.58 L 3764.18,2120.59 Z " />
<path stroke="transparent" fill="#000000" transform="matrix(0.0666667 0 0 0.0666667 -35.0667 -38.3333)" d="M 3215.13,3003.11 L 3195.16,3002.12 L 3218.96,2522.61 L 3238.94,2523.6 L 3215.13,3003.11 Z " />
<path stroke="transparent" fill="#000000" transform="matrix(0.0666667 0 0 0.0666667 -35.0667 -38.3333)" d="M 3124.58,2352.92 L 3117.79,2371.74 L 2911.77,2297.42 L 2918.56,2278.6 L 3124.58,2352.92 Z " />
<path stroke="transparent" fill="#000000" transform="matrix(0.0666667 0 0 0.0666667 -35.0667 -38.3333)" d="M 570.001,2260.06 L 569.999,2240.06 L 1074,2240.01 L 1074,2260.01 L 570.001,2260.06 Z " />
</svg>
