<?xml version="1.0" standalone="no" ?>
<!DOCTYPE svg PUBLIC "-//W3C//DTD SVG 1.1//EN" "http://www.w3.org/Graphics/SVG/1.1/DTD/svg11.dtd">
<svg width="666px" height="28px" viewBox="0 0 666 28" style="background-color: #ffffff00" xmlns="http://www.w3.org/2000/svg" xmlns:xlink="http://www.w3.org/1999/xlink" version="1.1" >
<path stroke="transparent" fill="#000000" transform="matrix(0.0666667 0 0 0.0666667 -21.0667 -65.3333)" d="M 893.27,1030.95 L 893.27,1054.05 L 378.655,1351.16 L 368.655,1333.84 L 893.27,1030.95 Z " />
<path stroke="transparent" fill="#000000" transform="matrix(0.0666667 0 0 0.0666667 -21.0667 -65.3333)" d="M 1412.89,1330.95 L 1412.89,1354.05 L 893.27,1054.05 L 893.27,1030.95 L 1412.89,1330.95 Z " />
<path stroke="transparent" fill="#000000" transform="matrix(0.0666667 0 0 0.0666667 -21.0667 -65.3333)" d="M 1932.5,1030.95 L 1932.5,1054.05 L 1412.89,1354.05 L 1412.89,1330.95 L 1932.5,1030.95 Z " />
<path stroke="transparent" fill="#000000" transform="matrix(0.0666667 0 0 0.0666667 -21.0667 -65.3333)" d="M 2452.12,1330.95 L 2452.12,1354.05 L 1932.5,1054.05 L 1932.5,1030.95 L 2452.12,1330.95 Z " />
<path stroke="transparent" fill="#000000" transform="matrix(0.0666667 0 0 0.0666667 -21.0667 -65.3333)" d="M 2971.73,1030.95 L 2971.73,1054.05 L 2452.12,1354.05 L 2452.12,1330.95 L 2971.73,1030.95 Z " />
<path stroke="transparent" fill="#000000" transform="matrix(0.0666667 0 0 0.0666667 -21.0667 -65.3333)" d="M 3491.35,1330.95 L 3491.35,1354.05 L 2971.73,1054.05 L 2971.73,1030.95 L 3491.35,1330.95 Z " />
<path stroke="transparent" fill="#000000" transform="matrix(0.0666667 0 0 0.0666667 -21.0667 -65.3333)" d="M 4010.96,1030.95 L 4010.96,1054.05 L 3491.35,1354.05 L 3491.35,1330.95 L 4010.96,1030.95 Z " />
<path stroke="transparent" fill="#000000" transform="matrix(0.0666667 0 0 0.0666667 -21.0667 -65.3333)" d="M 4530.58,1330.95 L 4530.58,1354.05 L 4010.96,1054.05 L 4010.96,1030.95 L 4530.58,1330.95 Z " />
<path stroke="transparent" fill="#000000" transform="matrix(0.0666667 0 0 0.0666667 -21.0667 -65.3333)" d="M 5050.19,1030.95 L 5050.19,1054.05 L 4530.58,1354.05 L 4530.58,1330.95 L 5050.19,1030.95 Z " />
<path stroke="transparent" fill="#000000" transform="matrix(0.0666667 0 0 0.0666667 -21.0667 -65.3333)" d="M 5569.81,1330.95 L 5569.81,1354.05 L 5050.19,1054.05 L 5050.19,1030.95 L 5569.81,1330.95 Z " />
<path stroke="transparent" fill="#000000" transform="matrix(0.0666667 0 0 0.0666667 -21.0667 -65.3333)" d="M 6089.42,1030.95 L 6089.42,1054.05 L 5569.81,1354.05 L 5569.81,1330.95 L 6089.42,1030.95 Z " />
<path stroke="transparent" fill="#000000" transform="matrix(0.0666667 0 0 0.0666667 -21.0667 -65.3333)" d="M 6609.04,1330.95 L 6609.04,1354.05 L 6089.42,1054.05 L 6089.42,1030.95 L 6609.04,1330.95 Z " />
<path stroke="transparent" fill="#000000" transform="matrix(0.0666667 0 0 0.0666667 -21.0667 -65.3333)" d="M 7128.65,1030.95 L 7128.65,1054.05 L 6609.04,1354.05 L 6609.04,1330.95 L 7128.65,1030.95 Z " />
<path stroke="transparent" fill="#000000" transform="matrix(0.0666667 0 0 0.0666667 -21.0667 -65.3333)" d="M 7648.27,1330.95 L 7648.27,1354.05 L 7128.65,1054.05 L 7128.65,1030.95 L 7648.27,1330.95 Z " />
<path stroke="transparent" fill="#000000" transform="matrix(0.0666667 0 0 0.0666667 -21.0667 -65.3333)" d="M 8167.88,1030.95 L 8167.88,1054.05 L 7648.27,1354.05 L 7648.27,1330.95 L 8167.88,1030.95 Z " />
<path stroke="transparent" fill="#000000" transform="matrix(0.0666667 0 0 0.0666667 -21.0667 -65.3333)" d="M 8687.5,1330.95 L 8687.5,1354.05 L 8167.88,1054.05 L 8167.88,1030.95 L 8687.5,1330.95 Z " />
<path stroke="transparent" fill="#000000" transform="matrix(0.0666667 0 0 0.0666667 -21.0667 -65.3333)" d="M 9207.11,1030.95 L 9207.11,1054.05 L 8687.5,1354.05 L 8687.5,1330.95 L 9207.11,1030.95 Z " />
<path stroke="transparent" fill="#000000" transform="matrix(0.0666667 0 0 0.0666667 -21.0667 -65.3333)" d="M 9726.73,1330.95 L 9726.73,1354.05 L 9207.11,1054.05 L 9207.11,1030.95 L 9726.73,1330.95 Z " />
<path stroke="transparent" fill="#000000" transform="matrix(0.0666667 0 0 0.0666667 -21.0667 -65.3333)" d="M 10241.3,1033.84 L 10251.3,1051.16 L 9726.73,1354.05 L 9726.73,1330.95 L 10241.3,1033.84 Z " />
</svg>
