<?xml version="1.0" standalone="no" ?>
<!DOCTYPE svg PUBLIC "-//W3C//DTD SVG 1.1//EN" "http://www.w3.org/Graphics/SVG/1.1/DTD/svg11.dtd">
<svg width="126px" height="98px" viewBox="0 0 126 98" style="background-color: #ffffff00" xmlns="http://www.w3.org/2000/svg" xmlns:xlink="http://www.w3.org/1999/xlink" version="1.1" >
<text x="0" y="0" stroke="transparent" fill="#000000" transform="matrix(0.0666667 0 0 0.0666667 68.5727 54.7389)" style="font:normal normal normal 200px 'Arial'" >
P</text>
<text x="0" y="0" stroke="transparent" fill="#000000" transform="matrix(0.0666667 0 0 0.0666667 67.8061 94.7389)" style="font:normal normal normal 200px 'Arial'" >
OH</text>
<text x="0" y="0" stroke="transparent" fill="#000000" transform="matrix(0.0666667 0 0 0.0666667 102.447 74.7389)" style="font:normal normal normal 200px 'Arial'" >
OH</text>
<text x="0" y="0" stroke="transparent" fill="#000000" transform="matrix(0.0666667 0 0 0.0666667 67.8061 14.7389)" style="font:normal normal normal 200px 'Arial'" >
O</text>
<path stroke="transparent" fill="#000000" transform="matrix(0.0666667 0 0 0.0666667 -35.0667 -11.3333)" d="M 576.86,921.744 L 586.86,904.423 L 1101.48,1201.54 L 1101.48,1224.63 L 576.86,921.744 Z " />
<path stroke="transparent" fill="#000000" transform="matrix(0.0666667 0 0 0.0666667 -35.0667 -11.3333)" d="M 1631.09,1407.92 L 1611.09,1407.92 L 1611.09,1030.25 L 1631.09,1030.25 L 1631.09,1407.92 Z " />
<path stroke="transparent" fill="#000000" transform="matrix(0.0666667 0 0 0.0666667 -35.0667 -11.3333)" d="M 2052.02,1150.33 L 2042.02,1167.65 L 1688.8,963.719 L 1698.8,946.399 L 2052.02,1150.33 Z " />
<path stroke="transparent" fill="#000000" transform="matrix(0.0666667 0 0 0.0666667 -35.0667 -11.3333)" d="M 1575.09,432.917 L 1595.09,432.917 L 1595.09,810.25 L 1575.09,810.25 L 1575.09,432.917 Z " />
<path stroke="transparent" fill="#000000" transform="matrix(0.0666667 0 0 0.0666667 -35.0667 -11.3333)" d="M 1647.09,432.917 L 1667.09,432.917 L 1667.09,810.25 L 1647.09,810.25 L 1647.09,432.917 Z " />
<path stroke="transparent" fill="#000000" transform="matrix(0.0666667 0 0 0.0666667 -35.0667 -11.3333)" d="M 1510.16,965.582 L 1520.16,982.902 L 1101.48,1224.63 L 1101.48,1201.54 L 1510.16,965.582 Z " />
</svg>
