<?xml version="1.0" standalone="no" ?>
<!DOCTYPE svg PUBLIC "-//W3C//DTD SVG 1.1//EN" "http://www.w3.org/Graphics/SVG/1.1/DTD/svg11.dtd">
<svg width="298px" height="159px" viewBox="0 0 298 159" style="background-color: #ffffffff" xmlns="http://www.w3.org/2000/svg" xmlns:xlink="http://www.w3.org/1999/xlink" version="1.1" >
<text x="0" y="0" stroke="transparent" fill="#000000" transform="matrix(0.05 0 0 0.05 209.448 27.0155)" style="font:normal normal normal 596.2px 'Arial'" >
O</text>
<text x="0" y="0" stroke="transparent" fill="#000000" transform="matrix(0.05 0 0 0.05 209.448 112.87)" style="font:normal normal normal 596.2px 'Arial'" >
OH</text>
<text x="0" y="0" stroke="transparent" fill="#000000" transform="matrix(0.05 0 0 0.05 135.098 155.797)" style="font:normal normal normal 596.2px 'Arial'" >
OH</text>
<text x="0" y="0" stroke="transparent" fill="#000000" transform="matrix(0.05 0 0 0.05 39.2201 112.87)" style="font:normal normal normal 596.2px 'Arial'" >
HO</text>
<text x="0" y="0" stroke="transparent" fill="#000000" transform="matrix(0.05 0 0 0.05 135.098 27.0155)" style="font:normal normal normal 596.2px 'Arial'" >
O</text>
<text x="0" y="0" stroke="transparent" fill="#000000" transform="matrix(0.05 0 0 0.05 2.04501 48.4792)" style="font:normal normal normal 596.2px 'Arial'" >
HO</text>
<path stroke="transparent" fill="#000000" transform="matrix(0.05 0 0 0.05 -291 -105)" d="M 9932.83,2507.86 L 10022.3,2662.76 L 9988.12,2675.18 L 9905,2531.22 L 9932.83,2507.86 Z " />
<path stroke="transparent" fill="#000000" transform="matrix(0.05 0 0 0.05 -291 -105)" d="M 9789.12,2628.5 L 9845.93,2726.9 L 9811.8,2739.32 L 9761.3,2651.85 L 9789.12,2628.5 Z " />
<path stroke="transparent" fill="#000000" transform="matrix(0.05 0 0 0.05 -291 -105)" d="M 9645.41,2749.13 L 9669.61,2791.05 L 9635.47,2803.46 L 9617.59,2772.49 L 9645.41,2749.13 Z " />
<path stroke="transparent" fill="#000000" transform="matrix(0.05 0 0 0.05 -291 -105)" d="M 9515.22,3731.44 L 9479.45,3710.79 L 9479.45,2872.9 L 9515.22,2852.24 L 9515.22,3731.44 Z " />
<path stroke="transparent" fill="#000000" transform="matrix(0.05 0 0 0.05 -291 -105)" d="M 10015.7,3917.15 L 9926.28,4072.04 L 9898.52,4048.58 L 9981.52,3904.83 L 10015.7,3917.15 Z " />
<path stroke="transparent" fill="#000000" transform="matrix(0.05 0 0 0.05 -291 -105)" d="M 9842.75,3854.87 L 9785.87,3953.38 L 9758.11,3929.92 L 9808.55,3842.56 L 9842.75,3854.87 Z " />
<path stroke="transparent" fill="#000000" transform="matrix(0.05 0 0 0.05 -291 -105)" d="M 9669.78,3792.59 L 9645.45,3834.72 L 9617.69,3811.26 L 9635.58,3780.28 L 9669.78,3792.59 Z " />
<path stroke="transparent" fill="#000000" transform="matrix(0.05 0 0 0.05 -291 -105)" d="M 8773,4159.97 L 8753.83,4150.39 L 8753.83,4129.74 L 9479.45,3710.79 L 9515.22,3731.44 L 8773,4159.97 Z " />
<path stroke="transparent" fill="#000000" transform="matrix(0.05 0 0 0.05 -291 -105)" d="M 8843.26,4685.39 L 8664.4,4685.39 L 8734.66,4159.97 L 8753.83,4150.39 L 8773,4159.97 L 8843.26,4685.39 Z " />
<path stroke="transparent" fill="#000000" transform="matrix(0.05 0 0 0.05 -291 -105)" d="M 7992.45,3731.44 L 8028.22,3710.79 L 8753.83,4129.74 L 8753.83,4150.39 L 8734.66,4159.97 L 7992.45,3731.44 Z " />
<path stroke="transparent" fill="#000000" transform="matrix(0.05 0 0 0.05 -291 -105)" d="M 7581.99,4071.69 L 7492.56,3916.79 L 7526.76,3904.49 L 7609.75,4048.22 L 7581.99,4071.69 Z " />
<path stroke="transparent" fill="#000000" transform="matrix(0.05 0 0 0.05 -291 -105)" d="M 7722.19,3953.16 L 7665.3,3854.64 L 7699.51,3842.34 L 7749.94,3929.69 L 7722.19,3953.16 Z " />
<path stroke="transparent" fill="#000000" transform="matrix(0.05 0 0 0.05 -291 -105)" d="M 7862.38,3834.63 L 7838.05,3792.49 L 7872.25,3780.19 L 7890.14,3811.16 L 7862.38,3834.63 Z " />
<path stroke="transparent" fill="#000000" transform="matrix(0.05 0 0 0.05 -291 -105)" d="M 7992.45,2873.84 L 8010.33,2862.57 L 8028.22,2872.9 L 8028.22,3710.79 L 7992.45,3731.44 L 7992.45,2873.84 Z " />
<path stroke="transparent" fill="#000000" transform="matrix(0.05 0 0 0.05 -291 -105)" d="M 8481.6,2569.82 L 8499.48,2600.8 L 8028.22,2872.9 L 8010.33,2862.57 L 8011.15,2841.44 L 8481.6,2569.82 Z " />
<path stroke="transparent" fill="#000000" transform="matrix(0.05 0 0 0.05 -291 -105)" d="M 7192.57,2496.82 L 7335.91,2372.76 L 8011.15,2841.44 L 8010.33,2862.57 L 7992.45,2873.84 L 7192.57,2496.82 Z " />
<path stroke="transparent" fill="#000000" transform="matrix(0.05 0 0 0.05 -291 -105)" d="M 6802.72,2721.91 L 6784.83,2690.93 L 7335.91,2372.76 L 7192.57,2496.82 L 6802.72,2721.91 Z " />
<path stroke="transparent" fill="#000000" transform="matrix(0.05 0 0 0.05 -291 -105)" d="M 9009.47,2601.55 L 9027.36,2570.57 L 9515.22,2852.24 L 9479.45,2872.9 L 9009.47,2601.55 Z " />
<path stroke="transparent" fill="#000000" transform="matrix(0.05 0 0 0.05 -291 -105)" d="M 11718.9,2417.81 L 11736.8,2448.79 L 10984.3,2883.22 L 10984.3,2841.92 L 11718.9,2417.81 Z " />
<path stroke="transparent" fill="#000000" transform="matrix(0.05 0 0 0.05 -291 -105)" d="M 10984.3,2841.92 L 10984.3,2883.22 L 10496.5,2601.55 L 10514.4,2570.57 L 10984.3,2841.92 Z " />
</svg>
