<?xml version="1.0" standalone="no" ?>
<!DOCTYPE svg PUBLIC "-//W3C//DTD SVG 1.1//EN" "http://www.w3.org/Graphics/SVG/1.1/DTD/svg11.dtd">
<svg width="251px" height="120px" viewBox="0 0 251 120" style="background-color: #ffffffff" xmlns="http://www.w3.org/2000/svg" xmlns:xlink="http://www.w3.org/1999/xlink" version="1.1" >
<text x="0" y="0" stroke="transparent" fill="#000000" transform="matrix(0.05 0 0 0.05 21.9697 84.7836)" style="font:normal normal normal 442.8px 'Arial'" >
O</text>
<text x="0" y="0" stroke="transparent" fill="#000000" transform="matrix(0.05 0 0 0.05 5.98091 21.019)" style="font:normal normal normal 442.8px 'Arial'" >
HO</text>
<text x="0" y="0" stroke="transparent" fill="#000000" transform="matrix(0.05 0 0 0.05 187.63 116.666)" style="font:normal normal normal 442.8px 'Arial'" >
O</text>
<text x="0" y="0" stroke="transparent" fill="#000000" transform="matrix(0.05 0 0 0.05 215.24 68.8424)" style="font:normal normal normal 442.8px 'Arial'" >
OH</text>
<path stroke="transparent" fill="#000000" transform="matrix(0.05 0 0 0.05 -320 -99)" d="M 9772.61,3218.44 L 9772.61,3187.76 L 10324.8,3506.58 L 10324.8,3537.26 L 9772.61,3218.44 Z " />
<path stroke="transparent" fill="#000000" transform="matrix(0.05 0 0 0.05 -320 -99)" d="M 8668.21,3218.44 L 8668.21,3203.1 L 8681.49,3195.43 L 9220.41,3506.58 L 9220.41,3537.26 L 8668.21,3218.44 Z " />
<path stroke="transparent" fill="#000000" transform="matrix(0.05 0 0 0.05 -320 -99)" d="M 8116.01,3537.26 L 8116.01,3506.58 L 8654.93,3195.43 L 8668.21,3203.1 L 8668.21,3218.44 L 8116.01,3537.26 Z " />
<path stroke="transparent" fill="#000000" transform="matrix(0.05 0 0 0.05 -320 -99)" d="M 7563.81,3218.44 L 7563.81,3203.1 L 7577.09,3195.43 L 8116.01,3506.58 L 8116.01,3537.26 L 7563.81,3218.44 Z " />
<path stroke="transparent" fill="#000000" transform="matrix(0.05 0 0 0.05 -320 -99)" d="M 7671.94,3148.34 L 7685.22,3125.33 L 8122.65,3377.89 L 8109.37,3400.89 L 7671.94,3148.34 Z " />
<path stroke="transparent" fill="#000000" transform="matrix(0.05 0 0 0.05 -320 -99)" d="M 7219.1,3417.46 L 7205.81,3394.45 L 7550.52,3195.43 L 7563.81,3203.1 L 7563.81,3218.44 L 7219.1,3417.46 Z " />
<path stroke="transparent" fill="#000000" transform="matrix(0.05 0 0 0.05 -320 -99)" d="M 6452.76,3214.6 L 6466.05,3191.59 L 6817.4,3394.45 L 6804.11,3417.46 L 6452.76,3214.6 Z " />
<path stroke="transparent" fill="#000000" transform="matrix(0.05 0 0 0.05 -320 -99)" d="M 7550.52,2573.12 L 7563.81,2565.45 L 7577.09,2573.12 L 7577.09,3195.43 L 7563.81,3203.1 L 7550.52,3195.43 L 7550.52,2573.12 Z " />
<path stroke="transparent" fill="#000000" transform="matrix(0.05 0 0 0.05 -320 -99)" d="M 7201.26,2371.47 L 7214.55,2348.46 L 7563.81,2550.11 L 7563.81,2565.45 L 7550.52,2573.12 L 7201.26,2371.47 Z " />
<path stroke="transparent" fill="#000000" transform="matrix(0.05 0 0 0.05 -320 -99)" d="M 8116.01,2231.29 L 8116.01,2261.97 L 7577.09,2573.12 L 7563.81,2565.45 L 7563.81,2550.11 L 8116.01,2231.29 Z " />
<path stroke="transparent" fill="#000000" transform="matrix(0.05 0 0 0.05 -320 -99)" d="M 8109.37,2367.66 L 8122.65,2390.66 L 7685.22,2643.22 L 7671.94,2620.21 L 8109.37,2367.66 Z " />
<path stroke="transparent" fill="#000000" transform="matrix(0.05 0 0 0.05 -320 -99)" d="M 8681.49,2557.78 L 8654.93,2573.12 L 8116.01,2261.97 L 8116.01,2231.29 L 8681.49,2557.78 Z " />
<path stroke="transparent" fill="#000000" transform="matrix(0.05 0 0 0.05 -320 -99)" d="M 8654.93,2573.12 L 8681.49,2557.78 L 8681.49,3195.43 L 8668.21,3203.1 L 8654.93,3195.43 L 8654.93,2573.12 Z " />
<path stroke="transparent" fill="#000000" transform="matrix(0.05 0 0 0.05 -320 -99)" d="M 8540.15,2631.72 L 8566.72,2631.72 L 8566.72,3136.83 L 8540.15,3136.83 L 8540.15,2631.72 Z " />
<path stroke="transparent" fill="#000000" transform="matrix(0.05 0 0 0.05 -320 -99)" d="M 10395.5,3919.64 L 10368.9,3919.64 L 10368.9,3488.79 L 10395.5,3488.79 L 10395.5,3919.64 Z " />
<path stroke="transparent" fill="#000000" transform="matrix(0.05 0 0 0.05 -320 -99)" d="M 10280.7,3919.64 L 10254.1,3919.64 L 10254.1,3488.79 L 10280.7,3488.79 L 10280.7,3919.64 Z " />
<path stroke="transparent" fill="#000000" transform="matrix(0.05 0 0 0.05 -320 -99)" d="M 10674.7,3304.58 L 10688,3327.59 L 10324.8,3537.26 L 10324.8,3506.58 L 10674.7,3304.58 Z " />
<path stroke="transparent" fill="#000000" transform="matrix(0.05 0 0 0.05 -320 -99)" d="M 9772.61,3187.76 L 9772.61,3218.44 L 9220.41,3537.26 L 9220.41,3506.58 L 9772.61,3187.76 Z " />
<path stroke="transparent" fill="#000000" transform="matrix(0.05 0 0 0.05 -320 -99)" d="M 9708.58,3092.2 L 9721.87,3115.21 L 9227.05,3400.89 L 9213.77,3377.89 L 9708.58,3092.2 Z " />
</svg>
