<?xml version="1.0" standalone="no" ?>
<!DOCTYPE svg PUBLIC "-//W3C//DTD SVG 1.1//EN" "http://www.w3.org/Graphics/SVG/1.1/DTD/svg11.dtd">
<svg width="297px" height="181px" viewBox="0 0 297 181" style="background-color: #ffffffff" xmlns="http://www.w3.org/2000/svg" xmlns:xlink="http://www.w3.org/1999/xlink" version="1.1" >
<text x="0" y="0" stroke="transparent" fill="#000000" transform="matrix(0.05 0 0 0.05 199.065 22.8333)" style="font:normal normal normal 478.2px 'Arial'" >
OH</text>
<text x="0" y="0" stroke="transparent" fill="#000000" transform="matrix(0.05 0 0 0.05 258.7 57.2645)" style="font:normal normal normal 478.2px 'Arial'" >
OH</text>
<text x="0" y="0" stroke="transparent" fill="#000000" transform="matrix(0.05 0 0 0.05 258.7 126.127)" style="font:normal normal normal 478.2px 'Arial'" >
OH</text>
<text x="0" y="0" stroke="transparent" fill="#000000" transform="matrix(0.05 0 0 0.05 199.065 160.558)" style="font:normal normal normal 478.2px 'Arial'" >
OH</text>
<text x="0" y="0" stroke="transparent" fill="#000000" transform="matrix(0.05 0 0 0.05 122.163 126.127)" style="font:normal normal normal 478.2px 'Arial'" >
HO</text>
<text x="0" y="0" stroke="transparent" fill="#000000" transform="matrix(0.05 0 0 0.05 139.43 57.2645)" style="font:normal normal normal 478.2px 'Arial'" >
O</text>
<text x="0" y="0" stroke="transparent" fill="#000000" transform="matrix(0.05 0 0 0.05 109.601 108.911)" style="font:normal normal normal 478.2px 'Arial'" >
O</text>
<text x="0" y="0" stroke="transparent" fill="#000000" transform="matrix(0.05 0 0 0.05 32.6996 177.773)" style="font:normal normal normal 478.2px 'Arial'" >
HO</text>
<text x="0" y="0" stroke="transparent" fill="#000000" transform="matrix(0.05 0 0 0.05 2.88226 126.127)" style="font:normal normal normal 478.2px 'Arial'" >
HO</text>
<text x="0" y="0" stroke="transparent" fill="#000000" transform="matrix(0.05 0 0 0.05 2.88226 57.2645)" style="font:normal normal normal 478.2px 'Arial'" >
HO</text>
<text x="0" y="0" stroke="transparent" fill="#000000" transform="matrix(0.05 0 0 0.05 79.784 22.8333)" style="font:normal normal normal 478.2px 'Arial'" >
OH</text>
<path stroke="transparent" fill="#000000" transform="matrix(0.05 0 0 0.05 -307 -71)" d="M 10918,2735.28 L 10889.3,2751.84 L 10307.3,2415.81 L 10307.3,2399.25 L 10322.6,2391.54 L 10918,2735.28 Z " />
<path stroke="transparent" fill="#000000" transform="matrix(0.05 0 0 0.05 -307 -71)" d="M 10918,3423.9 L 10903.6,3432.18 L 10889.3,3423.9 L 10889.3,2751.84 L 10918,2735.28 L 10918,3423.9 Z " />
<path stroke="transparent" fill="#000000" transform="matrix(0.05 0 0 0.05 -307 -71)" d="M 10307.3,3793.06 L 10307.3,3759.93 L 10889.3,3423.9 L 10903.6,3432.18 L 10903.6,3448.75 L 10307.3,3793.06 Z " />
<path stroke="transparent" fill="#000000" transform="matrix(0.05 0 0 0.05 -307 -71)" d="M 9696.59,3440.46 L 9725.28,3423.9 L 10307.3,3759.93 L 10307.3,3793.06 L 9696.59,3440.46 Z " />
<path stroke="transparent" fill="#000000" transform="matrix(0.05 0 0 0.05 -307 -71)" d="M 9696.59,2751.84 L 9710.93,2743.56 L 9725.28,2751.84 L 9725.28,3423.9 L 9696.59,3440.46 L 9696.59,2751.84 Z " />
<path stroke="transparent" fill="#000000" transform="matrix(0.05 0 0 0.05 -307 -71)" d="M 9725.28,2751.84 L 9710.93,2743.56 L 9710.93,2726.99 L 10291.9,2391.54 L 10307.3,2399.25 L 10307.3,2415.81 L 9725.28,2751.84 Z " />
<path stroke="transparent" fill="#000000" transform="matrix(0.05 0 0 0.05 -307 -71)" d="M 10235.5,1958.18 L 10379,1958.18 L 10322.6,2391.54 L 10307.3,2399.25 L 10291.9,2391.54 L 10235.5,1958.18 Z " />
<path stroke="transparent" fill="#000000" transform="matrix(0.05 0 0 0.05 -307 -71)" d="M 11252.8,2459.14 L 11324.5,2583.38 L 11297.1,2593.34 L 11230.5,2477.88 L 11252.8,2459.14 Z " />
<path stroke="transparent" fill="#000000" transform="matrix(0.05 0 0 0.05 -307 -71)" d="M 11137.6,2555.84 L 11183.2,2634.78 L 11155.8,2644.73 L 11115.3,2574.58 L 11137.6,2555.84 Z " />
<path stroke="transparent" fill="#000000" transform="matrix(0.05 0 0 0.05 -307 -71)" d="M 11022.4,2652.55 L 11041.8,2686.17 L 11014.5,2696.13 L 11000.1,2671.28 L 11022.4,2652.55 Z " />
<path stroke="transparent" fill="#000000" transform="matrix(0.05 0 0 0.05 -307 -71)" d="M 11290.3,3638.89 L 11276,3663.74 L 10903.6,3448.75 L 10903.6,3432.18 L 10918,3423.9 L 11290.3,3638.89 Z " />
<path stroke="transparent" fill="#000000" transform="matrix(0.05 0 0 0.05 -307 -71)" d="M 10379,4205.65 L 10235.5,4205.65 L 10240.9,4176.95 L 10373.7,4176.95 L 10379,4205.65 Z " />
<path stroke="transparent" fill="#000000" transform="matrix(0.05 0 0 0.05 -307 -71)" d="M 10353,4065.21 L 10261.6,4065.21 L 10266.9,4036.52 L 10347.7,4036.52 L 10353,4065.21 Z " />
<path stroke="transparent" fill="#000000" transform="matrix(0.05 0 0 0.05 -307 -71)" d="M 10326.9,3924.78 L 10287.6,3924.78 L 10292.9,3896.09 L 10321.6,3896.09 L 10326.9,3924.78 Z " />
<path stroke="transparent" fill="#000000" transform="matrix(0.05 0 0 0.05 -307 -71)" d="M 9367.35,3713.38 L 9295.62,3589.14 L 9323.05,3579.27 L 9389.61,3694.56 L 9367.35,3713.38 Z " />
<path stroke="transparent" fill="#000000" transform="matrix(0.05 0 0 0.05 -307 -71)" d="M 9479.81,3618.3 L 9434.19,3539.28 L 9461.62,3529.41 L 9502.07,3599.48 L 9479.81,3618.3 Z " />
<path stroke="transparent" fill="#000000" transform="matrix(0.05 0 0 0.05 -307 -71)" d="M 9592.27,3523.22 L 9572.76,3489.42 L 9600.19,3479.55 L 9614.54,3504.4 L 9592.27,3523.22 Z " />
<path stroke="transparent" fill="#000000" transform="matrix(0.05 0 0 0.05 -307 -71)" d="M 8503.66,2751.84 L 8518.01,2743.56 L 8532.35,2752.99 L 8532.35,3172.71 L 8503.66,3172.71 L 8503.66,2751.84 Z " />
<path stroke="transparent" fill="#000000" transform="matrix(0.05 0 0 0.05 -307 -71)" d="M 7921.66,2415.81 L 7921.66,2399.25 L 7937.01,2391.54 L 8517.01,2726.42 L 8518.01,2743.56 L 8503.66,2751.84 L 7921.66,2415.81 Z " />
<path stroke="transparent" fill="#000000" transform="matrix(0.05 0 0 0.05 -307 -71)" d="M 7339.66,2751.84 L 7310.97,2735.28 L 7906.31,2391.54 L 7921.66,2399.25 L 7921.66,2415.81 L 7339.66,2751.84 Z " />
<path stroke="transparent" fill="#000000" transform="matrix(0.05 0 0 0.05 -307 -71)" d="M 7339.66,3423.9 L 7310.97,3440.46 L 7310.97,2735.28 L 7339.66,2751.84 L 7339.66,3423.9 Z " />
<path stroke="transparent" fill="#000000" transform="matrix(0.05 0 0 0.05 -307 -71)" d="M 7921.66,3759.93 L 7921.66,3793.06 L 7310.97,3440.46 L 7339.66,3423.9 L 7921.66,3759.93 Z " />
<path stroke="transparent" fill="#000000" transform="matrix(0.05 0 0 0.05 -307 -71)" d="M 7921.66,3793.06 L 7921.66,3759.93 L 8299.5,3541.77 L 8313.85,3566.62 L 7921.66,3793.06 Z " />
<path stroke="transparent" fill="#000000" transform="matrix(0.05 0 0 0.05 -307 -71)" d="M 7549.39,4696.62 L 7535.04,4671.77 L 7914.49,4452.69 L 7928.83,4477.54 L 7549.39,4696.62 Z " />
<path stroke="transparent" fill="#000000" transform="matrix(0.05 0 0 0.05 -307 -71)" d="M 7993.39,4345.46 L 7849.93,4345.46 L 7853.59,4316.77 L 7989.73,4316.77 L 7993.39,4345.46 Z " />
<path stroke="transparent" fill="#000000" transform="matrix(0.05 0 0 0.05 -307 -71)" d="M 7975.48,4205.25 L 7867.84,4205.25 L 7871.5,4176.56 L 7971.82,4176.56 L 7975.48,4205.25 Z " />
<path stroke="transparent" fill="#000000" transform="matrix(0.05 0 0 0.05 -307 -71)" d="M 7957.58,4065.05 L 7885.74,4065.05 L 7889.41,4036.36 L 7953.91,4036.36 L 7957.58,4065.05 Z " />
<path stroke="transparent" fill="#000000" transform="matrix(0.05 0 0 0.05 -307 -71)" d="M 7939.67,3924.84 L 7903.65,3924.84 L 7907.31,3896.15 L 7936.01,3896.15 L 7939.67,3924.84 Z " />
<path stroke="transparent" fill="#000000" transform="matrix(0.05 0 0 0.05 -307 -71)" d="M 6981.73,3713.38 L 6910,3589.14 L 6937.43,3579.27 L 7004,3694.56 L 6981.73,3713.38 Z " />
<path stroke="transparent" fill="#000000" transform="matrix(0.05 0 0 0.05 -307 -71)" d="M 7094.19,3618.3 L 7048.57,3539.28 L 7076,3529.41 L 7116.46,3599.48 L 7094.19,3618.3 Z " />
<path stroke="transparent" fill="#000000" transform="matrix(0.05 0 0 0.05 -307 -71)" d="M 7206.65,3523.22 L 7187.14,3489.42 L 7214.57,3479.55 L 7228.92,3504.4 L 7206.65,3523.22 Z " />
<path stroke="transparent" fill="#000000" transform="matrix(0.05 0 0 0.05 -307 -71)" d="M 6905.16,2583.8 L 6976.89,2459.56 L 6999.2,2478.31 L 6932.55,2593.75 L 6905.16,2583.8 Z " />
<path stroke="transparent" fill="#000000" transform="matrix(0.05 0 0 0.05 -307 -71)" d="M 7046.1,2634.98 L 7091.68,2556.04 L 7113.99,2574.78 L 7073.49,2644.93 L 7046.1,2634.98 Z " />
<path stroke="transparent" fill="#000000" transform="matrix(0.05 0 0 0.05 -307 -71)" d="M 7187.05,2686.16 L 7206.47,2652.51 L 7228.78,2671.26 L 7214.43,2696.11 L 7187.05,2686.16 Z " />
<path stroke="transparent" fill="#000000" transform="matrix(0.05 0 0 0.05 -307 -71)" d="M 7849.93,1958.18 L 7993.39,1958.18 L 7937.01,2391.54 L 7921.66,2399.25 L 7906.31,2391.54 L 7849.93,1958.18 Z " />
<path stroke="transparent" fill="#000000" transform="matrix(0.05 0 0 0.05 -307 -71)" d="M 8867.38,2459.1 L 8939.09,2583.35 L 8532.35,2752.99 L 8518.01,2743.56 L 8517.01,2726.42 L 8867.38,2459.1 Z " />
<path stroke="transparent" fill="#000000" transform="matrix(0.05 0 0 0.05 -307 -71)" d="M 9319.52,2534.14 L 9333.87,2509.29 L 9710.93,2726.99 L 9710.93,2743.56 L 9696.59,2751.84 L 9319.52,2534.14 Z " />
</svg>
