<?xml version="1.0" standalone="no" ?>
<!DOCTYPE svg PUBLIC "-//W3C//DTD SVG 1.1//EN" "http://www.w3.org/Graphics/SVG/1.1/DTD/svg11.dtd">
<svg width="269px" height="212px" viewBox="0 0 269 212" style="background-color: #ffffffff" xmlns="http://www.w3.org/2000/svg" xmlns:xlink="http://www.w3.org/1999/xlink" version="1.1" >
<text x="0" y="0" stroke="transparent" fill="#000000" transform="matrix(0.05 0 0 0.05 102.65 208.771)" style="font:normal normal normal 625.4px 'Arial'" >
OH</text>
<text x="0" y="0" stroke="transparent" fill="#000000" transform="matrix(0.05 0 0 0.05 2.07802 163.743)" style="font:normal normal normal 625.4px 'Arial'" >
HO</text>
<text x="0" y="0" stroke="transparent" fill="#000000" transform="matrix(0.05 0 0 0.05 2.07802 73.685)" style="font:normal normal normal 625.4px 'Arial'" >
HO</text>
<text x="0" y="0" stroke="transparent" fill="#000000" transform="matrix(0.05 0 0 0.05 180.655 28.6563)" style="font:normal normal normal 625.4px 'Arial'" >
O</text>
<text x="0" y="0" stroke="transparent" fill="#000000" transform="matrix(0.05 0 0 0.05 219.65 96.1994)" style="font:normal normal normal 625.4px 'Arial'" >
OH</text>
<path stroke="transparent" fill="#000000" transform="matrix(0.05 0 0 0.05 -309 -62)" d="M 9275.19,2957.67 L 9256.43,2946.84 L 9256.43,2925.17 L 10036.3,2474.88 L 10036.3,2518.21 L 9275.19,2957.67 Z " />
<path stroke="transparent" fill="#000000" transform="matrix(0.05 0 0 0.05 -309 -62)" d="M 9275.19,3858.25 L 9237.67,3836.58 L 9237.67,2957.67 L 9256.43,2946.84 L 9275.19,2957.67 L 9275.19,3858.25 Z " />
<path stroke="transparent" fill="#000000" transform="matrix(0.05 0 0 0.05 -309 -62)" d="M 8494.99,4308.53 L 8476.23,4297.7 L 8476.23,4276.04 L 9237.67,3836.58 L 9275.19,3858.25 L 8494.99,4308.53 Z " />
<path stroke="transparent" fill="#000000" transform="matrix(0.05 0 0 0.05 -309 -62)" d="M 8485.62,4126.73 L 8466.87,4094.23 L 9084.9,3737.53 L 9103.66,3770.03 L 8485.62,4126.73 Z " />
<path stroke="transparent" fill="#000000" transform="matrix(0.05 0 0 0.05 -309 -62)" d="M 8494.99,4859.7 L 8457.47,4859.7 L 8457.47,4308.53 L 8476.23,4297.7 L 8494.99,4308.53 L 8494.99,4859.7 Z " />
<path stroke="transparent" fill="#000000" transform="matrix(0.05 0 0 0.05 -309 -62)" d="M 7696.33,3869.08 L 7696.33,3847.41 L 7715.09,3836.58 L 8476.23,4276.04 L 8476.23,4297.7 L 8457.47,4308.53 L 7696.33,3869.08 Z " />
<path stroke="transparent" fill="#000000" transform="matrix(0.05 0 0 0.05 -309 -62)" d="M 7209.48,4150.17 L 7190.71,4117.67 L 7677.57,3836.58 L 7696.33,3847.41 L 7696.33,3869.08 L 7209.48,4150.17 Z " />
<path stroke="transparent" fill="#000000" transform="matrix(0.05 0 0 0.05 -309 -62)" d="M 7677.57,2957.67 L 7696.33,2946.84 L 7715.09,2957.67 L 7715.09,3836.58 L 7696.33,3847.41 L 7677.57,3836.58 L 7677.57,2957.67 Z " />
<path stroke="transparent" fill="#000000" transform="matrix(0.05 0 0 0.05 -309 -62)" d="M 7839.67,3040.43 L 7877.2,3040.43 L 7877.2,3753.82 L 7839.67,3753.82 L 7839.67,3040.43 Z " />
<path stroke="transparent" fill="#000000" transform="matrix(0.05 0 0 0.05 -309 -62)" d="M 7184.56,2673.02 L 7203.32,2640.52 L 7696.33,2925.17 L 7696.33,2946.84 L 7677.57,2957.67 L 7184.56,2673.02 Z " />
<path stroke="transparent" fill="#000000" transform="matrix(0.05 0 0 0.05 -309 -62)" d="M 8476.23,2474.88 L 8476.23,2518.21 L 7715.09,2957.67 L 7696.33,2946.84 L 7696.33,2925.17 L 8476.23,2474.88 Z " />
<path stroke="transparent" fill="#000000" transform="matrix(0.05 0 0 0.05 -309 -62)" d="M 8476.23,2518.21 L 8476.23,2474.88 L 9256.43,2925.17 L 9256.43,2946.84 L 9237.67,2957.67 L 8476.23,2518.21 Z " />
<path stroke="transparent" fill="#000000" transform="matrix(0.05 0 0 0.05 -309 -62)" d="M 8466.87,2700.02 L 8485.62,2667.52 L 9103.66,3024.22 L 9084.9,3056.72 L 8466.87,2700.02 Z " />
<path stroke="transparent" fill="#000000" transform="matrix(0.05 0 0 0.05 -309 -62)" d="M 9936.51,1920.52 L 9974.04,1920.52 L 9974.04,2543.34 L 9936.51,2543.34 L 9936.51,1920.52 Z " />
<path stroke="transparent" fill="#000000" transform="matrix(0.05 0 0 0.05 -309 -62)" d="M 10098.6,1920.52 L 10136.1,1920.52 L 10136.1,2543.34 L 10098.6,2543.34 L 10098.6,1920.52 Z " />
<path stroke="transparent" fill="#000000" transform="matrix(0.05 0 0 0.05 -309 -62)" d="M 10542.6,2767.2 L 10523.9,2799.7 L 10036.3,2518.21 L 10036.3,2474.88 L 10542.6,2767.2 Z " />
</svg>
