<?xml version="1.0" standalone="no" ?>
<!DOCTYPE svg PUBLIC "-//W3C//DTD SVG 1.1//EN" "http://www.w3.org/Graphics/SVG/1.1/DTD/svg11.dtd">
<svg width="289px" height="120px" viewBox="0 0 289 120" style="background-color: #ffffffff" xmlns="http://www.w3.org/2000/svg" xmlns:xlink="http://www.w3.org/1999/xlink" version="1.1" >
<text x="0" y="0" stroke="transparent" fill="#000000" transform="matrix(0.05 0 0 0.05 182.999 116.753)" style="font:normal normal normal 517.6px 'Arial'" >
OH</text>
<text x="0" y="0" stroke="transparent" fill="#000000" transform="matrix(0.05 0 0 0.05 150.725 23.5847)" style="font:normal normal normal 517.6px 'Arial'" >
OH</text>
<text x="0" y="0" stroke="transparent" fill="#000000" transform="matrix(0.05 0 0 0.05 118.44 116.753)" style="font:normal normal normal 517.6px 'Arial'" >
OH</text>
<text x="0" y="0" stroke="transparent" fill="#000000" transform="matrix(0.05 0 0 0.05 86.1662 23.5847)" style="font:normal normal normal 517.6px 'Arial'" >
OH</text>
<text x="0" y="0" stroke="transparent" fill="#000000" transform="matrix(0.05 0 0 0.05 2.9297 60.8519)" style="font:normal normal normal 517.6px 'Arial'" >
HO</text>
<text x="0" y="0" stroke="transparent" fill="#000000" transform="matrix(0.05 0 0 0.05 215.272 23.5847)" style="font:normal normal normal 517.6px 'Arial'" >
O</text>
<text x="0" y="0" stroke="transparent" fill="#000000" transform="matrix(0.05 0 0 0.05 247.546 79.4855)" style="font:normal normal normal 517.6px 'Arial'" >
OH</text>
<path stroke="transparent" fill="#000000" transform="matrix(0.05 0 0 0.05 -291 -92)" d="M 9681.28,3267.92 L 9681.28,3232.06 L 10326.7,2859.39 L 10326.7,2895.25 L 9681.28,3267.92 Z " />
<path stroke="transparent" fill="#000000" transform="matrix(0.05 0 0 0.05 -291 -92)" d="M 9758.92,3714.57 L 9603.64,3714.57 L 9609.4,3683.52 L 9753.16,3683.52 L 9758.92,3714.57 Z " />
<path stroke="transparent" fill="#000000" transform="matrix(0.05 0 0 0.05 -291 -92)" d="M 9730.74,3562.59 L 9631.81,3562.59 L 9637.57,3531.53 L 9724.98,3531.53 L 9730.74,3562.59 Z " />
<path stroke="transparent" fill="#000000" transform="matrix(0.05 0 0 0.05 -291 -92)" d="M 9702.56,3410.61 L 9659.99,3410.61 L 9665.75,3379.55 L 9696.81,3379.55 L 9702.56,3410.61 Z " />
<path stroke="transparent" fill="#000000" transform="matrix(0.05 0 0 0.05 -291 -92)" d="M 9035.81,2895.25 L 9035.81,2859.39 L 9681.28,3232.06 L 9681.28,3267.92 L 9035.81,2895.25 Z " />
<path stroke="transparent" fill="#000000" transform="matrix(0.05 0 0 0.05 -291 -92)" d="M 8958.17,2399.84 L 9113.45,2399.84 L 9107.91,2430.9 L 8963.71,2430.9 L 8958.17,2399.84 Z " />
<path stroke="transparent" fill="#000000" transform="matrix(0.05 0 0 0.05 -291 -92)" d="M 8986.45,2558.29 L 9085.17,2558.29 L 9079.62,2589.34 L 8992,2589.34 L 8986.45,2558.29 Z " />
<path stroke="transparent" fill="#000000" transform="matrix(0.05 0 0 0.05 -291 -92)" d="M 9014.74,2716.73 L 9056.88,2716.73 L 9051.34,2747.79 L 9020.28,2747.79 L 9014.74,2716.73 Z " />
<path stroke="transparent" fill="#000000" transform="matrix(0.05 0 0 0.05 -291 -92)" d="M 8390.09,3267.92 L 8390.1,3232.06 L 9035.81,2859.39 L 9035.81,2895.25 L 8390.09,3267.92 Z " />
<path stroke="transparent" fill="#000000" transform="matrix(0.05 0 0 0.05 -291 -92)" d="M 8467.73,3714.57 L 8312.45,3714.57 L 8318.21,3683.52 L 8461.98,3683.52 L 8467.73,3714.57 Z " />
<path stroke="transparent" fill="#000000" transform="matrix(0.05 0 0 0.05 -291 -92)" d="M 8439.56,3562.59 L 8340.63,3562.59 L 8346.39,3531.53 L 8433.8,3531.53 L 8439.56,3562.59 Z " />
<path stroke="transparent" fill="#000000" transform="matrix(0.05 0 0 0.05 -291 -92)" d="M 8411.38,3410.61 L 8368.81,3410.61 L 8374.57,3379.55 L 8405.62,3379.55 L 8411.38,3410.61 Z " />
<path stroke="transparent" fill="#000000" transform="matrix(0.05 0 0 0.05 -291 -92)" d="M 7744.63,2895.25 L 7744.63,2877.32 L 7761.24,2868.98 L 8390.1,3232.06 L 8390.09,3267.92 L 7744.63,2895.25 Z " />
<path stroke="transparent" fill="#000000" transform="matrix(0.05 0 0 0.05 -291 -92)" d="M 7666.99,2399.84 L 7822.27,2399.84 L 7761.24,2868.98 L 7744.63,2877.32 L 7728.01,2868.98 L 7666.99,2399.84 Z " />
<path stroke="transparent" fill="#000000" transform="matrix(0.05 0 0 0.05 -291 -92)" d="M 7099.16,3267.92 L 7099.16,3232.06 L 7728.01,2868.98 L 7744.63,2877.32 L 7744.63,2895.25 L 7099.16,3267.92 Z " />
<path stroke="transparent" fill="#000000" transform="matrix(0.05 0 0 0.05 -291 -92)" d="M 6675.53,3023.33 L 6691.06,2996.44 L 7099.16,3232.06 L 7099.16,3267.92 L 6675.53,3023.33 Z " />
<path stroke="transparent" fill="#000000" transform="matrix(0.05 0 0 0.05 -291 -92)" d="M 10244.1,2399.84 L 10275.2,2399.84 L 10275.2,2916.05 L 10244.1,2916.05 L 10244.1,2399.84 Z " />
<path stroke="transparent" fill="#000000" transform="matrix(0.05 0 0 0.05 -291 -92)" d="M 10378.3,2399.84 L 10409.4,2399.84 L 10409.4,2916.05 L 10378.3,2916.05 L 10378.3,2399.84 Z " />
<path stroke="transparent" fill="#000000" transform="matrix(0.05 0 0 0.05 -291 -92)" d="M 10745.6,3101.24 L 10730.1,3128.14 L 10326.7,2895.25 L 10326.7,2859.39 L 10745.6,3101.24 Z " />
</svg>
