<?xml version="1.0" standalone="no" ?>
<!DOCTYPE svg PUBLIC "-//W3C//DTD SVG 1.1//EN" "http://www.w3.org/Graphics/SVG/1.1/DTD/svg11.dtd">
<svg width="233px" height="158px" viewBox="0 0 233 158" style="background-color: #ffffffff" xmlns="http://www.w3.org/2000/svg" xmlns:xlink="http://www.w3.org/1999/xlink" version="1.1" >
<text x="0" y="0" stroke="transparent" fill="#000000" transform="matrix(0.05 0 0 0.05 166.473 139.361)" style="font:normal normal normal 303.6px 'Arial'" >
Si</text>
<text x="0" y="0" stroke="transparent" fill="#000000" transform="matrix(0.05 0 0 0.05 148.388 128.431)" style="font:normal normal normal 303.6px 'Arial'" >
O</text>
<text x="0" y="0" stroke="transparent" fill="#000000" transform="matrix(0.05 0 0 0.05 110.527 106.572)" style="font:normal normal normal 303.6px 'Arial'" >
O</text>
<text x="0" y="0" stroke="transparent" fill="#000000" transform="matrix(0.05 0 0 0.05 72.6584 106.572)" style="font:normal normal normal 303.6px 'Arial'" >
O</text>
<text x="0" y="0" stroke="transparent" fill="#000000" transform="matrix(0.05 0 0 0.05 34.7975 128.431)" style="font:normal normal normal 303.6px 'Arial'" >
O</text>
<text x="0" y="0" stroke="transparent" fill="#000000" transform="matrix(0.05 0 0 0.05 15.022 139.361)" style="font:normal normal normal 303.6px 'Arial'" >
Si</text>
<text x="0" y="0" stroke="transparent" fill="#000000" transform="matrix(0.05 0 0 0.05 34.7975 62.8523)" style="font:normal normal normal 303.6px 'Arial'" >
O</text>
<text x="0" y="0" stroke="transparent" fill="#000000" transform="matrix(0.05 0 0 0.05 15.022 73.7821)" style="font:normal normal normal 303.6px 'Arial'" >
Si</text>
<text x="0" y="0" stroke="transparent" fill="#000000" transform="matrix(0.05 0 0 0.05 72.6584 40.9926)" style="font:normal normal normal 303.6px 'Arial'" >
O</text>
<text x="0" y="0" stroke="transparent" fill="#000000" transform="matrix(0.05 0 0 0.05 52.883 30.0628)" style="font:normal normal normal 303.6px 'Arial'" >
Si</text>
<text x="0" y="0" stroke="transparent" fill="#000000" transform="matrix(0.05 0 0 0.05 110.527 62.8523)" style="font:normal normal normal 303.6px 'Arial'" >
O</text>
<text x="0" y="0" stroke="transparent" fill="#000000" transform="matrix(0.05 0 0 0.05 109.682 40.9926)" style="font:normal normal normal 303.6px 'Arial'" >
Si</text>
<text x="0" y="0" stroke="transparent" fill="#000000" transform="matrix(0.05 0 0 0.05 186.249 106.572)" style="font:normal normal normal 303.6px 'Arial'" >
O</text>
<text x="0" y="0" stroke="transparent" fill="#000000" transform="matrix(0.05 0 0 0.05 204.334 95.6418)" style="font:normal normal normal 303.6px 'Arial'" >
Si</text>
<path stroke="transparent" fill="#000000" transform="matrix(0.05 0 0 0.05 -312 -72)" d="M 9334.93,3471.27 L 9325.83,3466.02 L 9325.83,3455.5 L 9704.44,3236.9 L 9704.44,3257.94 L 9334.93,3471.27 Z " />
<path stroke="transparent" fill="#000000" transform="matrix(0.05 0 0 0.05 -312 -72)" d="M 8947.22,3257.94 L 8947.22,3236.9 L 9325.83,3455.5 L 9325.83,3466.02 L 9316.72,3471.27 L 8947.22,3257.94 Z " />
<path stroke="transparent" fill="#000000" transform="matrix(0.05 0 0 0.05 -312 -72)" d="M 8180.74,3242.16 L 8189.85,3247.42 L 8189.85,3257.93 L 7953.78,3394.24 L 7944.67,3378.46 L 8180.74,3242.16 Z " />
<path stroke="transparent" fill="#000000" transform="matrix(0.05 0 0 0.05 -312 -72)" d="M 8180.74,2815.48 L 8189.85,2810.23 L 8198.96,2815.48 L 8198.96,3242.16 L 8189.85,3247.42 L 8180.74,3242.16 L 8180.74,2815.48 Z " />
<path stroke="transparent" fill="#000000" transform="matrix(0.05 0 0 0.05 -312 -72)" d="M 7811.24,2602.15 L 7811.24,2591.63 L 7820.35,2586.37 L 8189.85,2799.71 L 8189.85,2810.23 L 8180.74,2815.48 L 7811.24,2602.15 Z " />
<path stroke="transparent" fill="#000000" transform="matrix(0.05 0 0 0.05 -312 -72)" d="M 7441.74,2815.48 L 7432.63,2810.23 L 7432.63,2799.71 L 7802.14,2586.37 L 7811.24,2591.63 L 7811.24,2602.15 L 7441.74,2815.48 Z " />
<path stroke="transparent" fill="#000000" transform="matrix(0.05 0 0 0.05 -312 -72)" d="M 7441.74,3242.16 L 7432.63,3247.42 L 7423.53,3242.16 L 7423.53,2815.48 L 7432.63,2810.23 L 7441.74,2815.48 L 7441.74,3242.16 Z " />
<path stroke="transparent" fill="#000000" transform="matrix(0.05 0 0 0.05 -312 -72)" d="M 7432.63,3257.94 L 7432.63,3247.42 L 7441.74,3242.16 L 7677.7,3378.4 L 7668.6,3394.17 L 7432.63,3257.94 Z " />
<path stroke="transparent" fill="#000000" transform="matrix(0.05 0 0 0.05 -312 -72)" d="M 6292.25,3911.1 L 6301.36,3895.32 L 6521.41,4022.37 L 6512.3,4038.14 L 6292.25,3911.1 Z " />
<path stroke="transparent" fill="#000000" transform="matrix(0.05 0 0 0.05 -312 -72)" d="M 6301.36,4348.29 L 6292.25,4332.51 L 6513.84,4204.57 L 6522.95,4220.35 L 6301.36,4348.29 Z " />
<path stroke="transparent" fill="#000000" transform="matrix(0.05 0 0 0.05 -312 -72)" d="M 6684.52,4559 L 6666.31,4559 L 6666.31,4279.63 L 6684.52,4279.63 L 6684.52,4559 Z " />
<path stroke="transparent" fill="#000000" transform="matrix(0.05 0 0 0.05 -312 -72)" d="M 6855.94,4028.09 L 6846.84,4012.32 L 6914.94,3972.99 L 6924.05,3988.77 L 6855.94,4028.09 Z " />
<path stroke="transparent" fill="#000000" transform="matrix(0.05 0 0 0.05 -312 -72)" d="M 7063.13,3737.88 L 7044.92,3737.88 L 7044.92,3460.76 L 7063.13,3471.27 L 7063.13,3737.88 Z " />
<path stroke="transparent" fill="#000000" transform="matrix(0.05 0 0 0.05 -312 -72)" d="M 7063.13,3471.27 L 7044.92,3460.76 L 7423.53,3242.16 L 7432.63,3247.42 L 7432.63,3257.94 L 7063.13,3471.27 Z " />
<path stroke="transparent" fill="#000000" transform="matrix(0.05 0 0 0.05 -312 -72)" d="M 6301.36,3036.71 L 6292.25,3020.93 L 6513.84,2892.99 L 6522.95,2908.77 L 6301.36,3036.71 Z " />
<path stroke="transparent" fill="#000000" transform="matrix(0.05 0 0 0.05 -312 -72)" d="M 6684.52,3247.42 L 6666.31,3247.42 L 6666.31,2968.05 L 6684.52,2968.05 L 6684.52,3247.42 Z " />
<path stroke="transparent" fill="#000000" transform="matrix(0.05 0 0 0.05 -312 -72)" d="M 6292.25,2599.52 L 6301.36,2583.74 L 6521.41,2710.79 L 6512.3,2726.56 L 6292.25,2599.52 Z " />
<path stroke="transparent" fill="#000000" transform="matrix(0.05 0 0 0.05 -312 -72)" d="M 6855.94,2716.51 L 6846.84,2700.74 L 6914.94,2661.41 L 6924.05,2677.19 L 6855.94,2716.51 Z " />
<path stroke="transparent" fill="#000000" transform="matrix(0.05 0 0 0.05 -312 -72)" d="M 7184.32,2677.37 L 7193.43,2661.6 L 7432.63,2799.71 L 7432.63,2810.23 L 7423.53,2815.48 L 7184.32,2677.37 Z " />
<path stroke="transparent" fill="#000000" transform="matrix(0.05 0 0 0.05 -312 -72)" d="M 7049.47,1724.98 L 7058.58,1709.21 L 7278.65,1836.35 L 7269.54,1852.13 L 7049.47,1724.98 Z " />
<path stroke="transparent" fill="#000000" transform="matrix(0.05 0 0 0.05 -312 -72)" d="M 7058.58,2162.18 L 7049.47,2146.4 L 7271.04,2018.56 L 7280.15,2034.34 L 7058.58,2162.18 Z " />
<path stroke="transparent" fill="#000000" transform="matrix(0.05 0 0 0.05 -312 -72)" d="M 7423.53,1498.65 L 7441.74,1498.65 L 7441.74,1770.51 L 7423.53,1770.51 L 7423.53,1498.65 Z " />
<path stroke="transparent" fill="#000000" transform="matrix(0.05 0 0 0.05 -312 -72)" d="M 7600.81,2043.45 L 7609.92,2027.68 L 7677.7,2066.82 L 7668.6,2082.59 L 7600.81,2043.45 Z " />
<path stroke="transparent" fill="#000000" transform="matrix(0.05 0 0 0.05 -312 -72)" d="M 7802.14,2312.26 L 7820.35,2312.26 L 7820.35,2586.37 L 7811.24,2591.63 L 7802.14,2586.37 L 7802.14,2312.26 Z " />
<path stroke="transparent" fill="#000000" transform="matrix(0.05 0 0 0.05 -312 -72)" d="M 8185.3,1943.73 L 8194.41,1927.95 L 8414.59,2055.03 L 8405.48,2070.8 L 8185.3,1943.73 Z " />
<path stroke="transparent" fill="#000000" transform="matrix(0.05 0 0 0.05 -312 -72)" d="M 8559.5,1717.24 L 8577.72,1717.24 L 8577.72,1989.11 L 8559.5,1989.11 L 8559.5,1717.24 Z " />
<path stroke="transparent" fill="#000000" transform="matrix(0.05 0 0 0.05 -312 -72)" d="M 8942.66,1927.95 L 8951.77,1943.73 L 8749.14,2060.72 L 8740.03,2044.95 L 8942.66,1927.95 Z " />
<path stroke="transparent" fill="#000000" transform="matrix(0.05 0 0 0.05 -312 -72)" d="M 8559.5,2312.26 L 8577.72,2312.26 L 8577.72,2426.3 L 8559.5,2426.3 L 8559.5,2312.26 Z " />
<path stroke="transparent" fill="#000000" transform="matrix(0.05 0 0 0.05 -312 -72)" d="M 8429.51,2661.39 L 8438.62,2677.17 L 8198.96,2815.48 L 8189.85,2810.23 L 8189.85,2799.71 L 8429.51,2661.39 Z " />
<path stroke="transparent" fill="#000000" transform="matrix(0.05 0 0 0.05 -312 -72)" d="M 8189.85,3257.93 L 8189.85,3247.42 L 8198.96,3242.16 L 8435.06,3378.42 L 8425.95,3394.2 L 8189.85,3257.93 Z " />
<path stroke="transparent" fill="#000000" transform="matrix(0.05 0 0 0.05 -312 -72)" d="M 8711.14,3394.24 L 8702.03,3378.46 L 8947.22,3236.9 L 8947.22,3257.94 L 8711.14,3394.24 Z " />
<path stroke="transparent" fill="#000000" transform="matrix(0.05 0 0 0.05 -312 -72)" d="M 10835.7,3020.93 L 10844.8,3036.71 L 10642.2,3153.7 L 10633.1,3137.93 L 10835.7,3020.93 Z " />
<path stroke="transparent" fill="#000000" transform="matrix(0.05 0 0 0.05 -312 -72)" d="M 10452.5,2810.23 L 10470.8,2810.23 L 10470.8,3082.09 L 10452.5,3082.09 L 10452.5,2810.23 Z " />
<path stroke="transparent" fill="#000000" transform="matrix(0.05 0 0 0.05 -312 -72)" d="M 10844.8,3458.13 L 10835.7,3473.9 L 10629.8,3355.03 L 10638.9,3339.26 L 10844.8,3458.13 Z " />
<path stroke="transparent" fill="#000000" transform="matrix(0.05 0 0 0.05 -312 -72)" d="M 10300.1,3330.19 L 10309.2,3345.96 L 10225.6,3394.24 L 10216.5,3378.46 L 10300.1,3330.19 Z " />
<path stroke="transparent" fill="#000000" transform="matrix(0.05 0 0 0.05 -312 -72)" d="M 9949.51,3378.4 L 9940.4,3394.17 L 9704.44,3257.94 L 9704.44,3236.9 L 9949.51,3378.4 Z " />
<path stroke="transparent" fill="#000000" transform="matrix(0.05 0 0 0.05 -312 -72)" d="M 9316.72,3471.27 L 9325.83,3466.02 L 9334.93,3471.27 L 9334.93,3737.88 L 9316.72,3737.88 L 9316.72,3471.27 Z " />
<path stroke="transparent" fill="#000000" transform="matrix(0.05 0 0 0.05 -312 -72)" d="M 9456.12,3988.95 L 9465.23,3973.18 L 9550.43,4022.37 L 9541.32,4038.14 L 9456.12,3988.95 Z " />
<path stroke="transparent" fill="#000000" transform="matrix(0.05 0 0 0.05 -312 -72)" d="M 9713.54,4559 L 9695.33,4559 L 9695.33,4279.63 L 9713.54,4279.63 L 9713.54,4559 Z " />
<path stroke="transparent" fill="#000000" transform="matrix(0.05 0 0 0.05 -312 -72)" d="M 10087.6,4332.51 L 10078.5,4348.29 L 9872.61,4229.42 L 9881.72,4213.64 L 10087.6,4332.51 Z " />
<path stroke="transparent" fill="#000000" transform="matrix(0.05 0 0 0.05 -312 -72)" d="M 10078.5,3895.32 L 10087.6,3911.1 L 9884.97,4028.09 L 9875.86,4012.32 L 10078.5,3895.32 Z " />
</svg>
