<?xml version="1.0" standalone="no" ?>
<!DOCTYPE svg PUBLIC "-//W3C//DTD SVG 1.1//EN" "http://www.w3.org/Graphics/SVG/1.1/DTD/svg11.dtd">
<svg width="330px" height="56px" viewBox="0 0 330 56" style="background-color: #ffffffff" xmlns="http://www.w3.org/2000/svg" xmlns:xlink="http://www.w3.org/1999/xlink" version="1.1" >
<text x="0" y="0" stroke="transparent" fill="#000000" transform="matrix(0.05 0 0 0.05 239.591 12.2232)" style="font:normal normal normal 228px 'Arial'" >
O</text>
<text x="0" y="0" stroke="transparent" fill="#000000" transform="matrix(0.05 0 0 0.05 253.807 36.8478)" style="font:normal normal normal 228px 'Arial'" >
O</text>
<text x="0" y="0" stroke="transparent" fill="#000000" transform="matrix(0.05 0 0 0.05 310.679 36.8478)" style="font:normal normal normal 228px 'Arial'" >
OH</text>
<text x="0" y="0" stroke="transparent" fill="#000000" transform="matrix(0.05 0 0 0.05 282.246 53.2641)" style="font:normal normal normal 228px 'Arial'" >
OH</text>
<path stroke="transparent" fill="#000000" transform="matrix(0.05 0 0 0.05 -298 -149)" d="M 10556.2,3645.69 L 10556.2,3629.89 L 10840.5,3465.73 L 10840.5,3481.52 L 10556.2,3645.69 Z " />
<path stroke="transparent" fill="#000000" transform="matrix(0.05 0 0 0.05 -298 -149)" d="M 10271.8,3481.52 L 10271.8,3465.73 L 10556.2,3629.89 L 10556.2,3645.69 L 10271.8,3481.52 Z " />
<path stroke="transparent" fill="#000000" transform="matrix(0.05 0 0 0.05 -298 -149)" d="M 9987.5,3645.69 L 9987.5,3629.89 L 10271.8,3465.73 L 10271.8,3481.52 L 9987.5,3645.69 Z " />
<path stroke="transparent" fill="#000000" transform="matrix(0.05 0 0 0.05 -298 -149)" d="M 9703.16,3481.52 L 9703.16,3465.73 L 9987.5,3629.89 L 9987.5,3645.69 L 9703.16,3481.52 Z " />
<path stroke="transparent" fill="#000000" transform="matrix(0.05 0 0 0.05 -298 -149)" d="M 9418.83,3645.69 L 9418.83,3629.89 L 9703.16,3465.73 L 9703.16,3481.52 L 9418.83,3645.69 Z " />
<path stroke="transparent" fill="#000000" transform="matrix(0.05 0 0 0.05 -298 -149)" d="M 9134.5,3481.52 L 9134.5,3465.73 L 9418.83,3629.89 L 9418.83,3645.69 L 9134.5,3481.52 Z " />
<path stroke="transparent" fill="#000000" transform="matrix(0.05 0 0 0.05 -298 -149)" d="M 8850.17,3645.69 L 8850.17,3629.89 L 9134.5,3465.73 L 9134.5,3481.52 L 8850.17,3645.69 Z " />
<path stroke="transparent" fill="#000000" transform="matrix(0.05 0 0 0.05 -298 -149)" d="M 8565.84,3481.52 L 8565.84,3465.73 L 8850.17,3629.89 L 8850.17,3645.69 L 8565.84,3481.52 Z " />
<path stroke="transparent" fill="#000000" transform="matrix(0.05 0 0 0.05 -298 -149)" d="M 8281.51,3645.69 L 8281.51,3629.89 L 8565.84,3465.73 L 8565.84,3481.52 L 8281.51,3645.69 Z " />
<path stroke="transparent" fill="#000000" transform="matrix(0.05 0 0 0.05 -298 -149)" d="M 7997.18,3481.52 L 7997.18,3465.73 L 8281.51,3629.89 L 8281.51,3645.69 L 7997.18,3481.52 Z " />
<path stroke="transparent" fill="#000000" transform="matrix(0.05 0 0 0.05 -298 -149)" d="M 7712.85,3645.69 L 7712.84,3629.89 L 7997.18,3465.73 L 7997.18,3481.52 L 7712.85,3645.69 Z " />
<path stroke="transparent" fill="#000000" transform="matrix(0.05 0 0 0.05 -298 -149)" d="M 7428.41,3481.52 L 7428.4,3465.73 L 7712.84,3629.89 L 7712.85,3645.69 L 7428.41,3481.52 Z " />
<path stroke="transparent" fill="#000000" transform="matrix(0.05 0 0 0.05 -298 -149)" d="M 7144.07,3645.69 L 7144.07,3629.89 L 7428.4,3465.73 L 7428.41,3481.52 L 7144.07,3645.69 Z " />
<path stroke="transparent" fill="#000000" transform="matrix(0.05 0 0 0.05 -298 -149)" d="M 6859.74,3481.52 L 6859.74,3465.73 L 7144.07,3629.89 L 7144.07,3645.69 L 6859.74,3481.52 Z " />
<path stroke="transparent" fill="#000000" transform="matrix(0.05 0 0 0.05 -298 -149)" d="M 6575.41,3645.69 L 6575.41,3629.89 L 6859.74,3465.73 L 6859.74,3481.52 L 6575.41,3645.69 Z " />
<path stroke="transparent" fill="#000000" transform="matrix(0.05 0 0 0.05 -298 -149)" d="M 6291.08,3481.52 L 6291.08,3465.73 L 6575.41,3629.89 L 6575.41,3645.69 L 6291.08,3481.52 Z " />
<path stroke="transparent" fill="#000000" transform="matrix(0.05 0 0 0.05 -298 -149)" d="M 6010.17,3643.71 L 6003.33,3631.86 L 6291.08,3465.73 L 6291.08,3481.52 L 6010.17,3643.71 Z " />
<path stroke="transparent" fill="#000000" transform="matrix(0.05 0 0 0.05 -298 -149)" d="M 10804.1,3263.78 L 10817.8,3263.78 L 10817.8,3490.69 L 10804.1,3490.69 L 10804.1,3263.78 Z " />
<path stroke="transparent" fill="#000000" transform="matrix(0.05 0 0 0.05 -298 -149)" d="M 10863.2,3263.78 L 10876.9,3263.78 L 10876.9,3490.69 L 10863.2,3490.69 L 10863.2,3263.78 Z " />
<path stroke="transparent" fill="#000000" transform="matrix(0.05 0 0 0.05 -298 -149)" d="M 11024.1,3571.75 L 11017.3,3583.6 L 10840.5,3481.52 L 10840.5,3465.73 L 11024.1,3571.75 Z " />
<path stroke="transparent" fill="#000000" transform="matrix(0.05 0 0 0.05 -298 -149)" d="M 11693.6,3629.89 L 11693.6,3637.79 L 11686.8,3641.74 L 11409.3,3481.52 L 11409.3,3465.73 L 11693.6,3629.89 Z " />
<path stroke="transparent" fill="#000000" transform="matrix(0.05 0 0 0.05 -298 -149)" d="M 11977.9,3465.73 L 11977.9,3481.52 L 11700.4,3641.74 L 11693.6,3637.79 L 11693.6,3629.89 L 11977.9,3465.73 Z " />
<path stroke="transparent" fill="#000000" transform="matrix(0.05 0 0 0.05 -298 -149)" d="M 12161.6,3571.75 L 12154.7,3583.6 L 11977.9,3481.52 L 11977.9,3465.73 L 12161.6,3571.75 Z " />
<path stroke="transparent" fill="#000000" transform="matrix(0.05 0 0 0.05 -298 -149)" d="M 11700.4,3841.64 L 11686.8,3841.64 L 11686.8,3641.74 L 11693.6,3637.79 L 11700.4,3641.74 L 11700.4,3841.64 Z " />
<path stroke="transparent" fill="#000000" transform="matrix(0.05 0 0 0.05 -298 -149)" d="M 11409.3,3465.73 L 11409.3,3481.52 L 11232,3583.84 L 11225.1,3571.99 L 11409.3,3465.73 Z " />
</svg>
