<?xml version="1.0" standalone="no" ?>
<!DOCTYPE svg PUBLIC "-//W3C//DTD SVG 1.1//EN" "http://www.w3.org/Graphics/SVG/1.1/DTD/svg11.dtd">
<svg width="174px" height="118px" viewBox="0 0 174 118" style="background-color: #ffffff00" xmlns="http://www.w3.org/2000/svg" xmlns:xlink="http://www.w3.org/1999/xlink" version="1.1" >
<text x="0" y="0" stroke="transparent" fill="#000000" transform="matrix(0.0666667 0 0 0.0666667 81.7333 114.739)" style="font:normal normal normal 200px 'Arial'" >
OH</text>
<text x="0" y="0" stroke="transparent" fill="#000000" transform="matrix(0.0666667 0 0 0.0666667 2.82239 74.7389)" style="font:normal normal normal 200px 'Arial'" >
HO</text>
<text x="0" y="0" stroke="transparent" fill="#000000" transform="matrix(0.0666667 0 0 0.0666667 116.374 14.7389)" style="font:normal normal normal 200px 'Arial'" >
O</text>
<text x="0" y="0" stroke="transparent" fill="#000000" transform="matrix(0.0666667 0 0 0.0666667 151.015 74.7389)" style="font:normal normal normal 200px 'Arial'" >
OH</text>
<path stroke="transparent" fill="#000000" transform="matrix(0.0666667 0 0 0.0666667 -31.0667 -11.3333)" d="M 1780,1218.86 L 1770,1213.08 L 1770,1201.54 L 2289.62,901.536 L 2289.62,924.63 L 1780,1218.86 Z " />
<path stroke="transparent" fill="#000000" transform="matrix(0.0666667 0 0 0.0666667 -31.0667 -11.3333)" d="M 1780,1707.92 L 1760,1707.92 L 1760,1218.86 L 1770,1213.08 L 1780,1218.86 L 1780,1707.92 Z " />
<path stroke="transparent" fill="#000000" transform="matrix(0.0666667 0 0 0.0666667 -31.0667 -11.3333)" d="M 1250.38,924.63 L 1250.38,901.536 L 1770,1201.54 L 1770,1213.08 L 1760,1218.86 L 1250.38,924.63 Z " />
<path stroke="transparent" fill="#000000" transform="matrix(0.0666667 0 0 0.0666667 -31.0667 -11.3333)" d="M 828.38,1168.27 L 818.38,1150.95 L 1250.38,901.536 L 1250.38,924.63 L 828.38,1168.27 Z " />
<path stroke="transparent" fill="#000000" transform="matrix(0.0666667 0 0 0.0666667 -31.0667 -11.3333)" d="M 2243.62,432.917 L 2263.62,432.917 L 2263.62,933.868 L 2243.62,933.868 L 2243.62,432.917 Z " />
<path stroke="transparent" fill="#000000" transform="matrix(0.0666667 0 0 0.0666667 -31.0667 -11.3333)" d="M 2315.62,432.917 L 2335.62,432.917 L 2335.62,933.868 L 2315.62,933.868 L 2315.62,432.917 Z " />
<path stroke="transparent" fill="#000000" transform="matrix(0.0666667 0 0 0.0666667 -31.0667 -11.3333)" d="M 2721.61,1150.95 L 2711.61,1168.27 L 2289.62,924.63 L 2289.62,901.536 L 2721.61,1150.95 Z " />
</svg>
