<?xml version="1.0" standalone="no" ?>
<!DOCTYPE svg PUBLIC "-//W3C//DTD SVG 1.1//EN" "http://www.w3.org/Graphics/SVG/1.1/DTD/svg11.dtd">
<svg width="145px" height="78px" viewBox="0 0 145 78" style="background-color: #ffffff00" xmlns="http://www.w3.org/2000/svg" xmlns:xlink="http://www.w3.org/1999/xlink" version="1.1" >
<text x="0" y="0" stroke="transparent" fill="#000000" transform="matrix(0.0666667 0 0 0.0666667 3.54769 54.3389)" style="font:normal normal normal 200px 'Arial'" >
H</text>
<text x="0" y="0" stroke="transparent" fill="#000000" transform="matrix(0.0666667 0 0 0.0666667 13.1766 57.2722)" style="font:normal normal normal 150px 'Arial'" >
2</text>
<text x="0" y="0" stroke="transparent" fill="#000000" transform="matrix(0.0666667 0 0 0.0666667 18.7381 54.3389)" style="font:normal normal normal 200px 'Arial'" >
N</text>
<text x="0" y="0" stroke="transparent" fill="#000000" transform="matrix(0.0666667 0 0 0.0666667 87.6491 14.3389)" style="font:normal normal normal 200px 'Arial'" >
O</text>
<text x="0" y="0" stroke="transparent" fill="#000000" transform="matrix(0.0666667 0 0 0.0666667 122.29 74.3389)" style="font:normal normal normal 200px 'Arial'" >
OH</text>
<path stroke="transparent" fill="#000000" transform="matrix(0.0666667 0 0 0.0666667 -22.0667 -14.7333)" d="M 1204.12,1246.54 L 1204.12,1269.63 L 789.459,1030.23 L 799.459,1012.9 L 1204.12,1246.54 Z " />
<path stroke="transparent" fill="#000000" transform="matrix(0.0666667 0 0 0.0666667 -22.0667 -14.7333)" d="M 1204.12,1269.63 L 1204.12,1246.54 L 1723.74,946.536 L 1723.74,969.63 L 1204.12,1269.63 Z " />
<path stroke="transparent" fill="#000000" transform="matrix(0.0666667 0 0 0.0666667 -22.0667 -14.7333)" d="M 1677.74,477.917 L 1697.74,477.917 L 1697.74,978.868 L 1677.74,978.868 L 1677.74,477.917 Z " />
<path stroke="transparent" fill="#000000" transform="matrix(0.0666667 0 0 0.0666667 -22.0667 -14.7333)" d="M 1749.74,477.917 L 1769.74,477.917 L 1769.74,978.868 L 1749.74,978.868 L 1749.74,477.917 Z " />
<path stroke="transparent" fill="#000000" transform="matrix(0.0666667 0 0 0.0666667 -22.0667 -14.7333)" d="M 2155.73,1195.95 L 2145.73,1213.27 L 1723.74,969.63 L 1723.74,946.536 L 2155.73,1195.95 Z " />
</svg>
