<?xml version="1.0" standalone="no" ?>
<!DOCTYPE svg PUBLIC "-//W3C//DTD SVG 1.1//EN" "http://www.w3.org/Graphics/SVG/1.1/DTD/svg11.dtd">
<svg width="220px" height="93px" viewBox="0 0 220 93" style="background-color: #ffffffff" xmlns="http://www.w3.org/2000/svg" xmlns:xlink="http://www.w3.org/1999/xlink" version="1.1" >
<text x="0" y="0" stroke="transparent" fill="#000000" transform="matrix(0.05 0 0 0.05 138.948 89.6308)" style="font:normal normal normal 392px 'Arial'" >
OH</text>
<text x="0" y="0" stroke="transparent" fill="#000000" transform="matrix(0.05 0 0 0.05 114.506 19.0708)" style="font:normal normal normal 392px 'Arial'" >
OH</text>
<text x="0" y="0" stroke="transparent" fill="#000000" transform="matrix(0.05 0 0 0.05 90.0544 89.6308)" style="font:normal normal normal 392px 'Arial'" >
OH</text>
<text x="0" y="0" stroke="transparent" fill="#000000" transform="matrix(0.05 0 0 0.05 65.6124 19.0708)" style="font:normal normal normal 392px 'Arial'" >
OH</text>
<text x="0" y="0" stroke="transparent" fill="#000000" transform="matrix(0.05 0 0 0.05 2.57397 47.2948)" style="font:normal normal normal 392px 'Arial'" >
HO</text>
<text x="0" y="0" stroke="transparent" fill="#000000" transform="matrix(0.05 0 0 0.05 163.39 19.0708)" style="font:normal normal normal 392px 'Arial'" >
O</text>
<text x="0" y="0" stroke="transparent" fill="#000000" transform="matrix(0.05 0 0 0.05 187.832 61.4068)" style="font:normal normal normal 392px 'Arial'" >
OH</text>
<path stroke="transparent" fill="#000000" transform="matrix(0.05 0 0 0.05 -375 -145)" d="M 10431.4,4005.6 L 10431.4,3978.45 L 10920.2,3696.21 L 10920.2,3723.36 L 10431.4,4005.6 Z " />
<path stroke="transparent" fill="#000000" transform="matrix(0.05 0 0 0.05 -375 -145)" d="M 10490.2,4344.23 L 10372.6,4344.23 L 10377,4320.71 L 10485.9,4320.71 L 10490.2,4344.23 Z " />
<path stroke="transparent" fill="#000000" transform="matrix(0.05 0 0 0.05 -375 -145)" d="M 10468.9,4228.92 L 10394,4228.92 L 10398.3,4205.4 L 10464.5,4205.4 L 10468.9,4228.92 Z " />
<path stroke="transparent" fill="#000000" transform="matrix(0.05 0 0 0.05 -375 -145)" d="M 10447.5,4113.6 L 10415.3,4113.6 L 10419.7,4090.08 L 10443.2,4090.08 L 10447.5,4113.6 Z " />
<path stroke="transparent" fill="#000000" transform="matrix(0.05 0 0 0.05 -375 -145)" d="M 9942.57,3723.36 L 9942.57,3709.79 L 9955.15,3703.47 L 10431.4,3978.45 L 10431.4,4005.6 L 9942.57,3723.36 Z " />
<path stroke="transparent" fill="#000000" transform="matrix(0.05 0 0 0.05 -375 -145)" d="M 9883.77,3349.47 L 10001.4,3349.47 L 9955.15,3703.47 L 9942.57,3709.79 L 9929.99,3703.47 L 9883.77,3349.47 Z " />
<path stroke="transparent" fill="#000000" transform="matrix(0.05 0 0 0.05 -375 -145)" d="M 9466.14,3998.33 L 9453.54,3992.03 L 9453.54,3978.45 L 9929.99,3703.47 L 9942.57,3709.79 L 9942.57,3723.36 L 9466.14,3998.33 Z " />
<path stroke="transparent" fill="#000000" transform="matrix(0.05 0 0 0.05 -375 -145)" d="M 9512.34,4344.23 L 9394.74,4344.23 L 9440.94,3998.33 L 9453.54,3992.03 L 9466.14,3998.33 L 9512.34,4344.23 Z " />
<path stroke="transparent" fill="#000000" transform="matrix(0.05 0 0 0.05 -375 -145)" d="M 8964.7,3723.36 L 8964.7,3709.79 L 8977.29,3703.47 L 9453.54,3978.45 L 9453.54,3992.03 L 9440.94,3998.33 L 8964.7,3723.36 Z " />
<path stroke="transparent" fill="#000000" transform="matrix(0.05 0 0 0.05 -375 -145)" d="M 8905.9,3349.47 L 9023.5,3349.47 L 8977.29,3703.47 L 8964.7,3709.79 L 8952.12,3703.47 L 8905.9,3349.47 Z " />
<path stroke="transparent" fill="#000000" transform="matrix(0.05 0 0 0.05 -375 -145)" d="M 8475.86,4005.6 L 8475.86,3978.45 L 8952.12,3703.47 L 8964.7,3709.79 L 8964.7,3723.36 L 8475.86,4005.6 Z " />
<path stroke="transparent" fill="#000000" transform="matrix(0.05 0 0 0.05 -375 -145)" d="M 8155.04,3820.37 L 8166.8,3800 L 8475.86,3978.45 L 8475.86,4005.6 L 8155.04,3820.37 Z " />
<path stroke="transparent" fill="#000000" transform="matrix(0.05 0 0 0.05 -375 -145)" d="M 10857.7,3349.47 L 10881.2,3349.47 L 10881.2,3739.12 L 10857.7,3739.12 L 10857.7,3349.47 Z " />
<path stroke="transparent" fill="#000000" transform="matrix(0.05 0 0 0.05 -375 -145)" d="M 10959.3,3349.47 L 10982.8,3349.47 L 10982.8,3739.12 L 10959.3,3739.12 L 10959.3,3349.47 Z " />
<path stroke="transparent" fill="#000000" transform="matrix(0.05 0 0 0.05 -375 -145)" d="M 11237,3879.1 L 11225.3,3899.47 L 10920.2,3723.36 L 10920.2,3696.21 L 11237,3879.1 Z " />
</svg>
