<?xml version="1.0" standalone="no" ?>
<!DOCTYPE svg PUBLIC "-//W3C//DTD SVG 1.1//EN" "http://www.w3.org/Graphics/SVG/1.1/DTD/svg11.dtd">
<svg width="325px" height="48px" viewBox="0 0 325 48" style="background-color: #ffffffff" xmlns="http://www.w3.org/2000/svg" xmlns:xlink="http://www.w3.org/1999/xlink" version="1.1" >
<text x="0" y="0" stroke="transparent" fill="#000000" transform="matrix(0.05 0 0 0.05 283.346 14.1039)" style="font:normal normal normal 286.4px 'Arial'" >
O</text>
<text x="0" y="0" stroke="transparent" fill="#000000" transform="matrix(0.05 0 0 0.05 301.211 45.0358)" style="font:normal normal normal 286.4px 'Arial'" >
OH</text>
<path stroke="transparent" fill="#000000" transform="matrix(0.05 0 0 0.05 -263 -106)" d="M 10681.2,2931.19 L 10681.2,2911.35 L 11038.3,2705.14 L 11038.3,2724.98 L 10681.2,2931.19 Z " />
<path stroke="transparent" fill="#000000" transform="matrix(0.05 0 0 0.05 -263 -106)" d="M 10324,2724.98 L 10324,2705.14 L 10681.2,2911.35 L 10681.2,2931.19 L 10324,2724.98 Z " />
<path stroke="transparent" fill="#000000" transform="matrix(0.05 0 0 0.05 -263 -106)" d="M 9966.83,2931.19 L 9966.83,2911.35 L 10324,2705.14 L 10324,2724.98 L 9966.83,2931.19 Z " />
<path stroke="transparent" fill="#000000" transform="matrix(0.05 0 0 0.05 -263 -106)" d="M 9609.67,2724.98 L 9609.67,2705.14 L 9966.83,2911.35 L 9966.83,2931.19 L 9609.67,2724.98 Z " />
<path stroke="transparent" fill="#000000" transform="matrix(0.05 0 0 0.05 -263 -106)" d="M 9252.51,2931.19 L 9252.51,2911.35 L 9609.67,2705.14 L 9609.67,2724.98 L 9252.51,2931.19 Z " />
<path stroke="transparent" fill="#000000" transform="matrix(0.05 0 0 0.05 -263 -106)" d="M 8895.35,2724.98 L 8895.35,2705.14 L 9252.51,2911.35 L 9252.51,2931.19 L 8895.35,2724.98 Z " />
<path stroke="transparent" fill="#000000" transform="matrix(0.05 0 0 0.05 -263 -106)" d="M 8538.19,2931.19 L 8538.19,2911.35 L 8895.35,2705.14 L 8895.35,2724.98 L 8538.19,2931.19 Z " />
<path stroke="transparent" fill="#000000" transform="matrix(0.05 0 0 0.05 -263 -106)" d="M 8181.03,2724.98 L 8181.03,2705.14 L 8538.19,2911.35 L 8538.19,2931.19 L 8181.03,2724.98 Z " />
<path stroke="transparent" fill="#000000" transform="matrix(0.05 0 0 0.05 -263 -106)" d="M 7823.87,2931.19 L 7823.87,2911.35 L 8181.03,2705.14 L 8181.03,2724.98 L 7823.87,2931.19 Z " />
<path stroke="transparent" fill="#000000" transform="matrix(0.05 0 0 0.05 -263 -106)" d="M 7466.71,2724.98 L 7466.71,2705.14 L 7823.87,2911.35 L 7823.87,2931.19 L 7466.71,2724.98 Z " />
<path stroke="transparent" fill="#000000" transform="matrix(0.05 0 0 0.05 -263 -106)" d="M 7109.55,2931.19 L 7109.55,2911.35 L 7466.71,2705.14 L 7466.71,2724.98 L 7109.55,2931.19 Z " />
<path stroke="transparent" fill="#000000" transform="matrix(0.05 0 0 0.05 -263 -106)" d="M 6752.39,2724.98 L 6752.39,2705.14 L 7109.55,2911.35 L 7109.55,2931.19 L 6752.39,2724.98 Z " />
<path stroke="transparent" fill="#000000" transform="matrix(0.05 0 0 0.05 -263 -106)" d="M 6395.09,2931.19 L 6395.1,2911.35 L 6752.39,2705.14 L 6752.39,2724.98 L 6395.09,2931.19 Z " />
<path stroke="transparent" fill="#000000" transform="matrix(0.05 0 0 0.05 -263 -106)" d="M 6037.94,2724.98 L 6037.94,2705.14 L 6395.1,2911.35 L 6395.09,2931.19 L 6037.94,2724.98 Z " />
<path stroke="transparent" fill="#000000" transform="matrix(0.05 0 0 0.05 -263 -106)" d="M 5680.77,2931.19 L 5680.77,2911.35 L 6037.94,2705.14 L 6037.94,2724.98 L 5680.77,2931.19 Z " />
<path stroke="transparent" fill="#000000" transform="matrix(0.05 0 0 0.05 -263 -106)" d="M 5319.32,2722.5 L 5327.91,2707.62 L 5680.77,2911.35 L 5680.77,2931.19 L 5319.32,2722.5 Z " />
<path stroke="transparent" fill="#000000" transform="matrix(0.05 0 0 0.05 -263 -106)" d="M 10992.6,2450.74 L 11009.8,2450.74 L 11009.8,2736.49 L 10992.6,2736.49 L 10992.6,2450.74 Z " />
<path stroke="transparent" fill="#000000" transform="matrix(0.05 0 0 0.05 -263 -106)" d="M 11066.8,2450.74 L 11084,2450.74 L 11084,2736.48 L 11066.8,2736.48 L 11066.8,2450.74 Z " />
<path stroke="transparent" fill="#000000" transform="matrix(0.05 0 0 0.05 -263 -106)" d="M 11269.5,2838.59 L 11260.9,2853.47 L 11038.3,2724.98 L 11038.3,2705.14 L 11269.5,2838.59 Z " />
</svg>
