<?xml version="1.0" standalone="no" ?>
<!DOCTYPE svg PUBLIC "-//W3C//DTD SVG 1.1//EN" "http://www.w3.org/Graphics/SVG/1.1/DTD/svg11.dtd">
<svg width="304px" height="17px" viewBox="0 0 304 17" style="background-color: #ffffffff" xmlns="http://www.w3.org/2000/svg" xmlns:xlink="http://www.w3.org/1999/xlink" version="1.1" >
<path stroke="transparent" fill="#000000" transform="matrix(0.05 0 0 0.05 -341 -168)" d="M 7238.52,3410.9 L 7238.52,3431.67 L 6869.14,3644.93 L 6860.15,3629.36 L 7238.52,3410.9 Z " />
<path stroke="transparent" fill="#000000" transform="matrix(0.05 0 0 0.05 -341 -168)" d="M 7612.39,3626.76 L 7612.39,3647.53 L 7238.52,3431.67 L 7238.52,3410.9 L 7612.39,3626.76 Z " />
<path stroke="transparent" fill="#000000" transform="matrix(0.05 0 0 0.05 -341 -168)" d="M 7986.26,3410.9 L 7986.26,3431.67 L 7612.39,3647.53 L 7612.39,3626.76 L 7986.26,3410.9 Z " />
<path stroke="transparent" fill="#000000" transform="matrix(0.05 0 0 0.05 -341 -168)" d="M 8360.13,3626.9 L 8360.13,3647.67 L 7986.26,3431.67 L 7986.26,3410.9 L 8360.13,3626.9 Z " />
<path stroke="transparent" fill="#000000" transform="matrix(0.05 0 0 0.05 -341 -168)" d="M 8734,3411.04 L 8734,3431.81 L 8360.13,3647.67 L 8360.13,3626.9 L 8734,3411.04 Z " />
<path stroke="transparent" fill="#000000" transform="matrix(0.05 0 0 0.05 -341 -168)" d="M 9107.87,3626.9 L 9107.87,3647.67 L 8734,3431.81 L 8734,3411.04 L 9107.87,3626.9 Z " />
<path stroke="transparent" fill="#000000" transform="matrix(0.05 0 0 0.05 -341 -168)" d="M 9481.74,3411.04 L 9481.74,3431.81 L 9107.87,3647.67 L 9107.87,3626.9 L 9481.74,3411.04 Z " />
<path stroke="transparent" fill="#000000" transform="matrix(0.05 0 0 0.05 -341 -168)" d="M 9855.75,3626.9 L 9855.76,3647.67 L 9481.74,3431.81 L 9481.74,3411.04 L 9855.75,3626.9 Z " />
<path stroke="transparent" fill="#000000" transform="matrix(0.05 0 0 0.05 -341 -168)" d="M 10229.6,3411.04 L 10229.6,3431.81 L 9855.76,3647.67 L 9855.75,3626.9 L 10229.6,3411.04 Z " />
<path stroke="transparent" fill="#000000" transform="matrix(0.05 0 0 0.05 -341 -168)" d="M 10603.5,3626.9 L 10603.5,3647.67 L 10229.6,3431.81 L 10229.6,3411.04 L 10603.5,3626.9 Z " />
<path stroke="transparent" fill="#000000" transform="matrix(0.05 0 0 0.05 -341 -168)" d="M 10977.4,3411.04 L 10977.4,3431.81 L 10603.5,3647.67 L 10603.5,3626.9 L 10977.4,3411.04 Z " />
<path stroke="transparent" fill="#000000" transform="matrix(0.05 0 0 0.05 -341 -168)" d="M 11351.2,3626.9 L 11351.2,3647.67 L 10977.4,3431.81 L 10977.4,3411.04 L 11351.2,3626.9 Z " />
<path stroke="transparent" fill="#000000" transform="matrix(0.05 0 0 0.05 -341 -168)" d="M 11725.1,3411.04 L 11725.1,3431.81 L 11351.2,3647.67 L 11351.2,3626.9 L 11725.1,3411.04 Z " />
<path stroke="transparent" fill="#000000" transform="matrix(0.05 0 0 0.05 -341 -168)" d="M 12099,3626.9 L 12099,3647.67 L 11725.1,3431.81 L 11725.1,3411.04 L 12099,3626.9 Z " />
<path stroke="transparent" fill="#000000" transform="matrix(0.05 0 0 0.05 -341 -168)" d="M 12472.8,3411.04 L 12472.8,3431.81 L 12099,3647.67 L 12099,3626.9 L 12472.8,3411.04 Z " />
<path stroke="transparent" fill="#000000" transform="matrix(0.05 0 0 0.05 -341 -168)" d="M 12851.2,3629.5 L 12842.2,3645.08 L 12472.8,3431.81 L 12472.8,3411.04 L 12851.2,3629.5 Z " />
</svg>
