<?xml version="1.0" standalone="no" ?>
<!DOCTYPE svg PUBLIC "-//W3C//DTD SVG 1.1//EN" "http://www.w3.org/Graphics/SVG/1.1/DTD/svg11.dtd">
<svg width="610px" height="78px" viewBox="0 0 610 78" style="background-color: #ffffff00" xmlns="http://www.w3.org/2000/svg" xmlns:xlink="http://www.w3.org/1999/xlink" version="1.1" >
<text x="0" y="0" stroke="transparent" fill="#000000" transform="matrix(0.0666667 0 0 0.0666667 552.293 14.7389)" style="font:normal normal normal 200px 'Arial'" >
O</text>
<text x="0" y="0" stroke="transparent" fill="#000000" transform="matrix(0.0666667 0 0 0.0666667 586.934 74.7389)" style="font:normal normal normal 200px 'Arial'" >
OH</text>
<path stroke="transparent" fill="#000000" transform="matrix(0.0666667 0 0 0.0666667 -19.0667 -0.333333)" d="M 8128.78,1059.63 L 8128.78,1036.54 L 8648.4,736.536 L 8648.4,759.63 L 8128.78,1059.63 Z " />
<path stroke="transparent" fill="#000000" transform="matrix(0.0666667 0 0 0.0666667 -19.0667 -0.333333)" d="M 7609.17,759.63 L 7609.17,736.536 L 8128.78,1036.54 L 8128.78,1059.63 L 7609.17,759.63 Z " />
<path stroke="transparent" fill="#000000" transform="matrix(0.0666667 0 0 0.0666667 -19.0667 -0.333333)" d="M 7089.55,1059.63 L 7089.55,1036.54 L 7609.17,736.536 L 7609.17,759.63 L 7089.55,1059.63 Z " />
<path stroke="transparent" fill="#000000" transform="matrix(0.0666667 0 0 0.0666667 -19.0667 -0.333333)" d="M 6569.94,759.63 L 6569.94,736.536 L 7089.55,1036.54 L 7089.55,1059.63 L 6569.94,759.63 Z " />
<path stroke="transparent" fill="#000000" transform="matrix(0.0666667 0 0 0.0666667 -19.0667 -0.333333)" d="M 6050.32,1059.63 L 6050.32,1036.54 L 6569.94,736.536 L 6569.94,759.63 L 6050.32,1059.63 Z " />
<path stroke="transparent" fill="#000000" transform="matrix(0.0666667 0 0 0.0666667 -19.0667 -0.333333)" d="M 5530.71,759.63 L 5530.71,736.536 L 6050.32,1036.54 L 6050.32,1059.63 L 5530.71,759.63 Z " />
<path stroke="transparent" fill="#000000" transform="matrix(0.0666667 0 0 0.0666667 -19.0667 -0.333333)" d="M 5011.09,1059.63 L 5011.09,1036.54 L 5530.71,736.536 L 5530.71,759.63 L 5011.09,1059.63 Z " />
<path stroke="transparent" fill="#000000" transform="matrix(0.0666667 0 0 0.0666667 -19.0667 -0.333333)" d="M 4491.48,759.63 L 4491.48,736.536 L 5011.09,1036.54 L 5011.09,1059.63 L 4491.48,759.63 Z " />
<path stroke="transparent" fill="#000000" transform="matrix(0.0666667 0 0 0.0666667 -19.0667 -0.333333)" d="M 3971.86,1059.63 L 3971.86,1036.54 L 4491.48,736.536 L 4491.48,759.63 L 3971.86,1059.63 Z " />
<path stroke="transparent" fill="#000000" transform="matrix(0.0666667 0 0 0.0666667 -19.0667 -0.333333)" d="M 3452.25,759.63 L 3452.25,736.536 L 3971.86,1036.54 L 3971.86,1059.63 L 3452.25,759.63 Z " />
<path stroke="transparent" fill="#000000" transform="matrix(0.0666667 0 0 0.0666667 -19.0667 -0.333333)" d="M 2932.63,1059.63 L 2932.63,1036.54 L 3452.25,736.536 L 3452.25,759.63 L 2932.63,1059.63 Z " />
<path stroke="transparent" fill="#000000" transform="matrix(0.0666667 0 0 0.0666667 -19.0667 -0.333333)" d="M 2413.01,759.63 L 2413.01,736.536 L 2932.63,1036.54 L 2932.63,1059.63 L 2413.01,759.63 Z " />
<path stroke="transparent" fill="#000000" transform="matrix(0.0666667 0 0 0.0666667 -19.0667 -0.333333)" d="M 1893.4,1059.63 L 1893.4,1036.54 L 2413.01,736.536 L 2413.01,759.63 L 1893.4,1059.63 Z " />
<path stroke="transparent" fill="#000000" transform="matrix(0.0666667 0 0 0.0666667 -19.0667 -0.333333)" d="M 1373.78,759.63 L 1373.78,736.536 L 1893.4,1036.54 L 1893.4,1059.63 L 1373.78,759.63 Z " />
<path stroke="transparent" fill="#000000" transform="matrix(0.0666667 0 0 0.0666667 -19.0667 -0.333333)" d="M 854.169,1059.63 L 854.169,1036.54 L 1373.78,736.536 L 1373.78,759.63 L 854.169,1059.63 Z " />
<path stroke="transparent" fill="#000000" transform="matrix(0.0666667 0 0 0.0666667 -19.0667 -0.333333)" d="M 329.554,756.744 L 339.554,739.423 L 854.169,1036.54 L 854.169,1059.63 L 329.554,756.744 Z " />
<path stroke="transparent" fill="#000000" transform="matrix(0.0666667 0 0 0.0666667 -19.0667 -0.333333)" d="M 8602.4,267.917 L 8622.4,267.917 L 8622.4,768.868 L 8602.4,768.868 L 8602.4,267.917 Z " />
<path stroke="transparent" fill="#000000" transform="matrix(0.0666667 0 0 0.0666667 -19.0667 -0.333333)" d="M 8674.4,267.917 L 8694.4,267.917 L 8694.4,768.868 L 8674.4,768.868 L 8674.4,267.917 Z " />
<path stroke="transparent" fill="#000000" transform="matrix(0.0666667 0 0 0.0666667 -19.0667 -0.333333)" d="M 9080.39,985.95 L 9070.39,1003.27 L 8648.4,759.63 L 8648.4,736.536 L 9080.39,985.95 Z " />
</svg>
