<?xml version="1.0" standalone="no" ?>
<!DOCTYPE svg PUBLIC "-//W3C//DTD SVG 1.1//EN" "http://www.w3.org/Graphics/SVG/1.1/DTD/svg11.dtd">
<svg width="526px" height="28px" viewBox="0 0 526 28" style="background-color: #ffffff00" xmlns="http://www.w3.org/2000/svg" xmlns:xlink="http://www.w3.org/1999/xlink" version="1.1" >
<path stroke="transparent" fill="#000000" transform="matrix(0.0666667 0 0 0.0666667 -18.0667 -31.3333)" d="M 837.501,520.953 L 837.501,544.047 L 322.886,841.16 L 312.886,823.84 L 837.501,520.953 Z " />
<path stroke="transparent" fill="#000000" transform="matrix(0.0666667 0 0 0.0666667 -18.0667 -31.3333)" d="M 1357.12,820.953 L 1357.12,844.047 L 837.501,544.047 L 837.501,520.953 L 1357.12,820.953 Z " />
<path stroke="transparent" fill="#000000" transform="matrix(0.0666667 0 0 0.0666667 -18.0667 -31.3333)" d="M 1876.73,520.953 L 1876.73,544.047 L 1357.12,844.047 L 1357.12,820.953 L 1876.73,520.953 Z " />
<path stroke="transparent" fill="#000000" transform="matrix(0.0666667 0 0 0.0666667 -18.0667 -31.3333)" d="M 2396.35,820.953 L 2396.35,844.047 L 1876.73,544.047 L 1876.73,520.953 L 2396.35,820.953 Z " />
<path stroke="transparent" fill="#000000" transform="matrix(0.0666667 0 0 0.0666667 -18.0667 -31.3333)" d="M 2915.96,520.953 L 2915.96,544.047 L 2396.35,844.047 L 2396.35,820.953 L 2915.96,520.953 Z " />
<path stroke="transparent" fill="#000000" transform="matrix(0.0666667 0 0 0.0666667 -18.0667 -31.3333)" d="M 3435.58,820.953 L 3435.58,844.047 L 2915.96,544.047 L 2915.96,520.953 L 3435.58,820.953 Z " />
<path stroke="transparent" fill="#000000" transform="matrix(0.0666667 0 0 0.0666667 -18.0667 -31.3333)" d="M 3955.19,520.953 L 3955.19,544.047 L 3435.58,844.047 L 3435.58,820.953 L 3955.19,520.953 Z " />
<path stroke="transparent" fill="#000000" transform="matrix(0.0666667 0 0 0.0666667 -18.0667 -31.3333)" d="M 4474.81,820.953 L 4474.81,844.047 L 3955.19,544.047 L 3955.19,520.953 L 4474.81,820.953 Z " />
<path stroke="transparent" fill="#000000" transform="matrix(0.0666667 0 0 0.0666667 -18.0667 -31.3333)" d="M 4994.42,520.953 L 4994.42,544.047 L 4474.81,844.047 L 4474.81,820.953 L 4994.42,520.953 Z " />
<path stroke="transparent" fill="#000000" transform="matrix(0.0666667 0 0 0.0666667 -18.0667 -31.3333)" d="M 5514.04,820.953 L 5514.04,844.047 L 4994.42,544.047 L 4994.42,520.953 L 5514.04,820.953 Z " />
<path stroke="transparent" fill="#000000" transform="matrix(0.0666667 0 0 0.0666667 -18.0667 -31.3333)" d="M 6033.65,520.953 L 6033.65,544.047 L 5514.04,844.047 L 5514.04,820.953 L 6033.65,520.953 Z " />
<path stroke="transparent" fill="#000000" transform="matrix(0.0666667 0 0 0.0666667 -18.0667 -31.3333)" d="M 6553.27,820.953 L 6553.27,844.047 L 6033.65,544.047 L 6033.65,520.953 L 6553.27,820.953 Z " />
<path stroke="transparent" fill="#000000" transform="matrix(0.0666667 0 0 0.0666667 -18.0667 -31.3333)" d="M 7072.88,520.953 L 7072.88,544.047 L 6553.27,844.047 L 6553.27,820.953 L 7072.88,520.953 Z " />
<path stroke="transparent" fill="#000000" transform="matrix(0.0666667 0 0 0.0666667 -18.0667 -31.3333)" d="M 7592.5,820.953 L 7592.5,844.047 L 7072.88,544.047 L 7072.88,520.953 L 7592.5,820.953 Z " />
<path stroke="transparent" fill="#000000" transform="matrix(0.0666667 0 0 0.0666667 -18.0667 -31.3333)" d="M 8107.11,523.84 L 8117.11,541.16 L 7592.5,844.047 L 7592.5,820.953 L 8107.11,523.84 Z " />
</svg>
