<?xml version="1.0" standalone="no" ?>
<!DOCTYPE svg PUBLIC "-//W3C//DTD SVG 1.1//EN" "http://www.w3.org/Graphics/SVG/1.1/DTD/svg11.dtd">
<svg width="102px" height="35px" viewBox="0 0 102 35" style="background-color: #ffffffff" xmlns="http://www.w3.org/2000/svg" xmlns:xlink="http://www.w3.org/1999/xlink" version="1.1" >
<text x="0" y="0" stroke="transparent" fill="#000000" transform="matrix(0.05 0 0 0.05 47.7246 16.7959)" style="font:normal normal normal 200px 'Arial'" >
H</text>
<text x="0" y="0" stroke="transparent" fill="#000000" transform="matrix(0.05 0 0 0.05 47.7246 25.3376)" style="font:normal normal normal 200px 'Arial'" >
N</text>
<text x="0" y="0" stroke="transparent" fill="#000000" transform="matrix(0.05 0 0 0.05 72.3882 10.9373)" style="font:normal normal normal 200px 'Arial'" >
O</text>
<text x="0" y="0" stroke="transparent" fill="#000000" transform="matrix(0.05 0 0 0.05 84.8588 32.5377)" style="font:normal normal normal 200px 'Arial'" >
OH</text>
<text x="0" y="0" stroke="transparent" fill="#000000" transform="matrix(0.05 0 0 0.05 22.5007 10.9373)" style="font:normal normal normal 200px 'Arial'" >
O</text>
<text x="0" y="0" stroke="transparent" fill="#000000" transform="matrix(0.05 0 0 0.05 2.80783 32.5377)" style="font:normal normal normal 200px 'Arial'" >
HO</text>
<path stroke="transparent" fill="#000000" transform="matrix(0.05 0 0 0.05 -275 -89)" d="M 6776.13,2368.24 L 6776.13,2354.38 L 7025.54,2210.38 L 7025.54,2224.24 L 6776.13,2368.24 Z " />
<path stroke="transparent" fill="#000000" transform="matrix(0.05 0 0 0.05 -275 -89)" d="M 6993.62,2031.91 L 7005.62,2031.91 L 7005.62,2232.27 L 6993.62,2232.27 L 6993.62,2031.91 Z " />
<path stroke="transparent" fill="#000000" transform="matrix(0.05 0 0 0.05 -275 -89)" d="M 7045.46,2031.91 L 7057.46,2031.91 L 7057.46,2232.27 L 7045.46,2232.27 L 7045.46,2031.91 Z " />
<path stroke="transparent" fill="#000000" transform="matrix(0.05 0 0 0.05 -275 -89)" d="M 7187.6,2303.95 L 7181.6,2314.34 L 7025.54,2224.24 L 7025.54,2210.38 L 7187.6,2303.95 Z " />
<path stroke="transparent" fill="#000000" transform="matrix(0.05 0 0 0.05 -275 -89)" d="M 6776.13,2354.38 L 6776.13,2368.24 L 6623.04,2279.85 L 6629.04,2269.46 L 6776.13,2354.38 Z " />
<path stroke="transparent" fill="#000000" transform="matrix(0.05 0 0 0.05 -275 -89)" d="M 6277.21,2354.38 L 6277.2,2368.24 L 6027.79,2224.24 L 6027.79,2210.38 L 6277.21,2354.38 Z " />
<path stroke="transparent" fill="#000000" transform="matrix(0.05 0 0 0.05 -275 -89)" d="M 5995.87,2031.91 L 6007.87,2031.91 L 6007.87,2232.27 L 5995.87,2232.27 L 5995.87,2031.91 Z " />
<path stroke="transparent" fill="#000000" transform="matrix(0.05 0 0 0.05 -275 -89)" d="M 6047.71,2031.91 L 6059.71,2031.91 L 6059.71,2232.27 L 6047.71,2232.27 L 6047.71,2031.91 Z " />
<path stroke="transparent" fill="#000000" transform="matrix(0.05 0 0 0.05 -275 -89)" d="M 5870.78,2314.89 L 5864.78,2304.5 L 6027.79,2210.38 L 6027.79,2224.24 L 5870.78,2314.89 Z " />
<path stroke="transparent" fill="#000000" transform="matrix(0.05 0 0 0.05 -275 -89)" d="M 6277.2,2368.24 L 6277.21,2354.38 L 6424.05,2269.63 L 6430.05,2280.03 L 6277.2,2368.24 Z " />
</svg>

