<?xml version="1.0" standalone="no" ?>
<!DOCTYPE svg PUBLIC "-//W3C//DTD SVG 1.1//EN" "http://www.w3.org/Graphics/SVG/1.1/DTD/svg11.dtd">
<svg width="244px" height="118px" viewBox="0 0 244 118" style="background-color: #ffffff00" xmlns="http://www.w3.org/2000/svg" xmlns:xlink="http://www.w3.org/1999/xlink" version="1.1" >
<text x="0" y="0" stroke="transparent" fill="#000000" transform="matrix(0.0666667 0 0 0.0666667 3.18138 74.7389)" style="font:normal normal normal 200px 'Arial'" >
HO</text>
<text x="0" y="0" stroke="transparent" fill="#000000" transform="matrix(0.0666667 0 0 0.0666667 82.0923 114.739)" style="font:normal normal normal 200px 'Arial'" >
OH</text>
<text x="0" y="0" stroke="transparent" fill="#000000" transform="matrix(0.0666667 0 0 0.0666667 116.733 14.7389)" style="font:normal normal normal 200px 'Arial'" >
OH</text>
<text x="0" y="0" stroke="transparent" fill="#000000" transform="matrix(0.0666667 0 0 0.0666667 151.374 114.739)" style="font:normal normal normal 200px 'Arial'" >
OH</text>
<text x="0" y="0" stroke="transparent" fill="#000000" transform="matrix(0.0666667 0 0 0.0666667 220.656 74.7389)" style="font:normal normal normal 200px 'Arial'" >
OH</text>
<path stroke="transparent" fill="#000000" transform="matrix(0.0666667 0 0 0.0666667 -43.0667 -9.33333)" d="M 1435.77,871.536 L 1435.77,894.63 L 1013.76,1138.27 L 1003.76,1120.95 L 1435.77,871.536 Z " />
<path stroke="transparent" fill="#000000" transform="matrix(0.0666667 0 0 0.0666667 -43.0667 -9.33333)" d="M 1955.38,1171.54 L 1955.38,1183.08 L 1944.83,1188.54 L 1435.77,894.63 L 1435.77,871.536 L 1955.38,1171.54 Z " />
<path stroke="transparent" fill="#000000" transform="matrix(0.0666667 0 0 0.0666667 -43.0667 -9.33333)" d="M 2015.38,1677.92 L 1895.38,1677.92 L 1944.83,1188.54 L 1955.38,1183.08 L 1965.94,1188.54 L 2015.38,1677.92 Z " />
<path stroke="transparent" fill="#000000" transform="matrix(0.0666667 0 0 0.0666667 -43.0667 -9.33333)" d="M 2464.43,877.637 L 2475,883.083 L 2475,894.63 L 1965.94,1188.54 L 1955.38,1183.08 L 1955.38,1171.54 L 2464.43,877.637 Z " />
<path stroke="transparent" fill="#000000" transform="matrix(0.0666667 0 0 0.0666667 -43.0667 -9.33333)" d="M 2415,402.917 L 2535,402.917 L 2485.57,877.637 L 2475,883.083 L 2464.43,877.637 L 2415,402.917 Z " />
<path stroke="transparent" fill="#000000" transform="matrix(0.0666667 0 0 0.0666667 -43.0667 -9.33333)" d="M 2994.62,1171.54 L 2994.62,1194.63 L 2475,894.63 L 2475,883.083 L 2485.57,877.637 L 2994.62,1171.54 Z " />
<path stroke="transparent" fill="#000000" transform="matrix(0.0666667 0 0 0.0666667 -43.0667 -9.33333)" d="M 3054.62,1677.92 L 2934.62,1677.92 L 2936.88,1657.92 L 3052.35,1657.92 L 3054.62,1677.92 Z " />
<path stroke="transparent" fill="#000000" transform="matrix(0.0666667 0 0 0.0666667 -43.0667 -9.33333)" d="M 3047.8,1617.81 L 2941.43,1617.81 L 2943.7,1597.81 L 3045.53,1597.81 L 3047.8,1617.81 Z " />
<path stroke="transparent" fill="#000000" transform="matrix(0.0666667 0 0 0.0666667 -43.0667 -9.33333)" d="M 3040.98,1557.7 L 2948.25,1557.7 L 2950.52,1537.7 L 3038.71,1537.7 L 3040.98,1557.7 Z " />
<path stroke="transparent" fill="#000000" transform="matrix(0.0666667 0 0 0.0666667 -43.0667 -9.33333)" d="M 3034.16,1497.6 L 2955.07,1497.6 L 2957.34,1477.6 L 3031.89,1477.6 L 3034.16,1497.6 Z " />
<path stroke="transparent" fill="#000000" transform="matrix(0.0666667 0 0 0.0666667 -43.0667 -9.33333)" d="M 3027.34,1437.49 L 2961.89,1437.49 L 2964.16,1417.49 L 3025.07,1417.49 L 3027.34,1437.49 Z " />
<path stroke="transparent" fill="#000000" transform="matrix(0.0666667 0 0 0.0666667 -43.0667 -9.33333)" d="M 3020.52,1377.39 L 2968.71,1377.39 L 2970.98,1357.39 L 3018.25,1357.39 L 3020.52,1377.39 Z " />
<path stroke="transparent" fill="#000000" transform="matrix(0.0666667 0 0 0.0666667 -43.0667 -9.33333)" d="M 3013.7,1317.28 L 2975.53,1317.28 L 2977.8,1297.28 L 3011.43,1297.28 L 3013.7,1317.28 Z " />
<path stroke="transparent" fill="#000000" transform="matrix(0.0666667 0 0 0.0666667 -43.0667 -9.33333)" d="M 3006.88,1257.17 L 2982.35,1257.17 L 2984.62,1237.17 L 3004.62,1237.17 L 3006.88,1257.17 Z " />
<path stroke="transparent" fill="#000000" transform="matrix(0.0666667 0 0 0.0666667 -43.0667 -9.33333)" d="M 3514.23,871.536 L 3514.23,894.63 L 2994.62,1194.63 L 2994.62,1171.54 L 3514.23,871.536 Z " />
<path stroke="transparent" fill="#000000" transform="matrix(0.0666667 0 0 0.0666667 -43.0667 -9.33333)" d="M 3946.23,1120.95 L 3936.23,1138.27 L 3514.23,894.63 L 3514.23,871.536 L 3946.23,1120.95 Z " />
</svg>
