<?xml version="1.0" standalone="no" ?>
<!DOCTYPE svg PUBLIC "-//W3C//DTD SVG 1.1//EN" "http://www.w3.org/Graphics/SVG/1.1/DTD/svg11.dtd">
<svg width="198px" height="121px" viewBox="0 0 198 121" style="background-color: #ffffff00" xmlns="http://www.w3.org/2000/svg" xmlns:xlink="http://www.w3.org/1999/xlink" version="1.1" >
<text x="0" y="0" stroke="transparent" fill="#000000" transform="matrix(0.0666667 0 0 0.0666667 69.754 46.6899)" style="font:normal normal normal 200px 'Arial'" >
H</text>
<text x="0" y="0" stroke="transparent" fill="#000000" transform="matrix(0.0666667 0 0 0.0666667 69.754 57.8121)" style="font:normal normal normal 200px 'Arial'" >
N</text>
<text x="0" y="0" stroke="transparent" fill="#000000" transform="matrix(0.0666667 0 0 0.0666667 140.3 14.2273)" style="font:normal normal normal 200px 'Arial'" >
O</text>
<text x="0" y="0" stroke="transparent" fill="#000000" transform="matrix(0.0666667 0 0 0.0666667 174.825 74.0273)" style="font:normal normal normal 200px 'Arial'" >
OH</text>
<text x="0" y="0" stroke="transparent" fill="#000000" transform="matrix(0.0666667 0 0 0.0666667 3.02975 83.2716)" style="font:normal normal normal 200px 'Arial'" >
O</text>
<path stroke="transparent" fill="#000000" transform="matrix(0.0666667 0 0 0.0666667 -54.0667 -12.3333)" d="M 2486.32,1211.23 L 2464.91,1223.59 L 2037.26,1033.19 L 2045.39,1014.92 L 2486.32,1211.23 Z " />
<path stroke="transparent" fill="#000000" transform="matrix(0.0666667 0 0 0.0666667 -54.0667 -12.3333)" d="M 2916.73,893.448 L 2976.73,997.371 L 2958.39,1005.6 L 2900.43,905.216 L 2916.73,893.448 Z " />
<path stroke="transparent" fill="#000000" transform="matrix(0.0666667 0 0 0.0666667 -54.0667 -12.3333)" d="M 2868.85,928.015 L 2922.85,1021.55 L 2904.51,1029.79 L 2852.55,939.782 L 2868.85,928.015 Z " />
<path stroke="transparent" fill="#000000" transform="matrix(0.0666667 0 0 0.0666667 -54.0667 -12.3333)" d="M 2820.97,962.582 L 2868.98,1045.74 L 2850.63,1053.97 L 2804.67,974.349 L 2820.97,962.582 Z " />
<path stroke="transparent" fill="#000000" transform="matrix(0.0666667 0 0 0.0666667 -54.0667 -12.3333)" d="M 2773.08,997.148 L 2815.1,1069.92 L 2796.76,1078.15 L 2756.78,1008.92 L 2773.08,997.148 Z " />
<path stroke="transparent" fill="#000000" transform="matrix(0.0666667 0 0 0.0666667 -54.0667 -12.3333)" d="M 2725.2,1031.72 L 2761.22,1094.1 L 2742.88,1102.34 L 2708.9,1043.48 L 2725.2,1031.72 Z " />
<path stroke="transparent" fill="#000000" transform="matrix(0.0666667 0 0 0.0666667 -54.0667 -12.3333)" d="M 2677.32,1066.28 L 2707.35,1118.29 L 2689.01,1126.52 L 2661.02,1078.05 L 2677.32,1066.28 Z " />
<path stroke="transparent" fill="#000000" transform="matrix(0.0666667 0 0 0.0666667 -54.0667 -12.3333)" d="M 2629.44,1100.85 L 2653.47,1142.47 L 2635.13,1150.7 L 2613.14,1112.62 L 2629.44,1100.85 Z " />
<path stroke="transparent" fill="#000000" transform="matrix(0.0666667 0 0 0.0666667 -54.0667 -12.3333)" d="M 2581.56,1135.42 L 2599.59,1166.65 L 2581.25,1174.89 L 2565.26,1147.18 L 2581.56,1135.42 Z " />
<path stroke="transparent" fill="#000000" transform="matrix(0.0666667 0 0 0.0666667 -54.0667 -12.3333)" d="M 2533.68,1169.98 L 2545.72,1190.84 L 2527.38,1199.07 L 2517.38,1181.75 L 2533.68,1169.98 Z " />
<path stroke="transparent" fill="#000000" transform="matrix(0.0666667 0 0 0.0666667 -54.0667 -12.3333)" d="M 2422.29,1820.4 L 2403.92,1803.86 L 2464.91,1223.59 L 2486.32,1211.23 L 2422.29,1820.4 Z " />
<path stroke="transparent" fill="#000000" transform="matrix(0.0666667 0 0 0.0666667 -54.0667 -12.3333)" d="M 1823.14,1947.76 L 1833.2,1925.17 L 2403.92,1803.86 L 2422.29,1820.4 L 1823.14,1947.76 Z " />
<path stroke="transparent" fill="#000000" transform="matrix(0.0666667 0 0 0.0666667 -54.0667 -12.3333)" d="M 1516.88,1417.29 L 1541.46,1419.87 L 1833.2,1925.17 L 1823.14,1947.76 L 1516.88,1417.29 Z " />
<path stroke="transparent" fill="#000000" transform="matrix(0.0666667 0 0 0.0666667 -54.0667 -12.3333)" d="M 1541.46,1419.87 L 1516.88,1417.29 L 1831.59,1067.77 L 1846.45,1081.15 L 1541.46,1419.87 Z " />
<path stroke="transparent" fill="#000000" transform="matrix(0.0666667 0 0 0.0666667 -54.0667 -12.3333)" d="M 2947.61,440.243 L 2967.61,440.243 L 2967.61,939.125 L 2947.61,939.125 L 2947.61,440.243 Z " />
<path stroke="transparent" fill="#000000" transform="matrix(0.0666667 0 0 0.0666667 -54.0667 -12.3333)" d="M 3019.37,440.243 L 3039.37,440.243 L 3039.37,939.125 L 3019.37,939.125 L 3019.37,440.243 Z " />
<path stroke="transparent" fill="#000000" transform="matrix(0.0666667 0 0 0.0666667 -54.0667 -12.3333)" d="M 3423.76,1155.28 L 3413.76,1172.6 L 2988.49,927.07 L 2998.49,909.749 L 3423.76,1155.28 Z " />
<path stroke="transparent" fill="#000000" transform="matrix(0.0666667 0 0 0.0666667 -54.0667 -12.3333)" d="M 1036.69,1412.95 L 1038.78,1393.06 L 1552.39,1447.04 L 1550.3,1466.94 L 1036.69,1412.95 Z " />
<path stroke="transparent" fill="#000000" transform="matrix(0.0666667 0 0 0.0666667 -54.0667 -12.3333)" d="M 1044.19,1341.59 L 1046.28,1321.7 L 1559.89,1375.68 L 1557.8,1395.57 L 1044.19,1341.59 Z " />
</svg>
