<?xml version="1.0" standalone="no" ?>
<!DOCTYPE svg PUBLIC "-//W3C//DTD SVG 1.1//EN" "http://www.w3.org/Graphics/SVG/1.1/DTD/svg11.dtd">
<svg width="228px" height="121px" viewBox="0 0 228 121" style="background-color: #ffffffff" xmlns="http://www.w3.org/2000/svg" xmlns:xlink="http://www.w3.org/1999/xlink" version="1.1" >
<text x="0" y="0" stroke="transparent" fill="#000000" transform="matrix(0.05 0 0 0.05 125.514 114.51)" style="font:normal normal normal 503.4px 'Arial'" >
NH</text>
<text x="0" y="0" stroke="transparent" fill="#000000" transform="matrix(0.05 0 0 0.05 161.868 118.565)" style="font:normal normal normal 377.55px 'Arial'" >
2</text>
<text x="0" y="0" stroke="transparent" fill="#000000" transform="matrix(0.05 0 0 0.05 62.0361 114.51)" style="font:normal normal normal 503.4px 'Arial'" >
O</text>
<text x="0" y="0" stroke="transparent" fill="#000000" transform="matrix(0.05 0 0 0.05 2.6722 60.1417)" style="font:normal normal normal 503.4px 'Arial'" >
H</text>
<text x="0" y="0" stroke="transparent" fill="#000000" transform="matrix(0.05 0 0 0.05 20.8492 64.1969)" style="font:normal normal normal 377.55px 'Arial'" >
2</text>
<text x="0" y="0" stroke="transparent" fill="#000000" transform="matrix(0.05 0 0 0.05 31.3479 60.1417)" style="font:normal normal normal 503.4px 'Arial'" >
N</text>
<text x="0" y="0" stroke="transparent" fill="#000000" transform="matrix(0.05 0 0 0.05 156.202 23.8961)" style="font:normal normal normal 503.4px 'Arial'" >
O</text>
<text x="0" y="0" stroke="transparent" fill="#000000" transform="matrix(0.05 0 0 0.05 187.591 78.2645)" style="font:normal normal normal 503.4px 'Arial'" >
OH</text>
<path stroke="transparent" fill="#000000" transform="matrix(0.05 0 0 0.05 -294 -90)" d="M 8647.56,3648.66 L 8496.54,3648.66 L 8555.88,3198.6 L 8572.05,3190.5 L 8588.22,3198.6 L 8647.56,3648.66 Z " />
<path stroke="transparent" fill="#000000" transform="matrix(0.05 0 0 0.05 -294 -90)" d="M 8588.22,3198.6 L 8572.05,3190.5 L 8572.05,3173.06 L 9199.82,2810.6 L 9199.82,2845.48 L 8588.22,3198.6 Z " />
<path stroke="transparent" fill="#000000" transform="matrix(0.05 0 0 0.05 -294 -90)" d="M 7944.27,2845.48 L 7944.27,2810.6 L 8572.05,3173.06 L 8572.05,3190.5 L 8555.88,3198.6 L 7944.27,2845.48 Z " />
<path stroke="transparent" fill="#000000" transform="matrix(0.05 0 0 0.05 -294 -90)" d="M 7316.5,3207.94 L 7316.5,3173.06 L 7944.27,2810.6 L 7944.27,2845.48 L 7316.5,3207.94 Z " />
<path stroke="transparent" fill="#000000" transform="matrix(0.05 0 0 0.05 -294 -90)" d="M 7396.85,3642.66 L 7366.64,3642.66 L 7366.64,3152.83 L 7396.85,3152.83 L 7396.85,3642.66 Z " />
<path stroke="transparent" fill="#000000" transform="matrix(0.05 0 0 0.05 -294 -90)" d="M 7266.36,3642.66 L 7236.16,3642.66 L 7236.16,3152.83 L 7266.36,3152.83 L 7266.36,3642.66 Z " />
<path stroke="transparent" fill="#000000" transform="matrix(0.05 0 0 0.05 -294 -90)" d="M 6930.97,2985.34 L 6946.07,2959.19 L 7316.5,3173.06 L 7316.5,3207.94 L 6930.97,2985.34 Z " />
<path stroke="transparent" fill="#000000" transform="matrix(0.05 0 0 0.05 -294 -90)" d="M 9119.48,2364.47 L 9149.68,2364.47 L 9149.68,2865.71 L 9119.48,2865.71 L 9119.48,2364.47 Z " />
<path stroke="transparent" fill="#000000" transform="matrix(0.05 0 0 0.05 -294 -90)" d="M 9249.96,2364.47 L 9280.17,2364.47 L 9280.17,2865.71 L 9249.96,2865.71 L 9249.96,2364.47 Z " />
<path stroke="transparent" fill="#000000" transform="matrix(0.05 0 0 0.05 -294 -90)" d="M 9607.04,3045.72 L 9591.94,3071.88 L 9199.82,2845.48 L 9199.82,2810.6 L 9607.04,3045.72 Z " />
</svg>
