<?xml version="1.0" standalone="no" ?>
<!DOCTYPE svg PUBLIC "-//W3C//DTD SVG 1.1//EN" "http://www.w3.org/Graphics/SVG/1.1/DTD/svg11.dtd">
<svg width="354px" height="120px" viewBox="0 0 354 120" style="background-color: #ffffff00" xmlns="http://www.w3.org/2000/svg" xmlns:xlink="http://www.w3.org/1999/xlink" version="1.1" >
<text x="0" y="0" stroke="transparent" fill="#000000" transform="matrix(0.0666667 0 0 0.0666667 137.492 114.339)" style="font:normal normal normal 200px 'Arial'" >
NH</text>
<text x="0" y="0" stroke="transparent" fill="#000000" transform="matrix(0.0666667 0 0 0.0666667 156.75 117.272)" style="font:normal normal normal 150px 'Arial'" >
2</text>
<text x="0" y="0" stroke="transparent" fill="#000000" transform="matrix(0.0666667 0 0 0.0666667 241.015 14.3389)" style="font:normal normal normal 200px 'Arial'" >
O</text>
<text x="0" y="0" stroke="transparent" fill="#000000" transform="matrix(0.0666667 0 0 0.0666667 275.656 74.3389)" style="font:normal normal normal 200px 'Arial'" >
O</text>
<text x="0" y="0" stroke="transparent" fill="#000000" transform="matrix(0.0666667 0 0 0.0666667 102.451 14.3389)" style="font:normal normal normal 200px 'Arial'" >
O</text>
<text x="0" y="0" stroke="transparent" fill="#000000" transform="matrix(0.0666667 0 0 0.0666667 67.8103 74.3389)" style="font:normal normal normal 200px 'Arial'" >
O</text>
<text x="0" y="0" stroke="transparent" fill="#000000" transform="matrix(0.0666667 0 0 0.0666667 309.57 54.3389)" style="font:normal normal normal 200px 'Arial'" >
Si</text>
<text x="0" y="0" stroke="transparent" fill="#000000" transform="matrix(0.0666667 0 0 0.0666667 32.4415 54.3389)" style="font:normal normal normal 200px 'Arial'" >
Si</text>
<path stroke="transparent" fill="#000000" transform="matrix(0.0666667 0 0 0.0666667 -25.0667 -15.3333)" d="M 2570.38,1764.25 L 2450.38,1764.25 L 2452.64,1744.25 L 2568.13,1744.25 L 2570.38,1764.25 Z " />
<path stroke="transparent" fill="#000000" transform="matrix(0.0666667 0 0 0.0666667 -25.0667 -15.3333)" d="M 2563.56,1703.8 L 2457.21,1703.8 L 2459.46,1683.8 L 2561.31,1683.8 L 2563.56,1703.8 Z " />
<path stroke="transparent" fill="#000000" transform="matrix(0.0666667 0 0 0.0666667 -25.0667 -15.3333)" d="M 2556.74,1643.35 L 2464.03,1643.35 L 2466.28,1623.35 L 2554.49,1623.35 L 2556.74,1643.35 Z " />
<path stroke="transparent" fill="#000000" transform="matrix(0.0666667 0 0 0.0666667 -25.0667 -15.3333)" d="M 2549.92,1582.9 L 2470.85,1582.9 L 2473.1,1562.9 L 2547.67,1562.9 L 2549.92,1582.9 Z " />
<path stroke="transparent" fill="#000000" transform="matrix(0.0666667 0 0 0.0666667 -25.0667 -15.3333)" d="M 2543.1,1522.45 L 2477.67,1522.45 L 2479.92,1502.45 L 2540.85,1502.45 L 2543.1,1522.45 Z " />
<path stroke="transparent" fill="#000000" transform="matrix(0.0666667 0 0 0.0666667 -25.0667 -15.3333)" d="M 2536.28,1462 L 2484.49,1462 L 2486.74,1442 L 2534.03,1442 L 2536.28,1462 Z " />
<path stroke="transparent" fill="#000000" transform="matrix(0.0666667 0 0 0.0666667 -25.0667 -15.3333)" d="M 2529.46,1401.55 L 2491.31,1401.55 L 2493.56,1381.55 L 2527.21,1381.55 L 2529.46,1401.55 Z " />
<path stroke="transparent" fill="#000000" transform="matrix(0.0666667 0 0 0.0666667 -25.0667 -15.3333)" d="M 2522.64,1341.1 L 2498.13,1341.1 L 2500.38,1321.1 L 2520.38,1321.1 L 2522.64,1341.1 Z " />
<path stroke="transparent" fill="#000000" transform="matrix(0.0666667 0 0 0.0666667 -25.0667 -15.3333)" d="M 2510.38,1255.54 L 2510.38,1278.63 L 1990.77,978.63 L 1990.77,955.536 L 2510.38,1255.54 Z " />
<path stroke="transparent" fill="#000000" transform="matrix(0.0666667 0 0 0.0666667 -25.0667 -15.3333)" d="M 3030,955.536 L 3030,978.63 L 2510.38,1278.63 L 2510.38,1255.54 L 3030,955.536 Z " />
<path stroke="transparent" fill="#000000" transform="matrix(0.0666667 0 0 0.0666667 -25.0667 -15.3333)" d="M 3549.62,1255.54 L 3549.62,1278.63 L 3030,978.63 L 3030,955.536 L 3549.62,1255.54 Z " />
<path stroke="transparent" fill="#000000" transform="matrix(0.0666667 0 0 0.0666667 -25.0667 -15.3333)" d="M 4069.23,955.536 L 4069.23,978.63 L 3549.62,1278.63 L 3549.62,1255.54 L 4069.23,955.536 Z " />
<path stroke="transparent" fill="#000000" transform="matrix(0.0666667 0 0 0.0666667 -25.0667 -15.3333)" d="M 4023.23,486.917 L 4043.23,486.917 L 4043.23,987.868 L 4023.23,987.868 L 4023.23,486.917 Z " />
<path stroke="transparent" fill="#000000" transform="matrix(0.0666667 0 0 0.0666667 -25.0667 -15.3333)" d="M 4095.23,486.917 L 4115.23,486.917 L 4115.23,987.868 L 4095.23,987.868 L 4095.23,486.917 Z " />
<path stroke="transparent" fill="#000000" transform="matrix(0.0666667 0 0 0.0666667 -25.0667 -15.3333)" d="M 4501.23,1204.95 L 4491.23,1222.27 L 4069.23,978.63 L 4069.23,955.536 L 4501.23,1204.95 Z " />
<path stroke="transparent" fill="#000000" transform="matrix(0.0666667 0 0 0.0666667 -25.0667 -15.3333)" d="M 1944.77,486.917 L 1964.77,486.917 L 1964.77,987.868 L 1944.77,987.868 L 1944.77,486.917 Z " />
<path stroke="transparent" fill="#000000" transform="matrix(0.0666667 0 0 0.0666667 -25.0667 -15.3333)" d="M 2016.77,486.917 L 2036.77,486.917 L 2036.77,987.868 L 2016.77,987.868 L 2016.77,486.917 Z " />
<path stroke="transparent" fill="#000000" transform="matrix(0.0666667 0 0 0.0666667 -25.0667 -15.3333)" d="M 1568.77,1222.27 L 1558.77,1204.95 L 1990.77,955.536 L 1990.77,978.63 L 1568.77,1222.27 Z " />
<path stroke="transparent" fill="#000000" transform="matrix(0.0666667 0 0 0.0666667 -25.0667 -15.3333)" d="M 5623.08,658.423 L 5633.08,675.744 L 5231.69,907.481 L 5221.69,890.161 L 5623.08,658.423 Z " />
<path stroke="transparent" fill="#000000" transform="matrix(0.0666667 0 0 0.0666667 -25.0667 -15.3333)" d="M 5098.46,367.083 L 5118.46,367.083 L 5118.46,862.083 L 5098.46,862.083 L 5098.46,367.083 Z " />
<path stroke="transparent" fill="#000000" transform="matrix(0.0666667 0 0 0.0666667 -25.0667 -15.3333)" d="M 5633.08,1258.42 L 5623.08,1275.74 L 5229.06,1048.26 L 5239.06,1030.94 L 5633.08,1258.42 Z " />
<path stroke="transparent" fill="#000000" transform="matrix(0.0666667 0 0 0.0666667 -25.0667 -15.3333)" d="M 4989.02,1024.5 L 4999.02,1041.82 L 4686.46,1222.27 L 4676.46,1204.95 L 4989.02,1024.5 Z " />
<path stroke="transparent" fill="#000000" transform="matrix(0.0666667 0 0 0.0666667 -25.0667 -15.3333)" d="M 436.924,1275.74 L 426.924,1258.42 L 832.096,1024.5 L 842.096,1041.82 L 436.924,1275.74 Z " />
<path stroke="transparent" fill="#000000" transform="matrix(0.0666667 0 0 0.0666667 -25.0667 -15.3333)" d="M 941.539,367.083 L 961.539,367.083 L 961.539,862.083 L 941.539,862.083 L 941.539,367.083 Z " />
<path stroke="transparent" fill="#000000" transform="matrix(0.0666667 0 0 0.0666667 -25.0667 -15.3333)" d="M 426.924,675.744 L 436.924,658.423 L 850.725,897.332 L 840.725,914.652 L 426.924,675.744 Z " />
<path stroke="transparent" fill="#000000" transform="matrix(0.0666667 0 0 0.0666667 -25.0667 -15.3333)" d="M 1072.13,1048.26 L 1082.13,1030.94 L 1383.54,1204.95 L 1373.54,1222.27 L 1072.13,1048.26 Z " />
</svg>
