<?xml version="1.0" standalone="no" ?>
<!DOCTYPE svg PUBLIC "-//W3C//DTD SVG 1.1//EN" "http://www.w3.org/Graphics/SVG/1.1/DTD/svg11.dtd">
<svg width="230px" height="133px" viewBox="0 0 230 133" style="background-color: #ffffff00" xmlns="http://www.w3.org/2000/svg" xmlns:xlink="http://www.w3.org/1999/xlink" version="1.1" >
<text x="0" y="0" stroke="transparent" fill="#000000" transform="matrix(0.0666667 0 0 0.0666667 137.693 114.021)" style="font:normal normal normal 200px 'Arial'" >
NH</text>
<text x="0" y="0" stroke="transparent" fill="#000000" transform="matrix(0.0666667 0 0 0.0666667 156.951 116.954)" style="font:normal normal normal 150px 'Arial'" >
2</text>
<text x="0" y="0" stroke="transparent" fill="#000000" transform="matrix(0.0666667 0 0 0.0666667 171.934 14.0207)" style="font:normal normal normal 200px 'Arial'" >
O</text>
<text x="0" y="0" stroke="transparent" fill="#000000" transform="matrix(0.0666667 0 0 0.0666667 206.575 74.0207)" style="font:normal normal normal 200px 'Arial'" >
OH</text>
<path stroke="transparent" fill="#000000" transform="matrix(0.0666667 0 0 0.0666667 -30.0667 -6.33333)" d="M 2648.4,1624.48 L 2528.4,1624.48 L 2577.85,1132.77 L 2588.4,1127.31 L 2598.95,1132.77 L 2648.4,1624.48 Z " />
<path stroke="transparent" fill="#000000" transform="matrix(0.0666667 0 0 0.0666667 -30.0667 -6.33333)" d="M 2598.95,1132.77 L 2588.4,1127.31 L 2588.4,1115.76 L 3108.01,815.763 L 3108.01,838.857 L 2598.95,1132.77 Z " />
<path stroke="transparent" fill="#000000" transform="matrix(0.0666667 0 0 0.0666667 -30.0667 -6.33333)" d="M 2068.78,838.857 L 2068.78,815.763 L 2588.4,1115.76 L 2588.4,1127.31 L 2577.85,1132.77 L 2068.78,838.857 Z " />
<path stroke="transparent" fill="#000000" transform="matrix(0.0666667 0 0 0.0666667 -30.0667 -6.33333)" d="M 1559.17,1133.08 L 1549.17,1127.31 L 1549.17,1115.76 L 2068.78,815.763 L 2068.78,838.857 L 1559.17,1133.08 Z " />
<path stroke="transparent" fill="#000000" transform="matrix(0.0666667 0 0 0.0666667 -30.0667 -6.33333)" d="M 1559.17,1733.08 L 1539.17,1721.54 L 1539.17,1133.08 L 1549.17,1127.31 L 1559.17,1133.08 L 1559.17,1733.08 Z " />
<path stroke="transparent" fill="#000000" transform="matrix(0.0666667 0 0 0.0666667 -30.0667 -6.33333)" d="M 1029.55,2038.86 L 1029.55,2015.76 L 1539.17,1721.54 L 1559.17,1733.08 L 1029.55,2038.86 Z " />
<path stroke="transparent" fill="#000000" transform="matrix(0.0666667 0 0 0.0666667 -30.0667 -6.33333)" d="M 1034.55,1952.83 L 1024.55,1935.51 L 1472.17,1677.08 L 1482.17,1694.4 L 1034.55,1952.83 Z " />
<path stroke="transparent" fill="#000000" transform="matrix(0.0666667 0 0 0.0666667 -30.0667 -6.33333)" d="M 499.937,1733.08 L 519.937,1721.54 L 1029.55,2015.76 L 1029.55,2038.86 L 499.937,1733.08 Z " />
<path stroke="transparent" fill="#000000" transform="matrix(0.0666667 0 0 0.0666667 -30.0667 -6.33333)" d="M 499.937,1121.54 L 519.937,1133.08 L 519.937,1721.54 L 499.937,1733.08 L 499.937,1121.54 Z " />
<path stroke="transparent" fill="#000000" transform="matrix(0.0666667 0 0 0.0666667 -30.0667 -6.33333)" d="M 571.937,1168.88 L 591.937,1168.88 L 591.937,1685.74 L 571.937,1685.74 L 571.937,1168.88 Z " />
<path stroke="transparent" fill="#000000" transform="matrix(0.0666667 0 0 0.0666667 -30.0667 -6.33333)" d="M 1029.55,815.763 L 1029.55,838.857 L 519.937,1133.08 L 499.937,1121.54 L 1029.55,815.763 Z " />
<path stroke="transparent" fill="#000000" transform="matrix(0.0666667 0 0 0.0666667 -30.0667 -6.33333)" d="M 1029.55,838.857 L 1029.55,815.763 L 1549.17,1115.76 L 1549.17,1127.31 L 1539.17,1133.08 L 1029.55,838.857 Z " />
<path stroke="transparent" fill="#000000" transform="matrix(0.0666667 0 0 0.0666667 -30.0667 -6.33333)" d="M 1024.55,919.109 L 1034.55,901.788 L 1482.17,1160.22 L 1472.17,1177.54 L 1024.55,919.109 Z " />
<path stroke="transparent" fill="#000000" transform="matrix(0.0666667 0 0 0.0666667 -30.0667 -6.33333)" d="M 3062.01,347.143 L 3082.01,347.143 L 3082.01,848.094 L 3062.01,848.094 L 3062.01,347.143 Z " />
<path stroke="transparent" fill="#000000" transform="matrix(0.0666667 0 0 0.0666667 -30.0667 -6.33333)" d="M 3134.01,347.143 L 3154.01,347.143 L 3154.01,848.094 L 3134.01,848.094 L 3134.01,347.143 Z " />
<path stroke="transparent" fill="#000000" transform="matrix(0.0666667 0 0 0.0666667 -30.0667 -6.33333)" d="M 3540.01,1065.18 L 3530.01,1082.5 L 3108.01,838.857 L 3108.01,815.763 L 3540.01,1065.18 Z " />
</svg>
