<?xml version="1.0" standalone="no" ?>
<!DOCTYPE svg PUBLIC "-//W3C//DTD SVG 1.1//EN" "http://www.w3.org/Graphics/SVG/1.1/DTD/svg11.dtd">
<svg width="154px" height="121px" viewBox="0 0 154 121" style="background-color: #ffffff00" xmlns="http://www.w3.org/2000/svg" xmlns:xlink="http://www.w3.org/1999/xlink" version="1.1" >
<text x="0" y="0" stroke="transparent" fill="#000000" transform="matrix(0.0666667 0 0 0.0666667 57.96 114.361)" style="font:normal normal normal 200px 'Arial'" >
NH</text>
<text x="0" y="0" stroke="transparent" fill="#000000" transform="matrix(0.0666667 0 0 0.0666667 96.3822 14.5805)" style="font:normal normal normal 200px 'Arial'" >
O</text>
<text x="0" y="0" stroke="transparent" fill="#000000" transform="matrix(0.0666667 0 0 0.0666667 131.023 74.5805)" style="font:normal normal normal 200px 'Arial'" >
OH</text>
<path stroke="transparent" fill="#000000" transform="matrix(0.0666667 0 0 0.0666667 -30.0667 -15.7333)" d="M 1444.41,1282.89 L 1455.12,1276.71 L 1464.48,1283.31 L 1413.06,1772.54 L 1393.17,1770.45 L 1444.41,1282.89 Z " />
<path stroke="transparent" fill="#000000" transform="matrix(0.0666667 0 0 0.0666667 -30.0667 -15.7333)" d="M 1926.57,937.353 L 2026.75,1018.29 L 1464.48,1283.31 L 1455.12,1276.71 L 1454.08,1265.3 L 1926.57,937.353 Z " />
<path stroke="transparent" fill="#000000" transform="matrix(0.0666667 0 0 0.0666667 -30.0667 -15.7333)" d="M 909.56,1044.76 L 904.42,1020.57 L 1454.08,1265.3 L 1455.12,1276.71 L 1444.41,1282.89 L 909.56,1044.76 Z " />
<path stroke="transparent" fill="#000000" transform="matrix(0.0666667 0 0 0.0666667 -30.0667 -15.7333)" d="M 517.805,1479.84 L 493.219,1477.26 L 904.42,1020.57 L 909.56,1044.76 L 517.805,1479.84 Z " />
<path stroke="transparent" fill="#000000" transform="matrix(0.0666667 0 0 0.0666667 -30.0667 -15.7333)" d="M 810.539,1986.88 L 800.484,2009.46 L 493.219,1477.26 L 517.805,1479.84 L 810.539,1986.88 Z " />
<path stroke="transparent" fill="#000000" transform="matrix(0.0666667 0 0 0.0666667 -30.0667 -15.7333)" d="M 800.484,2009.46 L 810.539,1986.88 L 1284.97,1886.03 L 1289.13,1905.59 L 800.484,2009.46 Z " />
<path stroke="transparent" fill="#000000" transform="matrix(0.0666667 0 0 0.0666667 -30.0667 -15.7333)" d="M 1928.73,496.541 L 1948.73,496.541 L 1948.73,997.492 L 1928.73,997.492 L 1928.73,496.541 Z " />
<path stroke="transparent" fill="#000000" transform="matrix(0.0666667 0 0 0.0666667 -30.0667 -15.7333)" d="M 2000.73,496.541 L 2020.73,496.541 L 2020.73,997.492 L 2000.73,997.492 L 2000.73,496.541 Z " />
<path stroke="transparent" fill="#000000" transform="matrix(0.0666667 0 0 0.0666667 -30.0667 -15.7333)" d="M 2406.73,1214.57 L 2396.73,1231.89 L 2026.75,1018.29 L 1926.57,937.353 L 2406.73,1214.57 Z " />
</svg>
