<?xml version="1.0" standalone="no" ?>
<!DOCTYPE svg PUBLIC "-//W3C//DTD SVG 1.1//EN" "http://www.w3.org/Graphics/SVG/1.1/DTD/svg11.dtd">
<svg width="278px" height="138px" viewBox="0 0 278 138" style="background-color: #ffffff00" xmlns="http://www.w3.org/2000/svg" xmlns:xlink="http://www.w3.org/1999/xlink" version="1.1" >
<text x="0" y="0" stroke="transparent" fill="#000000" transform="matrix(0.0666667 0 0 0.0666667 186.095 114.739)" style="font:normal normal normal 200px 'Arial'" >
NH</text>
<text x="0" y="0" stroke="transparent" fill="#000000" transform="matrix(0.0666667 0 0 0.0666667 205.353 117.672)" style="font:normal normal normal 150px 'Arial'" >
2</text>
<text x="0" y="0" stroke="transparent" fill="#000000" transform="matrix(0.0666667 0 0 0.0666667 2.86087 134.739)" style="font:normal normal normal 200px 'Arial'" >
HO</text>
<text x="0" y="0" stroke="transparent" fill="#000000" transform="matrix(0.0666667 0 0 0.0666667 220.336 14.7389)" style="font:normal normal normal 200px 'Arial'" >
O</text>
<text x="0" y="0" stroke="transparent" fill="#000000" transform="matrix(0.0666667 0 0 0.0666667 254.977 74.7389)" style="font:normal normal normal 200px 'Arial'" >
OH</text>
<path stroke="transparent" fill="#000000" transform="matrix(0.0666667 0 0 0.0666667 -20.0667 -3.33333)" d="M 3224.42,1590.25 L 3104.42,1590.25 L 3153.87,1098.54 L 3164.42,1093.08 L 3174.97,1098.54 L 3224.42,1590.25 Z " />
<path stroke="transparent" fill="#000000" transform="matrix(0.0666667 0 0 0.0666667 -20.0667 -3.33333)" d="M 3174.97,1098.54 L 3164.42,1093.08 L 3164.42,1081.54 L 3684.04,781.536 L 3684.04,804.63 L 3174.97,1098.54 Z " />
<path stroke="transparent" fill="#000000" transform="matrix(0.0666667 0 0 0.0666667 -20.0667 -3.33333)" d="M 2644.81,804.63 L 2644.81,781.536 L 3164.42,1081.54 L 3164.42,1093.08 L 3153.87,1098.54 L 2644.81,804.63 Z " />
<path stroke="transparent" fill="#000000" transform="matrix(0.0666667 0 0 0.0666667 -20.0667 -3.33333)" d="M 2135.19,1098.86 L 2125.19,1093.08 L 2125.19,1081.54 L 2644.81,781.536 L 2644.81,804.63 L 2135.19,1098.86 Z " />
<path stroke="transparent" fill="#000000" transform="matrix(0.0666667 0 0 0.0666667 -20.0667 -3.33333)" d="M 2135.19,1698.86 L 2115.19,1687.31 L 2115.19,1098.86 L 2125.19,1093.08 L 2135.19,1098.86 L 2135.19,1698.86 Z " />
<path stroke="transparent" fill="#000000" transform="matrix(0.0666667 0 0 0.0666667 -20.0667 -3.33333)" d="M 1605.58,2004.63 L 1605.58,1981.54 L 2115.19,1687.31 L 2135.19,1698.86 L 1605.58,2004.63 Z " />
<path stroke="transparent" fill="#000000" transform="matrix(0.0666667 0 0 0.0666667 -20.0667 -3.33333)" d="M 1610.58,1918.61 L 1600.58,1901.28 L 2048.19,1642.85 L 2058.19,1660.17 L 1610.58,1918.61 Z " />
<path stroke="transparent" fill="#000000" transform="matrix(0.0666667 0 0 0.0666667 -20.0667 -3.33333)" d="M 1085.96,1704.63 L 1085.96,1693.08 L 1095.96,1687.31 L 1605.58,1981.54 L 1605.58,2004.63 L 1085.96,1704.63 Z " />
<path stroke="transparent" fill="#000000" transform="matrix(0.0666667 0 0 0.0666667 -20.0667 -3.33333)" d="M 663.957,1948.27 L 653.957,1930.95 L 1075.96,1687.31 L 1085.96,1693.08 L 1085.96,1704.63 L 663.957,1948.27 Z " />
<path stroke="transparent" fill="#000000" transform="matrix(0.0666667 0 0 0.0666667 -20.0667 -3.33333)" d="M 1075.96,1087.31 L 1095.96,1098.86 L 1095.96,1687.31 L 1085.96,1693.08 L 1075.96,1687.31 L 1075.96,1087.31 Z " />
<path stroke="transparent" fill="#000000" transform="matrix(0.0666667 0 0 0.0666667 -20.0667 -3.33333)" d="M 1147.96,1134.65 L 1167.96,1134.65 L 1167.96,1651.51 L 1147.96,1651.51 L 1147.96,1134.65 Z " />
<path stroke="transparent" fill="#000000" transform="matrix(0.0666667 0 0 0.0666667 -20.0667 -3.33333)" d="M 1605.58,781.536 L 1605.58,804.63 L 1095.96,1098.86 L 1075.96,1087.31 L 1605.58,781.536 Z " />
<path stroke="transparent" fill="#000000" transform="matrix(0.0666667 0 0 0.0666667 -20.0667 -3.33333)" d="M 1605.58,804.63 L 1605.58,781.536 L 2125.19,1081.54 L 2125.19,1093.08 L 2115.19,1098.86 L 1605.58,804.63 Z " />
<path stroke="transparent" fill="#000000" transform="matrix(0.0666667 0 0 0.0666667 -20.0667 -3.33333)" d="M 1600.58,884.882 L 1610.58,867.562 L 2058.19,1125.99 L 2048.19,1143.31 L 1600.58,884.882 Z " />
<path stroke="transparent" fill="#000000" transform="matrix(0.0666667 0 0 0.0666667 -20.0667 -3.33333)" d="M 3638.04,312.917 L 3658.04,312.917 L 3658.04,813.868 L 3638.04,813.868 L 3638.04,312.917 Z " />
<path stroke="transparent" fill="#000000" transform="matrix(0.0666667 0 0 0.0666667 -20.0667 -3.33333)" d="M 3710.04,312.917 L 3730.04,312.917 L 3730.04,813.868 L 3710.04,813.868 L 3710.04,312.917 Z " />
<path stroke="transparent" fill="#000000" transform="matrix(0.0666667 0 0 0.0666667 -20.0667 -3.33333)" d="M 4116.03,1030.95 L 4106.03,1048.27 L 3684.04,804.63 L 3684.04,781.536 L 4116.03,1030.95 Z " />
</svg>
