<?xml version="1.0" standalone="no" ?>
<!DOCTYPE svg PUBLIC "-//W3C//DTD SVG 1.1//EN" "http://www.w3.org/Graphics/SVG/1.1/DTD/svg11.dtd">
<svg width="175px" height="171px" viewBox="0 0 175 171" style="background-color: #ffffffff" xmlns="http://www.w3.org/2000/svg" xmlns:xlink="http://www.w3.org/1999/xlink" version="1.1" >
<text x="0" y="0" stroke="transparent" fill="#000000" transform="matrix(0.05 0 0 0.05 24.6374 130.483)" style="font:normal normal normal 350.8px 'Arial'" >
HO</text>
<text x="0" y="0" stroke="transparent" fill="#000000" transform="matrix(0.05 0 0 0.05 81.0513 105.225)" style="font:normal normal normal 350.8px 'Arial'" >
O</text>
<text x="0" y="0" stroke="transparent" fill="#000000" transform="matrix(0.05 0 0 0.05 102.933 67.3376)" style="font:normal normal normal 350.8px 'Arial'" >
O</text>
<text x="0" y="0" stroke="transparent" fill="#000000" transform="matrix(0.05 0 0 0.05 59.1778 92.5957)" style="font:normal normal normal 350.8px 'Arial'" >
OH</text>
<text x="0" y="0" stroke="transparent" fill="#000000" transform="matrix(0.05 0 0 0.05 2.76386 67.3376)" style="font:normal normal normal 350.8px 'Arial'" >
HO</text>
<text x="0" y="0" stroke="transparent" fill="#000000" transform="matrix(0.05 0 0 0.05 2.76386 16.8213)" style="font:normal normal normal 350.8px 'Arial'" >
HO</text>
<text x="0" y="0" stroke="transparent" fill="#000000" transform="matrix(0.05 0 0 0.05 59.1778 16.8213)" style="font:normal normal normal 350.8px 'Arial'" >
O</text>
<text x="0" y="0" stroke="transparent" fill="#000000" transform="matrix(0.05 0 0 0.05 124.807 29.4504)" style="font:normal normal normal 350.8px 'Arial'" >
OH</text>
<text x="0" y="0" stroke="transparent" fill="#000000" transform="matrix(0.05 0 0 0.05 146.68 92.5957)" style="font:normal normal normal 350.8px 'Arial'" >
OH</text>
<text x="0" y="0" stroke="transparent" fill="#000000" transform="matrix(0.05 0 0 0.05 146.68 143.112)" style="font:normal normal normal 350.8px 'Arial'" >
OH</text>
<text x="0" y="0" stroke="transparent" fill="#000000" transform="matrix(0.05 0 0 0.05 102.933 168.37)" style="font:normal normal normal 350.8px 'Arial'" >
OH</text>
<path stroke="transparent" fill="#000000" transform="matrix(0.05 0 0 0.05 -342 -62)" d="M 8116.3,3943.06 L 8200.63,4016.05 L 7872.92,3826.84 L 7883.44,3808.61 L 8116.3,3943.06 Z " />
<path stroke="transparent" fill="#000000" transform="matrix(0.05 0 0 0.05 -342 -62)" d="M 8200.63,4016.05 L 8116.3,3943.06 L 8586.93,3721.22 L 8597.46,3727.85 L 8597.94,3740.28 L 8200.63,4016.05 Z " />
<path stroke="transparent" fill="#000000" transform="matrix(0.05 0 0 0.05 -342 -62)" d="M 8586.93,3404.79 L 8607.98,3404.79 L 8607.98,3721.78 L 8597.46,3727.85 L 8586.93,3721.22 L 8586.93,3404.79 Z " />
<path stroke="transparent" fill="#000000" transform="matrix(0.05 0 0 0.05 -342 -62)" d="M 9023.84,2964.46 L 9035.1,2970.11 L 9035.1,2982.26 L 8761.94,3139.91 L 8751.42,3121.68 L 9023.84,2964.46 Z " />
<path stroke="transparent" fill="#000000" transform="matrix(0.05 0 0 0.05 -342 -62)" d="M 8982.48,2647.05 L 9087.72,2647.05 L 9046.36,2964.46 L 9035.1,2970.11 L 9023.84,2964.46 L 8982.48,2647.05 Z " />
<path stroke="transparent" fill="#000000" transform="matrix(0.05 0 0 0.05 -342 -62)" d="M 8902.07,2327.38 L 8849.45,2418.52 L 8596.89,2224.94 L 8597.63,2212.36 L 8608.15,2205.43 L 8902.07,2327.38 Z " />
<path stroke="transparent" fill="#000000" transform="matrix(0.05 0 0 0.05 -342 -62)" d="M 8159.99,2477.1 L 8159.99,2452.79 L 8587.1,2206.29 L 8597.63,2212.36 L 8596.89,2224.94 L 8159.99,2477.1 Z " />
<path stroke="transparent" fill="#000000" transform="matrix(0.05 0 0 0.05 -342 -62)" d="M 8212.61,2779.95 L 8107.37,2779.95 L 8111.27,2758.91 L 8208.71,2758.91 L 8212.61,2779.95 Z " />
<path stroke="transparent" fill="#000000" transform="matrix(0.05 0 0 0.05 -342 -62)" d="M 8193.51,2676.82 L 8126.47,2676.82 L 8130.36,2655.78 L 8189.61,2655.78 L 8193.51,2676.82 Z " />
<path stroke="transparent" fill="#000000" transform="matrix(0.05 0 0 0.05 -342 -62)" d="M 8174.41,2573.7 L 8145.57,2573.7 L 8149.46,2552.65 L 8170.51,2552.65 L 8174.41,2573.7 Z " />
<path stroke="transparent" fill="#000000" transform="matrix(0.05 0 0 0.05 -342 -62)" d="M 7723.26,2224.94 L 7722.52,2212.36 L 7733.04,2206.29 L 8159.99,2452.79 L 8159.99,2477.1 L 7723.26,2224.94 Z " />
<path stroke="transparent" fill="#000000" transform="matrix(0.05 0 0 0.05 -342 -62)" d="M 7470.51,2418.63 L 7417.89,2327.49 L 7711.99,2205.43 L 7722.52,2212.36 L 7723.26,2224.94 L 7470.51,2418.63 Z " />
<path stroke="transparent" fill="#000000" transform="matrix(0.05 0 0 0.05 -342 -62)" d="M 7711.99,1714.12 L 7722.52,1707.2 L 7733.04,1713.28 L 7733.04,2206.29 L 7722.52,2212.36 L 7711.99,2205.43 L 7711.99,1714.12 Z " />
<path stroke="transparent" fill="#000000" transform="matrix(0.05 0 0 0.05 -342 -62)" d="M 7414.4,1590.07 L 7467.02,1498.93 L 7723.25,1694.63 L 7722.52,1707.2 L 7711.99,1714.12 L 7414.4,1590.07 Z " />
<path stroke="transparent" fill="#000000" transform="matrix(0.05 0 0 0.05 -342 -62)" d="M 7999.54,1535.1 L 8010.07,1553.33 L 7733.04,1713.28 L 7722.52,1707.2 L 7723.25,1694.63 L 7999.54,1535.1 Z " />
<path stroke="transparent" fill="#000000" transform="matrix(0.05 0 0 0.05 -342 -62)" d="M 8587.1,1713.28 L 8608.15,1701.12 L 8608.15,2205.43 L 8597.63,2212.36 L 8587.1,2206.29 L 8587.1,1713.28 Z " />
<path stroke="transparent" fill="#000000" transform="matrix(0.05 0 0 0.05 -342 -62)" d="M 8608.15,1701.12 L 8587.1,1713.28 L 8310.26,1553.5 L 8320.78,1535.27 L 8608.15,1701.12 Z " />
<path stroke="transparent" fill="#000000" transform="matrix(0.05 0 0 0.05 -342 -62)" d="M 8932.81,1452.91 L 8985.44,1544.05 L 8965.86,1552.25 L 8915.93,1465.77 L 8932.81,1452.91 Z " />
<path stroke="transparent" fill="#000000" transform="matrix(0.05 0 0 0.05 -342 -62)" d="M 8850.28,1515.73 L 8889.77,1584.12 L 8870.2,1592.32 L 8833.4,1528.59 L 8850.28,1515.73 Z " />
<path stroke="transparent" fill="#000000" transform="matrix(0.05 0 0 0.05 -342 -62)" d="M 8767.75,1578.55 L 8794.1,1624.19 L 8774.53,1632.38 L 8750.87,1591.4 L 8767.75,1578.55 Z " />
<path stroke="transparent" fill="#000000" transform="matrix(0.05 0 0 0.05 -342 -62)" d="M 8685.22,1641.37 L 8698.43,1664.25 L 8678.86,1672.45 L 8668.34,1654.22 L 8685.22,1641.37 Z " />
<path stroke="transparent" fill="#000000" transform="matrix(0.05 0 0 0.05 -342 -62)" d="M 9318.5,1606.09 L 9307.97,1624.32 L 9029.84,1463.73 L 9040.36,1445.51 L 9318.5,1606.09 Z " />
<path stroke="transparent" fill="#000000" transform="matrix(0.05 0 0 0.05 -342 -62)" d="M 9483.09,3216.61 L 9462.04,3228.77 L 9035.1,2982.26 L 9035.1,2970.11 L 9046.36,2964.46 L 9483.09,3216.61 Z " />
<path stroke="transparent" fill="#000000" transform="matrix(0.05 0 0 0.05 -342 -62)" d="M 9728.55,3014.13 L 9781.17,3105.27 L 9761.08,3112.57 L 9712.18,3027.88 L 9728.55,3014.13 Z " />
<path stroke="transparent" fill="#000000" transform="matrix(0.05 0 0 0.05 -342 -62)" d="M 9644.2,3084.99 L 9677.63,3142.9 L 9657.54,3150.2 L 9627.83,3098.74 L 9644.2,3084.99 Z " />
<path stroke="transparent" fill="#000000" transform="matrix(0.05 0 0 0.05 -342 -62)" d="M 9559.85,3155.85 L 9574.09,3180.52 L 9554.01,3187.82 L 9543.48,3169.6 L 9559.85,3155.85 Z " />
<path stroke="transparent" fill="#000000" transform="matrix(0.05 0 0 0.05 -342 -62)" d="M 9483.09,3720.92 L 9472.57,3727.85 L 9462.04,3721.78 L 9462.04,3228.77 L 9483.09,3216.61 L 9483.09,3720.92 Z " />
<path stroke="transparent" fill="#000000" transform="matrix(0.05 0 0 0.05 -342 -62)" d="M 9777.02,3842.87 L 9724.39,3934.01 L 9471.83,3740.43 L 9472.57,3727.85 L 9483.09,3720.92 L 9777.02,3842.87 Z " />
<path stroke="transparent" fill="#000000" transform="matrix(0.05 0 0 0.05 -342 -62)" d="M 9046.38,3986.07 L 9035.1,3980.43 L 9035.1,3968.28 L 9462.04,3721.78 L 9472.57,3727.85 L 9471.83,3740.43 L 9046.38,3986.07 Z " />
<path stroke="transparent" fill="#000000" transform="matrix(0.05 0 0 0.05 -342 -62)" d="M 9035.1,3968.28 L 9035.1,3980.43 L 9023.82,3986.08 L 8597.94,3740.28 L 8597.46,3727.85 L 8607.98,3721.78 L 9035.1,3968.28 Z " />
<path stroke="transparent" fill="#000000" transform="matrix(0.05 0 0 0.05 -342 -62)" d="M 9087.72,4295.44 L 8982.48,4295.44 L 9023.82,3986.08 L 9035.1,3980.43 L 9046.38,3986.07 L 9087.72,4295.44 Z " />
</svg>
