<?xml version="1.0" standalone="no" ?>
<!DOCTYPE svg PUBLIC "-//W3C//DTD SVG 1.1//EN" "http://www.w3.org/Graphics/SVG/1.1/DTD/svg11.dtd">
<svg width="126px" height="118px" viewBox="0 0 126 118" style="background-color: #ffffff00" xmlns="http://www.w3.org/2000/svg" xmlns:xlink="http://www.w3.org/1999/xlink" version="1.1" >
<text x="0" y="0" stroke="transparent" fill="#000000" transform="matrix(0.0666667 0 0 0.0666667 33.165 114.739)" style="font:normal normal normal 200px 'Arial'" >
OH</text>
<text x="0" y="0" stroke="transparent" fill="#000000" transform="matrix(0.0666667 0 0 0.0666667 67.8061 14.7389)" style="font:normal normal normal 200px 'Arial'" >
O</text>
<text x="0" y="0" stroke="transparent" fill="#000000" transform="matrix(0.0666667 0 0 0.0666667 102.447 74.7389)" style="font:normal normal normal 200px 'Arial'" >
OH</text>
<path stroke="transparent" fill="#000000" transform="matrix(0.0666667 0 0 0.0666667 -55.0667 -4.33333)" d="M 1411.48,1113.86 L 1401.48,1108.08 L 1401.48,1096.54 L 1921.09,796.536 L 1921.09,819.63 L 1411.48,1113.86 Z " />
<path stroke="transparent" fill="#000000" transform="matrix(0.0666667 0 0 0.0666667 -55.0667 -4.33333)" d="M 1411.48,1602.92 L 1391.48,1602.92 L 1391.48,1113.86 L 1401.48,1108.08 L 1411.48,1113.86 L 1411.48,1602.92 Z " />
<path stroke="transparent" fill="#000000" transform="matrix(0.0666667 0 0 0.0666667 -55.0667 -4.33333)" d="M 876.86,816.744 L 886.86,799.423 L 1401.48,1096.54 L 1401.48,1108.08 L 1391.48,1113.86 L 876.86,816.744 Z " />
<path stroke="transparent" fill="#000000" transform="matrix(0.0666667 0 0 0.0666667 -55.0667 -4.33333)" d="M 1875.09,327.917 L 1895.09,327.917 L 1895.09,828.868 L 1875.09,828.868 L 1875.09,327.917 Z " />
<path stroke="transparent" fill="#000000" transform="matrix(0.0666667 0 0 0.0666667 -55.0667 -4.33333)" d="M 1947.09,327.917 L 1967.09,327.917 L 1967.09,828.868 L 1947.09,828.868 L 1947.09,327.917 Z " />
<path stroke="transparent" fill="#000000" transform="matrix(0.0666667 0 0 0.0666667 -55.0667 -4.33333)" d="M 2352.02,1045.33 L 2342.02,1062.65 L 1921.09,819.63 L 1921.09,796.536 L 2352.02,1045.33 Z " />
</svg>
