<?xml version="1.0" standalone="no" ?>
<!DOCTYPE svg PUBLIC "-//W3C//DTD SVG 1.1//EN" "http://www.w3.org/Graphics/SVG/1.1/DTD/svg11.dtd">
<svg width="438px" height="78px" viewBox="0 0 438 78" style="background-color: #ffffff00" xmlns="http://www.w3.org/2000/svg" xmlns:xlink="http://www.w3.org/1999/xlink" version="1.1" >
<text x="0" y="0" stroke="transparent" fill="#000000" transform="matrix(0.0666667 0 0 0.0666667 379.691 14.7389)" style="font:normal normal normal 200px 'Arial'" >
O</text>
<text x="0" y="0" stroke="transparent" fill="#000000" transform="matrix(0.0666667 0 0 0.0666667 414.332 74.7389)" style="font:normal normal normal 200px 'Arial'" >
OH</text>
<path stroke="transparent" fill="#000000" transform="matrix(0.0666667 0 0 0.0666667 -17.0667 -22.3333)" d="M 5509.74,1389.63 L 5509.74,1366.54 L 6029.36,1066.54 L 6029.36,1089.63 L 5509.74,1389.63 Z " />
<path stroke="transparent" fill="#000000" transform="matrix(0.0666667 0 0 0.0666667 -17.0667 -22.3333)" d="M 4990.13,1089.63 L 4990.13,1066.54 L 5509.74,1366.54 L 5509.74,1389.63 L 4990.13,1089.63 Z " />
<path stroke="transparent" fill="#000000" transform="matrix(0.0666667 0 0 0.0666667 -17.0667 -22.3333)" d="M 4470.51,1389.63 L 4470.51,1366.54 L 4990.13,1066.54 L 4990.13,1089.63 L 4470.51,1389.63 Z " />
<path stroke="transparent" fill="#000000" transform="matrix(0.0666667 0 0 0.0666667 -17.0667 -22.3333)" d="M 3950.9,1089.63 L 3950.9,1066.54 L 4470.51,1366.54 L 4470.51,1389.63 L 3950.9,1089.63 Z " />
<path stroke="transparent" fill="#000000" transform="matrix(0.0666667 0 0 0.0666667 -17.0667 -22.3333)" d="M 3431.28,1389.63 L 3431.28,1366.54 L 3950.9,1066.54 L 3950.9,1089.63 L 3431.28,1389.63 Z " />
<path stroke="transparent" fill="#000000" transform="matrix(0.0666667 0 0 0.0666667 -17.0667 -22.3333)" d="M 2911.67,1089.63 L 2911.67,1066.54 L 3431.28,1366.54 L 3431.28,1389.63 L 2911.67,1089.63 Z " />
<path stroke="transparent" fill="#000000" transform="matrix(0.0666667 0 0 0.0666667 -17.0667 -22.3333)" d="M 2392.05,1389.63 L 2392.05,1366.54 L 2911.67,1066.54 L 2911.67,1089.63 L 2392.05,1389.63 Z " />
<path stroke="transparent" fill="#000000" transform="matrix(0.0666667 0 0 0.0666667 -17.0667 -22.3333)" d="M 1872.44,1089.63 L 1872.44,1066.54 L 2392.05,1366.54 L 2392.05,1389.63 L 1872.44,1089.63 Z " />
<path stroke="transparent" fill="#000000" transform="matrix(0.0666667 0 0 0.0666667 -17.0667 -22.3333)" d="M 1352.82,1389.63 L 1352.82,1366.54 L 1872.44,1066.54 L 1872.44,1089.63 L 1352.82,1389.63 Z " />
<path stroke="transparent" fill="#000000" transform="matrix(0.0666667 0 0 0.0666667 -17.0667 -22.3333)" d="M 833.207,1089.63 L 833.207,1066.54 L 1352.82,1366.54 L 1352.82,1389.63 L 833.207,1089.63 Z " />
<path stroke="transparent" fill="#000000" transform="matrix(0.0666667 0 0 0.0666667 -17.0667 -22.3333)" d="M 318.592,1386.74 L 308.592,1369.42 L 833.207,1066.54 L 833.207,1089.63 L 318.592,1386.74 Z " />
<path stroke="transparent" fill="#000000" transform="matrix(0.0666667 0 0 0.0666667 -17.0667 -22.3333)" d="M 5983.36,597.917 L 6003.36,597.917 L 6003.36,1098.87 L 5983.36,1098.87 L 5983.36,597.917 Z " />
<path stroke="transparent" fill="#000000" transform="matrix(0.0666667 0 0 0.0666667 -17.0667 -22.3333)" d="M 6055.36,597.917 L 6075.36,597.917 L 6075.36,1098.87 L 6055.36,1098.87 L 6055.36,597.917 Z " />
<path stroke="transparent" fill="#000000" transform="matrix(0.0666667 0 0 0.0666667 -17.0667 -22.3333)" d="M 6461.36,1315.95 L 6451.36,1333.27 L 6029.36,1089.63 L 6029.36,1066.54 L 6461.36,1315.95 Z " />
</svg>
