<?xml version="1.0" encoding="UTF-8" standalone="no"?>
<!-- Created with Inkscape (http://www.inkscape.org/) -->

<svg
   xmlns:dc="http://purl.org/dc/elements/1.1/"
   xmlns:cc="http://creativecommons.org/ns#"
   xmlns:rdf="http://www.w3.org/1999/02/22-rdf-syntax-ns#"
   xmlns:svg="http://www.w3.org/2000/svg"
   xmlns="http://www.w3.org/2000/svg"
   xmlns:sodipodi="http://sodipodi.sourceforge.net/DTD/sodipodi-0.dtd"
   xmlns:inkscape="http://www.inkscape.org/namespaces/inkscape"
   version="1.1"
   id="svg834"
   xml:space="preserve"
   width="163.41908"
   height="95.115997"
   viewBox="0 0 163.41908 95.115996"
   sodipodi:docname="logo_khoka.svg"
   inkscape:version="0.92.3 (2405546, 2018-03-11)"><metadata
     id="metadata840"><rdf:RDF><cc:Work
         rdf:about=""><dc:format>image/svg+xml</dc:format><dc:type
           rdf:resource="http://purl.org/dc/dcmitype/StillImage" /><dc:title></dc:title></cc:Work></rdf:RDF></metadata><defs
     id="defs838" /><sodipodi:namedview
     pagecolor="#ffffff"
     bordercolor="#666666"
     borderopacity="1"
     objecttolerance="10"
     gridtolerance="10"
     guidetolerance="10"
     inkscape:pageopacity="0"
     inkscape:pageshadow="2"
     inkscape:window-width="1325"
     inkscape:window-height="743"
     id="namedview836"
     showgrid="false"
     inkscape:zoom="1.3984401"
     inkscape:cx="91.03552"
     inkscape:cy="-58.585564"
     inkscape:window-x="41"
     inkscape:window-y="0"
     inkscape:window-maximized="1"
     inkscape:current-layer="g842"
     fit-margin-top="0"
     fit-margin-left="0"
     fit-margin-right="0"
     fit-margin-bottom="0" /><g
     id="g842"
     inkscape:groupmode="layer"
     inkscape:label="ink_ext_XXXXXX"
     transform="matrix(1.3333333,0,0,-1.3333333,-262.71838,1097.2818)"><g
       id="g844"
       transform="matrix(0.1,0,0,0.1,-39.439894,367.09439)"><path
         d="m 2438.85,4289.63 c 37.55,46.51 93.59,99.76 126.11,99.76 17.35,0 29.14,-11.77 29.14,-26.36 0,-21.86 -12.34,-31.37 -25.21,-31.37 -8.43,0 -15.15,5.61 -15.15,14.55 0,7.86 -4.5,12.36 -12.86,12.36 -19.65,0 -53.82,-32.51 -92.52,-75.12 44.29,-7.86 58.3,-47.61 61.68,-107.62 0.55,-13.44 3.91,-23.53 12.32,-23.53 10.08,0 24.08,14.02 38.67,56.03 0.55,1.13 1.13,1.7 2.81,1.7 2.79,0 6.73,-3.36 6.73,-7.28 -24.68,-63.89 -45.41,-72.32 -66.14,-72.32 -20.17,0 -33.64,10.68 -34.19,63.91 -1.1,53.81 -7.86,77.37 -20.18,77.37 -10.66,0 -17.37,-11.24 -25.23,-30.32 -10.62,-25.18 -24.66,-80.68 -28.01,-103.08 -0.55,-2.83 -3.93,-4.51 -10.67,-4.51 -8.38,0 -22.42,2.81 -21.3,7.31 8.99,42.56 97.53,330.09 115.45,388.95 -6.13,3.94 -22.4,5.07 -29.12,5.07 -4.47,0 -6.73,3.35 -6.73,6.68 0,2.82 1.13,4.5 3.91,5.05 21.88,3.93 53.84,11.81 70.06,11.81 6.16,0 8.97,-1.69 8.97,-6.18 0,-1.7 -0.55,-4.5 -1.68,-7.31 -5.03,-13.99 -30.82,-89.66 -53.79,-158.05 l -33.07,-97.5"
         style="fill:#656263;fill-opacity:1;fill-rule:nonzero;stroke:none"
         id="path846"
         inkscape:connector-curvature="0" /><path
         d="m 2761.07,4131.56 c -21.3,0 -28.01,12.89 -28.01,32.52 0,33.64 62.76,163.08 62.76,192.24 0,12.89 -6.16,18.48 -15.15,18.48 -24.63,0 -66.69,-34.17 -91.34,-92.47 -15.69,-37 -44.28,-124.98 -47.09,-144.04 -0.55,-2.8 -5.03,-4.48 -11.74,-4.48 -8.43,0 -21.32,2.8 -21.32,7.29 0,20.17 111.54,348.05 117.69,386.17 -5.58,6.16 -19.62,7.86 -26.3,7.86 -3.93,0 -6.76,3.33 -6.76,6.69 0,2.8 1.13,4.5 4.5,5.05 22.98,3.93 49.87,11.79 66.69,11.79 5.6,0 8.41,-1.68 8.41,-6.18 0,-1.68 -0.57,-4.48 -1.68,-7.29 -7.86,-20.75 -57.17,-167.01 -76.22,-225.86 19.05,37.55 52.1,70.06 90.79,70.06 22.98,0 41.48,-14.59 41.48,-47.08 0,-40.9 -59.97,-137.88 -59.97,-178.78 0,-5.06 3.92,-11.79 11.18,-11.79 10.67,0 28.04,10.66 52.7,59.4 0.57,1.7 1.7,2.25 2.8,2.25 2.8,0 6.16,-3.93 6.16,-7.83 -29.14,-65.56 -62.79,-74 -79.58,-74"
         style="fill:#656263;fill-opacity:1;fill-rule:nonzero;stroke:none"
         id="path848"
         inkscape:connector-curvature="0" /><path
         d="m 2882.64,4196.03 c 0,82.36 63.9,193.35 139.02,193.35 31.94,0 52.12,-29.69 52.12,-75.12 0,-75.07 -60.55,-187.72 -135.65,-187.72 -36.45,0 -55.49,29.11 -55.49,69.49 m 155.82,140.68 c 0,24.11 -7.31,38.1 -20.73,38.1 -46.55,0 -99.78,-122.18 -99.78,-196.73 0,-24.1 9.55,-37.55 24.67,-37.55 47.08,0 95.84,121.06 95.84,196.18"
         style="fill:#656263;fill-opacity:1;fill-rule:nonzero;stroke:none"
         id="path850"
         inkscape:connector-curvature="0" /><path
         d="m 3182.47,4289.63 c 37.55,46.51 93.57,99.76 126.11,99.76 17.35,0 29.13,-11.77 29.13,-26.36 0,-21.86 -12.33,-31.37 -25.22,-31.37 -8.42,0 -15.15,5.61 -15.15,14.55 0,7.86 -4.48,12.36 -12.86,12.36 -19.63,0 -53.83,-32.51 -92.52,-75.12 44.3,-7.86 58.32,-47.61 61.7,-107.62 0.55,-13.44 3.9,-23.53 12.29,-23.53 10.09,0 24.11,14.02 38.7,56.03 0.55,1.13 1.13,1.7 2.8,1.7 2.81,0 6.72,-3.36 6.72,-7.28 -24.67,-63.89 -45.39,-72.32 -66.14,-72.32 -20.18,0 -33.62,10.68 -34.17,63.91 -1.13,53.81 -7.88,77.37 -20.2,77.37 -10.64,0 -17.37,-11.24 -25.23,-30.32 -10.65,-25.18 -24.64,-80.68 -28.01,-103.08 -0.56,-2.83 -3.94,-4.51 -10.65,-4.51 -8.41,0 -22.43,2.81 -21.3,7.31 8.96,42.56 97.51,330.09 115.42,388.95 -6.1,3.94 -22.38,5.07 -29.11,5.07 -4.5,0 -6.76,3.35 -6.76,6.68 0,2.82 1.13,4.5 3.94,5.05 21.9,3.93 53.84,11.81 70.06,11.81 6.18,0 8.99,-1.69 8.99,-6.18 0,-1.7 -0.55,-4.5 -1.68,-7.31 -5.05,-13.99 -30.82,-89.66 -53.8,-158.05 l -33.06,-97.5"
         style="fill:#656263;fill-opacity:1;fill-rule:nonzero;stroke:none"
         id="path852"
         inkscape:connector-curvature="0" /><path
         d="m 3573.64,4202.18 c 0.55,1.68 1.67,2.25 3.35,2.25 2.23,0 6.16,-2.25 6.16,-7.83 -3.93,-20.2 -28.59,-65.04 -63.33,-65.04 -16.25,0 -28.59,7.86 -28.59,30.84 0,6.16 1.71,19.6 3.91,29.69 -20.16,-33.07 -51.55,-60.53 -86.86,-60.53 -28.02,0 -48.77,18.48 -48.77,53.8 0,91.36 101.45,204.03 159.18,204.03 17.38,0 30.24,-8.43 34.74,-25.8 3.39,9.54 6.19,18.5 7.31,22.98 0.55,2.82 6.14,3.37 11.77,3.37 8.39,0 17.92,-1.67 17.92,-6.73 0,-19.62 -68.38,-180.46 -68.38,-218.56 0,-7.3 4.5,-12.36 9.53,-12.36 16.8,0 39.25,34.74 42.06,49.89 m -62.21,47.09 c 5.01,13.46 17.93,45.4 25.76,71.19 3.38,10.63 4.51,18.49 4.51,25.18 0,16.27 -4.51,29.73 -20.2,29.73 -42.61,0 -122.18,-123.86 -122.18,-194.49 0,-22.41 7.83,-31.39 20.75,-31.39 25.75,0 65.56,34.19 91.36,99.78"
         style="fill:#656263;fill-opacity:1;fill-rule:nonzero;stroke:none"
         id="path854"
         inkscape:connector-curvature="0" /><path
         d="m 2530.52,3981.44 v -65.86 h 26.57 c 10.53,0 19.1,3.27 24.98,8.98 5.94,5.76 9.26,14.1 9.26,24.16 0,10.04 -3.29,18.24 -9.17,23.89 -5.9,5.65 -14.49,8.83 -25.07,8.83 z m -16.56,7.18 c 0,2.35 0.83,4.36 2.27,5.8 1.44,1.45 3.45,2.28 5.81,2.28 h 35.49 c 14.85,0 27.65,-4.8 36.69,-13.31 8.88,-8.36 14.13,-20.26 14.13,-34.67 0,-14.41 -5.27,-26.45 -14.18,-34.91 -9.04,-8.59 -21.82,-13.49 -36.64,-13.49 h -27.01 v -45.84 c 0,-2.35 -0.89,-4.37 -2.37,-5.81 -1.51,-1.45 -3.57,-2.29 -5.9,-2.29 -2.35,0 -4.41,0.84 -5.9,2.27 -1.49,1.45 -2.39,3.47 -2.39,5.83 v 134.14"
         style="fill:#656263;fill-opacity:1;fill-rule:nonzero;stroke:none"
         id="path856"
         inkscape:connector-curvature="0" /><path
         d="m 2670.36,3981.44 v -60.18 h 26.57 c 10.56,0 19.15,3.07 25.04,8.4 5.9,5.34 9.2,13.07 9.2,22.35 0,8.99 -3.26,16.34 -9.07,21.4 -5.92,5.14 -14.54,8.03 -25.17,8.03 z m 73.4,-123.05 0.67,-1.72 c 0.17,-0.64 0.26,-1.3 0.26,-1.97 0,-2.24 -0.96,-4.32 -2.47,-5.84 -1.51,-1.51 -3.6,-2.48 -5.84,-2.48 -1.6,0 -3.17,0.55 -4.51,1.44 -1.33,0.89 -2.46,2.2 -3.11,3.66 l -25.1,55.08 -2.15,-0.18 -4.17,-0.14 h -26.98 v -51.76 c 0,-2.36 -0.89,-4.38 -2.39,-5.83 -1.49,-1.43 -3.56,-2.27 -5.9,-2.27 -2.34,0 -4.4,0.84 -5.9,2.28 -1.49,1.43 -2.39,3.45 -2.39,5.82 v 134.14 c 0,2.35 0.83,4.36 2.27,5.8 1.44,1.45 3.45,2.28 5.81,2.28 h 35.48 c 14.83,0 27.61,-4.45 36.64,-12.33 8.93,-7.8 14.19,-18.9 14.19,-32.36 0,-10.15 -2.95,-19.12 -8.17,-26.36 -4.84,-6.72 -11.64,-11.93 -19.84,-15.21 l 23.6,-52.05"
         style="fill:#656263;fill-opacity:1;fill-rule:nonzero;stroke:none"
         id="path858"
         inkscape:connector-curvature="0" /><path
         d="m 2808.66,3892.18 c 0,-9.25 2.99,-17.34 8.64,-22.95 5.31,-5.28 13.06,-8.45 22.96,-8.45 9.9,0 17.65,3.17 22.97,8.45 5.64,5.61 8.63,13.7 8.63,22.95 v 59.83 c 0,9.25 -2.99,17.34 -8.63,22.95 -5.31,5.27 -13.06,8.44 -22.97,8.44 -9.91,0 -17.66,-3.17 -22.96,-8.44 -5.65,-5.61 -8.64,-13.7 -8.64,-22.95 z m 79.77,0.86 c 0,-14.49 -4.85,-26.32 -13.21,-34.59 -8.52,-8.45 -20.65,-13.15 -34.96,-13.15 -14.31,0 -26.46,4.7 -34.99,13.15 -8.37,8.28 -13.22,20.11 -13.22,34.59 v 58.11 c 0,14.48 4.86,26.31 13.22,34.59 8.54,8.45 20.68,13.16 34.99,13.16 14.31,0 26.44,-4.7 34.96,-13.15 8.36,-8.28 13.21,-20.12 13.21,-34.6 v -58.11"
         style="fill:#656263;fill-opacity:1;fill-rule:nonzero;stroke:none"
         id="path860"
         inkscape:connector-curvature="0" /><path
         d="m 2943.23,3887.8 c 0,-7.9 2.59,-14.86 7.4,-19.7 4.52,-4.55 11.09,-7.31 19.39,-7.31 8.33,0 14.77,2.72 19.16,7.21 4.74,4.83 7.2,11.84 7.2,19.8 v 101.91 c 0,2.36 0.89,4.38 2.38,5.82 1.48,1.43 3.54,2.26 5.89,2.26 2.34,0 4.4,-0.83 5.89,-2.27 1.49,-1.44 2.38,-3.44 2.38,-5.81 v -101.05 c 0,-13.17 -4.3,-23.9 -11.72,-31.42 -7.6,-7.68 -18.41,-11.93 -31.18,-11.93 -12.7,0 -23.54,4.27 -31.16,11.97 -7.43,7.51 -11.77,18.23 -11.77,31.38 0,2.6 0.78,4.69 2.12,6.2 1.46,1.65 3.54,2.52 5.95,2.52 2.49,0 4.62,-0.91 6.1,-2.81 1.25,-1.59 1.97,-3.85 1.97,-6.77"
         style="fill:#656263;fill-opacity:1;fill-rule:nonzero;stroke:none"
         id="path862"
         inkscape:connector-curvature="0" /><path
         d="m 3084.15,3916.1 v -53.12 h 63.17 c 2.24,0 4.14,-0.84 5.5,-2.24 1.37,-1.42 2.14,-3.37 2.14,-5.6 0,-2.24 -0.77,-4.14 -2.14,-5.5 -1.36,-1.36 -3.26,-2.14 -5.5,-2.14 h -71.68 c -2.34,0 -4.35,0.83 -5.79,2.27 -1.45,1.45 -2.28,3.46 -2.28,5.8 v 133.06 c 0,2.35 0.83,4.36 2.27,5.78 1.44,1.45 3.45,2.27 5.8,2.27 h 69.95 c 2.25,0 4.16,-0.84 5.5,-2.25 1.35,-1.41 2.12,-3.36 2.12,-5.58 0,-2.25 -0.77,-4.14 -2.13,-5.5 -1.36,-1.36 -3.25,-2.13 -5.49,-2.13 h -61.44 v -49.62 h 56.6 c 2.26,0 4.16,-0.84 5.52,-2.26 1.35,-1.41 2.12,-3.37 2.12,-5.6 0,-2.23 -0.77,-4.14 -2.13,-5.5 -1.36,-1.37 -3.26,-2.14 -5.51,-2.14 h -56.6"
         style="fill:#656263;fill-opacity:1;fill-rule:nonzero;stroke:none"
         id="path864"
         inkscape:connector-curvature="0" /><path
         d="m 3293.26,3890 c 0,-13.66 -4.81,-24.75 -13.11,-32.48 -8.44,-7.86 -20.46,-12.21 -34.65,-12.21 -14.31,0 -26.43,4.7 -34.97,13.14 -8.35,8.28 -13.19,20.11 -13.19,34.59 v 58.11 c 0,14.48 4.84,26.33 13.2,34.61 8.53,8.45 20.65,13.15 34.96,13.15 14.12,0 26.03,-4.31 34.43,-12.03 8.34,-7.65 13.2,-18.62 13.32,-32 0.01,-2.28 -0.89,-4.18 -2.36,-5.53 -1.46,-1.35 -3.49,-2.11 -5.71,-2.11 -2.34,0 -4.35,0.83 -5.8,2.27 -1.45,1.44 -2.27,3.45 -2.27,5.81 0,8.18 -2.98,15.4 -8.58,20.42 -5.32,4.77 -13.09,7.66 -23.03,7.66 -9.91,0 -17.66,-3.17 -22.96,-8.44 -5.65,-5.61 -8.64,-13.7 -8.64,-22.95 v -59.83 c 0,-9.25 2.99,-17.34 8.64,-22.94 5.31,-5.28 13.06,-8.45 22.96,-8.45 9.99,0 17.84,2.88 23.18,7.84 5.49,5.1 8.43,12.51 8.43,21.37 0,2.35 0.83,4.36 2.28,5.79 1.43,1.45 3.45,2.28 5.79,2.28 2.35,0 4.36,-0.83 5.8,-2.27 1.44,-1.45 2.28,-3.46 2.28,-5.8"
         style="fill:#656263;fill-opacity:1;fill-rule:nonzero;stroke:none"
         id="path866"
         inkscape:connector-curvature="0" /><path
         d="m 3333.82,3996.69 h 82.65 c 2.25,0 4.15,-0.84 5.5,-2.26 1.35,-1.41 2.12,-3.37 2.12,-5.6 0,-2.24 -0.78,-4.13 -2.14,-5.48 -1.35,-1.36 -3.24,-2.13 -5.48,-2.13 h -33.14 v -126.74 c 0,-2.36 -0.9,-4.38 -2.39,-5.83 -1.49,-1.43 -3.56,-2.27 -5.9,-2.27 -2.34,0 -4.41,0.84 -5.9,2.27 -1.5,1.45 -2.39,3.47 -2.39,5.83 v 126.74 h -32.93 c -2.25,0 -4.15,0.84 -5.51,2.25 -1.34,1.42 -2.11,3.37 -2.11,5.61 0,2.24 0.78,4.13 2.13,5.48 1.36,1.36 3.25,2.13 5.49,2.13"
         style="fill:#656263;fill-opacity:1;fill-rule:nonzero;stroke:none"
         id="path868"
         inkscape:connector-curvature="0" /></g></g></svg>