<?xml version="1.0" standalone="no" ?>
<!DOCTYPE svg PUBLIC "-//W3C//DTD SVG 1.1//EN" "http://www.w3.org/Graphics/SVG/1.1/DTD/svg11.dtd">
<svg width="210px" height="118px" viewBox="0 0 210 118" style="background-color: #ffffff00" xmlns="http://www.w3.org/2000/svg" xmlns:xlink="http://www.w3.org/1999/xlink" version="1.1" >
<text x="0" y="0" stroke="transparent" fill="#000000" transform="matrix(0.0666667 0 0 0.0666667 117.054 114.739)" style="font:normal normal normal 200px 'Arial'" >
OH</text>
<text x="0" y="0" stroke="transparent" fill="#000000" transform="matrix(0.0666667 0 0 0.0666667 151.695 14.7389)" style="font:normal normal normal 200px 'Arial'" >
O</text>
<text x="0" y="0" stroke="transparent" fill="#000000" transform="matrix(0.0666667 0 0 0.0666667 186.336 74.7389)" style="font:normal normal normal 200px 'Arial'" >
OH</text>
<text x="0" y="0" stroke="transparent" fill="#000000" transform="matrix(0.0666667 0 0 0.0666667 47.7718 114.739)" style="font:normal normal normal 200px 'Arial'" >
O</text>
<text x="0" y="0" stroke="transparent" fill="#000000" transform="matrix(0.0666667 0 0 0.0666667 3.50189 54.7389)" style="font:normal normal normal 200px 'Arial'" >
HO</text>
<path stroke="transparent" fill="#000000" transform="matrix(0.0666667 0 0 0.0666667 -38.0667 -10.3333)" d="M 2414.81,1203.86 L 2404.81,1198.08 L 2404.81,1186.54 L 2924.42,886.536 L 2924.42,909.63 L 2414.81,1203.86 Z " />
<path stroke="transparent" fill="#000000" transform="matrix(0.0666667 0 0 0.0666667 -38.0667 -10.3333)" d="M 2414.81,1692.92 L 2394.81,1692.92 L 2394.81,1203.86 L 2404.81,1198.08 L 2414.81,1203.86 L 2414.81,1692.92 Z " />
<path stroke="transparent" fill="#000000" transform="matrix(0.0666667 0 0 0.0666667 -38.0667 -10.3333)" d="M 1885.19,909.63 L 1885.19,886.536 L 2404.81,1186.54 L 2404.81,1198.08 L 2394.81,1203.86 L 1885.19,909.63 Z " />
<path stroke="transparent" fill="#000000" transform="matrix(0.0666667 0 0 0.0666667 -38.0667 -10.3333)" d="M 1365.58,1209.63 L 1365.58,1186.54 L 1885.19,886.536 L 1885.19,909.63 L 1365.58,1209.63 Z " />
<path stroke="transparent" fill="#000000" transform="matrix(0.0666667 0 0 0.0666667 -38.0667 -10.3333)" d="M 2878.42,417.917 L 2898.42,417.917 L 2898.42,918.868 L 2878.42,918.868 L 2878.42,417.917 Z " />
<path stroke="transparent" fill="#000000" transform="matrix(0.0666667 0 0 0.0666667 -38.0667 -10.3333)" d="M 2950.42,417.917 L 2970.42,417.917 L 2970.42,918.868 L 2950.42,918.868 L 2950.42,417.917 Z " />
<path stroke="transparent" fill="#000000" transform="matrix(0.0666667 0 0 0.0666667 -38.0667 -10.3333)" d="M 3356.42,1135.95 L 3346.42,1153.27 L 2924.42,909.63 L 2924.42,886.536 L 3356.42,1135.95 Z " />
<path stroke="transparent" fill="#000000" transform="matrix(0.0666667 0 0 0.0666667 -38.0667 -10.3333)" d="M 1411.58,1692.92 L 1391.58,1692.92 L 1391.58,1177.3 L 1411.58,1177.3 L 1411.58,1692.92 Z " />
<path stroke="transparent" fill="#000000" transform="matrix(0.0666667 0 0 0.0666667 -38.0667 -10.3333)" d="M 1339.58,1692.92 L 1319.58,1692.92 L 1319.58,1177.3 L 1339.58,1177.3 L 1339.58,1692.92 Z " />
<path stroke="transparent" fill="#000000" transform="matrix(0.0666667 0 0 0.0666667 -38.0667 -10.3333)" d="M 940.99,964.495 L 950.99,947.174 L 1365.58,1186.54 L 1365.58,1209.63 L 940.99,964.495 Z " />
</svg>
