<?xml version="1.0" standalone="no" ?>
<!DOCTYPE svg PUBLIC "-//W3C//DTD SVG 1.1//EN" "http://www.w3.org/Graphics/SVG/1.1/DTD/svg11.dtd">
<svg width="210px" height="118px" viewBox="0 0 210 118" style="background-color: #ffffff00" xmlns="http://www.w3.org/2000/svg" xmlns:xlink="http://www.w3.org/1999/xlink" version="1.1" >
<text x="0" y="0" stroke="transparent" fill="#000000" transform="matrix(0.0666667 0 0 0.0666667 3.50189 74.7389)" style="font:normal normal normal 200px 'Arial'" >
HO</text>
<text x="0" y="0" stroke="transparent" fill="#000000" transform="matrix(0.0666667 0 0 0.0666667 82.4128 114.739)" style="font:normal normal normal 200px 'Arial'" >
OH</text>
<text x="0" y="0" stroke="transparent" fill="#000000" transform="matrix(0.0666667 0 0 0.0666667 117.054 14.7389)" style="font:normal normal normal 200px 'Arial'" >
OH</text>
<text x="0" y="0" stroke="transparent" fill="#000000" transform="matrix(0.0666667 0 0 0.0666667 186.336 54.7389)" style="font:normal normal normal 200px 'Arial'" >
OH</text>
<path stroke="transparent" fill="#000000" transform="matrix(0.0666667 0 0 0.0666667 -30.0667 -8.33333)" d="M 1245.58,856.536 L 1245.58,879.63 L 823.572,1123.27 L 813.572,1105.95 L 1245.58,856.536 Z " />
<path stroke="transparent" fill="#000000" transform="matrix(0.0666667 0 0 0.0666667 -30.0667 -8.33333)" d="M 1765.19,1156.54 L 1765.19,1168.08 L 1754.64,1173.54 L 1245.58,879.63 L 1245.58,856.536 L 1765.19,1156.54 Z " />
<path stroke="transparent" fill="#000000" transform="matrix(0.0666667 0 0 0.0666667 -30.0667 -8.33333)" d="M 1825.19,1662.92 L 1705.19,1662.92 L 1754.64,1173.54 L 1765.19,1168.08 L 1775.74,1173.54 L 1825.19,1662.92 Z " />
<path stroke="transparent" fill="#000000" transform="matrix(0.0666667 0 0 0.0666667 -30.0667 -8.33333)" d="M 2284.81,856.536 L 2284.81,879.63 L 1775.74,1173.54 L 1765.19,1168.08 L 1765.19,1156.54 L 2284.81,856.536 Z " />
<path stroke="transparent" fill="#000000" transform="matrix(0.0666667 0 0 0.0666667 -30.0667 -8.33333)" d="M 2224.81,387.917 L 2344.81,387.917 L 2342.46,407.917 L 2227.15,407.917 L 2224.81,387.917 Z " />
<path stroke="transparent" fill="#000000" transform="matrix(0.0666667 0 0 0.0666667 -30.0667 -8.33333)" d="M 2231.62,445.938 L 2338,445.938 L 2335.65,465.938 L 2233.96,465.938 L 2231.62,445.938 Z " />
<path stroke="transparent" fill="#000000" transform="matrix(0.0666667 0 0 0.0666667 -30.0667 -8.33333)" d="M 2238.42,503.959 L 2331.19,503.959 L 2328.85,523.959 L 2240.77,523.959 L 2238.42,503.959 Z " />
<path stroke="transparent" fill="#000000" transform="matrix(0.0666667 0 0 0.0666667 -30.0667 -8.33333)" d="M 2245.23,561.98 L 2324.38,561.98 L 2322.04,581.98 L 2247.58,581.98 L 2245.23,561.98 Z " />
<path stroke="transparent" fill="#000000" transform="matrix(0.0666667 0 0 0.0666667 -30.0667 -8.33333)" d="M 2252.04,620.001 L 2317.58,620.001 L 2315.23,640.001 L 2254.38,640.001 L 2252.04,620.001 Z " />
<path stroke="transparent" fill="#000000" transform="matrix(0.0666667 0 0 0.0666667 -30.0667 -8.33333)" d="M 2258.85,678.022 L 2310.77,678.022 L 2308.42,698.022 L 2261.19,698.022 L 2258.85,678.022 Z " />
<path stroke="transparent" fill="#000000" transform="matrix(0.0666667 0 0 0.0666667 -30.0667 -8.33333)" d="M 2265.65,736.044 L 2303.96,736.044 L 2301.62,756.044 L 2268,756.044 L 2265.65,736.044 Z " />
<path stroke="transparent" fill="#000000" transform="matrix(0.0666667 0 0 0.0666667 -30.0667 -8.33333)" d="M 2272.46,794.065 L 2297.15,794.065 L 2294.81,814.065 L 2274.81,814.065 L 2272.46,794.065 Z " />
<path stroke="transparent" fill="#000000" transform="matrix(0.0666667 0 0 0.0666667 -30.0667 -8.33333)" d="M 2804.42,1156.54 L 2804.42,1179.63 L 2284.81,879.63 L 2284.81,856.536 L 2804.42,1156.54 Z " />
<path stroke="transparent" fill="#000000" transform="matrix(0.0666667 0 0 0.0666667 -30.0667 -8.33333)" d="M 3219.43,916.929 L 3229.43,934.25 L 2804.42,1179.63 L 2804.42,1156.54 L 3219.43,916.929 Z " />
</svg>
