<?xml version="1.0" standalone="no" ?>
<!DOCTYPE svg PUBLIC "-//W3C//DTD SVG 1.1//EN" "http://www.w3.org/Graphics/SVG/1.1/DTD/svg11.dtd">
<svg width="211px" height="113px" viewBox="0 0 211 113" style="background-color: #ffffffff" xmlns="http://www.w3.org/2000/svg" xmlns:xlink="http://www.w3.org/1999/xlink" version="1.1" >
<text x="0" y="0" stroke="transparent" fill="#000000" transform="matrix(0.05 0 0 0.05 141.296 22.3972)" style="font:normal normal normal 487.6px 'Arial'" >
O</text>
<text x="0" y="0" stroke="transparent" fill="#000000" transform="matrix(0.05 0 0 0.05 171.699 75.058)" style="font:normal normal normal 487.6px 'Arial'" >
OH</text>
<text x="0" y="0" stroke="transparent" fill="#000000" transform="matrix(0.05 0 0 0.05 50.076 110.165)" style="font:normal normal normal 487.6px 'Arial'" >
O</text>
<text x="0" y="0" stroke="transparent" fill="#000000" transform="matrix(0.05 0 0 0.05 2.06672 57.5044)" style="font:normal normal normal 487.6px 'Arial'" >
HO</text>
<path stroke="transparent" fill="#000000" transform="matrix(0.05 0 0 0.05 -316 -92)" d="M 8742.13,3180.3 L 8727.5,3171.85 L 8727.5,3154.96 L 9335.56,2803.89 L 9335.56,2837.67 L 8742.13,3180.3 Z " />
<path stroke="transparent" fill="#000000" transform="matrix(0.05 0 0 0.05 -316 -92)" d="M 8119.21,2837.67 L 8119.21,2803.89 L 8727.5,3154.96 L 8727.5,3171.85 L 8712.87,3180.3 L 8119.21,2837.67 Z " />
<path stroke="transparent" fill="#000000" transform="matrix(0.05 0 0 0.05 -316 -92)" d="M 7511.16,3188.75 L 7511.16,3154.96 L 8119.21,2803.89 L 8119.21,2837.67 L 7511.16,3188.75 Z " />
<path stroke="transparent" fill="#000000" transform="matrix(0.05 0 0 0.05 -316 -92)" d="M 9257.74,2370.79 L 9286.99,2370.79 L 9286.99,2857.27 L 9257.74,2857.27 L 9257.74,2370.79 Z " />
<path stroke="transparent" fill="#000000" transform="matrix(0.05 0 0 0.05 -316 -92)" d="M 9384.12,2370.79 L 9413.38,2370.79 L 9413.38,2857.27 L 9384.12,2857.27 L 9384.12,2370.79 Z " />
<path stroke="transparent" fill="#000000" transform="matrix(0.05 0 0 0.05 -316 -92)" d="M 9729.89,3031.56 L 9715.26,3056.9 L 9335.56,2837.67 L 9335.56,2803.89 L 9729.89,3031.56 Z " />
<path stroke="transparent" fill="#000000" transform="matrix(0.05 0 0 0.05 -316 -92)" d="M 7588.98,3610.12 L 7559.72,3610.12 L 7559.72,3135.37 L 7588.98,3135.37 L 7588.98,3610.12 Z " />
<path stroke="transparent" fill="#000000" transform="matrix(0.05 0 0 0.05 -316 -92)" d="M 7462.59,3610.12 L 7433.33,3610.12 L 7433.33,3135.37 L 7462.59,3135.37 L 7462.59,3610.12 Z " />
<path stroke="transparent" fill="#000000" transform="matrix(0.05 0 0 0.05 -316 -92)" d="M 7112,2958.29 L 7126.63,2932.95 L 7511.16,3154.96 L 7511.16,3188.75 L 7112,2958.29 Z " />
<path stroke="transparent" fill="#000000" transform="matrix(0.05 0 0 0.05 -316 -92)" d="M 8742.13,3874 L 8712.87,3874 L 8712.87,3180.3 L 8727.5,3171.85 L 8742.13,3180.3 L 8742.13,3874 Z " />
</svg>
