<?xml version="1.0" standalone="no" ?>
<!DOCTYPE svg PUBLIC "-//W3C//DTD SVG 1.1//EN" "http://www.w3.org/Graphics/SVG/1.1/DTD/svg11.dtd">
<svg width="319px" height="49px" viewBox="0 0 319 49" style="background-color: #ffffffff" xmlns="http://www.w3.org/2000/svg" xmlns:xlink="http://www.w3.org/1999/xlink" version="1.1" >
<text x="0" y="0" stroke="transparent" fill="#000000" transform="matrix(0.05 0 0 0.05 273.43 14.6039)" style="font:normal normal normal 296px 'Arial'" >
O</text>
<text x="0" y="0" stroke="transparent" fill="#000000" transform="matrix(0.05 0 0 0.05 291.887 46.5726)" style="font:normal normal normal 296px 'Arial'" >
O</text>
<path stroke="transparent" fill="#000000" transform="matrix(0.05 0 0 0.05 -292 -139)" d="M 11054.6,3618.93 L 11054.6,3598.42 L 11423.7,3385.3 L 11423.7,3405.8 L 11054.6,3618.93 Z " />
<path stroke="transparent" fill="#000000" transform="matrix(0.05 0 0 0.05 -292 -139)" d="M 10685.5,3405.8 L 10685.5,3385.3 L 11054.6,3598.42 L 11054.6,3618.93 L 10685.5,3405.8 Z " />
<path stroke="transparent" fill="#000000" transform="matrix(0.05 0 0 0.05 -292 -139)" d="M 10316.3,3618.93 L 10316.3,3598.42 L 10685.5,3385.3 L 10685.5,3405.8 L 10316.3,3618.93 Z " />
<path stroke="transparent" fill="#000000" transform="matrix(0.05 0 0 0.05 -292 -139)" d="M 9947.2,3405.8 L 9947.2,3385.3 L 10316.3,3598.42 L 10316.3,3618.93 L 9947.2,3405.8 Z " />
<path stroke="transparent" fill="#000000" transform="matrix(0.05 0 0 0.05 -292 -139)" d="M 9578.07,3618.93 L 9578.07,3598.42 L 9947.2,3385.3 L 9947.2,3405.8 L 9578.07,3618.93 Z " />
<path stroke="transparent" fill="#000000" transform="matrix(0.05 0 0 0.05 -292 -139)" d="M 9208.93,3405.8 L 9208.93,3385.3 L 9578.07,3598.42 L 9578.07,3618.93 L 9208.93,3405.8 Z " />
<path stroke="transparent" fill="#000000" transform="matrix(0.05 0 0 0.05 -292 -139)" d="M 8839.66,3618.93 L 8839.66,3598.42 L 9208.93,3385.3 L 9208.93,3405.8 L 8839.66,3618.93 Z " />
<path stroke="transparent" fill="#000000" transform="matrix(0.05 0 0 0.05 -292 -139)" d="M 8470.53,3405.8 L 8470.53,3385.3 L 8839.66,3598.42 L 8839.66,3618.93 L 8470.53,3405.8 Z " />
<path stroke="transparent" fill="#000000" transform="matrix(0.05 0 0 0.05 -292 -139)" d="M 8101.4,3618.93 L 8101.4,3598.42 L 8470.53,3385.3 L 8470.53,3405.8 L 8101.4,3618.93 Z " />
<path stroke="transparent" fill="#000000" transform="matrix(0.05 0 0 0.05 -292 -139)" d="M 7732.26,3405.8 L 7732.26,3385.3 L 8101.4,3598.42 L 8101.4,3618.93 L 7732.26,3405.8 Z " />
<path stroke="transparent" fill="#000000" transform="matrix(0.05 0 0 0.05 -292 -139)" d="M 7363.13,3618.93 L 7363.13,3598.42 L 7732.26,3385.3 L 7732.26,3405.8 L 7363.13,3618.93 Z " />
<path stroke="transparent" fill="#000000" transform="matrix(0.05 0 0 0.05 -292 -139)" d="M 6994,3405.8 L 6994,3385.3 L 7363.13,3598.42 L 7363.13,3618.93 L 6994,3405.8 Z " />
<path stroke="transparent" fill="#000000" transform="matrix(0.05 0 0 0.05 -292 -139)" d="M 6624.87,3618.93 L 6624.87,3598.42 L 6994,3385.3 L 6994,3405.8 L 6624.87,3618.93 Z " />
<path stroke="transparent" fill="#000000" transform="matrix(0.05 0 0 0.05 -292 -139)" d="M 6255.74,3405.8 L 6255.74,3385.3 L 6624.87,3598.42 L 6624.87,3618.93 L 6255.74,3405.8 Z " />
<path stroke="transparent" fill="#000000" transform="matrix(0.05 0 0 0.05 -292 -139)" d="M 5891.04,3616.36 L 5882.16,3600.98 L 6255.74,3385.3 L 6255.74,3405.8 L 5891.04,3616.36 Z " />
<path stroke="transparent" fill="#000000" transform="matrix(0.05 0 0 0.05 -292 -139)" d="M 11376.5,3123.11 L 11394.2,3123.11 L 11394.2,3417.7 L 11376.5,3417.7 L 11376.5,3123.11 Z " />
<path stroke="transparent" fill="#000000" transform="matrix(0.05 0 0 0.05 -292 -139)" d="M 11453.2,3123.11 L 11471,3123.11 L 11471,3417.7 L 11453.2,3417.7 L 11453.2,3123.11 Z " />
<path stroke="transparent" fill="#000000" transform="matrix(0.05 0 0 0.05 -292 -139)" d="M 11662.7,3523.26 L 11653.8,3538.64 L 11423.7,3405.8 L 11423.7,3385.3 L 11662.7,3523.26 Z " />
<path stroke="transparent" fill="#000000" transform="matrix(0.05 0 0 0.05 -292 -139)" d="M 12157.5,3387.86 L 12166.4,3403.24 L 11931.9,3538.67 L 11923,3523.29 L 12157.5,3387.86 Z " />
</svg>
