<?xml version="1.0" standalone="no" ?>
<!DOCTYPE svg PUBLIC "-//W3C//DTD SVG 1.1//EN" "http://www.w3.org/Graphics/SVG/1.1/DTD/svg11.dtd">
<svg width="666px" height="78px" viewBox="0 0 666 78" style="background-color: #ffffff00" xmlns="http://www.w3.org/2000/svg" xmlns:xlink="http://www.w3.org/1999/xlink" version="1.1" >
<text x="0" y="0" stroke="transparent" fill="#000000" transform="matrix(0.0666667 0 0 0.0666667 587.541 14.7389)" style="font:normal normal normal 200px 'Arial'" >
O</text>
<text x="0" y="0" stroke="transparent" fill="#000000" transform="matrix(0.0666667 0 0 0.0666667 622.182 74.7389)" style="font:normal normal normal 200px 'Arial'" >
O</text>
<path stroke="transparent" fill="#000000" transform="matrix(0.0666667 0 0 0.0666667 -17.0667 -20.3333)" d="M 8627.5,1359.63 L 8627.5,1336.54 L 9147.11,1036.54 L 9147.11,1059.63 L 8627.5,1359.63 Z " />
<path stroke="transparent" fill="#000000" transform="matrix(0.0666667 0 0 0.0666667 -17.0667 -20.3333)" d="M 8107.88,1059.63 L 8107.88,1036.54 L 8627.5,1336.54 L 8627.5,1359.63 L 8107.88,1059.63 Z " />
<path stroke="transparent" fill="#000000" transform="matrix(0.0666667 0 0 0.0666667 -17.0667 -20.3333)" d="M 7588.27,1359.63 L 7588.27,1336.54 L 8107.88,1036.54 L 8107.88,1059.63 L 7588.27,1359.63 Z " />
<path stroke="transparent" fill="#000000" transform="matrix(0.0666667 0 0 0.0666667 -17.0667 -20.3333)" d="M 7068.65,1059.63 L 7068.65,1036.54 L 7588.27,1336.54 L 7588.27,1359.63 L 7068.65,1059.63 Z " />
<path stroke="transparent" fill="#000000" transform="matrix(0.0666667 0 0 0.0666667 -17.0667 -20.3333)" d="M 6549.04,1359.63 L 6549.04,1336.54 L 7068.65,1036.54 L 7068.65,1059.63 L 6549.04,1359.63 Z " />
<path stroke="transparent" fill="#000000" transform="matrix(0.0666667 0 0 0.0666667 -17.0667 -20.3333)" d="M 6029.42,1059.63 L 6029.42,1036.54 L 6549.04,1336.54 L 6549.04,1359.63 L 6029.42,1059.63 Z " />
<path stroke="transparent" fill="#000000" transform="matrix(0.0666667 0 0 0.0666667 -17.0667 -20.3333)" d="M 5509.81,1359.63 L 5509.81,1336.54 L 6029.42,1036.54 L 6029.42,1059.63 L 5509.81,1359.63 Z " />
<path stroke="transparent" fill="#000000" transform="matrix(0.0666667 0 0 0.0666667 -17.0667 -20.3333)" d="M 4990.19,1059.63 L 4990.19,1036.54 L 5509.81,1336.54 L 5509.81,1359.63 L 4990.19,1059.63 Z " />
<path stroke="transparent" fill="#000000" transform="matrix(0.0666667 0 0 0.0666667 -17.0667 -20.3333)" d="M 4470.58,1359.63 L 4470.58,1336.54 L 4990.19,1036.54 L 4990.19,1059.63 L 4470.58,1359.63 Z " />
<path stroke="transparent" fill="#000000" transform="matrix(0.0666667 0 0 0.0666667 -17.0667 -20.3333)" d="M 3950.96,1059.63 L 3950.96,1036.54 L 4470.58,1336.54 L 4470.58,1359.63 L 3950.96,1059.63 Z " />
<path stroke="transparent" fill="#000000" transform="matrix(0.0666667 0 0 0.0666667 -17.0667 -20.3333)" d="M 3431.35,1359.63 L 3431.35,1336.54 L 3950.96,1036.54 L 3950.96,1059.63 L 3431.35,1359.63 Z " />
<path stroke="transparent" fill="#000000" transform="matrix(0.0666667 0 0 0.0666667 -17.0667 -20.3333)" d="M 2911.73,1059.63 L 2911.73,1036.54 L 3431.35,1336.54 L 3431.35,1359.63 L 2911.73,1059.63 Z " />
<path stroke="transparent" fill="#000000" transform="matrix(0.0666667 0 0 0.0666667 -17.0667 -20.3333)" d="M 2392.12,1359.63 L 2392.12,1336.54 L 2911.73,1036.54 L 2911.73,1059.63 L 2392.12,1359.63 Z " />
<path stroke="transparent" fill="#000000" transform="matrix(0.0666667 0 0 0.0666667 -17.0667 -20.3333)" d="M 1872.5,1059.63 L 1872.5,1036.54 L 2392.12,1336.54 L 2392.12,1359.63 L 1872.5,1059.63 Z " />
<path stroke="transparent" fill="#000000" transform="matrix(0.0666667 0 0 0.0666667 -17.0667 -20.3333)" d="M 1352.89,1359.63 L 1352.89,1336.54 L 1872.5,1036.54 L 1872.5,1059.63 L 1352.89,1359.63 Z " />
<path stroke="transparent" fill="#000000" transform="matrix(0.0666667 0 0 0.0666667 -17.0667 -20.3333)" d="M 833.27,1059.63 L 833.27,1036.54 L 1352.89,1336.54 L 1352.89,1359.63 L 833.27,1059.63 Z " />
<path stroke="transparent" fill="#000000" transform="matrix(0.0666667 0 0 0.0666667 -17.0667 -20.3333)" d="M 318.655,1356.74 L 308.655,1339.42 L 833.27,1036.54 L 833.27,1059.63 L 318.655,1356.74 Z " />
<path stroke="transparent" fill="#000000" transform="matrix(0.0666667 0 0 0.0666667 -17.0667 -20.3333)" d="M 9101.11,567.917 L 9121.11,567.917 L 9121.11,1068.87 L 9101.11,1068.87 L 9101.11,567.917 Z " />
<path stroke="transparent" fill="#000000" transform="matrix(0.0666667 0 0 0.0666667 -17.0667 -20.3333)" d="M 9173.11,567.917 L 9193.11,567.917 L 9193.11,1068.87 L 9173.11,1068.87 L 9173.11,567.917 Z " />
<path stroke="transparent" fill="#000000" transform="matrix(0.0666667 0 0 0.0666667 -17.0667 -20.3333)" d="M 9579.11,1285.95 L 9569.11,1303.27 L 9147.11,1059.63 L 9147.11,1036.54 L 9579.11,1285.95 Z " />
<path stroke="transparent" fill="#000000" transform="matrix(0.0666667 0 0 0.0666667 -17.0667 -20.3333)" d="M 10181.3,1039.42 L 10191.3,1056.74 L 9764.35,1303.27 L 9754.35,1285.95 L 10181.3,1039.42 Z " />
</svg>
