<?xml version="1.0" standalone="no" ?>
<!DOCTYPE svg PUBLIC "-//W3C//DTD SVG 1.1//EN" "http://www.w3.org/Graphics/SVG/1.1/DTD/svg11.dtd">
<svg width="181px" height="88px" viewBox="0 0 181 88" style="background-color: #ffffffff" xmlns="http://www.w3.org/2000/svg" xmlns:xlink="http://www.w3.org/1999/xlink" version="1.1" >
<text x="0" y="0" stroke="transparent" fill="#000000" transform="matrix(0.05 0 0 0.05 114.887 74.0203)" style="font:normal normal normal 322.4px 'Arial'" >
NH</text>
<text x="0" y="0" stroke="transparent" fill="#000000" transform="matrix(0.05 0 0 0.05 138.17 76.6174)" style="font:normal normal normal 241.8px 'Arial'" >
2</text>
<text x="0" y="0" stroke="transparent" fill="#000000" transform="matrix(0.05 0 0 0.05 74.6736 50.807)" style="font:normal normal normal 322.4px 'Arial'" >
N</text>
<text x="0" y="0" stroke="transparent" fill="#000000" transform="matrix(0.05 0 0 0.05 2.27551 39.2003)" style="font:normal normal normal 322.4px 'Arial'" >
HO</text>
<text x="0" y="0" stroke="transparent" fill="#000000" transform="matrix(0.05 0 0 0.05 13.9169 85.6269)" style="font:normal normal normal 322.4px 'Arial'" >
O</text>
<text x="0" y="0" stroke="transparent" fill="#000000" transform="matrix(0.05 0 0 0.05 134.541 15.987)" style="font:normal normal normal 322.4px 'Arial'" >
O</text>
<text x="0" y="0" stroke="transparent" fill="#000000" transform="matrix(0.05 0 0 0.05 154.644 50.807)" style="font:normal normal normal 322.4px 'Arial'" >
OH</text>
<path stroke="transparent" fill="#000000" transform="matrix(0.05 0 0 0.05 -329 -75)" d="M 9042.51,2697.32 L 8945.79,2697.32 L 8983.79,2409.38 L 8994.15,2404.2 L 9004.51,2409.38 L 9042.51,2697.32 Z " />
<path stroke="transparent" fill="#000000" transform="matrix(0.05 0 0 0.05 -329 -75)" d="M 9004.51,2409.38 L 8994.15,2404.2 L 8994.15,2393.03 L 9396.2,2160.89 L 9396.2,2183.23 L 9004.51,2409.38 Z " />
<path stroke="transparent" fill="#000000" transform="matrix(0.05 0 0 0.05 -329 -75)" d="M 8592.09,2183.23 L 8592.1,2160.89 L 8994.15,2393.03 L 8994.15,2404.2 L 8983.79,2409.38 L 8592.09,2183.23 Z " />
<path stroke="transparent" fill="#000000" transform="matrix(0.05 0 0 0.05 -329 -75)" d="M 8357.93,2318.38 L 8348.26,2301.62 L 8592.1,2160.89 L 8592.09,2183.23 L 8357.93,2318.38 Z " />
<path stroke="transparent" fill="#000000" transform="matrix(0.05 0 0 0.05 -329 -75)" d="M 7787.83,2183.23 L 7787.83,2160.89 L 8029.4,2300.37 L 8019.73,2317.12 L 7787.83,2183.23 Z " />
<path stroke="transparent" fill="#000000" transform="matrix(0.05 0 0 0.05 -329 -75)" d="M 7395.45,2409.78 L 7385.78,2404.2 L 7385.78,2393.03 L 7787.83,2160.89 L 7787.83,2183.23 L 7395.45,2409.78 Z " />
<path stroke="transparent" fill="#000000" transform="matrix(0.05 0 0 0.05 -329 -75)" d="M 7474.18,2460.82 L 7464.51,2444.07 L 7783,2260.18 L 7792.67,2276.93 L 7474.18,2460.82 Z " />
<path stroke="transparent" fill="#000000" transform="matrix(0.05 0 0 0.05 -329 -75)" d="M 7122.12,2263.14 L 7131.79,2246.38 L 7385.78,2393.03 L 7385.78,2404.2 L 7376.11,2409.78 L 7122.12,2263.14 Z " />
<path stroke="transparent" fill="#000000" transform="matrix(0.05 0 0 0.05 -329 -75)" d="M 7395.45,2862.88 L 7376.11,2874.04 L 7376.11,2409.78 L 7385.78,2404.2 L 7395.45,2409.78 L 7395.45,2862.88 Z " />
<path stroke="transparent" fill="#000000" transform="matrix(0.05 0 0 0.05 -329 -75)" d="M 7156.07,3060.5 L 7146.4,3043.75 L 7422.72,2884.21 L 7432.4,2900.96 L 7156.07,3060.5 Z " />
<path stroke="transparent" fill="#000000" transform="matrix(0.05 0 0 0.05 -329 -75)" d="M 7114.28,2988.13 L 7104.61,2971.38 L 7380.94,2811.84 L 7390.61,2828.59 L 7114.28,2988.13 Z " />
<path stroke="transparent" fill="#000000" transform="matrix(0.05 0 0 0.05 -329 -75)" d="M 7787.83,3089.43 L 7787.83,3111.76 L 7376.11,2874.04 L 7395.45,2862.88 L 7787.83,3089.43 Z " />
<path stroke="transparent" fill="#000000" transform="matrix(0.05 0 0 0.05 -329 -75)" d="M 8180.21,2862.88 L 8199.56,2874.04 L 7787.83,3111.76 L 7787.83,3089.43 L 8180.21,2862.88 Z " />
<path stroke="transparent" fill="#000000" transform="matrix(0.05 0 0 0.05 -329 -75)" d="M 8101.48,2811.84 L 8111.16,2828.59 L 7792.67,3012.48 L 7783,2995.72 L 8101.48,2811.84 Z " />
<path stroke="transparent" fill="#000000" transform="matrix(0.05 0 0 0.05 -329 -75)" d="M 8199.56,2874.04 L 8180.21,2862.88 L 8180.21,2567.22 L 8199.56,2567.22 L 8199.56,2874.04 Z " />
<path stroke="transparent" fill="#000000" transform="matrix(0.05 0 0 0.05 -329 -75)" d="M 9344.75,1874.82 L 9364.09,1874.82 L 9364.09,2196.19 L 9344.75,2196.19 L 9344.75,1874.82 Z " />
<path stroke="transparent" fill="#000000" transform="matrix(0.05 0 0 0.05 -329 -75)" d="M 9428.32,1874.82 L 9447.66,1874.82 L 9447.66,2196.19 L 9428.32,2196.19 L 9428.32,1874.82 Z " />
<path stroke="transparent" fill="#000000" transform="matrix(0.05 0 0 0.05 -329 -75)" d="M 9656.53,2311.2 L 9646.86,2327.95 L 9396.2,2183.23 L 9396.2,2160.89 L 9656.53,2311.2 Z " />
</svg>
