<?xml version="1.0" standalone="no" ?>
<!DOCTYPE svg PUBLIC "-//W3C//DTD SVG 1.1//EN" "http://www.w3.org/Graphics/SVG/1.1/DTD/svg11.dtd">
<svg width="174px" height="178px" viewBox="0 0 174 178" style="background-color: #ffffff00" xmlns="http://www.w3.org/2000/svg" xmlns:xlink="http://www.w3.org/1999/xlink" version="1.1" >
<text x="0" y="0" stroke="transparent" fill="#000000" transform="matrix(0.0666667 0 0 0.0666667 151.015 54.7389)" style="font:normal normal normal 200px 'Arial'" >
OH</text>
<text x="0" y="0" stroke="transparent" fill="#000000" transform="matrix(0.0666667 0 0 0.0666667 151.015 134.739)" style="font:normal normal normal 200px 'Arial'" >
OH</text>
<text x="0" y="0" stroke="transparent" fill="#000000" transform="matrix(0.0666667 0 0 0.0666667 81.7333 174.739)" style="font:normal normal normal 200px 'Arial'" >
OH</text>
<text x="0" y="0" stroke="transparent" fill="#000000" transform="matrix(0.0666667 0 0 0.0666667 2.82239 134.739)" style="font:normal normal normal 200px 'Arial'" >
HO</text>
<text x="0" y="0" stroke="transparent" fill="#000000" transform="matrix(0.0666667 0 0 0.0666667 2.82239 54.7389)" style="font:normal normal normal 200px 'Arial'" >
HO</text>
<text x="0" y="0" stroke="transparent" fill="#000000" transform="matrix(0.0666667 0 0 0.0666667 81.7333 14.7389)" style="font:normal normal normal 200px 'Arial'" >
OH</text>
<path stroke="transparent" fill="#000000" transform="matrix(0.0666667 0 0 0.0666667 -32.0667 -9.33333)" d="M 2694.63,888.628 L 2754.63,992.551 L 2314.62,1189.51 L 2304.62,1183.08 L 2304.05,1171.21 L 2694.63,888.628 Z " />
<path stroke="transparent" fill="#000000" transform="matrix(0.0666667 0 0 0.0666667 -32.0667 -9.33333)" d="M 2314.62,1776.67 L 2304.62,1783.08 L 2294.62,1777.31 L 2294.62,1188.86 L 2304.62,1183.08 L 2314.62,1189.51 L 2314.62,1776.67 Z " />
<path stroke="transparent" fill="#000000" transform="matrix(0.0666667 0 0 0.0666667 -32.0667 -9.33333)" d="M 2761.61,1977.65 L 2701.61,2081.57 L 2304.06,1794.95 L 2304.62,1783.08 L 2314.62,1776.67 L 2761.61,1977.65 Z " />
<path stroke="transparent" fill="#000000" transform="matrix(0.0666667 0 0 0.0666667 -32.0667 -9.33333)" d="M 1795.55,2088.54 L 1785,2083.08 L 1785,2071.54 L 2294.62,1777.31 L 2304.62,1783.08 L 2304.06,1794.95 L 1795.55,2088.54 Z " />
<path stroke="transparent" fill="#000000" transform="matrix(0.0666667 0 0 0.0666667 -32.0667 -9.33333)" d="M 1845,2577.92 L 1725,2577.92 L 1774.45,2088.54 L 1785,2083.08 L 1795.55,2088.54 L 1845,2577.92 Z " />
<path stroke="transparent" fill="#000000" transform="matrix(0.0666667 0 0 0.0666667 -32.0667 -9.33333)" d="M 1255.38,1788.86 L 1275.38,1777.31 L 1785,2071.54 L 1785,2083.08 L 1774.45,2088.54 L 1255.38,1788.86 Z " />
<path stroke="transparent" fill="#000000" transform="matrix(0.0666667 0 0 0.0666667 -32.0667 -9.33333)" d="M 868.38,2081.58 L 808.38,1977.65 L 826.839,1969.63 L 884.562,2069.6 L 868.38,2081.58 Z " />
<path stroke="transparent" fill="#000000" transform="matrix(0.0666667 0 0 0.0666667 -32.0667 -9.33333)" d="M 916.816,2045.74 L 863.633,1953.62 L 882.093,1945.6 L 932.998,2033.77 L 916.816,2045.74 Z " />
<path stroke="transparent" fill="#000000" transform="matrix(0.0666667 0 0 0.0666667 -32.0667 -9.33333)" d="M 965.252,2009.9 L 918.887,1929.6 L 937.346,1921.57 L 981.434,1997.93 L 965.252,2009.9 Z " />
<path stroke="transparent" fill="#000000" transform="matrix(0.0666667 0 0 0.0666667 -32.0667 -9.33333)" d="M 1013.69,1974.07 L 974.14,1905.57 L 992.6,1897.54 L 1029.87,1962.09 L 1013.69,1974.07 Z " />
<path stroke="transparent" fill="#000000" transform="matrix(0.0666667 0 0 0.0666667 -32.0667 -9.33333)" d="M 1062.12,1938.23 L 1029.39,1881.54 L 1047.85,1873.51 L 1078.31,1926.26 L 1062.12,1938.23 Z " />
<path stroke="transparent" fill="#000000" transform="matrix(0.0666667 0 0 0.0666667 -32.0667 -9.33333)" d="M 1110.56,1902.39 L 1084.65,1857.51 L 1103.11,1849.48 L 1126.74,1890.42 L 1110.56,1902.39 Z " />
<path stroke="transparent" fill="#000000" transform="matrix(0.0666667 0 0 0.0666667 -32.0667 -9.33333)" d="M 1159,1866.56 L 1139.9,1833.48 L 1158.36,1825.45 L 1175.18,1854.58 L 1159,1866.56 Z " />
<path stroke="transparent" fill="#000000" transform="matrix(0.0666667 0 0 0.0666667 -32.0667 -9.33333)" d="M 1207.43,1830.72 L 1195.15,1809.45 L 1213.61,1801.43 L 1223.61,1818.75 L 1207.43,1830.72 Z " />
<path stroke="transparent" fill="#000000" transform="matrix(0.0666667 0 0 0.0666667 -32.0667 -9.33333)" d="M 1255.38,1189.51 L 1265.38,1183.08 L 1275.38,1188.86 L 1275.38,1777.31 L 1255.38,1788.86 L 1255.38,1189.51 Z " />
<path stroke="transparent" fill="#000000" transform="matrix(0.0666667 0 0 0.0666667 -32.0667 -9.33333)" d="M 815.798,992.796 L 875.798,888.873 L 1265.95,1171.21 L 1265.38,1183.08 L 1255.38,1189.51 L 815.798,992.796 Z " />
<path stroke="transparent" fill="#000000" transform="matrix(0.0666667 0 0 0.0666667 -32.0667 -9.33333)" d="M 1785,871.536 L 1785,894.63 L 1275.38,1188.86 L 1265.38,1183.08 L 1265.95,1171.21 L 1785,871.536 Z " />
<path stroke="transparent" fill="#000000" transform="matrix(0.0666667 0 0 0.0666667 -32.0667 -9.33333)" d="M 1785,894.63 L 1785,871.536 L 2304.05,1171.21 L 2304.62,1183.08 L 2294.62,1188.86 L 1785,894.63 Z " />
<path stroke="transparent" fill="#000000" transform="matrix(0.0666667 0 0 0.0666667 -32.0667 -9.33333)" d="M 1725,402.917 L 1845,402.917 L 1842.65,422.917 L 1727.35,422.917 L 1725,402.917 Z " />
<path stroke="transparent" fill="#000000" transform="matrix(0.0666667 0 0 0.0666667 -32.0667 -9.33333)" d="M 1731.81,460.938 L 1838.19,460.938 L 1835.85,480.938 L 1734.15,480.938 L 1731.81,460.938 Z " />
<path stroke="transparent" fill="#000000" transform="matrix(0.0666667 0 0 0.0666667 -32.0667 -9.33333)" d="M 1738.62,518.959 L 1831.38,518.959 L 1829.04,538.959 L 1740.96,538.959 L 1738.62,518.959 Z " />
<path stroke="transparent" fill="#000000" transform="matrix(0.0666667 0 0 0.0666667 -32.0667 -9.33333)" d="M 1745.42,576.98 L 1824.58,576.98 L 1822.23,596.98 L 1747.77,596.98 L 1745.42,576.98 Z " />
<path stroke="transparent" fill="#000000" transform="matrix(0.0666667 0 0 0.0666667 -32.0667 -9.33333)" d="M 1752.23,635.001 L 1817.77,635.001 L 1815.42,655.001 L 1754.58,655.001 L 1752.23,635.001 Z " />
<path stroke="transparent" fill="#000000" transform="matrix(0.0666667 0 0 0.0666667 -32.0667 -9.33333)" d="M 1759.04,693.022 L 1810.96,693.022 L 1808.62,713.022 L 1761.38,713.022 L 1759.04,693.022 Z " />
<path stroke="transparent" fill="#000000" transform="matrix(0.0666667 0 0 0.0666667 -32.0667 -9.33333)" d="M 1765.85,751.044 L 1804.15,751.044 L 1801.81,771.044 L 1768.19,771.044 L 1765.85,751.044 Z " />
<path stroke="transparent" fill="#000000" transform="matrix(0.0666667 0 0 0.0666667 -32.0667 -9.33333)" d="M 1772.65,809.065 L 1797.35,809.065 L 1795,829.065 L 1775,829.065 L 1772.65,809.065 Z " />
</svg>
