<?xml version="1.0" standalone="no" ?>
<!DOCTYPE svg PUBLIC "-//W3C//DTD SVG 1.1//EN" "http://www.w3.org/Graphics/SVG/1.1/DTD/svg11.dtd">
<svg width="309px" height="54px" viewBox="0 0 309 54" style="background-color: #ffffffff" xmlns="http://www.w3.org/2000/svg" xmlns:xlink="http://www.w3.org/1999/xlink" version="1.1" >
<text x="0" y="0" stroke="transparent" fill="#000000" transform="matrix(0.05 0 0 0.05 261.419 16.1308)" style="font:normal normal normal 326.347px 'Arial'" >
O</text>
<text x="0" y="0" stroke="transparent" fill="#000000" transform="matrix(0.05 0 0 0.05 281.768 51.377)" style="font:normal normal normal 326.347px 'Arial'" >
OH</text>
<path stroke="transparent" fill="#000000" transform="matrix(0.05 0 0 0.05 -265 -118)" d="M 10248.3,3285.53 L 10248.3,3262.92 L 10655.3,3027.95 L 10655.3,3050.56 L 10248.3,3285.53 Z " />
<path stroke="transparent" fill="#000000" transform="matrix(0.05 0 0 0.05 -265 -118)" d="M 9841.35,3050.56 L 9841.35,3027.95 L 10248.3,3262.92 L 10248.3,3285.53 L 9841.35,3050.56 Z " />
<path stroke="transparent" fill="#000000" transform="matrix(0.05 0 0 0.05 -265 -118)" d="M 9434.37,3285.53 L 9434.37,3262.92 L 9841.35,3027.95 L 9841.35,3050.56 L 9434.37,3285.53 Z " />
<path stroke="transparent" fill="#000000" transform="matrix(0.05 0 0 0.05 -265 -118)" d="M 9027.39,3050.56 L 9027.39,3027.95 L 9434.37,3262.92 L 9434.37,3285.53 L 9027.39,3050.56 Z " />
<path stroke="transparent" fill="#000000" transform="matrix(0.05 0 0 0.05 -265 -118)" d="M 8620.42,3285.53 L 8620.42,3262.92 L 9027.39,3027.95 L 9027.39,3050.56 L 8620.42,3285.53 Z " />
<path stroke="transparent" fill="#000000" transform="matrix(0.05 0 0 0.05 -265 -118)" d="M 8213.44,3050.56 L 8213.44,3027.95 L 8620.42,3262.92 L 8620.42,3285.53 L 8213.44,3050.56 Z " />
<path stroke="transparent" fill="#000000" transform="matrix(0.05 0 0 0.05 -265 -118)" d="M 7806.46,3285.53 L 7806.46,3262.92 L 8213.44,3027.95 L 8213.44,3050.56 L 7806.46,3285.53 Z " />
<path stroke="transparent" fill="#000000" transform="matrix(0.05 0 0 0.05 -265 -118)" d="M 7399.49,3050.56 L 7399.49,3027.95 L 7806.46,3262.92 L 7806.46,3285.53 L 7399.49,3050.56 Z " />
<path stroke="transparent" fill="#000000" transform="matrix(0.05 0 0 0.05 -265 -118)" d="M 6992.51,3285.53 L 6992.51,3262.92 L 7399.49,3027.95 L 7399.49,3050.56 L 6992.51,3285.53 Z " />
<path stroke="transparent" fill="#000000" transform="matrix(0.05 0 0 0.05 -265 -118)" d="M 6585.54,3050.56 L 6585.54,3027.95 L 6992.51,3262.92 L 6992.51,3285.53 L 6585.54,3050.56 Z " />
<path stroke="transparent" fill="#000000" transform="matrix(0.05 0 0 0.05 -265 -118)" d="M 6178.56,3285.53 L 6178.56,3262.92 L 6585.54,3027.95 L 6585.54,3050.56 L 6178.56,3285.53 Z " />
<path stroke="transparent" fill="#000000" transform="matrix(0.05 0 0 0.05 -265 -118)" d="M 5771.43,3050.55 L 5771.43,3027.95 L 6178.56,3262.92 L 6178.56,3285.53 L 5771.43,3050.55 Z " />
<path stroke="transparent" fill="#000000" transform="matrix(0.05 0 0 0.05 -265 -118)" d="M 5369.34,3282.7 L 5359.55,3265.75 L 5771.43,3027.95 L 5771.43,3050.55 L 5369.34,3282.7 Z " />
<path stroke="transparent" fill="#000000" transform="matrix(0.05 0 0 0.05 -265 -118)" d="M 10603.2,2738 L 10622.8,2738 L 10622.8,3063.67 L 10603.2,3063.67 L 10603.2,2738 Z " />
<path stroke="transparent" fill="#000000" transform="matrix(0.05 0 0 0.05 -265 -118)" d="M 10687.8,2738 L 10707.4,2738 L 10707.4,3063.67 L 10687.8,3063.67 L 10687.8,2738 Z " />
<path stroke="transparent" fill="#000000" transform="matrix(0.05 0 0 0.05 -265 -118)" d="M 10918.6,3179.97 L 10908.8,3196.93 L 10655.3,3050.56 L 10655.3,3027.95 L 10918.6,3179.97 Z " />
</svg>
