<?xml version="1.0" standalone="no" ?>
<!DOCTYPE svg PUBLIC "-//W3C//DTD SVG 1.1//EN" "http://www.w3.org/Graphics/SVG/1.1/DTD/svg11.dtd">
<svg width="314px" height="139px" viewBox="0 0 314 139" style="background-color: #ffffff00" xmlns="http://www.w3.org/2000/svg" xmlns:xlink="http://www.w3.org/1999/xlink" version="1.1" >
<text x="0" y="0" stroke="transparent" fill="#000000" transform="matrix(0.0666667 0 0 0.0666667 58.6053 35.4399)" style="font:normal normal normal 200px 'Arial'" >
N</text>
<text x="0" y="0" stroke="transparent" fill="#000000" transform="matrix(0.0666667 0 0 0.0666667 97.0274 135.221)" style="font:normal normal normal 200px 'Arial'" >
O</text>
<text x="0" y="0" stroke="transparent" fill="#000000" transform="matrix(0.0666667 0 0 0.0666667 131.668 75.2208)" style="font:normal normal normal 200px 'Arial'" >
O</text>
<path stroke="transparent" fill="#000000" transform="matrix(0.0666667 0 0 0.0666667 -33.0667 -28.3333)" d="M 1520.5,1481.49 L 1499.09,1469.13 L 1449.53,997.561 L 1469.42,995.471 L 1520.5,1481.49 Z " />
<path stroke="transparent" fill="#000000" transform="matrix(0.0666667 0 0 0.0666667 -33.0667 -28.3333)" d="M 2012.65,1696.35 L 1952.65,1800.27 L 1936.34,1788.51 L 1994.31,1688.11 L 2012.65,1696.35 Z " />
<path stroke="transparent" fill="#000000" transform="matrix(0.0666667 0 0 0.0666667 -33.0667 -28.3333)" d="M 1958.55,1672.04 L 1904.55,1765.58 L 1888.24,1753.82 L 1940.22,1663.8 L 1958.55,1672.04 Z " />
<path stroke="transparent" fill="#000000" transform="matrix(0.0666667 0 0 0.0666667 -33.0667 -28.3333)" d="M 1904.46,1647.74 L 1856.45,1730.89 L 1840.15,1719.13 L 1886.12,1639.5 L 1904.46,1647.74 Z " />
<path stroke="transparent" fill="#000000" transform="matrix(0.0666667 0 0 0.0666667 -33.0667 -28.3333)" d="M 1850.37,1623.43 L 1808.35,1696.2 L 1792.05,1684.43 L 1832.03,1615.19 L 1850.37,1623.43 Z " />
<path stroke="transparent" fill="#000000" transform="matrix(0.0666667 0 0 0.0666667 -33.0667 -28.3333)" d="M 1796.27,1599.12 L 1760.26,1661.5 L 1743.95,1649.74 L 1777.94,1590.88 L 1796.27,1599.12 Z " />
<path stroke="transparent" fill="#000000" transform="matrix(0.0666667 0 0 0.0666667 -33.0667 -28.3333)" d="M 1742.18,1574.81 L 1712.16,1626.81 L 1695.85,1615.05 L 1723.84,1566.57 L 1742.18,1574.81 Z " />
<path stroke="transparent" fill="#000000" transform="matrix(0.0666667 0 0 0.0666667 -33.0667 -28.3333)" d="M 1688.09,1550.51 L 1664.06,1592.12 L 1647.76,1580.36 L 1669.75,1542.27 L 1688.09,1550.51 Z " />
<path stroke="transparent" fill="#000000" transform="matrix(0.0666667 0 0 0.0666667 -33.0667 -28.3333)" d="M 1633.99,1526.2 L 1615.96,1557.42 L 1599.66,1545.66 L 1615.65,1517.96 L 1633.99,1526.2 Z " />
<path stroke="transparent" fill="#000000" transform="matrix(0.0666667 0 0 0.0666667 -33.0667 -28.3333)" d="M 1579.9,1501.89 L 1567.87,1522.73 L 1551.56,1510.97 L 1561.56,1493.65 L 1579.9,1501.89 Z " />
<path stroke="transparent" fill="#000000" transform="matrix(0.0666667 0 0 0.0666667 -33.0667 -28.3333)" d="M 959.099,1731.44 L 964.239,1707.26 L 1499.09,1469.13 L 1520.5,1481.49 L 959.099,1731.44 Z " />
<path stroke="transparent" fill="#000000" transform="matrix(0.0666667 0 0 0.0666667 -33.0667 -28.3333)" d="M 547.897,1274.76 L 572.483,1272.17 L 964.239,1707.26 L 959.099,1731.44 L 547.897,1274.76 Z " />
<path stroke="transparent" fill="#000000" transform="matrix(0.0666667 0 0 0.0666667 -33.0667 -28.3333)" d="M 855.163,742.559 L 865.218,765.143 L 572.483,1272.17 L 547.897,1274.76 L 855.163,742.559 Z " />
<path stroke="transparent" fill="#000000" transform="matrix(0.0666667 0 0 0.0666667 -33.0667 -28.3333)" d="M 865.218,765.143 L 855.163,742.559 L 1343.64,846.388 L 1339.48,865.951 L 865.218,765.143 Z " />
<path stroke="transparent" fill="#000000" transform="matrix(0.0666667 0 0 0.0666667 -33.0667 -28.3333)" d="M 2075.41,2270.14 L 2055.41,2270.14 L 2055.41,1754.53 L 2075.41,1754.53 L 2075.41,2270.14 Z " />
<path stroke="transparent" fill="#000000" transform="matrix(0.0666667 0 0 0.0666667 -33.0667 -28.3333)" d="M 2003.41,2270.14 L 1983.41,2270.14 L 1983.41,1754.53 L 2003.41,1754.53 L 2003.41,2270.14 Z " />
<path stroke="transparent" fill="#000000" transform="matrix(0.0666667 0 0 0.0666667 -33.0667 -28.3333)" d="M 2444.42,1524.16 L 2454.42,1541.48 L 2034.41,1783.97 L 2024.41,1766.65 L 2444.42,1524.16 Z " />
<path stroke="transparent" fill="#000000" transform="matrix(0.0666667 0 0 0.0666667 -33.0667 -28.3333)" d="M 1886.27,469.689 L 1899.66,484.551 L 1545.75,803.211 L 1532.37,788.348 L 1886.27,469.689 Z " />
<path stroke="transparent" fill="#000000" transform="matrix(0.0666667 0 0 0.0666667 -33.0667 -28.3333)" d="M 3588.26,1463.76 L 3588.26,1486.86 L 3068.64,1786.86 L 3068.64,1763.76 L 3588.26,1463.76 Z " />
<path stroke="transparent" fill="#000000" transform="matrix(0.0666667 0 0 0.0666667 -33.0667 -28.3333)" d="M 4107.87,1763.76 L 4107.87,1786.86 L 3588.26,1486.86 L 3588.26,1463.76 L 4107.87,1763.76 Z " />
<path stroke="transparent" fill="#000000" transform="matrix(0.0666667 0 0 0.0666667 -33.0667 -28.3333)" d="M 4627.49,1463.76 L 4627.49,1486.86 L 4107.87,1786.86 L 4107.87,1763.76 L 4627.49,1463.76 Z " />
<path stroke="transparent" fill="#000000" transform="matrix(0.0666667 0 0 0.0666667 -33.0667 -28.3333)" d="M 5152.1,1766.65 L 5142.1,1783.97 L 4627.49,1486.86 L 4627.49,1463.76 L 5152.1,1766.65 Z " />
<path stroke="transparent" fill="#000000" transform="matrix(0.0666667 0 0 0.0666667 -33.0667 -28.3333)" d="M 3068.64,1763.76 L 3068.64,1786.86 L 2644.06,1541.73 L 2654.06,1524.41 L 3068.64,1763.76 Z " />
</svg>
