<?xml version="1.0" standalone="no" ?>
<!DOCTYPE svg PUBLIC "-//W3C//DTD SVG 1.1//EN" "http://www.w3.org/Graphics/SVG/1.1/DTD/svg11.dtd">
<svg width="210px" height="139px" viewBox="0 0 210 139" style="background-color: #ffffff00" xmlns="http://www.w3.org/2000/svg" xmlns:xlink="http://www.w3.org/1999/xlink" version="1.1" >
<text x="0" y="0" stroke="transparent" fill="#000000" transform="matrix(0.0666667 0 0 0.0666667 58.5668 35.4399)" style="font:normal normal normal 200px 'Arial'" >
N</text>
<text x="0" y="0" stroke="transparent" fill="#000000" transform="matrix(0.0666667 0 0 0.0666667 96.9889 135.221)" style="font:normal normal normal 200px 'Arial'" >
O</text>
<text x="0" y="0" stroke="transparent" fill="#000000" transform="matrix(0.0666667 0 0 0.0666667 131.63 75.2208)" style="font:normal normal normal 200px 'Arial'" >
O</text>
<text x="0" y="0" stroke="transparent" fill="#000000" transform="matrix(0.0666667 0 0 0.0666667 165.543 95.2208)" style="font:normal normal normal 200px 'Arial'" >
Si</text>
<path stroke="transparent" fill="#000000" transform="matrix(0.0666667 0 0 0.0666667 -38.0667 -19.3333)" d="M 1594.92,1346.49 L 1573.51,1334.13 L 1523.95,862.561 L 1543.84,860.471 L 1594.92,1346.49 Z " />
<path stroke="transparent" fill="#000000" transform="matrix(0.0666667 0 0 0.0666667 -38.0667 -19.3333)" d="M 2086.99,1561.3 L 2026.99,1665.23 L 2010.69,1653.47 L 2068.65,1553.07 L 2086.99,1561.3 Z " />
<path stroke="transparent" fill="#000000" transform="matrix(0.0666667 0 0 0.0666667 -38.0667 -19.3333)" d="M 2032.92,1537.01 L 1978.91,1630.55 L 1962.61,1618.79 L 2014.58,1528.77 L 2032.92,1537.01 Z " />
<path stroke="transparent" fill="#000000" transform="matrix(0.0666667 0 0 0.0666667 -38.0667 -19.3333)" d="M 1978.84,1512.71 L 1930.83,1595.87 L 1914.53,1584.1 L 1960.51,1504.47 L 1978.84,1512.71 Z " />
<path stroke="transparent" fill="#000000" transform="matrix(0.0666667 0 0 0.0666667 -38.0667 -19.3333)" d="M 1924.77,1488.42 L 1882.76,1561.18 L 1866.45,1549.42 L 1906.43,1480.18 L 1924.77,1488.42 Z " />
<path stroke="transparent" fill="#000000" transform="matrix(0.0666667 0 0 0.0666667 -38.0667 -19.3333)" d="M 1870.7,1464.12 L 1834.68,1526.5 L 1818.37,1514.74 L 1852.36,1455.88 L 1870.7,1464.12 Z " />
<path stroke="transparent" fill="#000000" transform="matrix(0.0666667 0 0 0.0666667 -38.0667 -19.3333)" d="M 1816.62,1439.82 L 1786.6,1491.82 L 1770.3,1480.06 L 1798.28,1431.58 L 1816.62,1439.82 Z " />
<path stroke="transparent" fill="#000000" transform="matrix(0.0666667 0 0 0.0666667 -38.0667 -19.3333)" d="M 1762.55,1415.53 L 1738.52,1457.14 L 1722.22,1445.38 L 1744.21,1407.29 L 1762.55,1415.53 Z " />
<path stroke="transparent" fill="#000000" transform="matrix(0.0666667 0 0 0.0666667 -38.0667 -19.3333)" d="M 1708.47,1391.23 L 1690.44,1422.46 L 1674.14,1410.7 L 1690.14,1382.99 L 1708.47,1391.23 Z " />
<path stroke="transparent" fill="#000000" transform="matrix(0.0666667 0 0 0.0666667 -38.0667 -19.3333)" d="M 1654.4,1366.94 L 1642.37,1387.78 L 1626.06,1376.02 L 1636.06,1358.7 L 1654.4,1366.94 Z " />
<path stroke="transparent" fill="#000000" transform="matrix(0.0666667 0 0 0.0666667 -38.0667 -19.3333)" d="M 1033.52,1596.44 L 1038.66,1572.26 L 1573.51,1334.13 L 1594.92,1346.49 L 1033.52,1596.44 Z " />
<path stroke="transparent" fill="#000000" transform="matrix(0.0666667 0 0 0.0666667 -38.0667 -19.3333)" d="M 622.32,1139.76 L 646.906,1137.17 L 1038.66,1572.26 L 1033.52,1596.44 L 622.32,1139.76 Z " />
<path stroke="transparent" fill="#000000" transform="matrix(0.0666667 0 0 0.0666667 -38.0667 -19.3333)" d="M 929.586,607.559 L 939.641,630.143 L 646.906,1137.17 L 622.32,1139.76 L 929.586,607.559 Z " />
<path stroke="transparent" fill="#000000" transform="matrix(0.0666667 0 0 0.0666667 -38.0667 -19.3333)" d="M 939.641,630.143 L 929.586,607.559 L 1418.06,711.388 L 1413.91,730.951 L 939.641,630.143 Z " />
<path stroke="transparent" fill="#000000" transform="matrix(0.0666667 0 0 0.0666667 -38.0667 -19.3333)" d="M 2149.83,2135.14 L 2129.83,2135.14 L 2129.83,1619.53 L 2149.83,1619.53 L 2149.83,2135.14 Z " />
<path stroke="transparent" fill="#000000" transform="matrix(0.0666667 0 0 0.0666667 -38.0667 -19.3333)" d="M 2077.83,2135.14 L 2057.83,2135.14 L 2057.83,1619.53 L 2077.83,1619.53 L 2077.83,2135.14 Z " />
<path stroke="transparent" fill="#000000" transform="matrix(0.0666667 0 0 0.0666667 -38.0667 -19.3333)" d="M 2518.85,1389.16 L 2528.85,1406.48 L 2108.83,1648.97 L 2098.83,1631.65 L 2518.85,1389.16 Z " />
<path stroke="transparent" fill="#000000" transform="matrix(0.0666667 0 0 0.0666667 -38.0667 -19.3333)" d="M 1960.7,334.689 L 1974.08,349.551 L 1620.17,668.211 L 1606.79,653.348 L 1960.7,334.689 Z " />
<path stroke="transparent" fill="#000000" transform="matrix(0.0666667 0 0 0.0666667 -38.0667 -19.3333)" d="M 3667.68,1931.65 L 3657.68,1948.97 L 3263.66,1721.48 L 3273.66,1704.16 L 3667.68,1931.65 Z " />
<path stroke="transparent" fill="#000000" transform="matrix(0.0666667 0 0 0.0666667 -38.0667 -19.3333)" d="M 3153.06,2240.31 L 3133.06,2240.31 L 3133.06,1760.31 L 3153.06,1760.31 L 3153.06,2240.31 Z " />
<path stroke="transparent" fill="#000000" transform="matrix(0.0666667 0 0 0.0666667 -38.0667 -19.3333)" d="M 3657.68,1331.65 L 3667.68,1348.97 L 3266.3,1580.71 L 3256.3,1563.39 L 3657.68,1331.65 Z " />
<path stroke="transparent" fill="#000000" transform="matrix(0.0666667 0 0 0.0666667 -38.0667 -19.3333)" d="M 3042.25,1570.56 L 3032.25,1587.88 L 2718.49,1406.73 L 2728.49,1389.41 L 3042.25,1570.56 Z " />
</svg>
