<?xml version="1.0" standalone="no" ?>
<!DOCTYPE svg PUBLIC "-//W3C//DTD SVG 1.1//EN" "http://www.w3.org/Graphics/SVG/1.1/DTD/svg11.dtd">
<svg width="160px" height="137px" viewBox="0 0 160 137" style="background-color: #ffffff00" xmlns="http://www.w3.org/2000/svg" xmlns:xlink="http://www.w3.org/1999/xlink" version="1.1" >
<text x="0" y="0" stroke="transparent" fill="#000000" transform="matrix(0.0666667 0 0 0.0666667 33.4107 134.272)" style="font:normal normal normal 200px 'Arial'" >
N</text>
<text x="0" y="0" stroke="transparent" fill="#000000" transform="matrix(0.0666667 0 0 0.0666667 136.933 74.2722)" style="font:normal normal normal 200px 'Arial'" >
OH</text>
<text x="0" y="0" stroke="transparent" fill="#000000" transform="matrix(0.0666667 0 0 0.0666667 102.293 14.2726)" style="font:normal normal normal 200px 'Arial'" >
O</text>
<path stroke="transparent" fill="#000000" transform="matrix(0.0666667 0 0 0.0666667 -26.0667 -10.8667)" d="M 454.569,1793.31 L 434.569,1804.86 L 434.569,1193.31 L 454.569,1204.86 L 454.569,1793.31 Z " />
<path stroke="transparent" fill="#000000" transform="matrix(0.0666667 0 0 0.0666667 -26.0667 -10.8667)" d="M 526.569,1757.51 L 506.569,1757.51 L 506.569,1240.65 L 526.569,1240.65 L 526.569,1757.51 Z " />
<path stroke="transparent" fill="#000000" transform="matrix(0.0666667 0 0 0.0666667 -26.0667 -10.8667)" d="M 865.313,2030.46 L 855.313,2047.78 L 434.569,1804.86 L 454.569,1793.31 L 865.313,2030.46 Z " />
<path stroke="transparent" fill="#000000" transform="matrix(0.0666667 0 0 0.0666667 -26.0667 -10.8667)" d="M 1473.8,1793.31 L 1493.8,1804.86 L 1073.01,2047.78 L 1063.01,2030.46 L 1473.8,1793.31 Z " />
<path stroke="transparent" fill="#000000" transform="matrix(0.0666667 0 0 0.0666667 -26.0667 -10.8667)" d="M 1406.8,1748.85 L 1416.8,1766.17 L 1037.01,1985.43 L 1027.01,1968.11 L 1406.8,1748.85 Z " />
<path stroke="transparent" fill="#000000" transform="matrix(0.0666667 0 0 0.0666667 -26.0667 -10.8667)" d="M 1473.8,1204.86 L 1483.8,1199.08 L 1493.8,1204.86 L 1493.8,1804.86 L 1473.8,1793.31 L 1473.8,1204.86 Z " />
<path stroke="transparent" fill="#000000" transform="matrix(0.0666667 0 0 0.0666667 -26.0667 -10.8667)" d="M 964.161,910.637 L 964.161,887.543 L 1483.8,1187.54 L 1483.8,1199.08 L 1473.8,1204.86 L 964.161,910.637 Z " />
<path stroke="transparent" fill="#000000" transform="matrix(0.0666667 0 0 0.0666667 -26.0667 -10.8667)" d="M 959.163,990.891 L 969.163,973.57 L 1416.8,1232 L 1406.8,1249.32 L 959.163,990.891 Z " />
<path stroke="transparent" fill="#000000" transform="matrix(0.0666667 0 0 0.0666667 -26.0667 -10.8667)" d="M 454.569,1204.86 L 434.569,1193.31 L 964.161,887.543 L 964.161,910.637 L 454.569,1204.86 Z " />
<path stroke="transparent" fill="#000000" transform="matrix(0.0666667 0 0 0.0666667 -26.0667 -10.8667)" d="M 2003.4,887.543 L 2003.4,910.637 L 1493.8,1204.86 L 1483.8,1199.08 L 1483.8,1187.54 L 2003.4,887.543 Z " />
<path stroke="transparent" fill="#000000" transform="matrix(0.0666667 0 0 0.0666667 -26.0667 -10.8667)" d="M 2435.38,1136.95 L 2425.38,1154.27 L 2003.4,910.637 L 2003.4,887.543 L 2435.38,1136.95 Z " />
<path stroke="transparent" fill="#000000" transform="matrix(0.0666667 0 0 0.0666667 -26.0667 -10.8667)" d="M 1957.4,418.923 L 1977.4,418.923 L 1977.4,919.875 L 1957.4,919.875 L 1957.4,418.923 Z " />
<path stroke="transparent" fill="#000000" transform="matrix(0.0666667 0 0 0.0666667 -26.0667 -10.8667)" d="M 2029.4,418.923 L 2049.4,418.923 L 2049.4,919.875 L 2029.4,919.875 L 2029.4,418.923 Z " />
</svg>
