<?xml version="1.0" standalone="no" ?>
<!DOCTYPE svg PUBLIC "-//W3C//DTD SVG 1.1//EN" "http://www.w3.org/Graphics/SVG/1.1/DTD/svg11.dtd">
<svg width="177px" height="141px" viewBox="0 0 177 141" style="background-color: #ffffffff" xmlns="http://www.w3.org/2000/svg" xmlns:xlink="http://www.w3.org/1999/xlink" version="1.1" >
<text x="0" y="0" stroke="transparent" fill="#000000" transform="matrix(0.05 0 0 0.05 26.7192 138.315)" style="font:normal normal normal 527px 'Arial'" >
N</text>
<text x="0" y="0" stroke="transparent" fill="#000000" transform="matrix(0.05 0 0 0.05 91.7062 24.4808)" style="font:normal normal normal 527px 'Arial'" >
O</text>
<text x="0" y="0" stroke="transparent" fill="#000000" transform="matrix(0.05 0 0 0.05 125.3 81.398)" style="font:normal normal normal 527px 'Arial'" >
NH</text>
<text x="0" y="0" stroke="transparent" fill="#000000" transform="matrix(0.05 0 0 0.05 163.358 85.6433)" style="font:normal normal normal 395.25px 'Arial'" >
2</text>
<path stroke="transparent" fill="#000000" transform="matrix(0.05 0 0 0.05 -348 -93)" d="M 8326.07,3314.1 L 8341.88,3304.97 L 8357.69,3314.1 L 8357.69,4073 L 8326.07,4054.74 L 8326.07,3314.1 Z " />
<path stroke="transparent" fill="#000000" transform="matrix(0.05 0 0 0.05 -348 -93)" d="M 7684.67,2943.78 L 7684.67,2907.27 L 8341.88,3286.72 L 8341.88,3304.97 L 8326.07,3314.1 L 7684.67,2943.78 Z " />
<path stroke="transparent" fill="#000000" transform="matrix(0.05 0 0 0.05 -348 -93)" d="M 7676.77,3096.95 L 7692.58,3069.57 L 8213.19,3370.15 L 8197.38,3397.53 L 7676.77,3096.95 Z " />
<path stroke="transparent" fill="#000000" transform="matrix(0.05 0 0 0.05 -348 -93)" d="M 7043.28,3314.1 L 7011.66,3295.85 L 7684.67,2907.27 L 7684.67,2943.78 L 7043.28,3314.1 Z " />
<path stroke="transparent" fill="#000000" transform="matrix(0.05 0 0 0.05 -348 -93)" d="M 7043.28,4054.74 L 7011.66,4073 L 7011.66,3295.85 L 7043.28,3314.1 L 7043.28,4054.74 Z " />
<path stroke="transparent" fill="#000000" transform="matrix(0.05 0 0 0.05 -348 -93)" d="M 7179.88,3985 L 7148.26,3985 L 7148.26,3383.84 L 7179.88,3383.84 L 7179.88,3985 Z " />
<path stroke="transparent" fill="#000000" transform="matrix(0.05 0 0 0.05 -348 -93)" d="M 7422.47,4273.67 L 7406.66,4301.06 L 7011.66,4073 L 7043.28,4054.74 L 7422.47,4273.67 Z " />
<path stroke="transparent" fill="#000000" transform="matrix(0.05 0 0 0.05 -348 -93)" d="M 7960,4302.61 L 7944.19,4275.22 L 8326.07,4054.74 L 8357.69,4073 L 7960,4302.61 Z " />
<path stroke="transparent" fill="#000000" transform="matrix(0.05 0 0 0.05 -348 -93)" d="M 7891.7,4184.31 L 7875.89,4156.93 L 8197.38,3971.31 L 8213.19,3998.7 L 7891.7,4184.31 Z " />
<path stroke="transparent" fill="#000000" transform="matrix(0.05 0 0 0.05 -348 -93)" d="M 8914.97,2440.1 L 8946.59,2440.1 L 8946.59,2964.96 L 8914.97,2964.96 L 8914.97,2440.1 Z " />
<path stroke="transparent" fill="#000000" transform="matrix(0.05 0 0 0.05 -348 -93)" d="M 9051.57,2440.1 L 9083.19,2440.1 L 9083.19,2964.96 L 9051.57,2964.96 L 9051.57,2440.1 Z " />
<path stroke="transparent" fill="#000000" transform="matrix(0.05 0 0 0.05 -348 -93)" d="M 9394.08,3135.33 L 9378.27,3162.71 L 8999.08,2943.78 L 8999.08,2907.27 L 9394.08,3135.33 Z " />
<path stroke="transparent" fill="#000000" transform="matrix(0.05 0 0 0.05 -348 -93)" d="M 8999.08,2907.27 L 8999.08,2943.78 L 8357.69,3314.1 L 8341.88,3304.97 L 8341.88,3286.72 L 8999.08,2907.27 Z " />
</svg>
