<?xml version="1.0" standalone="no" ?>
<!DOCTYPE svg PUBLIC "-//W3C//DTD SVG 1.1//EN" "http://www.w3.org/Graphics/SVG/1.1/DTD/svg11.dtd">
<svg width="630px" height="28px" viewBox="0 0 630 28" style="background-color: #ffffff00" xmlns="http://www.w3.org/2000/svg" xmlns:xlink="http://www.w3.org/1999/xlink" version="1.1" >
<path stroke="transparent" fill="#000000" transform="matrix(0.0666667 0 0 0.0666667 -21.0667 -65.3333)" d="M 883.078,1030.95 L 883.078,1054.05 L 368.463,1351.16 L 358.463,1333.84 L 883.078,1030.95 Z " />
<path stroke="transparent" fill="#000000" transform="matrix(0.0666667 0 0 0.0666667 -21.0667 -65.3333)" d="M 1402.69,1330.95 L 1402.69,1354.05 L 883.078,1054.05 L 883.078,1030.95 L 1402.69,1330.95 Z " />
<path stroke="transparent" fill="#000000" transform="matrix(0.0666667 0 0 0.0666667 -21.0667 -65.3333)" d="M 1922.31,1030.95 L 1922.31,1054.05 L 1402.69,1354.05 L 1402.69,1330.95 L 1922.31,1030.95 Z " />
<path stroke="transparent" fill="#000000" transform="matrix(0.0666667 0 0 0.0666667 -21.0667 -65.3333)" d="M 2441.92,1330.95 L 2441.92,1354.05 L 1922.31,1054.05 L 1922.31,1030.95 L 2441.92,1330.95 Z " />
<path stroke="transparent" fill="#000000" transform="matrix(0.0666667 0 0 0.0666667 -21.0667 -65.3333)" d="M 2961.54,1030.95 L 2961.54,1054.05 L 2441.92,1354.05 L 2441.92,1330.95 L 2961.54,1030.95 Z " />
<path stroke="transparent" fill="#000000" transform="matrix(0.0666667 0 0 0.0666667 -21.0667 -65.3333)" d="M 3481.15,1330.95 L 3481.15,1354.05 L 2961.54,1054.05 L 2961.54,1030.95 L 3481.15,1330.95 Z " />
<path stroke="transparent" fill="#000000" transform="matrix(0.0666667 0 0 0.0666667 -21.0667 -65.3333)" d="M 4000.77,1030.95 L 4000.77,1054.05 L 3481.15,1354.05 L 3481.15,1330.95 L 4000.77,1030.95 Z " />
<path stroke="transparent" fill="#000000" transform="matrix(0.0666667 0 0 0.0666667 -21.0667 -65.3333)" d="M 4520.38,1330.95 L 4520.38,1354.05 L 4000.77,1054.05 L 4000.77,1030.95 L 4520.38,1330.95 Z " />
<path stroke="transparent" fill="#000000" transform="matrix(0.0666667 0 0 0.0666667 -21.0667 -65.3333)" d="M 5040,1030.95 L 5040,1054.05 L 4520.38,1354.05 L 4520.38,1330.95 L 5040,1030.95 Z " />
<path stroke="transparent" fill="#000000" transform="matrix(0.0666667 0 0 0.0666667 -21.0667 -65.3333)" d="M 5559.62,1330.95 L 5559.62,1354.05 L 5040,1054.05 L 5040,1030.95 L 5559.62,1330.95 Z " />
<path stroke="transparent" fill="#000000" transform="matrix(0.0666667 0 0 0.0666667 -21.0667 -65.3333)" d="M 6079.23,1030.95 L 6079.23,1054.05 L 5559.62,1354.05 L 5559.62,1330.95 L 6079.23,1030.95 Z " />
<path stroke="transparent" fill="#000000" transform="matrix(0.0666667 0 0 0.0666667 -21.0667 -65.3333)" d="M 6598.85,1330.95 L 6598.85,1354.05 L 6079.23,1054.05 L 6079.23,1030.95 L 6598.85,1330.95 Z " />
<path stroke="transparent" fill="#000000" transform="matrix(0.0666667 0 0 0.0666667 -21.0667 -65.3333)" d="M 7118.46,1030.95 L 7118.46,1054.05 L 6598.85,1354.05 L 6598.85,1330.95 L 7118.46,1030.95 Z " />
<path stroke="transparent" fill="#000000" transform="matrix(0.0666667 0 0 0.0666667 -21.0667 -65.3333)" d="M 7638.08,1330.95 L 7638.08,1354.05 L 7118.46,1054.05 L 7118.46,1030.95 L 7638.08,1330.95 Z " />
<path stroke="transparent" fill="#000000" transform="matrix(0.0666667 0 0 0.0666667 -21.0667 -65.3333)" d="M 8157.69,1030.95 L 8157.69,1054.05 L 7638.08,1354.05 L 7638.08,1330.95 L 8157.69,1030.95 Z " />
<path stroke="transparent" fill="#000000" transform="matrix(0.0666667 0 0 0.0666667 -21.0667 -65.3333)" d="M 8677.31,1330.95 L 8677.31,1354.05 L 8157.69,1054.05 L 8157.69,1030.95 L 8677.31,1330.95 Z " />
<path stroke="transparent" fill="#000000" transform="matrix(0.0666667 0 0 0.0666667 -21.0667 -65.3333)" d="M 9196.92,1030.95 L 9196.92,1054.05 L 8677.31,1354.05 L 8677.31,1330.95 L 9196.92,1030.95 Z " />
<path stroke="transparent" fill="#000000" transform="matrix(0.0666667 0 0 0.0666667 -21.0667 -65.3333)" d="M 9721.54,1333.84 L 9711.54,1351.16 L 9196.92,1054.05 L 9196.92,1030.95 L 9721.54,1333.84 Z " />
</svg>
