<?xml version="1.0" standalone="no" ?>
<!DOCTYPE svg PUBLIC "-//W3C//DTD SVG 1.1//EN" "http://www.w3.org/Graphics/SVG/1.1/DTD/svg11.dtd">
<svg width="298px" height="78px" viewBox="0 0 298 78" style="background-color: #ffffff00" xmlns="http://www.w3.org/2000/svg" xmlns:xlink="http://www.w3.org/1999/xlink" version="1.1" >
<text x="0" y="0" stroke="transparent" fill="#000000" transform="matrix(0.0666667 0 0 0.0666667 240.409 14.7389)" style="font:normal normal normal 200px 'Arial'" >
O</text>
<text x="0" y="0" stroke="transparent" fill="#000000" transform="matrix(0.0666667 0 0 0.0666667 275.05 74.7389)" style="font:normal normal normal 200px 'Arial'" >
OH</text>
<path stroke="transparent" fill="#000000" transform="matrix(0.0666667 0 0 0.0666667 -20.0667 -3.33333)" d="M 3465.51,1104.63 L 3465.51,1081.54 L 3985.13,781.536 L 3985.13,804.63 L 3465.51,1104.63 Z " />
<path stroke="transparent" fill="#000000" transform="matrix(0.0666667 0 0 0.0666667 -20.0667 -3.33333)" d="M 2945.9,804.63 L 2945.9,781.536 L 3465.51,1081.54 L 3465.51,1104.63 L 2945.9,804.63 Z " />
<path stroke="transparent" fill="#000000" transform="matrix(0.0666667 0 0 0.0666667 -20.0667 -3.33333)" d="M 2426.28,1104.63 L 2426.28,1081.54 L 2945.9,781.536 L 2945.9,804.63 L 2426.28,1104.63 Z " />
<path stroke="transparent" fill="#000000" transform="matrix(0.0666667 0 0 0.0666667 -20.0667 -3.33333)" d="M 1906.67,804.63 L 1906.67,781.536 L 2426.28,1081.54 L 2426.28,1104.63 L 1906.67,804.63 Z " />
<path stroke="transparent" fill="#000000" transform="matrix(0.0666667 0 0 0.0666667 -20.0667 -3.33333)" d="M 1387.05,1104.63 L 1387.05,1081.54 L 1906.67,781.536 L 1906.67,804.63 L 1387.05,1104.63 Z " />
<path stroke="transparent" fill="#000000" transform="matrix(0.0666667 0 0 0.0666667 -20.0667 -3.33333)" d="M 867.437,804.63 L 867.437,781.536 L 1387.05,1081.54 L 1387.05,1104.63 L 867.437,804.63 Z " />
<path stroke="transparent" fill="#000000" transform="matrix(0.0666667 0 0 0.0666667 -20.0667 -3.33333)" d="M 352.822,1101.74 L 342.822,1084.42 L 867.437,781.536 L 867.437,804.63 L 352.822,1101.74 Z " />
<path stroke="transparent" fill="#000000" transform="matrix(0.0666667 0 0 0.0666667 -20.0667 -3.33333)" d="M 3939.13,312.917 L 3959.13,312.917 L 3959.13,813.868 L 3939.13,813.868 L 3939.13,312.917 Z " />
<path stroke="transparent" fill="#000000" transform="matrix(0.0666667 0 0 0.0666667 -20.0667 -3.33333)" d="M 4011.13,312.917 L 4031.13,312.917 L 4031.13,813.868 L 4011.13,813.868 L 4011.13,312.917 Z " />
<path stroke="transparent" fill="#000000" transform="matrix(0.0666667 0 0 0.0666667 -20.0667 -3.33333)" d="M 4417.13,1030.95 L 4407.13,1048.27 L 3985.13,804.63 L 3985.13,781.536 L 4417.13,1030.95 Z " />
</svg>
