<?xml version="1.0" standalone="no" ?>
<!DOCTYPE svg PUBLIC "-//W3C//DTD SVG 1.1//EN" "http://www.w3.org/Graphics/SVG/1.1/DTD/svg11.dtd">
<svg width="596px" height="28px" viewBox="0 0 596 28" style="background-color: #ffffff00" xmlns="http://www.w3.org/2000/svg" xmlns:xlink="http://www.w3.org/1999/xlink" version="1.1" >
<path stroke="transparent" fill="#000000" transform="matrix(0.0666667 0 0 0.0666667 -23.0667 -31.3333)" d="M 917.886,520.953 L 917.886,544.047 L 403.27,841.16 L 393.27,823.84 L 917.886,520.953 Z " />
<path stroke="transparent" fill="#000000" transform="matrix(0.0666667 0 0 0.0666667 -23.0667 -31.3333)" d="M 1437.5,820.953 L 1437.5,844.047 L 917.886,544.047 L 917.886,520.953 L 1437.5,820.953 Z " />
<path stroke="transparent" fill="#000000" transform="matrix(0.0666667 0 0 0.0666667 -23.0667 -31.3333)" d="M 1957.12,520.953 L 1957.12,544.047 L 1437.5,844.047 L 1437.5,820.953 L 1957.12,520.953 Z " />
<path stroke="transparent" fill="#000000" transform="matrix(0.0666667 0 0 0.0666667 -23.0667 -31.3333)" d="M 2476.73,820.953 L 2476.73,844.047 L 1957.12,544.047 L 1957.12,520.953 L 2476.73,820.953 Z " />
<path stroke="transparent" fill="#000000" transform="matrix(0.0666667 0 0 0.0666667 -23.0667 -31.3333)" d="M 2996.35,520.953 L 2996.35,544.047 L 2476.73,844.047 L 2476.73,820.953 L 2996.35,520.953 Z " />
<path stroke="transparent" fill="#000000" transform="matrix(0.0666667 0 0 0.0666667 -23.0667 -31.3333)" d="M 3515.96,820.953 L 3515.96,844.047 L 2996.35,544.047 L 2996.35,520.953 L 3515.96,820.953 Z " />
<path stroke="transparent" fill="#000000" transform="matrix(0.0666667 0 0 0.0666667 -23.0667 -31.3333)" d="M 4035.58,520.953 L 4035.58,544.047 L 3515.96,844.047 L 3515.96,820.953 L 4035.58,520.953 Z " />
<path stroke="transparent" fill="#000000" transform="matrix(0.0666667 0 0 0.0666667 -23.0667 -31.3333)" d="M 4555.19,820.953 L 4555.19,844.047 L 4035.58,544.047 L 4035.58,520.953 L 4555.19,820.953 Z " />
<path stroke="transparent" fill="#000000" transform="matrix(0.0666667 0 0 0.0666667 -23.0667 -31.3333)" d="M 5074.81,520.953 L 5074.81,544.047 L 4555.19,844.047 L 4555.19,820.953 L 5074.81,520.953 Z " />
<path stroke="transparent" fill="#000000" transform="matrix(0.0666667 0 0 0.0666667 -23.0667 -31.3333)" d="M 5594.42,820.953 L 5594.42,844.047 L 5074.81,544.047 L 5074.81,520.953 L 5594.42,820.953 Z " />
<path stroke="transparent" fill="#000000" transform="matrix(0.0666667 0 0 0.0666667 -23.0667 -31.3333)" d="M 6114.04,520.953 L 6114.04,544.047 L 5594.42,844.047 L 5594.42,820.953 L 6114.04,520.953 Z " />
<path stroke="transparent" fill="#000000" transform="matrix(0.0666667 0 0 0.0666667 -23.0667 -31.3333)" d="M 6633.65,820.953 L 6633.65,844.047 L 6114.04,544.047 L 6114.04,520.953 L 6633.65,820.953 Z " />
<path stroke="transparent" fill="#000000" transform="matrix(0.0666667 0 0 0.0666667 -23.0667 -31.3333)" d="M 7153.27,520.953 L 7153.27,544.047 L 6633.65,844.047 L 6633.65,820.953 L 7153.27,520.953 Z " />
<path stroke="transparent" fill="#000000" transform="matrix(0.0666667 0 0 0.0666667 -23.0667 -31.3333)" d="M 7672.88,820.953 L 7672.88,844.047 L 7153.27,544.047 L 7153.27,520.953 L 7672.88,820.953 Z " />
<path stroke="transparent" fill="#000000" transform="matrix(0.0666667 0 0 0.0666667 -23.0667 -31.3333)" d="M 8192.5,520.953 L 8192.5,544.047 L 7672.88,844.047 L 7672.88,820.953 L 8192.5,520.953 Z " />
<path stroke="transparent" fill="#000000" transform="matrix(0.0666667 0 0 0.0666667 -23.0667 -31.3333)" d="M 8712.11,820.953 L 8712.11,844.047 L 8192.5,544.047 L 8192.5,520.953 L 8712.11,820.953 Z " />
<path stroke="transparent" fill="#000000" transform="matrix(0.0666667 0 0 0.0666667 -23.0667 -31.3333)" d="M 9226.73,523.84 L 9236.73,541.16 L 8712.11,844.047 L 8712.11,820.953 L 9226.73,523.84 Z " />
</svg>
