<?xml version="1.0" standalone="no" ?>
<!DOCTYPE svg PUBLIC "-//W3C//DTD SVG 1.1//EN" "http://www.w3.org/Graphics/SVG/1.1/DTD/svg11.dtd">
<svg width="656px" height="80px" viewBox="0 0 656 80" style="background-color: #ffffff00" xmlns="http://www.w3.org/2000/svg" xmlns:xlink="http://www.w3.org/1999/xlink" version="1.1" >
<text x="0" y="0" stroke="transparent" fill="#000000" transform="matrix(0.0666667 0 0 0.0666667 592.698 14.3389)" style="font:normal normal normal 200px 'Arial'" >
O</text>
<text x="0" y="0" stroke="transparent" fill="#000000" transform="matrix(0.0666667 0 0 0.0666667 627.739 74.3389)" style="font:normal normal normal 200px 'Arial'" >
NH</text>
<text x="0" y="0" stroke="transparent" fill="#000000" transform="matrix(0.0666667 0 0 0.0666667 646.997 77.2722)" style="font:normal normal normal 150px 'Arial'" >
2</text>
<path stroke="transparent" fill="#000000" transform="matrix(0.0666667 0 0 0.0666667 -21.0667 -5.33333)" d="M 8764.85,1128.63 L 8764.85,1105.54 L 9284.47,805.536 L 9284.47,828.63 L 8764.85,1128.63 Z " />
<path stroke="transparent" fill="#000000" transform="matrix(0.0666667 0 0 0.0666667 -21.0667 -5.33333)" d="M 8245.24,828.63 L 8245.24,805.536 L 8764.85,1105.54 L 8764.85,1128.63 L 8245.24,828.63 Z " />
<path stroke="transparent" fill="#000000" transform="matrix(0.0666667 0 0 0.0666667 -21.0667 -5.33333)" d="M 7725.62,1128.63 L 7725.62,1105.54 L 8245.24,805.536 L 8245.24,828.63 L 7725.62,1128.63 Z " />
<path stroke="transparent" fill="#000000" transform="matrix(0.0666667 0 0 0.0666667 -21.0667 -5.33333)" d="M 7206.01,828.63 L 7206.01,805.536 L 7725.62,1105.54 L 7725.62,1128.63 L 7206.01,828.63 Z " />
<path stroke="transparent" fill="#000000" transform="matrix(0.0666667 0 0 0.0666667 -21.0667 -5.33333)" d="M 6686.39,1128.63 L 6686.39,1105.54 L 7206.01,805.536 L 7206.01,828.63 L 6686.39,1128.63 Z " />
<path stroke="transparent" fill="#000000" transform="matrix(0.0666667 0 0 0.0666667 -21.0667 -5.33333)" d="M 6166.78,828.63 L 6166.78,805.536 L 6686.39,1105.54 L 6686.39,1128.63 L 6166.78,828.63 Z " />
<path stroke="transparent" fill="#000000" transform="matrix(0.0666667 0 0 0.0666667 -21.0667 -5.33333)" d="M 5647.16,1128.63 L 5647.16,1105.54 L 6166.78,805.536 L 6166.78,828.63 L 5647.16,1128.63 Z " />
<path stroke="transparent" fill="#000000" transform="matrix(0.0666667 0 0 0.0666667 -21.0667 -5.33333)" d="M 5124.87,827.083 L 5130.23,807.083 L 5647.16,1105.54 L 5647.16,1128.63 L 5124.87,827.083 Z " />
<path stroke="transparent" fill="#000000" transform="matrix(0.0666667 0 0 0.0666667 -21.0667 -5.33333)" d="M 4530.23,827.083 L 4524.87,807.083 L 5130.23,807.083 L 5124.87,827.083 L 4530.23,827.083 Z " />
<path stroke="transparent" fill="#000000" transform="matrix(0.0666667 0 0 0.0666667 -21.0667 -5.33333)" d="M 4546.84,899.083 L 4546.84,879.083 L 5108.26,879.083 L 5108.26,899.083 L 4546.84,899.083 Z " />
<path stroke="transparent" fill="#000000" transform="matrix(0.0666667 0 0 0.0666667 -21.0667 -5.33333)" d="M 4007.93,1128.63 L 4007.93,1105.54 L 4524.87,807.083 L 4530.23,827.083 L 4007.93,1128.63 Z " />
<path stroke="transparent" fill="#000000" transform="matrix(0.0666667 0 0 0.0666667 -21.0667 -5.33333)" d="M 3488.32,828.63 L 3488.32,805.536 L 4007.93,1105.54 L 4007.93,1128.63 L 3488.32,828.63 Z " />
<path stroke="transparent" fill="#000000" transform="matrix(0.0666667 0 0 0.0666667 -21.0667 -5.33333)" d="M 2968.7,1128.63 L 2968.7,1105.54 L 3488.32,805.536 L 3488.32,828.63 L 2968.7,1128.63 Z " />
<path stroke="transparent" fill="#000000" transform="matrix(0.0666667 0 0 0.0666667 -21.0667 -5.33333)" d="M 2449.09,828.63 L 2449.09,805.536 L 2968.7,1105.54 L 2968.7,1128.63 L 2449.09,828.63 Z " />
<path stroke="transparent" fill="#000000" transform="matrix(0.0666667 0 0 0.0666667 -21.0667 -5.33333)" d="M 1929.47,1128.63 L 1929.47,1105.54 L 2449.09,805.536 L 2449.09,828.63 L 1929.47,1128.63 Z " />
<path stroke="transparent" fill="#000000" transform="matrix(0.0666667 0 0 0.0666667 -21.0667 -5.33333)" d="M 1409.86,828.63 L 1409.86,805.536 L 1929.47,1105.54 L 1929.47,1128.63 L 1409.86,828.63 Z " />
<path stroke="transparent" fill="#000000" transform="matrix(0.0666667 0 0 0.0666667 -21.0667 -5.33333)" d="M 890.241,1128.63 L 890.241,1105.54 L 1409.86,805.536 L 1409.86,828.63 L 890.241,1128.63 Z " />
<path stroke="transparent" fill="#000000" transform="matrix(0.0666667 0 0 0.0666667 -21.0667 -5.33333)" d="M 365.625,825.744 L 375.625,808.423 L 890.241,1105.54 L 890.241,1128.63 L 365.625,825.744 Z " />
<path stroke="transparent" fill="#000000" transform="matrix(0.0666667 0 0 0.0666667 -21.0667 -5.33333)" d="M 9238.47,336.917 L 9258.47,336.917 L 9258.47,837.868 L 9238.47,837.868 L 9238.47,336.917 Z " />
<path stroke="transparent" fill="#000000" transform="matrix(0.0666667 0 0 0.0666667 -21.0667 -5.33333)" d="M 9310.47,336.917 L 9330.47,336.917 L 9330.47,837.868 L 9310.47,837.868 L 9310.47,336.917 Z " />
<path stroke="transparent" fill="#000000" transform="matrix(0.0666667 0 0 0.0666667 -21.0667 -5.33333)" d="M 9705.24,1048.47 L 9695.24,1065.79 L 9284.47,828.63 L 9284.47,805.536 L 9705.24,1048.47 Z " />
</svg>
