<?xml version="1.0" standalone="no" ?>
<!DOCTYPE svg PUBLIC "-//W3C//DTD SVG 1.1//EN" "http://www.w3.org/Graphics/SVG/1.1/DTD/svg11.dtd">
<svg width="650px" height="78px" viewBox="0 0 650 78" style="background-color: #ffffff00" xmlns="http://www.w3.org/2000/svg" xmlns:xlink="http://www.w3.org/1999/xlink" version="1.1" >
<text x="0" y="0" stroke="transparent" fill="#000000" transform="matrix(0.0666667 0 0 0.0666667 592.293 14.7389)" style="font:normal normal normal 200px 'Arial'" >
O</text>
<text x="0" y="0" stroke="transparent" fill="#000000" transform="matrix(0.0666667 0 0 0.0666667 626.934 74.7389)" style="font:normal normal normal 200px 'Arial'" >
OH</text>
<path stroke="transparent" fill="#000000" transform="matrix(0.0666667 0 0 0.0666667 -10.0667 -52.3333)" d="M 8593.78,1839.63 L 8593.78,1816.54 L 9113.4,1516.54 L 9113.4,1539.63 L 8593.78,1839.63 Z " />
<path stroke="transparent" fill="#000000" transform="matrix(0.0666667 0 0 0.0666667 -10.0667 -52.3333)" d="M 8074.17,1539.63 L 8074.17,1516.54 L 8593.78,1816.54 L 8593.78,1839.63 L 8074.17,1539.63 Z " />
<path stroke="transparent" fill="#000000" transform="matrix(0.0666667 0 0 0.0666667 -10.0667 -52.3333)" d="M 7554.55,1839.63 L 7554.55,1816.54 L 8074.17,1516.54 L 8074.17,1539.63 L 7554.55,1839.63 Z " />
<path stroke="transparent" fill="#000000" transform="matrix(0.0666667 0 0 0.0666667 -10.0667 -52.3333)" d="M 7034.94,1539.63 L 7034.94,1516.54 L 7554.55,1816.54 L 7554.55,1839.63 L 7034.94,1539.63 Z " />
<path stroke="transparent" fill="#000000" transform="matrix(0.0666667 0 0 0.0666667 -10.0667 -52.3333)" d="M 6515.32,1839.63 L 6515.32,1816.54 L 7034.94,1516.54 L 7034.94,1539.63 L 6515.32,1839.63 Z " />
<path stroke="transparent" fill="#000000" transform="matrix(0.0666667 0 0 0.0666667 -10.0667 -52.3333)" d="M 5995.71,1539.63 L 5995.71,1516.54 L 6515.32,1816.54 L 6515.32,1839.63 L 5995.71,1539.63 Z " />
<path stroke="transparent" fill="#000000" transform="matrix(0.0666667 0 0 0.0666667 -10.0667 -52.3333)" d="M 5476.09,1839.63 L 5476.09,1816.54 L 5995.71,1516.54 L 5995.71,1539.63 L 5476.09,1839.63 Z " />
<path stroke="transparent" fill="#000000" transform="matrix(0.0666667 0 0 0.0666667 -10.0667 -52.3333)" d="M 4953.8,1538.08 L 4959.16,1518.08 L 5476.09,1816.54 L 5476.09,1839.63 L 4953.8,1538.08 Z " />
<path stroke="transparent" fill="#000000" transform="matrix(0.0666667 0 0 0.0666667 -10.0667 -52.3333)" d="M 4359.16,1538.08 L 4353.8,1518.08 L 4959.16,1518.08 L 4953.8,1538.08 L 4359.16,1538.08 Z " />
<path stroke="transparent" fill="#000000" transform="matrix(0.0666667 0 0 0.0666667 -10.0667 -52.3333)" d="M 4375.77,1610.08 L 4375.77,1590.08 L 4937.18,1590.08 L 4937.18,1610.08 L 4375.77,1610.08 Z " />
<path stroke="transparent" fill="#000000" transform="matrix(0.0666667 0 0 0.0666667 -10.0667 -52.3333)" d="M 3836.86,1839.63 L 3836.86,1816.54 L 4353.8,1518.08 L 4359.16,1538.08 L 3836.86,1839.63 Z " />
<path stroke="transparent" fill="#000000" transform="matrix(0.0666667 0 0 0.0666667 -10.0667 -52.3333)" d="M 3317.25,1539.63 L 3317.25,1516.54 L 3836.86,1816.54 L 3836.86,1839.63 L 3317.25,1539.63 Z " />
<path stroke="transparent" fill="#000000" transform="matrix(0.0666667 0 0 0.0666667 -10.0667 -52.3333)" d="M 2797.63,1839.63 L 2797.63,1816.54 L 3317.25,1516.54 L 3317.25,1539.63 L 2797.63,1839.63 Z " />
<path stroke="transparent" fill="#000000" transform="matrix(0.0666667 0 0 0.0666667 -10.0667 -52.3333)" d="M 2278.01,1539.63 L 2278.01,1516.54 L 2797.63,1816.54 L 2797.63,1839.63 L 2278.01,1539.63 Z " />
<path stroke="transparent" fill="#000000" transform="matrix(0.0666667 0 0 0.0666667 -10.0667 -52.3333)" d="M 1758.4,1839.63 L 1758.4,1816.54 L 2278.01,1516.54 L 2278.01,1539.63 L 1758.4,1839.63 Z " />
<path stroke="transparent" fill="#000000" transform="matrix(0.0666667 0 0 0.0666667 -10.0667 -52.3333)" d="M 1238.78,1539.63 L 1238.78,1516.54 L 1758.4,1816.54 L 1758.4,1839.63 L 1238.78,1539.63 Z " />
<path stroke="transparent" fill="#000000" transform="matrix(0.0666667 0 0 0.0666667 -10.0667 -52.3333)" d="M 719.169,1839.63 L 719.169,1816.54 L 1238.78,1516.54 L 1238.78,1539.63 L 719.169,1839.63 Z " />
<path stroke="transparent" fill="#000000" transform="matrix(0.0666667 0 0 0.0666667 -10.0667 -52.3333)" d="M 194.554,1536.74 L 204.554,1519.42 L 719.169,1816.54 L 719.169,1839.63 L 194.554,1536.74 Z " />
<path stroke="transparent" fill="#000000" transform="matrix(0.0666667 0 0 0.0666667 -10.0667 -52.3333)" d="M 9067.4,1047.92 L 9087.4,1047.92 L 9087.4,1548.87 L 9067.4,1548.87 L 9067.4,1047.92 Z " />
<path stroke="transparent" fill="#000000" transform="matrix(0.0666667 0 0 0.0666667 -10.0667 -52.3333)" d="M 9139.4,1047.92 L 9159.4,1047.92 L 9159.4,1548.87 L 9139.4,1548.87 L 9139.4,1047.92 Z " />
<path stroke="transparent" fill="#000000" transform="matrix(0.0666667 0 0 0.0666667 -10.0667 -52.3333)" d="M 9545.39,1765.95 L 9535.39,1783.27 L 9113.4,1539.63 L 9113.4,1516.54 L 9545.39,1765.95 Z " />
</svg>
