<?xml version="1.0" standalone="no" ?>
<!DOCTYPE svg PUBLIC "-//W3C//DTD SVG 1.1//EN" "http://www.w3.org/Graphics/SVG/1.1/DTD/svg11.dtd">
<svg width="316px" height="44px" viewBox="0 0 316 44" style="background-color: #ffffffff" xmlns="http://www.w3.org/2000/svg" xmlns:xlink="http://www.w3.org/1999/xlink" version="1.1" >
<text x="0" y="0" stroke="transparent" fill="#000000" transform="matrix(0.05 0 0 0.05 277.475 13.0137)" style="font:normal normal normal 262px 'Arial'" >
O</text>
<text x="0" y="0" stroke="transparent" fill="#000000" transform="matrix(0.05 0 0 0.05 293.818 41.3103)" style="font:normal normal normal 262px 'Arial'" >
OH</text>
<path stroke="transparent" fill="#000000" transform="matrix(0.05 0 0 0.05 -322 -156)" d="M 11764.7,3864.31 L 11764.7,3846.16 L 12091.4,3657.51 L 12091.4,3675.66 L 11764.7,3864.31 Z " />
<path stroke="transparent" fill="#000000" transform="matrix(0.05 0 0 0.05 -322 -156)" d="M 11437.9,3675.66 L 11437.9,3657.51 L 11764.7,3846.16 L 11764.7,3864.31 L 11437.9,3675.66 Z " />
<path stroke="transparent" fill="#000000" transform="matrix(0.05 0 0 0.05 -322 -156)" d="M 11111.2,3864.31 L 11111.2,3846.16 L 11437.9,3657.51 L 11437.9,3675.66 L 11111.2,3864.31 Z " />
<path stroke="transparent" fill="#000000" transform="matrix(0.05 0 0 0.05 -322 -156)" d="M 10784.5,3675.66 L 10784.5,3657.51 L 11111.2,3846.16 L 11111.2,3864.31 L 10784.5,3675.66 Z " />
<path stroke="transparent" fill="#000000" transform="matrix(0.05 0 0 0.05 -322 -156)" d="M 10457.7,3864.31 L 10457.7,3846.16 L 10784.5,3657.51 L 10784.5,3675.66 L 10457.7,3864.31 Z " />
<path stroke="transparent" fill="#000000" transform="matrix(0.05 0 0 0.05 -322 -156)" d="M 10131,3675.66 L 10131,3657.51 L 10457.7,3846.16 L 10457.7,3864.31 L 10131,3675.66 Z " />
<path stroke="transparent" fill="#000000" transform="matrix(0.05 0 0 0.05 -322 -156)" d="M 9804.28,3864.31 L 9804.28,3846.16 L 10131,3657.51 L 10131,3675.66 L 9804.28,3864.31 Z " />
<path stroke="transparent" fill="#000000" transform="matrix(0.05 0 0 0.05 -322 -156)" d="M 9475.44,3674.45 L 9479.65,3658.73 L 9804.28,3846.16 L 9804.28,3864.31 L 9475.44,3674.45 Z " />
<path stroke="transparent" fill="#000000" transform="matrix(0.05 0 0 0.05 -322 -156)" d="M 9102.36,3674.45 L 9098.15,3658.73 L 9479.65,3658.73 L 9475.44,3674.45 L 9102.36,3674.45 Z " />
<path stroke="transparent" fill="#000000" transform="matrix(0.05 0 0 0.05 -322 -156)" d="M 9118.45,3742.36 L 9118.45,3726.64 L 9459.35,3726.64 L 9459.35,3742.36 L 9118.45,3742.36 Z " />
<path stroke="transparent" fill="#000000" transform="matrix(0.05 0 0 0.05 -322 -156)" d="M 8773.53,3864.31 L 8773.53,3846.16 L 9098.15,3658.73 L 9102.36,3674.45 L 8773.53,3864.31 Z " />
<path stroke="transparent" fill="#000000" transform="matrix(0.05 0 0 0.05 -322 -156)" d="M 8446.79,3675.66 L 8446.79,3657.51 L 8773.53,3846.16 L 8773.53,3864.31 L 8446.79,3675.66 Z " />
<path stroke="transparent" fill="#000000" transform="matrix(0.05 0 0 0.05 -322 -156)" d="M 8120.06,3864.31 L 8120.06,3846.16 L 8446.79,3657.51 L 8446.79,3675.66 L 8120.06,3864.31 Z " />
<path stroke="transparent" fill="#000000" transform="matrix(0.05 0 0 0.05 -322 -156)" d="M 7793.33,3675.66 L 7793.33,3657.51 L 8120.06,3846.16 L 8120.06,3864.31 L 7793.33,3675.66 Z " />
<path stroke="transparent" fill="#000000" transform="matrix(0.05 0 0 0.05 -322 -156)" d="M 7466.47,3864.31 L 7466.47,3846.16 L 7793.33,3657.51 L 7793.33,3675.66 L 7466.47,3864.31 Z " />
<path stroke="transparent" fill="#000000" transform="matrix(0.05 0 0 0.05 -322 -156)" d="M 7139.74,3675.66 L 7139.74,3657.51 L 7466.47,3846.16 L 7466.47,3864.31 L 7139.74,3675.66 Z " />
<path stroke="transparent" fill="#000000" transform="matrix(0.05 0 0 0.05 -322 -156)" d="M 6813.01,3864.31 L 6813.01,3846.16 L 7139.74,3657.51 L 7139.74,3675.66 L 6813.01,3864.31 Z " />
<path stroke="transparent" fill="#000000" transform="matrix(0.05 0 0 0.05 -322 -156)" d="M 6482.35,3673.4 L 6490.21,3659.78 L 6813.01,3846.16 L 6813.01,3864.31 L 6482.35,3673.4 Z " />
<path stroke="transparent" fill="#000000" transform="matrix(0.05 0 0 0.05 -322 -156)" d="M 12049.6,3425.03 L 12065.3,3425.03 L 12065.3,3686.19 L 12049.6,3686.19 L 12049.6,3425.03 Z " />
<path stroke="transparent" fill="#000000" transform="matrix(0.05 0 0 0.05 -322 -156)" d="M 12117.5,3425.03 L 12133.2,3425.03 L 12133.2,3686.19 L 12117.5,3686.19 L 12117.5,3425.03 Z " />
<path stroke="transparent" fill="#000000" transform="matrix(0.05 0 0 0.05 -322 -156)" d="M 12302.8,3779.51 L 12294.9,3793.12 L 12091.4,3675.66 L 12091.4,3657.51 L 12302.8,3779.51 Z " />
</svg>
