<?xml version="1.0" standalone="no" ?>
<!DOCTYPE svg PUBLIC "-//W3C//DTD SVG 1.1//EN" "http://www.w3.org/Graphics/SVG/1.1/DTD/svg11.dtd">
<svg width="576px" height="78px" viewBox="0 0 576 78" style="background-color: #ffffff00" xmlns="http://www.w3.org/2000/svg" xmlns:xlink="http://www.w3.org/1999/xlink" version="1.1" >
<text x="0" y="0" stroke="transparent" fill="#000000" transform="matrix(0.0666667 0 0 0.0666667 517.973 14.7389)" style="font:normal normal normal 200px 'Arial'" >
O</text>
<text x="0" y="0" stroke="transparent" fill="#000000" transform="matrix(0.0666667 0 0 0.0666667 552.614 74.7389)" style="font:normal normal normal 200px 'Arial'" >
OH</text>
<path stroke="transparent" fill="#000000" transform="matrix(0.0666667 0 0 0.0666667 -21.0667 -21.3333)" d="M 7643.97,1374.63 L 7643.97,1351.54 L 8163.59,1051.54 L 8163.59,1074.63 L 7643.97,1374.63 Z " />
<path stroke="transparent" fill="#000000" transform="matrix(0.0666667 0 0 0.0666667 -21.0667 -21.3333)" d="M 7124.36,1074.63 L 7124.36,1051.54 L 7643.97,1351.54 L 7643.97,1374.63 L 7124.36,1074.63 Z " />
<path stroke="transparent" fill="#000000" transform="matrix(0.0666667 0 0 0.0666667 -21.0667 -21.3333)" d="M 6604.74,1374.63 L 6604.74,1351.54 L 7124.36,1051.54 L 7124.36,1074.63 L 6604.74,1374.63 Z " />
<path stroke="transparent" fill="#000000" transform="matrix(0.0666667 0 0 0.0666667 -21.0667 -21.3333)" d="M 6085.13,1074.63 L 6085.13,1051.54 L 6604.74,1351.54 L 6604.74,1374.63 L 6085.13,1074.63 Z " />
<path stroke="transparent" fill="#000000" transform="matrix(0.0666667 0 0 0.0666667 -21.0667 -21.3333)" d="M 5565.51,1374.63 L 5565.51,1351.54 L 6085.13,1051.54 L 6085.13,1074.63 L 5565.51,1374.63 Z " />
<path stroke="transparent" fill="#000000" transform="matrix(0.0666667 0 0 0.0666667 -21.0667 -21.3333)" d="M 5045.9,1074.63 L 5045.9,1051.54 L 5565.51,1351.54 L 5565.51,1374.63 L 5045.9,1074.63 Z " />
<path stroke="transparent" fill="#000000" transform="matrix(0.0666667 0 0 0.0666667 -21.0667 -21.3333)" d="M 4526.28,1374.63 L 4526.28,1351.54 L 5045.9,1051.54 L 5045.9,1074.63 L 4526.28,1374.63 Z " />
<path stroke="transparent" fill="#000000" transform="matrix(0.0666667 0 0 0.0666667 -21.0667 -21.3333)" d="M 4006.67,1074.63 L 4006.67,1051.54 L 4526.28,1351.54 L 4526.28,1374.63 L 4006.67,1074.63 Z " />
<path stroke="transparent" fill="#000000" transform="matrix(0.0666667 0 0 0.0666667 -21.0667 -21.3333)" d="M 3487.05,1374.63 L 3487.05,1351.54 L 4006.67,1051.54 L 4006.67,1074.63 L 3487.05,1374.63 Z " />
<path stroke="transparent" fill="#000000" transform="matrix(0.0666667 0 0 0.0666667 -21.0667 -21.3333)" d="M 2967.44,1074.63 L 2967.44,1051.54 L 3487.05,1351.54 L 3487.05,1374.63 L 2967.44,1074.63 Z " />
<path stroke="transparent" fill="#000000" transform="matrix(0.0666667 0 0 0.0666667 -21.0667 -21.3333)" d="M 2447.82,1374.63 L 2447.82,1351.54 L 2967.44,1051.54 L 2967.44,1074.63 L 2447.82,1374.63 Z " />
<path stroke="transparent" fill="#000000" transform="matrix(0.0666667 0 0 0.0666667 -21.0667 -21.3333)" d="M 1928.21,1074.63 L 1928.21,1051.54 L 2447.82,1351.54 L 2447.82,1374.63 L 1928.21,1074.63 Z " />
<path stroke="transparent" fill="#000000" transform="matrix(0.0666667 0 0 0.0666667 -21.0667 -21.3333)" d="M 1408.59,1374.63 L 1408.59,1351.54 L 1928.21,1051.54 L 1928.21,1074.63 L 1408.59,1374.63 Z " />
<path stroke="transparent" fill="#000000" transform="matrix(0.0666667 0 0 0.0666667 -21.0667 -21.3333)" d="M 888.977,1074.63 L 888.977,1051.54 L 1408.59,1351.54 L 1408.59,1374.63 L 888.977,1074.63 Z " />
<path stroke="transparent" fill="#000000" transform="matrix(0.0666667 0 0 0.0666667 -21.0667 -21.3333)" d="M 374.361,1371.74 L 364.361,1354.42 L 888.977,1051.54 L 888.977,1074.63 L 374.361,1371.74 Z " />
<path stroke="transparent" fill="#000000" transform="matrix(0.0666667 0 0 0.0666667 -21.0667 -21.3333)" d="M 8117.59,582.917 L 8137.59,582.917 L 8137.59,1083.87 L 8117.59,1083.87 L 8117.59,582.917 Z " />
<path stroke="transparent" fill="#000000" transform="matrix(0.0666667 0 0 0.0666667 -21.0667 -21.3333)" d="M 8189.59,582.917 L 8209.59,582.917 L 8209.59,1083.87 L 8189.59,1083.87 L 8189.59,582.917 Z " />
<path stroke="transparent" fill="#000000" transform="matrix(0.0666667 0 0 0.0666667 -21.0667 -21.3333)" d="M 8595.59,1300.95 L 8585.59,1318.27 L 8163.59,1074.63 L 8163.59,1051.54 L 8595.59,1300.95 Z " />
</svg>
