<?xml version="1.0" standalone="no" ?>
<!DOCTYPE svg PUBLIC "-//W3C//DTD SVG 1.1//EN" "http://www.w3.org/Graphics/SVG/1.1/DTD/svg11.dtd">
<svg width="581px" height="78px" viewBox="0 0 581 78" style="background-color: #ffffff00" xmlns="http://www.w3.org/2000/svg" xmlns:xlink="http://www.w3.org/1999/xlink" version="1.1" >
<text x="0" y="0" stroke="transparent" fill="#000000" transform="matrix(0.0666667 0 0 0.0666667 523.652 14.7389)" style="font:normal normal normal 200px 'Arial'" >
O</text>
<text x="0" y="0" stroke="transparent" fill="#000000" transform="matrix(0.0666667 0 0 0.0666667 558.293 74.7389)" style="font:normal normal normal 200px 'Arial'" >
OH</text>
<path stroke="transparent" fill="#000000" transform="matrix(0.0666667 0 0 0.0666667 -23.0667 -20.3333)" d="M 7759.17,1359.63 L 7759.17,1336.54 L 8278.78,1036.54 L 8278.78,1059.63 L 7759.17,1359.63 Z " />
<path stroke="transparent" fill="#000000" transform="matrix(0.0666667 0 0 0.0666667 -23.0667 -20.3333)" d="M 7239.55,1059.63 L 7239.55,1036.54 L 7759.17,1336.54 L 7759.17,1359.63 L 7239.55,1059.63 Z " />
<path stroke="transparent" fill="#000000" transform="matrix(0.0666667 0 0 0.0666667 -23.0667 -20.3333)" d="M 6719.94,1359.63 L 6719.94,1336.54 L 7239.55,1036.54 L 7239.55,1059.63 L 6719.94,1359.63 Z " />
<path stroke="transparent" fill="#000000" transform="matrix(0.0666667 0 0 0.0666667 -23.0667 -20.3333)" d="M 6200.32,1059.63 L 6200.32,1036.54 L 6719.94,1336.54 L 6719.94,1359.63 L 6200.32,1059.63 Z " />
<path stroke="transparent" fill="#000000" transform="matrix(0.0666667 0 0 0.0666667 -23.0667 -20.3333)" d="M 5680.71,1359.63 L 5680.71,1336.54 L 6200.32,1036.54 L 6200.32,1059.63 L 5680.71,1359.63 Z " />
<path stroke="transparent" fill="#000000" transform="matrix(0.0666667 0 0 0.0666667 -23.0667 -20.3333)" d="M 5161.09,1059.63 L 5161.09,1036.54 L 5680.71,1336.54 L 5680.71,1359.63 L 5161.09,1059.63 Z " />
<path stroke="transparent" fill="#000000" transform="matrix(0.0666667 0 0 0.0666667 -23.0667 -20.3333)" d="M 4641.48,1359.63 L 4641.48,1336.54 L 5161.09,1036.54 L 5161.09,1059.63 L 4641.48,1359.63 Z " />
<path stroke="transparent" fill="#000000" transform="matrix(0.0666667 0 0 0.0666667 -23.0667 -20.3333)" d="M 4119.18,1058.08 L 4124.54,1038.08 L 4641.48,1336.54 L 4641.48,1359.63 L 4119.18,1058.08 Z " />
<path stroke="transparent" fill="#000000" transform="matrix(0.0666667 0 0 0.0666667 -23.0667 -20.3333)" d="M 3524.54,1058.08 L 3519.18,1038.08 L 4124.54,1038.08 L 4119.18,1058.08 L 3524.54,1058.08 Z " />
<path stroke="transparent" fill="#000000" transform="matrix(0.0666667 0 0 0.0666667 -23.0667 -20.3333)" d="M 3541.15,1130.08 L 3541.15,1110.08 L 4102.57,1110.08 L 4102.57,1130.08 L 3541.15,1130.08 Z " />
<path stroke="transparent" fill="#000000" transform="matrix(0.0666667 0 0 0.0666667 -23.0667 -20.3333)" d="M 3002.25,1359.63 L 3002.25,1336.54 L 3519.18,1038.08 L 3524.54,1058.08 L 3002.25,1359.63 Z " />
<path stroke="transparent" fill="#000000" transform="matrix(0.0666667 0 0 0.0666667 -23.0667 -20.3333)" d="M 2482.63,1059.63 L 2482.63,1036.54 L 3002.25,1336.54 L 3002.25,1359.63 L 2482.63,1059.63 Z " />
<path stroke="transparent" fill="#000000" transform="matrix(0.0666667 0 0 0.0666667 -23.0667 -20.3333)" d="M 1963.01,1359.63 L 1963.01,1336.54 L 2482.63,1036.54 L 2482.63,1059.63 L 1963.01,1359.63 Z " />
<path stroke="transparent" fill="#000000" transform="matrix(0.0666667 0 0 0.0666667 -23.0667 -20.3333)" d="M 1443.4,1059.63 L 1443.4,1036.54 L 1963.01,1336.54 L 1963.01,1359.63 L 1443.4,1059.63 Z " />
<path stroke="transparent" fill="#000000" transform="matrix(0.0666667 0 0 0.0666667 -23.0667 -20.3333)" d="M 923.784,1359.63 L 923.784,1336.54 L 1443.4,1036.54 L 1443.4,1059.63 L 923.784,1359.63 Z " />
<path stroke="transparent" fill="#000000" transform="matrix(0.0666667 0 0 0.0666667 -23.0667 -20.3333)" d="M 399.169,1056.74 L 409.169,1039.42 L 923.784,1336.54 L 923.784,1359.63 L 399.169,1056.74 Z " />
<path stroke="transparent" fill="#000000" transform="matrix(0.0666667 0 0 0.0666667 -23.0667 -20.3333)" d="M 8232.78,567.917 L 8252.78,567.917 L 8252.78,1068.87 L 8232.78,1068.87 L 8232.78,567.917 Z " />
<path stroke="transparent" fill="#000000" transform="matrix(0.0666667 0 0 0.0666667 -23.0667 -20.3333)" d="M 8304.78,567.917 L 8324.78,567.917 L 8324.78,1068.87 L 8304.78,1068.87 L 8304.78,567.917 Z " />
<path stroke="transparent" fill="#000000" transform="matrix(0.0666667 0 0 0.0666667 -23.0667 -20.3333)" d="M 8710.78,1285.95 L 8700.78,1303.27 L 8278.78,1059.63 L 8278.78,1036.54 L 8710.78,1285.95 Z " />
</svg>
