<?xml version="1.0" standalone="no" ?>
<!DOCTYPE svg PUBLIC "-//W3C//DTD SVG 1.1//EN" "http://www.w3.org/Graphics/SVG/1.1/DTD/svg11.dtd">
<svg width="403px" height="24px" viewBox="0 0 403 24" style="background-color: #ffffff00" xmlns="http://www.w3.org/2000/svg" xmlns:xlink="http://www.w3.org/1999/xlink" version="1.1" >
<path stroke="transparent" fill="#000000" transform="matrix(0.0666667 0 0 0.0666667 -20.0667 -52.3333)" d="M 783.663,835.558 L 783.663,854.42 L 363.357,1097.08 L 355.19,1082.94 L 783.663,835.558 Z " />
<path stroke="transparent" fill="#000000" transform="matrix(0.0666667 0 0 0.0666667 -20.0667 -52.3333)" d="M 1208.05,1080.58 L 1208.05,1099.44 L 783.663,854.42 L 783.663,835.558 L 1208.05,1080.58 Z " />
<path stroke="transparent" fill="#000000" transform="matrix(0.0666667 0 0 0.0666667 -20.0667 -52.3333)" d="M 1632.44,835.558 L 1632.44,854.42 L 1208.05,1099.44 L 1208.05,1080.58 L 1632.44,835.558 Z " />
<path stroke="transparent" fill="#000000" transform="matrix(0.0666667 0 0 0.0666667 -20.0667 -52.3333)" d="M 2056.83,1080.58 L 2056.83,1099.44 L 1632.44,854.42 L 1632.44,835.558 L 2056.83,1080.58 Z " />
<path stroke="transparent" fill="#000000" transform="matrix(0.0666667 0 0 0.0666667 -20.0667 -52.3333)" d="M 2481.22,835.558 L 2481.22,854.42 L 2056.83,1099.44 L 2056.83,1080.58 L 2481.22,835.558 Z " />
<path stroke="transparent" fill="#000000" transform="matrix(0.0666667 0 0 0.0666667 -20.0667 -52.3333)" d="M 2905.61,1080.58 L 2905.61,1099.44 L 2481.22,854.42 L 2481.22,835.558 L 2905.61,1080.58 Z " />
<path stroke="transparent" fill="#000000" transform="matrix(0.0666667 0 0 0.0666667 -20.0667 -52.3333)" d="M 3330,835.558 L 3330,854.42 L 2905.61,1099.44 L 2905.61,1080.58 L 3330,835.558 Z " />
<path stroke="transparent" fill="#000000" transform="matrix(0.0666667 0 0 0.0666667 -20.0667 -52.3333)" d="M 3754.39,1080.58 L 3754.39,1099.44 L 3330,854.42 L 3330,835.558 L 3754.39,1080.58 Z " />
<path stroke="transparent" fill="#000000" transform="matrix(0.0666667 0 0 0.0666667 -20.0667 -52.3333)" d="M 4178.78,835.558 L 4178.78,854.42 L 3754.39,1099.44 L 3754.39,1080.58 L 4178.78,835.558 Z " />
<path stroke="transparent" fill="#000000" transform="matrix(0.0666667 0 0 0.0666667 -20.0667 -52.3333)" d="M 4603.17,1080.58 L 4603.17,1099.44 L 4178.78,854.42 L 4178.78,835.558 L 4603.17,1080.58 Z " />
<path stroke="transparent" fill="#000000" transform="matrix(0.0666667 0 0 0.0666667 -20.0667 -52.3333)" d="M 5027.56,835.558 L 5027.56,854.42 L 4603.17,1099.44 L 4603.17,1080.58 L 5027.56,835.558 Z " />
<path stroke="transparent" fill="#000000" transform="matrix(0.0666667 0 0 0.0666667 -20.0667 -52.3333)" d="M 5451.95,1080.58 L 5451.95,1099.44 L 5027.56,854.42 L 5027.56,835.558 L 5451.95,1080.58 Z " />
<path stroke="transparent" fill="#000000" transform="matrix(0.0666667 0 0 0.0666667 -20.0667 -52.3333)" d="M 5876.34,835.558 L 5876.34,854.42 L 5451.95,1099.44 L 5451.95,1080.58 L 5876.34,835.558 Z " />
<path stroke="transparent" fill="#000000" transform="matrix(0.0666667 0 0 0.0666667 -20.0667 -52.3333)" d="M 6304.81,1082.94 L 6296.64,1097.08 L 5876.34,854.42 L 5876.34,835.558 L 6304.81,1082.94 Z " />
</svg>
