<?xml version="1.0" standalone="no" ?>
<!DOCTYPE svg PUBLIC "-//W3C//DTD SVG 1.1//EN" "http://www.w3.org/Graphics/SVG/1.1/DTD/svg11.dtd">
<svg width="315px" height="44px" viewBox="0 0 315 44" style="background-color: #ffffffff" xmlns="http://www.w3.org/2000/svg" xmlns:xlink="http://www.w3.org/1999/xlink" version="1.1" >
<text x="0" y="0" stroke="transparent" fill="#000000" transform="matrix(0.05 0 0 0.05 277.055 13.0067)" style="font:normal normal normal 261.6px 'Arial'" >
O</text>
<text x="0" y="0" stroke="transparent" fill="#000000" transform="matrix(0.05 0 0 0.05 293.373 41.2601)" style="font:normal normal normal 261.6px 'Arial'" >
OH</text>
<path stroke="transparent" fill="#000000" transform="matrix(0.05 0 0 0.05 -322 -156)" d="M 11756.6,3863.43 L 11756.6,3845.31 L 12082.8,3656.95 L 12082.8,3675.07 L 11756.6,3863.43 Z " />
<path stroke="transparent" fill="#000000" transform="matrix(0.05 0 0 0.05 -322 -156)" d="M 11430.4,3675.08 L 11430.4,3656.95 L 11756.6,3845.31 L 11756.6,3863.43 L 11430.4,3675.08 Z " />
<path stroke="transparent" fill="#000000" transform="matrix(0.05 0 0 0.05 -322 -156)" d="M 11104.1,3863.43 L 11104.1,3845.31 L 11430.4,3656.95 L 11430.4,3675.08 L 11104.1,3863.43 Z " />
<path stroke="transparent" fill="#000000" transform="matrix(0.05 0 0 0.05 -322 -156)" d="M 10777.9,3675.08 L 10777.9,3656.95 L 11104.1,3845.31 L 11104.1,3863.43 L 10777.9,3675.08 Z " />
<path stroke="transparent" fill="#000000" transform="matrix(0.05 0 0 0.05 -322 -156)" d="M 10453.8,3862.22 L 10449.6,3846.52 L 10777.9,3656.95 L 10777.9,3675.08 L 10453.8,3862.22 Z " />
<path stroke="transparent" fill="#000000" transform="matrix(0.05 0 0 0.05 -322 -156)" d="M 10072.9,3862.22 L 10077.1,3846.52 L 10449.6,3846.52 L 10453.8,3862.22 L 10072.9,3862.22 Z " />
<path stroke="transparent" fill="#000000" transform="matrix(0.05 0 0 0.05 -322 -156)" d="M 10093.1,3794.41 L 10093.1,3778.71 L 10433.5,3778.71 L 10433.5,3794.41 L 10093.1,3794.41 Z " />
<path stroke="transparent" fill="#000000" transform="matrix(0.05 0 0 0.05 -322 -156)" d="M 9748.73,3675.08 L 9748.73,3656.95 L 10077.1,3846.52 L 10072.9,3862.22 L 9748.73,3675.08 Z " />
<path stroke="transparent" fill="#000000" transform="matrix(0.05 0 0 0.05 -322 -156)" d="M 9422.5,3863.43 L 9422.5,3845.31 L 9748.73,3656.95 L 9748.73,3675.08 L 9422.5,3863.43 Z " />
<path stroke="transparent" fill="#000000" transform="matrix(0.05 0 0 0.05 -322 -156)" d="M 9096.27,3675.08 L 9096.27,3656.95 L 9422.5,3845.31 L 9422.5,3863.43 L 9096.27,3675.08 Z " />
<path stroke="transparent" fill="#000000" transform="matrix(0.05 0 0 0.05 -322 -156)" d="M 8770.03,3863.43 L 8770.03,3845.31 L 9096.27,3656.95 L 9096.27,3675.08 L 8770.03,3863.43 Z " />
<path stroke="transparent" fill="#000000" transform="matrix(0.05 0 0 0.05 -322 -156)" d="M 8443.8,3675.08 L 8443.8,3656.95 L 8770.03,3845.31 L 8770.03,3863.43 L 8443.8,3675.08 Z " />
<path stroke="transparent" fill="#000000" transform="matrix(0.05 0 0 0.05 -322 -156)" d="M 8117.57,3863.43 L 8117.57,3845.31 L 8443.8,3656.95 L 8443.8,3675.08 L 8117.57,3863.43 Z " />
<path stroke="transparent" fill="#000000" transform="matrix(0.05 0 0 0.05 -322 -156)" d="M 7791.33,3675.07 L 7791.34,3656.95 L 8117.57,3845.31 L 8117.57,3863.43 L 7791.33,3675.07 Z " />
<path stroke="transparent" fill="#000000" transform="matrix(0.05 0 0 0.05 -322 -156)" d="M 7464.98,3863.43 L 7464.98,3845.31 L 7791.34,3656.95 L 7791.33,3675.07 L 7464.98,3863.43 Z " />
<path stroke="transparent" fill="#000000" transform="matrix(0.05 0 0 0.05 -322 -156)" d="M 7138.74,3675.08 L 7138.74,3656.95 L 7464.98,3845.31 L 7464.98,3863.43 L 7138.74,3675.08 Z " />
<path stroke="transparent" fill="#000000" transform="matrix(0.05 0 0 0.05 -322 -156)" d="M 6812.51,3863.43 L 6812.51,3845.31 L 7138.74,3656.95 L 7138.74,3675.08 L 6812.51,3863.43 Z " />
<path stroke="transparent" fill="#000000" transform="matrix(0.05 0 0 0.05 -322 -156)" d="M 6482.35,3672.81 L 6490.2,3659.22 L 6812.51,3845.31 L 6812.51,3863.43 L 6482.35,3672.81 Z " />
<path stroke="transparent" fill="#000000" transform="matrix(0.05 0 0 0.05 -322 -156)" d="M 12041.1,3424.82 L 12056.8,3424.82 L 12056.8,3685.59 L 12041.1,3685.59 L 12041.1,3424.82 Z " />
<path stroke="transparent" fill="#000000" transform="matrix(0.05 0 0 0.05 -322 -156)" d="M 12108.9,3424.82 L 12124.6,3424.82 L 12124.6,3685.58 L 12108.9,3685.58 L 12108.9,3424.82 Z " />
<path stroke="transparent" fill="#000000" transform="matrix(0.05 0 0 0.05 -322 -156)" d="M 12293.9,3778.78 L 12286.1,3792.38 L 12082.8,3675.07 L 12082.8,3656.95 L 12293.9,3778.78 Z " />
</svg>
