<?xml version="1.0" standalone="no" ?>
<!DOCTYPE svg PUBLIC "-//W3C//DTD SVG 1.1//EN" "http://www.w3.org/Graphics/SVG/1.1/DTD/svg11.dtd">
<svg width="149px" height="110px" viewBox="0 0 149 110" style="background-color: #ffffffff" xmlns="http://www.w3.org/2000/svg" xmlns:xlink="http://www.w3.org/1999/xlink" version="1.1" >
<text x="0" y="0" stroke="transparent" fill="#000000" transform="matrix(0.05 0 0 0.05 64.8919 66.4079)" style="font:normal normal normal 565.6px 'Arial'" >
P</text>
<text x="0" y="0" stroke="transparent" fill="#000000" transform="matrix(0.05 0 0 0.05 63.3246 25.6847)" style="font:normal normal normal 565.6px 'Arial'" >
O</text>
<text x="0" y="0" stroke="transparent" fill="#000000" transform="matrix(0.05 0 0 0.05 2.17855 66.4079)" style="font:normal normal normal 565.6px 'Arial'" >
HO</text>
<text x="0" y="0" stroke="transparent" fill="#000000" transform="matrix(0.05 0 0 0.05 63.3246 107.131)" style="font:normal normal normal 565.6px 'Arial'" >
OH</text>
<text x="0" y="0" stroke="transparent" fill="#000000" transform="matrix(0.05 0 0 0.05 104.048 66.4079)" style="font:normal normal normal 565.6px 'Arial'" >
OH</text>
<path stroke="transparent" fill="#000000" transform="matrix(0.05 0 0 0.05 -395 -145)" d="M 9296.19,3510.69 L 9330.13,3510.69 L 9330.13,3732.16 L 9296.19,3732.16 L 9296.19,3510.69 Z " />
<path stroke="transparent" fill="#000000" transform="matrix(0.05 0 0 0.05 -395 -145)" d="M 9442.8,3510.69 L 9476.73,3510.69 L 9476.73,3732.16 L 9442.8,3732.16 L 9442.8,3510.69 Z " />
<path stroke="transparent" fill="#000000" transform="matrix(0.05 0 0 0.05 -395 -145)" d="M 8856.07,4048.74 L 8856.07,4014.8 L 9150.34,4014.8 L 9150.34,4048.74 L 8856.07,4048.74 Z " />
<path stroke="transparent" fill="#000000" transform="matrix(0.05 0 0 0.05 -395 -145)" d="M 9403.43,4539.63 L 9369.5,4539.63 L 9369.5,4318.15 L 9403.43,4318.15 L 9403.43,4539.63 Z " />
<path stroke="transparent" fill="#000000" transform="matrix(0.05 0 0 0.05 -395 -145)" d="M 9917.46,4014.8 L 9917.46,4048.74 L 9640.33,4048.74 L 9640.33,4014.8 L 9917.46,4014.8 Z " />
</svg>
