<?xml version="1.0" standalone="no" ?>
<!DOCTYPE svg PUBLIC "-//W3C//DTD SVG 1.1//EN" "http://www.w3.org/Graphics/SVG/1.1/DTD/svg11.dtd">
<svg width="576px" height="72px" viewBox="0 0 576 72" style="background-color: #ffffff00" xmlns="http://www.w3.org/2000/svg" xmlns:xlink="http://www.w3.org/1999/xlink" version="1.1" >
<text x="0" y="0" stroke="transparent" fill="#000000" transform="matrix(0.0666667 0 0 0.0666667 3.22408 68.7)" style="font:normal normal normal 200px 'Arial'" >
HO</text>
<path stroke="transparent" fill="#000000" transform="matrix(0.0666667 0 0 0.0666667 -25.0667 -33.3333)" d="M 1686.03,1440.95 L 1686.03,1464.05 L 1166.41,1164.05 L 1166.41,1140.95 L 1686.03,1440.95 Z " />
<path stroke="transparent" fill="#000000" transform="matrix(0.0666667 0 0 0.0666667 -25.0667 -33.3333)" d="M 2195.64,1146.73 L 2205.64,1152.5 L 2205.64,1164.05 L 1686.03,1464.05 L 1686.03,1440.95 L 2195.64,1146.73 Z " />
<path stroke="transparent" fill="#000000" transform="matrix(0.0666667 0 0 0.0666667 -25.0667 -33.3333)" d="M 2128.64,1102.27 L 2138.64,1119.59 L 1691.03,1378.02 L 1681.03,1360.7 L 2128.64,1102.27 Z " />
<path stroke="transparent" fill="#000000" transform="matrix(0.0666667 0 0 0.0666667 -25.0667 -33.3333)" d="M 2195.64,552.5 L 2215.64,552.5 L 2215.64,1146.73 L 2205.64,1152.5 L 2195.64,1146.73 L 2195.64,552.5 Z " />
<path stroke="transparent" fill="#000000" transform="matrix(0.0666667 0 0 0.0666667 -25.0667 -33.3333)" d="M 2725.26,1440.95 L 2725.26,1464.05 L 2205.64,1164.05 L 2205.64,1152.5 L 2215.64,1146.73 L 2725.26,1440.95 Z " />
<path stroke="transparent" fill="#000000" transform="matrix(0.0666667 0 0 0.0666667 -25.0667 -33.3333)" d="M 3244.87,1140.95 L 3244.87,1164.05 L 2725.26,1464.05 L 2725.26,1440.95 L 3244.87,1140.95 Z " />
<path stroke="transparent" fill="#000000" transform="matrix(0.0666667 0 0 0.0666667 -25.0667 -33.3333)" d="M 3764.49,1440.95 L 3764.49,1464.05 L 3244.87,1164.05 L 3244.87,1140.95 L 3764.49,1440.95 Z " />
<path stroke="transparent" fill="#000000" transform="matrix(0.0666667 0 0 0.0666667 -25.0667 -33.3333)" d="M 4274.1,1146.73 L 4284.1,1152.5 L 4284.1,1164.05 L 3764.49,1464.05 L 3764.49,1440.95 L 4274.1,1146.73 Z " />
<path stroke="transparent" fill="#000000" transform="matrix(0.0666667 0 0 0.0666667 -25.0667 -33.3333)" d="M 4274.1,552.5 L 4294.1,552.5 L 4294.1,1146.73 L 4284.1,1152.5 L 4274.1,1146.73 L 4274.1,552.5 Z " />
<path stroke="transparent" fill="#000000" transform="matrix(0.0666667 0 0 0.0666667 -25.0667 -33.3333)" d="M 4803.72,1440.95 L 4803.72,1464.05 L 4284.1,1164.05 L 4284.1,1152.5 L 4294.1,1146.73 L 4803.72,1440.95 Z " />
<path stroke="transparent" fill="#000000" transform="matrix(0.0666667 0 0 0.0666667 -25.0667 -33.3333)" d="M 5323.33,1140.95 L 5323.33,1164.05 L 4803.72,1464.05 L 4803.72,1440.95 L 5323.33,1140.95 Z " />
<path stroke="transparent" fill="#000000" transform="matrix(0.0666667 0 0 0.0666667 -25.0667 -33.3333)" d="M 5842.95,1440.95 L 5842.95,1464.05 L 5323.33,1164.05 L 5323.33,1140.95 L 5842.95,1440.95 Z " />
<path stroke="transparent" fill="#000000" transform="matrix(0.0666667 0 0 0.0666667 -25.0667 -33.3333)" d="M 6352.56,1146.73 L 6362.56,1152.5 L 6362.56,1164.05 L 5842.95,1464.05 L 5842.95,1440.95 L 6352.56,1146.73 Z " />
<path stroke="transparent" fill="#000000" transform="matrix(0.0666667 0 0 0.0666667 -25.0667 -33.3333)" d="M 6352.56,552.5 L 6372.56,552.5 L 6372.56,1146.73 L 6362.56,1152.5 L 6352.56,1146.73 L 6352.56,552.5 Z " />
<path stroke="transparent" fill="#000000" transform="matrix(0.0666667 0 0 0.0666667 -25.0667 -33.3333)" d="M 6882.18,1440.95 L 6882.18,1464.05 L 6362.56,1164.05 L 6362.56,1152.5 L 6372.56,1146.73 L 6882.18,1440.95 Z " />
<path stroke="transparent" fill="#000000" transform="matrix(0.0666667 0 0 0.0666667 -25.0667 -33.3333)" d="M 7401.79,1140.95 L 7401.79,1164.05 L 6882.18,1464.05 L 6882.18,1440.95 L 7401.79,1140.95 Z " />
<path stroke="transparent" fill="#000000" transform="matrix(0.0666667 0 0 0.0666667 -25.0667 -33.3333)" d="M 7921.41,1440.95 L 7921.41,1464.05 L 7401.79,1164.05 L 7401.79,1140.95 L 7921.41,1440.95 Z " />
<path stroke="transparent" fill="#000000" transform="matrix(0.0666667 0 0 0.0666667 -25.0667 -33.3333)" d="M 8431.02,1146.73 L 8441.02,1152.5 L 8441.02,1164.05 L 7921.41,1464.05 L 7921.41,1440.95 L 8431.02,1146.73 Z " />
<path stroke="transparent" fill="#000000" transform="matrix(0.0666667 0 0 0.0666667 -25.0667 -33.3333)" d="M 8431.02,552.5 L 8451.02,552.5 L 8451.02,1146.73 L 8441.02,1152.5 L 8431.02,1146.73 L 8431.02,552.5 Z " />
<path stroke="transparent" fill="#000000" transform="matrix(0.0666667 0 0 0.0666667 -25.0667 -33.3333)" d="M 8965.64,1443.84 L 8955.64,1461.16 L 8441.02,1164.05 L 8441.02,1152.5 L 8451.02,1146.73 L 8965.64,1443.84 Z " />
<path stroke="transparent" fill="#000000" transform="matrix(0.0666667 0 0 0.0666667 -25.0667 -33.3333)" d="M 744.405,1407.69 L 734.405,1390.37 L 1166.41,1140.95 L 1166.41,1164.05 L 744.405,1407.69 Z " />
</svg>
