<?xml version="1.0" standalone="no" ?>
<!DOCTYPE svg PUBLIC "-//W3C//DTD SVG 1.1//EN" "http://www.w3.org/Graphics/SVG/1.1/DTD/svg11.dtd">
<svg width="438px" height="133px" viewBox="0 0 438 133" style="background-color: #ffffff00" xmlns="http://www.w3.org/2000/svg" xmlns:xlink="http://www.w3.org/1999/xlink" version="1.1" >
<text x="0" y="0" stroke="transparent" fill="#000000" transform="matrix(0.0666667 0 0 0.0666667 275.934 114.021)" style="font:normal normal normal 200px 'Arial'" >
OH</text>
<text x="0" y="0" stroke="transparent" fill="#000000" transform="matrix(0.0666667 0 0 0.0666667 310.575 14.0207)" style="font:normal normal normal 200px 'Arial'" >
OH</text>
<text x="0" y="0" stroke="transparent" fill="#000000" transform="matrix(0.0666667 0 0 0.0666667 345.616 114.021)" style="font:normal normal normal 200px 'Arial'" >
NH</text>
<text x="0" y="0" stroke="transparent" fill="#000000" transform="matrix(0.0666667 0 0 0.0666667 364.874 116.954)" style="font:normal normal normal 150px 'Arial'" >
2</text>
<text x="0" y="0" stroke="transparent" fill="#000000" transform="matrix(0.0666667 0 0 0.0666667 414.498 74.0206)" style="font:normal normal normal 200px 'Arial'" >
OH</text>
<path stroke="transparent" fill="#000000" transform="matrix(0.0666667 0 0 0.0666667 -35.0667 -3.33333)" d="M 4223.4,793.857 L 4223.4,770.763 L 4743.01,1070.76 L 4743.01,1093.86 L 4223.4,793.857 Z " />
<path stroke="transparent" fill="#000000" transform="matrix(0.0666667 0 0 0.0666667 -35.0667 -3.33333)" d="M 5252.06,776.864 L 5262.63,782.31 L 5262.63,793.857 L 4743.01,1093.86 L 4743.01,1070.76 L 5252.06,776.864 Z " />
<path stroke="transparent" fill="#000000" transform="matrix(0.0666667 0 0 0.0666667 -35.0667 -3.33333)" d="M 4803.01,1577.14 L 4683.01,1577.14 L 4685.28,1557.14 L 4800.75,1557.14 L 4803.01,1577.14 Z " />
<path stroke="transparent" fill="#000000" transform="matrix(0.0666667 0 0 0.0666667 -35.0667 -3.33333)" d="M 4796.2,1517.04 L 4689.83,1517.04 L 4692.1,1497.04 L 4793.93,1497.04 L 4796.2,1517.04 Z " />
<path stroke="transparent" fill="#000000" transform="matrix(0.0666667 0 0 0.0666667 -35.0667 -3.33333)" d="M 4789.38,1456.93 L 4696.65,1456.93 L 4698.92,1436.93 L 4787.11,1436.93 L 4789.38,1456.93 Z " />
<path stroke="transparent" fill="#000000" transform="matrix(0.0666667 0 0 0.0666667 -35.0667 -3.33333)" d="M 4782.56,1396.82 L 4703.47,1396.82 L 4705.74,1376.82 L 4780.29,1376.82 L 4782.56,1396.82 Z " />
<path stroke="transparent" fill="#000000" transform="matrix(0.0666667 0 0 0.0666667 -35.0667 -3.33333)" d="M 4775.74,1336.72 L 4710.29,1336.72 L 4712.56,1316.72 L 4773.47,1316.72 L 4775.74,1336.72 Z " />
<path stroke="transparent" fill="#000000" transform="matrix(0.0666667 0 0 0.0666667 -35.0667 -3.33333)" d="M 4768.92,1276.61 L 4717.11,1276.61 L 4719.38,1256.61 L 4766.65,1256.61 L 4768.92,1276.61 Z " />
<path stroke="transparent" fill="#000000" transform="matrix(0.0666667 0 0 0.0666667 -35.0667 -3.33333)" d="M 4762.1,1216.51 L 4723.93,1216.51 L 4726.2,1196.51 L 4759.83,1196.51 L 4762.1,1216.51 Z " />
<path stroke="transparent" fill="#000000" transform="matrix(0.0666667 0 0 0.0666667 -35.0667 -3.33333)" d="M 4755.28,1156.4 L 4730.75,1156.4 L 4733.01,1136.4 L 4753.01,1136.4 L 4755.28,1156.4 Z " />
<path stroke="transparent" fill="#000000" transform="matrix(0.0666667 0 0 0.0666667 -35.0667 -3.33333)" d="M 3703.78,1093.86 L 3703.78,1070.76 L 4223.4,770.763 L 4223.4,793.857 L 3703.78,1093.86 Z " />
<path stroke="transparent" fill="#000000" transform="matrix(0.0666667 0 0 0.0666667 -35.0667 -3.33333)" d="M 5782.24,1070.76 L 5782.24,1093.86 L 5262.63,793.857 L 5262.63,782.31 L 5273.19,776.864 L 5782.24,1070.76 Z " />
<path stroke="transparent" fill="#000000" transform="matrix(0.0666667 0 0 0.0666667 -35.0667 -3.33333)" d="M 5202.63,302.145 L 5322.63,302.145 L 5273.19,776.864 L 5262.63,782.31 L 5252.06,776.864 L 5202.63,302.145 Z " />
<path stroke="transparent" fill="#000000" transform="matrix(0.0666667 0 0 0.0666667 -35.0667 -3.33333)" d="M 3184.17,793.857 L 3184.17,770.763 L 3703.78,1070.76 L 3703.78,1093.86 L 3184.17,793.857 Z " />
<path stroke="transparent" fill="#000000" transform="matrix(0.0666667 0 0 0.0666667 -35.0667 -3.33333)" d="M 6301.86,770.763 L 6301.86,793.857 L 5782.24,1093.86 L 5782.24,1070.76 L 6301.86,770.763 Z " />
<path stroke="transparent" fill="#000000" transform="matrix(0.0666667 0 0 0.0666667 -35.0667 -3.33333)" d="M 5842.24,1579.48 L 5722.24,1579.48 L 5724.5,1559.48 L 5839.99,1559.48 L 5842.24,1579.48 Z " />
<path stroke="transparent" fill="#000000" transform="matrix(0.0666667 0 0 0.0666667 -35.0667 -3.33333)" d="M 5835.42,1519.03 L 5729.06,1519.03 L 5731.32,1499.03 L 5833.16,1499.03 L 5835.42,1519.03 Z " />
<path stroke="transparent" fill="#000000" transform="matrix(0.0666667 0 0 0.0666667 -35.0667 -3.33333)" d="M 5828.6,1458.58 L 5735.88,1458.58 L 5738.14,1438.58 L 5826.34,1438.58 L 5828.6,1458.58 Z " />
<path stroke="transparent" fill="#000000" transform="matrix(0.0666667 0 0 0.0666667 -35.0667 -3.33333)" d="M 5821.78,1398.13 L 5742.7,1398.13 L 5744.96,1378.13 L 5819.52,1378.13 L 5821.78,1398.13 Z " />
<path stroke="transparent" fill="#000000" transform="matrix(0.0666667 0 0 0.0666667 -35.0667 -3.33333)" d="M 5814.96,1337.68 L 5749.52,1337.68 L 5751.78,1317.68 L 5812.7,1317.68 L 5814.96,1337.68 Z " />
<path stroke="transparent" fill="#000000" transform="matrix(0.0666667 0 0 0.0666667 -35.0667 -3.33333)" d="M 5808.14,1277.23 L 5756.34,1277.23 L 5758.6,1257.23 L 5805.88,1257.23 L 5808.14,1277.23 Z " />
<path stroke="transparent" fill="#000000" transform="matrix(0.0666667 0 0 0.0666667 -35.0667 -3.33333)" d="M 5801.32,1216.78 L 5763.16,1216.78 L 5765.42,1196.78 L 5799.06,1196.78 L 5801.32,1216.78 Z " />
<path stroke="transparent" fill="#000000" transform="matrix(0.0666667 0 0 0.0666667 -35.0667 -3.33333)" d="M 5794.5,1156.33 L 5769.99,1156.33 L 5772.24,1136.33 L 5792.24,1136.33 L 5794.5,1156.33 Z " />
<path stroke="transparent" fill="#000000" transform="matrix(0.0666667 0 0 0.0666667 -35.0667 -3.33333)" d="M 2664.56,1093.86 L 2664.56,1070.76 L 3184.17,770.763 L 3184.17,793.857 L 2664.56,1093.86 Z " />
<path stroke="transparent" fill="#000000" transform="matrix(0.0666667 0 0 0.0666667 -35.0667 -3.33333)" d="M 6733.85,1020.18 L 6723.85,1037.5 L 6301.86,793.857 L 6301.86,770.763 L 6733.85,1020.18 Z " />
<path stroke="transparent" fill="#000000" transform="matrix(0.0666667 0 0 0.0666667 -35.0667 -3.33333)" d="M 2144.94,793.857 L 2144.94,770.763 L 2664.56,1070.76 L 2664.56,1093.86 L 2144.94,793.857 Z " />
<path stroke="transparent" fill="#000000" transform="matrix(0.0666667 0 0 0.0666667 -35.0667 -3.33333)" d="M 1625.33,1093.86 L 1625.33,1070.76 L 2144.94,770.763 L 2144.94,793.857 L 1625.33,1093.86 Z " />
<path stroke="transparent" fill="#000000" transform="matrix(0.0666667 0 0 0.0666667 -35.0667 -3.33333)" d="M 1105.71,793.857 L 1105.71,770.763 L 1625.33,1070.76 L 1625.33,1093.86 L 1105.71,793.857 Z " />
<path stroke="transparent" fill="#000000" transform="matrix(0.0666667 0 0 0.0666667 -35.0667 -3.33333)" d="M 596.097,1088.08 L 576.097,1076.54 L 1105.71,770.763 L 1105.71,793.857 L 596.097,1088.08 Z " />
<path stroke="transparent" fill="#000000" transform="matrix(0.0666667 0 0 0.0666667 -35.0667 -3.33333)" d="M 596.097,1676.54 L 576.097,1688.08 L 576.097,1076.54 L 596.097,1088.08 L 596.097,1676.54 Z " />
<path stroke="transparent" fill="#000000" transform="matrix(0.0666667 0 0 0.0666667 -35.0667 -3.33333)" d="M 1105.71,1970.76 L 1105.71,1993.86 L 576.097,1688.08 L 596.097,1676.54 L 1105.71,1970.76 Z " />
<path stroke="transparent" fill="#000000" transform="matrix(0.0666667 0 0 0.0666667 -35.0667 -3.33333)" d="M 1625.33,1670.76 L 1625.33,1693.86 L 1105.71,1993.86 L 1105.71,1970.76 L 1625.33,1670.76 Z " />
<path stroke="transparent" fill="#000000" transform="matrix(0.0666667 0 0 0.0666667 -35.0667 -3.33333)" d="M 2144.94,1970.76 L 2144.94,1993.86 L 1625.33,1693.86 L 1625.33,1670.76 L 2144.94,1970.76 Z " />
<path stroke="transparent" fill="#000000" transform="matrix(0.0666667 0 0 0.0666667 -35.0667 -3.33333)" d="M 2664.56,1670.76 L 2664.56,1693.86 L 2144.94,1993.86 L 2144.94,1970.76 L 2664.56,1670.76 Z " />
<path stroke="transparent" fill="#000000" transform="matrix(0.0666667 0 0 0.0666667 -35.0667 -3.33333)" d="M 3189.17,1973.65 L 3179.17,1990.97 L 2664.56,1693.86 L 2664.56,1670.76 L 3189.17,1973.65 Z " />
</svg>
