<?xml version="1.0" standalone="no" ?>
<!DOCTYPE svg PUBLIC "-//W3C//DTD SVG 1.1//EN" "http://www.w3.org/Graphics/SVG/1.1/DTD/svg11.dtd">
<svg width="527px" height="112px" viewBox="0 0 527 112" style="background-color: #ffffff00" xmlns="http://www.w3.org/2000/svg" xmlns:xlink="http://www.w3.org/1999/xlink" version="1.1" >
<path stroke="transparent" fill="#000000" transform="matrix(0.0666667 0 0 0.0666667 -13.0667 -20.3333)" d="M 771.025,1245.95 L 771.025,1257.5 L 761.025,1263.27 L 246.41,966.16 L 256.41,948.84 L 771.025,1245.95 Z " />
<path stroke="transparent" fill="#000000" transform="matrix(0.0666667 0 0 0.0666667 -13.0667 -20.3333)" d="M 1280.64,951.726 L 1290.64,957.5 L 1290.64,969.047 L 781.025,1263.27 L 771.025,1257.5 L 771.025,1245.95 L 1280.64,951.726 Z " />
<path stroke="transparent" fill="#000000" transform="matrix(0.0666667 0 0 0.0666667 -13.0667 -20.3333)" d="M 1285.64,1031.98 L 1295.64,1049.3 L 848.025,1307.73 L 838.025,1290.41 L 1285.64,1031.98 Z " />
<path stroke="transparent" fill="#000000" transform="matrix(0.0666667 0 0 0.0666667 -13.0667 -20.3333)" d="M 1280.64,357.5 L 1300.64,357.5 L 1300.64,951.726 L 1290.64,957.5 L 1280.64,951.726 L 1280.64,357.5 Z " />
<path stroke="transparent" fill="#000000" transform="matrix(0.0666667 0 0 0.0666667 -13.0667 -20.3333)" d="M 1810.26,1245.95 L 1810.26,1269.05 L 1290.64,969.047 L 1290.64,957.5 L 1300.64,951.726 L 1810.26,1245.95 Z " />
<path stroke="transparent" fill="#000000" transform="matrix(0.0666667 0 0 0.0666667 -13.0667 -20.3333)" d="M 2329.87,945.953 L 2329.87,969.047 L 1810.26,1269.05 L 1810.26,1245.95 L 2329.87,945.953 Z " />
<path stroke="transparent" fill="#000000" transform="matrix(0.0666667 0 0 0.0666667 -13.0667 -20.3333)" d="M 2849.49,1245.95 L 2849.49,1269.05 L 2329.87,969.047 L 2329.87,945.953 L 2849.49,1245.95 Z " />
<path stroke="transparent" fill="#000000" transform="matrix(0.0666667 0 0 0.0666667 -13.0667 -20.3333)" d="M 3359.1,951.726 L 3369.1,957.5 L 3369.1,969.047 L 2849.49,1269.05 L 2849.49,1245.95 L 3359.1,951.726 Z " />
<path stroke="transparent" fill="#000000" transform="matrix(0.0666667 0 0 0.0666667 -13.0667 -20.3333)" d="M 3359.1,357.5 L 3379.1,357.5 L 3379.1,951.726 L 3369.1,957.5 L 3359.1,951.726 L 3359.1,357.5 Z " />
<path stroke="transparent" fill="#000000" transform="matrix(0.0666667 0 0 0.0666667 -13.0667 -20.3333)" d="M 3888.72,1245.95 L 3888.72,1269.05 L 3369.1,969.047 L 3369.1,957.5 L 3379.1,951.726 L 3888.72,1245.95 Z " />
<path stroke="transparent" fill="#000000" transform="matrix(0.0666667 0 0 0.0666667 -13.0667 -20.3333)" d="M 4408.33,945.953 L 4408.33,969.047 L 3888.72,1269.05 L 3888.72,1245.95 L 4408.33,945.953 Z " />
<path stroke="transparent" fill="#000000" transform="matrix(0.0666667 0 0 0.0666667 -13.0667 -20.3333)" d="M 4927.95,1245.95 L 4927.95,1269.05 L 4408.33,969.047 L 4408.33,945.953 L 4927.95,1245.95 Z " />
<path stroke="transparent" fill="#000000" transform="matrix(0.0666667 0 0 0.0666667 -13.0667 -20.3333)" d="M 5437.56,951.726 L 5447.56,957.5 L 5447.56,969.047 L 4927.95,1269.05 L 4927.95,1245.95 L 5437.56,951.726 Z " />
<path stroke="transparent" fill="#000000" transform="matrix(0.0666667 0 0 0.0666667 -13.0667 -20.3333)" d="M 5437.56,357.5 L 5457.56,357.5 L 5457.56,951.726 L 5447.56,957.5 L 5437.56,951.726 L 5437.56,357.5 Z " />
<path stroke="transparent" fill="#000000" transform="matrix(0.0666667 0 0 0.0666667 -13.0667 -20.3333)" d="M 5967.18,1245.95 L 5967.18,1269.05 L 5447.56,969.047 L 5447.56,957.5 L 5457.56,951.726 L 5967.18,1245.95 Z " />
<path stroke="transparent" fill="#000000" transform="matrix(0.0666667 0 0 0.0666667 -13.0667 -20.3333)" d="M 6486.79,945.953 L 6486.79,969.047 L 5967.18,1269.05 L 5967.18,1245.95 L 6486.79,945.953 Z " />
<path stroke="transparent" fill="#000000" transform="matrix(0.0666667 0 0 0.0666667 -13.0667 -20.3333)" d="M 7006.41,1245.95 L 7006.41,1269.05 L 6486.79,969.047 L 6486.79,945.953 L 7006.41,1245.95 Z " />
<path stroke="transparent" fill="#000000" transform="matrix(0.0666667 0 0 0.0666667 -13.0667 -20.3333)" d="M 7516.02,951.726 L 7526.02,957.5 L 7526.02,969.047 L 7006.41,1269.05 L 7006.41,1245.95 L 7516.02,951.726 Z " />
<path stroke="transparent" fill="#000000" transform="matrix(0.0666667 0 0 0.0666667 -13.0667 -20.3333)" d="M 7516.02,357.5 L 7536.02,357.5 L 7536.02,951.726 L 7526.02,957.5 L 7516.02,951.726 L 7516.02,357.5 Z " />
<path stroke="transparent" fill="#000000" transform="matrix(0.0666667 0 0 0.0666667 -13.0667 -20.3333)" d="M 8050.64,1248.84 L 8040.64,1266.16 L 7526.02,969.047 L 7526.02,957.5 L 7536.02,951.726 L 8050.64,1248.84 Z " />
<text x="0" y="0" stroke="transparent" fill="#000000" transform="matrix(0.0666667 0 0 0.0666667 33.135 108.7)" style="font:normal normal normal 200px 'Arial'" >
OH</text>
<path stroke="transparent" fill="#000000" transform="matrix(0.0666667 0 0 0.0666667 -13.0667 -20.3333)" d="M 781.025,1752.33 L 761.025,1752.33 L 761.025,1263.27 L 771.025,1257.5 L 781.025,1263.27 L 781.025,1752.33 Z " />
</svg>
