<?xml version="1.0" standalone="no" ?>
<!DOCTYPE svg PUBLIC "-//W3C//DTD SVG 1.1//EN" "http://www.w3.org/Graphics/SVG/1.1/DTD/svg11.dtd">
<svg width="284px" height="112px" viewBox="0 0 284 112" style="background-color: #ffffff00" xmlns="http://www.w3.org/2000/svg" xmlns:xlink="http://www.w3.org/1999/xlink" version="1.1" >
<text x="0" y="0" stroke="transparent" fill="#000000" transform="matrix(0.0666667 0 0 0.0666667 171.374 14.4056)" style="font:normal normal normal 200px 'Arial'" >
O</text>
<text x="0" y="0" stroke="transparent" fill="#000000" transform="matrix(0.0666667 0 0 0.0666667 206.015 74.4056)" style="font:normal normal normal 200px 'Arial'" >
O</text>
<text x="0" y="0" stroke="transparent" fill="#000000" transform="matrix(0.0666667 0 0 0.0666667 67.4513 74.4056)" style="font:normal normal normal 200px 'Arial'" >
O</text>
<text x="0" y="0" stroke="transparent" fill="#000000" transform="matrix(0.0666667 0 0 0.0666667 32.0826 54.4056)" style="font:normal normal normal 200px 'Arial'" >
Si</text>
<text x="0" y="0" stroke="transparent" fill="#000000" transform="matrix(0.0666667 0 0 0.0666667 239.929 54.4056)" style="font:normal normal normal 200px 'Arial'" >
Si</text>
<path stroke="transparent" fill="#000000" transform="matrix(0.0666667 0 0 0.0666667 -27.0667 -23.3333)" d="M 2545,1393.86 L 2535,1388.08 L 2535,1376.54 L 3054.62,1076.54 L 3054.62,1099.63 L 2545,1393.86 Z " />
<path stroke="transparent" fill="#000000" transform="matrix(0.0666667 0 0 0.0666667 -27.0667 -23.3333)" d="M 2015.38,1099.63 L 2015.38,1076.54 L 2535,1376.54 L 2535,1388.08 L 2525,1393.86 L 2015.38,1099.63 Z " />
<path stroke="transparent" fill="#000000" transform="matrix(0.0666667 0 0 0.0666667 -27.0667 -23.3333)" d="M 3008.62,607.917 L 3028.62,607.917 L 3028.62,1108.87 L 3008.62,1108.87 L 3008.62,607.917 Z " />
<path stroke="transparent" fill="#000000" transform="matrix(0.0666667 0 0 0.0666667 -27.0667 -23.3333)" d="M 3080.62,607.917 L 3100.62,607.917 L 3100.62,1108.87 L 3080.62,1108.87 L 3080.62,607.917 Z " />
<path stroke="transparent" fill="#000000" transform="matrix(0.0666667 0 0 0.0666667 -27.0667 -23.3333)" d="M 3486.61,1325.95 L 3476.61,1343.27 L 3054.62,1099.63 L 3054.62,1076.54 L 3486.61,1325.95 Z " />
<path stroke="transparent" fill="#000000" transform="matrix(0.0666667 0 0 0.0666667 -27.0667 -23.3333)" d="M 451.539,796.744 L 461.539,779.423 L 875.341,1018.33 L 865.341,1035.65 L 451.539,796.744 Z " />
<path stroke="transparent" fill="#000000" transform="matrix(0.0666667 0 0 0.0666667 -27.0667 -23.3333)" d="M 966.154,488.083 L 986.154,488.083 L 986.154,983.083 L 966.154,983.083 L 966.154,488.083 Z " />
<path stroke="transparent" fill="#000000" transform="matrix(0.0666667 0 0 0.0666667 -27.0667 -23.3333)" d="M 461.539,1396.74 L 451.539,1379.42 L 856.712,1145.5 L 866.712,1162.82 L 461.539,1396.74 Z " />
<path stroke="transparent" fill="#000000" transform="matrix(0.0666667 0 0 0.0666667 -27.0667 -23.3333)" d="M 1096.75,1169.26 L 1106.75,1151.94 L 1408.15,1325.95 L 1398.15,1343.27 L 1096.75,1169.26 Z " />
<path stroke="transparent" fill="#000000" transform="matrix(0.0666667 0 0 0.0666667 -27.0667 -23.3333)" d="M 1593.39,1343.27 L 1583.39,1325.95 L 2015.38,1076.54 L 2015.38,1099.63 L 1593.39,1343.27 Z " />
<path stroke="transparent" fill="#000000" transform="matrix(0.0666667 0 0 0.0666667 -27.0667 -23.3333)" d="M 2545,1988.08 L 2525,1988.08 L 2525,1393.86 L 2535,1388.08 L 2545,1393.86 L 2545,1988.08 Z " />
<path stroke="transparent" fill="#000000" transform="matrix(0.0666667 0 0 0.0666667 -27.0667 -23.3333)" d="M 4618.46,1379.42 L 4608.46,1396.74 L 4214.44,1169.26 L 4224.44,1151.94 L 4618.46,1379.42 Z " />
<path stroke="transparent" fill="#000000" transform="matrix(0.0666667 0 0 0.0666667 -27.0667 -23.3333)" d="M 4083.85,488.083 L 4103.85,488.083 L 4103.85,983.083 L 4083.85,983.083 L 4083.85,488.083 Z " />
<path stroke="transparent" fill="#000000" transform="matrix(0.0666667 0 0 0.0666667 -27.0667 -23.3333)" d="M 4608.46,779.423 L 4618.46,796.744 L 4217.08,1028.48 L 4207.08,1011.16 L 4608.46,779.423 Z " />
<path stroke="transparent" fill="#000000" transform="matrix(0.0666667 0 0 0.0666667 -27.0667 -23.3333)" d="M 3974.4,1145.5 L 3984.4,1162.82 L 3671.85,1343.27 L 3661.85,1325.95 L 3974.4,1145.5 Z " />
</svg>
