<?xml version="1.0" standalone="no" ?>
<!DOCTYPE svg PUBLIC "-//W3C//DTD SVG 1.1//EN" "http://www.w3.org/Graphics/SVG/1.1/DTD/svg11.dtd">
<svg width="197px" height="41px" viewBox="0 0 197 41" style="background-color: #ffffffff" xmlns="http://www.w3.org/2000/svg" xmlns:xlink="http://www.w3.org/1999/xlink" version="1.1" >
<text x="0" y="0" stroke="transparent" fill="#000000" transform="matrix(0.05 0 0 0.05 2.17495 34.8301)" style="font:normal normal normal 417.4px 'Arial'" >
H</text>
<text x="0" y="0" stroke="transparent" fill="#000000" transform="matrix(0.05 0 0 0.05 17.2466 38.1925)" style="font:normal normal normal 313.05px 'Arial'" >
2</text>
<text x="0" y="0" stroke="transparent" fill="#000000" transform="matrix(0.05 0 0 0.05 25.9518 34.8301)" style="font:normal normal normal 417.4px 'Arial'" >
N</text>
<text x="0" y="0" stroke="transparent" fill="#000000" transform="matrix(0.05 0 0 0.05 156.093 19.8034)" style="font:normal normal normal 417.4px 'Arial'" >
NH</text>
<text x="0" y="0" stroke="transparent" fill="#000000" transform="matrix(0.05 0 0 0.05 186.237 23.1658)" style="font:normal normal normal 313.05px 'Arial'" >
2</text>
<path stroke="transparent" fill="#000000" transform="matrix(0.05 0 0 0.05 -337 -123)" d="M 7930.28,2696.68 L 7930.28,2725.6 L 7627.3,2900.53 L 7614.78,2878.84 L 7930.28,2696.68 Z " />
<path stroke="transparent" fill="#000000" transform="matrix(0.05 0 0 0.05 -337 -123)" d="M 8450.8,2997.21 L 8450.8,3026.13 L 7930.28,2725.6 L 7930.28,2696.68 L 8450.8,2997.21 Z " />
<path stroke="transparent" fill="#000000" transform="matrix(0.05 0 0 0.05 -337 -123)" d="M 8971.53,2696.68 L 8971.53,2725.6 L 8450.8,3026.13 L 8450.8,2997.21 L 8971.53,2696.68 Z " />
<path stroke="transparent" fill="#000000" transform="matrix(0.05 0 0 0.05 -337 -123)" d="M 9492.06,2997.21 L 9492.06,3026.13 L 8971.53,2725.6 L 8971.53,2696.68 L 9492.06,2997.21 Z " />
<path stroke="transparent" fill="#000000" transform="matrix(0.05 0 0 0.05 -337 -123)" d="M 9796.3,2821.55 L 9808.82,2843.24 L 9492.06,3026.13 L 9492.06,2997.21 L 9796.3,2821.55 Z " />
</svg>
