<?xml version="1.0" standalone="no" ?>
<!DOCTYPE svg PUBLIC "-//W3C//DTD SVG 1.1//EN" "http://www.w3.org/Graphics/SVG/1.1/DTD/svg11.dtd">
<svg width="213px" height="95px" viewBox="0 0 213 95" style="background-color: #ffffffff" xmlns="http://www.w3.org/2000/svg" xmlns:xlink="http://www.w3.org/1999/xlink" version="1.1" >
<text x="0" y="0" stroke="transparent" fill="#000000" transform="matrix(0.05 0 0 0.05 138.375 40.1911)" style="font:normal normal normal 567.142px 'Arial'" >
N</text>
<path stroke="transparent" fill="#000000" transform="matrix(0.05 0 0 0.05 -293 -90)" d="M 8765.01,3208.73 L 8746.8,3219.24 L 8730.79,3208.84 L 8785.44,2689.47 L 8819.28,2693.03 L 8765.01,3208.73 Z " />
<path stroke="transparent" fill="#000000" transform="matrix(0.05 0 0 0.05 -293 -90)" d="M 9488.62,3530.8 L 9497.37,3571.94 L 8747.8,3238.31 L 8746.8,3219.24 L 8765.01,3208.73 L 9488.62,3530.8 Z " />
<path stroke="transparent" fill="#000000" transform="matrix(0.05 0 0 0.05 -293 -90)" d="M 10018.5,2942.09 L 10060.3,2946.48 L 9497.37,3571.94 L 9488.62,3530.8 L 10018.5,2942.09 Z " />
<path stroke="transparent" fill="#000000" transform="matrix(0.05 0 0 0.05 -293 -90)" d="M 9622.46,2256.24 L 9639.57,2217.81 L 10060.3,2946.48 L 10018.5,2942.09 L 9622.46,2256.24 Z " />
<path stroke="transparent" fill="#000000" transform="matrix(0.05 0 0 0.05 -293 -90)" d="M 9639.57,2217.81 L 9622.46,2256.24 L 9104.03,2366.5 L 9096.95,2333.21 L 9639.57,2217.81 Z " />
<path stroke="transparent" fill="#000000" transform="matrix(0.05 0 0 0.05 -293 -90)" d="M 8214.09,1873.17 L 8236.86,1847.88 L 8582.58,2159.18 L 8559.82,2184.46 L 8214.09,1873.17 Z " />
<path stroke="transparent" fill="#000000" transform="matrix(0.05 0 0 0.05 -293 -90)" d="M 7332.27,3238.89 L 7332.27,3199.6 L 8039.53,3607.95 L 8039.53,3647.24 L 7332.27,3238.89 Z " />
<path stroke="transparent" fill="#000000" transform="matrix(0.05 0 0 0.05 -293 -90)" d="M 6625.01,3647.24 L 6625.01,3607.95 L 7332.27,3199.6 L 7332.27,3238.89 L 6625.01,3647.24 Z " />
<path stroke="transparent" fill="#000000" transform="matrix(0.05 0 0 0.05 -293 -90)" d="M 5909.24,3233.98 L 5926.25,3204.51 L 6625.01,3607.95 L 6625.01,3647.24 L 5909.24,3233.98 Z " />
<path stroke="transparent" fill="#000000" transform="matrix(0.05 0 0 0.05 -293 -90)" d="M 8039.53,3647.24 L 8039.53,3607.95 L 8730.79,3208.84 L 8746.8,3219.24 L 8747.8,3238.31 L 8039.53,3647.24 Z " />
</svg>

