<?xml version="1.0" encoding="iso-8859-1"?><svg xmlns="http://www.w3.org/2000/svg" xmlns:rdkit="http://www.rdkit.org/xml" xmlns:xlink="http://www.w3.org/1999/xlink" version="1.1" baseProfile="full" xml:space="preserve" width="213.20999999999998px" height="195.23999999999998px" viewBox="0 0 7107 6508">
<!-- END OF HEADER -->
<rect style="opacity:1.0;fill:#00000000;stroke:none" width="7107.0" height="6508.0" x="0.0" y="0.0"> </rect>
<path class="bond-0 atom-0 atom-1" d="M 6652.3,3737.5 L 4938.0,2747.7" style="fill:none;fill-rule:evenodd;stroke:#000000;stroke-width:90.0px;stroke-linecap:butt;stroke-linejoin:miter;stroke-opacity:1"/>
<path class="bond-1 atom-1 atom-2" d="M 5086.5,2833.4 L 5086.4,2059.8" style="fill:none;fill-rule:evenodd;stroke:#000000;stroke-width:90.0px;stroke-linecap:butt;stroke-linejoin:miter;stroke-opacity:1"/>
<path class="bond-1 atom-1 atom-2" d="M 5086.4,2059.8 L 5086.3,1286.3" style="fill: none; fill-rule: evenodd; stroke: rgb(0, 0, 0); stroke-width: 90px; stroke-linecap: butt; stroke-linejoin: miter; stroke-opacity: 1;"/>
<path class="bond-1 atom-1 atom-2" d="M 4789.5,2833.4 L 4789.4,2059.8" style="fill:none;fill-rule:evenodd;stroke:#000000;stroke-width:90.0px;stroke-linecap:butt;stroke-linejoin:miter;stroke-opacity:1"/>
<path class="bond-1 atom-1 atom-2" d="M 4789.4,2059.8 L 4789.3,1286.3" style="fill: none; fill-rule: evenodd; stroke: rgb(0, 0, 0); stroke-width: 90px; stroke-linecap: butt; stroke-linejoin: miter; stroke-opacity: 1;"/>
<path class="bond-2 atom-1 atom-3" d="M 4938.0,2747.7 L 3223.2,3737.2" style="fill:none;fill-rule:evenodd;stroke:#000000;stroke-width:90.0px;stroke-linecap:butt;stroke-linejoin:miter;stroke-opacity:1"/>
<path class="bond-3 atom-3 atom-4" d="M 3074.7,3651.4 L 3074.8,4436.5" style="fill:none;fill-rule:evenodd;stroke:#000000;stroke-width:90.0px;stroke-linecap:butt;stroke-linejoin:miter;stroke-opacity:1"/>
<path class="bond-3 atom-3 atom-4" d="M 3074.8,4436.5 L 3074.9,5221.5" style="fill: none; fill-rule: evenodd; stroke: rgb(0, 0, 0); stroke-width: 90px; stroke-linecap: butt; stroke-linejoin: miter; stroke-opacity: 1;"/>
<path class="bond-3 atom-3 atom-4" d="M 3371.6,3651.5 L 3371.7,4436.5" style="fill:none;fill-rule:evenodd;stroke:#000000;stroke-width:90.0px;stroke-linecap:butt;stroke-linejoin:miter;stroke-opacity:1"/>
<path class="bond-3 atom-3 atom-4" d="M 3371.7,4436.5 L 3371.8,5221.5" style="fill: none; fill-rule: evenodd; stroke: rgb(0, 0, 0); stroke-width: 90px; stroke-linecap: butt; stroke-linejoin: miter; stroke-opacity: 1;"/>
<path class="bond-4 atom-3 atom-5" d="M 3223.2,3737.2 L 2604.4,3379.9" style="fill:none;fill-rule:evenodd;stroke:#000000;stroke-width:90.0px;stroke-linecap:butt;stroke-linejoin:miter;stroke-opacity:1"/>
<path class="bond-4 atom-3 atom-5" d="M 2604.4,3379.9 L 1985.6,3022.6" style="fill: none; fill-rule: evenodd; stroke: rgb(0, 0, 0); stroke-width: 90px; stroke-linecap: butt; stroke-linejoin: miter; stroke-opacity: 1;"/>
<path d="M 5023.7,2797.2 L 4938.0,2747.7 L 4852.3,2797.2" style="fill:none;stroke:#000000;stroke-width:90.0px;stroke-linecap:butt;stroke-linejoin:miter;stroke-opacity:1;"/>
<path d="M 3308.9,3687.7 L 3223.2,3737.2 L 3192.2,3719.3" style="fill:none;stroke:#000000;stroke-width:90.0px;stroke-linecap:butt;stroke-linejoin:miter;stroke-opacity:1;"/>
<path class="atom-2" d="M 4936.7 397.4 Q 5072.5 397.4, 5163.8 474.6 Q 5228.3 529.3, 5260.0 613.2 Q 5289.8 692.3, 5289.8 785.1 Q 5289.8 909.6, 5229.7 1006.8 Q 5175.0 1095.7, 5080.8 1134.7 Q 5015.8 1161.6, 4937.7 1161.6 Q 4802.0 1161.6, 4711.2 1084.4 Q 4647.7 1029.7, 4615.5 946.2 Q 4585.7 867.1, 4585.7 779.3 Q 4585.7 649.4, 4645.7 552.2 Q 4700.9 462.4, 4794.7 423.8 Q 4859.6 397.4, 4936.7 397.4 M 4936.7 479.5 Q 4828.8 479.5, 4758.5 551.2 Q 4720.4 590.3, 4700.4 647.4 Q 4678.4 710.4, 4678.4 779.7 Q 4678.4 878.4, 4718.5 953.1 Q 4756.1 1021.9, 4825.4 1055.1 Q 4877.2 1079.5, 4937.2 1079.5 Q 5046.6 1079.5, 5116.4 1007.8 Q 5154.5 968.7, 5174.5 911.6 Q 5196.5 849.1, 5196.5 783.6 Q 5196.5 633.7, 5116.4 551.2 Q 5047.1 479.5, 4936.7 479.5 " fill="#000"/>
<path class="atom-4" d="M 3222.5 5346.2 Q 3358.2 5346.2, 3449.5 5423.4 Q 3514.0 5478.1, 3545.7 5562.0 Q 3575.5 5641.1, 3575.5 5733.9 Q 3575.5 5858.4, 3515.4 5955.6 Q 3460.7 6044.5, 3366.5 6083.5 Q 3301.6 6110.4, 3223.4 6110.4 Q 3087.7 6110.4, 2996.9 6033.2 Q 2933.4 5978.5, 2901.2 5895.0 Q 2871.4 5815.9, 2871.4 5728.1 Q 2871.4 5598.2, 2931.5 5501.0 Q 2986.6 5411.2, 3080.4 5372.6 Q 3145.3 5346.2, 3222.5 5346.2 M 3222.5 5428.3 Q 3114.6 5428.3, 3044.2 5500.0 Q 3006.2 5539.1, 2986.1 5596.2 Q 2964.2 5659.2, 2964.2 5728.5 Q 2964.2 5827.2, 3004.2 5901.9 Q 3041.8 5970.7, 3111.1 6003.9 Q 3162.9 6028.3, 3223.0 6028.3 Q 3332.3 6028.3, 3402.2 5956.6 Q 3440.2 5917.5, 3460.3 5860.4 Q 3482.2 5797.9, 3482.2 5732.5 Q 3482.2 5582.5, 3402.2 5500.0 Q 3332.8 5428.3, 3222.5 5428.3 " fill="#000"/>
<path class="atom-5" d="M 922.6 2785.9 L 547.1 2785.9 L 547.1 3118.0 L 454.4 3118.0 L 454.4 2389.0 L 547.1 2389.0 L 547.1 2703.9 L 922.6 2703.9 L 922.6 2389.0 L 1015.4 2389.0 L 1015.4 3118.0 L 922.6 3118.0 L 922.6 2785.9 " fill="#000"/>
<path class="atom-5" d="M 1507.9 2376.8 Q 1643.6 2376.8, 1734.9 2453.9 Q 1799.4 2508.6, 1831.1 2592.6 Q 1860.9 2671.7, 1860.9 2764.5 Q 1860.9 2889.0, 1800.8 2986.1 Q 1746.1 3075.0, 1651.9 3114.1 Q 1587.0 3140.9, 1508.8 3140.9 Q 1373.1 3140.9, 1282.3 3063.8 Q 1218.8 3009.1, 1186.6 2925.6 Q 1156.8 2846.5, 1156.8 2758.6 Q 1156.8 2628.7, 1216.8 2531.5 Q 1272.0 2441.7, 1365.8 2403.1 Q 1430.7 2376.8, 1507.9 2376.8 M 1507.9 2458.8 Q 1399.9 2458.8, 1329.6 2530.6 Q 1291.5 2569.6, 1271.5 2626.8 Q 1249.6 2689.7, 1249.6 2759.1 Q 1249.6 2857.7, 1289.6 2932.4 Q 1327.2 3001.3, 1396.5 3034.5 Q 1448.3 3058.9, 1508.3 3058.9 Q 1617.7 3058.9, 1687.5 2987.1 Q 1725.6 2948.0, 1745.6 2890.9 Q 1767.6 2828.4, 1767.6 2763.0 Q 1767.6 2613.1, 1687.5 2530.6 Q 1618.2 2458.8, 1507.9 2458.8 " fill="#000"/>
</svg>