<?xml version="1.0" encoding="iso-8859-1"?><svg xmlns="http://www.w3.org/2000/svg" xmlns:rdkit="http://www.rdkit.org/xml" xmlns:xlink="http://www.w3.org/1999/xlink" version="1.1" baseProfile="full" xml:space="preserve" width="360.69px" height="257.28px" viewBox="0 0 12023 8576">
<!-- END OF HEADER -->
<rect style="opacity:1.0;fill:#00000000;stroke:none" width="12023.0" height="8576.0" x="0.0" y="0.0"> </rect>
<path class="bond-0 atom-0 atom-1" d="M 6786.2,6810.6 L 8500.6,5821.0" style="fill:none;fill-rule:evenodd;stroke:#000000;stroke-width:90.0px;stroke-linecap:butt;stroke-linejoin:miter;stroke-opacity:1"/>
<path class="bond-1 atom-1 atom-2" d="M 8500.6,5821.0 L 8500.6,3841.3" style="fill:none;fill-rule:evenodd;stroke:#000000;stroke-width:90.0px;stroke-linecap:butt;stroke-linejoin:miter;stroke-opacity:1"/>
<path class="bond-2 atom-2 atom-3" d="M 8500.6,3841.3 L 6786.2,2851.2" style="fill:none;fill-rule:evenodd;stroke:#000000;stroke-width:90.0px;stroke-linecap:butt;stroke-linejoin:miter;stroke-opacity:1"/>
<path class="bond-3 atom-3 atom-4" d="M 6786.2,2851.2 L 5071.8,3841.2" style="fill:none;fill-rule:evenodd;stroke:#000000;stroke-width:90.0px;stroke-linecap:butt;stroke-linejoin:miter;stroke-opacity:1"/>
<path class="bond-4 atom-4 atom-5" d="M 5071.8,3841.2 L 5071.7,5820.9" style="fill:none;fill-rule:evenodd;stroke:#000000;stroke-width:90.0px;stroke-linecap:butt;stroke-linejoin:miter;stroke-opacity:1"/>
<path class="bond-5 atom-5 atom-6" d="M 5071.7,5820.9 L 3122.2,5477.2" style="fill:none;fill-rule:evenodd;stroke:#000000;stroke-width:90.0px;stroke-linecap:butt;stroke-linejoin:miter;stroke-opacity:1"/>
<path class="bond-6 atom-6 atom-7" d="M 3291.1,5506.9 L 3032.3,4795.8" style="fill:none;fill-rule:evenodd;stroke:#000000;stroke-width:90.0px;stroke-linecap:butt;stroke-linejoin:miter;stroke-opacity:1"/>
<path class="bond-6 atom-6 atom-7" d="M 3032.3,4795.8 L 2773.5,4084.7" style="fill: none; fill-rule: evenodd; stroke: rgb(0, 0, 0); stroke-width: 90px; stroke-linecap: butt; stroke-linejoin: miter; stroke-opacity: 1;"/>
<path class="bond-6 atom-6 atom-7" d="M 3012.0,5608.5 L 2753.2,4897.4" style="fill:none;fill-rule:evenodd;stroke:#000000;stroke-width:90.0px;stroke-linecap:butt;stroke-linejoin:miter;stroke-opacity:1"/>
<path class="bond-6 atom-6 atom-7" d="M 2753.2,4897.4 L 2494.4,4186.2" style="fill: none; fill-rule: evenodd; stroke: rgb(0, 0, 0); stroke-width: 90px; stroke-linecap: butt; stroke-linejoin: miter; stroke-opacity: 1;"/>
<path class="bond-7 atom-6 atom-8" d="M 3122.2,5477.2 L 2693.8,5987.7" style="fill:none;fill-rule:evenodd;stroke:#000000;stroke-width:90.0px;stroke-linecap:butt;stroke-linejoin:miter;stroke-opacity:1"/>
<path class="bond-7 atom-6 atom-8" d="M 2693.8,5987.7 L 2265.4,6498.1" style="fill: none; fill-rule: evenodd; stroke: rgb(0, 0, 0); stroke-width: 90px; stroke-linecap: butt; stroke-linejoin: miter; stroke-opacity: 1;"/>
<path class="bond-8 atom-5 atom-9" d="M 5071.7,5820.9 L 4823.5,6503.4" style="fill:none;fill-rule:evenodd;stroke:#000000;stroke-width:90.0px;stroke-linecap:butt;stroke-linejoin:miter;stroke-opacity:1"/>
<path class="bond-8 atom-5 atom-9" d="M 4823.5,6503.4 L 4575.2,7185.9" style="fill: none; fill-rule: evenodd; stroke: rgb(0, 0, 0); stroke-width: 90px; stroke-linecap: butt; stroke-linejoin: miter; stroke-opacity: 1;"/>
<path class="bond-9 atom-3 atom-10" d="M 6786.2,2851.2 L 6712.0,2153.1 L 6860.5,2153.1 Z" style="fill: rgb(0, 0, 0); fill-rule: evenodd; fill-opacity: 1; stroke: rgb(0, 0, 0); stroke-width: 45px; stroke-linecap: butt; stroke-linejoin: miter; stroke-opacity: 1;"/>
<path class="bond-9 atom-3 atom-10" d="M 6712.0,2153.1 L 6934.7,1455.1 L 6637.8,1455.1 Z" style="fill: rgb(0, 0, 0); fill-rule: evenodd; fill-opacity: 1; stroke: rgb(0, 0, 0); stroke-width: 45px; stroke-linecap: butt; stroke-linejoin: miter; stroke-opacity: 1;"/>
<path class="bond-9 atom-3 atom-10" d="M 6712.0,2153.1 L 6860.5,2153.1 L 6934.7,1455.1 Z" style="fill: rgb(0, 0, 0); fill-rule: evenodd; fill-opacity: 1; stroke: rgb(0, 0, 0); stroke-width: 45px; stroke-linecap: butt; stroke-linejoin: miter; stroke-opacity: 1;"/>
<path class="bond-10 atom-2 atom-11" d="M 8500.6,3841.3 L 9119.5,3483.9" style="fill:none;fill-rule:evenodd;stroke:#000000;stroke-width:90.0px;stroke-linecap:butt;stroke-linejoin:miter;stroke-opacity:1"/>
<path class="bond-10 atom-2 atom-11" d="M 9119.5,3483.9 L 9738.3,3126.6" style="fill: none; fill-rule: evenodd; stroke: rgb(0, 0, 0); stroke-width: 90px; stroke-linecap: butt; stroke-linejoin: miter; stroke-opacity: 1;"/>




























<path class="bond-12 atom-5 atom-0" d="M 5071.7,5820.9 L 6786.2,6810.6" style="fill:none;fill-rule:evenodd;stroke:#000000;stroke-width:90.0px;stroke-linecap:butt;stroke-linejoin:miter;stroke-opacity:1"/>
<path d="M 6871.9,6761.1 L 6786.2,6810.6 L 6700.4,6761.1" style="fill:none;stroke:#000000;stroke-width:90.0px;stroke-linecap:butt;stroke-linejoin:miter;stroke-opacity:1;"/>
<path d="M 8414.9,5870.5 L 8500.6,5821.0 L 8500.6,5722.0" style="fill:none;stroke:#000000;stroke-width:90.0px;stroke-linecap:butt;stroke-linejoin:miter;stroke-opacity:1;"/>
<path d="M 6871.9,2900.7 L 6786.2,2851.2 L 6700.5,2900.7" style="fill:none;stroke:#000000;stroke-width:90.0px;stroke-linecap:butt;stroke-linejoin:miter;stroke-opacity:1;"/>
<path d="M 5157.5,3791.7 L 5071.8,3841.2 L 5071.8,3940.2" style="fill:none;stroke:#000000;stroke-width:90.0px;stroke-linecap:butt;stroke-linejoin:miter;stroke-opacity:1;"/>
<path d="M 3219.7,5494.4 L 3122.2,5477.2 L 3100.8,5502.7" style="fill:none;stroke:#000000;stroke-width:90.0px;stroke-linecap:butt;stroke-linejoin:miter;stroke-opacity:1;"/>
<path class="atom-7" d="M 2444.3 3246.6 Q 2580.1 3246.6, 2671.4 3323.7 Q 2735.8 3378.4, 2767.6 3462.4 Q 2797.4 3541.5, 2797.4 3634.3 Q 2797.4 3758.8, 2737.3 3855.9 Q 2682.6 3944.8, 2588.4 3983.9 Q 2523.4 4010.7, 2445.3 4010.7 Q 2309.6 4010.7, 2218.7 3933.6 Q 2155.3 3878.9, 2123.0 3795.4 Q 2093.3 3716.3, 2093.3 3628.4 Q 2093.3 3498.5, 2153.3 3401.4 Q 2208.5 3311.5, 2302.2 3272.9 Q 2367.2 3246.6, 2444.3 3246.6 M 2444.3 3328.6 Q 2336.4 3328.6, 2266.1 3400.4 Q 2228.0 3439.4, 2208.0 3496.6 Q 2186.0 3559.6, 2186.0 3628.9 Q 2186.0 3727.5, 2226.1 3802.2 Q 2263.7 3871.1, 2333.0 3904.3 Q 2384.8 3928.7, 2444.8 3928.7 Q 2554.2 3928.7, 2624.0 3856.9 Q 2662.1 3817.9, 2682.1 3760.7 Q 2704.1 3698.2, 2704.1 3632.8 Q 2704.1 3482.9, 2624.0 3400.4 Q 2554.7 3328.6, 2444.3 3328.6 " fill="#000"/>
<path class="atom-8" d="M 1263.5 7032.0 L 888.0 7032.0 L 888.0 7364.1 L 795.2 7364.1 L 795.2 6635.1 L 888.0 6635.1 L 888.0 6950.0 L 1263.5 6950.0 L 1263.5 6635.1 L 1356.3 6635.1 L 1356.3 7364.1 L 1263.5 7364.1 L 1263.5 7032.0 " fill="#000"/>
<path class="atom-8" d="M 1848.7 6622.8 Q 1984.5 6622.8, 2075.8 6700.0 Q 2140.2 6754.7, 2172.0 6838.7 Q 2201.7 6917.8, 2201.7 7010.5 Q 2201.7 7135.1, 2141.7 7232.2 Q 2087.0 7321.1, 1992.8 7360.2 Q 1927.8 7387.0, 1849.7 7387.0 Q 1713.9 7387.0, 1623.1 7309.9 Q 1559.6 7255.2, 1527.4 7171.7 Q 1497.6 7092.6, 1497.6 7004.7 Q 1497.6 6874.8, 1557.7 6777.6 Q 1612.9 6687.8, 1706.6 6649.2 Q 1771.6 6622.8, 1848.7 6622.8 M 1848.7 6704.9 Q 1740.8 6704.9, 1670.5 6776.7 Q 1632.4 6815.7, 1612.4 6872.8 Q 1590.4 6935.8, 1590.4 7005.2 Q 1590.4 7103.8, 1630.4 7178.5 Q 1668.0 7247.4, 1737.4 7280.6 Q 1789.1 7305.0, 1849.2 7305.0 Q 1958.6 7305.0, 2028.4 7233.2 Q 2066.5 7194.1, 2086.5 7137.0 Q 2108.5 7074.5, 2108.5 7009.1 Q 2108.5 6859.2, 2028.4 6776.7 Q 1959.1 6704.9, 1848.7 6704.9 " fill="#000"/>
<path class="atom-9" d="M 4394.0 7310.6 Q 4529.7 7310.6, 4621.0 7387.7 Q 4685.5 7442.4, 4717.2 7526.4 Q 4747.0 7605.5, 4747.0 7698.3 Q 4747.0 7822.8, 4686.9 7920.0 Q 4632.3 8008.8, 4538.0 8047.9 Q 4473.1 8074.7, 4395.0 8074.7 Q 4259.2 8074.7, 4168.4 7997.6 Q 4104.9 7942.9, 4072.7 7859.4 Q 4042.9 7780.3, 4042.9 7692.4 Q 4042.9 7562.5, 4103.0 7465.4 Q 4158.1 7375.5, 4251.9 7336.9 Q 4316.8 7310.6, 4394.0 7310.6 M 4394.0 7392.6 Q 4286.1 7392.6, 4215.8 7464.4 Q 4177.7 7503.5, 4157.7 7560.6 Q 4135.7 7623.6, 4135.7 7692.9 Q 4135.7 7791.5, 4175.7 7866.2 Q 4213.3 7935.1, 4282.7 7968.3 Q 4334.4 7992.7, 4394.5 7992.7 Q 4503.8 7992.7, 4573.7 7920.9 Q 4611.8 7881.9, 4631.8 7824.7 Q 4653.7 7762.2, 4653.7 7696.8 Q 4653.7 7546.9, 4573.7 7464.4 Q 4504.3 7392.6, 4394.0 7392.6 " fill="#000"/>
<path class="atom-9" d="M 5314.2 7719.8 L 4938.7 7719.8 L 4938.7 8051.8 L 4845.9 8051.8 L 4845.9 7322.8 L 4938.7 7322.8 L 4938.7 7637.7 L 5314.2 7637.7 L 5314.2 7322.8 L 5406.9 7322.8 L 5406.9 8051.8 L 5314.2 8051.8 L 5314.2 7719.8 " fill="#000"/>
<path class="atom-10" d="M 6785.3 500.9 Q 6921.0 500.9, 7012.3 578.0 Q 7076.8 632.7, 7108.5 716.7 Q 7138.3 795.8, 7138.3 888.6 Q 7138.3 1013.1, 7078.2 1110.2 Q 7023.6 1199.1, 6929.3 1238.2 Q 6864.4 1265.0, 6786.3 1265.0 Q 6650.5 1265.0, 6559.7 1187.9 Q 6496.2 1133.2, 6464.0 1049.7 Q 6434.2 970.6, 6434.2 882.7 Q 6434.2 752.8, 6494.3 655.6 Q 6549.4 565.8, 6643.2 527.2 Q 6708.1 500.9, 6785.3 500.9 M 6785.3 582.9 Q 6677.4 582.9, 6607.1 654.7 Q 6569.0 693.7, 6548.9 750.9 Q 6527.0 813.8, 6527.0 883.2 Q 6527.0 981.8, 6567.0 1056.5 Q 6604.6 1125.4, 6673.9 1158.6 Q 6725.7 1183.0, 6785.8 1183.0 Q 6895.1 1183.0, 6965.0 1111.2 Q 7003.1 1072.1, 7023.1 1015.0 Q 7045.0 952.5, 7045.0 887.1 Q 7045.0 737.2, 6965.0 654.7 Q 6895.6 582.9, 6785.3 582.9 " fill="#000"/>
<path class="atom-10" d="M 7705.5 910.0 L 7330.0 910.0 L 7330.0 1242.1 L 7237.2 1242.1 L 7237.2 513.1 L 7330.0 513.1 L 7330.0 828.0 L 7705.5 828.0 L 7705.5 513.1 L 7798.2 513.1 L 7798.2 1242.1 L 7705.5 1242.1 L 7705.5 910.0 " fill="#000"/>
<path class="atom-11" d="M 10214.1 2480.7 Q 10349.9 2480.7, 10441.2 2557.8 Q 10505.6 2612.5, 10537.4 2696.5 Q 10567.1 2775.6, 10567.1 2868.3 Q 10567.1 2992.9, 10507.1 3090.0 Q 10452.4 3178.9, 10358.2 3218.0 Q 10293.2 3244.8, 10215.1 3244.8 Q 10079.4 3244.8, 9988.5 3167.7 Q 9925.1 3113.0, 9892.8 3029.5 Q 9863.0 2950.4, 9863.0 2862.5 Q 9863.0 2732.6, 9923.1 2635.4 Q 9978.3 2545.6, 10072.0 2507.0 Q 10137.0 2480.7, 10214.1 2480.7 M 10214.1 2562.7 Q 10106.2 2562.7, 10035.9 2634.5 Q 9997.8 2673.5, 9977.8 2730.7 Q 9955.8 2793.6, 9955.8 2863.0 Q 9955.8 2961.6, 9995.9 3036.3 Q 10033.5 3105.2, 10102.8 3138.4 Q 10154.5 3162.8, 10214.6 3162.8 Q 10324.0 3162.8, 10393.8 3091.0 Q 10431.9 3051.9, 10451.9 2994.8 Q 10473.9 2932.3, 10473.9 2866.9 Q 10473.9 2717.0, 10393.8 2634.5 Q 10324.5 2562.7, 10214.1 2562.7 " fill="#000"/>
<path class="atom-11" d="M 11134.3 2889.8 L 10758.8 2889.8 L 10758.8 3221.9 L 10666.0 3221.9 L 10666.0 2492.9 L 10758.8 2492.9 L 10758.8 2807.8 L 11134.3 2807.8 L 11134.3 2492.9 L 11227.1 2492.9 L 11227.1 3221.9 L 11134.3 3221.9 L 11134.3 2889.8 " fill="#000"/>
<path class="atom-12" d="M 10214.1 6440.1 Q 10349.8 6440.1, 10441.1 6517.2 Q 10505.6 6571.9, 10537.3 6655.9 Q 10567.1 6735.0, 10567.1 6827.8 Q 10567.1 6952.3, 10507.0 7049.5 Q 10452.3 7138.3, 10358.1 7177.4 Q 10293.2 7204.2, 10215.0 7204.2 Q 10079.3 7204.2, 9988.5 7127.1 Q 9925.0 7072.4, 9892.8 6988.9 Q 9863.0 6909.8, 9863.0 6821.9 Q 9863.0 6692.0, 9923.0 6594.9 Q 9978.2 6505.0, 10072.0 6466.5 Q 10136.9 6440.1, 10214.1 6440.1 M 10214.1 6522.1 Q 10106.1 6522.1, 10035.8 6593.9 Q 9997.7 6633.0, 9977.7 6690.1 Q 9955.8 6753.1, 9955.8 6822.4 Q 9955.8 6921.0, 9995.8 6995.8 Q 10033.4 7064.6, 10102.7 7097.8 Q 10154.5 7122.2, 10214.5 7122.2 Q 10323.9 7122.2, 10393.7 7050.4 Q 10431.8 7011.4, 10451.8 6954.2 Q 10473.8 6891.7, 10473.8 6826.3 Q 10473.8 6676.4, 10393.7 6593.9 Q 10324.4 6522.1, 10214.1 6522.1 " fill="#000"/>
<path class="atom-12" d="M 11134.2 6849.3 L 10758.8 6849.3 L 10758.8 7181.3 L 10666.0 7181.3 L 10666.0 6452.3 L 10758.8 6452.3 L 10758.8 6767.2 L 11134.2 6767.2 L 11134.2 6452.3 L 11227.0 6452.3 L 11227.0 7181.3 L 11134.2 7181.3 L 11134.2 6849.3 " fill="#000"/>
<path d="M 8512.454980974451 5897.16439967571 L 8572.44501902555 5793.235600324291" style="stroke: rgb(0, 0, 0); stroke-width: 90px; stroke-linecap: butt; stroke-linejoin: miter;"/><path d="M 8723.557471461676 6053.656599513565 L 8813.542528538326 5897.763400486437" style="stroke: rgb(0, 0, 0); stroke-width: 90px; stroke-linecap: butt; stroke-linejoin: miter;"/><path d="M 8934.6599619489 6210.148799351419 L 9054.640038051102 6002.291200648581" style="stroke: rgb(0, 0, 0); stroke-width: 90px; stroke-linecap: butt; stroke-linejoin: miter;"/><path d="M 9145.762452436125 6366.640999189274 L 9295.737547563875 6106.819000810727" style="stroke: rgb(0, 0, 0); stroke-width: 90px; stroke-linecap: butt; stroke-linejoin: miter;"/><path d="M 9356.86494292335 6523.133199027128 L 9536.83505707665 6211.346800972871" style="stroke: rgb(0, 0, 0); stroke-width: 90px; stroke-linecap: butt; stroke-linejoin: miter;"/><path d="M 9567.967433410575 6679.625398864984 L 9777.932566589427 6315.874601135016" style="stroke: rgb(0, 0, 0); stroke-width: 90px; stroke-linecap: butt; stroke-linejoin: miter;"/></svg>