<?xml version="1.0" encoding="iso-8859-1"?><svg xmlns="http://www.w3.org/2000/svg" xmlns:rdkit="http://www.rdkit.org/xml" xmlns:xlink="http://www.w3.org/1999/xlink" version="1.1" baseProfile="full" xml:space="preserve" width="242.54999999999998px" height="228.23999999999998px" viewBox="0 0 8085 7608">
<!-- END OF HEADER -->
<rect style="opacity:1.0;fill:#00000000;stroke:none" width="8085.0" height="7608.0" x="0.0" y="0.0"> </rect>
<path class="bond-0 atom-0 atom-1" d="M 7647.2,3792.6 L 7647.2,1812.9" style="fill:none;fill-rule:evenodd;stroke:#000000;stroke-width:90.0px;stroke-linecap:butt;stroke-linejoin:miter;stroke-opacity:1"/>
<path class="bond-0 atom-0 atom-1" d="M 7350.2,3621.1 L 7350.2,1984.3" style="fill:none;fill-rule:evenodd;stroke:#000000;stroke-width:90.0px;stroke-linecap:butt;stroke-linejoin:miter;stroke-opacity:1"/>
<path class="bond-1 atom-1 atom-2" d="M 7647.2,1812.9 L 5932.7,822.8" style="fill:none;fill-rule:evenodd;stroke:#000000;stroke-width:90.0px;stroke-linecap:butt;stroke-linejoin:miter;stroke-opacity:1"/>
<path class="bond-2 atom-2 atom-3" d="M 5932.7,822.8 L 4218.2,1812.9" style="fill:none;fill-rule:evenodd;stroke:#000000;stroke-width:90.0px;stroke-linecap:butt;stroke-linejoin:miter;stroke-opacity:1"/>
<path class="bond-2 atom-2 atom-3" d="M 5932.7,1165.7 L 4515.2,1984.3" style="fill:none;fill-rule:evenodd;stroke:#000000;stroke-width:90.0px;stroke-linecap:butt;stroke-linejoin:miter;stroke-opacity:1"/>
<path class="bond-3 atom-3 atom-4" d="M 4218.2,1812.9 L 4218.3,3792.6" style="fill:none;fill-rule:evenodd;stroke:#000000;stroke-width:90.0px;stroke-linecap:butt;stroke-linejoin:miter;stroke-opacity:1"/>
<path class="bond-4 atom-4 atom-5" d="M 4218.3,3792.6 L 5932.7,4782.3" style="fill:none;fill-rule:evenodd;stroke:#000000;stroke-width:90.0px;stroke-linecap:butt;stroke-linejoin:miter;stroke-opacity:1"/>
<path class="bond-4 atom-4 atom-5" d="M 4515.2,3621.1 L 5932.7,4439.4" style="fill:none;fill-rule:evenodd;stroke:#000000;stroke-width:90.0px;stroke-linecap:butt;stroke-linejoin:miter;stroke-opacity:1"/>
<path class="bond-5 atom-4 atom-6" d="M 4218.3,3792.6 L 2503.8,4782.3" style="fill:none;fill-rule:evenodd;stroke:#000000;stroke-width:90.0px;stroke-linecap:butt;stroke-linejoin:miter;stroke-opacity:1"/>
<path class="bond-6 atom-6 atom-7" d="M 2652.3,4696.6 L 1996.3,4317.9" style="fill:none;fill-rule:evenodd;stroke:#000000;stroke-width:90.0px;stroke-linecap:butt;stroke-linejoin:miter;stroke-opacity:1"/>
<path class="bond-6 atom-6 atom-7" d="M 1996.3,4317.9 L 1340.4,3939.3" style="fill: none; fill-rule: evenodd; stroke: rgb(0, 0, 0); stroke-width: 90px; stroke-linecap: butt; stroke-linejoin: miter; stroke-opacity: 1;"/>
<path class="bond-6 atom-6 atom-7" d="M 2503.8,4953.7 L 1847.9,4575.1" style="fill:none;fill-rule:evenodd;stroke:#000000;stroke-width:90.0px;stroke-linecap:butt;stroke-linejoin:miter;stroke-opacity:1"/>
<path class="bond-6 atom-6 atom-7" d="M 1847.9,4575.1 L 1191.9,4196.4" style="fill: none; fill-rule: evenodd; stroke: rgb(0, 0, 0); stroke-width: 90px; stroke-linecap: butt; stroke-linejoin: miter; stroke-opacity: 1;"/>
<path class="bond-7 atom-6 atom-8" d="M 2503.8,4782.3 L 2503.8,5524.5" style="fill:none;fill-rule:evenodd;stroke:#000000;stroke-width:90.0px;stroke-linecap:butt;stroke-linejoin:miter;stroke-opacity:1"/>
<path class="bond-7 atom-6 atom-8" d="M 2503.8,5524.5 L 2503.9,6266.7" style="fill: none; fill-rule: evenodd; stroke: rgb(0, 0, 0); stroke-width: 90px; stroke-linecap: butt; stroke-linejoin: miter; stroke-opacity: 1;"/>
<path class="bond-8 atom-3 atom-9" d="M 4218.2,1812.9 L 3599.4,1455.5" style="fill:none;fill-rule:evenodd;stroke:#000000;stroke-width:90.0px;stroke-linecap:butt;stroke-linejoin:miter;stroke-opacity:1"/>
<path class="bond-8 atom-3 atom-9" d="M 3599.4,1455.5 L 2980.6,1098.1" style="fill: none; fill-rule: evenodd; stroke: rgb(0, 0, 0); stroke-width: 90px; stroke-linecap: butt; stroke-linejoin: miter; stroke-opacity: 1;"/>
<path class="bond-9 atom-5 atom-0" d="M 5932.7,4782.3 L 7647.2,3792.6" style="fill:none;fill-rule:evenodd;stroke:#000000;stroke-width:90.0px;stroke-linecap:butt;stroke-linejoin:miter;stroke-opacity:1"/>
<path d="M 7647.2,3693.6 L 7647.2,3792.6 L 7561.5,3842.1" style="fill:none;stroke:#000000;stroke-width:90.0px;stroke-linecap:butt;stroke-linejoin:miter;stroke-opacity:1;"/>
<path d="M 7647.2,1911.8 L 7647.2,1812.9 L 7561.4,1763.3" style="fill:none;stroke:#000000;stroke-width:90.0px;stroke-linecap:butt;stroke-linejoin:miter;stroke-opacity:1;"/>
<path d="M 6018.4,872.3 L 5932.7,822.8 L 5847.0,872.3" style="fill:none;stroke:#000000;stroke-width:90.0px;stroke-linecap:butt;stroke-linejoin:miter;stroke-opacity:1;"/>
<path d="M 5847.0,4732.8 L 5932.7,4782.3 L 6018.5,4732.8" style="fill:none;stroke:#000000;stroke-width:90.0px;stroke-linecap:butt;stroke-linejoin:miter;stroke-opacity:1;"/>
<path d="M 2589.6,4732.8 L 2503.8,4782.3 L 2503.8,4819.4" style="fill:none;stroke:#000000;stroke-width:90.0px;stroke-linecap:butt;stroke-linejoin:miter;stroke-opacity:1;"/>
<path class="atom-7" d="M 788.4 3422.0 Q 924.1 3422.0, 1015.4 3499.2 Q 1079.9 3553.9, 1111.6 3637.8 Q 1141.4 3716.9, 1141.4 3809.7 Q 1141.4 3934.2, 1081.4 4031.4 Q 1026.7 4120.3, 932.4 4159.3 Q 867.5 4186.2, 789.4 4186.2 Q 653.6 4186.2, 562.8 4109.0 Q 499.3 4054.4, 467.1 3970.9 Q 437.3 3891.8, 437.3 3803.9 Q 437.3 3674.0, 497.4 3576.8 Q 552.5 3487.0, 646.3 3448.4 Q 711.2 3422.0, 788.4 3422.0 M 788.4 3504.1 Q 680.5 3504.1, 610.2 3575.8 Q 572.1 3614.9, 552.1 3672.0 Q 530.1 3735.0, 530.1 3804.4 Q 530.1 3903.0, 570.1 3977.7 Q 607.7 4046.5, 677.1 4079.7 Q 728.8 4104.2, 788.9 4104.2 Q 898.3 4104.2, 968.1 4032.4 Q 1006.2 3993.3, 1026.2 3936.2 Q 1048.2 3873.7, 1048.2 3808.3 Q 1048.2 3658.4, 968.1 3575.8 Q 898.7 3504.1, 788.4 3504.1 " fill="#000"/>
<path class="atom-8" d="M 2502.9 6391.4 Q 2638.6 6391.4, 2729.9 6468.6 Q 2794.4 6523.3, 2826.1 6607.2 Q 2855.9 6686.4, 2855.9 6779.1 Q 2855.9 6903.6, 2795.9 7000.8 Q 2741.2 7089.7, 2646.9 7128.7 Q 2582.0 7155.6, 2503.9 7155.6 Q 2368.1 7155.6, 2277.3 7078.4 Q 2213.8 7023.8, 2181.6 6940.3 Q 2151.8 6861.2, 2151.8 6773.3 Q 2151.8 6643.4, 2211.9 6546.2 Q 2267.0 6456.4, 2360.8 6417.8 Q 2425.7 6391.4, 2502.9 6391.4 M 2502.9 6473.5 Q 2395.0 6473.5, 2324.7 6545.2 Q 2286.6 6584.3, 2266.6 6641.4 Q 2244.6 6704.4, 2244.6 6773.8 Q 2244.6 6872.4, 2284.6 6947.1 Q 2322.2 7015.9, 2391.6 7049.1 Q 2443.3 7073.6, 2503.4 7073.6 Q 2612.7 7073.6, 2682.6 7001.8 Q 2720.7 6962.7, 2740.7 6905.6 Q 2762.7 6843.1, 2762.7 6777.7 Q 2762.7 6627.8, 2682.6 6545.2 Q 2613.2 6473.5, 2502.9 6473.5 " fill="#000"/>
<path class="atom-8" d="M 3423.1 6800.6 L 3047.6 6800.6 L 3047.6 7132.6 L 2954.8 7132.6 L 2954.8 6403.6 L 3047.6 6403.6 L 3047.6 6718.6 L 3423.1 6718.6 L 3423.1 6403.6 L 3515.9 6403.6 L 3515.9 7132.6 L 3423.1 7132.6 L 3423.1 6800.6 " fill="#000"/>
<path class="atom-9" d="M 1917.6 861.4 L 1542.1 861.4 L 1542.1 1193.4 L 1449.3 1193.4 L 1449.3 464.4 L 1542.1 464.4 L 1542.1 779.4 L 1917.6 779.4 L 1917.6 464.4 L 2010.3 464.4 L 2010.3 1193.4 L 1917.6 1193.4 L 1917.6 861.4 " fill="#000"/>
<path class="atom-9" d="M 2502.8 452.2 Q 2638.5 452.2, 2729.9 529.4 Q 2794.3 584.0, 2826.0 668.0 Q 2855.8 747.1, 2855.8 839.9 Q 2855.8 964.4, 2795.8 1061.6 Q 2741.1 1150.5, 2646.8 1189.5 Q 2581.9 1216.4, 2503.8 1216.4 Q 2368.0 1216.4, 2277.2 1139.2 Q 2213.7 1084.5, 2181.5 1001.0 Q 2151.7 921.9, 2151.7 834.0 Q 2151.7 704.2, 2211.8 607.0 Q 2267.0 517.2, 2360.7 478.6 Q 2425.7 452.2, 2502.8 452.2 M 2502.8 534.2 Q 2394.9 534.2, 2324.6 606.0 Q 2286.5 645.1, 2266.5 702.2 Q 2244.5 765.2, 2244.5 834.5 Q 2244.5 933.2, 2284.5 1007.9 Q 2322.1 1076.7, 2391.5 1109.9 Q 2443.2 1134.3, 2503.3 1134.3 Q 2612.7 1134.3, 2682.5 1062.6 Q 2720.6 1023.5, 2740.6 966.4 Q 2762.6 903.9, 2762.6 838.4 Q 2762.6 688.5, 2682.5 606.0 Q 2613.2 534.2, 2502.8 534.2 " fill="#000"/>
</svg>