<?xml version="1.0" encoding="iso-8859-1"?><svg xmlns="http://www.w3.org/2000/svg" xmlns:rdkit="http://www.rdkit.org/xml" xmlns:xlink="http://www.w3.org/1999/xlink" version="1.1" baseProfile="full" xml:space="preserve" width="239.88px" height="228.23999999999998px" viewBox="0 0 7996 7608">
<!-- END OF HEADER -->
<rect style="opacity:1.0;fill:#00000000;stroke:none" width="7996.0" height="7608.0" x="0.0" y="0.0"> </rect>
<path class="bond-0 atom-0 atom-1" d="M 3652.5,1812.5 L 3652.4,3792.2" style="fill:none;fill-rule:evenodd;stroke:#000000;stroke-width:90.0px;stroke-linecap:butt;stroke-linejoin:miter;stroke-opacity:1"/>
<path class="bond-1 atom-1 atom-2" d="M 3652.4,3792.2 L 5366.9,4782.3" style="fill:none;fill-rule:evenodd;stroke:#000000;stroke-width:90.0px;stroke-linecap:butt;stroke-linejoin:miter;stroke-opacity:1"/>
<path class="bond-2 atom-2 atom-3" d="M 5366.9,4953.8 L 6022.8,4575.0" style="fill:none;fill-rule:evenodd;stroke:#000000;stroke-width:90.0px;stroke-linecap:butt;stroke-linejoin:miter;stroke-opacity:1"/>
<path class="bond-2 atom-2 atom-3" d="M 6022.8,4575.0 L 6678.8,4196.2" style="fill: none; fill-rule: evenodd; stroke: rgb(0, 0, 0); stroke-width: 90px; stroke-linecap: butt; stroke-linejoin: miter; stroke-opacity: 1;"/>
<path class="bond-2 atom-2 atom-3" d="M 5218.4,4696.6 L 5874.4,4317.8" style="fill:none;fill-rule:evenodd;stroke:#000000;stroke-width:90.0px;stroke-linecap:butt;stroke-linejoin:miter;stroke-opacity:1"/>
<path class="bond-2 atom-2 atom-3" d="M 5874.4,4317.8 L 6530.3,3939.0" style="fill: none; fill-rule: evenodd; stroke: rgb(0, 0, 0); stroke-width: 90px; stroke-linecap: butt; stroke-linejoin: miter; stroke-opacity: 1;"/>
<path class="bond-3 atom-2 atom-4" d="M 5366.9,4782.3 L 5366.8,5524.5" style="fill:none;fill-rule:evenodd;stroke:#000000;stroke-width:90.0px;stroke-linecap:butt;stroke-linejoin:miter;stroke-opacity:1"/>
<path class="bond-3 atom-2 atom-4" d="M 5366.8,5524.5 L 5366.8,6266.7" style="fill: none; fill-rule: evenodd; stroke: rgb(0, 0, 0); stroke-width: 90px; stroke-linecap: butt; stroke-linejoin: miter; stroke-opacity: 1;"/>
<path class="bond-4 atom-1 atom-5" d="M 3652.4,3792.2 L 3069.8,4214.4 L 2995.6,4085.8 Z" style="fill: rgb(0, 0, 0); fill-rule: evenodd; fill-opacity: 1; stroke: rgb(0, 0, 0); stroke-width: 45px; stroke-linecap: butt; stroke-linejoin: miter; stroke-opacity: 1;"/>
<path class="bond-4 atom-1 atom-5" d="M 3069.8,4214.4 L 2338.7,4379.4 L 2487.2,4636.6 Z" style="fill: rgb(0, 0, 0); fill-rule: evenodd; fill-opacity: 1; stroke: rgb(0, 0, 0); stroke-width: 45px; stroke-linecap: butt; stroke-linejoin: miter; stroke-opacity: 1;"/>
<path class="bond-4 atom-1 atom-5" d="M 3069.8,4214.4 L 2995.6,4085.8 L 2338.7,4379.4 Z" style="fill: rgb(0, 0, 0); fill-rule: evenodd; fill-opacity: 1; stroke: rgb(0, 0, 0); stroke-width: 45px; stroke-linecap: butt; stroke-linejoin: miter; stroke-opacity: 1;"/>
<path class="bond-5 atom-0 atom-6" d="M 3652.5,1812.5 L 3033.7,1455.3" style="fill:none;fill-rule:evenodd;stroke:#000000;stroke-width:90.0px;stroke-linecap:butt;stroke-linejoin:miter;stroke-opacity:1"/>
<path class="bond-5 atom-0 atom-6" d="M 3033.7,1455.3 L 2414.9,1098.0" style="fill: none; fill-rule: evenodd; stroke: rgb(0, 0, 0); stroke-width: 90px; stroke-linecap: butt; stroke-linejoin: miter; stroke-opacity: 1;"/>
<path d="M 3652.5,1911.5 L 3652.5,1812.5 L 3621.6,1794.6" style="fill:none;stroke:#000000;stroke-width:90.0px;stroke-linecap:butt;stroke-linejoin:miter;stroke-opacity:1;"/>
<path d="M 3652.5,3693.2 L 3652.4,3792.2 L 3738.2,3841.7" style="fill:none;stroke:#000000;stroke-width:90.0px;stroke-linecap:butt;stroke-linejoin:miter;stroke-opacity:1;"/>
<path d="M 5281.1,4732.8 L 5366.9,4782.3 L 5366.9,4819.4" style="fill:none;stroke:#000000;stroke-width:90.0px;stroke-linecap:butt;stroke-linejoin:miter;stroke-opacity:1;"/>
<path class="atom-3" d="M 7080.4 3421.7 Q 7216.1 3421.7, 7307.4 3498.9 Q 7371.9 3553.5, 7403.6 3637.5 Q 7433.4 3716.6, 7433.4 3809.4 Q 7433.4 3933.9, 7373.3 4031.1 Q 7318.7 4119.9, 7224.4 4159.0 Q 7159.5 4185.9, 7081.4 4185.9 Q 6945.6 4185.9, 6854.8 4108.7 Q 6791.3 4054.0, 6759.1 3970.5 Q 6729.3 3891.4, 6729.3 3803.5 Q 6729.3 3673.7, 6789.4 3576.5 Q 6844.5 3486.6, 6938.3 3448.1 Q 7003.2 3421.7, 7080.4 3421.7 M 7080.4 3503.7 Q 6972.5 3503.7, 6902.2 3575.5 Q 6864.1 3614.6, 6844.1 3671.7 Q 6822.1 3734.7, 6822.1 3804.0 Q 6822.1 3902.7, 6862.1 3977.4 Q 6899.7 4046.2, 6969.1 4079.4 Q 7020.8 4103.8, 7080.9 4103.8 Q 7190.2 4103.8, 7260.1 4032.1 Q 7298.2 3993.0, 7318.2 3935.9 Q 7340.1 3873.4, 7340.1 3807.9 Q 7340.1 3658.0, 7260.1 3575.5 Q 7190.7 3503.7, 7080.4 3503.7 " fill="#000"/>
<path class="atom-4" d="M 5365.8 6391.5 Q 5501.6 6391.5, 5592.9 6468.6 Q 5657.3 6523.3, 5689.1 6607.3 Q 5718.9 6686.4, 5718.9 6779.2 Q 5718.9 6903.7, 5658.8 7000.8 Q 5604.1 7089.7, 5509.9 7128.8 Q 5444.9 7155.6, 5366.8 7155.6 Q 5231.1 7155.6, 5140.2 7078.5 Q 5076.8 7023.8, 5044.5 6940.3 Q 5014.8 6861.2, 5014.8 6773.3 Q 5014.8 6643.4, 5074.8 6546.3 Q 5130.0 6456.4, 5223.7 6417.8 Q 5288.7 6391.5, 5365.8 6391.5 M 5365.8 6473.5 Q 5257.9 6473.5, 5187.6 6545.3 Q 5149.5 6584.3, 5129.5 6641.5 Q 5107.5 6704.5, 5107.5 6773.8 Q 5107.5 6872.4, 5147.6 6947.1 Q 5185.2 7016.0, 5254.5 7049.2 Q 5306.3 7073.6, 5366.3 7073.6 Q 5475.7 7073.6, 5545.5 7001.8 Q 5583.6 6962.8, 5603.6 6905.6 Q 5625.6 6843.1, 5625.6 6777.7 Q 5625.6 6627.8, 5545.5 6545.3 Q 5476.2 6473.5, 5365.8 6473.5 " fill="#000"/>
<path class="atom-4" d="M 6286.0 6800.6 L 5910.5 6800.6 L 5910.5 7132.7 L 5817.8 7132.7 L 5817.8 6403.7 L 5910.5 6403.7 L 5910.5 6718.6 L 6286.0 6718.6 L 6286.0 6403.7 L 6378.8 6403.7 L 6378.8 7132.7 L 6286.0 7132.7 L 6286.0 6800.6 " fill="#000"/>
<path class="atom-5" d="M 1030.5 4814.7 L 655.0 4814.7 L 655.0 5146.8 L 562.2 5146.8 L 562.2 4417.7 L 655.0 4417.7 L 655.0 4732.7 L 1030.5 4732.7 L 1030.5 4417.7 L 1123.2 4417.7 L 1123.2 5146.8 L 1030.5 5146.8 L 1030.5 4814.7 " fill="#000"/>
<path class="atom-5" d="M 1566.6 5453.6 L 1566.6 5510.9 L 1255.0 5510.9 Q 1259.5 5437.1, 1280.4 5399.1 Q 1295.2 5373.0, 1319.4 5351.4 Q 1343.6 5329.8, 1386.1 5305.3 L 1447.3 5269.9 Q 1510.5 5233.1, 1510.5 5174.8 Q 1510.5 5134.8, 1482.5 5109.1 Q 1456.0 5084.9, 1418.0 5084.9 Q 1391.6 5084.9, 1370.0 5097.5 Q 1348.7 5109.7, 1337.5 5131.6 Q 1326.2 5153.9, 1323.6 5199.3 L 1265.6 5199.3 Q 1267.5 5131.3, 1290.4 5096.2 Q 1330.4 5034.0, 1420.0 5034.0 Q 1485.4 5034.0, 1526.0 5071.4 Q 1569.8 5111.6, 1569.8 5173.5 Q 1569.8 5262.5, 1471.2 5317.3 L 1405.1 5354.0 Q 1364.8 5376.2, 1344.9 5399.8 Q 1325.2 5423.3, 1320.7 5453.6 L 1566.6 5453.6 " fill="#000"/>
<path class="atom-5" d="M 2222.9 4417.7 L 2222.9 5146.8 L 2118.4 5146.8 L 1740.9 4555.4 L 1740.9 5146.8 L 1653.1 5146.8 L 1653.1 4417.7 L 1754.1 4417.7 L 2135.0 5013.5 L 2135.0 4417.7 L 2222.9 4417.7 " fill="#000"/>
<path class="atom-6" d="M 1351.9 861.4 L 976.4 861.4 L 976.4 1193.4 L 883.6 1193.4 L 883.6 464.4 L 976.4 464.4 L 976.4 779.3 L 1351.9 779.3 L 1351.9 464.4 L 1444.7 464.4 L 1444.7 1193.4 L 1351.9 1193.4 L 1351.9 861.4 " fill="#000"/>
<path class="atom-6" d="M 1937.1 452.2 Q 2072.9 452.2, 2164.2 529.3 Q 2228.6 584.0, 2260.4 668.0 Q 2290.1 747.1, 2290.1 839.9 Q 2290.1 964.4, 2230.1 1061.5 Q 2175.4 1150.4, 2081.2 1189.5 Q 2016.2 1216.3, 1938.1 1216.3 Q 1802.4 1216.3, 1711.5 1139.2 Q 1648.1 1084.5, 1615.8 1001.0 Q 1586.0 921.9, 1586.0 834.0 Q 1586.0 704.1, 1646.1 607.0 Q 1701.3 517.1, 1795.0 478.5 Q 1860.0 452.2, 1937.1 452.2 M 1937.1 534.2 Q 1829.2 534.2, 1758.9 606.0 Q 1720.8 645.0, 1700.8 702.2 Q 1678.8 765.2, 1678.8 834.5 Q 1678.8 933.1, 1718.9 1007.8 Q 1756.5 1076.7, 1825.8 1109.9 Q 1877.5 1134.3, 1937.6 1134.3 Q 2047.0 1134.3, 2116.8 1062.5 Q 2154.9 1023.5, 2174.9 966.3 Q 2196.9 903.8, 2196.9 838.4 Q 2196.9 688.5, 2116.8 606.0 Q 2047.5 534.2, 1937.1 534.2 " fill="#000"/>
</svg>