<?xml version="1.0" standalone="no" ?>
<!DOCTYPE svg PUBLIC "-//W3C//DTD SVG 1.1//EN" "http://www.w3.org/Graphics/SVG/1.1/DTD/svg11.dtd">
<svg width="214px" height="171px" viewBox="0 0 214 171" style="background-color: #ffffff00" xmlns="http://www.w3.org/2000/svg" xmlns:xlink="http://www.w3.org/1999/xlink" version="1.1" >
<text x="0" y="0" stroke="transparent" fill="#000000" transform="matrix(0.0666667 0 0 0.0666667 102.5 127.7)" style="font:normal normal normal 200px 'Arial'" >
P</text>
<text x="0" y="0" stroke="transparent" fill="#000000" transform="matrix(0.0666667 0 0 0.0666667 101.733 167.7)" style="font:normal normal normal 200px 'Arial'" >
O</text>
<text x="0" y="0" stroke="transparent" fill="#000000" transform="matrix(0.0666667 0 0 0.0666667 67.0923 107.7)" style="font:normal normal normal 200px 'Arial'" >
O</text>
<text x="0" y="0" stroke="transparent" fill="#000000" transform="matrix(0.0666667 0 0 0.0666667 136.374 107.7)" style="font:normal normal normal 200px 'Arial'" >
O</text>
<text x="0" y="0" stroke="transparent" fill="#000000" transform="matrix(0.0666667 0 0 0.0666667 101.733 87.7)" style="font:normal normal normal 200px 'Arial'" >
O</text>
<text x="0" y="0" stroke="transparent" fill="#000000" transform="matrix(0.0666667 0 0 0.0666667 31.7236 127.7)" style="font:normal normal normal 200px 'Arial'" >
Si</text>
<text x="0" y="0" stroke="transparent" fill="#000000" transform="matrix(0.0666667 0 0 0.0666667 170.288 127.7)" style="font:normal normal normal 200px 'Arial'" >
Si</text>
<text x="0" y="0" stroke="transparent" fill="#000000" transform="matrix(0.0666667 0 0 0.0666667 101.365 48.7)" style="font:normal normal normal 200px 'Arial'" >
Si</text>
<path stroke="transparent" fill="#000000" transform="matrix(0.0666667 0 0 0.0666667 -52.0667 -18.3333)" d="M 2431,2607.33 L 2411,2607.33 L 2411,2229.5 L 2431,2229.5 L 2431,2607.33 Z " />
<path stroke="transparent" fill="#000000" transform="matrix(0.0666667 0 0 0.0666667 -52.0667 -18.3333)" d="M 2359,2607.33 L 2339,2607.33 L 2339,2229.5 L 2359,2229.5 L 2359,2607.33 Z " />
<path stroke="transparent" fill="#000000" transform="matrix(0.0666667 0 0 0.0666667 -52.0667 -18.3333)" d="M 1960.42,1878.92 L 1970.42,1861.6 L 2290.2,2046.22 L 2280.2,2063.54 L 1960.42,1878.92 Z " />
<path stroke="transparent" fill="#000000" transform="matrix(0.0666667 0 0 0.0666667 -52.0667 -18.3333)" d="M 2800.01,1861.35 L 2810.01,1878.67 L 2482.75,2067.61 L 2472.75,2050.29 L 2800.01,1861.35 Z " />
<path stroke="transparent" fill="#000000" transform="matrix(0.0666667 0 0 0.0666667 -52.0667 -18.3333)" d="M 2375,1632.33 L 2395,1632.33 L 2395,2009.5 L 2375,2009.5 L 2375,1632.33 Z " />
<path stroke="transparent" fill="#000000" transform="matrix(0.0666667 0 0 0.0666667 -52.0667 -18.3333)" d="M 831.154,2421.16 L 821.154,2403.84 L 1226.33,2169.91 L 1236.33,2187.23 L 831.154,2421.16 Z " />
<path stroke="transparent" fill="#000000" transform="matrix(0.0666667 0 0 0.0666667 -52.0667 -18.3333)" d="M 1355.77,2712.5 L 1335.77,2712.5 L 1335.77,2232.5 L 1355.77,2232.5 L 1355.77,2712.5 Z " />
<path stroke="transparent" fill="#000000" transform="matrix(0.0666667 0 0 0.0666667 -52.0667 -18.3333)" d="M 821.154,1821.16 L 831.154,1803.84 L 1244.96,2042.75 L 1234.96,2060.07 L 821.154,1821.16 Z " />
<path stroke="transparent" fill="#000000" transform="matrix(0.0666667 0 0 0.0666667 -52.0667 -18.3333)" d="M 1469,2052.9 L 1459,2035.58 L 1760.78,1861.35 L 1770.78,1878.67 L 1469,2052.9 Z " />
<path stroke="transparent" fill="#000000" transform="matrix(0.0666667 0 0 0.0666667 -52.0667 -18.3333)" d="M 3938.85,1803.84 L 3948.85,1821.16 L 3547.46,2052.9 L 3537.46,2035.58 L 3938.85,1803.84 Z " />
<path stroke="transparent" fill="#000000" transform="matrix(0.0666667 0 0 0.0666667 -52.0667 -18.3333)" d="M 3434.23,2712.5 L 3414.23,2712.5 L 3414.23,2232.5 L 3434.23,2232.5 L 3434.23,2712.5 Z " />
<path stroke="transparent" fill="#000000" transform="matrix(0.0666667 0 0 0.0666667 -52.0667 -18.3333)" d="M 3948.85,2403.84 L 3938.85,2421.16 L 3544.83,2193.67 L 3554.83,2176.35 L 3948.85,2403.84 Z " />
<path stroke="transparent" fill="#000000" transform="matrix(0.0666667 0 0 0.0666667 -52.0667 -18.3333)" d="M 3323.42,2042.75 L 3313.42,2060.07 L 2999.65,1878.92 L 3009.65,1861.6 L 3323.42,2042.75 Z " />
<path stroke="transparent" fill="#000000" transform="matrix(0.0666667 0 0 0.0666667 -52.0667 -18.3333)" d="M 2339.72,329.56 L 2359.67,328.203 L 2393.25,822.213 L 2373.3,823.569 L 2339.72,329.56 Z " />
<path stroke="transparent" fill="#000000" transform="matrix(0.0666667 0 0 0.0666667 -52.0667 -18.3333)" d="M 1847.22,672.41 L 1856.02,654.452 L 2285.47,864.941 L 2276.67,882.899 L 1847.22,672.41 Z " />
<path stroke="transparent" fill="#000000" transform="matrix(0.0666667 0 0 0.0666667 -52.0667 -18.3333)" d="M 2882.88,584.649 L 2894.03,601.252 L 2510.07,859.158 L 2498.91,842.555 L 2882.88,584.649 Z " />
<path stroke="transparent" fill="#000000" transform="matrix(0.0666667 0 0 0.0666667 -52.0667 -18.3333)" d="M 2379.28,1047.4 L 2399.28,1047.58 L 2395.97,1407.43 L 2375.97,1407.25 L 2379.28,1047.4 Z " />
</svg>
