<?xml version="1.0" encoding="iso-8859-1"?><svg xmlns="http://www.w3.org/2000/svg" xmlns:rdkit="http://www.rdkit.org/xml" xmlns:xlink="http://www.w3.org/1999/xlink" version="1.1" baseProfile="full" xml:space="preserve" width="1068.8999999999999px" height="129.24px" viewBox="0 0 35630 4308">
<!-- END OF HEADER -->
<rect style="opacity:1.0;fill:#00000000;stroke:none" width="35630.0" height="4308.0" x="0.0" y="0.0"> </rect>
<path class="bond-0 atom-0 atom-1" d="M 1879.2,3626.7 L 3593.6,2637.1" style="fill:none;fill-rule:evenodd;stroke:#000000;stroke-width:90.0px;stroke-linecap:butt;stroke-linejoin:miter;stroke-opacity:1"/>
<path class="bond-1 atom-1 atom-2" d="M 3593.6,2637.1 L 5308.0,3626.8" style="fill:none;fill-rule:evenodd;stroke:#000000;stroke-width:90.0px;stroke-linecap:butt;stroke-linejoin:miter;stroke-opacity:1"/>
<path class="bond-2 atom-2 atom-3" d="M 5308.0,3626.8 L 7022.4,2636.9" style="fill:none;fill-rule:evenodd;stroke:#000000;stroke-width:90.0px;stroke-linecap:butt;stroke-linejoin:miter;stroke-opacity:1"/>
<path class="bond-3 atom-3 atom-4" d="M 7022.4,2636.9 L 8737.1,3626.9" style="fill:none;fill-rule:evenodd;stroke:#000000;stroke-width:90.0px;stroke-linecap:butt;stroke-linejoin:miter;stroke-opacity:1"/>
<path class="bond-4 atom-4 atom-5" d="M 8737.1,3626.9 L 10451.5,2637.0" style="fill:none;fill-rule:evenodd;stroke:#000000;stroke-width:90.0px;stroke-linecap:butt;stroke-linejoin:miter;stroke-opacity:1"/>
<path class="bond-5 atom-5 atom-6" d="M 10451.5,2637.0 L 12165.9,3626.7" style="fill:none;fill-rule:evenodd;stroke:#000000;stroke-width:90.0px;stroke-linecap:butt;stroke-linejoin:miter;stroke-opacity:1"/>
<path class="bond-6 atom-6 atom-7" d="M 12165.9,3626.7 L 13880.3,2637.1" style="fill:none;fill-rule:evenodd;stroke:#000000;stroke-width:90.0px;stroke-linecap:butt;stroke-linejoin:miter;stroke-opacity:1"/>
<path class="bond-7 atom-7 atom-8" d="M 13880.3,2637.1 L 15594.6,3626.8" style="fill:none;fill-rule:evenodd;stroke:#000000;stroke-width:90.0px;stroke-linecap:butt;stroke-linejoin:miter;stroke-opacity:1"/>
<path class="bond-8 atom-8 atom-9" d="M 15594.6,3626.8 L 17309.0,2636.9" style="fill:none;fill-rule:evenodd;stroke:#000000;stroke-width:90.0px;stroke-linecap:butt;stroke-linejoin:miter;stroke-opacity:1"/>
<path class="bond-9 atom-9 atom-10" d="M 17309.0,2636.9 L 19023.4,3627.0" style="fill:none;fill-rule:evenodd;stroke:#000000;stroke-width:90.0px;stroke-linecap:butt;stroke-linejoin:miter;stroke-opacity:1"/>
<path class="bond-10 atom-10 atom-11" d="M 19023.4,3627.0 L 20737.8,2637.0" style="fill:none;fill-rule:evenodd;stroke:#000000;stroke-width:90.0px;stroke-linecap:butt;stroke-linejoin:miter;stroke-opacity:1"/>
<path class="bond-11 atom-11 atom-12" d="M 20737.8,2637.0 L 22452.1,3627.1" style="fill:none;fill-rule:evenodd;stroke:#000000;stroke-width:90.0px;stroke-linecap:butt;stroke-linejoin:miter;stroke-opacity:1"/>
<path class="bond-12 atom-12 atom-13" d="M 22452.1,3627.1 L 24166.5,2637.1" style="fill:none;fill-rule:evenodd;stroke:#000000;stroke-width:90.0px;stroke-linecap:butt;stroke-linejoin:miter;stroke-opacity:1"/>
<path class="bond-13 atom-13 atom-14" d="M 24166.5,2637.1 L 25880.9,3626.8" style="fill:none;fill-rule:evenodd;stroke:#000000;stroke-width:90.0px;stroke-linecap:butt;stroke-linejoin:miter;stroke-opacity:1"/>
<path class="bond-14 atom-14 atom-15" d="M 25880.9,3626.8 L 27595.3,2637.3" style="fill:none;fill-rule:evenodd;stroke:#000000;stroke-width:90.0px;stroke-linecap:butt;stroke-linejoin:miter;stroke-opacity:1"/>
<path class="bond-15 atom-15 atom-16" d="M 27595.3,2637.3 L 29310.0,3627.0" style="fill:none;fill-rule:evenodd;stroke:#000000;stroke-width:90.0px;stroke-linecap:butt;stroke-linejoin:miter;stroke-opacity:1"/>
<path class="bond-16 atom-16 atom-17" d="M 29310.0,3627.0 L 31024.4,2637.0" style="fill:none;fill-rule:evenodd;stroke:#000000;stroke-width:90.0px;stroke-linecap:butt;stroke-linejoin:miter;stroke-opacity:1"/>
<path class="bond-17 atom-17 atom-18" d="M 31172.9,2722.8 L 31172.9,1949.4" style="fill:none;fill-rule:evenodd;stroke:#000000;stroke-width:90.0px;stroke-linecap:butt;stroke-linejoin:miter;stroke-opacity:1"/>
<path class="bond-17 atom-17 atom-18" d="M 31172.9,1949.4 L 31172.9,1176.0" style="fill: none; fill-rule: evenodd; stroke: rgb(0, 0, 0); stroke-width: 90px; stroke-linecap: butt; stroke-linejoin: miter; stroke-opacity: 1;"/>
<path class="bond-17 atom-17 atom-18" d="M 30875.9,2722.7 L 30875.9,1949.4" style="fill:none;fill-rule:evenodd;stroke:#000000;stroke-width:90.0px;stroke-linecap:butt;stroke-linejoin:miter;stroke-opacity:1"/>
<path class="bond-17 atom-17 atom-18" d="M 30875.9,1949.4 L 30875.9,1176.0" style="fill: none; fill-rule: evenodd; stroke: rgb(0, 0, 0); stroke-width: 90px; stroke-linecap: butt; stroke-linejoin: miter; stroke-opacity: 1;"/>
<path class="bond-18 atom-17 atom-19" d="M 31024.4,2637.0 L 31643.2,2994.4" style="fill:none;fill-rule:evenodd;stroke:#000000;stroke-width:90.0px;stroke-linecap:butt;stroke-linejoin:miter;stroke-opacity:1"/>
<path class="bond-18 atom-17 atom-19" d="M 31643.2,2994.4 L 32262.0,3351.8" style="fill: none; fill-rule: evenodd; stroke: rgb(0, 0, 0); stroke-width: 90px; stroke-linecap: butt; stroke-linejoin: miter; stroke-opacity: 1;"/>
<path d="M 3507.9,2686.6 L 3593.6,2637.1 L 3679.3,2686.6" style="fill:none;stroke:#000000;stroke-width:90.0px;stroke-linecap:butt;stroke-linejoin:miter;stroke-opacity:1;"/>
<path d="M 5222.3,3577.3 L 5308.0,3626.8 L 5393.7,3577.3" style="fill:none;stroke:#000000;stroke-width:90.0px;stroke-linecap:butt;stroke-linejoin:miter;stroke-opacity:1;"/>
<path d="M 6936.6,2686.3 L 7022.4,2636.9 L 7108.1,2686.4" style="fill:none;stroke:#000000;stroke-width:90.0px;stroke-linecap:butt;stroke-linejoin:miter;stroke-opacity:1;"/>
<path d="M 8651.4,3577.4 L 8737.1,3626.9 L 8822.9,3577.4" style="fill:none;stroke:#000000;stroke-width:90.0px;stroke-linecap:butt;stroke-linejoin:miter;stroke-opacity:1;"/>
<path d="M 10365.8,2686.5 L 10451.5,2637.0 L 10537.2,2686.5" style="fill:none;stroke:#000000;stroke-width:90.0px;stroke-linecap:butt;stroke-linejoin:miter;stroke-opacity:1;"/>
<path d="M 12080.2,3577.2 L 12165.9,3626.7 L 12251.6,3577.2" style="fill:none;stroke:#000000;stroke-width:90.0px;stroke-linecap:butt;stroke-linejoin:miter;stroke-opacity:1;"/>
<path d="M 13794.5,2686.6 L 13880.3,2637.1 L 13966.0,2686.6" style="fill:none;stroke:#000000;stroke-width:90.0px;stroke-linecap:butt;stroke-linejoin:miter;stroke-opacity:1;"/>
<path d="M 15508.9,3577.3 L 15594.6,3626.8 L 15680.4,3577.3" style="fill:none;stroke:#000000;stroke-width:90.0px;stroke-linecap:butt;stroke-linejoin:miter;stroke-opacity:1;"/>
<path d="M 17223.3,2686.4 L 17309.0,2636.9 L 17394.7,2686.4" style="fill:none;stroke:#000000;stroke-width:90.0px;stroke-linecap:butt;stroke-linejoin:miter;stroke-opacity:1;"/>
<path d="M 18937.7,3577.4 L 19023.4,3627.0 L 19109.1,3577.5" style="fill:none;stroke:#000000;stroke-width:90.0px;stroke-linecap:butt;stroke-linejoin:miter;stroke-opacity:1;"/>
<path d="M 20652.0,2686.5 L 20737.8,2637.0 L 20823.5,2686.5" style="fill:none;stroke:#000000;stroke-width:90.0px;stroke-linecap:butt;stroke-linejoin:miter;stroke-opacity:1;"/>
<path d="M 22366.4,3577.6 L 22452.1,3627.1 L 22537.8,3577.6" style="fill:none;stroke:#000000;stroke-width:90.0px;stroke-linecap:butt;stroke-linejoin:miter;stroke-opacity:1;"/>
<path d="M 24080.8,2686.6 L 24166.5,2637.1 L 24252.2,2686.6" style="fill:none;stroke:#000000;stroke-width:90.0px;stroke-linecap:butt;stroke-linejoin:miter;stroke-opacity:1;"/>
<path d="M 25795.2,3577.3 L 25880.9,3626.8 L 25966.6,3577.3" style="fill:none;stroke:#000000;stroke-width:90.0px;stroke-linecap:butt;stroke-linejoin:miter;stroke-opacity:1;"/>
<path d="M 27509.5,2686.7 L 27595.3,2637.3 L 27681.0,2686.8" style="fill:none;stroke:#000000;stroke-width:90.0px;stroke-linecap:butt;stroke-linejoin:miter;stroke-opacity:1;"/>
<path d="M 29224.3,3577.5 L 29310.0,3627.0 L 29395.7,3577.5" style="fill:none;stroke:#000000;stroke-width:90.0px;stroke-linecap:butt;stroke-linejoin:miter;stroke-opacity:1;"/>
<path d="M 30938.7,2686.5 L 31024.4,2637.0 L 31055.3,2654.9" style="fill:none;stroke:#000000;stroke-width:90.0px;stroke-linecap:butt;stroke-linejoin:miter;stroke-opacity:1;"/>
<path class="atom-18" d="M 31023.4 287.1 Q 31159.2 287.1, 31250.5 364.3 Q 31314.9 419.0, 31346.7 503.0 Q 31376.5 582.1, 31376.5 674.8 Q 31376.5 799.4, 31316.4 896.5 Q 31261.7 985.4, 31167.5 1024.5 Q 31102.5 1051.3, 31024.4 1051.3 Q 30888.7 1051.3, 30797.8 974.2 Q 30734.4 919.5, 30702.1 836.0 Q 30672.4 756.9, 30672.4 669.0 Q 30672.4 539.1, 30732.4 441.9 Q 30787.6 352.1, 30881.3 313.5 Q 30946.3 287.1, 31023.4 287.1 M 31023.4 369.2 Q 30915.5 369.2, 30845.2 441.0 Q 30807.1 480.0, 30787.1 537.1 Q 30765.1 600.1, 30765.1 669.5 Q 30765.1 768.1, 30805.2 842.8 Q 30842.8 911.7, 30912.1 944.9 Q 30963.9 969.3, 31023.9 969.3 Q 31133.3 969.3, 31203.1 897.5 Q 31241.2 858.4, 31261.2 801.3 Q 31283.2 738.8, 31283.2 673.4 Q 31283.2 523.5, 31203.1 441.0 Q 31133.8 369.2, 31023.4 369.2 " fill="#000"/>
<path class="atom-19" d="M 32737.8 3256.5 Q 32873.5 3256.5, 32964.8 3333.6 Q 33029.3 3388.3, 33061.0 3472.3 Q 33090.8 3551.4, 33090.8 3644.2 Q 33090.8 3768.7, 33030.8 3865.9 Q 32976.1 3954.7, 32881.8 3993.8 Q 32816.9 4020.7, 32738.8 4020.7 Q 32603.0 4020.7, 32512.2 3943.5 Q 32448.7 3888.8, 32416.5 3805.3 Q 32386.7 3726.2, 32386.7 3638.3 Q 32386.7 3508.4, 32446.8 3411.3 Q 32502.0 3321.4, 32595.7 3282.9 Q 32660.6 3256.5, 32737.8 3256.5 M 32737.8 3338.5 Q 32629.9 3338.5, 32559.6 3410.3 Q 32521.5 3449.4, 32501.5 3506.5 Q 32479.5 3569.5, 32479.5 3638.8 Q 32479.5 3737.4, 32519.5 3812.2 Q 32557.1 3881.0, 32626.5 3914.2 Q 32678.2 3938.6, 32738.3 3938.6 Q 32847.7 3938.6, 32917.5 3866.8 Q 32955.6 3827.8, 32975.6 3770.7 Q 32997.6 3708.2, 32997.6 3642.7 Q 32997.6 3492.8, 32917.5 3410.3 Q 32848.1 3338.5, 32737.8 3338.5 " fill="#000"/>
<path class="atom-19" d="M 33658.0 3665.7 L 33282.5 3665.7 L 33282.5 3997.7 L 33189.7 3997.7 L 33189.7 3268.7 L 33282.5 3268.7 L 33282.5 3583.6 L 33658.0 3583.6 L 33658.0 3268.7 L 33750.8 3268.7 L 33750.8 3997.7 L 33658.0 3997.7 L 33658.0 3665.7 " fill="#000"/>
</svg>