<?xml version="1.0" encoding="iso-8859-1"?><svg xmlns="http://www.w3.org/2000/svg" xmlns:rdkit="http://www.rdkit.org/xml" xmlns:xlink="http://www.w3.org/1999/xlink" version="1.1" baseProfile="full" xml:space="preserve" width="743.01px" height="33px" viewBox="0 0 24767 1100">
<!-- END OF HEADER -->
<rect style="opacity:1.0;fill:#00000000;stroke:none" width="24767.0" height="1100.0" x="0.0" y="0.0"> </rect>
<path class="bond-0 atom-0 atom-1" d="M 23526.1,55.1 L 21811.8,1045.0" style="fill:none;fill-rule:evenodd;stroke:#000000;stroke-width:90.0px;stroke-linecap:butt;stroke-linejoin:miter;stroke-opacity:1"/>
<path class="bond-1 atom-1 atom-2" d="M 21811.8,1045.0 L 20097.6,55.4" style="fill:none;fill-rule:evenodd;stroke:#000000;stroke-width:90.0px;stroke-linecap:butt;stroke-linejoin:miter;stroke-opacity:1"/>
<path class="bond-2 atom-2 atom-3" d="M 20097.6,55.4 L 18383.3,1044.9" style="fill:none;fill-rule:evenodd;stroke:#000000;stroke-width:90.0px;stroke-linecap:butt;stroke-linejoin:miter;stroke-opacity:1"/>
<path class="bond-3 atom-3 atom-4" d="M 18383.3,1044.9 L 16669.0,55.3" style="fill:none;fill-rule:evenodd;stroke:#000000;stroke-width:90.0px;stroke-linecap:butt;stroke-linejoin:miter;stroke-opacity:1"/>
<path class="bond-4 atom-4 atom-5" d="M 16669.0,55.3 L 14954.8,1044.8" style="fill:none;fill-rule:evenodd;stroke:#000000;stroke-width:90.0px;stroke-linecap:butt;stroke-linejoin:miter;stroke-opacity:1"/>
<path class="bond-5 atom-5 atom-6" d="M 14954.8,1044.8 L 13240.5,55.2" style="fill:none;fill-rule:evenodd;stroke:#000000;stroke-width:90.0px;stroke-linecap:butt;stroke-linejoin:miter;stroke-opacity:1"/>
<path class="bond-6 atom-6 atom-7" d="M 13240.5,55.2 L 11526.2,1044.8" style="fill:none;fill-rule:evenodd;stroke:#000000;stroke-width:90.0px;stroke-linecap:butt;stroke-linejoin:miter;stroke-opacity:1"/>
<path class="bond-7 atom-7 atom-8" d="M 11526.2,1044.8 L 9811.9,55.2" style="fill:none;fill-rule:evenodd;stroke:#000000;stroke-width:90.0px;stroke-linecap:butt;stroke-linejoin:miter;stroke-opacity:1"/>
<path class="bond-8 atom-8 atom-9" d="M 9811.9,55.2 L 8097.7,1044.7" style="fill:none;fill-rule:evenodd;stroke:#000000;stroke-width:90.0px;stroke-linecap:butt;stroke-linejoin:miter;stroke-opacity:1"/>
<path class="bond-9 atom-9 atom-10" d="M 8097.7,1044.7 L 6383.4,55.1" style="fill:none;fill-rule:evenodd;stroke:#000000;stroke-width:90.0px;stroke-linecap:butt;stroke-linejoin:miter;stroke-opacity:1"/>
<path class="bond-10 atom-10 atom-11" d="M 6383.4,55.1 L 4669.1,1044.6" style="fill:none;fill-rule:evenodd;stroke:#000000;stroke-width:90.0px;stroke-linecap:butt;stroke-linejoin:miter;stroke-opacity:1"/>
<path class="bond-11 atom-11 atom-12" d="M 4669.1,1044.6 L 2954.9,55.0" style="fill:none;fill-rule:evenodd;stroke:#000000;stroke-width:90.0px;stroke-linecap:butt;stroke-linejoin:miter;stroke-opacity:1"/>
<path class="bond-12 atom-12 atom-13" d="M 2954.9,55.0 L 1240.6,1044.9" style="fill:none;fill-rule:evenodd;stroke:#000000;stroke-width:90.0px;stroke-linecap:butt;stroke-linejoin:miter;stroke-opacity:1"/>
<path d="M 21897.6,995.5 L 21811.8,1045.0 L 21726.1,995.5" style="fill:none;stroke:#000000;stroke-width:90.0px;stroke-linecap:butt;stroke-linejoin:miter;stroke-opacity:1;"/>
<path d="M 20183.3,104.9 L 20097.6,55.4 L 20011.9,104.9" style="fill:none;stroke:#000000;stroke-width:90.0px;stroke-linecap:butt;stroke-linejoin:miter;stroke-opacity:1;"/>
<path d="M 18469.0,995.4 L 18383.3,1044.9 L 18297.6,995.4" style="fill:none;stroke:#000000;stroke-width:90.0px;stroke-linecap:butt;stroke-linejoin:miter;stroke-opacity:1;"/>
<path d="M 16754.8,104.8 L 16669.0,55.3 L 16583.3,104.8" style="fill:none;stroke:#000000;stroke-width:90.0px;stroke-linecap:butt;stroke-linejoin:miter;stroke-opacity:1;"/>
<path d="M 15040.5,995.4 L 14954.8,1044.8 L 14869.0,995.4" style="fill:none;stroke:#000000;stroke-width:90.0px;stroke-linecap:butt;stroke-linejoin:miter;stroke-opacity:1;"/>
<path d="M 13326.2,104.7 L 13240.5,55.2 L 13154.8,104.7" style="fill:none;stroke:#000000;stroke-width:90.0px;stroke-linecap:butt;stroke-linejoin:miter;stroke-opacity:1;"/>
<path d="M 11611.9,995.3 L 11526.2,1044.8 L 11440.5,995.3" style="fill:none;stroke:#000000;stroke-width:90.0px;stroke-linecap:butt;stroke-linejoin:miter;stroke-opacity:1;"/>
<path d="M 9897.7,104.6 L 9811.9,55.2 L 9726.2,104.6" style="fill:none;stroke:#000000;stroke-width:90.0px;stroke-linecap:butt;stroke-linejoin:miter;stroke-opacity:1;"/>
<path d="M 8183.4,995.2 L 8097.7,1044.7 L 8011.9,995.2" style="fill:none;stroke:#000000;stroke-width:90.0px;stroke-linecap:butt;stroke-linejoin:miter;stroke-opacity:1;"/>
<path d="M 6469.1,104.6 L 6383.4,55.1 L 6297.7,104.6" style="fill:none;stroke:#000000;stroke-width:90.0px;stroke-linecap:butt;stroke-linejoin:miter;stroke-opacity:1;"/>
<path d="M 4754.8,995.1 L 4669.1,1044.6 L 4583.4,995.1" style="fill:none;stroke:#000000;stroke-width:90.0px;stroke-linecap:butt;stroke-linejoin:miter;stroke-opacity:1;"/>
<path d="M 3040.6,104.5 L 2954.9,55.0 L 2869.1,104.5" style="fill:none;stroke:#000000;stroke-width:90.0px;stroke-linecap:butt;stroke-linejoin:miter;stroke-opacity:1;"/>
</svg>