<?xml version="1.0" standalone="no" ?>
<!DOCTYPE svg PUBLIC "-//W3C//DTD SVG 1.1//EN" "http://www.w3.org/Graphics/SVG/1.1/DTD/svg11.dtd">
<svg width="183px" height="97px" viewBox="0 0 183 97" style="background-color: #ffffff00" xmlns="http://www.w3.org/2000/svg" xmlns:xlink="http://www.w3.org/1999/xlink" version="1.1" >
<text x="0" y="0" stroke="transparent" fill="#000000" transform="matrix(0.0666667 0 0 0.0666667 159.816 53.8667)" style="font:normal normal normal 200px 'Arial'" >
OH</text>
<text x="0" y="0" stroke="transparent" fill="#000000" transform="matrix(0.0666667 0 0 0.0666667 45.1333 53.8667)" style="font:normal normal normal 200px 'Arial'" >
N</text>
<path stroke="transparent" fill="#000000" transform="matrix(0.0666667 0 0 0.0666667 -25.0667 -16.3333)" d="M 1999.26,426.642 L 1985.42,443.997 L 1414.32,313.647 L 1408.36,302.03 L 1405.89,291.209 L 1999.26,426.642 Z " />
<path stroke="transparent" fill="#000000" transform="matrix(0.0666667 0 0 0.0666667 -25.0667 -16.3333)" d="M 2258.52,965 L 2252.24,975 L 2241.14,975 L 1985.42,443.997 L 1999.26,426.642 L 2258.52,965 Z " />
<path stroke="transparent" fill="#000000" transform="matrix(0.0666667 0 0 0.0666667 -25.0667 -16.3333)" d="M 2743.24,965 L 2743.24,985 L 2258.52,985 L 2252.24,975 L 2258.52,965 L 2743.24,965 Z " />
<path stroke="transparent" fill="#000000" transform="matrix(0.0666667 0 0 0.0666667 -25.0667 -16.3333)" d="M 1999.26,1523.36 L 1985.42,1506 L 2241.14,975 L 2252.24,975 L 2258.52,985 L 1999.26,1523.36 Z " />
<path stroke="transparent" fill="#000000" transform="matrix(0.0666667 0 0 0.0666667 -25.0667 -16.3333)" d="M 1405.89,1658.79 L 1408.36,1647.97 L 1414.32,1636.35 L 1985.42,1506 L 1999.26,1523.36 L 1405.89,1658.79 Z " />
<path stroke="transparent" fill="#000000" transform="matrix(0.0666667 0 0 0.0666667 -25.0667 -16.3333)" d="M 930.042,1279.32 L 950.042,1269.68 L 1383.92,1615.69 L 1408.36,1647.97 L 1405.89,1658.79 L 930.042,1279.32 Z " />
<path stroke="transparent" fill="#000000" transform="matrix(0.0666667 0 0 0.0666667 -25.0667 -16.3333)" d="M 930.042,670.684 L 950.042,680.316 L 950.042,925 L 930.042,925 L 930.042,670.684 L 930.042,670.684 Z " />
<path stroke="transparent" fill="#000000" transform="matrix(0.0666667 0 0 0.0666667 -25.0667 -16.3333)" d="M 950.042,1269.68 L 930.042,1279.32 L 930.042,1025 L 950.042,1025 L 950.042,1269.68 L 950.042,1269.68 Z " />
<path stroke="transparent" fill="#000000" transform="matrix(0.0666667 0 0 0.0666667 -25.0667 -16.3333)" d="M 950.042,680.316 L 930.042,670.684 L 1405.89,291.209 L 1408.36,302.03 L 1383.92,334.313 L 950.042,680.316 Z " />
<path stroke="transparent" fill="#000000" transform="matrix(0.0666667 0 0 0.0666667 -25.0667 -16.3333)" d="M 1167.34,1101.32 L 1185.77,1093.56 L 1414.32,1636.35 L 1408.36,1647.97 L 1383.92,1615.69 L 1167.34,1101.32 Z " />
<path stroke="transparent" fill="#000000" transform="matrix(0.0666667 0 0 0.0666667 -25.0667 -16.3333)" d="M 1180.64,868.616 L 1162.21,860.854 L 1383.92,334.313 L 1408.36,302.03 L 1414.32,313.647 L 1180.64,868.616 Z " />
<path stroke="transparent" fill="#000000" transform="matrix(0.0666667 0 0 0.0666667 -25.0667 -16.3333)" d="M 422.373,985 L 422.373,965 L 1029,965 L 1029,985 L 422.373,985 Z " />
</svg>
