<?xml version="1.0" encoding="iso-8859-1"?><svg xmlns="http://www.w3.org/2000/svg" xmlns:rdkit="http://www.rdkit.org/xml" xmlns:xlink="http://www.w3.org/1999/xlink" version="1.1" baseProfile="full" xml:space="preserve" width="398.61px" height="327.24px" viewBox="0 0 13287 10908">
<!-- END OF HEADER -->
<rect style="opacity:1.0;fill:#00000000;stroke:none" width="13287.0" height="10908.0" x="0.0" y="0.0"> </rect>
<path class="bond-0 atom-0 atom-1" d="M 5280.0,4947.2 L 3565.5,3957.5" style="fill:none;fill-rule:evenodd;stroke:#000000;stroke-width:90.0px;stroke-linecap:butt;stroke-linejoin:miter;stroke-opacity:1"/>
<path class="bond-0 atom-0 atom-1" d="M 5280.1,4604.3 L 3862.5,3786.0" style="fill:none;fill-rule:evenodd;stroke:#000000;stroke-width:90.0px;stroke-linecap:butt;stroke-linejoin:miter;stroke-opacity:1"/>
<path class="bond-1 atom-1 atom-2" d="M 3565.5,3957.5 L 3565.5,1977.7" style="fill:none;fill-rule:evenodd;stroke:#000000;stroke-width:90.0px;stroke-linecap:butt;stroke-linejoin:miter;stroke-opacity:1"/>
<path class="bond-2 atom-2 atom-3" d="M 3565.5,1977.7 L 5280.0,987.9" style="fill:none;fill-rule:evenodd;stroke:#000000;stroke-width:90.0px;stroke-linecap:butt;stroke-linejoin:miter;stroke-opacity:1"/>
<path class="bond-2 atom-2 atom-3" d="M 3862.5,2149.1 L 5280.0,1330.8" style="fill:none;fill-rule:evenodd;stroke:#000000;stroke-width:90.0px;stroke-linecap:butt;stroke-linejoin:miter;stroke-opacity:1"/>
<path class="bond-3 atom-3 atom-4" d="M 5280.0,987.9 L 6994.6,1977.6" style="fill:none;fill-rule:evenodd;stroke:#000000;stroke-width:90.0px;stroke-linecap:butt;stroke-linejoin:miter;stroke-opacity:1"/>
<path class="bond-4 atom-4 atom-5" d="M 6994.6,1977.6 L 6994.6,3957.8" style="fill:none;fill-rule:evenodd;stroke:#000000;stroke-width:90.0px;stroke-linecap:butt;stroke-linejoin:miter;stroke-opacity:1"/>
<path class="bond-4 atom-4 atom-5" d="M 6697.6,2149.1 L 6697.6,3786.3" style="fill:none;fill-rule:evenodd;stroke:#000000;stroke-width:90.0px;stroke-linecap:butt;stroke-linejoin:miter;stroke-opacity:1"/>
<path class="bond-5 atom-5 atom-6" d="M 6994.6,3957.8 L 8709.1,4947.5" style="fill:none;fill-rule:evenodd;stroke:#000000;stroke-width:90.0px;stroke-linecap:butt;stroke-linejoin:miter;stroke-opacity:1"/>
<path class="bond-6 atom-6 atom-7" d="M 8709.1,4947.5 L 8709.1,6927.4" style="fill:none;fill-rule:evenodd;stroke:#000000;stroke-width:90.0px;stroke-linecap:butt;stroke-linejoin:miter;stroke-opacity:1"/>
<path class="bond-7 atom-7 atom-8" d="M 8709.1,6927.4 L 10423.6,7917.1" style="fill:none;fill-rule:evenodd;stroke:#000000;stroke-width:90.0px;stroke-linecap:butt;stroke-linejoin:miter;stroke-opacity:1"/>
<path class="bond-8 atom-8 atom-9" d="M 10423.6,8088.5 L 11079.6,7709.8" style="fill:none;fill-rule:evenodd;stroke:#000000;stroke-width:90.0px;stroke-linecap:butt;stroke-linejoin:miter;stroke-opacity:1"/>
<path class="bond-8 atom-8 atom-9" d="M 11079.6,7709.8 L 11735.6,7331.1" style="fill: none; fill-rule: evenodd; stroke: rgb(0, 0, 0); stroke-width: 90px; stroke-linecap: butt; stroke-linejoin: miter; stroke-opacity: 1;"/>
<path class="bond-8 atom-8 atom-9" d="M 10275.1,7831.3 L 10931.1,7452.6" style="fill:none;fill-rule:evenodd;stroke:#000000;stroke-width:90.0px;stroke-linecap:butt;stroke-linejoin:miter;stroke-opacity:1"/>
<path class="bond-8 atom-8 atom-9" d="M 10931.1,7452.6 L 11587.2,7074.0" style="fill: none; fill-rule: evenodd; stroke: rgb(0, 0, 0); stroke-width: 90px; stroke-linecap: butt; stroke-linejoin: miter; stroke-opacity: 1;"/>
<path class="bond-9 atom-8 atom-10" d="M 10423.6,7917.1 L 10423.6,8659.3" style="fill:none;fill-rule:evenodd;stroke:#000000;stroke-width:90.0px;stroke-linecap:butt;stroke-linejoin:miter;stroke-opacity:1"/>
<path class="bond-9 atom-8 atom-10" d="M 10423.6,8659.3 L 10423.6,9401.6" style="fill: none; fill-rule: evenodd; stroke: rgb(0, 0, 0); stroke-width: 90px; stroke-linecap: butt; stroke-linejoin: miter; stroke-opacity: 1;"/>
<path class="bond-10 atom-7 atom-11" d="M 8709.1,6927.4 L 8126.4,7349.4 L 8052.2,7220.8 Z" style="fill: rgb(0, 0, 0); fill-rule: evenodd; fill-opacity: 1; stroke: rgb(0, 0, 0); stroke-width: 45px; stroke-linecap: butt; stroke-linejoin: miter; stroke-opacity: 1;"/>
<path class="bond-10 atom-7 atom-11" d="M 8126.4,7349.4 L 7395.3,7514.3 L 7543.8,7771.5 Z" style="fill: rgb(0, 0, 0); fill-rule: evenodd; fill-opacity: 1; stroke: rgb(0, 0, 0); stroke-width: 45px; stroke-linecap: butt; stroke-linejoin: miter; stroke-opacity: 1;"/>
<path class="bond-10 atom-7 atom-11" d="M 8126.4,7349.4 L 8052.2,7220.8 L 7395.3,7514.3 Z" style="fill: rgb(0, 0, 0); fill-rule: evenodd; fill-opacity: 1; stroke: rgb(0, 0, 0); stroke-width: 45px; stroke-linecap: butt; stroke-linejoin: miter; stroke-opacity: 1;"/>
<path class="bond-11 atom-2 atom-12" d="M 3565.5,1977.7 L 2946.6,1620.4" style="fill:none;fill-rule:evenodd;stroke:#000000;stroke-width:90.0px;stroke-linecap:butt;stroke-linejoin:miter;stroke-opacity:1"/>
<path class="bond-11 atom-2 atom-12" d="M 2946.6,1620.4 L 2327.7,1263.2" style="fill: none; fill-rule: evenodd; stroke: rgb(0, 0, 0); stroke-width: 90px; stroke-linecap: butt; stroke-linejoin: miter; stroke-opacity: 1;"/>
<path class="bond-12 atom-5 atom-0" d="M 6994.6,3957.8 L 5280.0,4947.2" style="fill:none;fill-rule:evenodd;stroke:#000000;stroke-width:90.0px;stroke-linecap:butt;stroke-linejoin:miter;stroke-opacity:1"/>
<path d="M 5194.3,4897.7 L 5280.0,4947.2 L 5365.8,4897.7" style="fill:none;stroke:#000000;stroke-width:90.0px;stroke-linecap:butt;stroke-linejoin:miter;stroke-opacity:1;"/>
<path d="M 3651.2,4007.0 L 3565.5,3957.5 L 3565.5,3858.5" style="fill:none;stroke:#000000;stroke-width:90.0px;stroke-linecap:butt;stroke-linejoin:miter;stroke-opacity:1;"/>
<path d="M 5194.3,1037.4 L 5280.0,987.9 L 5365.7,1037.4" style="fill:none;stroke:#000000;stroke-width:90.0px;stroke-linecap:butt;stroke-linejoin:miter;stroke-opacity:1;"/>
<path d="M 6908.8,1928.1 L 6994.6,1977.6 L 6994.6,2076.6" style="fill:none;stroke:#000000;stroke-width:90.0px;stroke-linecap:butt;stroke-linejoin:miter;stroke-opacity:1;"/>
<path d="M 8623.4,4898.1 L 8709.1,4947.5 L 8709.1,5046.5" style="fill:none;stroke:#000000;stroke-width:90.0px;stroke-linecap:butt;stroke-linejoin:miter;stroke-opacity:1;"/>
<path d="M 8709.1,6828.4 L 8709.1,6927.4 L 8794.8,6976.8" style="fill:none;stroke:#000000;stroke-width:90.0px;stroke-linecap:butt;stroke-linejoin:miter;stroke-opacity:1;"/>
<path d="M 10337.9,7867.6 L 10423.6,7917.1 L 10423.6,7954.2" style="fill:none;stroke:#000000;stroke-width:90.0px;stroke-linecap:butt;stroke-linejoin:miter;stroke-opacity:1;"/>
<path class="atom-9" d="M 12137.2 6556.7 Q 12272.9 6556.7, 12364.2 6633.9 Q 12428.7 6688.6, 12460.4 6772.5 Q 12490.2 6851.6, 12490.2 6944.4 Q 12490.2 7068.9, 12430.2 7166.1 Q 12375.5 7255.0, 12281.2 7294.0 Q 12216.3 7320.9, 12138.2 7320.9 Q 12002.4 7320.9, 11911.6 7243.7 Q 11848.1 7189.0, 11815.9 7105.5 Q 11786.1 7026.4, 11786.1 6938.6 Q 11786.1 6808.7, 11846.2 6711.5 Q 11901.3 6621.7, 11995.1 6583.1 Q 12060.0 6556.7, 12137.2 6556.7 M 12137.2 6638.8 Q 12029.3 6638.8, 11959.0 6710.5 Q 11920.9 6749.6, 11900.9 6806.7 Q 11878.9 6869.7, 11878.9 6939.0 Q 11878.9 7037.7, 11918.9 7112.4 Q 11956.5 7181.2, 12025.9 7214.4 Q 12077.6 7238.8, 12137.7 7238.8 Q 12247.0 7238.8, 12316.9 7167.1 Q 12355.0 7128.0, 12375.0 7070.9 Q 12396.9 7008.4, 12396.9 6943.0 Q 12396.9 6793.0, 12316.9 6710.5 Q 12247.5 6638.8, 12137.2 6638.8 " fill="#000"/>
<path class="atom-10" d="M 10422.7 9526.3 Q 10558.4 9526.3, 10649.7 9603.4 Q 10714.2 9658.1, 10745.9 9742.1 Q 10775.7 9821.2, 10775.7 9914.0 Q 10775.7 10038.5, 10715.6 10135.7 Q 10660.9 10224.5, 10566.7 10263.6 Q 10501.8 10290.4, 10423.6 10290.4 Q 10287.9 10290.4, 10197.1 10213.3 Q 10133.6 10158.6, 10101.4 10075.1 Q 10071.6 9996.0, 10071.6 9908.1 Q 10071.6 9778.2, 10131.6 9681.1 Q 10186.8 9591.2, 10280.6 9552.6 Q 10345.5 9526.3, 10422.7 9526.3 M 10422.7 9608.3 Q 10314.8 9608.3, 10244.4 9680.1 Q 10206.4 9719.2, 10186.3 9776.3 Q 10164.4 9839.3, 10164.4 9908.6 Q 10164.4 10007.2, 10204.4 10081.9 Q 10242.0 10150.8, 10311.3 10184.0 Q 10363.1 10208.4, 10423.2 10208.4 Q 10532.5 10208.4, 10602.3 10136.6 Q 10640.4 10097.6, 10660.5 10040.4 Q 10682.4 9977.9, 10682.4 9912.5 Q 10682.4 9762.6, 10602.3 9680.1 Q 10533.0 9608.3, 10422.7 9608.3 " fill="#000"/>
<path class="atom-10" d="M 11342.9 9935.5 L 10967.4 9935.5 L 10967.4 10267.5 L 10874.6 10267.5 L 10874.6 9538.5 L 10967.4 9538.5 L 10967.4 9853.4 L 11342.9 9853.4 L 11342.9 9538.5 L 11435.6 9538.5 L 11435.6 10267.5 L 11342.9 10267.5 L 11342.9 9935.5 " fill="#000"/>
<path class="atom-11" d="M 6087.1 7949.6 L 5711.6 7949.6 L 5711.6 8281.6 L 5618.8 8281.6 L 5618.8 7552.6 L 5711.6 7552.6 L 5711.6 7867.5 L 6087.1 7867.5 L 6087.1 7552.6 L 6179.8 7552.6 L 6179.8 8281.6 L 6087.1 8281.6 L 6087.1 7949.6 " fill="#000"/>
<path class="atom-11" d="M 6623.2 8588.4 L 6623.2 8645.8 L 6311.6 8645.8 Q 6316.1 8572.0, 6337.0 8534.0 Q 6351.8 8507.9, 6376.0 8486.3 Q 6400.2 8464.7, 6442.7 8440.2 L 6504.0 8404.7 Q 6567.1 8368.0, 6567.1 8309.7 Q 6567.1 8269.7, 6539.1 8243.9 Q 6512.7 8219.7, 6474.6 8219.7 Q 6448.2 8219.7, 6426.6 8232.3 Q 6405.3 8244.6, 6394.1 8266.5 Q 6382.8 8288.7, 6380.2 8334.2 L 6322.2 8334.2 Q 6324.1 8266.2, 6347.0 8231.0 Q 6387.0 8168.8, 6476.6 8168.8 Q 6542.0 8168.8, 6582.6 8206.2 Q 6626.4 8246.5, 6626.4 8308.4 Q 6626.4 8397.3, 6527.8 8452.1 L 6461.7 8488.8 Q 6421.5 8511.1, 6401.5 8534.6 Q 6381.8 8558.1, 6377.3 8588.4 L 6623.2 8588.4 " fill="#000"/>
<path class="atom-11" d="M 7279.5 7552.6 L 7279.5 8281.6 L 7175.0 8281.6 L 6797.6 7690.3 L 6797.6 8281.6 L 6709.7 8281.6 L 6709.7 7552.6 L 6810.7 7552.6 L 7191.6 8148.3 L 7191.6 7552.6 L 7279.5 7552.6 " fill="#000"/>
<path class="atom-12" d="M 1264.8 1026.5 L 889.3 1026.5 L 889.3 1358.6 L 796.5 1358.6 L 796.5 629.6 L 889.3 629.6 L 889.3 944.5 L 1264.8 944.5 L 1264.8 629.6 L 1357.5 629.6 L 1357.5 1358.6 L 1264.8 1358.6 L 1264.8 1026.5 " fill="#000"/>
<path class="atom-12" d="M 1850.0 617.4 Q 1985.7 617.4, 2077.0 694.5 Q 2141.5 749.2, 2173.2 833.2 Q 2203.0 912.3, 2203.0 1005.1 Q 2203.0 1129.6, 2142.9 1226.7 Q 2088.3 1315.6, 1994.0 1354.7 Q 1929.1 1381.5, 1851.0 1381.5 Q 1715.2 1381.5, 1624.4 1304.4 Q 1560.9 1249.7, 1528.7 1166.2 Q 1498.9 1087.1, 1498.9 999.2 Q 1498.9 869.3, 1559.0 772.1 Q 1614.1 682.3, 1707.9 643.7 Q 1772.8 617.4, 1850.0 617.4 M 1850.0 699.4 Q 1742.1 699.4, 1671.8 771.2 Q 1633.7 810.2, 1613.7 867.4 Q 1591.7 930.3, 1591.7 999.7 Q 1591.7 1098.3, 1631.7 1173.0 Q 1669.3 1241.9, 1738.7 1275.1 Q 1790.4 1299.5, 1850.5 1299.5 Q 1959.8 1299.5, 2029.7 1227.7 Q 2067.8 1188.6, 2087.8 1131.5 Q 2109.7 1069.0, 2109.7 1003.6 Q 2109.7 853.7, 2029.7 771.2 Q 1960.3 699.4, 1850.0 699.4 " fill="#000"/>
</svg>