<?xml version="1.0" encoding="iso-8859-1"?><svg xmlns="http://www.w3.org/2000/svg" xmlns:rdkit="http://www.rdkit.org/xml" xmlns:xlink="http://www.w3.org/1999/xlink" version="1.1" baseProfile="full" xml:space="preserve" width="424.74px" height="195.23999999999998px" viewBox="0 0 14158 6508">
<!-- END OF HEADER -->
<rect style="opacity:1.0;fill:#00000000;stroke:none" width="14158.0" height="6508.0" x="0.0" y="0.0"> </rect>
<path class="bond-0 atom-0 atom-1" d="M 3671.4,2747.3 L 5385.7,3737.4" style="fill:none;fill-rule:evenodd;stroke:#000000;stroke-width:90.0px;stroke-linecap:butt;stroke-linejoin:miter;stroke-opacity:1"/>
<path class="bond-1 atom-1 atom-2" d="M 5385.7,3737.4 L 7100.2,2747.4" style="fill:none;fill-rule:evenodd;stroke:#000000;stroke-width:90.0px;stroke-linecap:butt;stroke-linejoin:miter;stroke-opacity:1"/>
<path class="bond-2 atom-2 atom-3" d="M 7100.2,2747.4 L 8814.5,3737.1" style="fill:none;fill-rule:evenodd;stroke:#000000;stroke-width:90.0px;stroke-linecap:butt;stroke-linejoin:miter;stroke-opacity:1"/>
<path class="bond-3 atom-3 atom-4" d="M 8814.5,3737.1 L 10528.9,2747.5" style="fill:none;fill-rule:evenodd;stroke:#000000;stroke-width:90.0px;stroke-linecap:butt;stroke-linejoin:miter;stroke-opacity:1"/>
<path class="bond-4 atom-4 atom-5" d="M 10528.9,2747.5 L 11147.7,3104.7" style="fill:none;fill-rule:evenodd;stroke:#000000;stroke-width:90.0px;stroke-linecap:butt;stroke-linejoin:miter;stroke-opacity:1"/>
<path class="bond-4 atom-4 atom-5" d="M 11147.7,3104.7 L 11766.6,3462.0" style="fill: none; fill-rule: evenodd; stroke: rgb(0, 0, 0); stroke-width: 90px; stroke-linecap: butt; stroke-linejoin: miter; stroke-opacity: 1;"/>






























<path class="bond-6 atom-2 atom-7" d="M 7100.2,2747.4 L 7100.2,2016.7" style="fill:none;fill-rule:evenodd;stroke:#000000;stroke-width:90.0px;stroke-linecap:butt;stroke-linejoin:miter;stroke-opacity:1"/>
<path class="bond-6 atom-2 atom-7" d="M 7100.2,2016.7 L 7100.2,1286.0" style="fill: none; fill-rule: evenodd; stroke: rgb(0, 0, 0); stroke-width: 90px; stroke-linecap: butt; stroke-linejoin: miter; stroke-opacity: 1;"/>






























<path class="bond-8 atom-0 atom-9" d="M 3671.4,2747.3 L 3052.5,3104.7" style="fill:none;fill-rule:evenodd;stroke:#000000;stroke-width:90.0px;stroke-linecap:butt;stroke-linejoin:miter;stroke-opacity:1"/>
<path class="bond-8 atom-0 atom-9" d="M 3052.5,3104.7 L 2433.7,3462.0" style="fill: none; fill-rule: evenodd; stroke: rgb(0, 0, 0); stroke-width: 90px; stroke-linecap: butt; stroke-linejoin: miter; stroke-opacity: 1;"/>
<path d="M 3757.1,2796.9 L 3671.4,2747.3 L 3640.4,2765.2" style="fill:none;stroke:#000000;stroke-width:90.0px;stroke-linecap:butt;stroke-linejoin:miter;stroke-opacity:1;"/>
<path d="M 5300.0,3687.9 L 5385.7,3737.4 L 5471.5,3687.9" style="fill:none;stroke:#000000;stroke-width:90.0px;stroke-linecap:butt;stroke-linejoin:miter;stroke-opacity:1;"/>
<path d="M 8728.8,3687.6 L 8814.5,3737.1 L 8900.3,3687.6" style="fill:none;stroke:#000000;stroke-width:90.0px;stroke-linecap:butt;stroke-linejoin:miter;stroke-opacity:1;"/>
<path d="M 10443.2,2797.0 L 10528.9,2747.5 L 10559.9,2765.4" style="fill:none;stroke:#000000;stroke-width:90.0px;stroke-linecap:butt;stroke-linejoin:miter;stroke-opacity:1;"/>
<path class="atom-5" d="M 12242.3 3366.6 Q 12378.1 3366.6, 12469.4 3443.7 Q 12533.8 3498.4, 12565.6 3582.4 Q 12595.4 3661.5, 12595.4 3754.3 Q 12595.4 3878.8, 12535.3 3976.0 Q 12480.6 4064.8, 12386.4 4103.9 Q 12321.4 4130.7, 12243.3 4130.7 Q 12107.6 4130.7, 12016.8 4053.6 Q 11953.3 3998.9, 11921.1 3915.4 Q 11891.3 3836.3, 11891.3 3748.4 Q 11891.3 3618.5, 11951.3 3521.4 Q 12006.5 3431.5, 12100.3 3392.9 Q 12165.2 3366.6, 12242.3 3366.6 M 12242.3 3448.6 Q 12134.4 3448.6, 12064.1 3520.4 Q 12026.0 3559.5, 12006.0 3616.6 Q 11984.0 3679.6, 11984.0 3748.9 Q 11984.0 3847.5, 12024.1 3922.2 Q 12061.7 3991.1, 12131.0 4024.3 Q 12182.8 4048.7, 12242.8 4048.7 Q 12352.2 4048.7, 12422.0 3976.9 Q 12460.1 3937.9, 12480.1 3880.7 Q 12502.1 3818.2, 12502.1 3752.8 Q 12502.1 3602.9, 12422.0 3520.4 Q 12352.7 3448.6, 12242.3 3448.6 " fill="#000"/>
<path class="atom-5" d="M 13162.5 3775.8 L 12787.0 3775.8 L 12787.0 4107.8 L 12694.3 4107.8 L 12694.3 3378.8 L 12787.0 3378.8 L 12787.0 3693.7 L 13162.5 3693.7 L 13162.5 3378.8 L 13255.3 3378.8 L 13255.3 4107.8 L 13162.5 4107.8 L 13162.5 3775.8 " fill="#000"/>
<path class="atom-6" d="M 8813.5 5346.2 Q 8949.3 5346.2, 9040.6 5423.3 Q 9105.0 5478.0, 9136.8 5562.0 Q 9166.6 5641.1, 9166.6 5733.9 Q 9166.6 5858.4, 9106.5 5955.5 Q 9051.8 6044.4, 8957.6 6083.5 Q 8892.6 6110.3, 8814.5 6110.3 Q 8678.8 6110.3, 8587.9 6033.2 Q 8524.5 5978.5, 8492.2 5895.0 Q 8462.5 5815.9, 8462.5 5728.0 Q 8462.5 5598.1, 8522.5 5501.0 Q 8577.7 5411.1, 8671.4 5372.5 Q 8736.4 5346.2, 8813.5 5346.2 M 8813.5 5428.2 Q 8705.6 5428.2, 8635.3 5500.0 Q 8597.2 5539.0, 8577.2 5596.2 Q 8555.2 5659.2, 8555.2 5728.5 Q 8555.2 5827.1, 8595.3 5901.8 Q 8632.9 5970.7, 8702.2 6003.9 Q 8754.0 6028.3, 8814.0 6028.3 Q 8923.4 6028.3, 8993.2 5956.5 Q 9031.3 5917.5, 9051.3 5860.3 Q 9073.3 5797.8, 9073.3 5732.4 Q 9073.3 5582.5, 8993.2 5500.0 Q 8923.9 5428.2, 8813.5 5428.2 " fill="#000"/>
<path class="atom-6" d="M 9733.7 5755.3 L 9358.2 5755.3 L 9358.2 6087.4 L 9265.5 6087.4 L 9265.5 5358.4 L 9358.2 5358.4 L 9358.2 5673.3 L 9733.7 5673.3 L 9733.7 5358.4 L 9826.5 5358.4 L 9826.5 6087.4 L 9733.7 6087.4 L 9733.7 5755.3 " fill="#000"/>
<path class="atom-7" d="M 7099.2 397.2 Q 7235.0 397.2, 7326.3 474.3 Q 7390.7 529.0, 7422.5 613.0 Q 7452.2 692.1, 7452.2 784.9 Q 7452.2 909.4, 7392.2 1006.5 Q 7337.5 1095.4, 7243.3 1134.5 Q 7178.3 1161.3, 7100.2 1161.3 Q 6964.4 1161.3, 6873.6 1084.2 Q 6810.1 1029.5, 6777.9 946.0 Q 6748.1 866.9, 6748.1 779.0 Q 6748.1 649.1, 6808.2 551.9 Q 6863.4 462.1, 6957.1 423.5 Q 7022.1 397.2, 7099.2 397.2 M 7099.2 479.2 Q 6991.3 479.2, 6921.0 551.0 Q 6882.9 590.0, 6862.9 647.2 Q 6840.9 710.1, 6840.9 779.5 Q 6840.9 878.1, 6880.9 952.8 Q 6918.5 1021.7, 6987.9 1054.9 Q 7039.6 1079.3, 7099.7 1079.3 Q 7209.1 1079.3, 7278.9 1007.5 Q 7317.0 968.4, 7337.0 911.3 Q 7359.0 848.8, 7359.0 783.4 Q 7359.0 633.5, 7278.9 551.0 Q 7209.6 479.2, 7099.2 479.2 " fill="#000"/>
<path class="atom-7" d="M 8019.4 806.3 L 7643.9 806.3 L 7643.9 1138.4 L 7551.1 1138.4 L 7551.1 409.4 L 7643.9 409.4 L 7643.9 724.3 L 8019.4 724.3 L 8019.4 409.4 L 8112.2 409.4 L 8112.2 1138.4 L 8019.4 1138.4 L 8019.4 806.3 " fill="#000"/>
<path class="atom-8" d="M 5384.7 5346.5 Q 5520.5 5346.5, 5611.8 5423.6 Q 5676.2 5478.3, 5708.0 5562.3 Q 5737.8 5641.4, 5737.8 5734.2 Q 5737.8 5858.7, 5677.7 5955.9 Q 5623.0 6044.7, 5528.8 6083.8 Q 5463.8 6110.6, 5385.7 6110.6 Q 5250.0 6110.6, 5159.2 6033.5 Q 5095.7 5978.8, 5063.5 5895.3 Q 5033.7 5816.2, 5033.7 5728.3 Q 5033.7 5598.4, 5093.7 5501.3 Q 5148.9 5411.4, 5242.7 5372.9 Q 5307.6 5346.5, 5384.7 5346.5 M 5384.7 5428.5 Q 5276.8 5428.5, 5206.5 5500.3 Q 5168.4 5539.4, 5148.4 5596.5 Q 5126.4 5659.5, 5126.4 5728.8 Q 5126.4 5827.4, 5166.5 5902.1 Q 5204.1 5971.0, 5273.4 6004.2 Q 5325.2 6028.6, 5385.2 6028.6 Q 5494.6 6028.6, 5564.4 5956.8 Q 5602.5 5917.8, 5622.5 5860.6 Q 5644.5 5798.1, 5644.5 5732.7 Q 5644.5 5582.8, 5564.4 5500.3 Q 5495.1 5428.5, 5384.7 5428.5 " fill="#000"/>
<path class="atom-8" d="M 6304.9 5755.7 L 5929.4 5755.7 L 5929.4 6087.7 L 5836.7 6087.7 L 5836.7 5358.7 L 5929.4 5358.7 L 5929.4 5673.6 L 6304.9 5673.6 L 6304.9 5358.7 L 6397.7 5358.7 L 6397.7 6087.7 L 6304.9 6087.7 L 6304.9 5755.7 " fill="#000"/>
<path class="atom-9" d="M 1370.8 3775.9 L 995.3 3775.9 L 995.3 4107.9 L 902.5 4107.9 L 902.5 3378.9 L 995.3 3378.9 L 995.3 3693.9 L 1370.8 3693.9 L 1370.8 3378.9 L 1463.5 3378.9 L 1463.5 4107.9 L 1370.8 4107.9 L 1370.8 3775.9 " fill="#000"/>
<path class="atom-9" d="M 1956.0 3366.7 Q 2091.7 3366.7, 2183.0 3443.9 Q 2247.5 3498.6, 2279.2 3582.6 Q 2309.0 3661.7, 2309.0 3754.4 Q 2309.0 3878.9, 2249.0 3976.1 Q 2194.3 4065.0, 2100.0 4104.0 Q 2035.1 4130.9, 1957.0 4130.9 Q 1821.2 4130.9, 1730.4 4053.7 Q 1666.9 3999.1, 1634.7 3915.6 Q 1604.9 3836.5, 1604.9 3748.6 Q 1604.9 3618.7, 1665.0 3521.5 Q 1720.1 3431.7, 1813.9 3393.1 Q 1878.8 3366.7, 1956.0 3366.7 M 1956.0 3448.8 Q 1848.1 3448.8, 1777.8 3520.5 Q 1739.7 3559.6, 1719.7 3616.7 Q 1697.7 3679.7, 1697.7 3749.1 Q 1697.7 3847.7, 1737.7 3922.4 Q 1775.3 3991.2, 1844.7 4024.5 Q 1896.4 4048.9, 1956.5 4048.9 Q 2065.8 4048.9, 2135.7 3977.1 Q 2173.8 3938.0, 2193.8 3880.9 Q 2215.8 3818.4, 2215.8 3753.0 Q 2215.8 3603.1, 2135.7 3520.5 Q 2066.3 3448.8, 1956.0 3448.8 " fill="#000"/>
<path d="M 8754.55000003986 3784.3978129328584 L 8874.549999960138 3784.4021870671418" style="stroke: rgb(0, 0, 0); stroke-width: 90px; stroke-linecap: butt; stroke-linejoin: miter;"/><path d="M 8724.54000005979 4058.736719399288 L 8904.539999940209 4058.7432806007123" style="stroke: rgb(0, 0, 0); stroke-width: 90px; stroke-linecap: butt; stroke-linejoin: miter;"/><path d="M 8694.53000007972 4333.075625865717 L 8934.529999920278 4333.084374134283" style="stroke: rgb(0, 0, 0); stroke-width: 90px; stroke-linecap: butt; stroke-linejoin: miter;"/><path d="M 8664.520000099652 4607.414532332146 L 8964.519999900349 4607.425467667854" style="stroke: rgb(0, 0, 0); stroke-width: 90px; stroke-linecap: butt; stroke-linejoin: miter;"/><path d="M 8634.510000119582 4881.753438798576 L 8994.509999880418 4881.766561201424" style="stroke: rgb(0, 0, 0); stroke-width: 90px; stroke-linecap: butt; stroke-linejoin: miter;"/><path d="M 8604.500000139511 5156.092345265005 L 9024.499999860489 5156.107654734996" style="stroke: rgb(0, 0, 0); stroke-width: 90px; stroke-linecap: butt; stroke-linejoin: miter;"/><path d="M 5325.75 3784.7 L 5445.75 3784.7" style="stroke: rgb(0, 0, 0); stroke-width: 90px; stroke-linecap: butt; stroke-linejoin: miter;"/><path d="M 5295.75 4059.04 L 5475.75 4059.04" style="stroke: rgb(0, 0, 0); stroke-width: 90px; stroke-linecap: butt; stroke-linejoin: miter;"/><path d="M 5265.75 4333.38 L 5505.75 4333.38" style="stroke: rgb(0, 0, 0); stroke-width: 90px; stroke-linecap: butt; stroke-linejoin: miter;"/><path d="M 5235.75 4607.719999999999 L 5535.75 4607.719999999999" style="stroke: rgb(0, 0, 0); stroke-width: 90px; stroke-linecap: butt; stroke-linejoin: miter;"/><path d="M 5205.75 4882.0599999999995 L 5565.75 4882.0599999999995" style="stroke: rgb(0, 0, 0); stroke-width: 90px; stroke-linecap: butt; stroke-linejoin: miter;"/><path d="M 5175.75 5156.4 L 5595.75 5156.4" style="stroke: rgb(0, 0, 0); stroke-width: 90px; stroke-linecap: butt; stroke-linejoin: miter;"/></svg>