<?xml version="1.0" standalone="no" ?>
<!DOCTYPE svg PUBLIC "-//W3C//DTD SVG 1.1//EN" "http://www.w3.org/Graphics/SVG/1.1/DTD/svg11.dtd">
<svg width="241px" height="149px" viewBox="0 0 241 149" style="background-color: #ffffffff" xmlns="http://www.w3.org/2000/svg" xmlns:xlink="http://www.w3.org/1999/xlink" version="1.1" >
<text x="0" y="0" stroke="transparent" fill="#000000" transform="matrix(0.05 0 0 0.05 2.48835 65.8625)" style="font:normal normal normal 558px 'Arial'" >
HO</text>
<text x="0" y="0" stroke="transparent" fill="#000000" transform="matrix(0.05 0 0 0.05 2.48835 146.216)" style="font:normal normal normal 558px 'Arial'" >
HO</text>
<text x="0" y="0" stroke="transparent" fill="#000000" transform="matrix(0.05 0 0 0.05 161.823 25.6856)" style="font:normal normal normal 558px 'Arial'" >
O</text>
<text x="0" y="0" stroke="transparent" fill="#000000" transform="matrix(0.05 0 0 0.05 196.616 85.951)" style="font:normal normal normal 558px 'Arial'" >
OH</text>
<path stroke="transparent" fill="#000000" transform="matrix(0.05 0 0 0.05 -315 -69)" d="M 9074.35,2914.93 L 9057.61,2905.27 L 9057.61,2885.94 L 9753.47,2484.17 L 9753.47,2522.83 L 9074.35,2914.93 Z " />
<path stroke="transparent" fill="#000000" transform="matrix(0.05 0 0 0.05 -315 -69)" d="M 8361.48,2522.83 L 8361.48,2484.17 L 9057.61,2885.94 L 9057.61,2905.27 L 9040.87,2914.94 L 8361.48,2522.83 Z " />
<path stroke="transparent" fill="#000000" transform="matrix(0.05 0 0 0.05 -315 -69)" d="M 7682.35,2914.93 L 7665.62,2905.27 L 7665.62,2885.94 L 8361.48,2484.17 L 8361.48,2522.83 L 7682.35,2914.93 Z " />
<path stroke="transparent" fill="#000000" transform="matrix(0.05 0 0 0.05 -315 -69)" d="M 7818.62,3003.27 L 7801.88,2974.28 L 8353.12,2656 L 8369.86,2685 L 7818.62,3003.27 Z " />
<path stroke="transparent" fill="#000000" transform="matrix(0.05 0 0 0.05 -315 -69)" d="M 7209.05,2660.99 L 7225.79,2632 L 7665.62,2885.94 L 7665.62,2905.27 L 7648.88,2914.93 L 7209.05,2660.99 Z " />
<path stroke="transparent" fill="#000000" transform="matrix(0.05 0 0 0.05 -315 -69)" d="M 7682.35,3699.14 L 7665.62,3708.81 L 7648.88,3699.14 L 7648.88,2914.93 L 7665.62,2905.27 L 7682.35,2914.93 L 7682.35,3699.14 Z " />
<path stroke="transparent" fill="#000000" transform="matrix(0.05 0 0 0.05 -315 -69)" d="M 7231.2,3978.95 L 7214.46,3949.96 L 7648.88,3699.14 L 7665.62,3708.81 L 7665.62,3728.14 L 7231.2,3978.95 Z " />
<path stroke="transparent" fill="#000000" transform="matrix(0.05 0 0 0.05 -315 -69)" d="M 8361.48,4091.25 L 8361.48,4129.9 L 7665.62,3728.14 L 7665.62,3708.81 L 7682.35,3699.14 L 8361.48,4091.25 Z " />
<path stroke="transparent" fill="#000000" transform="matrix(0.05 0 0 0.05 -315 -69)" d="M 8369.86,3929.08 L 8353.12,3958.07 L 7801.88,3639.8 L 7818.62,3610.81 L 8369.86,3929.08 Z " />
<path stroke="transparent" fill="#000000" transform="matrix(0.05 0 0 0.05 -315 -69)" d="M 9040.87,3699.14 L 9074.35,3718.47 L 8361.48,4129.9 L 8361.48,4091.25 L 9040.87,3699.14 Z " />
<path stroke="transparent" fill="#000000" transform="matrix(0.05 0 0 0.05 -315 -69)" d="M 9074.35,3718.47 L 9040.87,3699.14 L 9040.87,2914.94 L 9057.61,2905.27 L 9074.35,2914.93 L 9074.35,3718.47 Z " />
<path stroke="transparent" fill="#000000" transform="matrix(0.05 0 0 0.05 -315 -69)" d="M 8929.71,3625.29 L 8896.23,3625.29 L 8896.23,2988.79 L 8929.71,2988.79 L 8929.71,3625.29 Z " />
<path stroke="transparent" fill="#000000" transform="matrix(0.05 0 0 0.05 -315 -69)" d="M 9664.42,1989.49 L 9697.89,1989.49 L 9697.89,2545.25 L 9664.42,2545.25 L 9664.42,1989.49 Z " />
<path stroke="transparent" fill="#000000" transform="matrix(0.05 0 0 0.05 -315 -69)" d="M 9809.05,1989.49 L 9842.53,1989.49 L 9842.53,2545.25 L 9809.05,2545.25 L 9809.05,1989.49 Z " />
<path stroke="transparent" fill="#000000" transform="matrix(0.05 0 0 0.05 -315 -69)" d="M 10205.1,2744.9 L 10188.3,2773.9 L 9753.47,2522.83 L 9753.47,2484.17 L 10205.1,2744.9 Z " />
</svg>
