<?xml version="1.0" standalone="no" ?>
<!DOCTYPE svg PUBLIC "-//W3C//DTD SVG 1.1//EN" "http://www.w3.org/Graphics/SVG/1.1/DTD/svg11.dtd">
<svg width="210px" height="178px" viewBox="0 0 210 178" style="background-color: #ffffff00" xmlns="http://www.w3.org/2000/svg" xmlns:xlink="http://www.w3.org/1999/xlink" version="1.1" >
<text x="0" y="0" stroke="transparent" fill="#000000" transform="matrix(0.0666667 0 0 0.0666667 82.4128 174.739)" style="font:normal normal normal 200px 'Arial'" >
OH</text>
<text x="0" y="0" stroke="transparent" fill="#000000" transform="matrix(0.0666667 0 0 0.0666667 3.50189 134.739)" style="font:normal normal normal 200px 'Arial'" >
HO</text>
<text x="0" y="0" stroke="transparent" fill="#000000" transform="matrix(0.0666667 0 0 0.0666667 3.50189 54.7389)" style="font:normal normal normal 200px 'Arial'" >
HO</text>
<text x="0" y="0" stroke="transparent" fill="#000000" transform="matrix(0.0666667 0 0 0.0666667 151.695 14.7389)" style="font:normal normal normal 200px 'Arial'" >
O</text>
<text x="0" y="0" stroke="transparent" fill="#000000" transform="matrix(0.0666667 0 0 0.0666667 186.336 74.7389)" style="font:normal normal normal 200px 'Arial'" >
OH</text>
<path stroke="transparent" fill="#000000" transform="matrix(0.0666667 0 0 0.0666667 -31.0667 -4.33333)" d="M 2309.81,1113.86 L 2299.81,1108.08 L 2299.81,1096.54 L 2819.42,796.536 L 2819.42,819.63 L 2309.81,1113.86 Z " />
<path stroke="transparent" fill="#000000" transform="matrix(0.0666667 0 0 0.0666667 -31.0667 -4.33333)" d="M 2309.81,1713.86 L 2289.81,1702.31 L 2289.81,1113.86 L 2299.81,1108.08 L 2309.81,1113.86 L 2309.81,1713.86 Z " />
<path stroke="transparent" fill="#000000" transform="matrix(0.0666667 0 0 0.0666667 -31.0667 -4.33333)" d="M 2237.81,1666.51 L 2217.81,1666.51 L 2217.81,1149.65 L 2237.81,1149.65 L 2237.81,1666.51 Z " />
<path stroke="transparent" fill="#000000" transform="matrix(0.0666667 0 0 0.0666667 -31.0667 -4.33333)" d="M 1790.74,2013.54 L 1780.19,2008.08 L 1780.19,1996.54 L 2289.81,1702.31 L 2309.81,1713.86 L 1790.74,2013.54 Z " />
<path stroke="transparent" fill="#000000" transform="matrix(0.0666667 0 0 0.0666667 -31.0667 -4.33333)" d="M 1840.19,2502.92 L 1720.19,2502.92 L 1769.64,2013.54 L 1780.19,2008.08 L 1790.74,2013.54 L 1840.19,2502.92 Z " />
<path stroke="transparent" fill="#000000" transform="matrix(0.0666667 0 0 0.0666667 -31.0667 -4.33333)" d="M 1261.13,1719.95 L 1260.58,1708.08 L 1270.58,1702.31 L 1780.19,1996.54 L 1780.19,2008.08 L 1769.64,2013.54 L 1261.13,1719.95 Z " />
<path stroke="transparent" fill="#000000" transform="matrix(0.0666667 0 0 0.0666667 -31.0667 -4.33333)" d="M 863.572,2006.58 L 803.572,1902.65 L 1250.58,1701.67 L 1260.58,1708.08 L 1261.13,1719.95 L 863.572,2006.58 Z " />
<path stroke="transparent" fill="#000000" transform="matrix(0.0666667 0 0 0.0666667 -31.0667 -4.33333)" d="M 1250.58,1102.31 L 1270.58,1113.86 L 1270.58,1702.31 L 1260.58,1708.08 L 1250.58,1701.67 L 1250.58,1102.31 Z " />
<path stroke="transparent" fill="#000000" transform="matrix(0.0666667 0 0 0.0666667 -31.0667 -4.33333)" d="M 810.99,917.796 L 870.99,813.873 L 887.149,825.885 L 829.472,925.784 L 810.99,917.796 Z " />
<path stroke="transparent" fill="#000000" transform="matrix(0.0666667 0 0 0.0666667 -31.0667 -4.33333)" d="M 865.175,941.215 L 918.364,849.089 L 934.523,861.101 L 883.657,949.203 L 865.175,941.215 Z " />
<path stroke="transparent" fill="#000000" transform="matrix(0.0666667 0 0 0.0666667 -31.0667 -4.33333)" d="M 919.359,964.634 L 965.737,884.305 L 981.896,896.317 L 937.841,972.622 L 919.359,964.634 Z " />
<path stroke="transparent" fill="#000000" transform="matrix(0.0666667 0 0 0.0666667 -31.0667 -4.33333)" d="M 973.544,988.053 L 1013.11,919.52 L 1029.27,931.532 L 992.026,996.041 L 973.544,988.053 Z " />
<path stroke="transparent" fill="#000000" transform="matrix(0.0666667 0 0 0.0666667 -31.0667 -4.33333)" d="M 1027.73,1011.47 L 1060.48,954.736 L 1076.64,966.748 L 1046.21,1019.46 L 1027.73,1011.47 Z " />
<path stroke="transparent" fill="#000000" transform="matrix(0.0666667 0 0 0.0666667 -31.0667 -4.33333)" d="M 1081.91,1034.89 L 1107.86,989.952 L 1124.02,1001.96 L 1100.39,1042.88 L 1081.91,1034.89 Z " />
<path stroke="transparent" fill="#000000" transform="matrix(0.0666667 0 0 0.0666667 -31.0667 -4.33333)" d="M 1136.1,1058.31 L 1155.23,1025.17 L 1171.39,1037.18 L 1154.58,1066.3 L 1136.1,1058.31 Z " />
<path stroke="transparent" fill="#000000" transform="matrix(0.0666667 0 0 0.0666667 -31.0667 -4.33333)" d="M 1190.28,1081.73 L 1202.6,1060.38 L 1218.76,1072.4 L 1208.76,1089.72 L 1190.28,1081.73 Z " />
<path stroke="transparent" fill="#000000" transform="matrix(0.0666667 0 0 0.0666667 -31.0667 -4.33333)" d="M 1780.19,796.536 L 1780.19,819.63 L 1270.58,1113.86 L 1250.58,1102.31 L 1780.19,796.536 Z " />
<path stroke="transparent" fill="#000000" transform="matrix(0.0666667 0 0 0.0666667 -31.0667 -4.33333)" d="M 1780.19,819.63 L 1780.19,796.536 L 2299.81,1096.54 L 2299.81,1108.08 L 2289.81,1113.86 L 1780.19,819.63 Z " />
<path stroke="transparent" fill="#000000" transform="matrix(0.0666667 0 0 0.0666667 -31.0667 -4.33333)" d="M 2773.42,327.917 L 2793.42,327.917 L 2793.42,828.868 L 2773.42,828.868 L 2773.42,327.917 Z " />
<path stroke="transparent" fill="#000000" transform="matrix(0.0666667 0 0 0.0666667 -31.0667 -4.33333)" d="M 2845.42,327.917 L 2865.42,327.917 L 2865.42,828.868 L 2845.42,828.868 L 2845.42,327.917 Z " />
<path stroke="transparent" fill="#000000" transform="matrix(0.0666667 0 0 0.0666667 -31.0667 -4.33333)" d="M 3251.42,1045.95 L 3241.42,1063.27 L 2819.42,819.63 L 2819.42,796.536 L 3251.42,1045.95 Z " />
</svg>
