<?xml version="1.0" standalone="no" ?>
<!DOCTYPE svg PUBLIC "-//W3C//DTD SVG 1.1//EN" "http://www.w3.org/Graphics/SVG/1.1/DTD/svg11.dtd">
<svg width="214px" height="151px" viewBox="0 0 214 151" style="background-color: #ffffff00" xmlns="http://www.w3.org/2000/svg" xmlns:xlink="http://www.w3.org/1999/xlink" version="1.1" >
<text x="0" y="0" stroke="transparent" fill="#000000" transform="matrix(0.0666667 0 0 0.0666667 67.4923 88.1)" style="font:normal normal normal 200px 'Arial'" >
N</text>
<text x="0" y="0" stroke="transparent" fill="#000000" transform="matrix(0.0666667 0 0 0.0666667 101.733 148.1)" style="font:normal normal normal 200px 'Arial'" >
O</text>
<text x="0" y="0" stroke="transparent" fill="#000000" transform="matrix(0.0666667 0 0 0.0666667 136.374 88.1)" style="font:normal normal normal 200px 'Arial'" >
O</text>
<text x="0" y="0" stroke="transparent" fill="#000000" transform="matrix(0.0666667 0 0 0.0666667 31.7236 108.1)" style="font:normal normal normal 200px 'Arial'" >
Si</text>
<text x="0" y="0" stroke="transparent" fill="#000000" transform="matrix(0.0666667 0 0 0.0666667 66.3646 48.1)" style="font:normal normal normal 200px 'Arial'" >
Si</text>
<text x="0" y="0" stroke="transparent" fill="#000000" transform="matrix(0.0666667 0 0 0.0666667 170.288 108.1)" style="font:normal normal normal 200px 'Arial'" >
Si</text>
<path stroke="transparent" fill="#000000" transform="matrix(0.0666667 0 0 0.0666667 -24.0667 -2.93333)" d="M 1550.44,1359.7 L 1560.44,1342.38 L 1965,1575.95 L 1965,1599.05 L 1550.44,1359.7 Z " />
<path stroke="transparent" fill="#000000" transform="matrix(0.0666667 0 0 0.0666667 -24.0667 -2.93333)" d="M 2011,2082.33 L 1991,2082.33 L 1991,1566.72 L 2011,1566.72 L 2011,2082.33 Z " />
<path stroke="transparent" fill="#000000" transform="matrix(0.0666667 0 0 0.0666667 -24.0667 -2.93333)" d="M 1939,2082.33 L 1919,2082.33 L 1919,1566.72 L 1939,1566.72 L 1939,2082.33 Z " />
<path stroke="transparent" fill="#000000" transform="matrix(0.0666667 0 0 0.0666667 -24.0667 -2.93333)" d="M 2380.01,1336.35 L 2390.01,1353.67 L 1965,1599.05 L 1965,1575.95 L 2380.01,1336.35 Z " />
<path stroke="transparent" fill="#000000" transform="matrix(0.0666667 0 0 0.0666667 -24.0667 -2.93333)" d="M 411.154,1896.16 L 401.154,1878.84 L 806.283,1644.94 L 816.283,1662.26 L 411.154,1896.16 Z " />
<path stroke="transparent" fill="#000000" transform="matrix(0.0666667 0 0 0.0666667 -24.0667 -2.93333)" d="M 935.77,2187.5 L 915.77,2187.5 L 915.77,1707.33 L 935.77,1707.33 L 935.77,2187.5 Z " />
<path stroke="transparent" fill="#000000" transform="matrix(0.0666667 0 0 0.0666667 -24.0667 -2.93333)" d="M 401.154,1296.16 L 411.154,1278.84 L 824.884,1517.71 L 814.884,1535.03 L 401.154,1296.16 Z " />
<path stroke="transparent" fill="#000000" transform="matrix(0.0666667 0 0 0.0666667 -24.0667 -2.93333)" d="M 1048.64,1528.11 L 1038.64,1510.79 L 1330.33,1342.38 L 1340.33,1359.7 L 1048.64,1528.11 Z " />
<path stroke="transparent" fill="#000000" transform="matrix(0.0666667 0 0 0.0666667 -24.0667 -2.93333)" d="M 920.77,396.16 L 930.77,378.84 L 1344.5,617.707 L 1334.5,635.027 L 920.77,396.16 Z " />
<path stroke="transparent" fill="#000000" transform="matrix(0.0666667 0 0 0.0666667 -24.0667 -2.93333)" d="M 1960,378.84 L 1970,396.16 L 1568.26,628.106 L 1558.26,610.786 L 1960,378.84 Z " />
<path stroke="transparent" fill="#000000" transform="matrix(0.0666667 0 0 0.0666667 -24.0667 -2.93333)" d="M 1435.38,87.5 L 1455.38,87.5 L 1455.38,582.333 L 1435.38,582.333 L 1435.38,87.5 Z " />
<path stroke="transparent" fill="#000000" transform="matrix(0.0666667 0 0 0.0666667 -24.0667 -2.93333)" d="M 1435.38,807.333 L 1455.38,807.333 L 1455.38,1184.67 L 1435.38,1184.67 L 1435.38,807.333 Z " />
<path stroke="transparent" fill="#000000" transform="matrix(0.0666667 0 0 0.0666667 -24.0667 -2.93333)" d="M 3518.85,1278.84 L 3528.85,1296.16 L 3127.1,1528.11 L 3117.1,1510.79 L 3518.85,1278.84 Z " />
<path stroke="transparent" fill="#000000" transform="matrix(0.0666667 0 0 0.0666667 -24.0667 -2.93333)" d="M 3014.23,2187.5 L 2994.23,2187.5 L 2994.23,1707.33 L 3014.23,1707.33 L 3014.23,2187.5 Z " />
<path stroke="transparent" fill="#000000" transform="matrix(0.0666667 0 0 0.0666667 -24.0667 -2.93333)" d="M 3528.85,1878.84 L 3518.85,1896.16 L 3124.75,1668.63 L 3134.75,1651.31 L 3528.85,1878.84 Z " />
<path stroke="transparent" fill="#000000" transform="matrix(0.0666667 0 0 0.0666667 -24.0667 -2.93333)" d="M 2903.34,1517.71 L 2893.34,1535.03 L 2579.65,1353.92 L 2589.65,1336.6 L 2903.34,1517.71 Z " />
</svg>
